<?xml version="1.0" encoding="utf-8"?>
<!-- Generator: Adobe Illustrator 17.1.0, SVG Export Plug-In . SVG Version: 6.00 Build 0)  -->
<!DOCTYPE svg PUBLIC "-//W3C//DTD SVG 1.1//EN" "http://www.w3.org/Graphics/SVG/1.1/DTD/svg11.dtd">
<svg version="1.1" id="Layer_1" xmlns="http://www.w3.org/2000/svg" xmlns:xlink="http://www.w3.org/1999/xlink" x="0px" y="0px"
	 viewBox="0 0 500 500" enable-background="new 0 0 500 500" xml:space="preserve">
<pattern  width="56.1" height="155.3" patternUnits="userSpaceOnUse" id="New_Pattern_Swatch_1" viewBox="0 -155.3 56.1 155.3" overflow="visible">
	<g>
		<polygon fill="none" points="0,0 56.1,0 56.1,-155.3 0,-155.3 		"/>
		<g>
			<g>
				<g>
					<line fill="none" stroke="#93BEA1" stroke-width="0.25" stroke-miterlimit="10" x1="56" y1="-155.3" x2="56" y2="-155"/>
					
						<line fill="none" stroke="#93BEA1" stroke-width="0.25" stroke-miterlimit="10" stroke-dasharray="0.9881,0.4941,1.4822,0.9881" x1="55.8" y1="-153.5" x2="55.6" y2="-150.1"/>
					
						<line fill="none" stroke="#93BEA1" stroke-width="0.25" stroke-miterlimit="10" stroke-dasharray="0.4941,1.4822,0.9881,0.4941,1.4822,0.9881" x1="55.6" y1="-149.6" x2="45" y2="-2.2"/>
					<line fill="none" stroke="#93BEA1" stroke-width="0.25" stroke-miterlimit="10" x1="45" y1="-1.7" x2="45" y2="-1.5"/>
				</g>
			</g>
			<g>
				<g>
					<line fill="none" stroke="#93BEA1" stroke-width="0.25" stroke-miterlimit="10" x1="48" y1="-155" x2="48" y2="-154.8"/>
					
						<line fill="none" stroke="#93BEA1" stroke-width="0.25" stroke-miterlimit="10" stroke-dasharray="0.9869,0.4934,1.4803,0.9869" x1="47.9" y1="-153.3" x2="47.7" y2="-149.9"/>
					
						<line fill="none" stroke="#93BEA1" stroke-width="0.25" stroke-miterlimit="10" stroke-dasharray="0.4934,1.4803,0.9869,0.4934,1.4803,0.9869" x1="47.7" y1="-149.4" x2="40.2" y2="-2"/>
					<line fill="none" stroke="#93BEA1" stroke-width="0.25" stroke-miterlimit="10" x1="40.1" y1="-1.5" x2="40.1" y2="-1.3"/>
				</g>
			</g>
			<g>
				<g>
					<line fill="none" stroke="#93BEA1" stroke-width="0.25" stroke-miterlimit="10" x1="40" y1="-154.8" x2="40" y2="-154.6"/>
					
						<line fill="none" stroke="#93BEA1" stroke-width="0.25" stroke-miterlimit="10" stroke-dasharray="0.986,0.493,1.4791,0.986" x1="40" y1="-153.1" x2="39.9" y2="-149.7"/>
					
						<line fill="none" stroke="#93BEA1" stroke-width="0.25" stroke-miterlimit="10" stroke-dasharray="0.493,1.4791,0.986,0.493,1.4791,0.986" x1="39.8" y1="-149.2" x2="35.3" y2="-1.8"/>
					<line fill="none" stroke="#93BEA1" stroke-width="0.25" stroke-miterlimit="10" x1="35.3" y1="-1.3" x2="35.3" y2="-1.1"/>
				</g>
			</g>
			<g>
				<g>
					<line fill="none" stroke="#93BEA1" stroke-width="0.25" stroke-miterlimit="10" x1="32" y1="-154.6" x2="32" y2="-154.4"/>
					
						<line fill="none" stroke="#93BEA1" stroke-width="0.25" stroke-miterlimit="10" stroke-dasharray="0.9856,0.4928,1.4784,0.9856" x1="32" y1="-152.9" x2="32" y2="-149.4"/>
					
						<line fill="none" stroke="#93BEA1" stroke-width="0.25" stroke-miterlimit="10" stroke-dasharray="0.4928,1.4784,0.9856,0.4928,1.4784,0.9856" x1="32" y1="-148.9" x2="30.5" y2="-1.6"/>
					<line fill="none" stroke="#93BEA1" stroke-width="0.25" stroke-miterlimit="10" x1="30.5" y1="-1.1" x2="30.5" y2="-0.9"/>
				</g>
			</g>
			<g>
				<g>
					<line fill="none" stroke="#93BEA1" stroke-width="0.25" stroke-miterlimit="10" x1="24.1" y1="-154.4" x2="24.1" y2="-154.2"/>
					
						<line fill="none" stroke="#93BEA1" stroke-width="0.25" stroke-miterlimit="10" stroke-dasharray="0.9856,0.4928,1.4785,0.9856" x1="24.1" y1="-152.7" x2="24.1" y2="-149.2"/>
					
						<line fill="none" stroke="#93BEA1" stroke-width="0.25" stroke-miterlimit="10" stroke-dasharray="0.4928,1.4785,0.9856,0.4928,1.4785,0.9856" x1="24.1" y1="-148.7" x2="25.6" y2="-1.4"/>
					<line fill="none" stroke="#93BEA1" stroke-width="0.25" stroke-miterlimit="10" x1="25.6" y1="-0.9" x2="25.6" y2="-0.6"/>
				</g>
			</g>
			<g>
				<g>
					<line fill="none" stroke="#93BEA1" stroke-width="0.25" stroke-miterlimit="10" x1="16.1" y1="-154.2" x2="16.1" y2="-153.9"/>
					
						<line fill="none" stroke="#93BEA1" stroke-width="0.25" stroke-miterlimit="10" stroke-dasharray="0.986,0.493,1.4791,0.986" x1="16.1" y1="-152.5" x2="16.2" y2="-149"/>
					
						<line fill="none" stroke="#93BEA1" stroke-width="0.25" stroke-miterlimit="10" stroke-dasharray="0.493,1.4791,0.986,0.493,1.4791,0.986" x1="16.3" y1="-148.5" x2="20.8" y2="-1.2"/>
					<line fill="none" stroke="#93BEA1" stroke-width="0.25" stroke-miterlimit="10" x1="20.8" y1="-0.7" x2="20.8" y2="-0.4"/>
				</g>
			</g>
			<g>
				<g>
					<line fill="none" stroke="#93BEA1" stroke-width="0.25" stroke-miterlimit="10" x1="8.1" y1="-154" x2="8.1" y2="-153.7"/>
					
						<line fill="none" stroke="#93BEA1" stroke-width="0.25" stroke-miterlimit="10" stroke-dasharray="0.9869,0.4934,1.4803,0.9869" x1="8.2" y1="-152.3" x2="8.4" y2="-148.8"/>
					
						<line fill="none" stroke="#93BEA1" stroke-width="0.25" stroke-miterlimit="10" stroke-dasharray="0.4934,1.4803,0.9869,0.4934,1.4803,0.9869" x1="8.4" y1="-148.3" x2="15.9" y2="-1"/>
					<line fill="none" stroke="#93BEA1" stroke-width="0.25" stroke-miterlimit="10" x1="15.9" y1="-0.5" x2="16" y2="-0.2"/>
				</g>
			</g>
			<g>
				<g>
					<line fill="none" stroke="#93BEA1" stroke-width="0.25" stroke-miterlimit="10" x1="0.1" y1="-153.8" x2="0.1" y2="-153.5"/>
					
						<line fill="none" stroke="#93BEA1" stroke-width="0.25" stroke-miterlimit="10" stroke-dasharray="0.9881,0.4941,1.4822,0.9881" x1="0.2" y1="-152" x2="0.5" y2="-148.6"/>
					
						<line fill="none" stroke="#93BEA1" stroke-width="0.25" stroke-miterlimit="10" stroke-dasharray="0.4941,1.4822,0.9881,0.4941,1.4822,0.9881" x1="0.5" y1="-148.1" x2="11.1" y2="-0.8"/>
					<line fill="none" stroke="#93BEA1" stroke-width="0.25" stroke-miterlimit="10" x1="11.1" y1="-0.3" x2="11.1" y2="0"/>
				</g>
			</g>
		</g>
	</g>
</pattern>
<g>
	<g>
		<path fill="#93BEA1" d="M297.8,132c-33.6,0-67.1,0-100.7,0c-2,82.8,4.3,166,13.6,248.8c23.9,0,47.8,0,71.7,0
			C292.1,298.1,299.2,214.9,297.8,132z"/>
	</g>
	<g>
		<path fill="#185F30" d="M297.8,126.1c-17.4,0-34.8,0-52.2,0c-16.2,0-32.3,0-48.5,0c0.1,87.8,9.9,176,20.9,263.7
			c19.1,0,38.1,0,57.2,0C286.6,302.1,297.2,213.9,297.8,126.1z"/>
	</g>
	<g opacity="0.5">
		<g>
			<pattern  id="SVGID_1_" xlink:href="#New_Pattern_Swatch_1" patternTransform="matrix(1 0 0 1 -1 0)">
			</pattern>
			<path fill="url(#SVGID_1_)" stroke="#93BEA1" stroke-width="0.8057" stroke-miterlimit="10" d="M291.6,131.5
				c0.5,82.5-7.9,165.3-17.7,247.8"/>
			<pattern  id="SVGID_2_" xlink:href="#New_Pattern_Swatch_1" patternTransform="matrix(1 0 0 1 -1 -5.000000e-02)">
			</pattern>
			<path fill="url(#SVGID_2_)" stroke="#93BEA1" stroke-width="0.8057" stroke-miterlimit="10" d="M287.1,131.5
				c0.5,82.5-7.1,165.3-15.9,247.8"/>
			<pattern  id="SVGID_3_" xlink:href="#New_Pattern_Swatch_1" patternTransform="matrix(1 0 0 1 -1 -0.1)">
			</pattern>
			<path fill="url(#SVGID_3_)" stroke="#93BEA1" stroke-width="0.8057" stroke-miterlimit="10" d="M282.6,131.5
				c0.4,82.5-6.3,165.3-14.2,247.8"/>
			<pattern  id="SVGID_4_" xlink:href="#New_Pattern_Swatch_1" patternTransform="matrix(1 0 0 1 -1 -0.15)">
			</pattern>
			<path fill="url(#SVGID_4_)" stroke="#93BEA1" stroke-width="0.8057" stroke-miterlimit="10" d="M278.1,131.6
				c0.4,82.5-5.5,165.3-12.4,247.8"/>
			<pattern  id="SVGID_5_" xlink:href="#New_Pattern_Swatch_1" patternTransform="matrix(1 0 0 1 -1 -0.2)">
			</pattern>
			<path fill="url(#SVGID_5_)" stroke="#93BEA1" stroke-width="0.8057" stroke-miterlimit="10" d="M273.6,131.6
				c0.3,82.5-4.7,165.3-10.6,247.8"/>
			<pattern  id="SVGID_6_" xlink:href="#New_Pattern_Swatch_1" patternTransform="matrix(1 0 0 1 -1 -0.25)">
			</pattern>
			<path fill="url(#SVGID_6_)" stroke="#93BEA1" stroke-width="0.8057" stroke-miterlimit="10" d="M269.1,131.7
				c0.3,82.5-4,165.3-8.9,247.8"/>
			<pattern  id="SVGID_7_" xlink:href="#New_Pattern_Swatch_1" patternTransform="matrix(1 0 0 1 -1 -0.3)">
			</pattern>
			<path fill="url(#SVGID_7_)" stroke="#93BEA1" stroke-width="0.8057" stroke-miterlimit="10" d="M264.6,131.7
				c0.2,82.5-3.2,165.3-7.1,247.8"/>
			<pattern  id="SVGID_8_" xlink:href="#New_Pattern_Swatch_1" patternTransform="matrix(1 0 0 1 -1 -0.35)">
			</pattern>
			<path fill="url(#SVGID_8_)" stroke="#93BEA1" stroke-width="0.8057" stroke-miterlimit="10" d="M260.1,131.7
				c0.2,82.5-2.4,165.3-5.3,247.8"/>
			<pattern  id="SVGID_9_" xlink:href="#New_Pattern_Swatch_1" patternTransform="matrix(1 0 0 1 -1 -0.4)">
			</pattern>
			<path fill="url(#SVGID_9_)" stroke="#93BEA1" stroke-width="0.8057" stroke-miterlimit="10" d="M255.6,131.8
				c0.1,82.5-1.6,165.3-3.5,247.8"/>
			<pattern  id="SVGID_10_" xlink:href="#New_Pattern_Swatch_1" patternTransform="matrix(1 0 0 1 -1 -0.45)">
			</pattern>
			<path fill="url(#SVGID_10_)" stroke="#93BEA1" stroke-width="0.8057" stroke-miterlimit="10" d="M251.1,131.8
				c0.1,82.5-0.8,165.3-1.8,247.8"/>
			<pattern  id="SVGID_11_" xlink:href="#New_Pattern_Swatch_1" patternTransform="matrix(1 0 0 1 -1 -0.5)">
			</pattern>
			<path fill="url(#SVGID_11_)" stroke="#93BEA1" stroke-width="0.8057" stroke-miterlimit="10" d="M246.6,131.8
				c0,82.5,0,165.3,0,247.8"/>
			<pattern  id="SVGID_12_" xlink:href="#New_Pattern_Swatch_1" patternTransform="matrix(1 0 0 1 -1 -0.55)">
			</pattern>
			<path fill="url(#SVGID_12_)" stroke="#93BEA1" stroke-width="0.8057" stroke-miterlimit="10" d="M242.1,131.9
				c0,82.5,0.8,165.3,1.8,247.8"/>
			<pattern  id="SVGID_13_" xlink:href="#New_Pattern_Swatch_1" patternTransform="matrix(1 0 0 1 -1 -0.6)">
			</pattern>
			<path fill="url(#SVGID_13_)" stroke="#93BEA1" stroke-width="0.8057" stroke-miterlimit="10" d="M237.6,131.9
				c-0.1,82.5,1.6,165.3,3.5,247.8"/>
			<pattern  id="SVGID_14_" xlink:href="#New_Pattern_Swatch_1" patternTransform="matrix(1 0 0 1 -1 -0.65)">
			</pattern>
			<path fill="url(#SVGID_14_)" stroke="#93BEA1" stroke-width="0.8057" stroke-miterlimit="10" d="M233.1,132
				c-0.1,82.5,2.4,165.3,5.3,247.8"/>
			<pattern  id="SVGID_15_" xlink:href="#New_Pattern_Swatch_1" patternTransform="matrix(1 0 0 1 -1 -0.7)">
			</pattern>
			<path fill="url(#SVGID_15_)" stroke="#93BEA1" stroke-width="0.8057" stroke-miterlimit="10" d="M228.6,132
				c-0.2,82.5,3.2,165.3,7.1,247.8"/>
			<pattern  id="SVGID_16_" xlink:href="#New_Pattern_Swatch_1" patternTransform="matrix(1 0 0 1 -1 -0.75)">
			</pattern>
			<path fill="url(#SVGID_16_)" stroke="#93BEA1" stroke-width="0.8057" stroke-miterlimit="10" d="M224,132
				c-0.2,82.5,4,165.3,8.9,247.8"/>
			<pattern  id="SVGID_17_" xlink:href="#New_Pattern_Swatch_1" patternTransform="matrix(1 0 0 1 -1 -0.8)">
			</pattern>
			<path fill="url(#SVGID_17_)" stroke="#93BEA1" stroke-width="0.8057" stroke-miterlimit="10" d="M219.5,132.1
				c-0.3,82.5,4.8,165.3,10.7,247.8"/>
			<pattern  id="SVGID_18_" xlink:href="#New_Pattern_Swatch_1" patternTransform="matrix(1 0 0 1 -1 -0.85)">
			</pattern>
			<path fill="url(#SVGID_18_)" stroke="#93BEA1" stroke-width="0.8057" stroke-miterlimit="10" d="M215,132.1
				c-0.3,82.5,5.6,165.3,12.4,247.8"/>
			<pattern  id="SVGID_19_" xlink:href="#New_Pattern_Swatch_1" patternTransform="matrix(1 0 0 1 -1 -0.9)">
			</pattern>
			<path fill="url(#SVGID_19_)" stroke="#93BEA1" stroke-width="0.8057" stroke-miterlimit="10" d="M210.5,132.2
				c-0.4,82.5,6.4,165.3,14.2,247.8"/>
			<pattern  id="SVGID_20_" xlink:href="#New_Pattern_Swatch_1" patternTransform="matrix(1 0 0 1 -1 -0.95)">
			</pattern>
			<path fill="url(#SVGID_20_)" stroke="#93BEA1" stroke-width="0.8057" stroke-miterlimit="10" d="M206,132.2
				c-0.4,82.5,7.2,165.3,16,247.8"/>
			<pattern  id="SVGID_21_" xlink:href="#New_Pattern_Swatch_1" patternTransform="matrix(1 0 0 1 -1 -1)">
			</pattern>
			<path fill="url(#SVGID_21_)" stroke="#93BEA1" stroke-width="0.8057" stroke-miterlimit="10" d="M201.5,132.2
				c-0.5,82.5,8,165.3,17.8,247.8"/>
		</g>
	</g>
</g>
<path fill="#6E5556" d="M196.6,135.3v-8.5c0-1.3,2.7-2.3,6.1-2.3h92.5c3.4,0,6.1,1,6.1,2.3v8.5"/>
<path fill="#185F30" d="M316.5,443.4c3.6,3.6,5.7,17-0.9,17H180.2c-6.4,0-3.6-13.4-0.9-17l33.3-58c3.8-1.4,66.2-0.7,70.7,0
	L316.5,443.4z"/>
<path fill="#F7F3DF" d="M254.6,377.2c0,2.5,2.7,7.4,0,7.4h-12.9c-2.7,0,0-5,0-7.4V40c0-2.5,2.2-4.5,4.8-4.5h3.2c2.7,0,4.8,2,4.8,4.5
	V377.2z"/>
<path fill="#F7F3DF" d="M304.5,436.8c0.6,3-2.7,5.6-6,5.6H197c-3.3,0-6.7-2.6-6-5.6c3-14.1,22.8-52.1,26.1-52.1h61.3
	C281.7,384.7,301.5,422.7,304.5,436.8z"/>
<linearGradient id="SVGID_22_" gradientUnits="userSpaceOnUse" x1="207.3651" y1="397.8445" x2="287.1308" y2="397.8445">
	<stop  offset="0" style="stop-color:#A69032"/>
	<stop  offset="7.888475e-02" style="stop-color:#A99341"/>
	<stop  offset="0.2171" style="stop-color:#AC9754"/>
	<stop  offset="0.357" style="stop-color:#AE9960"/>
	<stop  offset="0.5" style="stop-color:#AF9A64"/>
	<stop  offset="0.7024" style="stop-color:#AF9A62"/>
	<stop  offset="0.8136" style="stop-color:#AD985A"/>
	<stop  offset="0.9027" style="stop-color:#AB954C"/>
	<stop  offset="0.9795" style="stop-color:#A79139"/>
	<stop  offset="1" style="stop-color:#A69032"/>
</linearGradient>
<path fill="url(#SVGID_22_)" d="M287.1,418.4c0,2.3-11.8,4.1-14.5,4.1h-50.8c-2.7,0-14.5-1.8-14.5-4.1l9.7-36.2
	c0-2.3,2.3-3.4,4.8-4.1c26.3-6.5,26.3-6.5,50.8,0c2.5,0.7,4.8,1.8,4.8,4.1L287.1,418.4z"/>
<polygon fill="#808184" points="176.7,466.3 176.7,471.3 319.9,471.6 319.9,466.3 "/>
<polygon fill="#ECE959" points="281.2,411 214.5,411 217.2,401.3 247.8,399.3 278.5,401.3 "/>
<g>
	<path fill="#E9EADE" stroke="#E8E8DD" stroke-width="1.6114" stroke-miterlimit="10" d="M274.3,187.8v1.6h-6.5v3.5h6.1v1.6h-6.1
		v3.9h6.8v1.6H266v-12.1H274.3z"/>
	<path fill="#E9EADE" stroke="#E8E8DD" stroke-width="1.6114" stroke-miterlimit="10" d="M267.5,211v8c0,0.4,0.1,0.8,0.2,1.2
		c0.2,0.3,0.4,0.6,0.6,0.9c0.3,0.2,0.5,0.4,0.9,0.6c0.3,0.1,0.6,0.2,1,0.2c0.4,0,0.7-0.1,1-0.2c0.3-0.1,0.7-0.3,0.9-0.5
		c0.3-0.2,0.5-0.5,0.7-0.9s0.3-0.7,0.3-1.2V211h1.8v8c0,0.5-0.1,0.9-0.2,1.3c-0.1,0.4-0.3,0.8-0.5,1.1c-0.2,0.3-0.5,0.6-0.8,0.9
		c-0.3,0.2-0.6,0.5-1,0.6c-0.3,0.2-0.7,0.3-1.1,0.4s-0.7,0.1-1.1,0.1c-0.5,0-1.1-0.1-1.6-0.3c-0.5-0.2-1-0.5-1.4-0.8
		c-0.4-0.4-0.8-0.8-1-1.4c-0.3-0.6-0.4-1.2-0.4-1.9v-8H267.5z"/>
	<path fill="#E9EADE" stroke="#E8E8DD" stroke-width="1.6114" stroke-miterlimit="10" d="M274.6,237.7c0,0.5-0.1,1.1-0.3,1.6
		c-0.2,0.5-0.6,0.9-1,1.2c0.2,0.1,0.4,0.3,0.6,0.4c0.2,0.2,0.3,0.4,0.4,0.6s0.2,0.4,0.2,0.7c0,0.2,0.1,0.5,0.1,0.7v1.8
		c0,0.2,0,0.5,0.1,0.8c0.1,0.3,0.2,0.6,0.4,0.8H273c-0.1-0.1-0.1-0.3-0.2-0.4s-0.1-0.3-0.1-0.4c0-0.1,0-0.3,0-0.4c0-0.1,0-0.2,0-0.3
		v-1.8c0-0.2,0-0.4-0.1-0.6s-0.2-0.4-0.3-0.5c-0.1-0.2-0.3-0.3-0.6-0.4c-0.2-0.1-0.5-0.1-0.9-0.1h-3.2v5h-1.8v-12.1h5
		c0.6,0,1.2,0.1,1.6,0.3c0.5,0.2,0.9,0.5,1.2,0.8c0.3,0.3,0.6,0.7,0.7,1.1S274.6,237.3,274.6,237.7z M267.6,239.7h3.2
		c0.3,0,0.5-0.1,0.8-0.2s0.5-0.2,0.6-0.4c0.2-0.2,0.3-0.4,0.4-0.6c0.1-0.2,0.2-0.5,0.2-0.8c0-0.3-0.1-0.5-0.2-0.8s-0.2-0.4-0.4-0.6
		c-0.2-0.2-0.4-0.3-0.6-0.4s-0.5-0.1-0.8-0.1h-3.2V239.7z"/>
	<path fill="#E9EADE" stroke="#E8E8DD" stroke-width="1.6114" stroke-miterlimit="10" d="M274.3,257.4v1.6h-6.5v3.5h6.1v1.6h-6.1
		v3.9h6.8v1.6H266v-12.1H274.3z"/>
	<path fill="#E9EADE" stroke="#E8E8DD" stroke-width="1.6114" stroke-miterlimit="10" d="M267.3,280.6v5.5l5.7-5.5h2.2l-4.9,4.8
		c0.4,0.6,0.8,1.2,1.2,1.8c0.4,0.6,0.9,1.2,1.3,1.9s0.9,1.2,1.3,1.8c0.4,0.6,0.8,1.2,1.2,1.8h-2l-4.2-6l-1.8,1.7v4.3h-1.8v-12.1
		H267.3z"/>
	<path fill="#E9EADE" stroke="#E8E8DD" stroke-width="1.6114" stroke-miterlimit="10" d="M271.3,303.8l4.4,12.1h-1.9l-1.3-3.6h-4.6
		c-0.2,0.6-0.4,1.2-0.6,1.8c-0.2,0.6-0.4,1.2-0.6,1.8h-1.9l4.4-12.1H271.3z M270.2,306.1c-0.3,0.8-0.6,1.6-0.9,2.3
		c-0.3,0.8-0.6,1.5-0.9,2.4h3.4L270.2,306.1z"/>
</g>
<path fill="none" stroke="#343534" stroke-width="1.6114" stroke-miterlimit="10" d="M236.1,321.3c-1.6-7.1,0-6.7,0-17.4
	c0-5.2,0-11.3,0-17.8c0-6.5,0-13.5,0-20.4c0-6.9-1.6-13.9-1.6-20.4c0-6.5,1.6-12.6,1.6-17.8c0-7.4,1.6-12.7,1.6-15.4
	c0-0.8,1.4-0.4,1.4,0.2"/>
<ellipse fill="#5A5441" cx="248" cy="431.9" rx="9.5" ry="4.3"/>
<polyline fill="none" stroke="#F7F3DF" stroke-width="4.8343" stroke-linecap="round" stroke-linejoin="round" stroke-miterlimit="10" points="
	231.6,191.8 231.6,214.8 251,214.8 "/>
<line fill="none" stroke="#ADADAA" stroke-width="1.5" stroke-linecap="round" stroke-miterlimit="10" x1="95.3" y1="416.4" x2="89.6" y2="416.1"/>
<line fill="none" stroke="#ADADAA" stroke-width="1.5" stroke-linecap="round" stroke-miterlimit="10" x1="95" y1="421.8" x2="89.3" y2="421.5"/>
<line fill="none" stroke="#ADADAA" stroke-width="1.5" stroke-linecap="round" stroke-miterlimit="10" x1="93.6" y1="418.9" x2="87.9" y2="418.6"/>
<polyline fill="none" stroke="#F7F3DF" stroke-width="4.8343" stroke-linecap="round" stroke-linejoin="round" stroke-miterlimit="10" points="
	231.6,340.5 231.6,317.9 251,317.9 "/>
<linearGradient id="SVGID_23_" gradientUnits="userSpaceOnUse" x1="241.7425" y1="64.4381" x2="254.6339" y2="64.4381">
	<stop  offset="0" style="stop-color:#A69032"/>
	<stop  offset="7.888475e-02" style="stop-color:#A99341"/>
	<stop  offset="0.2171" style="stop-color:#AC9754"/>
	<stop  offset="0.357" style="stop-color:#AE9960"/>
	<stop  offset="0.5" style="stop-color:#AF9A64"/>
	<stop  offset="0.7024" style="stop-color:#AF9A62"/>
	<stop  offset="0.8136" style="stop-color:#AD985A"/>
	<stop  offset="0.9027" style="stop-color:#AB954C"/>
	<stop  offset="0.9795" style="stop-color:#A79139"/>
	<stop  offset="1" style="stop-color:#A69032"/>
</linearGradient>
<path fill="url(#SVGID_23_)" d="M241.7,93.8V43.6c0-5,2.2-9.1,4.8-9.1h3.2c2.7,0,4.8,4.1,4.8,9.1v50.7"/>
<path fill="none" stroke="#343534" stroke-width="1.6114" stroke-miterlimit="10" d="M238.7,211.9c0.2-0.1,0.7,0.2,0.7,0.4
	c0.1,3.5-0.8,5.4-0.8,15.1c0,5.2-1.6,11.3-1.6,17.8c0,6.5,1.6,13.5,1.6,20.4c0,6.9,0,13.9,0,20.4c0,6.5,0.3,12.6,0,17.8
	c-0.5,7.6,0.6,13.3-0.3,16c-0.5,1.4-3.1,2.2-3.1,0.5"/>
<g>
	<path fill="none" stroke="#343534" stroke-width="1.6114" stroke-miterlimit="10" d="M236.1,211.6c0.1,20.2-3.1,20.2-3,40.4
		c0.1,20.2,3.3,20.2,3.5,40.4c0.1,20.2-1.9,20.1-3,40.3c-2.6,4.2-0.8,9-1.4,13.4c-0.7,4.9-3.7,9.7-3.1,13.9
		c1.2,7.8,9.6,7.5,6.7,13.9c-4,8.8-8.7,5.9-14.6,13.5c-5.9,7.6-3.4,9.6-9.3,17.1c-5.9,7.6-5.7,7.9-14,12.8c-5.3,3.1-5.5,2.5-11.6,2
		c-6.1-0.5-5.9-3.7-12-4.2c-6.1-0.5-6.2,2-12.4,2.2c-10.1,0.3-10.3-2.2-20.4-1.2c-10.1,1-9.8,4.2-19.9,5.2
		c-10.1,1-10.4-2.2-20.5-1.2"/>
</g>
<path fill="#343534" d="M98.8,415.3c2.2,0.1,3.9,2,3.8,4.2l0,0c-0.1,2.2-2,3.9-4.2,3.8l-5.3-0.3c-2.2-0.1-1.5-1.9-1.4-4.1l0,0
	c0.1-2.2-0.3-4,1.9-3.9L98.8,415.3z"/>
<line fill="none" x1="176.3" y1="455.3" x2="176.3" y2="466.3"/>
<rect x="176.3" y="455.3" fill="none" width="142.7" height="11"/>
<rect x="176.7" y="455.3" fill="#194926" width="143.1" height="11"/>
</svg>
