<?xml version="1.0" encoding="utf-8"?>
<!-- Generator: Adobe Illustrator 17.1.0, SVG Export Plug-In . SVG Version: 6.00 Build 0)  -->
<!DOCTYPE svg PUBLIC "-//W3C//DTD SVG 1.1//EN" "http://www.w3.org/Graphics/SVG/1.1/DTD/svg11.dtd">
<svg version="1.1" id="Layer_1" xmlns="http://www.w3.org/2000/svg" xmlns:xlink="http://www.w3.org/1999/xlink" x="0px" y="0px"
	 viewBox="0 0 500 500" enable-background="new 0 0 500 500" xml:space="preserve">
<rect x="171.6" y="365.2" fill="#944A00" width="23.4" height="23.4"/>
<polygon fill="#FF153C" points="191.4,385.3 205.3,381.9 205.3,390.6 210.9,396.2 210.9,401.8 222.6,410.7 231.5,418 130,418 
	140.6,402.3 151.8,399.9 151.8,390.1 160.7,386.7 160.7,381.9 177.6,384.5 "/>
<ellipse fill="#FF153C" cx="182.4" cy="416.3" rx="77.5" ry="7.8"/>
<polygon fill="#CC124C" points="159.4,401.8 150.7,404.8 159.4,406.8 202.5,401.8 "/>
<polygon fill="#CE1747" points="163.6,388.6 191.6,393.4 203,393.4 195,388.6 "/>
<linearGradient id="SVGID_1_" gradientUnits="userSpaceOnUse" x1="322.3615" y1="237.8264" x2="39.6174" y2="237.8264">
	<stop  offset="0" style="stop-color:#3D6A00"/>
	<stop  offset="0.566" style="stop-color:#3D5E00"/>
</linearGradient>
<path fill="url(#SVGID_1_)" d="M39.6,354.7l9.1-12.3L181,111.9l128.6,224.3l12.8,18.6c0,0-67.1,6.2-89.5,7.4
	c-23.7,1.3-71.1,2.1-94.7,1.2C113.4,362.5,39.6,354.7,39.6,354.7z"/>
<linearGradient id="SVGID_2_" gradientUnits="userSpaceOnUse" x1="310.216" y1="192.0844" x2="51.1471" y2="192.0844">
	<stop  offset="0" style="stop-color:#3D6A00"/>
	<stop  offset="0.8431" style="stop-color:#3D5E00"/>
	<stop  offset="1" style="stop-color:#3D5E00"/>
</linearGradient>
<path fill="url(#SVGID_2_)" d="M51.1,308l10.9-16.8l118.6-226c0,0,90,171.2,120.4,228.4c1.9,3.6,9.1,14.5,9.1,14.5
	s-127.7,12.1-170.3,10.8C117.6,318.2,51.1,308,51.1,308z"/>
<linearGradient id="SVGID_3_" gradientUnits="userSpaceOnUse" x1="288.5165" y1="149.4918" x2="74.0553" y2="149.4918">
	<stop  offset="0" style="stop-color:#3D6A00"/>
	<stop  offset="0.6104" style="stop-color:#3D6500"/>
	<stop  offset="1" style="stop-color:#3D5E00"/>
</linearGradient>
<path fill="url(#SVGID_3_)" d="M74.1,246.2c0,0,2.3-3.2,8.6-12.6c29.8-44.2,98.6-191.6,98.6-191.6s69.4,148.1,99.3,192.9
	c3.7,5.6,7.9,11.3,7.9,11.3s-105.2,12-140.4,10.8C129.5,256.3,74.1,246.2,74.1,246.2z"/>
<linearGradient id="SVGID_4_" gradientUnits="userSpaceOnUse" x1="268.7367" y1="111.0356" x2="95.3126" y2="111.0356">
	<stop  offset="0" style="stop-color:#3D6A00"/>
	<stop  offset="0.8078" style="stop-color:#3D5E00"/>
</linearGradient>
<path fill="url(#SVGID_4_)" d="M95.3,184.6c0,0,4.3-4.7,9.7-14.5c20.8-37.4,77-143.6,77-143.6s55,109.3,77.6,144.6
	c3.4,5.4,9.2,13.5,9.2,13.5s-69,10.2-107.9,10.8C136.9,195.9,95.3,184.6,95.3,184.6z"/>
<path fill="none" stroke="#009245" stroke-width="0.25" stroke-miterlimit="10" d="M385,388.3c-11.6,5.3-24.5,15-37.3,7.4
	c-6.5-3.8-13-12.2-12.2-20.3c1.2-11,16.7-13.1,25.1-13.8c24.7-2.1,28.8,18.8,25.5,38.9c-1,6.3-3.5,13.5-0.1,19.5
	c4.2,7.3,15.7,10.5,23.4,10.3c9.1-0.2,17.2-5.3,21.8-13c5.2-8.8,5.1-16.1-5.9-19.1c-35.5-9.9-55.6,27.1-85.7,35.7
	c-26,7.5-20.9-35.7-15.1-49.4c4.1-9.8,13.3-25.1,25-27.5c13.9-2.9,6.4,18.7,4.3,24.3c-5.3,13.7-17.8,33.6-6.9,47.7
	c4.5,5.8,11.9,9.6,18.8,11.9c12,4,19.4,1.7,24.5-10.4c2.6-6.1,7.4-19.6,5.2-26.4c-4.2-12.8-19.9,11.6-22,14.7
	c-10.1,14.8-17,31-33.5,39.9c-12.1,6.5-18.8,4-22.6-9.2c-3.3-11.2-4.4-23.1-5.3-34.6c-0.9-11.7-2.6-25,1.5-36.3
	c4.4-12.3,15.7-8.8,25.7-5.2c14.9,5.4,28.9,13.2,42.4,21.5c6.1,3.7,16.3,11.3,23.6,6.3c6.9-4.7,5.9-14.4,9.8-20.8
	c3.9-6.4,8.7-2.1,13.3,2.3c3.1,2.9,9.6,9.2,9.5,14.1c-6.6-1.3-13.7-10.9-18.2-15.2c-7.2-7-14.1-14.8-23.2-19.5
	c-6.2-3.2-13-5.3-19.5-1.9c-13.3,6.8-20.1,27.1-25.4,39.7c-5.1,12.2-9,29.3-20.1,37.9c-8.5,6.5-20.6,6.9-30.1,2.2
	c-17.4-8.6-23.5-32.1-9.7-46.6c11-11.5,40.4-17.4,48.1,1.2c3.9,9.3-0.4,20.2-2.4,29.3c-1.4,6.3-4.5,15.3-2.2,21.8
	c3,8.4,14.7,13.1,22,16.2c8.9,3.8,19.5,8,29.3,8.6c11.6,0.8,23.1-8.8,25.2-20.3c1.8-9.8-7.5-10.3-15.4-9.3c-5.5,0.7-10.5,3-15.7,4.5
	c-5.3,1.6-10.8,2.4-16.1,3.8c-9.7,2.4-20,4.1-30,3.5c-7.6-0.5-16.2-4.4-23.8-3.6c-6.1,0.6-8.2,6.1-11.8,10.4c-2.6,3.1-4.5,3.6-8.5,4
	c-3,0.3-7.2-0.1-9.6,0.7"/>
<g>
	<path fill="#C1272D" stroke="#C1272D" stroke-width="3" stroke-miterlimit="10" stroke-dasharray="0,1" d="M386.3,472.2
		c-1.1-0.1-1.9-1-1.9-2.1l0,0c0.1-1.1,1-1.9,2.1-1.9l0,0l0,0l0,0c1.1,0.1,1.9,1,1.9,2.1l0,0c-0.1,1-1,1.9-2,1.9l0,0
		C386.4,472.2,386.3,472.2,386.3,472.2z M369.2,468.5c-1-0.4-1.6-1.5-1.2-2.5l0,0c0.4-1,1.5-1.6,2.5-1.2l0,0l0,0l0,0
		c1,0.4,1.6,1.5,1.2,2.5l0,0c-0.3,0.8-1.1,1.3-1.9,1.3l0,0C369.7,468.6,369.4,468.5,369.2,468.5z M400.6,466.3
		c-0.7-0.9-0.5-2.1,0.4-2.8l0,0l0,0l0,0c0.9-0.7,2.1-0.5,2.8,0.4l0,0c0.7,0.9,0.5,2.1-0.3,2.8l0,0c-0.4,0.3-0.8,0.4-1.2,0.4l0,0
		C401.6,467.1,401,466.8,400.6,466.3z M288.9,463.4c-0.1-1.1,0.6-2.1,1.8-2.2l0,0c1.1-0.1,2.1,0.6,2.2,1.8l0,0
		c0.1,1.1-0.6,2.1-1.8,2.2l0,0c-0.1,0-0.2,0-0.2,0l0,0C289.9,465.1,289.1,464.4,288.9,463.4z M353.3,462.1c-1-0.4-1.5-1.6-1-2.6l0,0
		c0.4-1,1.6-1.5,2.6-1l0,0c1,0.4,1.5,1.6,1,2.6l0,0c-0.3,0.8-1.1,1.2-1.8,1.2l0,0C353.8,462.3,353.5,462.2,353.3,462.1z
		 M335.5,460.6c-0.5-1,0-2.2,1-2.6l0,0c1-0.5,2.2,0,2.6,1l0,0c0.5,1,0,2.2-1,2.7l0,0c-0.3,0.1-0.6,0.2-0.8,0.2l0,0
		C336.6,461.8,335.9,461.3,335.5,460.6z M320.2,460c-0.7-0.8-0.6-2.1,0.2-2.8l0,0c0.8-0.7,2.1-0.7,2.8,0.2l0,0
		c0.7,0.8,0.6,2.1-0.2,2.8l0,0c-0.4,0.3-0.9,0.5-1.3,0.5l0,0C321.2,460.7,320.6,460.4,320.2,460z M302.2,454.4
		c-0.8-0.7-0.9-2-0.2-2.8l0,0c0.7-0.8,2-0.9,2.8-0.2l0,0c0.8,0.7,0.9,2,0.2,2.8l0,0c-0.4,0.5-1,0.7-1.5,0.7l0,0
		C303.1,454.9,302.6,454.7,302.2,454.4z M335.8,454.5c-1.1,0-2-1-1.9-2.1l0,0c0.1-1.1,1-2,2.1-1.9l0,0c0.7,0,1.2,0.4,1.6,0.9l0,0
		c0.1-0.4,0.2-0.7,0.5-1l0,0c0.8-0.8,2-0.8,2.8-0.1l0,0c0.8,0.8,0.8,2,0.1,2.8l0,0c-0.8,0.8-2,0.8-2.8,0.1l0,0
		c-0.1-0.1-0.2-0.2-0.3-0.3l0,0C337.7,453.8,336.8,454.5,335.8,454.5L335.8,454.5C335.8,454.5,335.8,454.5,335.8,454.5z M350.9,452
		c-0.4,0-0.9-0.2-1.2-0.6l0,0c-0.8-0.8-0.8-2,0-2.8l0,0c0.8-0.8,2-0.8,2.8,0l0,0c0.2,0.2,0.4,0.4,0.4,0.7l0,0
		c0.9,0.1,1.6,0.8,1.7,1.7l0,0c0.2,1.1-0.6,2.1-1.7,2.3l0,0l0,0l0,0c-0.1,0-0.2,0-0.3,0l0,0C352,453.3,351.2,452.8,350.9,452z
		 M411,453.1c-1.1-0.2-1.7-1.3-1.5-2.4l0,0c0.3-1.1,1.3-1.7,2.4-1.5l0,0c1.1,0.2,1.7,1.3,1.5,2.4l0,0c-0.2,0.9-1,1.5-2,1.5l0,0
		C411.3,453.1,411.1,453.1,411,453.1z M318.8,451.4L318.8,451.4L318.8,451.4c-1.1-0.2-1.8-1.2-1.6-2.3l0,0c0.2-1.1,1.2-1.8,2.3-1.6
		l0,0c1.1,0.2,1.8,1.3,1.6,2.3l0,0c-0.2,1-1,1.6-2,1.6l0,0C319,451.4,318.9,451.4,318.8,451.4z M367.5,448.2
		c-0.2-1.1,0.5-2.1,1.5-2.4l0,0c1.1-0.2,2.1,0.5,2.4,1.5l0,0c0.2,1.1-0.5,2.1-1.5,2.4l0,0c-0.1,0-0.3,0-0.4,0l0,0
		C368.5,449.8,367.7,449.1,367.5,448.2z M384,444.1c-0.4-1,0.2-2.2,1.2-2.5l0,0c1-0.4,2.2,0.2,2.5,1.2l0,0c0.4,1-0.2,2.2-1.2,2.5
		l0,0l0,0l0,0c-0.2,0.1-0.4,0.1-0.7,0.1l0,0C385,445.4,384.2,444.9,384,444.1z M313.6,443.4c-0.2-1.1,0.4-2.1,1.5-2.4l0,0
		c0.2,0,0.5-0.1,0.7,0l0,0c0.3-0.2,0.6-0.3,1-0.4l0,0c1.1-0.1,2.1,0.8,2.1,1.9l0,0c0.1,1.1-0.8,2.1-1.9,2.1l0,0c-0.1,0-0.3,0-0.4,0
		l0,0c-0.2,0.2-0.4,0.2-0.7,0.3l0,0c-0.1,0-0.3,0-0.4,0l0,0C314.6,445,313.8,444.4,313.6,443.4z M374.8,444.6c-1.1,0-2-0.9-2-2l0,0
		c0-1.1,0.9-2,2-2l0,0c1.1,0,2,0.9,2,2l0,0C376.8,443.7,375.9,444.6,374.8,444.6L374.8,444.6C374.8,444.6,374.8,444.6,374.8,444.6z
		 M402.4,442.3L402.4,442.3L402.4,442.3c-1.1,0-2-1-1.9-2.1l0,0c0-1.1,1-2,2.1-1.9l0,0c1.1,0,2,1,1.9,2.1l0,0
		C404.4,441.5,403.5,442.3,402.4,442.3L402.4,442.3C402.4,442.3,402.4,442.3,402.4,442.3z M299.6,441c-1-0.5-1.3-1.7-0.8-2.7l0,0
		c0.5-1,1.7-1.4,2.7-0.8l0,0c1,0.5,1.4,1.7,0.8,2.7l0,0c-0.4,0.7-1,1.1-1.8,1.1l0,0C300.2,441.2,299.9,441.1,299.6,441z
		 M357.7,439.7L357.7,439.7c-1-0.5-1.4-1.7-0.9-2.7l0,0c0.5-1,1.7-1.4,2.7-0.9l0,0c0,0,0,0,0,0l0,0c0.1,0,0.2,0.1,0.3,0.2l0,0
		c0-0.2,0.2-0.4,0.3-0.6h0c0.6-0.9,1.8-1.2,2.8-0.6l0,0c0.9,0.6,1.2,1.9,0.6,2.8l0,0l0,0l0,0c-0.6,0.9-1.9,1.2-2.8,0.6l0,0
		c0,0,0,0-0.1,0l0,0c0,0.1-0.1,0.3-0.1,0.4l0,0c-0.4,0.7-1.1,1.1-1.8,1.1l0,0C358.3,439.9,358,439.8,357.7,439.7z M330.9,437.8
		c-0.7-0.8-0.6-2.1,0.2-2.8l0,0c0.6-0.5,1.5-0.6,2.2-0.3l0,0c0.4-0.3,0.9-0.4,1.4-0.4l0,0c1.1,0.1,1.9,1.1,1.7,2.2l0,0
		c-0.1,1.1-1.1,1.9-2.2,1.7l0,0c-0.2,0-0.4-0.1-0.6-0.2l0,0c-0.3,0.3-0.8,0.4-1.2,0.4l0,0C331.9,438.5,331.3,438.2,330.9,437.8z
		 M387.4,435.7c-1-0.5-1.3-1.8-0.8-2.7l0,0l0,0l0,0c0.5-1,1.8-1.3,2.7-0.8l0,0c1,0.5,1.3,1.8,0.8,2.7l0,0c-0.4,0.7-1.1,1-1.8,1l0,0
		C388.1,436,387.7,435.9,387.4,435.7z M327.4,435.2c-1-0.5-1.4-1.7-0.9-2.7l0,0c0.5-1,1.7-1.4,2.7-0.8l0,0c1,0.5,1.4,1.7,0.9,2.7
		l0,0c-0.4,0.7-1.1,1.1-1.8,1.1l0,0C328.1,435.5,327.7,435.4,327.4,435.2z M342.9,432.9c-0.4-1,0.1-2.2,1.1-2.6l0,0
		c1-0.4,2.2,0.1,2.6,1.1l0,0c0.4,1-0.1,2.2-1.1,2.6l0,0c-0.2,0.1-0.5,0.1-0.8,0.1l0,0C344,434.1,343.2,433.7,342.9,432.9z
		 M413.1,430c-0.3-1.1,0.4-2.2,1.4-2.4l0,0c1.1-0.3,2.2,0.4,2.4,1.4l0,0c0.3,1.1-0.4,2.2-1.4,2.4l0,0c-0.2,0-0.3,0.1-0.5,0.1l0,0
		C414.1,431.6,413.3,431,413.1,430z M397.7,430.6c-1-0.3-1.6-1.5-1.3-2.5l0,0c0.3-1.1,1.5-1.6,2.5-1.3l0,0c1,0.3,1.6,1.5,1.3,2.5
		l0,0c-0.3,0.8-1.1,1.4-1.9,1.4l0,0C398.1,430.6,397.9,430.6,397.7,430.6z M286.7,428.7c-0.6-1-0.3-2.2,0.7-2.7l0,0
		c1-0.6,2.2-0.3,2.8,0.7l0,0c0.6,1,0.2,2.2-0.7,2.7l0,0c-0.3,0.2-0.7,0.3-1,0.3l0,0C287.7,429.6,287,429.3,286.7,428.7z M344,428.2
		c-0.6-0.9-0.3-2.2,0.6-2.8l0,0c0.9-0.6,2.2-0.3,2.8,0.6l0,0c0.6,0.9,0.3,2.2-0.6,2.8l0,0c-0.3,0.2-0.7,0.3-1.1,0.3l0,0
		C345,429.2,344.4,428.9,344,428.2z M310.9,426.4c-0.1-1.1,0.7-2.1,1.8-2.2l0,0c1.1-0.1,2.1,0.7,2.2,1.8l0,0
		c0.1,1.1-0.7,2.1-1.8,2.2l0,0c-0.1,0-0.1,0-0.2,0l0,0C311.9,428.2,311,427.5,310.9,426.4z M358,425.1c-0.6-0.9-0.4-2.2,0.6-2.8l0,0
		c0.9-0.6,2.2-0.4,2.8,0.6l0,0c0.6,0.9,0.4,2.2-0.6,2.8l0,0l0,0l0,0c-0.3,0.2-0.7,0.3-1.1,0.3l0,0C359,426,358.4,425.7,358,425.1z
		 M341.4,424.6c-1-0.5-1.4-1.7-0.9-2.7l0,0c0.5-1,1.7-1.4,2.7-0.9l0,0c1,0.5,1.4,1.7,0.9,2.7l0,0c-0.3,0.7-1.1,1.1-1.8,1.1l0,0
		C342,424.8,341.7,424.7,341.4,424.6z M369.7,424.1c-0.9-0.6-1.2-1.8-0.6-2.8l0,0c0.6-0.9,1.8-1.2,2.8-0.6l0,0
		c0.9,0.6,1.2,1.8,0.6,2.8l0,0c-0.4,0.6-1,0.9-1.7,0.9l0,0C370.5,424.4,370.1,424.3,369.7,424.1z M427.8,422c-0.9-0.7-1-2-0.3-2.8
		l0,0c0.7-0.9,1.9-1,2.8-0.3l0,0c0.9,0.7,1,2,0.3,2.8l0,0c-0.4,0.5-1,0.8-1.6,0.8l0,0C428.6,422.4,428.2,422.3,427.8,422z
		 M337.7,421.6c-1.1-0.3-1.7-1.4-1.4-2.4l0,0c0.3-1.1,1.4-1.7,2.4-1.4l0,0c1.1,0.3,1.7,1.4,1.4,2.4l0,0c-0.2,0.9-1.1,1.5-1.9,1.5
		l0,0C338.1,421.7,337.9,421.6,337.7,421.6z M318.4,419.5c-0.2-1.1,0.6-2.1,1.7-2.3l0,0c1.1-0.2,2.1,0.6,2.3,1.7l0,0
		c0.2,1.1-0.6,2.1-1.7,2.3l0,0c-0.1,0-0.2,0-0.3,0l0,0C319.4,421.2,318.6,420.5,318.4,419.5z M383.5,419.2c-0.4-1,0.1-2.2,1.1-2.6
		l0,0c1-0.4,2.2,0.1,2.6,1.1l0,0c0.4,1-0.1,2.2-1.1,2.6l0,0c-0.2,0.1-0.5,0.2-0.7,0.2l0,0C384.5,420.5,383.8,420,383.5,419.2z
		 M393.9,420c-1.1-0.3-1.7-1.4-1.4-2.4l0,0c0.3-1.1,1.4-1.7,2.4-1.4l0,0c1.1,0.3,1.7,1.4,1.4,2.4l0,0c-0.2,0.9-1,1.5-1.9,1.5l0,0
		C394.2,420.1,394.1,420.1,393.9,420z M371.9,415.3c-0.7-0.9-0.5-2.1,0.4-2.8l0,0c0.9-0.7,2.1-0.5,2.8,0.4l0,0
		c0.7,0.9,0.5,2.1-0.4,2.8l0,0l0,0l0,0c-0.4,0.3-0.8,0.4-1.2,0.4l0,0C372.9,416.1,372.3,415.8,371.9,415.3z M284,413.4
		c-1.1,0-2-0.9-2-2l0,0c0-1.1,0.9-2,2-2l0,0c1.1,0,2,0.9,2,2l0,0C286,412.6,285.1,413.4,284,413.4L284,413.4
		C284,413.4,284,413.4,284,413.4z M342.6,412.8c-1.1-0.2-1.8-1.2-1.7-2.3l0,0c0.2-1.1,1.2-1.8,2.3-1.7l0,0c1.1,0.2,1.8,1.2,1.7,2.3
		l0,0c-0.2,1-1,1.7-2,1.7l0,0C342.8,412.8,342.7,412.8,342.6,412.8z M309.4,409.5c-0.1-1.1,0.7-2.1,1.8-2.2l0,0
		c1.1-0.1,2.1,0.7,2.2,1.8l0,0c0.1,1.1-0.7,2.1-1.8,2.2l0,0c-0.1,0-0.1,0-0.2,0l0,0C310.4,411.3,309.5,410.5,309.4,409.5z
		 M379.4,410.1c-0.9-0.7-1-2-0.3-2.8l0,0c0.7-0.9,2-1,2.8-0.3l0,0c0.8,0.7,1,2,0.3,2.8l0,0c-0.4,0.5-1,0.7-1.5,0.7l0,0
		C380.2,410.5,379.8,410.4,379.4,410.1z M347.9,408.8c-1-0.4-1.6-1.5-1.2-2.6l0,0c0.4-1,1.5-1.6,2.6-1.2l0,0c1,0.4,1.6,1.5,1.2,2.6
		l0,0c-0.3,0.8-1.1,1.3-1.9,1.3l0,0C348.4,409,348.2,408.9,347.9,408.8z M432.2,405.5c-0.3-1,0.2-2.2,1.3-2.5l0,0
		c1.1-0.3,2.2,0.2,2.5,1.3h0c0.3,1-0.2,2.2-1.3,2.5l0,0c-0.2,0.1-0.4,0.1-0.6,0.1l0,0C433.3,406.8,432.5,406.3,432.2,405.5z
		 M385.8,405.6c-0.3-0.6-0.4-1.3-0.1-1.8l0,0c-0.1,0-0.1,0-0.2,0l0,0c-1.1-0.2-1.8-1.2-1.6-2.3l0,0c0.2-1.1,1.2-1.8,2.3-1.6l0,0
		c1.1,0.2,1.8,1.2,1.6,2.3l0,0c0,0.2-0.1,0.3-0.1,0.5l0,0c0.6,0.1,1.2,0.4,1.5,1l0,0c0.6,1,0.2,2.2-0.7,2.7l0,0
		c-0.3,0.2-0.7,0.3-1,0.3l0,0C386.9,406.6,386.2,406.2,385.8,405.6z M341.3,405c-1.1,0-2-0.9-2-2l0,0c0-1.1,0.9-2,2-2l0,0
		c1.1,0,2,0.9,2,2l0,0C343.3,404.1,342.4,405,341.3,405L341.3,405C341.3,405,341.3,405,341.3,405z M320.1,404.2
		c-1.1-0.1-1.9-1.1-1.8-2.2l0,0l0,0l0,0c0.1-1.1,1.1-1.9,2.2-1.8l0,0c1.1,0.1,1.9,1.1,1.8,2.2l0,0c-0.1,1-1,1.8-2,1.8l0,0
		C320.3,404.2,320.2,404.2,320.1,404.2z M392.6,402.8L392.6,402.8L392.6,402.8c-0.7-0.9-0.5-2.1,0.3-2.8l0,0
		c0.9-0.7,2.1-0.6,2.8,0.3l0,0c0.7,0.9,0.5,2.1-0.3,2.8l0,0c-0.4,0.3-0.8,0.4-1.2,0.4l0,0C393.6,403.6,393,403.3,392.6,402.8z
		 M404.5,401.5c-0.5-0.5-0.6-1.2-0.4-1.9l0,0c-0.2,0.1-0.3,0.2-0.5,0.2l0,0l0,0l0,0c-1.1,0.3-2.2-0.4-2.4-1.5l0,0
		c-0.3-1.1,0.4-2.1,1.4-2.4l0,0c1.1-0.3,2.2,0.4,2.4,1.4l0,0c0.1,0.4,0.1,0.7,0,1.1l0,0c0.8-0.5,1.9-0.3,2.5,0.4l0,0
		c0.7,0.8,0.6,2.1-0.2,2.8l0,0c-0.4,0.3-0.8,0.5-1.3,0.5l0,0C405.5,402.2,404.9,401.9,404.5,401.5z M389.2,401.6
		c-1-0.5-1.4-1.7-0.9-2.7l0,0c0.5-1,1.7-1.4,2.7-0.9l0,0c0,0,0,0,0,0l0,0c1,0.5,1.4,1.7,0.9,2.7l0,0c-0.4,0.7-1.1,1.1-1.8,1.1l0,0
		C389.8,401.8,389.5,401.7,389.2,401.6z M352.7,399.9c-1.1-0.3-1.7-1.3-1.5-2.4l0,0c0.3-1.1,1.3-1.7,2.4-1.5l0,0
		c1.1,0.3,1.7,1.3,1.5,2.4l0,0c-0.2,0.9-1,1.5-1.9,1.5l0,0C353,399.9,352.8,399.9,352.7,399.9z M419.6,399c-1.1-0.2-1.8-1.2-1.7-2.3
		l0,0c0.2-1.1,1.2-1.8,2.3-1.7l0,0c1.1,0.2,1.8,1.2,1.7,2.3l0,0c-0.2,1-1,1.7-2,1.7l0,0C419.8,399,419.8,399,419.6,399z
		 M367.9,396.5c-0.4-1,0.1-2.2,1.1-2.6l0,0c1-0.4,2.2,0.1,2.6,1.1l0,0c0.4,1-0.1,2.2-1.1,2.6l0,0c-0.2,0.1-0.5,0.1-0.8,0.1l0,0
		C368.9,397.7,368.2,397.3,367.9,396.5z M288.2,397.2c-0.9-0.7-1.1-1.9-0.4-2.8l0,0c0.7-0.9,1.9-1.1,2.8-0.4l0,0
		c0.9,0.7,1.1,1.9,0.4,2.8l0,0c-0.4,0.5-1,0.8-1.6,0.8l0,0C289,397.6,288.6,397.5,288.2,397.2z M347.3,396.5c-1-0.4-1.5-1.6-1.1-2.6
		l0,0c0.4-1,1.6-1.5,2.6-1.1l0,0c1,0.4,1.5,1.6,1.1,2.6l0,0c-0.3,0.8-1.1,1.2-1.8,1.2l0,0C347.8,396.6,347.5,396.6,347.3,396.5z
		 M310.7,394.3c-1.1,0-2-1-1.9-2.1l0,0c0-1.1,1-2,2.1-1.9l0,0c1.1,0,2,1,1.9,2.1l0,0C312.8,393.5,311.9,394.3,310.7,394.3
		L310.7,394.3C310.8,394.3,310.8,394.3,310.7,394.3z M434.5,392.7c-0.5-1-0.2-2.2,0.7-2.7l0,0c1-0.6,2.2-0.2,2.7,0.7l0,0
		c0.5,1,0.2,2.2-0.8,2.7l0,0c-0.3,0.2-0.7,0.3-1,0.3l0,0C435.5,393.7,434.8,393.3,434.5,392.7z M354.1,393c-1-0.4-1.5-1.6-1.1-2.6
		l0,0c0.4-1,1.6-1.5,2.6-1.1l0,0c1,0.4,1.5,1.6,1.1,2.6l0,0c-0.3,0.8-1.1,1.2-1.9,1.2l0,0C354.6,393.1,354.3,393.1,354.1,393z
		 M374.5,392.8c-1-0.6-1.3-1.8-0.7-2.7l0,0c0.6-1,1.8-1.3,2.7-0.7l0,0c0.9,0.6,1.3,1.8,0.7,2.7l0,0c-0.4,0.6-1,1-1.7,1l0,0
		C375.2,393.1,374.8,393,374.5,392.8z M426.4,391.4L426.4,391.4L426.4,391.4c-0.8-0.8-0.8-2,0-2.8l0,0c0.8-0.8,2-0.8,2.8,0l0,0
		c0.8,0.8,0.8,2,0,2.8l0,0c-0.4,0.4-0.9,0.6-1.4,0.6l0,0C427.3,392,426.8,391.8,426.4,391.4z M383.2,389.1c-0.5-1,0-2.2,1-2.6l0,0
		c0.5-0.2,1.1-0.2,1.5-0.1l0,0c-0.4-0.3-0.7-0.8-0.8-1.4l0,0c-0.1-1.1,0.7-2.1,1.8-2.2l0,0c1.1-0.1,2.1,0.7,2.1,1.8l0,0
		c0.1,1.1-0.7,2.1-1.8,2.1l0,0c-0.3,0-0.6,0-0.9-0.1l0,0c0.2,0.2,0.5,0.4,0.6,0.8l0,0c0.5,1,0,2.2-1,2.6l0,0c0,0,0,0,0,0l0,0
		c-0.3,0.1-0.6,0.2-0.8,0.2l0,0C384.3,390.3,383.5,389.9,383.2,389.1z M338,389.4c-0.6-0.9-0.5-2.1,0.4-2.8l0,0
		c0.9-0.7,2.1-0.5,2.8,0.4l0,0c0.6,0.9,0.5,2.1-0.4,2.8l0,0c-0.4,0.3-0.8,0.4-1.2,0.4l0,0C339,390.2,338.4,390,338,389.4z
		 M333.8,389.1c-0.8-0.7-0.9-2-0.1-2.8l0,0c0.8-0.8,2-0.9,2.8-0.1l0,0c0.8,0.7,0.9,2,0.1,2.8l0,0c-0.4,0.4-0.9,0.7-1.5,0.7l0,0
		C334.7,389.7,334.2,389.5,333.8,389.1z M323.4,387.5c-1-0.4-1.6-1.6-1.2-2.6l0,0c0.4-1,1.6-1.6,2.6-1.2l0,0c1,0.4,1.5,1.5,1.2,2.6
		l0,0c-0.3,0.8-1.1,1.3-1.9,1.3l0,0C323.8,387.6,323.6,387.6,323.4,387.5z M301.1,386.4c-0.4-1,0-2.2,1.1-2.6l0,0
		c1-0.4,2.2,0,2.6,1.1l0,0c0.4,1-0.1,2.2-1.1,2.6l0,0c-0.2,0.1-0.5,0.2-0.8,0.2l0,0C302.1,387.6,301.4,387.2,301.1,386.4z
		 M412.2,386.8c-1.1-0.3-1.6-1.5-1.3-2.5l0,0c0.3-1,1.5-1.6,2.5-1.3l0,0c1,0.3,1.6,1.4,1.3,2.5l0,0c-0.3,0.9-1,1.4-1.9,1.4l0,0
		C412.6,386.9,412.4,386.9,412.2,386.8z M359.7,384.6L359.7,384.6c-1-0.5-1.4-1.7-0.9-2.7l0,0c0.5-1,1.7-1.4,2.7-0.9l0,0
		c1,0.5,1.4,1.7,0.9,2.7l0,0c-0.4,0.7-1.1,1.1-1.8,1.1l0,0C360.3,384.8,360,384.7,359.7,384.6z M319.4,384.2c-1.1,0-2-0.9-2-2l0,0
		c0-1.1,0.9-2,2-2l0,0c1.1,0,2,0.9,2,2l0,0C321.4,383.4,320.5,384.2,319.4,384.2L319.4,384.2C319.4,384.2,319.4,384.2,319.4,384.2z
		 M423.4,380.8c-0.9-0.7-1-1.9-0.3-2.8l0,0c0.7-0.9,1.9-1,2.8-0.3l0,0l0,0l0,0c0.9,0.7,1,1.9,0.3,2.8l0,0c-0.4,0.5-1,0.8-1.6,0.8
		l0,0C424.2,381.3,423.8,381.1,423.4,380.8z M354,380.8c-1-0.4-1.6-1.5-1.2-2.5l0,0c0.4-1,1.5-1.6,2.6-1.2l0,0
		c1,0.4,1.6,1.5,1.2,2.5l0,0c-0.3,0.8-1.1,1.3-1.9,1.3l0,0C354.4,381,354.2,380.9,354,380.8z M414.6,379.1c-0.8-0.8-0.8-2,0-2.8l0,0
		c0.8-0.8,2-0.8,2.8,0l0,0c0.8,0.8,0.8,2,0,2.8l0,0c-0.4,0.4-0.9,0.6-1.4,0.6l0,0C415.5,379.7,415,379.5,414.6,379.1z M313.5,377.6
		c-1-0.5-1.3-1.8-0.8-2.7l0,0c0.5-1,1.8-1.3,2.7-0.8l0,0c1,0.5,1.3,1.7,0.8,2.7l0,0c-0.4,0.7-1.1,1-1.8,1l0,0
		C314.1,377.8,313.8,377.8,313.5,377.6z M361.1,377.5c-1-0.5-1.3-1.8-0.8-2.7l0,0c0.5-1,1.8-1.3,2.7-0.8l0,0c1,0.5,1.3,1.8,0.8,2.7
		l0,0c0,0,0,0,0,0l0,0c-0.4,0.6-1,1-1.7,1l0,0C361.7,377.8,361.4,377.7,361.1,377.5z M344.5,377.4c-1-0.4-1.5-1.6-1.1-2.6l0,0
		c0.4-1,1.6-1.5,2.6-1.1l0,0c1,0.4,1.5,1.6,1.1,2.6l0,0c-0.3,0.8-1.1,1.2-1.9,1.2l0,0C345,377.6,344.8,377.6,344.5,377.4z
		 M335.5,374.2c-1-0.4-1.5-1.6-1.1-2.6l0,0c0.4-1,1.6-1.5,2.6-1.1l0,0c1,0.4,1.5,1.6,1.1,2.6l0,0c-0.3,0.8-1.1,1.2-1.9,1.2l0,0
		C336,374.3,335.8,374.3,335.5,374.2z M331,372.3c-0.2-0.2-0.4-0.4-0.5-0.6l0,0c-0.4,0.4-1.1,0.6-1.7,0.5l0,0
		c-1.1-0.2-1.8-1.2-1.6-2.3l0,0c0.2-1.1,1.2-1.8,2.3-1.6l0,0c0.6,0.1,1,0.5,1.3,0.9l0,0c0.7-0.6,1.7-0.7,2.5-0.1l0,0
		c0.9,0.6,1.1,1.9,0.5,2.8l0,0c-0.4,0.6-1,0.8-1.6,0.8l0,0C331.8,372.7,331.4,372.6,331,372.3z M380,370.2L380,370.2
		c-0.7-0.9-0.5-2.1,0.3-2.8l0,0c0.9-0.7,2.1-0.5,2.8,0.3l0,0l0,0l0,0c0.7,0.9,0.5,2.1-0.3,2.8l0,0c-0.4,0.3-0.8,0.4-1.2,0.4l0,0
		C380.9,371,380.3,370.7,380,370.2z M402.3,367.9c-0.9-0.7-1-1.9-0.4-2.8l0,0c0.7-0.9,1.9-1,2.8-0.4l0,0c0.9,0.7,1.1,1.9,0.4,2.8
		l0,0c-0.4,0.5-1,0.8-1.6,0.8l0,0C403.1,368.3,402.6,368.1,402.3,367.9z M348,363.7c-0.3-1.1,0.4-2.2,1.5-2.4l0,0l0,0l0,0
		c1.1-0.3,2.1,0.4,2.4,1.5l0,0c0.3,1.1-0.4,2.2-1.5,2.4l0,0c-0.2,0-0.3,0-0.5,0l0,0C349,365.2,348.2,364.6,348,363.7z M371,363.8
		c-0.7-0.9-0.5-2.1,0.3-2.8l0,0c0.9-0.7,2.1-0.6,2.8,0.3l0,0c0.7,0.9,0.5,2.1-0.3,2.8l0,0c0,0,0,0,0,0l0,0c-0.4,0.3-0.8,0.4-1.2,0.4
		l0,0C372,364.5,371.4,364.3,371,363.8z M355.6,362.6c-0.1-1.1,0.6-2.1,1.7-2.2l0,0c1.1-0.1,2.1,0.6,2.3,1.7l0,0
		c0.1,1.1-0.6,2.1-1.7,2.2l0,0c-0.1,0-0.2,0-0.3,0l0,0C356.6,364.3,355.8,363.6,355.6,362.6z M366.6,363.6c-1.1-0.1-1.9-1.1-1.8-2.2
		l0,0c0.1-1.1,1.1-1.9,2.2-1.8l0,0c1.1,0.1,1.9,1.1,1.8,2.2l0,0c-0.1,1-1,1.8-2,1.8l0,0C366.7,363.6,366.7,363.6,366.6,363.6z
		 M342.5,359.9c-0.5-1-0.2-2.2,0.8-2.7l0,0c1-0.5,2.2-0.2,2.7,0.8l0,0c0.5,1,0.2,2.2-0.8,2.7l0,0c-0.3,0.2-0.6,0.3-1,0.3l0,0
		C343.6,361,342.9,360.6,342.5,359.9z M388,360.6c-1.1-0.2-1.7-1.3-1.5-2.4l0,0c0.2-1.1,1.3-1.7,2.4-1.5l0,0
		c1.1,0.3,1.7,1.3,1.5,2.4l0,0c-0.2,0.9-1,1.5-2,1.5l0,0C388.3,360.6,388.1,360.6,388,360.6z"/>
</g>
<g>
	<g>
		<path fill="#39B54A" d="M385,389.3c-0.5,0-1-0.2-1.4-0.6c-0.4-0.4-0.6-0.9-0.6-1.4s0.2-1,0.6-1.4c0.8-0.8,2.1-0.8,2.8,0
			c0.4,0.4,0.6,0.9,0.6,1.4c0,0.5-0.2,1-0.6,1.4C386.1,389.1,385.5,389.3,385,389.3z"/>
	</g>
	<g>
		<path fill="#39B54A" d="M368.9,395.1c-0.4-1,0-2.2,1-2.6l0,0c1-0.4,2.2,0,2.6,1l0,0c0.4,1,0,2.2-1,2.6l0,0
			c-0.3,0.1-0.5,0.2-0.8,0.2l0,0C370,396.3,369.2,395.9,368.9,395.1z"/>
	</g>
	<g>
		<path fill="#39B54A" stroke="#39B54A" stroke-width="7" stroke-miterlimit="10" stroke-dasharray="0,5,0,1" d="M324.2,462
			L324.2,462L324.2,462c-1-0.5-1.4-1.6-1-2.6l0,0c0.5-1,1.6-1.5,2.6-1l0,0c1,0.5,1.4,1.7,1,2.7l0,0c-0.3,0.7-1.1,1.2-1.8,1.2l0,0
			C324.7,462.2,324.4,462.1,324.2,462z M337.5,458.8c-0.5-1-0.1-2.2,0.8-2.7l0,0c1-0.5,2.2-0.1,2.7,0.8l0,0c0.5,1,0.1,2.2-0.8,2.7
			l0,0l0,0l0,0c-0.3,0.2-0.6,0.2-0.9,0.2l0,0C338.5,459.8,337.8,459.5,337.5,458.8z M350.5,449.7c-0.8-0.8-0.8-2,0-2.8l0,0
			c0.8-0.8,2-0.8,2.8,0l0,0c0.8,0.8,0.8,2,0,2.8l0,0l0,0l0,0c-0.4,0.4-0.9,0.6-1.4,0.6l0,0C351.4,450.3,350.9,450.1,350.5,449.7z
			 M314.9,447.6L314.9,447.6L314.9,447.6c-0.3-1.1,0.3-2.2,1.4-2.5l0,0c1.1-0.3,2.2,0.3,2.5,1.4l0,0c0.3,1.1-0.3,2.2-1.4,2.5l0,0
			c-0.2,0-0.4,0.1-0.5,0.1l0,0C315.9,449.1,315.1,448.5,314.9,447.6z M369,442.8c-1.1-0.2-1.7-1.3-1.5-2.4l0,0
			c0.2-1.1,1.3-1.7,2.4-1.5l0,0l0,0l0,0c1.1,0.2,1.7,1.3,1.5,2.4l0,0c-0.2,0.9-1,1.5-1.9,1.5l0,0C369.3,442.9,369.1,442.8,369,442.8
			z M382.9,439.5c-0.7-0.8-0.7-2.1,0.2-2.8l0,0l0,0l0,0c0.8-0.7,2.1-0.7,2.8,0.2l0,0c0.7,0.8,0.7,2.1-0.2,2.8l0,0
			c-0.4,0.3-0.8,0.5-1.3,0.5l0,0C383.9,440.1,383.3,439.9,382.9,439.5z M360,438.3c-0.9-0.6-1.2-1.9-0.5-2.8h0
			c0.6-0.9,1.9-1.2,2.8-0.5l0,0c0.9,0.6,1.2,1.9,0.5,2.8l0,0c-0.4,0.6-1,0.9-1.7,0.9l0,0C360.8,438.6,360.4,438.5,360,438.3z
			 M354.6,437c-1-0.6-1.3-1.8-0.7-2.7l0,0c0.6-1,1.8-1.3,2.7-0.7l0,0c0,0,0,0,0,0l0,0c1,0.6,1.3,1.8,0.7,2.7l0,0c-0.4,0.6-1,1-1.7,1
			l0,0C355.3,437.3,354.9,437.2,354.6,437z M329.2,435c-1-0.4-1.6-1.5-1.2-2.6l0,0c0.4-1,1.5-1.6,2.5-1.2l0,0c1,0.4,1.6,1.5,1.2,2.5
			l0,0c-0.3,0.8-1.1,1.3-1.9,1.3l0,0C329.6,435.1,329.4,435.1,329.2,435z M311.8,432.8c-0.1-1.1,0.6-2.1,1.7-2.3l0,0
			c1.1-0.2,2.1,0.6,2.3,1.7l0,0c0.2,1.1-0.6,2.1-1.7,2.3l0,0c-0.1,0-0.2,0-0.3,0l0,0C312.8,434.5,312,433.7,311.8,432.8z
			 M343.4,431.7c-0.4-1,0.1-2.2,1.1-2.6l0,0c1-0.4,2.2,0.1,2.6,1.1l0,0c0.4,1-0.1,2.2-1.1,2.6l0,0l0,0l0,0c-0.2,0.1-0.5,0.2-0.8,0.2
			l0,0C344.5,433,343.7,432.5,343.4,431.7z M410.2,429.4c-0.1-1.1,0.6-2.1,1.7-2.3l0,0c1.1-0.1,2.1,0.6,2.2,1.7l0,0
			c0.2,1.1-0.6,2.1-1.7,2.2l0,0c-0.1,0-0.2,0-0.3,0l0,0C411.2,431.1,410.4,430.4,410.2,429.4z M395.8,428.9c-1-0.4-1.5-1.5-1.2-2.6
			l0,0c0.4-1,1.6-1.5,2.6-1.2l0,0l0,0l0,0c1,0.4,1.5,1.5,1.2,2.6l0,0c-0.3,0.8-1.1,1.3-1.9,1.3l0,0C396.3,429,396.1,429,395.8,428.9
			z M391.1,427.2c-1-0.4-1.6-1.5-1.2-2.6l0,0l0,0l0,0c0.4-1,1.5-1.6,2.6-1.2l0,0c1,0.4,1.6,1.5,1.2,2.6l0,0
			c-0.3,0.8-1.1,1.3-1.9,1.3l0,0C391.5,427.3,391.3,427.3,391.1,427.2z M342.8,425c-0.5-1-0.1-2.2,0.9-2.7l0,0c1-0.5,2.2,0,2.7,0.9
			l0,0c0,0,0,0,0,0l0,0c0.5,1,0.1,2.2-0.9,2.7l0,0c-0.3,0.1-0.6,0.2-0.9,0.2l0,0C343.8,426.1,343.1,425.7,342.8,425z M356.7,425
			c-0.6-0.9-0.3-2.2,0.6-2.8l0,0c0.9-0.6,2.2-0.3,2.8,0.6l0,0c0.6,0.9,0.3,2.2-0.6,2.8l0,0c0,0,0,0,0,0l0,0
			c-0.3,0.2-0.7,0.3-1.1,0.3l0,0C357.7,425.9,357.1,425.5,356.7,425z M368.6,424.9c-0.9-0.6-1.2-1.8-0.6-2.8l0,0
			c0.6-0.9,1.8-1.2,2.8-0.6l0,0c0.9,0.6,1.2,1.8,0.6,2.8l0,0c-0.4,0.6-1,0.9-1.7,0.9l0,0C369.3,425.2,369,425.1,368.6,424.9z
			 M424.1,424.3c-0.7-0.8-0.6-2.1,0.2-2.8l0,0c0.8-0.7,2.1-0.6,2.8,0.2l0,0c0.7,0.8,0.6,2.1-0.2,2.8l0,0c-0.4,0.3-0.8,0.5-1.3,0.5
			l0,0C425,425,424.5,424.8,424.1,424.3z M319.2,422.2c-0.3-1.1,0.4-2.2,1.4-2.4l0,0c1.1-0.3,2.2,0.4,2.4,1.4l0,0
			c0.3,1.1-0.4,2.2-1.4,2.4l0,0c-0.2,0-0.3,0.1-0.5,0.1l0,0C320.2,423.7,319.4,423.1,319.2,422.2z M383.6,418.5
			c-0.4-1,0-2.2,1.1-2.6l0,0c1-0.4,2.2,0,2.6,1.1l0,0l0,0l0,0c0.4,1,0,2.2-1.1,2.6l0,0c-0.2,0.1-0.5,0.2-0.8,0.2l0,0
			C384.6,419.7,383.9,419.3,383.6,418.5z M310.1,416.8c-0.1-1.1,0.7-2.1,1.8-2.2l0,0c1.1-0.1,2.1,0.7,2.2,1.8l0,0
			c0.1,1.1-0.7,2.1-1.8,2.2l0,0c-0.1,0-0.1,0-0.2,0l0,0C311.1,418.6,310.2,417.8,310.1,416.8z M369.8,415.8
			c-0.7-0.9-0.5-2.1,0.4-2.8l0,0c0.9-0.7,2.1-0.5,2.8,0.4l0,0c0.7,0.9,0.5,2.1-0.4,2.8l0,0l0,0l0,0c-0.4,0.3-0.8,0.4-1.2,0.4l0,0
			C370.8,416.7,370.1,416.4,369.8,415.8z M376.9,412.4c-0.9-0.7-1.1-1.9-0.4-2.8l0,0c0.7-0.9,1.9-1.1,2.8-0.4l0,0
			c0.9,0.7,1.1,1.9,0.4,2.8l0,0c0,0,0,0,0,0l0,0c-0.4,0.5-1,0.8-1.6,0.8l0,0C377.7,412.8,377.2,412.7,376.9,412.4z M395.6,411.9
			c-1.1-0.1-1.9-1.1-1.8-2.2l0,0c0.1-1.1,1.1-1.9,2.2-1.8l0,0c1.1,0.1,1.9,1.1,1.8,2.2l0,0c-0.1,1-1,1.8-2,1.8l0,0
			C395.7,411.9,395.6,411.9,395.6,411.9z M433.6,411.7c-1.1-0.3-1.7-1.4-1.4-2.4l0,0c0.3-1.1,1.4-1.7,2.4-1.4l0,0
			c1.1,0.3,1.7,1.4,1.4,2.4h0c-0.2,0.9-1,1.5-1.9,1.5l0,0C433.9,411.8,433.8,411.8,433.6,411.7z M342.7,411.5
			c-1.1-0.2-1.8-1.2-1.6-2.3l0,0c0.2-1.1,1.2-1.8,2.3-1.7l0,0c1.1,0.2,1.8,1.2,1.7,2.3l0,0c-0.2,1-1,1.7-2,1.7l0,0
			C342.9,411.5,342.8,411.5,342.7,411.5z M381.9,407.1c-0.6-0.9-0.3-2.2,0.6-2.8l0,0c0.9-0.6,2.2-0.3,2.8,0.6l0,0
			c0.6,0.9,0.3,2.2-0.6,2.8l0,0l0,0l0,0c-0.3,0.2-0.7,0.3-1.1,0.3l0,0C382.9,408,382.3,407.7,381.9,407.1z M319.8,407.9
			c-1.1-0.1-1.9-1-1.9-2.1l0,0c0.1-1.1,1-2,2.1-1.9l0,0c1.1,0.1,1.9,1,1.9,2.1l0,0c-0.1,1.1-0.9,1.9-2,1.9l0,0
			C319.9,407.9,319.9,407.9,319.8,407.9z M385.3,404c-1.1-0.2-1.8-1.3-1.6-2.3l0,0c0.2-1.1,1.3-1.8,2.3-1.6l0,0
			c1.1,0.2,1.8,1.3,1.6,2.3l0,0c-0.2,1-1,1.6-2,1.6l0,0C385.5,404.1,385.4,404,385.3,404z M308.9,401.8c-0.1-1.1,0.8-2,1.9-2.1l0,0
			c1.1-0.1,2.1,0.8,2.1,1.9l0,0c0.1,1.1-0.8,2-1.9,2.1l0,0c0,0-0.1,0-0.1,0l0,0C309.9,403.7,309,402.9,308.9,401.8z M398.6,401.7
			c-0.1-1.1,0.7-2.1,1.8-2.2l0,0c1.1-0.1,2.1,0.7,2.2,1.8l0,0c0.1,1.1-0.7,2.1-1.8,2.2l0,0c-0.1,0-0.1,0-0.2,0l0,0
			C399.6,403.5,398.7,402.8,398.6,401.7z M387.6,400.6c-0.3-0.7-0.2-1.5,0.3-2.1l0,0c-0.6,0.5-1.5,0.6-2.2,0.1l0,0
			c-0.9-0.6-1.2-1.8-0.7-2.7l0,0c0.6-1,1.8-1.3,2.8-0.7l0,0c0.9,0.6,1.2,1.8,0.7,2.7l0,0c-0.1,0.1-0.1,0.2-0.2,0.3l0,0
			c0.1-0.1,0.3-0.2,0.4-0.2l0,0c1-0.4,2.2,0,2.6,1l0,0c0.4,1,0,2.2-1,2.6l0,0c-0.3,0.1-0.5,0.2-0.8,0.2l0,0
			C388.6,401.8,387.9,401.3,387.6,400.6z M395.8,399.3c-0.4-1,0.1-2.2,1.2-2.6l0,0c1-0.4,2.2,0.1,2.6,1.2l0,0c0.4,1-0.1,2.2-1.2,2.6
			l0,0c-0.2,0.1-0.5,0.1-0.7,0.1l0,0C396.8,400.6,396.1,400.1,395.8,399.3z M427,399.9L427,399.9L427,399.9c-1-0.4-1.5-1.6-1.1-2.6
			l0,0c0.4-1,1.6-1.5,2.6-1.1l0,0c1,0.4,1.5,1.6,1.1,2.6l0,0c-0.3,0.8-1.1,1.3-1.9,1.3l0,0C427.5,400,427.3,400,427,399.9z
			 M356.1,399.4L356.1,399.4L356.1,399.4c-1.1-0.1-1.9-1-1.8-2.2l0,0c0.1-1.1,1-1.9,2.1-1.8l0,0c1.1,0.1,1.9,1,1.8,2.2l0,0
			c-0.1,1-1,1.8-2,1.8l0,0C356.2,399.4,356.2,399.4,356.1,399.4z M410.1,395.6c0-1.1,0.8-2,1.9-2.1l0,0c1.1,0,2,0.8,2.1,1.9l0,0
			c0,1.1-0.8,2-1.9,2.1l0,0c0,0,0,0,0,0l0,0c0,0,0,0-0.1,0l0,0C411.1,397.5,410.2,396.7,410.1,395.6z M346.9,396.2
			c-1-0.4-1.5-1.6-1.1-2.6l0,0c0.4-1,1.6-1.5,2.6-1.1l0,0c1,0.4,1.5,1.6,1.1,2.6l0,0l0,0l0,0c-0.3,0.8-1.1,1.2-1.9,1.2l0,0
			C347.5,396.4,347.2,396.3,346.9,396.2z M321.7,393.1c-1.1-0.3-1.7-1.3-1.5-2.4l0,0c0.2-1.1,1.3-1.7,2.4-1.5l0,0
			c1.1,0.3,1.7,1.3,1.5,2.4l0,0c-0.2,0.9-1,1.5-1.9,1.5l0,0C322,393.1,321.8,393.1,321.7,393.1z M410.3,392.6
			c-1.1-0.3-1.7-1.4-1.3-2.5l0,0c0.3-1,1.4-1.6,2.5-1.3l0,0c1,0.3,1.7,1.4,1.3,2.5l0,0c-0.3,0.9-1,1.4-1.9,1.4l0,0
			C410.7,392.7,410.5,392.7,410.3,392.6z M340.9,391.8L340.9,391.8L340.9,391.8c-0.8-0.8-0.8-2,0-2.8l0,0c0.8-0.8,2.1-0.8,2.8,0l0,0
			c0.8,0.8,0.8,2,0,2.8l0,0c-0.4,0.4-0.9,0.6-1.4,0.6l0,0C341.8,392.4,341.3,392.2,340.9,391.8z M372,390.4c-1-0.5-1.3-1.8-0.7-2.7
			l0,0c0.6-1,1.8-1.3,2.7-0.7l0,0l0,0l0,0c1,0.6,1.3,1.8,0.7,2.7l0,0c-0.4,0.6-1,1-1.7,1l0,0C372.7,390.6,372.4,390.5,372,390.4z
			 M385.1,387.2c0-1.1,0.9-2,2-2l0,0c1.1,0,2,0.9,2,2l0,0c0,0,0,0,0,0l0,0c0,1.1-0.9,2-2,2l0,0c0,0,0,0,0,0l0,0
			C386,389.2,385.1,388.3,385.1,387.2z M311,387.8c-1.1-0.1-1.9-1.2-1.7-2.3l0,0c0.1-1.1,1.2-1.9,2.3-1.7l0,0
			c1.1,0.1,1.9,1.2,1.7,2.2l0,0c-0.1,1-1,1.7-2,1.7l0,0C311.2,387.8,311.1,387.8,311,387.8z M428.3,384.3L428.3,384.3
			c-0.8-0.8-0.8-2,0-2.8l0,0c0.8-0.8,2-0.8,2.8,0l0,0c0.8,0.8,0.8,2,0,2.8l0,0c-0.4,0.4-0.9,0.6-1.4,0.6l0,0
			C429.2,384.8,428.7,384.6,428.3,384.3z M359,383.2c-1-0.5-1.4-1.7-0.9-2.7l0,0c0.5-1,1.7-1.4,2.7-0.9l0,0c1,0.5,1.4,1.7,0.9,2.7
			l0,0c-0.4,0.7-1.1,1.1-1.8,1.1l0,0C359.6,383.4,359.3,383.4,359,383.2z M352.9,382.5c-1-0.4-1.5-1.6-1.1-2.6l0,0
			c0.4-1,1.6-1.5,2.6-1.1l0,0c1,0.4,1.5,1.6,1.1,2.6l0,0c-0.3,0.8-1.1,1.3-1.9,1.3l0,0C353.4,382.6,353.2,382.6,352.9,382.5z
			 M333.5,377.7L333.5,377.7L333.5,377.7c-0.1-1.1,0.7-2.1,1.8-2.2l0,0c1.1-0.1,2.1,0.7,2.2,1.8l0,0c0.1,1.1-0.7,2.1-1.8,2.2l0,0
			c-0.1,0-0.1,0-0.2,0l0,0C334.5,379.5,333.6,378.7,333.5,377.7z M415,378.4c-0.7-0.8-0.7-2.1,0.2-2.8l0,0l0,0l0,0
			c0.8-0.7,2.1-0.7,2.8,0.2l0,0c0.7,0.8,0.7,2.1-0.2,2.8l0,0c-0.4,0.3-0.9,0.5-1.3,0.5l0,0C416,379,415.4,378.8,415,378.4z
			 M327,378.1c-1-0.5-1.3-1.8-0.8-2.7l0,0l0,0l0,0c0.5-1,1.8-1.3,2.7-0.8l0,0c1,0.5,1.3,1.8,0.8,2.7h0c-0.4,0.7-1.1,1-1.8,1l0,0
			C327.7,378.4,327.3,378.3,327,378.1z M344.8,376.6c-1-0.4-1.5-1.6-1.1-2.6l0,0c0.4-1,1.6-1.5,2.6-1.1l0,0c1,0.4,1.5,1.6,1.1,2.6
			l0,0c-0.3,0.8-1.1,1.2-1.9,1.2l0,0C345.3,376.7,345,376.7,344.8,376.6z M315.1,373.5c-0.8-0.8-0.8-2,0-2.8l0,0l0,0l0,0
			c0.8-0.8,2-0.8,2.8,0l0,0c0.8,0.8,0.8,2,0.1,2.8l0,0c-0.4,0.4-0.9,0.6-1.4,0.6l0,0C316,374.1,315.5,373.9,315.1,373.5z
			 M382.1,372.6c-0.5-1-0.1-2.2,0.9-2.7l0,0c1-0.5,2.2-0.1,2.7,0.9l0,0c0.5,1,0.1,2.2-0.9,2.7l0,0c-0.3,0.1-0.6,0.2-0.9,0.2l0,0
			C383.1,373.8,382.4,373.3,382.1,372.6z M331,371.7L331,371.7c-1.1-0.3-1.7-1.4-1.5-2.4l0,0c0.3-1.1,1.4-1.7,2.4-1.5l0,0
			c1.1,0.3,1.7,1.4,1.4,2.4l0,0c-0.2,0.9-1,1.5-1.9,1.5l0,0C331.3,371.8,331.1,371.7,331,371.7z M357.5,367.3
			c-1.1-0.1-1.9-1.1-1.8-2.2l0,0c0.1-1.1,1.1-1.9,2.2-1.8l0,0c1.1,0.1,1.9,1.1,1.8,2.2l0,0l0,0l0,0c-0.1,1-1,1.8-2,1.8l0,0
			C357.6,367.3,357.6,367.3,357.5,367.3z M341.2,365.6c-0.5-1-0.1-2.2,0.9-2.7l0,0c1-0.5,2.2-0.1,2.7,0.9l0,0c0.5,1,0.1,2.2-0.9,2.7
			l0,0c-0.3,0.1-0.6,0.2-0.9,0.2l0,0C342.3,366.7,341.6,366.3,341.2,365.6z M335.2,365.7c-0.8-0.8-0.9-2-0.1-2.8l0,0
			c0.8-0.8,2-0.9,2.8-0.1l0,0c0.8,0.8,0.9,2,0.1,2.8l0,0c-0.4,0.4-0.9,0.6-1.5,0.6l0,0C336.1,366.2,335.6,366,335.2,365.7z
			 M372.5,363.8c-1-0.4-1.6-1.5-1.2-2.6l0,0c0.4-1,1.5-1.6,2.6-1.2l0,0l0,0l0,0c1,0.4,1.6,1.5,1.2,2.6l0,0c-0.3,0.8-1.1,1.3-1.9,1.3
			l0,0C372.9,364,372.7,363.9,372.5,363.8z M355.4,361.2c-0.1-1.1,0.7-2.1,1.8-2.2l0,0c1.1-0.1,2.1,0.7,2.2,1.8l0,0
			c0.1,1.1-0.7,2.1-1.8,2.2l0,0c-0.1,0-0.1,0-0.2,0l0,0C356.4,363,355.5,362.2,355.4,361.2z M347.9,356.3c-0.2-1.1,0.5-2.1,1.6-2.3
			l0,0c1.1-0.2,2.1,0.5,2.3,1.6l0,0c0.2,1.1-0.5,2.1-1.6,2.3l0,0c-0.1,0-0.2,0-0.4,0l0,0C348.9,357.9,348.1,357.2,347.9,356.3z"/>
	</g>
	<g>
		<path fill="#39B54A" d="M437.7,397.4c-0.5,0-1-0.2-1.4-0.6c-0.4-0.4-0.6-0.9-0.6-1.4c0-0.5,0.2-1.1,0.6-1.4c0.7-0.7,2.1-0.7,2.8,0
			c0.4,0.4,0.6,0.9,0.6,1.4c0,0.5-0.2,1-0.6,1.4C438.7,397.2,438.2,397.4,437.7,397.4z"/>
	</g>
	<g>
		<path fill="#39B54A" d="M423.3,387.2C423.3,387.2,423.3,387.2,423.3,387.2L423.3,387.2c-0.8-0.8-0.7-2.1,0.1-2.8l0,0
			c0.8-0.8,2.1-0.7,2.8,0.1l0,0c0.8,0.8,0.7,2.1-0.1,2.8l0,0c-0.4,0.4-0.9,0.5-1.4,0.5l0,0C424.2,387.8,423.7,387.6,423.3,387.2z"/>
	</g>
	<g>
		<path fill="#39B54A" stroke="#39B54A" stroke-width="7" stroke-miterlimit="10" stroke-dasharray="0,5,0,1" d="M391.4,469.1
			c-0.3-1.1,0.3-2.2,1.4-2.4l0,0l0,0l0,0c1.1-0.3,2.2,0.3,2.5,1.4l0,0c0.3,1.1-0.4,2.2-1.4,2.4h0c-0.2,0-0.4,0.1-0.5,0.1l0,0
			C392.5,470.5,391.7,470,391.4,469.1z M376.8,469.7c-1.1-0.3-1.7-1.4-1.5-2.4l0,0c0.3-1.1,1.4-1.7,2.4-1.5l0,0
			c1.1,0.3,1.7,1.4,1.5,2.4l0,0c-0.2,0.9-1.1,1.5-2,1.5l0,0C377.1,469.8,376.9,469.7,376.8,469.7z M362,464.8
			c-1-0.4-1.5-1.6-1.1-2.6l0,0c0.4-1,1.6-1.5,2.6-1.1l0,0c1,0.4,1.5,1.6,1.1,2.6l0,0c-0.3,0.8-1.1,1.3-1.9,1.3l0,0
			C362.5,464.9,362.3,464.9,362,464.8z M294,461.8c-0.5-1-0.2-2.2,0.8-2.7l0,0c1-0.5,2.2-0.2,2.7,0.8l0,0c0.5,1,0.2,2.2-0.8,2.7l0,0
			c0,0,0,0,0,0l0,0c-0.3,0.2-0.6,0.3-1,0.3l0,0C295.1,462.8,294.4,462.5,294,461.8z M404.7,461.9c-0.8-0.7-0.9-2-0.2-2.8l0,0l0,0
			l0,0c0.7-0.8,2-0.9,2.8-0.2l0,0c0.8,0.7,0.9,2,0.2,2.8l0,0c-0.4,0.4-1,0.7-1.5,0.7l0,0C405.6,462.4,405.1,462.3,404.7,461.9z
			 M346.9,458.1c-1-0.5-1.4-1.7-0.8-2.7l0,0c0.5-1,1.7-1.4,2.7-0.8l0,0c1,0.5,1.4,1.7,0.8,2.7l0,0c-0.4,0.7-1,1.1-1.8,1.1l0,0
			C347.5,458.4,347.2,458.3,346.9,458.1z M337.8,453.5L337.8,453.5L337.8,453.5c-1.1,0-2-0.9-2-2l0,0c0-1.1,0.9-2,2-2l0,0
			c1.1,0,2,0.9,2,2l0,0C339.8,452.6,338.9,453.5,337.8,453.5L337.8,453.5C337.8,453.5,337.8,453.5,337.8,453.5z M351.1,450.6
			c-0.2-1.1,0.6-2.1,1.6-2.3l0,0c1.1-0.2,2.1,0.6,2.3,1.7l0,0c0.2,1.1-0.6,2.1-1.7,2.3l0,0c0,0,0,0,0,0l0,0c-0.1,0-0.2,0-0.3,0l0,0
			C352.1,452.3,351.2,451.6,351.1,450.6z M305.1,450c-0.6-1-0.2-2.2,0.8-2.7l0,0c0.9-0.5,2.2-0.2,2.7,0.7l0,0c0.5,1,0.2,2.2-0.7,2.7
			l0,0l0,0l0,0c-0.3,0.2-0.7,0.3-1,0.3l0,0C306.1,451,305.4,450.7,305.1,450z M321.3,450.9L321.3,450.9L321.3,450.9
			c-1.1-0.2-1.8-1.3-1.5-2.4l0,0c0.2-1.1,1.3-1.8,2.4-1.5l0,0c1.1,0.2,1.8,1.3,1.5,2.4l0,0c-0.2,0.9-1,1.6-2,1.6l0,0
			C321.6,451,321.5,451,321.3,450.9z M367,447.3c-0.2-1.1,0.5-2.1,1.5-2.4l0,0c1.1-0.2,2.1,0.5,2.4,1.5l0,0c0.2,1.1-0.5,2.1-1.5,2.4
			l0,0l0,0l0,0c-0.1,0-0.3,0-0.4,0l0,0C368,448.9,367.2,448.2,367,447.3z M334.5,447.7c-0.6-0.9-0.2-2.2,0.7-2.7l0,0
			c1-0.6,2.2-0.2,2.7,0.7l0,0c0.6,0.9,0.2,2.2-0.7,2.7l0,0c-0.3,0.2-0.7,0.3-1,0.3l0,0C335.5,448.7,334.9,448.4,334.5,447.7z
			 M409.8,445.8c-0.1-1.1,0.6-2.1,1.7-2.2l0,0c1.1-0.1,2.1,0.6,2.2,1.7l0,0c0.1,1.1-0.6,2.1-1.7,2.2l0,0c-0.1,0-0.2,0-0.2,0l0,0
			C410.8,447.6,409.9,446.9,409.8,445.8z M381.9,443.8c-0.4-1,0.2-2.2,1.2-2.5l0,0c1-0.4,2.2,0.2,2.5,1.2l0,0
			c0.4,1.1-0.2,2.2-1.2,2.5l0,0c-0.2,0.1-0.4,0.1-0.6,0.1l0,0C382.9,445.1,382.2,444.6,381.9,443.8z M309.1,443.2
			c-1.1-0.2-1.8-1.2-1.6-2.3l0,0c0.2-1.1,1.2-1.8,2.3-1.6l0,0c1.1,0.2,1.8,1.2,1.6,2.3l0,0c-0.2,1-1,1.7-2,1.7l0,0
			C309.3,443.3,309.2,443.3,309.1,443.2z M322.6,440.8c-0.4-1,0.2-2.2,1.2-2.6l0,0c1-0.4,2.2,0.2,2.6,1.2l0,0c0.4,1-0.2,2.2-1.2,2.6
			l0,0c-0.2,0.1-0.5,0.1-0.7,0.1l0,0C323.7,442.1,322.9,441.6,322.6,440.8z M397.6,439.5c0-1.1,0.8-2,1.9-2.1v0c1.1,0,2,0.8,2.1,1.9
			l0,0c0.1,1.1-0.8,2-1.9,2.1l0,0c0,0-0.1,0-0.1,0l0,0C398.5,441.4,397.6,440.5,397.6,439.5z M293.6,435.9L293.6,435.9L293.6,435.9
			c-0.8-0.7-0.9-2-0.2-2.8l0,0c0.7-0.8,2-0.9,2.8-0.2l0,0c0.8,0.7,0.9,2,0.2,2.8l0,0c-0.4,0.5-1,0.7-1.5,0.7l0,0
			C294.4,436.3,293.9,436.2,293.6,435.9z M334.9,432.8c-1.1-0.2-1.8-1.3-1.5-2.4v0c0.2-1.1,1.3-1.8,2.4-1.5l0,0c0,0,0.1,0,0.1,0l0,0
			c0.7-0.7,1.8-0.8,2.6-0.2l0,0c0.9,0.7,1.1,1.9,0.4,2.8l0,0l0,0l0,0c-0.5,0.7-1.4,0.9-2.1,0.7l0,0c-0.4,0.4-0.9,0.6-1.4,0.6l0,0
			C335.1,432.8,335,432.8,334.9,432.8z M284.2,422.7c-0.4-1,0.1-2.2,1.1-2.6l0,0c1-0.4,2.2,0.1,2.6,1.1l0,0c0.4,1-0.1,2.2-1.1,2.6
			l0,0c-0.2,0.1-0.5,0.1-0.7,0.1l0,0C285.3,424,284.6,423.5,284.2,422.7z M343.7,418.8c-1-0.4-1.5-1.6-1.1-2.6l0,0
			c0.4-1,1.6-1.5,2.6-1.1l0,0c1,0.4,1.5,1.6,1.1,2.6l0,0l0,0l0,0c-0.3,0.8-1.1,1.2-1.8,1.2l0,0C344.2,418.9,344,418.9,343.7,418.8z
			 M338.4,417.9c-1.1-0.3-1.7-1.4-1.4-2.4l0,0c0.3-1.1,1.4-1.7,2.4-1.4l0,0c1.1,0.3,1.7,1.4,1.4,2.4l0,0c-0.2,0.9-1,1.5-1.9,1.5l0,0
			C338.8,418,338.6,418,338.4,417.9z M284.1,408c-1.1-0.2-1.8-1.2-1.6-2.3l0,0c0.2-1.1,1.2-1.8,2.3-1.6l0,0c1.1,0.2,1.8,1.2,1.6,2.3
			l0,0c-0.2,1-1,1.6-2,1.6l0,0C284.3,408,284.2,408,284.1,408z M349.5,403.5c-1-0.4-1.6-1.5-1.2-2.6l0,0c0.4-1,1.5-1.5,2.6-1.2l0,0
			c1,0.4,1.5,1.5,1.2,2.6l0,0c0,0,0,0,0,0l0,0c-0.3,0.8-1.1,1.3-1.9,1.3l0,0C350,403.6,349.7,403.6,349.5,403.5z M339.2,400
			c-0.1-1.1,0.8-2.1,1.9-2.1l0,0c1.1-0.1,2,0.8,2.1,1.9l0,0c0.1,1.1-0.8,2.1-1.9,2.1l0,0c0,0-0.1,0-0.1,0l0,0
			C340.2,401.9,339.3,401.1,339.2,400z M289.8,394c-0.8-0.7-0.9-2-0.1-2.8l0,0c0.8-0.8,2-0.9,2.8-0.1l0,0c0.8,0.8,0.9,2,0.1,2.8l0,0
			c-0.4,0.4-0.9,0.6-1.5,0.6l0,0C290.7,394.5,290.2,394.3,289.8,394z M355.2,389.3c-1-0.4-1.5-1.6-1.1-2.6l0,0
			c0.4-1,1.6-1.5,2.6-1.1l0,0c1,0.4,1.5,1.6,1.1,2.6l0,0c-0.3,0.8-1.1,1.2-1.9,1.2l0,0C355.7,389.5,355.4,389.4,355.2,389.3z
			 M333.6,387.9c-0.8-0.7-0.9-2-0.2-2.8l0,0c0.7-0.8,2-0.9,2.8-0.2l0,0c0.8,0.7,0.9,2,0.2,2.8l0,0c-0.4,0.5-0.9,0.7-1.5,0.7l0,0
			C334.4,388.4,334,388.3,333.6,387.9z M302.9,384.6c-0.4-1,0.1-2.2,1.2-2.6l0,0c1-0.4,2.2,0.1,2.6,1.2l0,0c0.4,1-0.1,2.2-1.2,2.6
			l0,0c-0.2,0.1-0.5,0.1-0.7,0.1l0,0C304,385.9,303.2,385.4,302.9,384.6z M319.8,383.3L319.8,383.3c-1.1,0-2-0.9-2-2l0,0
			c0-1.1,0.9-2,2-2l0,0c1.1,0,2,0.9,2,2l0,0C321.8,382.4,320.9,383.3,319.8,383.3L319.8,383.3C319.8,383.3,319.8,383.3,319.8,383.3z
			 M412.8,376.3L412.8,376.3L412.8,376.3c-0.8-0.8-0.8-2,0-2.8l0,0c0.8-0.8,2-0.8,2.8,0h0c0.8,0.8,0.8,2.1,0,2.8l0,0
			c-0.4,0.4-0.9,0.6-1.4,0.6l0,0C413.6,376.9,413.1,376.7,412.8,376.3z M362.1,374.6c-1-0.6-1.2-1.8-0.7-2.8h0
			c0.6-0.9,1.8-1.2,2.7-0.7l0,0c1,0.6,1.2,1.8,0.7,2.8l0,0c0,0,0,0,0,0l0,0c-0.4,0.6-1,1-1.7,1l0,0
			C362.8,374.9,362.4,374.8,362.1,374.6z M400.8,365.8c-0.9-0.6-1.1-1.9-0.5-2.8l0,0c0.6-0.9,1.9-1.1,2.8-0.5l0,0
			c0.9,0.6,1.1,1.9,0.5,2.8l0,0c-0.4,0.5-1,0.8-1.6,0.8l0,0C401.5,366.1,401.1,366,400.8,365.8z M371.4,362.5
			c-0.7-0.9-0.5-2.1,0.3-2.8l0,0c0.9-0.7,2.1-0.5,2.8,0.4l0,0c0.7,0.9,0.5,2.1-0.4,2.8l0,0c-0.4,0.3-0.8,0.4-1.2,0.4l0,0
			C372.4,363.2,371.8,363,371.4,362.5z M387.8,359.5c-1.1-0.2-1.8-1.3-1.5-2.4l0,0c0.2-1.1,1.3-1.8,2.4-1.5l0,0
			c1.1,0.2,1.8,1.3,1.5,2.4l0,0c-0.2,0.9-1,1.6-2,1.6l0,0C388.1,359.6,387.9,359.5,387.8,359.5z"/>
	</g>
	<g>
		<path fill="#39B54A" d="M280.6,465c-0.5,0-1-0.2-1.4-0.6c-0.4-0.4-0.6-0.9-0.6-1.4c0-0.5,0.2-1,0.6-1.4c0.8-0.8,2.1-0.7,2.8,0
			c0.4,0.4,0.6,0.9,0.6,1.4c0,0.5-0.2,1.1-0.6,1.4C281.6,464.7,281.1,465,280.6,465z"/>
	</g>
</g>
<g>
	
		<image overflow="visible" opacity="0.83" width="697" height="508" xlink:href="8663DDB5CB88A4AF.png"  transform="matrix(0.24 0 0 0.24 274.5898 354.2157)">
	</image>
	<g>
		<g>
			<g>
				<path fill="#0000FF" d="M384,391.3c-0.5,0-1-0.2-1.4-0.6c-0.4-0.4-0.6-0.9-0.6-1.4s0.2-1,0.6-1.4c0.8-0.8,2.1-0.8,2.8,0
					c0.4,0.4,0.6,0.9,0.6,1.4s-0.2,1-0.6,1.4C385.1,391.1,384.5,391.3,384,391.3z"/>
			</g>
			<g>
				<path fill="#0000FF" d="M374.2,394.2c-0.5-1-0.1-2.2,0.9-2.7l0,0c1-0.5,2.2-0.1,2.7,0.9l0,0c0.5,1,0.1,2.2-0.9,2.7l0,0
					c0,0,0,0,0,0l0,0c-0.3,0.1-0.6,0.2-0.9,0.2l0,0C375.3,395.3,374.6,394.9,374.2,394.2z"/>
			</g>
			<g>
				<path fill="#0000FF" d="M329.1,463.1c-0.2-1.1,0.5-2.1,1.5-2.4l0,0c1.1-0.2,2.1,0.4,2.4,1.5l0,0c0.2,1.1-0.4,2.1-1.5,2.4l0,0
					c-0.2,0-0.3,0-0.4,0l0,0C330.1,464.6,329.3,464,329.1,463.1z M337.6,460.2c-0.5-1-0.2-2.2,0.8-2.7l0,0c1-0.5,2.2-0.2,2.7,0.8
					l0,0c0.5,1,0.2,2.2-0.8,2.7l0,0c-0.3,0.2-0.6,0.2-1,0.2l0,0C338.6,461.2,337.9,460.9,337.6,460.2z M316.9,457.7
					c-0.5-1-0.2-2.2,0.8-2.7l0,0c1-0.5,2.2-0.2,2.7,0.8l0,0c0.5,1,0.2,2.2-0.8,2.7l0,0c-0.3,0.2-0.6,0.2-1,0.2l0,0
					C318,458.7,317.3,458.4,316.9,457.7z M349.7,451.5c-0.8-0.8-0.8-2,0-2.8l0,0c0.8-0.8,2-0.8,2.8,0l0,0c0.8,0.8,0.8,2,0,2.8l0,0
					c-0.4,0.4-0.9,0.6-1.4,0.6l0,0C350.6,452.1,350.1,451.9,349.7,451.5z M313.6,448.9c-0.3-1.1,0.4-2.2,1.4-2.4l0,0
					c1.1-0.3,2.2,0.3,2.5,1.4l0,0c0.3,1.1-0.4,2.2-1.4,2.5l0,0c-0.2,0-0.4,0.1-0.5,0.1l0,0C314.7,450.3,313.9,449.8,313.6,448.9z
					 M371.7,445.5c-1.1-0.1-1.9-1.1-1.8-2.2l0,0c0.1-1.1,1.1-1.9,2.2-1.8l0,0c1.1,0.1,1.9,1.1,1.8,2.2l0,0c-0.1,1-1,1.8-2,1.8l0,0
					C371.9,445.5,371.8,445.5,371.7,445.5z M355.7,444.9c-0.9-0.7-1.1-1.9-0.4-2.8l0,0c0.7-0.9,1.9-1.1,2.8-0.4l0,0
					c0.9,0.7,1.1,1.9,0.4,2.8l0,0c-0.4,0.5-1,0.8-1.6,0.8l0,0C356.5,445.3,356,445.1,355.7,444.9z M362.6,443.2L362.6,443.2
					c-1-0.4-1.6-1.5-1.2-2.6l0,0c0.4-1,1.5-1.6,2.6-1.2l0,0c0,0,0,0,0,0l0,0c1,0.4,1.6,1.5,1.2,2.6l0,0c-0.3,0.8-1.1,1.3-1.9,1.3
					l0,0C363,443.3,362.8,443.2,362.6,443.2z M384,439.8c-0.9-0.7-1-2-0.3-2.8l0,0c0.7-0.9,2-1,2.8-0.3l0,0c0.9,0.7,1,2,0.3,2.8l0,0
					c-0.4,0.5-1,0.7-1.5,0.7l0,0C384.8,440.3,384.3,440.1,384,439.8z M338.3,435.1c-0.3-1,0.2-2.2,1.3-2.5v0c1-0.3,2.2,0.2,2.5,1.3
					l0,0c0.3,1-0.2,2.2-1.3,2.5l0,0l0,0l0,0c-0.2,0.1-0.4,0.1-0.6,0.1l0,0C339.3,436.5,338.5,435.9,338.3,435.1z M348.9,435.8
					c-0.8-0.7-1-1.9-0.4-2.7l0,0c-0.8,0-1.5-0.4-1.9-1.1l0,0c-0.5-1-0.1-2.2,0.9-2.7l0,0c1-0.5,2.2-0.1,2.7,0.9l0,0
					c0.3,0.7,0.2,1.5-0.2,2.1l0,0c0.5,0,1,0.1,1.4,0.5l0,0c0.9,0.7,1,1.9,0.3,2.8l0,0c-0.4,0.5-1,0.7-1.5,0.7l0,0
					C349.7,436.2,349.3,436.1,348.9,435.8z M310.7,434C310.7,434,310.7,434,310.7,434L310.7,434c-0.1-1.1,0.6-2.1,1.7-2.3l0,0
					c1.1-0.2,2.1,0.6,2.3,1.7l0,0c0.1,1.1-0.6,2.1-1.7,2.3l0,0c-0.1,0-0.2,0-0.3,0l0,0C311.7,435.7,310.8,435,310.7,434z
					 M324.7,435.1c-0.9-0.7-1.1-1.9-0.4-2.8l0,0c0.7-0.9,1.9-1.1,2.8-0.4l0,0c0.9,0.7,1.1,1.9,0.4,2.8l0,0c-0.4,0.5-1,0.8-1.6,0.8
					l0,0C325.4,435.5,325,435.4,324.7,435.1z M408.4,431.4c-0.1-1.1,0.7-2.1,1.8-2.2l0,0c1.1-0.1,2.1,0.7,2.2,1.8l0,0
					c0.1,1.1-0.7,2.1-1.8,2.2l0,0c-0.1,0-0.1,0-0.2,0l0,0C409.4,433.2,408.5,432.4,408.4,431.4z M364.1,432.5
					c-0.9-0.6-1.2-1.8-0.6-2.8l0,0c0.6-0.9,1.8-1.2,2.8-0.6l0,0c0.9,0.6,1.2,1.8,0.6,2.8l0,0c-0.4,0.6-1,1-1.7,1l0,0
					C364.8,432.8,364.4,432.7,364.1,432.5z M401.1,432.7L401.1,432.7c-1.1-0.2-1.8-1.3-1.6-2.3l0,0c0.2-1.1,1.2-1.8,2.3-1.6l0,0
					c1.1,0.2,1.8,1.2,1.6,2.3l0,0c-0.2,1-1,1.6-2,1.6l0,0C401.4,432.7,401.2,432.7,401.1,432.7z M388.8,432.3
					c-1-0.4-1.5-1.6-1.1-2.6l0,0c0.4-1,1.6-1.5,2.6-1.1l0,0c1,0.4,1.5,1.6,1.1,2.6l0,0c-0.3,0.8-1.1,1.2-1.8,1.2l0,0
					C389.3,432.5,389,432.4,388.8,432.3z M342.5,428.5c-0.5-1-0.2-2.2,0.7-2.7l0,0c1-0.6,2.2-0.2,2.7,0.7l0,0c0.6,1,0.2,2.2-0.7,2.7
					l0,0c-0.3,0.2-0.7,0.3-1,0.3l0,0C343.6,429.5,342.9,429.2,342.5,428.5z M319,426.9c-0.4-1,0.2-2.2,1.2-2.6l0,0
					c1-0.4,2.2,0.2,2.6,1.2l0,0c0.4,1-0.2,2.2-1.2,2.6l0,0c-0.2,0.1-0.5,0.1-0.7,0.1l0,0C320.1,428.2,319.3,427.7,319,426.9z
					 M422.5,426.8c-0.7-0.8-0.6-2.1,0.3-2.8l0,0c0.8-0.7,2.1-0.6,2.8,0.3l0,0c0.7,0.8,0.6,2.1-0.3,2.8l0,0c-0.4,0.3-0.8,0.5-1.3,0.5
					l0,0C423.4,427.5,422.9,427.3,422.5,426.8z M309.7,425c-0.1-1.1,0.7-2.1,1.8-2.2l0,0c1.1-0.1,2.1,0.7,2.2,1.8v0
					c0.1,1.1-0.7,2.1-1.8,2.2l0,0c-0.1,0-0.1,0-0.2,0l0,0C310.6,426.8,309.8,426,309.7,425z M386.7,426.1c-0.8-0.7-0.9-2-0.1-2.8
					l0,0c0.7-0.8,2-0.9,2.8-0.1l0,0c0.8,0.7,0.9,2,0.2,2.8l0,0c-0.4,0.4-0.9,0.7-1.5,0.7l0,0C387.5,426.6,387.1,426.5,386.7,426.1z
					 M359.6,424.4c-0.6-0.9-0.4-2.2,0.5-2.8l0,0c0.9-0.6,2.1-0.4,2.8,0.5l0,0c0.6,0.9,0.4,2.2-0.5,2.8l0,0c-0.3,0.2-0.8,0.4-1.1,0.4
					l0,0C360.6,425.3,360,425,359.6,424.4z M368.8,424.9c-0.9-0.6-1.2-1.8-0.6-2.8l0,0c0.6-0.9,1.8-1.2,2.8-0.6l0,0
					c0.9,0.6,1.2,1.8,0.6,2.8l0,0c-0.4,0.6-1,0.9-1.7,0.9l0,0C369.5,425.2,369.2,425.1,368.8,424.9z M428.8,420.5
					c-0.9-0.6-1.2-1.8-0.6-2.8l0,0c0.6-0.9,1.8-1.2,2.8-0.7l0,0c0.9,0.6,1.2,1.8,0.6,2.8l0,0c-0.4,0.6-1,0.9-1.7,0.9l0,0
					C429.5,420.8,429.2,420.7,428.8,420.5z M366.9,419.2c-0.6-0.9-0.5-2.1,0.4-2.8l0,0c0.9-0.7,2.1-0.5,2.8,0.4l0,0
					c0.7,0.9,0.5,2.1-0.4,2.8l0,0l0,0l0,0c-0.4,0.3-0.8,0.4-1.2,0.4l0,0C367.9,420,367.3,419.8,366.9,419.2z M381.6,417.4
					c-0.2-1.1,0.5-2.1,1.6-2.3l0,0c1.1-0.2,2.1,0.5,2.3,1.6l0,0c0.2,1.1-0.5,2.1-1.6,2.3l0,0c-0.1,0-0.2,0-0.4,0l0,0
					C382.6,419,381.8,418.4,381.6,417.4z M393.7,418.2c-1.1-0.2-1.8-1.3-1.5-2.4l0,0c0.2-1.1,1.3-1.8,2.4-1.5l0,0
					c1.1,0.2,1.8,1.3,1.5,2.4l0,0c-0.2,0.9-1,1.6-2,1.6l0,0C394,418.2,393.8,418.2,393.7,418.2z M341.5,415
					c-1.1-0.1-1.9-1.1-1.8-2.2l0,0c0.1-1.1,1.1-1.9,2.2-1.8l0,0c1.1,0.1,1.9,1.1,1.8,2.2l0,0c0,0,0,0,0,0l0,0c-0.1,1-1,1.8-2,1.8
					l0,0C341.7,415,341.6,415,341.5,415z M318.8,413.5c-1.1,0-2-0.9-2-2l0,0c0-1.1,0.9-2,2-2l0,0c1.1,0,2,0.9,2,2l0,0
					C320.8,412.6,319.9,413.5,318.8,413.5L318.8,413.5C318.8,413.5,318.8,413.5,318.8,413.5z M377.3,412.5c-0.9-0.7-1-1.9-0.3-2.8
					l0,0c0.4-0.5,1.1-0.8,1.7-0.8l0,0c0.1-0.5,0.4-1,0.9-1.3l0,0c0.9-0.6,2.2-0.4,2.8,0.5l0,0c0.6,0.9,0.4,2.2-0.5,2.8l0,0l0,0l0,0
					c-0.4,0.3-0.8,0.4-1.3,0.3l0,0c-0.1,0.3-0.2,0.6-0.4,0.9l0,0c-0.4,0.5-1,0.8-1.6,0.8l0,0C378.1,413,377.6,412.8,377.3,412.5z
					 M308.4,410c-0.1-1.1,0.7-2.1,1.8-2.2l0,0c1.1-0.1,2.1,0.7,2.2,1.8l0,0c0.1,1.1-0.7,2.1-1.8,2.2l0,0c-0.1,0-0.1,0-0.2,0l0,0
					C309.4,411.9,308.5,411.1,308.4,410z M392.8,407.5c-0.1-1.1,0.7-2.1,1.8-2.2l0,0c1.1-0.1,2.1,0.7,2.2,1.8l0,0
					c0.1,1.1-0.7,2.1-1.8,2.2l0,0c-0.1,0-0.1,0-0.2,0l0,0C393.8,409.3,393,408.5,392.8,407.5z M430.9,405.7c-0.5-1-0.1-2.2,0.9-2.7
					l0,0c1-0.5,2.2-0.1,2.7,0.9l0,0c0.5,1,0.1,2.2-0.8,2.7l0,0c-0.3,0.1-0.6,0.2-0.9,0.2l0,0C431.9,406.8,431.2,406.4,430.9,405.7z
					 M386.5,405.6c0-0.1-0.1-0.2-0.1-0.3l0,0c-0.1,0.2-0.3,0.4-0.5,0.6l0,0c-0.8,0.7-2.1,0.6-2.8-0.2l0,0c-0.7-0.8-0.7-2,0.1-2.7
					l0,0c-0.1-0.3-0.2-0.7-0.1-1.1l0,0c0.2-1.1,1.2-1.8,2.3-1.6l0,0c1.1,0.2,1.8,1.2,1.6,2.3l0,0l0,0l0,0c-0.1,0.4-0.3,0.8-0.5,1
					l0,0c0,0,0,0,0,0l0,0c0.2-0.3,0.5-0.6,0.8-0.8l0,0c0.4-0.2,0.8-0.3,1.2-0.2l0,0c-0.5-0.6-0.7-1.5-0.4-2.2l0,0
					c0.5-1,1.7-1.4,2.7-0.9l0,0l0,0l0,0c1,0.5,1.4,1.7,0.9,2.7l0,0c-0.4,0.8-1.2,1.2-2.1,1.1l0,0c0.1,0.1,0.2,0.2,0.3,0.4l0,0
					c0.5,1,0.2,2.2-0.8,2.7l0,0c-0.3,0.2-0.6,0.2-1,0.2l0,0C387.6,406.6,386.9,406.2,386.5,405.6z M343.1,406.2
					c-1.1-0.3-1.6-1.5-1.3-2.5l0,0c0.3-1.1,1.5-1.6,2.5-1.3l0,0c1,0.3,1.6,1.4,1.3,2.5l0,0c-0.3,0.8-1.1,1.4-1.9,1.4l0,0
					C343.5,406.3,343.3,406.3,343.1,406.2z M396.6,403.6c0-1.1,0.9-2,2-2l0,0c1.1,0,2,0.9,2,2l0,0c0,1.1-0.9,2-2,2l0,0c0,0,0,0,0,0
					l0,0C397.5,405.6,396.6,404.7,396.6,403.6z M319.2,404.5c-1.1-0.1-1.9-1.1-1.8-2.2l0,0l0,0l0,0c0.1-1.1,1.1-1.9,2.2-1.7l0,0
					c1.1,0.1,1.9,1.1,1.7,2.2h0c-0.1,1-1,1.8-2,1.8l0,0C319.4,404.5,319.3,404.5,319.2,404.5z M307.8,401L307.8,401L307.8,401
					c0-1.1,0.8-2,1.9-2.1l0,0c1.1,0,2,0.8,2.1,1.9l0,0c0,1.1-0.8,2-1.9,2.1l0,0c0,0-0.1,0-0.1,0l0,0
					C308.7,402.9,307.8,402.1,307.8,401z M425,401.5L425,401.5L425,401.5c-1-0.3-1.6-1.5-1.3-2.5l0,0c0.3-1,1.5-1.6,2.5-1.3l0,0
					c1,0.4,1.6,1.5,1.3,2.5l0,0c-0.3,0.8-1.1,1.4-1.9,1.4l0,0C425.4,401.6,425.2,401.5,425,401.5z M352.9,401.1
					c-1.1-0.2-1.8-1.2-1.6-2.3l0,0c0.2-1.1,1.2-1.8,2.3-1.6l0,0c1.1,0.2,1.8,1.2,1.6,2.3l0,0c-0.2,1-1,1.7-2,1.7l0,0
					C353.1,401.2,353,401.2,352.9,401.1z M400.1,399.4c-0.3-1.1,0.4-2.2,1.4-2.4l0,0c1.1-0.3,2.2,0.4,2.4,1.4l0,0
					c0.3,1.1-0.4,2.2-1.4,2.4l0,0c-0.2,0.1-0.3,0.1-0.5,0.1l0,0C401.1,400.9,400.3,400.3,400.1,399.4z M360.2,399.3
					c-0.2-1.1,0.4-2.1,1.5-2.4v0c1.1-0.2,2.2,0.4,2.4,1.5l0,0c0.2,1.1-0.4,2.2-1.5,2.4l0,0l0,0l0,0c-0.2,0-0.3,0.1-0.4,0.1l0,0
					C361.2,400.9,360.4,400.2,360.2,399.3z M408.9,397.6c0-0.4,0.1-0.7,0.2-1l0,0c-0.2,0-0.3,0-0.5-0.1l0,0c-1-0.4-1.6-1.5-1.2-2.6
					l0,0l0,0l0,0c0.4-1,1.5-1.6,2.6-1.2l0,0c1,0.4,1.6,1.5,1.2,2.6l0,0c0,0.1-0.1,0.2-0.1,0.2l0,0c1,0.1,1.8,0.9,1.8,1.9l0,0
					c0,1.1-0.8,2-1.9,2.1l0,0c0,0-0.1,0-0.1,0l0,0C409.8,399.6,408.9,398.7,408.9,397.6z M376.1,395.3L376.1,395.3
					c-1-0.6-1.3-1.8-0.7-2.8l0,0c0.6-0.9,1.8-1.2,2.7-0.7l0,0c1,0.6,1.3,1.8,0.7,2.8l0,0c-0.4,0.6-1,1-1.7,1l0,0
					C376.8,395.6,376.4,395.5,376.1,395.3z M385.9,395.3c-1.1,0-2-1-1.9-2.1l0,0c0.1-1.1,1-1.9,2.1-1.9l0,0c1.1,0.1,2,1,1.9,2.1l0,0
					c0,1.1-0.9,1.9-2,1.9l0,0C386,395.3,386,395.3,385.9,395.3z M339.1,393C339.1,393,339.1,393,339.1,393L339.1,393
					c-0.7-0.8-0.7-2.1,0.1-2.8l0,0c0.8-0.8,2.1-0.7,2.8,0.1l0,0c0.8,0.8,0.7,2.1-0.1,2.8l0,0c-0.4,0.4-0.9,0.5-1.4,0.5l0,0
					C340.1,393.7,339.5,393.5,339.1,393z M348.5,392.3c-1-0.4-1.5-1.6-1-2.6l0,0c0.5-1,1.6-1.5,2.6-1l0,0c1,0.4,1.5,1.6,1,2.6l0,0
					l0,0l0,0c-0.3,0.7-1.1,1.2-1.8,1.2l0,0C349,392.4,348.8,392.4,348.5,392.3z M368.4,390.8c-1-0.5-1.3-1.8-0.8-2.7l0,0
					c0.5-1,1.8-1.3,2.7-0.8l0,0c1,0.5,1.3,1.8,0.8,2.7l0,0c-0.4,0.6-1,1-1.7,1l0,0C369,391.1,368.7,391,368.4,390.8z M322,389.8
					c-1.1-0.4-1.6-1.5-1.2-2.5l0,0c0.4-1.1,1.5-1.6,2.5-1.2l0,0c1,0.3,1.6,1.5,1.2,2.5l0,0c-0.3,0.8-1.1,1.4-1.9,1.4l0,0
					C322.4,389.9,322.2,389.9,322,389.8z M310.2,388c-1.1-0.2-1.8-1.2-1.6-2.3l0,0c0.2-1.1,1.2-1.8,2.3-1.6l0,0
					c1.1,0.2,1.8,1.2,1.6,2.3l0,0c-0.2,1-1,1.6-2,1.6l0,0C310.5,388,310.3,388,310.2,388z M411.2,387.9c-1.1-0.3-1.6-1.4-1.3-2.5
					l0,0c0.3-1.1,1.4-1.6,2.5-1.3l0,0c1,0.3,1.6,1.4,1.3,2.5l0,0c-0.3,0.9-1.1,1.4-1.9,1.4l0,0C411.6,388,411.4,388,411.2,387.9z
					 M427.3,386.3c-0.8-0.8-0.8-2,0-2.8l0,0c0.8-0.8,2-0.8,2.8,0l0,0l0,0l0,0c0.8,0.8,0.8,2,0,2.8l0,0c-0.4,0.4-0.9,0.6-1.4,0.6l0,0
					C428.2,386.8,427.7,386.6,427.3,386.3z M333.9,385c-0.4-1,0.1-2.2,1.1-2.6l0,0c1-0.4,2.2,0.1,2.6,1.1l0,0c0.4,1-0.1,2.2-1.1,2.6
					l0,0c-0.2,0.1-0.5,0.1-0.8,0.1l0,0C335,386.2,334.2,385.7,333.9,385z M352.1,384c-1-0.4-1.5-1.6-1.1-2.6h0
					c0.4-1,1.6-1.5,2.6-1.1l0,0c0.4,0.1,0.7,0.4,0.9,0.7l0,0c0.5-0.9,1.7-1.3,2.6-0.8l0,0c0,0,0,0,0,0l0,0c1,0.5,1.4,1.7,0.9,2.7
					l0,0c-0.5,1-1.7,1.4-2.7,0.9l0,0c-0.3-0.1-0.6-0.4-0.8-0.6l0,0c-0.4,0.6-1,1-1.7,1l0,0C352.6,384.2,352.3,384.1,352.1,384z
					 M325.3,381.5c-1-0.5-1.4-1.7-0.8-2.7l0,0c0.5-1,1.7-1.4,2.7-0.8l0,0c1,0.5,1.4,1.7,0.8,2.7l0,0c-0.4,0.7-1.1,1.1-1.8,1.1l0,0
					C326,381.8,325.6,381.7,325.3,381.5z M420.9,380.7L420.9,380.7c-0.9-0.6-1.2-1.8-0.7-2.8l0,0c0.6-0.9,1.8-1.2,2.8-0.7l0,0
					c0.9,0.6,1.2,1.8,0.7,2.8l0,0c-0.4,0.6-1,1-1.7,1l0,0C421.5,381,421.2,380.9,420.9,380.7z M382.8,379.1
					c-0.3-1.1,0.3-2.2,1.4-2.5l0,0c1.1-0.3,2.2,0.3,2.5,1.4l0,0c0.3,1.1-0.3,2.2-1.4,2.5l0,0c-0.2,0.1-0.4,0.1-0.5,0.1l0,0
					C383.8,380.5,383,379.9,382.8,379.1z M347.3,380.1c-1-0.5-1.5-1.6-1-2.6l0,0c0.4-1,1.6-1.5,2.6-1l0,0l0,0l0,0
					c1,0.4,1.5,1.6,1,2.6l0,0c-0.3,0.8-1.1,1.2-1.8,1.2l0,0C347.8,380.2,347.5,380.2,347.3,380.1z M312.3,379.3
					c-1-0.5-1.4-1.7-0.9-2.7l0,0l0,0l0,0c0.5-1,1.7-1.4,2.7-0.9l0,0c1,0.5,1.4,1.7,0.9,2.7l0,0c-0.3,0.7-1.1,1.1-1.8,1.1l0,0
					C312.8,379.5,312.5,379.4,312.3,379.3z M333.5,374.7c-1-0.3-1.6-1.5-1.3-2.5l0,0c0.3-1,1.5-1.6,2.5-1.3l0,0
					c1,0.3,1.6,1.5,1.3,2.5l0,0c-0.3,0.8-1.1,1.4-1.9,1.4l0,0C333.9,374.8,333.7,374.8,333.5,374.7z M325.3,372.9
					c-1.1-0.1-1.9-1.1-1.8-2.1l0,0c0.1-1.1,1-1.9,2.1-1.8l0,0c1.1,0.1,1.9,1.1,1.8,2.2l0,0c-0.1,1-0.9,1.8-2,1.8l0,0
					C325.4,372.9,325.3,372.9,325.3,372.9z M379.3,371.6c-0.7-0.9-0.5-2.1,0.4-2.8l0,0c0.9-0.7,2.1-0.5,2.8,0.4l0,0c0,0,0,0,0,0l0,0
					c0.6,0.9,0.5,2.1-0.4,2.8l0,0c-0.4,0.3-0.8,0.4-1.2,0.4l0,0C380.3,372.5,379.7,372.2,379.3,371.6z M335.9,371.7
					c-0.8-0.7-0.9-1.8-0.3-2.6l0,0c-0.7,0.5-1.7,0.4-2.4-0.2l0,0c-0.8-0.7-0.9-2-0.2-2.8l0,0c0.7-0.8,2-0.9,2.8-0.2l0,0
					c0.8,0.7,0.9,1.8,0.3,2.7l0,0c0.7-0.5,1.7-0.4,2.4,0.2l0,0c0.8,0.7,0.9,2,0.1,2.8l0,0c-0.4,0.4-0.9,0.7-1.5,0.7l0,0
					C336.8,372.2,336.3,372,335.9,371.7z M356.4,369.8c-1.1-0.1-1.9-1.1-1.8-2.2l0,0c0.1-1.1,1.1-1.9,2.2-1.8l0,0
					c1.1,0.1,1.9,1.1,1.8,2.2l0,0c-0.1,1-1,1.8-2,1.8l0,0C356.6,369.8,356.5,369.8,356.4,369.8z M342.9,366.2
					c-0.4-1,0.1-2.2,1.2-2.6l0,0c1-0.4,2.2,0.2,2.6,1.2l0,0c0.4,1-0.1,2.2-1.2,2.6l0,0c-0.2,0.1-0.5,0.1-0.7,0.1l0,0
					C344,367.5,343.2,367,342.9,366.2z M368,364.9L368,364.9c-1.1-0.2-1.8-1.2-1.6-2.3l0,0c0.2-1.1,1.2-1.8,2.3-1.6l0,0
					c1.1,0.2,1.8,1.2,1.6,2.3l0,0c-0.2,1-1,1.6-2,1.6l0,0C368.3,365,368.2,364.9,368,364.9z M357.5,362.8c-0.1-1.1,0.7-2.1,1.8-2.2
					l0,0c1.1-0.1,2.1,0.7,2.2,1.8l0,0c0.1,1.1-0.7,2.1-1.8,2.2l0,0c-0.1,0-0.1,0-0.2,0l0,0C358.4,364.6,357.6,363.9,357.5,362.8z
					 M339.5,362.4c-0.6-0.9-0.4-2.2,0.5-2.8l0,0l0,0l0,0c0.9-0.6,2.2-0.4,2.8,0.5l0,0c0.6,0.9,0.4,2.2-0.5,2.8l0,0
					c-0.3,0.2-0.7,0.4-1.1,0.4l0,0C340.5,363.3,339.9,363,339.5,362.4z M353.5,360.6c-0.8-0.8-0.8-2.1,0-2.8l0,0
					c0.8-0.8,2.1-0.8,2.8,0l0,0c0.8,0.8,0.8,2.1,0,2.8l0,0c-0.4,0.4-0.9,0.6-1.4,0.6l0,0C354.4,361.2,353.9,361,353.5,360.6z"/>
			</g>
			<g>
				<path fill="#0000FF" d="M436.7,399.4c-0.5,0-1-0.2-1.4-0.6c-0.4-0.4-0.6-0.9-0.6-1.4c0-0.5,0.2-1.1,0.6-1.4
					c0.7-0.7,2.1-0.7,2.8,0c0.4,0.4,0.6,0.9,0.6,1.4c0,0.5-0.2,1-0.6,1.4C437.7,399.2,437.2,399.4,436.7,399.4z"/>
			</g>
			<g>
				<path fill="#0000FF" d="M427.7,394.5c-0.8-0.7-0.9-2-0.2-2.8l0,0c0.7-0.8,2-0.9,2.8-0.2l0,0c0.8,0.7,0.9,2,0.2,2.8l0,0
					c-0.4,0.5-1,0.7-1.5,0.7l0,0C428.5,395,428,394.8,427.7,394.5z"/>
			</g>
			<g>
				<path fill="#0000FF" d="M382.3,473L382.3,473c-1.1-0.2-1.9-1.2-1.7-2.2l0,0c0.1-1.1,1.2-1.9,2.2-1.7l0,0
					c1.1,0.1,1.9,1.1,1.7,2.2l0,0c-0.1,1-1,1.7-2,1.7l0,0C382.5,473,382.4,473,382.3,473z M373.3,471c-1.1-0.3-1.7-1.4-1.4-2.5l0,0
					c0.3-1.1,1.4-1.7,2.5-1.4l0,0c1.1,0.3,1.7,1.4,1.4,2.5l0,0c-0.2,0.9-1,1.5-1.9,1.5l0,0C373.6,471.1,373.5,471.1,373.3,471z
					 M395.4,469.6c-0.5-1-0.1-2.2,0.9-2.7l0,0c1-0.5,2.2-0.1,2.7,0.9l0,0c0.5,1,0.1,2.2-0.8,2.7l0,0c-0.3,0.2-0.6,0.2-0.9,0.2l0,0
					C396.4,470.7,395.8,470.3,395.4,469.6z M358.9,465.9L358.9,465.9c-1-0.4-1.5-1.6-1.1-2.6l0,0c0.4-1,1.6-1.5,2.6-1.1l0,0l0,0l0,0
					c1,0.4,1.5,1.6,1.1,2.6l0,0c-0.3,0.8-1.1,1.2-1.9,1.2l0,0C359.4,466.1,359.2,466,358.9,465.9z M402.9,464.7
					c-0.8-0.8-0.8-2-0.1-2.8l0,0c0.8-0.8,2-0.8,2.8-0.1l0,0c0.8,0.8,0.8,2,0.1,2.8l0,0c-0.4,0.4-0.9,0.6-1.5,0.6l0,0
					C403.8,465.2,403.3,465.1,402.9,464.7z M292.8,463.9c-0.5-1-0.1-2.2,0.8-2.7l0,0c1-0.5,2.2-0.1,2.7,0.8l0,0
					c0.5,1,0.1,2.2-0.9,2.7l0,0c0,0,0,0,0,0l0,0c-0.3,0.1-0.6,0.2-0.9,0.2l0,0C293.8,465,293.1,464.6,292.8,463.9z M350.6,462.4
					c-1-0.5-1.5-1.6-1-2.6l0,0c0.4-1,1.6-1.5,2.6-1l0,0c1,0.5,1.5,1.6,1,2.6l0,0c-0.3,0.8-1.1,1.2-1.8,1.2l0,0
					C351.1,462.6,350.8,462.5,350.6,462.4z M299.4,458c-0.9-0.7-1.1-1.9-0.5-2.8l0,0c0.6-0.9,1.9-1.1,2.8-0.5l0,0
					c0.9,0.6,1.1,1.9,0.5,2.8l0,0l0,0l0,0c-0.4,0.5-1,0.8-1.6,0.8l0,0C300.2,458.4,299.8,458.3,299.4,458z M336.6,455.5
					c-1.1,0-2-0.9-2-2l0,0c0-1.1,0.9-2,2-2l0,0c0.1,0,0.2,0,0.4,0l0,0c0,0,0.1-0.1,0.1-0.1l0,0c0.8-0.8,2-0.9,2.8-0.1l0,0
					c0.8,0.8,0.9,2,0.1,2.8l0,0c-0.5,0.5-1.2,0.7-1.9,0.6l0,0C337.8,455.2,337.3,455.5,336.6,455.5L336.6,455.5
					C336.6,455.5,336.6,455.5,336.6,455.5z M343.7,453.3c-0.1-1.1,0.7-2.1,1.8-2.2l0,0c1.1-0.1,2.1,0.7,2.2,1.8l0,0
					c0.1,1.1-0.7,2.1-1.8,2.2l0,0c-0.1,0-0.1,0-0.2,0l0,0C344.6,455.1,343.8,454.3,343.7,453.3z M321.4,453.2
					c-1.1-0.2-1.8-1.3-1.5-2.4l0,0c0.2-1.1,1.3-1.8,2.4-1.5l0,0c1.1,0.2,1.8,1.3,1.5,2.4l0,0c-0.2,0.9-1,1.5-2,1.5l0,0
					C321.7,453.2,321.6,453.2,321.4,453.2z M358.5,451.1c-0.2-1.1,0.4-2.1,1.5-2.4l0,0c1.1-0.2,2.1,0.4,2.4,1.5l0,0
					c0.2,1.1-0.4,2.2-1.5,2.4l0,0c0,0,0,0,0,0l0,0c-0.1,0-0.3,0.1-0.4,0.1l0,0C359.5,452.6,358.7,452,358.5,451.1z M410.6,452
					c-1.1-0.1-1.9-1.1-1.8-2.2l0,0l0,0l0,0c0.1-1.1,1.1-1.9,2.2-1.8l0,0c1.1,0.1,1.9,1.1,1.8,2.2l0,0c-0.1,1-1,1.8-2,1.8l0,0
					C410.7,452,410.7,452,410.6,452z M312.9,451.8L312.9,451.8L312.9,451.8c-1.1-0.1-1.9-1-1.9-2.1l0,0c0.1-1.1,1-2,2.1-1.9l0,0
					c1.1,0.1,2,1,1.9,2.1l0,0c0,1.1-0.9,1.9-2,1.9l0,0C313,451.8,312.9,451.8,312.9,451.8z M367.2,449c-0.2-1.1,0.5-2.2,1.5-2.4l0,0
					c1.1-0.2,2.1,0.5,2.4,1.5l0,0c0.2,1.1-0.5,2.1-1.5,2.4l0,0c0,0,0,0,0,0l0,0c-0.1,0-0.3,0.1-0.4,0.1l0,0
					C368.3,450.6,367.5,450,367.2,449z M331.9,445.9c-0.3-1.1,0.4-2.2,1.4-2.4l0,0c1.1-0.3,2.2,0.3,2.4,1.4l0,0
					c0.3,1.1-0.4,2.2-1.4,2.4l0,0c-0.2,0-0.3,0.1-0.5,0.1l0,0C332.9,447.3,332.1,446.8,331.9,445.9z M381.8,445.5
					c-0.4-1,0.2-2.2,1.2-2.5v0c1-0.4,2.2,0.2,2.5,1.2l0,0c0.4,1-0.2,2.2-1.2,2.5l0,0l0,0l0,0c-0.2,0.1-0.4,0.1-0.6,0.1l0,0
					C382.9,446.8,382.1,446.3,381.8,445.5z M318.8,443.4c-0.3-1.1,0.4-2.1,1.5-2.4l0,0c1.1-0.3,2.2,0.4,2.4,1.5l0,0
					c0.3,1.1-0.4,2.2-1.5,2.4l0,0c-0.2,0-0.3,0.1-0.5,0.1l0,0C319.9,444.9,319.1,444.3,318.8,443.4z M305.4,444.7
					c-1.1-0.3-1.7-1.4-1.4-2.5l0,0c0.3-1.1,1.4-1.7,2.4-1.4l0,0c1.1,0.3,1.7,1.4,1.4,2.4l0,0c-0.2,0.9-1,1.5-1.9,1.5l0,0
					C305.8,444.7,305.6,444.7,305.4,444.7z M406.2,444.3L406.2,444.3L406.2,444.3c-1-0.5-1.4-1.7-1-2.7l0,0c0.5-1,1.7-1.4,2.7-1l0,0
					c1,0.5,1.4,1.7,0.9,2.7l0,0c-0.3,0.7-1.1,1.1-1.8,1.1l0,0C406.8,444.5,406.5,444.5,406.2,444.3z M390.4,442.6
					c-0.2-1.1,0.4-2.1,1.5-2.4l0,0c1.1-0.2,2.1,0.4,2.4,1.5l0,0c0.2,1.1-0.4,2.1-1.5,2.4l0,0l0,0l0,0c-0.2,0-0.3,0-0.4,0l0,0
					C391.4,444.2,390.6,443.5,390.4,442.6z M327.3,440.4c-0.6-0.9-0.4-2.2,0.6-2.8l0,0c0.9-0.6,2.2-0.4,2.8,0.5l0,0
					c0.6,0.9,0.4,2.2-0.6,2.8l0,0c-0.3,0.2-0.7,0.3-1.1,0.3l0,0C328.4,441.3,327.7,441,327.3,440.4z M296.6,440.9
					c-0.9-0.6-1.2-1.8-0.6-2.8l0,0c0.6-0.9,1.8-1.2,2.8-0.6l0,0c0.9,0.6,1.2,1.8,0.6,2.8l0,0c-0.4,0.6-1,1-1.7,1l0,0
					C297.3,441.2,297,441.1,296.6,440.9z M334.3,432.5c-1.1-0.3-1.7-1.3-1.5-2.4l0,0c0.3-1.1,1.3-1.7,2.4-1.5l0,0
					c1.1,0.3,1.7,1.3,1.5,2.4l0,0l0,0l0,0c-0.2,0.9-1,1.5-1.9,1.5l0,0C334.6,432.5,334.5,432.5,334.3,432.5z M285.6,429.6
					L285.6,429.6L285.6,429.6c-0.6-1-0.2-2.2,0.7-2.7l0,0c0.9-0.6,2.2-0.2,2.7,0.7l0,0c0.6,1,0.2,2.2-0.7,2.7l0,0
					c-0.3,0.2-0.7,0.3-1,0.3l0,0C286.6,430.5,286,430.2,285.6,429.6z M337.9,430c-0.9-0.6-1.3-1.8-0.7-2.7l0,0
					c0.6-1,1.8-1.3,2.7-0.7l0,0c1,0.6,1.3,1.8,0.7,2.7l0,0l0,0l0,0c-0.4,0.6-1,1-1.7,1l0,0C338.6,430.2,338.2,430.2,337.9,430z
					 M336.4,423.7c-1.1-0.3-1.7-1.4-1.4-2.4l0,0c0.3-1.1,1.4-1.7,2.4-1.4l0,0c1.1,0.3,1.7,1.4,1.4,2.4l0,0c-0.2,0.9-1,1.5-1.9,1.5
					l0,0C336.8,423.8,336.6,423.8,336.4,423.7z M282,420.7c-0.3-1.1,0.4-2.2,1.5-2.4l0,0c1.1-0.3,2.2,0.4,2.4,1.5l0,0
					c0.3,1.1-0.4,2.2-1.4,2.4l0,0c-0.2,0-0.3,0.1-0.5,0.1l0,0C283,422.2,282.2,421.6,282,420.7z M342.2,422c-1-0.4-1.5-1.6-1-2.6
					l0,0c0.4-1,1.6-1.5,2.6-1.1l0,0c1,0.4,1.5,1.6,1,2.6l0,0c-0.3,0.8-1.1,1.2-1.8,1.2l0,0C342.7,422.2,342.4,422.1,342.2,422z
					 M339.9,409.1c-1.1-0.1-1.9-1.1-1.8-2.2l0,0c0.1-1.1,1.1-1.9,2.2-1.8l0,0c1.1,0.1,1.9,1.1,1.8,2.2l0,0c-0.1,1-1,1.8-2,1.8l0,0
					C340,409.1,340,409.1,339.9,409.1z M347.6,408c-1-0.4-1.6-1.5-1.2-2.6l0,0c0.4-1,1.5-1.6,2.6-1.2l0,0c1,0.4,1.6,1.5,1.2,2.6l0,0
					c-0.3,0.8-1.1,1.3-1.9,1.3l0,0C348,408.2,347.8,408.1,347.6,408z M283.5,407.3c-1.1-0.3-1.7-1.4-1.4-2.5l0,0
					c0.3-1.1,1.4-1.7,2.5-1.4l0,0c1.1,0.3,1.7,1.4,1.4,2.5l0,0c-0.2,0.9-1.1,1.5-1.9,1.5l0,0C283.9,407.4,283.7,407.4,283.5,407.3z
					 M337.7,398.6L337.7,398.6c-0.2-1.1,0.4-2.2,1.5-2.4l0,0c1.1-0.3,2.1,0.4,2.4,1.5l0,0l0,0l0,0c0.3,1.1-0.4,2.1-1.5,2.4l0,0
					c-0.1,0-0.3,0-0.5,0l0,0C338.8,400.2,337.9,399.6,337.7,398.6z M350.8,399.6c-1-0.4-1.5-1.6-1.1-2.6l0,0c0.4-1,1.6-1.5,2.6-1.1
					l0,0c1,0.4,1.5,1.6,1.1,2.6l0,0l0,0l0,0c-0.3,0.8-1.1,1.3-1.9,1.3l0,0C351.3,399.8,351.1,399.7,350.8,399.6z M286.7,399
					c-0.9-0.6-1.1-1.9-0.5-2.8l0,0c0.6-0.9,1.9-1.1,2.8-0.5l0,0c0.9,0.6,1.1,1.9,0.5,2.8l0,0c-0.4,0.5-1,0.8-1.6,0.8l0,0
					C287.5,399.3,287.1,399.2,286.7,399z M297.5,388.7c-0.5-1-0.1-2.2,0.9-2.7l0,0c1-0.5,2.2-0.1,2.7,0.9l0,0c0.5,1,0.1,2.2-0.9,2.7
					l0,0c-0.3,0.1-0.6,0.2-0.9,0.2l0,0C298.6,389.8,297.9,389.4,297.5,388.7z M330,388.1L330,388.1c-1-0.6-1.3-1.8-0.7-2.7l0,0
					c0.6-1,1.8-1.3,2.7-0.7l0,0l0,0l0,0c1,0.6,1.3,1.8,0.7,2.7l0,0c-0.4,0.6-1,1-1.7,1l0,0C330.7,388.4,330.4,388.3,330,388.1z
					 M305.8,385.2c-0.3-1.1,0.4-2.2,1.4-2.5l0,0c1.1-0.3,2.2,0.4,2.4,1.4l0,0c0.3,1.1-0.3,2.2-1.4,2.4l0,0c-0.2,0-0.3,0.1-0.5,0.1
					l0,0C306.8,386.7,306,386.1,305.8,385.2z M356.5,385.8c-1-0.5-1.4-1.6-1-2.7l0,0c0.5-1,1.7-1.4,2.7-1l0,0c1,0.5,1.4,1.6,1,2.7
					l0,0l0,0l0,0c-0.3,0.7-1.1,1.2-1.8,1.2l0,0C357.1,385.9,356.8,385.9,356.5,385.8z M322.3,385.5L322.3,385.5
					c-1.1-0.2-1.9-1.2-1.7-2.3l0,0c0.2-1.1,1.2-1.9,2.3-1.7l0,0c1.1,0.2,1.9,1.2,1.7,2.3l0,0c-0.1,1-1,1.7-2,1.7l0,0
					C322.5,385.6,322.4,385.5,322.3,385.5z M417.1,383.6L417.1,383.6L417.1,383.6c-0.8-0.8-0.8-2,0-2.8l0,0c0.8-0.8,2-0.8,2.8,0l0,0
					c0.8,0.8,0.8,2,0,2.8l0,0c-0.4,0.4-0.9,0.6-1.4,0.6l0,0C418,384.2,417.5,384,417.1,383.6z M360.5,377.7c-1-0.6-1.3-1.8-0.7-2.7
					l0,0c0.6-1,1.8-1.3,2.7-0.7l0,0c1,0.6,1.3,1.8,0.7,2.7l0,0l0,0l0,0c-0.4,0.6-1.1,1-1.7,1l0,0
					C361.2,377.9,360.8,377.9,360.5,377.7z M410.7,377.3L410.7,377.3L410.7,377.3c-0.8-0.8-0.8-2,0-2.8l0,0c0.8-0.8,2-0.8,2.8,0l0,0
					c0.8,0.8,0.8,2,0,2.8l0,0c-0.4,0.4-0.9,0.6-1.4,0.6l0,0C411.6,377.9,411.1,377.7,410.7,377.3z M399.7,367.7
					c-0.9-0.6-1.1-1.9-0.5-2.8l0,0c0.6-0.9,1.9-1.1,2.8-0.5l0,0c0.9,0.6,1.1,1.9,0.5,2.8l0,0c-0.4,0.6-1,0.9-1.6,0.9l0,0
					C400.4,368,400,367.9,399.7,367.7z M369.2,365.5c-0.7-0.8-0.6-2.1,0.2-2.8l0,0c0.8-0.7,2.1-0.6,2.8,0.2l0,0
					c0.7,0.8,0.6,2.1-0.2,2.8l0,0c-0.4,0.3-0.9,0.5-1.3,0.5l0,0C370.2,366.2,369.6,366,369.2,365.5z M392.2,363.4
					c-1-0.5-1.5-1.6-1-2.6l0,0c0.5-1,1.6-1.5,2.6-1l0,0c1,0.4,1.5,1.6,1,2.6l0,0c-0.3,0.7-1.1,1.2-1.8,1.2l0,0
					C392.8,363.6,392.5,363.5,392.2,363.4z M376.6,360.3c-0.3-1.1,0.3-2.2,1.4-2.5l0,0c1-0.3,2.2,0.3,2.5,1.4l0,0
					c0.3,1.1-0.3,2.2-1.3,2.5l0,0c-0.2,0.1-0.4,0.1-0.6,0.1l0,0C377.6,361.7,376.8,361.1,376.6,360.3z"/>
			</g>
			<g>
				<path fill="#0000FF" d="M279.6,467c-0.5,0-1-0.2-1.4-0.6c-0.4-0.4-0.6-0.9-0.6-1.4c0-0.5,0.2-1,0.6-1.4c0.7-0.7,2.1-0.7,2.8,0
					c0.4,0.4,0.6,0.9,0.6,1.4c0,0.5-0.2,1.1-0.6,1.4C280.6,466.7,280.1,467,279.6,467z"/>
			</g>
		</g>
	</g>
</g>
<path fill="none" stroke="#009245" stroke-width="0.75" stroke-miterlimit="10" d="M347.7,452.5c10.9-0.3,20.9,5,31.5,6.3
	c12,1.5,22.7-4.3,34.7-5c5.7-0.3,10.5,0.2,16,2.9c8.8,4.4,5-3.8,6.8,0.3c1.7,3.9,42.6,21,61.8,13.3"/>
<g>
	<g>
		<path fill="#0000FF" stroke="#2E3192" stroke-width="5" stroke-miterlimit="10" stroke-dasharray="0,4,0,1" d="M349.8,454.6
			c-0.5,0-1-0.2-1.4-0.6c-0.4-0.4-0.6-0.9-0.6-1.4c0-0.5,0.2-1,0.6-1.4c0.8-0.8,2.1-0.7,2.8,0c0.4,0.4,0.6,0.9,0.6,1.4
			c0,0.5-0.2,1-0.6,1.4C350.8,454.4,350.3,454.6,349.8,454.6z"/>
	</g>
	<g>
		<path fill="#0000FF" stroke="#2E3192" stroke-width="5" stroke-miterlimit="10" stroke-dasharray="0,4,0,1" d="M388.1,459
			c-0.1-1.1,0.7-2.1,1.8-2.2l0,0c1.1-0.1,2.1,0.7,2.2,1.8l0,0c0.1,1.1-0.7,2.1-1.8,2.2l0,0c-0.1,0-0.2,0-0.2,0l0,0
			C389.1,460.8,388.2,460.1,388.1,459z M379.5,460.6L379.5,460.6c-1.1-0.2-1.8-1.2-1.7-2.3l0,0c0.2-1.1,1.2-1.8,2.3-1.7l0,0
			c0,0,0,0,0,0l0,0c1.1,0.2,1.8,1.2,1.7,2.3l0,0c-0.1,1-1,1.7-2,1.7l0,0C379.7,460.7,379.6,460.7,379.5,460.6z M398.2,457.3
			c-0.3-1.1,0.4-2.2,1.5-2.4l0,0l0,0l0,0c1.1-0.3,2.2,0.4,2.4,1.5l0,0c0.3,1.1-0.4,2.2-1.5,2.4l0,0c-0.2,0-0.3,0.1-0.5,0.1l0,0
			C399.2,458.8,398.4,458.2,398.2,457.3z M429.2,458.5c-1-0.5-1.4-1.7-0.8-2.7l0,0c0.5-1,1.7-1.4,2.7-0.9l0,0c1,0.5,1.4,1.7,0.8,2.7
			l0,0c-0.4,0.7-1,1.1-1.8,1.1l0,0C429.8,458.8,429.5,458.7,429.2,458.5z M369.3,458.3L369.3,458.3c-1.1-0.3-1.7-1.4-1.4-2.5l0,0
			c0.3-1.1,1.4-1.7,2.5-1.4l0,0c1.1,0.3,1.7,1.4,1.4,2.5l0,0c-0.2,0.9-1.1,1.5-1.9,1.5l0,0C369.7,458.3,369.5,458.3,369.3,458.3z
			 M408.2,454.9c-0.2-1.1,0.5-2.1,1.6-2.3l0,0c1.1-0.2,2.1,0.5,2.3,1.6l0,0c0.2,1.1-0.5,2.1-1.6,2.3l0,0c-0.1,0-0.2,0-0.3,0l0,0
			C409.2,456.6,408.3,455.9,408.2,454.9z M420.2,455.9c-1.1-0.1-1.9-1.1-1.8-2.2l0,0c0.1-1.1,1.1-1.9,2.2-1.8l0,0
			c1.1,0.1,1.9,1.1,1.8,2.2l0,0c-0.1,1-1,1.8-2,1.8l0,0C420.3,455.9,420.2,455.9,420.2,455.9z M359.5,455.6
			c-1.1-0.2-1.8-1.3-1.5-2.4l0,0c0.2-1.1,1.3-1.8,2.4-1.5l0,0c0,0,0,0,0,0l0,0c1.1,0.2,1.8,1.3,1.5,2.4l0,0c-0.2,0.9-1,1.6-2,1.6
			l0,0C359.8,455.7,359.6,455.7,359.5,455.6z"/>
	</g>
</g>
<g>
	<g>
		<path fill="#C1272D" stroke="#C1272D" stroke-width="3" stroke-miterlimit="10" stroke-dasharray="0,1" d="M355.2,455.1
			c-0.5,0-1-0.2-1.4-0.6c-0.4-0.4-0.6-0.9-0.6-1.4c0-0.5,0.2-1,0.6-1.4c0.8-0.8,2.1-0.7,2.8,0c0.4,0.4,0.6,0.9,0.6,1.4
			c0,0.5-0.2,1-0.6,1.4C356.3,454.9,355.7,455.1,355.2,455.1z"/>
	</g>
	<g>
		<g>
			<path fill="#C1272D" d="M393.5,459.6c-0.1-1.1,0.7-2.1,1.8-2.2l0,0c1.1-0.1,2.1,0.7,2.2,1.8l0,0c0.1,1.1-0.7,2.1-1.8,2.2l0,0
				c-0.1,0-0.2,0-0.2,0l0,0C394.5,461.3,393.7,460.6,393.5,459.6z M385,461.2L385,461.2c-1.1-0.2-1.8-1.2-1.7-2.3l0,0
				c0.2-1.1,1.2-1.8,2.3-1.7l0,0c0,0,0,0,0,0l0,0c1.1,0.2,1.8,1.2,1.7,2.3l0,0c-0.1,1-1,1.7-2,1.7l0,0
				C385.2,461.2,385.1,461.2,385,461.2z M403.7,457.8c-0.3-1.1,0.4-2.2,1.5-2.4l0,0l0,0l0,0c1.1-0.3,2.2,0.4,2.4,1.5l0,0
				c0.3,1.1-0.4,2.2-1.5,2.4l0,0c-0.2,0-0.3,0.1-0.5,0.1l0,0C404.7,459.4,403.9,458.8,403.7,457.8z M434.7,459.1
				c-1-0.5-1.4-1.7-0.8-2.7l0,0c0.5-1,1.7-1.4,2.7-0.9l0,0c1,0.5,1.4,1.7,0.8,2.7l0,0c-0.4,0.7-1,1.1-1.8,1.1l0,0
				C435.3,459.3,435,459.2,434.7,459.1z M374.8,458.8L374.8,458.8c-1.1-0.3-1.7-1.4-1.4-2.5l0,0c0.3-1.1,1.4-1.7,2.5-1.4l0,0
				c1.1,0.3,1.7,1.4,1.4,2.5l0,0c-0.2,0.9-1.1,1.5-1.9,1.5l0,0C375.1,458.9,375,458.9,374.8,458.8z M413.6,455.5
				c-0.2-1.1,0.5-2.1,1.6-2.3l0,0c1.1-0.2,2.1,0.5,2.3,1.6l0,0c0.2,1.1-0.5,2.1-1.6,2.3l0,0c-0.1,0-0.2,0-0.3,0l0,0
				C414.7,457.1,413.8,456.4,413.6,455.5z M425.6,456.4c-1.1-0.1-1.9-1.1-1.8-2.2l0,0c0.1-1.1,1.1-1.9,2.2-1.8l0,0
				c1.1,0.1,1.9,1.1,1.8,2.2l0,0c-0.1,1-1,1.8-2,1.8l0,0C425.8,456.5,425.7,456.5,425.6,456.4z M365,456.2c-1.1-0.2-1.8-1.3-1.5-2.4
				l0,0c0.2-1.1,1.3-1.8,2.4-1.5l0,0c0,0,0,0,0,0l0,0c1.1,0.2,1.8,1.3,1.5,2.4l0,0c-0.2,0.9-1,1.6-2,1.6l0,0
				C365.3,456.2,365.1,456.2,365,456.2z"/>
			<path fill="#C1272D" d="M395.5,459.8l-0.5,3C395.5,459.8,395,462.8,395.5,459.8z M385.4,459.7L385.4,459.7l0.4,3
				C385.4,459.7,385.8,462.7,385.4,459.7z M395.7,459.8l1,2.8C395.7,459.8,396.7,462.6,395.7,459.8z M395.2,459.7l-1.8,2.4
				C395.2,459.7,393.4,462.1,395.2,459.7z M385.6,459.6l1.8,2.4C385.6,459.6,387.4,462,385.6,459.6z M383.2,462l1.3-1.7L383.2,462
				L383.2,462z M395.9,459.7l2.2,2c0,0,0,0,0,0l0,0C395.9,459.7,398.1,461.7,395.9,459.7z M405.6,457.9l-0.1,3
				C405.6,457.9,405.4,460.9,405.6,457.9z M392.3,460.7l1.4-0.6L392.3,460.7C392.3,460.7,392.3,460.7,392.3,460.7z M435.5,457.8
				l-0.6,2.9C435.5,457.8,434.9,460.7,435.5,457.8z M385.8,459.4l2.7,1.3C385.8,459.4,388.5,460.7,385.8,459.4z M384.8,459.4
				L384.8,459.4l-2.7,1.2C384.8,459.4,382.1,460.6,384.8,459.4z M435.8,457.8l0.9,2.9C435.8,457.8,436.7,460.6,435.8,457.8z
				 M405.8,457.8l1.3,2.7l0,0l0,0C405.8,457.8,407.1,460.5,405.8,457.8z M434,460.4l0.5-0.9L434,460.4L434,460.4z M375.4,460.4
				l-0.1-3L375.4,460.4L375.4,460.4z M403.8,460.3l1.6-2.6L403.8,460.3L403.8,460.3z M385,459.6L385,459.6l-0.5,0.7
				C385,459.6,384.5,460.3,385,459.6z M396,459.5l2.9,0.7C396,459.5,398.9,460.2,396,459.5z M395.1,459.5L395.1,459.5l-1.4,0.6
				C395.1,459.5,393.7,460.1,395.1,459.5z M375.6,457.3l1.5,2.6C375.6,457.3,377,459.9,375.6,457.3z M392.1,459.8l2.7-0.3
				L392.1,459.8L392.1,459.8z M437.1,458.7l1.1,1l0,0l0,0C437.1,458.7,438.1,459.7,437.1,458.7z M435.4,457.7v1l-0.9,1.8
				C435.4,457.7,434.5,459.5,435.4,457.7z M395,459.4L395,459.4l-0.3,0C395,459.4,394.8,459.4,395,459.4z M406,457.6L406,457.6
				l2.4,1.8C406,457.6,408.5,459.4,406,457.6z M373.9,458.3l-1,1.1c0,0,0,0,0,0l0,0C373.9,458.3,372.9,459.4,373.9,458.3z
				 M435.2,457.6l-2.5,1.7C435.2,457.6,432.7,459.2,435.2,457.6z M396,459.2l1.5-0.4L396,459.2z M385.8,459.2l1.5-0.1L385.8,459.2z
				 M381.8,458.9l3,0.2C381.8,458.9,384.8,459.2,381.8,458.9z M392.3,458l2.8,1.1C392.3,458,395.1,459.1,392.3,458z M402.6,459.1
				l2.6-1.5L402.6,459.1L402.6,459.1z M388.8,459L388.8,459l-1.5,0.1C388.8,459,387.3,459.1,388.8,459z M398.1,456.9l-2.2,2.1
				C398.1,456.9,395.9,459,398.1,456.9z M393.3,456.6l1.9,2.3C393.3,456.6,395.2,459,393.3,456.6z M382.4,457.3l2.5,1.6l0,0
				C382.4,457.3,384.9,458.9,382.4,457.3z M385.7,458.9l2.5-1.6L385.7,458.9z M396.6,456L396.6,456l-0.9,2.9
				C396.6,456,395.7,458.9,396.6,456z M394.9,455.9l0.6,3C394.9,455.9,395.4,458.8,394.9,455.9z M398.9,458.4L398.9,458.4l-1.5,0.4
				C398.9,458.4,397.5,458.8,398.9,458.4z M385.5,458.8l0.7-1.3L385.5,458.8C385.5,458.8,385.6,458.8,385.5,458.8z M383.6,456.1
				l1.4,2.6C383.6,456.1,385.1,458.8,383.6,456.1z M378.3,458.7l-1.3-0.8L378.3,458.7L378.3,458.7z M385.3,458.7v-3V458.7z
				 M436,457.6L436,457.6l1.1,1C436,457.6,437.1,458.7,436,457.6z M415.2,458.6l0.2-1.5L415.2,458.6L415.2,458.6z M416.9,458.3
				l-0.6-1.4L416.9,458.3L416.9,458.3z M375,457.2L375,457.2l-1,1.1C375,457.2,373.9,458.3,375,457.2z M436.1,457.4l2.9,0.8
				C436.1,457.4,439,458.2,436.1,457.4z M402.2,458.2l2.9-0.7L402.2,458.2L402.2,458.2z M413.6,458l0.9-1.2L413.6,458L413.6,458z
				 M425.5,457.9l0.1-1.5L425.5,457.9C425.5,457.9,425.5,457.9,425.5,457.9z M375.8,457.1L375.8,457.1l1.3,0.8
				C375.8,457.1,377,457.9,375.8,457.1z M372,457.9l2.9-0.9L372,457.9L372,457.9z M425.9,454.9l0.6,3
				C425.9,454.9,426.5,457.9,425.9,454.9z M409.1,457.8l-3-0.4L409.1,457.8L409.1,457.8z M365.4,454.7l0.2,3
				C365.4,454.7,365.7,457.7,365.4,454.7z M365.3,454.7L365.3,454.7l-0.6,2.9C365.3,454.7,364.7,457.6,365.3,454.7z M435.1,457.3
				l-3,0.3C435.1,457.3,432.1,457.6,435.1,457.3z M387,456.1C387,456.1,387,456.1,387,456.1l-0.7,1.3
				C387,456.1,386.3,457.5,387,456.1z M425.5,454.9L425.5,454.9l-1.7,2.5C425.5,454.9,423.9,457.4,425.5,454.9z M416,455.4l2.3,1.9
				C416,455.4,418.3,457.3,416,455.4z M402.2,456.5L402.2,456.5l2.9,0.8C402.2,456.5,405.1,457.2,402.2,456.5z M408.8,456.1
				l-2.8,1.1C408.8,456.1,406.1,457.2,408.8,456.1z M439,456.5l-2.9,0.7C439,456.5,436.1,457.2,439,456.5z M365.7,454.6l1.6,2.5l0,0
				l0,0C365.7,454.6,367.3,457.2,365.7,454.6z M426.1,454.8L426.1,454.8l1.9,2.3C426.1,454.8,428.1,457.1,426.1,454.8z M432.4,455.9
				l2.7,1.2C432.4,455.9,435.2,457.1,432.4,455.9z M415.6,455.6L415.6,455.6l-0.2,1.5C415.6,455.6,415.4,457.1,415.6,455.6z
				 M375.8,456.9l3,0.2C375.8,456.9,378.8,457.1,375.8,456.9z M403.1,454.9l2.2,2.1C403.1,454.9,405.2,457,403.1,454.9z
				 M407.8,454.7L407.8,454.7l-1.9,2.3C407.8,454.7,405.9,457,407.8,454.7z M436,457l1.1-1L436,457z M415.8,455.6L415.8,455.6
				l0.6,1.4C415.8,455.6,416.4,457,415.8,455.6z M435.3,456.9l-1.8-2.4L435.3,456.9z M404.5,454L404.5,454l0.9,2.9
				C404.5,454,405.4,456.9,404.5,454z M365.1,454.6l-2,2.3C365.1,454.6,363.1,456.9,365.1,454.6z M406,455.4l-0.3,1.5
				C406,455.4,405.7,456.9,406,455.4z M435.8,456.8l1-2.8L435.8,456.8z M373.4,456.5l1.5,0.3C373.4,456.5,374.8,456.8,373.4,456.5z
				 M435.1,453.8l0.5,3C435.1,453.8,435.5,456.8,435.1,453.8z M415.3,455.5L415.3,455.5l-0.9,1.2
				C415.3,455.5,414.5,456.7,415.3,455.5z M375.8,456.7l1.4-0.7L375.8,456.7z M415.2,455.3l-2.7,1.3
				C415.2,455.3,412.5,456.6,415.2,455.3z M372.6,454.6l2.3,1.9C372.6,454.6,374.9,456.5,372.6,454.6z M375.6,456.5l1.8-2.4
				L375.6,456.5z M371.9,456.1L371.9,456.1l1.5,0.3C371.9,456.1,373.4,456.5,371.9,456.1z M425.8,455L425.8,455l-0.1,1.5
				C425.8,455,425.6,456.4,425.8,455z M374,453.6L374,453.6l1.1,2.8C374,453.6,375.1,456.4,374,453.6z M375.8,453.4l-0.4,3
				C375.8,453.4,375.4,456.4,375.8,453.4z M422.7,456.1l2.7-1.4L422.7,456.1C422.7,456.1,422.7,456.1,422.7,456.1z M378.5,455.4
				L378.5,455.4l-1.3,0.6C378.5,455.4,377.1,456,378.5,455.4z M438.2,455L438.2,455l-1.1,1C438.2,455,437.1,456,438.2,455z
				 M365.8,454.5L365.8,454.5l2.6,1.4C365.8,454.5,368.5,455.9,365.8,454.5z M429.1,455.7l-1.4-0.6L429.1,455.7L429.1,455.7z
				 M416.1,455.2L416.1,455.2l3,0.6C416.1,455.2,419.1,455.7,416.1,455.2z M412.2,455.7l1.6-0.3L412.2,455.7L412.2,455.7z
				 M362.1,455.5l2.8-1.1L362.1,455.5C362.1,455.5,362.1,455.5,362.1,455.5z M415.1,455.2L415.1,455.2l-1.4,0.2
				C415.1,455.2,413.8,455.4,415.1,455.2z M406.3,453.9C406.3,453.9,406.3,453.9,406.3,453.9l-0.3,1.5
				C406.3,453.9,406,455.4,406.3,453.9z M426.3,454.6L426.3,454.6l1.4,0.5C426.3,454.6,427.7,455.2,426.3,454.6z M416.1,455l1.4-0.5
				L416.1,455z M412.3,454l2.8,0.9C412.3,454,415.1,454.9,412.3,454z M418,452.5l-2,2.2C418,452.5,416,454.7,418,452.5z
				 M413.2,452.5l2,2.2C413.2,452.5,415.3,454.7,413.2,452.5z M416.5,451.7l-0.8,2.9C416.5,451.7,415.7,454.6,416.5,451.7z
				 M414.8,451.7l0.7,2.9C414.8,451.7,415.5,454.6,414.8,451.7z M418.9,454C418.9,454,418.9,454,418.9,454l-1.4,0.5
				C418.9,454,417.5,454.5,418.9,454z M422.3,454.4l3,0C422.3,454.4,425.3,454.4,422.3,454.4z M429.3,454L429.3,454l-3,0.4
				C429.3,454,426.3,454.4,429.3,454z M368.9,454.2L368.9,454.2l-3,0C368.9,454.2,365.9,454.2,368.9,454.2z M425.4,454.2l-2.6-1.5
				L425.4,454.2z M361.9,453.7l3,0.5C361.9,453.7,364.9,454.2,361.9,453.7z M426.2,454.2l2.4-1.8L426.2,454.2z M425.6,454l-1.6-2.5
				l0,0L425.6,454z M426,454l0.6-1.4L426,454C426,454,426,454,426,454z M368.5,452.5L368.5,452.5l-2.6,1.5
				C368.5,452.5,365.8,454,368.5,452.5z M425.8,454l-0.1-1.5L425.8,454z M363.8,453l1.2,0.9C363.8,453,365,453.9,363.8,453z
				 M367.3,451.3C367.3,451.3,367.3,451.3,367.3,451.3l-1.6,2.5C367.3,451.3,365.7,453.8,367.3,451.3z M363.9,451
				C363.9,451,363.9,451,363.9,451l1.2,2.7C363.9,451,365.2,453.8,363.9,451z M365.6,450.7l-0.2,3
				C365.6,450.7,365.4,453.7,365.6,450.7z M362.6,452.1L362.6,452.1l1.2,0.9C362.6,452.1,363.8,453,362.6,452.1z M427.3,451.3
				C427.3,451.3,427.3,451.3,427.3,451.3l-0.7,1.3C427.3,451.3,426.7,452.6,427.3,451.3z M425.6,451L425.6,451l0.1,1.5
				C425.6,451,425.7,452.5,425.6,451z"/>
		</g>
	</g>
</g>
</svg>
