<?xml version="1.0" encoding="utf-8"?>
<!-- Generator: Adobe Illustrator 17.1.0, SVG Export Plug-In . SVG Version: 6.00 Build 0)  -->
<!DOCTYPE svg PUBLIC "-//W3C//DTD SVG 1.1//EN" "http://www.w3.org/Graphics/SVG/1.1/DTD/svg11.dtd">
<svg version="1.1" id="Layer_1" xmlns="http://www.w3.org/2000/svg" xmlns:xlink="http://www.w3.org/1999/xlink" x="0px" y="0px"
	 viewBox="0 0 156 213.8" enable-background="new 0 0 156 213.8" xml:space="preserve">
<path fill="#84EF8E" d="M25.7,213.3c0,0,4.2-33.3,4-61c-0.4-67.3-4-90.7-4-90.7C23.5,25,49.8,7,79.5,7s52,10.2,49.7,51.7
	c0,0,0.3,38.6,0.3,94.6c0,12.9,5.7,60.1,5.7,60.1"/>
<path fill="#1A1A1A" d="M84,211.4"/>
<circle fill="#2D2D2B" cx="31.5" cy="34.4" r="3"/>
<path fill="#2D2D2B" d="M115.9,50.1c0.4,2.1-1.4,3.9-3.5,3.5c-1.2-0.2-2.1-1.2-2.4-2.4c-0.4-2.1,1.4-3.9,3.5-3.5
	C114.7,47.9,115.7,48.9,115.9,50.1z"/>
<g>
	<path fill="#FF4E50" d="M88.6,89.8c0,12.2-14.7,22.1-32.7,22.1s-30.1-10.1-30.1-22.3s12-22,30.1-22c16.6,0,30.4,8.4,32.5,19.3
		C88.5,87.9,88.6,88.8,88.6,89.8z"/>
	<g>
		<path fill="#FF4E50" d="M83,82.3c1.2,5.4,2.7,9.6,4.1,12.8c2.3-5.5,4.8-8.6,7-10.1C90.5,83.9,86.8,82.9,83,82.3z"/>
	</g>
	<path fill="#2D2D2B" d="M66.4,89.8c0,5.3-7,9.6-15.6,9.6S36.5,95,36.5,89.7s5.7-9.5,14.3-9.5c7.9,0,14.4,3.6,15.4,8.3
		C66.3,88.9,66.4,89.4,66.4,89.8z"/>
</g>
<line fill="none" stroke="#F9F7F7" stroke-width="0.75" stroke-miterlimit="10" x1="25.6" y1="211.1" x2="25.6" y2="215.8"/>
<path fill="none" stroke="#2D2D2B" stroke-width="2" stroke-linecap="round" stroke-miterlimit="10" d="M110,45.2
	c1.8-2.1,5.2-2.1,7.6,0c2.4,2.1,2.8,5.5,1,7.6"/>
<path fill="none" stroke="#2D2D2B" stroke-width="2" stroke-linecap="round" stroke-miterlimit="10" d="M27.3,30.5
	c1.1-2.5,4.3-3.6,7.3-2.3c2.9,1.2,4.4,4.3,3.3,6.9"/>
</svg>
