<svg xmlns="http://www.w3.org/2000/svg" viewBox="0 0 112 138.5" enable-background="new 0 0 112 138.5"><path stroke="#262626" stroke-width="1.59" stroke-linecap="round" stroke-linejoin="round" stroke-miterlimit="10" stroke-dasharray="0.7948,4.7691" fill="none" d="M62.9 47.6v28.5"/><path fill="#232323" stroke="#262626" stroke-width="1.229" stroke-miterlimit="10" d="M64.5 80.8c0 .9-.8 1.7-1.7 1.7-.9 0-1.7-.8-1.7-1.7 0-.9.8-1.7 1.7-1.7.9 0 1.7.8 1.7 1.7z"/><path stroke="#232323" stroke-width="2" stroke-linecap="round" stroke-linejoin="round" stroke-miterlimit="10" d="M54.6 46.4v77" fill="none"/><path fill="#232323" stroke="#232323" stroke-width="2" stroke-linecap="round" stroke-linejoin="round" stroke-miterlimit="10" d="M102.6 37.2c0 5.7-4 5.4-8.9 5.4H20.3c-4.9 0-8.9.3-8.9-5.4v-4c0-5.7 3.6-11 10.1-11.5 17.6-1.5 53.2-1.5 71 0 6.7.6 10.1 5.8 10.1 11.5v4z"/><path fill="#262626" stroke="#232323" stroke-width="2" stroke-miterlimit="10" d="M85.6 127c0 .6-1.1 1-2.4 1H25.6c-1.4 0-2.4-.5-2.4-1 0-.6 1.1-1 2.4-1h57.5c1.4 0 2.5.5 2.5 1z"/><path fill="#fff" stroke="#232323" stroke-width="2" stroke-miterlimit="10" d="M100.1 38.2c0 4.7-3.8 4.4-8.4 4.4H22.4c-4.6 0-8.4.3-8.4-4.4v-3.3c0-4.7 3.4-9 9.5-9.5 16.6-1.2 50.3-1.2 67.1 0 6.3.5 9.5 4.8 9.5 9.5v3.3z"/><path fill="#B8F1F4" d="M87.3 36.6H15.1l.1-2.6h72.2c1.7 0 2.7-.6 2.8-.9-.2-.1-1.2-.7-2.9-.7l-72 .8s.6-2.5 1-2.5c6.8.1 71-.9 71-.9 3.1 0 5.4 1.5 5.4 3.4s-2.3 3.4-5.4 3.4z"/><path fill="#232323" stroke="#232323" stroke-width="2" stroke-miterlimit="10" d="M68.9 44.8c0 .9-.7 1.6-1.6 1.6H41.4c-.9 0-1.6-.7-1.6-1.6 0-.9.7-1.6 1.6-1.6h25.9c.9 0 1.6.7 1.6 1.6z"/><path fill="#232323" stroke="#232323" stroke-width="2" stroke-linecap="round" stroke-linejoin="round" stroke-miterlimit="10" d="M45.1 123.4h19.7v2.7H45.1z"/></svg>