<svg xmlns="http://www.w3.org/2000/svg" viewBox="0 0 114 153.3" enable-background="new 0 0 114 153.3"><path fill="#F7F7EB" d="M19.5 76.6c0 1.7 1.3 3 3 3h67.4c1.7 0 3-1.3 3-3V23.3c0-1.7-1.3-3-3-3H22.5c-1.7 0-3 1.3-3 3v53.3z"/><path stroke="#232323" stroke-width="2" stroke-linecap="round" stroke-linejoin="round" stroke-miterlimit="10" d="M19.5 76.6c0 1.7 1.3 3 3 3h67.4c1.7 0 3-1.3 3-3V23.3c0-1.7-1.3-3-3-3H22.5c-1.7 0-3 1.3-3 3v53.3z" fill="none"/><path fill="#F7F7EB" d="M19.5 139.8c0 1.7 1.3 3 3 3h67.4c1.7 0 3-1.3 3-3v-54c0-1.7-1.3-3-3-3H22.5c-1.7 0-3 1.3-3 3v54z"/><path stroke="#232323" stroke-width="2" stroke-linecap="round" stroke-linejoin="round" stroke-miterlimit="10" d="M19.5 139.8c0 1.7 1.3 3 3 3h67.4c1.7 0 3-1.3 3-3v-54c0-1.7-1.3-3-3-3H22.5c-1.7 0-3 1.3-3 3v54z" fill="none"/><path stroke="#232323" stroke-width="2" stroke-miterlimit="10" d="M61.4 20.2l-4-6c-.7-1.2-2.4-1.2-3.2-.1l-4.1 6.2" fill="none"/><circle fill="#232323" cx="80.6" cy="75" r="1.7"/><circle fill="#232323" cx="80.6" cy="87.3" r="1.7"/><circle fill="#232323" cx="27.8" cy="75.4" r="1.7"/><circle fill="#232323" cx="27.8" cy="87.8" r="1.7"/><g stroke-width="1.445" stroke-linecap="round" stroke-linejoin="round" stroke-miterlimit="10" stroke-dasharray="0,3.8524" fill="none"><path stroke="#666" d="M27.5 95.7v39.8"/><path stroke="#616161" d="M38.8 95.7v39.8"/><path stroke="#5C5C5C" d="M50.1 95.6v39.9"/><path stroke="#575757" d="M61.3 95.6v39.8"/><path stroke="#525252" d="M72.6 95.6v39.8"/><path stroke="#4D4D4D" d="M83.9 95.5v39.9"/></g><path stroke="#4D4D4D" stroke-width=".75" stroke-linecap="round" stroke-linejoin="round" stroke-miterlimit="10" fill="none" d="M27.5 103.3h56.4M27.1 114.7h56.5M27.6 126.6h56.5"/><path fill="#B8F1F4" d="M27 34.2h58v7.3H27z"/><g fill="#232323"><path d="M27.3 44.9h4.1v1.2h-2.6v1.5h2.4V49h-2.4v2.7h-1.5v-6.8zM38.1 48.8h-2.5v1.6h2.8v1.2h-4.3v-6.7h4.2v1.2h-2.6v1.4h2.5v1.3zM40.9 45c.4-.1 1.2-.1 2-.1.9 0 1.5.1 2 .4.5.2.8.7.8 1.3 0 .6-.3 1.2-1.1 1.4.8.2 1.3.8 1.3 1.7 0 .6-.3 1.1-.7 1.4-.5.4-1.3.6-2.6.6-.7 0-1.3-.1-1.6-.1V45zm1.5 2.6h.5c.8 0 1.2-.3 1.2-.8s-.4-.8-1.1-.8h-.6v1.6zm0 3h.6c.7 0 1.3-.3 1.3-1s-.6-.9-1.4-.9h-.5v1.9zM48.5 45c.5-.1 1.2-.1 2-.1 1 0 1.7.1 2.2.5.4.3.6.8.6 1.4 0 .9-.6 1.4-1.2 1.7.5.2.7.6.9 1.3.2.8.4 1.6.5 1.9H52c-.1-.2-.3-.7-.5-1.6-.2-.8-.5-1.1-1.1-1.1H50v2.6h-1.5V45zm1.5 2.9h.6c.8 0 1.2-.4 1.2-1s-.4-.9-1.1-.9c-.4 0-.6 0-.7.1v1.8zM57.4 44.9v3.9c0 1.2.4 1.7 1.2 1.7.8 0 1.2-.6 1.2-1.7v-3.9h1.5v3.8c0 2.1-1 3.1-2.8 3.1-1.7 0-2.7-.9-2.7-3.1v-3.8h1.6zM65.5 49.9l-.5 1.8h-1.6l2.1-6.7h2l2.1 6.7H68l-.5-1.7h-2zm1.7-1.1l-.4-1.4c-.1-.4-.2-.9-.3-1.3-.1.4-.2.9-.3 1.3l-.4 1.4h1.4zM72 45c.5-.1 1.2-.1 2-.1 1 0 1.7.1 2.2.5.4.3.6.8.6 1.4 0 .9-.6 1.4-1.2 1.7.5.2.7.6.9 1.3.2.8.4 1.6.5 1.9h-1.6c-.1-.2-.3-.7-.5-1.6-.2-.8-.5-1.1-1.1-1.1h-.5v2.6H72V45zm1.5 2.9h.6c.8 0 1.2-.4 1.2-1s-.4-.9-1.1-.9c-.4 0-.6 0-.7.1v1.8zM80.8 51.7v-2.8l-2.1-4h1.7l.7 1.6c.2.5.3.8.5 1.3.1-.4.3-.8.5-1.3l.7-1.6h1.7l-2.2 3.9v2.8h-1.5z"/></g><path fill="#232323" stroke="#232323" stroke-miterlimit="10" d="M27.8 75.4v12.4M80.6 73.5v12.3"/><path stroke="#F9A7AD" stroke-width=".915" stroke-linecap="round" stroke-linejoin="round" stroke-miterlimit="10" fill="none" d="M29.6 94.3l6.1 6.7"/><path stroke="#F9A7AD" stroke-width=".916" stroke-linecap="round" stroke-linejoin="round" stroke-miterlimit="10" fill="none" d="M35.4 94.3l-6.1 6.7"/><path stroke="#F9A7AD" stroke-width=".915" stroke-linecap="round" stroke-linejoin="round" stroke-miterlimit="10" fill="none" d="M41.2 94.3l6.1 6.8"/><path stroke="#F9A7AD" stroke-width=".916" stroke-linecap="round" stroke-linejoin="round" stroke-miterlimit="10" fill="none" d="M47 94.3l-6.1 6.8"/><path stroke="#F9A7AD" stroke-width=".915" stroke-linecap="round" stroke-linejoin="round" stroke-miterlimit="10" fill="none" d="M53.2 94.3l6.1 6.7"/><path stroke="#F9A7AD" stroke-width=".916" stroke-linecap="round" stroke-linejoin="round" stroke-miterlimit="10" fill="none" d="M59 94.3l-6.2 6.7"/><path fill="#FFD66A" d="M67.2 117.4l3.4-1.8-.7 3.8 2.8 2.7-3.8.6-1.7 3.4-1.7-3.4-3.8-.6 2.7-2.7-.6-3.8z"/><path fill="#B8F1F4" d="M27.2 54.6h58v7.3h-58z"/></svg>