<?xml version="1.0" encoding="utf-8"?>
<!-- Generator: Adobe Illustrator 17.1.0, SVG Export Plug-In . SVG Version: 6.00 Build 0)  -->
<!DOCTYPE svg PUBLIC "-//W3C//DTD SVG 1.1//EN" "http://www.w3.org/Graphics/SVG/1.1/DTD/svg11.dtd">
<svg version="1.1" id="Layer_1" xmlns="http://www.w3.org/2000/svg" xmlns:xlink="http://www.w3.org/1999/xlink" x="0px" y="0px"
	 viewBox="0 0 154.5 233" enable-background="new 0 0 154.5 233" xml:space="preserve">
<path fill="#F9D423" d="M30.2,91.3C28,54.7,54.3,36.7,84.1,36.7s50.8,20.7,54.7,54.7c0,0,4.3,19.3,4.3,75.3
	c0,12.9-3.3,66.3-3.3,66.3H30.2c0,0,4.2-23.3,4-51C33.8,114.7,30.2,91.3,30.2,91.3z"/>
<path fill="#FFFF00" d="M1101.8,324.4c-3.8-46.4,24.1-54.7,53.8-54.7s64,19.9,54.7,54.7c0,0-4.9,15.5,4.3,75.3
	c2,12.7-3.3,66.3-3.3,66.3h-109.5c0,0,4.2-23.3,4-51C1105.3,347.8,1101.8,324.4,1101.8,324.4z"/>
<path fill="#E1F5C4" d="M704.3,336.9c-2.2-36.6,24.1-54.7,53.8-54.7c29.7,0,50.8,20.7,54.7,54.7c0,0-1.9,38.6,4.3,75.3
	c7,41.6-3.3,53.3-3.3,53.3H704.3c0,0-7.9-6.6-6-38C700.9,384.7,704.3,336.9,704.3,336.9z"/>
<path fill="#E5BE1A" d="M918.2,315.4c-2.2-36.6,24.1-54.7,53.8-54.7c29.7,0,52,10.2,49.7,51.7c0,0,0.3,38.6,0.3,94.6
	c0,12.9,5.7,60.1,5.7,60.1H918.2c0,0,4.2-33.3,4-61C921.8,338.8,918.2,315.4,918.2,315.4z"/>
<polygon fill="#1A1A1A" points="1262.4,466.5 1052.3,464.2 976.5,465.1 613.6,463.6 462.4,466.6 462.4,469.5 1262.4,469.5 "/>
<g>
	<path fill="#AF0814" d="M97.9,102.1c0,15.4-18.3,27.8-40.8,27.8s-41.7-12.5-41.7-27.8s19.1-27.8,41.7-27.8
		c20.7,0,37.9,10.6,40.5,24.2C97.8,99.7,97.9,100.9,97.9,102.1z"/>
	<path fill="#2D2D2B" d="M87.2,101.2c0,13.8-13.8,21.4-30.9,21.4s-34.4-7.7-32.9-21.4c1.2-11,14.5-18.3,32.9-18.4
		C77.4,82.6,87.2,91,87.2,101.2z"/>
	<path fill="#AF0814" d="M102.2,99.8c3.1,1-10,8.5-10,8.5l-0.3-14.8C91.9,93.5,99.9,99.1,102.2,99.8z"/>
</g>
<circle fill="#2D2D2B" cx="37.7" cy="58.6" r="3"/>
<circle fill="#2D2D2B" cx="115.1" cy="69.6" r="3"/>
<circle fill="#2D2D2B" cx="713.9" cy="303.4" r="3"/>
<circle fill="#2D2D2B" cx="791.2" cy="314.4" r="3"/>
<circle fill="#2D2D2B" cx="924" cy="288.2" r="3"/>
<path fill="#2D2D2B" d="M984.9,293.1c0.4,2.1-1.4,3.9-3.5,3.5c-1.2-0.2-2.1-1.2-2.4-2.4c-0.4-2.1,1.4-3.9,3.5-3.5
	C983.7,290.9,984.6,291.9,984.9,293.1z"/>
<circle fill="#2D2D2B" cx="1108.7" cy="294.7" r="3"/>
<circle fill="#2D2D2B" cx="1186" cy="305.7" r="3"/>
<g>
	<path fill="#FF1D25" d="M794.9,378.7c-4.7,18.9-31,28.6-58.7,21.7c-27.7-6.9-47.4-28.1-42.7-47c4.7-18.9,32.1-28.3,59.8-21.4
		c25.5,6.4,43.3,24.6,42.3,42.2C795.5,375.7,795.3,377.2,794.9,378.7z"/>
	<path fill="#2D2D2B" d="M779.6,373.6c-3.1,12.5-23.6,22-44.5,16.8c-21-5.2-39.9-20-33.9-36.4c4.8-13.2,24-19.8,46.1-12.5
		C771.1,349.4,782.8,361.2,779.6,373.6z"/>
	<g>
		<path fill="#FF1D25" d="M803.5,377.1c-5,1.9-10.2,5.5-15,11.8c1-9.4,2.6-17.1,4.1-23.4C796.1,371.6,799.9,375.2,803.5,377.1z"/>
	</g>
</g>
<g>
	<path fill="#E21E43" d="M984.1,338.5c0,12.2-17.6,22.1-39.3,22.1c-21.7,0-40.1-9.9-40.1-22.1c0-12.2,18.4-22.1,40.1-22.1
		c20,0,36.5,8.4,39,19.3C984,336.6,984.1,337.6,984.1,338.5z"/>
	<path fill="#2D2D2B" d="M971.9,338.2c0,5-13.3,15.6-29.8,15.6c-16.4,0-33.1-8.8-31.7-15.6c1.1-5.4,14-15.8,31.7-15.1
		C961.2,323.9,971.9,333.2,971.9,338.2z"/>
	<g>
		<path fill="#E21E43" d="M990.3,337.1c-3.2,1.1-6.6,3.8-9.7,8.6c-0.4-5.4-0.5-10.8-0.3-16.4C983.5,333.5,987,335.9,990.3,337.1z"/>
	</g>
</g>
<g>
	<path fill="#FF1D25" d="M1170.8,333.8c0,15.4-18.3,27.8-40.8,27.8s-41.7-12.5-41.7-27.8s19.1-27.8,41.7-27.8
		c20.7,0,37.9,10.6,40.5,24.2C1170.7,331.3,1170.8,332.5,1170.8,333.8z"/>
	<path fill="#2D2D2B" d="M1158.1,332.8c0,10.2-13.8,21.4-30.9,21.4c-17.1,0-34.4-7.7-32.9-21.4c1.2-11,14.6-19.8,32.9-18.4
		C1146.9,315.9,1158.1,322.7,1158.1,332.8z"/>
	<g>
		<path fill="#FF1D25" d="M1178.1,331.3c-3.5,3-6.4,5.9-10,7.7c-0.1-4.3-0.2-8.6-0.3-12.9C1171.3,327.6,1174.5,329,1178.1,331.3z"/>
	</g>
</g>
<ellipse fill="none" stroke="#0A0A0A" stroke-width="3" stroke-miterlimit="10" cx="310.3" cy="386.7" rx="10.5" ry="10.5"/>
<line fill="none" stroke="#F9F7F7" stroke-width="0.75" stroke-miterlimit="10" x1="659.1" y1="463.8" x2="659.1" y2="469.5"/>
<line fill="none" stroke="#F9F7F7" stroke-width="0.75" stroke-miterlimit="10" x1="787.4" y1="464.3" x2="787.4" y2="469.5"/>
<line fill="none" stroke="#F9F7F7" stroke-width="0.75" stroke-miterlimit="10" x1="918.1" y1="464.9" x2="918.1" y2="469.5"/>
<line fill="none" stroke="#F9F7F7" stroke-width="0.75" stroke-miterlimit="10" x1="1092.4" y1="464.7" x2="1092.4" y2="469.5"/>
<polygon fill="#333333" points="310.5,382.3 316.9,380.4 315,386.8 316.9,393.2 310.5,391.3 304.1,393.2 306,386.8 304.1,380.4 "/>
<line fill="none" stroke="#F9F7F7" stroke-width="0.75" stroke-miterlimit="10" x1="1195.4" y1="465.7" x2="1195.4" y2="469.5"/>
<line fill="none" stroke="#F9F7F7" stroke-width="0.75" stroke-miterlimit="10" x1="525.3" y1="465.3" x2="525.3" y2="469.5"/>
<circle fill="#070707" cx="310.3" cy="386.6" r="1.7"/>
<g>
	<polygon fill="#1A1A1A" points="352.4,504.6 562.5,505.9 638.2,506 1001.2,505.5 1152.4,504.5 1152.4,501.6 352.4,501.6 	"/>
	<line fill="none" stroke="#F9F7F7" stroke-width="0.75" stroke-miterlimit="10" x1="955.6" y1="507.3" x2="955.6" y2="501.6"/>
	<line fill="none" stroke="#F9F7F7" stroke-width="0.75" stroke-miterlimit="10" x1="827.4" y1="506.9" x2="827.4" y2="501.6"/>
	<line fill="none" stroke="#F9F7F7" stroke-width="0.75" stroke-miterlimit="10" x1="696.7" y1="506.2" x2="696.7" y2="501.6"/>
	<line fill="none" stroke="#F9F7F7" stroke-width="0.75" stroke-miterlimit="10" x1="522.4" y1="506.4" x2="522.4" y2="501.6"/>
	<line fill="none" stroke="#F9F7F7" stroke-width="0.75" stroke-miterlimit="10" x1="419.4" y1="505.4" x2="419.4" y2="501.6"/>
	<line fill="none" stroke="#F9F7F7" stroke-width="0.75" stroke-miterlimit="10" x1="1089.4" y1="505.8" x2="1089.4" y2="501.6"/>
</g>
</svg>
