<svg xmlns="http://www.w3.org/2000/svg" viewBox="0 0 643 148" enable-background="new 0 0 643 148"><path fill="#9E150F" d="M517.5 122.1"/><path fill="#E27A96" d="M547.6 123.8s27.6 0 36.7 3.3c.5.2 1 .5.9 1.1-.1.5-.5 1-1.1.9l-49.8-4.5"/><path fill="#fff" stroke="#000" stroke-width=".376" stroke-miterlimit="10" d="M608.5 133.6l.1-1.3c.1-.9.3-1.1 1.8-1 1.7.1 1.7.3 1.6 1.3l-.1 1.3"/><path fill="#fff" stroke="#000" stroke-width=".336" stroke-miterlimit="10" d="M604.6 132.8l.1-1.2c.1-.8.3-.9 1.7-.8 1.7.1 1.6.3 1.6 1.1v1.4M600.6 132.4l.1-1.3c.1-.8.3-.9 1.7-.8 1.7.1 1.6.3 1.6 1.1v1.4"/><g><path fill="#BBD9D6" d="M471.7 129.1l-33.7 3.1s-44.9 4.9-60 5.1c-31.1.3-93.4-7.5-124-13.2-21.5-4-50.9-15.2-81.8-25.5l53.8 10.1s54.3 10.9 72.7 11.3c25.4.5 68-3.9 93.3-2 18.3 1.4 79.7 11.1 79.7 11.1z"/><path fill="#D1D1CF" d="M514 125.5c7.5 1.3 75.3 5.1 98 8.5 2.6.4 2.2 5.3 0 5.3-9.6 0-136.2-10.5-136.2-10.5l-4 .4s-61.4-9.7-79.7-11.1c-25.3-1.9-68 2.5-93.3 2-18.4-.4-72.7-11.3-72.7-11.3l-53.8-10.1C133 85.4 91.7 73.7 62 79.9c-4.8 2.6-9 6.3-13 10.8-8.1 9.3-17.5 17.5-28.7 22.2-2.9 1.2-6.1-1.2-5.7-4.3 1.6-9.9.1-24.7 3.3-31.6 4.9-10.6 6-13 0-24.1-9.6-17.8-3.5-42.5 1-43C25 9.3 57.1 64.7 71 53.3 138.4 5.3 208 14 208 14s16.8 2 29.8-2.4c-.4 1 60.3 7.6 99.8 6.3 37.7-1.3 63.4 10 83.4.1 13.2-6.5 3.6.4 17 3.1 31.9 6.3 97.7 2.9 130.1 0 26.4-2.3 53.6.8 57.1 20.3 5.1 28.7 6.1 50.6-.6 67-4.5 11-15.4 12.7-21.3 12.7l-89.3 4.4z"/><g stroke="#000" stroke-width=".5" stroke-miterlimit="10" fill="none"><path d="M237.8 11.6c-.4 1 60.3 7.6 99.8 6.3 37.7-1.3 63.4 10 83.4.1 13.2-6.5 3.6.4 17 3.1 31.9 6.3 97.7 2.9 130.1 0 26.4-2.3 53.6.8 57.1 20.3 5.1 28.7 6.1 50.6-.6 67-4.5 11-15.4 12.7-21.3 12.7l-89.2 4.5-10 .5"/><path d="M237.8 11.6c.1 0 .2-.1.2-.1-.2 0-.2.1-.2.1zM71.1 53.4C138.4 5.3 208 14 208 14s16.8 2 29.8-2.4M514 125.5c7.5 1.3 75.3 5.1 98 8.5 2.6.4 2.2 5.3 0 5.3-9.6 0-136.2-10.5-136.2-10.5l-4 .4-33.7 3.1s-44.9 4.9-60 5.1c-31.1.3-93.4-7.5-124-13.2-21.5-4-50.9-15.2-81.8-25.5C133 85.4 91.7 73.7 62 79.9M392 85s-23 20.7-55 18c-7.9-.7-29.9-2.3-30-10-.2-9.3 11.4-11.8 33.7-15.9 19.8-3.6 26.7 0 26.7 0M86 75.5c-10-.7-17.6.9-24 4.4-4.8 2.6-9 6.3-13 10.8-8.1 9.3-17.5 17.5-28.7 22.2-2.9 1.2-6.1-1.2-5.7-4.3 1.6-9.9.1-24.7 3.3-31.6 4.9-10.6 6-13 0-24.1-9.6-17.8-3.5-42.5 1-43C25 9.3 57.1 64.7 71 53.3M172.2 98.6l53.8 10.1s54.3 10.9 72.7 11.3c25.4.5 68-3.9 93.3-2 18.3 1.4 79.7 11.1 79.7 11.1"/></g></g><path fill="#fff" stroke="#000" stroke-width=".376" stroke-miterlimit="10" d="M596.4 131.9l.1-1.4c.1-.9.3-1.1 1.8-1 1.7.1 1.7.3 1.6 1.3l-.1 1.6"/><path fill="#fff" stroke="#000" stroke-width=".307" stroke-miterlimit="10" d="M592.6 131.5v-1.4c0-.6.3-.8 1.7-.7 1.7.1 1.7.3 1.6.9v1.5"/><path fill="#fff" stroke="#000" stroke-width=".336" stroke-miterlimit="10" d="M588.6 131.2l.1-1.2c.1-.8.3-.9 1.7-.8 1.7.1 1.6.3 1.6 1.1v1.2M584.7 130.8l.1-1.1c.1-.8.3-.9 1.7-.8 1.7.1 1.6.3 1.6 1.1v1.2M580.4 130.2l.1-1.1c.1-.8.3-.9 1.7-.8 1.7.1 1.6.3 1.6 1.1v1.2M576.6 129.9l.1-1.1c.1-.8.3-.9 1.7-.8 1.7.1 1.6.3 1.6 1.1v1.2M572.9 129.8l.1-1.3c.1-.8.3-.9 1.7-.8 1.7.1 1.6.3 1.6 1.1v1.2"/><path stroke="#000" stroke-miterlimit="10" fill="none" d="M547 74l-20 2"/><path d="M540 78.9c0 .8-1 1.4-2.3 1.4-1.3 0-2.3-.6-2.3-1.4V78c0-.8 1-1.4 2.3-1.4 1.3 0 2.3.6 2.3 1.4v.9z"/><path stroke="#000" stroke-width=".5" stroke-linecap="round" stroke-linejoin="round" stroke-miterlimit="10" d="M531.5 90.4c-5 0-9-4-9-9v-1.8" fill="none"/><path fill="#fff" stroke="#000" stroke-width=".336" stroke-miterlimit="10" d="M569 129.4l.1-1.2c.1-.8.3-.9 1.7-.8 1.7.1 1.6.3 1.6 1.4v1M565.3 129.3l.1-1.4c.1-.8.3-.9 1.7-.8 1.7.1 1.6.3 1.6 1.1v1.3M561.2 128.9l.1-1.3c.1-.8.3-.9 1.7-.8 1.7.1 1.6.3 1.6 1.1v1.3M557.5 128.6l.1-1.3c.1-.8.3-.9 1.7-.8 1.7.1 1.6.3 1.6 1.2v1.2M553.5 128.3l.1-1.3c.1-.8.3-.9 1.7-.8 1.7.1 1.6.3 1.6 1.1v1.4M549.6 128l.1-1.1c.1-.8.3-.9 1.7-.8 1.7.1 1.6.3 1.6 1.1v1.2M545.8 127.6l.1-1.1c.1-.8.3-.9 1.7-.8 1.7.1 1.6.3 1.6 1.1v1.2M542 127.3l.1-1.1c.1-.8.3-.9 1.7-.8 1.7.1 1.6.3 1.6 1.1v1.2M538 127.1l.1-1.1c.1-.8.3-.9 1.7-.8 1.7.1 1.6.3 1.6 1.1v1.2"/><g stroke="#000" stroke-width=".588" stroke-linecap="round" stroke-linejoin="round" fill="none"><path d="M175 99.1l.9.3"/><path stroke-dasharray="2.0052,2.0052" d="M177.8 100c13.5 4.3 71.9 22.4 114.2 26.8 18.5 1.9 38.7 4 56.6 6 22.9 2.5 103.6-2.3 117.3-3.2"/><path d="M466.9 129.5c.7 0 1-.1 1-.1"/></g><path stroke="#000" stroke-width=".588" stroke-linecap="round" stroke-linejoin="round" stroke-miterlimit="10" stroke-dasharray="2,2" d="M175 99.1s92.3 22.6 126 24.9c11.4.8 33.2 3.2 52.5 4 15.7.7 30.5-.1 30.5-.1l83.9 1.5M301 120l140.4 4.4" fill="none"/></svg>