<svg xmlns="http://www.w3.org/2000/svg" viewBox="0 0 112 138.5" enable-background="new 0 0 112 138.5"><path stroke="#262626" stroke-width="2" stroke-miterlimit="10" d="M84.5 66.3c-2-7.7 2.6-14.3-1.1-18.2-7.3-7.7-40.7-7-49.7 0-4.5 3.6.2 10.1-1.9 18.2" fill="none"/><circle fill="#F9F9F2" stroke="#262626" stroke-width="2" stroke-miterlimit="10" cx="58.9" cy="97.6" r="31.8"/><path fill="#232323" stroke="#232323" stroke-width="1.775" stroke-miterlimit="10" d="M42.9 61.6c1.2 1.4 1.3 3.3.2 4.3L28.8 78.1c-1.1 1-3 .6-4.2-.8-1.2-1.4-1.3-3.3-.2-4.3l14.3-12.2c1.1-1 3-.6 4.2.8z"/><path fill="#232323" stroke="#262626" stroke-width="1.673" stroke-miterlimit="10" d="M62 57.1c0 .7-.5 1.2-1.2 1.2h-5.3c-.7 0-1.2-.5-1.2-1.2s.5-1.2 1.2-1.2h5.3c.7 0 1.2.5 1.2 1.2z"/><path stroke="#262626" stroke-width="2" stroke-miterlimit="10" fill="none" d="M58.2 58.7v7.1"/><path fill="#232323" stroke="#232323" stroke-width="2" stroke-miterlimit="10" d="M37.4 121.7c2.7 3.4 6.1 5.5 6.1 5.5l-1.7 4.2h-4.4v-9.7z"/><ellipse fill="#F9F9F2" cx="59" cy="97.9" rx="28.9" ry="28.6"/><ellipse stroke="#232323" stroke-width="1.022" stroke-linecap="round" stroke-linejoin="round" stroke-dasharray="0.5058,3.0348" cx="59" cy="97.9" rx="28.9" ry="28.6" fill="none"/><circle opacity=".5" fill="#C8EDE4" cx="59" cy="97.5" r="17.7"/><circle fill="#262626" stroke="#232323" stroke-width="2" stroke-miterlimit="10" cx="58.9" cy="96.6" r="1.2"/><path stroke="#232323" stroke-width="1.5" stroke-linecap="round" stroke-miterlimit="10" fill="none" d="M59 98V76.7M59 96.6l12.2 12.1"/><path fill="#232323" stroke="#232323" stroke-width="2" stroke-miterlimit="10" d="M80.5 121.5c-2.7 3.4-6.1 5.5-6.1 5.5l1.7 4.2h4.4v-9.7z"/><path fill="#232323" stroke="#232323" stroke-width="1.775" stroke-miterlimit="10" d="M74.1 61.6c-1.2 1.4-1.3 3.4-.1 4.3l14.3 12.2c1.1 1 3 .6 4.2-.8 1.2-1.4 1.3-3.3.2-4.3L78.3 60.8c-1.1-1-3-.6-4.2.8z"/></svg>