<?xml version="1.0" encoding="utf-8"?>
<!-- Generator: Adobe Illustrator 17.1.0, SVG Export Plug-In . SVG Version: 6.00 Build 0)  -->
<!DOCTYPE svg PUBLIC "-//W3C//DTD SVG 1.1//EN" "http://www.w3.org/Graphics/SVG/1.1/DTD/svg11.dtd">
<svg version="1.1" id="Layer_1" xmlns="http://www.w3.org/2000/svg" xmlns:xlink="http://www.w3.org/1999/xlink" x="0px" y="0px"
	 viewBox="0 0 314.9 447" enable-background="new 0 0 314.9 447" xml:space="preserve">
<g>
	<path fill="#FFFFFF" stroke="#000000" stroke-width="0.9827" stroke-miterlimit="10" d="M302.9,122.6
		c0-67.4-54.5-122.1-121.6-122.1S59.7,55.1,59.7,122.6v-1.5v324v1.5h243.1v-3.4v-322"/>
	<ellipse cx="65.8" cy="111.5" rx="16.2" ry="16.2"/>
	<ellipse cx="298.7" cy="111.5" rx="16.2" ry="16.2"/>
	<g>
		<g>
			<path fill="#FFFFFF" d="M119.2,282.4c-46.2,0-85.2-23.1-85.2-50.5s39-50.5,85.2-50.5s85.2,23.1,85.2,50.5
				C204.3,259.2,165.4,282.4,119.2,282.4z"/>
			<path fill="#CC3429" d="M119.2,198.1c20.4,0,39.9,5.2,53.5,14.1c9.3,6.1,14.9,13.5,14.9,19.7c0,6.3-5.5,13.6-14.9,19.7
				c-13.6,9-33.1,14.1-53.5,14.1s-39.9-5.2-53.5-14.1c-9.3-6.1-14.9-13.5-14.9-19.7c0-6.3,5.5-13.6,14.9-19.7
				C79.2,203.2,98.7,198.1,119.2,198.1 M119.2,164.7c-56.4,0-102,30.1-102,67.2s45.6,67.2,102,67.2s102-30.1,102-67.2
				S175.5,164.7,119.2,164.7L119.2,164.7z"/>
		</g>
		<polyline fill="#CC3429" points="20.4,216.9 0,229.1 18.5,239.4 		"/>
		<polyline fill="#CC3429" points="216,216.9 236.5,229.1 217.9,239.4 		"/>
	</g>
</g>
</svg>
