<svg xmlns="http://www.w3.org/2000/svg" viewBox="0 0 150 149" enable-background="new 0 0 150 149"><path fill="#839B9E" d="M363.3 407.6l7.9 8.5 5.8-8.5h-13.7zm-169.8.6l7.8 8.6 5.8-8.6h-13.6zm114.1 0l-6.2 6.4-7.4-6.4h13.6zm169.9-.6l-6.2 6.3-7.4-6.3h13.6z"/><circle fill="#fff" stroke="#000" stroke-width=".773" stroke-miterlimit="10" cx="421.2" cy="435.7" r="56.4"/><path stroke="#000" stroke-width=".746" stroke-miterlimit="10" d="M393.9 437.5h54.4v26.3h-54.4v-26.3zm0-7.7h54.4v7.7h-54.4v-7.7z" fill="none"/><path fill="#fff" stroke="#000" stroke-width=".746" stroke-miterlimit="10" d="M398.8 433.7h4.3v7.5h-4.3v-7.5z"/><path d="M413.7 423h15.1v3.1h-15.1V423z"/><path stroke="#000" stroke-width=".746" stroke-miterlimit="10" d="M411.2 430v-5.4h2.5m17.4 5.4v-5.4h-2.3" fill="none"/><path fill="#fff" stroke="#000" stroke-width=".746" stroke-miterlimit="10" d="M438.6 433.7h4.3v7.5h-4.3v-7.5z"/><path d="M363.3 387.6h114.1v19.9H363.3v-19.9z"/><path fill="#fff" stroke="#fff" stroke-miterlimit="10" d="M371.4 392.9v6.7c0 1.7-1.2 2.6-2.7 2.6s-2.8-.9-2.8-2.6v-6.7c0-.1.1-.2.2-.2s.2.1.2.2v6.7c0 1.4 1 2.2 2.4 2.2s2.4-.7 2.4-2.2v-6.7c0-.1.1-.2.2-.2 0 0 .1.1.1.2zm6.2 6.3v2.7c0 .1-.1.2-.2.2s-.2-.1-.2-.2v-2.7c0-.9-.5-1.8-1.5-1.8-1.3 0-1.7 1.2-1.7 2.4v2.1c0 .1-.1.2-.2.2s-.2-.1-.2-.2v-4.6c0-.1.1-.2.2-.2s.2.1.2.2v.7c.4-.7 1-1.1 1.7-1.1 1.2 0 1.9 1.1 1.9 2.3zm6.8.4c0 1.4-1 2.7-2.5 2.7-1.4 0-2.5-1.2-2.5-2.7 0-1.4 1-2.7 2.5-2.7s2.5 1.3 2.5 2.7zm-.4 0c0-1.2-.8-2.2-2-2.2s-2 1.1-2 2.2c0 1.2.9 2.2 2 2.2s2-1.1 2-2.2zm7.5 0c0 1.4-1 2.7-2.5 2.7-.9 0-1.7-.5-2.1-1.3v1c0 .1-.1.2-.2.2s-.2-.1-.2-.2v-9c0-.1.1-.2.2-.2s.2.1.2.2v5.3c.4-.8 1.2-1.3 2.1-1.3 1.4 0 2.5 1.3 2.5 2.6zm-.5 0c0-1.2-.9-2.2-2-2.2-1.2 0-2 1.1-2 2.2s.9 2.2 2 2.2c1.2 0 2-1.1 2-2.2zm5.1-2.6c.1 0 .2.1.2.2s-.1.2-.2.2h-1.2v4.5c0 .1-.1.2-.2.2s-.2-.1-.2-.2v-4.5h-1.1c-.1 0-.2-.1-.2-.2s.1-.2.2-.2h1.1v-1.7c0-.1.1-.2.2-.2s.2.1.2.2v1.7h1.2zm4.4.2c0 .1-.1.2-.2.2-1.2.2-1.8 1.2-1.8 2.4v2c0 .1-.1.2-.2.2s-.2-.1-.2-.2v-4.6c0-.1.1-.2.2-.2s.2.1.2.2v.9c.4-.6 1-1.2 1.8-1.2 0 .1.2.2.2.3zm6.1 0v4.6c0 .1-.1.2-.2.2s-.2-.1-.2-.2v-.8c-.4.7-.9 1.2-1.7 1.2-1.2 0-2-1.1-2-2.2v-2.7c0-.1.1-.2.2-.2s.2.1.2.2v2.7c0 .9.5 1.8 1.5 1.8 1.4 0 1.7-1.3 1.7-2.8v-1.7c0-.1.1-.2.2-.2.2 0 .3.1.3.1zm6.2 3.4c0 1.1-1.2 1.6-2 1.6-1 0-2.1-.4-2.1-1.6 0-.2 0-.4.3-.4.1 0 .1.1.1.2 0 1 .8 1.2 1.7 1.2.7 0 1.6-.4 1.6-1.2 0-1.5-3.7-.7-3.7-2.4 0-1 1.2-1.3 2-1.3.9 0 2 .4 2 1.5 0 .1-.1.2-.2.2s-.2-.1-.2-.2c0-.2-.1-.4-.2-.6-.3-.4-.9-.4-1.4-.4s-1.5.1-1.5.9c-.1 1.5 3.6.6 3.6 2.5zm2.3-4.7c-.2 0-.4-.1-.4-.4 0-.2.1-.4.4-.4.2 0 .4.1.4.4 0 .2-.2.4-.4.4zm.2 1.3v4.6c0 .1-.1.2-.2.2s-.2-.1-.2-.2v-4.6c0-.1.1-.2.2-.2l.2.2zm6.4 0c0 .1-1.7 4.4-1.9 4.8 0 .1-.1.1-.2.1s-.2 0-.2-.1c-.1-.4-1.9-4.7-1.9-4.8 0-.1.1-.2.2-.2s.1.1.2.1l1.7 4.3 1.7-4.3c0-.1.1-.1.2-.1 0 0 .2.1.2.2zm6.3 2.4c0 .1-.1.2-.2.2h-4.3c.1 1 .9 2 2 2 .7 0 1.3-.3 1.7-.9.1-.1.1-.1.2-.1s.2.1.2.2v.1c-.4.7-1.3 1.1-2.1 1.1-1.4 0-2.5-1.3-2.5-2.7 0-1.4 1-2.7 2.5-2.7 1.5.1 2.5 1.4 2.5 2.8zm-.5-.3c-.1-1-.9-2-2-2s-1.9.9-2 2h4zm12.5-6.4v6.7c0 1.7-1.2 2.6-2.7 2.6-1.6 0-2.8-.9-2.8-2.6v-6.7c0-.1.1-.2.2-.2s.2.1.2.2v6.7c0 1.4 1 2.2 2.4 2.2s2.4-.7 2.4-2.2v-6.7c0-.1.1-.2.2-.2 0 0 .1.1.1.2zm7.1 6.7c0 1.4-1 2.7-2.5 2.7-.9 0-1.7-.5-2.1-1.3v3.9c0 .1-.1.2-.2.2s-.2-.1-.2-.2v-7.6c0-.1.1-.2.2-.2s.2.1.2.2v1c.4-.8 1.2-1.3 2.1-1.3 1.5 0 2.5 1.2 2.5 2.6zm-.4 0c0-1.2-.9-2.2-2-2.2-1.2 0-2 1.1-2 2.2s.9 2.2 2 2.2c1.2 0 2-1.1 2-2.2zm6.1 2.2v.1c0 .1-.1.2-.2.2s-.1 0-.1-.1l-2-2.8-.9.7v2c0 .1-.1.2-.2.2s-.2-.1-.2-.2v-9c0-.1.1-.2.2-.2s.2.1.2.2v6.4l2.8-2.3.1-.1c.1 0 .2.1.2.2s0 .1-.1.1l-1.9 1.6 2.1 3zm6.7-2.2c0 .1-.1.2-.2.2H455c.1 1 .9 2 2 2 .7 0 1.3-.3 1.7-.9.1-.1.1-.1.2-.1s.2.1.2.2v.1c-.4.7-1.3 1.1-2.1 1.1-1.4 0-2.5-1.3-2.5-2.7 0-1.4 1-2.7 2.5-2.7 1.6.1 2.5 1.4 2.5 2.8zm-.5-.3c-.1-1-.9-2-2-2s-1.9.9-2 2h4zm7.3.3c0 .1-.1.2-.2.2h-4.3c.1 1 .9 2 2 2 .7 0 1.3-.3 1.7-.9.1-.1.1-.1.2-.1s.2.1.2.2v.1c-.4.7-1.3 1.1-2.1 1.1-1.4 0-2.5-1.3-2.5-2.7 0-1.4 1-2.7 2.5-2.7 1.6.1 2.5 1.4 2.5 2.8zm-.4-.3c-.1-1-.9-2-2-2s-1.9.9-2 2h4zm7.4.3c0 1.4-1 2.7-2.5 2.7-.9 0-1.7-.5-2.1-1.3v3.9c0 .1-.1.2-.2.2s-.2-.1-.2-.2v-7.6c0-.1.1-.2.2-.2s.2.1.2.2v1c.4-.8 1.2-1.3 2.1-1.3 1.5 0 2.5 1.2 2.5 2.6zm-.4 0c0-1.2-.9-2.2-2-2.2-1.2 0-2 1.1-2 2.2s.9 2.2 2 2.2c1.2 0 2-1.1 2-2.2z"/><circle fill="#fff" stroke="#000" stroke-width=".937" stroke-miterlimit="10" cx="74.5" cy="74.3" r="68.4"/><circle fill="#fff" stroke="#000" stroke-width=".859" stroke-miterlimit="10" cx="74.2" cy="74.5" r="62.6"/><path fill="#839B9E" d="M18.5 46.6l7.8 8.6 5.8-8.6H18.5zm114.1 0l-6.2 6.4-7.4-6.4h13.6z"/><circle fill="#fff" stroke="#000" stroke-width=".773" stroke-miterlimit="10" cx="74.6" cy="74.5" r="56.4"/><path d="M60.2 63.2l-3-2c-.1-.1-.1-.1-.1-.2s0-.1.1-.1l3-2c.1 0 .1-.1.1-.1.1 0 .2.1.2.2s0 .1-.1.1L57.6 61l2.8 1.9c.1 0 .1.1.1.1 0 .1-.1.2-.2.2h-.1zm5.9 1.1c0 .9-1 1.4-1.9 1.4s-1.9-.4-1.9-1.4c0-.1 0-.3.2-.3.1 0 .1.1.1.2 0 .9.7 1.2 1.5 1.2.7 0 1.4-.3 1.4-1 0-1.4-3.3-.6-3.3-2.2 0-.9 1-1.2 1.7-1.2.9 0 1.8.3 1.8 1.4 0 .1-.1.1-.2.1s-.1-.1-.1-.2c0-.2-.1-.4-.2-.6-.3-.3-.8-.4-1.2-.4-.5 0-1.4.1-1.4.7.2 1.2 3.5.5 3.5 2.3zm5.8.2c-.4.7-1.1 1.1-1.8 1.1-1.3 0-2.2-1.2-2.2-2.4s.9-2.4 2.2-2.4c.6 0 1.2.3 1.6.7.1.1.3.4.3.4s-.1.2-.2.2-.1 0-.1-.1c-.3-.5-.9-.9-1.5-.9-1.1 0-1.8.9-1.8 2 0 1 .7 2 1.8 2 .6 0 1.2-.4 1.5-.9l.1-.1c.1.2.2.3.1.4.1 0 0 0 0 0zm4.1-3.3c0 .1-.1.2-.1.2-1.2.1-1.7 1.1-1.7 2.2v1.8c0 .1-.1.2-.2.2s-.2-.1-.2-.2v-4.2c0-.1.1-.2.2-.2s.2.1.2.2v.9c.3-.5.9-1 1.6-1 .1-.2.2-.1.2.1zm2.1-1.3c-.1 0-.3-.1-.3-.3s.1-.3.3-.3c.1 0 .3.1.3.3s-.1.3-.3.3zm.3 1.3v4.2c0 .1-.1.2-.2.2s-.2-.1-.2-.2v-4.2c0-.1.1-.2.2-.2 0 0 .2.1.2.2zm6.5 2c0 1.2-.9 2.4-2.2 2.4-.8 0-1.5-.5-2-1.2v3.5c0 .1-.1.2-.2.2s-.2-.1-.2-.2V61c0-.1.1-.2.2-.2s.2.1.2.2v.9c.4-.7 1.1-1.2 2-1.2 1.2.2 2.2 1.3 2.2 2.5zm-.4 0c0-1-.7-2-1.8-2s-1.8.9-1.8 2c0 1 .7 2 1.8 2 1 .1 1.8-.9 1.8-2zm4.2-2.3c.1 0 .2.1.2.2s-.1.2-.2.2h-1v4c0 .1-.1.2-.2.2s-.2-.1-.2-.2v-4h-1c-.1 0-.2-.1-.2-.2s.1-.2.2-.2h1v-1.5c0-.1.1-.2.2-.2s.2.1.2.2v1.5h1zm1.9 2.1c0-.1 0-.1.1-.1l2.8-1.9-2.8-1.9-.1-.1s.1-.2.2-.2.1 0 .1.1l3 2 .1.1s0 .1-.1.2l-3 2h-.1c-.2 0-.2 0-.2-.2zM57 107.9l-3-2c-.1-.1-.1-.1-.1-.2s0-.1.1-.1l3-2c.1 0 .1-.1.1-.1.1 0 .2.1.2.2s0 .1-.1.1l-2.8 1.9 2.8 1.9c.1 0 .1.1.1.1 0 .1-.1.2-.2.2-.1.1-.1.1-.1 0zm2.2 2.2c0-.1 2.2-7.5 2.5-8.1 0-.1.1-.1.1-.1.1 0 .2.1.2.2s-2.2 7.5-2.5 8.1c0 .1-.1.1-.1.1-.1 0-.2-.1-.2-.2zm8.4-1.2c0 .9-1 1.4-1.9 1.4s-1.9-.4-1.9-1.4c0-.1 0-.3.2-.3.1 0 .1.1.1.2 0 .9.7 1.2 1.5 1.2.7 0 1.4-.3 1.4-1 0-1.4-3.3-.6-3.3-2.2 0-.9 1-1.2 1.7-1.2.9 0 1.8.3 1.8 1.4 0 .1-.1.1-.2.1s-.1-.1-.1-.2c0-.2-.1-.4-.2-.6-.3-.3-.8-.4-1.2-.4-.5 0-1.4.1-1.4.7.2 1.3 3.5.5 3.5 2.3zm5.8.4c-.4.7-1.1 1.1-1.8 1.1-1.3 0-2.2-1.2-2.2-2.4s.9-2.4 2.2-2.4c.6 0 1.2.3 1.6.7.1.1.3.4.3.4 0 .1-.1.2-.2.2s-.1 0-.1-.1c-.3-.5-.9-.9-1.5-.9-1.1 0-1.8.9-1.8 2s.7 2 1.8 2c.6 0 1.2-.4 1.5-.9l.1-.1c.1.2.1.2.1.4 0-.1 0-.1 0 0zm4-3.5c0 .1-.1.2-.1.2-1.2.1-1.7 1.1-1.7 2.2v1.8c0 .1-.1.2-.2.2s-.2-.1-.2-.2v-4.2c0-.1.1-.2.2-.2s.2.1.2.2v.9c.3-.5.9-1 1.6-1 .1 0 .2 0 .2.1zm2.2-1.1c-.1 0-.3-.1-.3-.3s.1-.3.3-.3c.1 0 .3.1.3.3 0 .1-.2.3-.3.3zm.2 1.2v4.2c0 .1-.1.2-.2.2s-.2-.1-.2-.2v-4.2c0-.1.1-.2.2-.2s.2.1.2.2zm6.5 2.1c0 1.2-.9 2.4-2.2 2.4-.8 0-1.5-.5-2-1.2v3.5c0 .1-.1.2-.2.2s-.2-.1-.2-.2v-6.9c0-.1.1-.2.2-.2s.2.1.2.2v.9c.4-.7 1.1-1.2 2-1.2 1.3.1 2.2 1.2 2.2 2.5zm-.4 0c0-1-.7-2-1.8-2s-1.8.9-1.8 2 .7 2 1.8 2c1.1-.1 1.8-1 1.8-2zm4.2-2.3c.1 0 .2.1.2.2s-.1.2-.2.2h-1v4c0 .1-.1.2-.2.2s-.2-.1-.2-.2v-4h-1c-.1 0-.2-.1-.2-.2s.1-.2.2-.2h1v-1.5c0-.1.1-.2.2-.2s.2.1.2.2v1.5h1zm1.9 2.1c0-.1 0-.1.1-.1l2.8-1.9-2.8-1.9-.1-.1s.1-.2.2-.2.1 0 .1.1l3 2 .1.1s0 .1-.1.2l-3 2h-.1c-.1 0-.2-.2-.2-.2z"/><path stroke="#000" stroke-width=".863" stroke-miterlimit="10" d="M55.7 73h-2.2c-1 0-1.7.9-1.7 1.8v7.9c0 .7 0 1.6-.4 2.1.4.5.4 1.4.4 2.1v7.8c0 .9.7 1.8 1.7 1.8h2.2c.2 0 .4.2.4.4s-.2.4-.4.4h-2.2c-1.4 0-2.6-1.2-2.6-2.7v-7.8c0-1.2.2-1.7-1.1-1.7-.4 0-.9.1-.9-.4 0-.2.1-.4.4-.4 1.6 0 1.6.1 1.6-1.6v-7.8c0-1.4 1.2-2.7 2.6-2.7h2.2c.2 0 .4.2.4.4.1.3-.1.4-.4.4zm14.8 9.9c0-.2.2-.4.4-.4h8.7c.2 0 .4.2.4.4s-.2.4-.4.4h-8.7c-.3 0-.4-.2-.4-.4zm0 3.3c0-.2.2-.4.4-.4h8.7c.2 0 .4.2.4.4s-.2.4-.4.4h-8.7c-.3 0-.4-.2-.4-.4zm22.7-14.1h2.2c1.4 0 2.6 1.2 2.6 2.7v7.8c0 1.7 0 1.6 1.6 1.6.2 0 .4.2.4.4 0 .6-.6.4-.9.4-1.2 0-1.1.5-1.1 1.7v7.8c0 1.4-1.2 2.7-2.6 2.7h-2.2c-.2 0-.4-.2-.4-.4s.2-.4.4-.4h2.2c1 0 1.7-.9 1.7-1.8v-7.8c0-.7 0-1.6.4-2.1-.4-.5-.4-1.4-.4-2.1v-7.8c0-.9-.7-1.8-1.7-1.8h-2.2c-.2 0-.4-.2-.4-.4s.2-.5.4-.5z"/><path d="M18.5 26.6h114.1v19.9H18.5V26.6z"/><path fill="#fff" stroke="#fff" stroke-miterlimit="10" d="M24.5 40.9c-1.4-.9-1.9-2.9-1.9-4.4s.5-3.5 1.9-4.4c.4-.2.8-.4 1.2-.4.9 0 1.7.7 2.2 1.4.1.1.4.7.4.8s-.1.2-.2.2-.1-.1-.2-.1c-.4-.9-1.1-1.9-2.2-1.9-.4 0-.7.1-1 .4-1.2.8-1.7 2.7-1.7 4s.5 3.3 1.7 4c.3.2.7.3 1 .3 1.2 0 1.8-1 2.2-1.9 0-.1.1-.1.2-.1s.2.1.2.2-.3.7-.4.8c-.5.8-1.3 1.4-2.2 1.4-.4.1-.8-.1-1.2-.3zm10.8-2.2c0 1.4-1 2.7-2.5 2.7s-2.5-1.2-2.5-2.7c0-1.4 1-2.7 2.5-2.7s2.5 1.3 2.5 2.7zm-.4 0c0-1.2-.8-2.2-2-2.2s-2 1.1-2 2.2c0 1.2.9 2.2 2 2.2 1.1-.1 2-1.1 2-2.2zm7.3-6.6V41c0 .1-.1.2-.2.2s-.2-.1-.2-.2v-.9c-.4.8-1.2 1.3-2.1 1.3-1.4 0-2.5-1.3-2.5-2.7s1-2.7 2.5-2.7c.9 0 1.7.6 2.1 1.3v-5.2c0-.1.1-.2.2-.2s.2.1.2.2zm-.6 6.6c0-1.2-.8-2.2-2-2.2s-2 1.1-2 2.2.9 2.2 2 2.2c1.3 0 2-1.1 2-2.2zm7.5 0c0 .1-.1.2-.2.2h-4.2c.1 1 .9 2 2 2 .7 0 1.3-.3 1.7-.9.1-.1.1-.1.2-.1s.2.1.2.2v.1c-.4.7-1.3 1.1-2.1 1.1-1.4 0-2.5-1.3-2.5-2.7s1-2.7 2.5-2.7 2.4 1.4 2.4 2.8zm-.4-.2c-.1-1-.9-2-2-2s-1.9.9-2 2h4zm7 2.5v-9c0-.1.1-.2.2-.2H58c1.2 0 2.1 1.2 2.1 2.3 0 .8-.4 1.6-1.2 2 1 .4 1.7 1.3 1.7 2.5 0 1.4-1.2 2.6-2.7 2.6h-2.1c-.1 0-.1-.1-.1-.2zm2.2-8.8H56V36h1.8c1 0 1.7-.9 1.7-1.9.1-.9-.6-1.9-1.6-1.9zm.1 4.2h-2v4.3h2c1.2 0 2.2-.9 2.2-2.2s-1-2.1-2.2-2.1zm9.6 0V41c0 .1-.1.2-.2.2s-.2-.1-.2-.2v-.9c-.4.8-1.2 1.3-2.1 1.3-1.4 0-2.5-1.3-2.5-2.7s1-2.7 2.5-2.7c.9 0 1.7.6 2.1 1.3v-1c0-.1.1-.2.2-.2s.2.1.2.3zm-.5 2.3c0-1.2-.8-2.2-2-2.2s-2 1.1-2 2.2.9 2.2 2 2.2 2-1.1 2-2.2zm6.6 1.1c0 1.1-1.2 1.6-2 1.6-1 0-2.1-.4-2.1-1.6 0-.2 0-.4.3-.4.1 0 .1.1.1.2 0 1 .8 1.2 1.7 1.2.7 0 1.6-.4 1.6-1.2 0-1.5-3.7-.7-3.7-2.4 0-1 1.2-1.3 2-1.3.9 0 2 .4 2 1.5 0 .1-.1.2-.2.2s-.2-.1-.2-.2c0-.2-.1-.4-.2-.6-.3-.4-.9-.4-1.4-.4s-1.5.1-1.5.9c0 1.4 3.6.5 3.6 2.5zm6.9-1.1c0 .1-.1.2-.2.2h-4.3c.1 1 .9 2 2 2 .7 0 1.3-.3 1.7-.9.1-.1.1-.1.2-.1s.2.1.2.2v.1c-.4.7-1.3 1.1-2.1 1.1-1.4 0-2.5-1.3-2.5-2.7s1-2.7 2.5-2.7 2.5 1.4 2.5 2.8zm-.4-.2c-.1-1-.9-2-2-2s-1.9.9-2 2h4zm8.7 2.4C87.5 40 87 38 87 36.5s.5-3.5 1.9-4.4c.4-.2.8-.4 1.2-.4.9 0 1.7.7 2.2 1.4.1.1.4.7.4.8s-.1.2-.2.2-.1-.1-.2-.1c-.4-.9-1.1-1.9-2.2-1.9-.4 0-.7.1-1 .4-1.2.8-1.7 2.7-1.7 4s.5 3.3 1.7 4c.3.2.7.3 1 .3 1.2 0 1.8-1 2.2-1.9 0-.1.1-.1.2-.1s.2.1.2.2-.3.7-.4.8c-.5.8-1.3 1.4-2.2 1.4-.3.1-.8-.1-1.2-.3zm8.4-4.5c0 .1-.1.2-.2.2-1.2.2-1.8 1.2-1.8 2.4v2c0 .1-.1.2-.2.2s-.2-.1-.2-.2v-4.6c0-.1.1-.2.2-.2s.2.1.2.2v.9c.4-.6 1-1.2 1.8-1.2 0 0 .2.1.2.3zm6.2 2.3c0 .1-.1.2-.2.2H99c.1 1 .9 2 2 2 .7 0 1.3-.3 1.7-.9.1-.1.1-.1.2-.1s.2.1.2.2v.1c-.4.7-1.3 1.1-2.1 1.1-1.4 0-2.5-1.3-2.5-2.7s1-2.7 2.5-2.7c1.6.1 2.5 1.4 2.5 2.8zm-.5-.2c-.1-1-.9-2-2-2s-1.9.9-2 2h4zm7.4-2.1V41c0 .1-.1.2-.2.2s-.2-.1-.2-.2v-.9c-.4.8-1.2 1.3-2.1 1.3-1.4 0-2.5-1.3-2.5-2.7s1-2.7 2.5-2.7c.9 0 1.7.6 2.1 1.3v-1c0-.1.1-.2.2-.2.2 0 .2.1.2.3zm-.5 2.3c0-1.2-.8-2.2-2-2.2s-2 1.1-2 2.2.9 2.2 2 2.2c1.2 0 2-1.1 2-2.2zm5.2-2.6c.1 0 .2.1.2.2s-.1.2-.2.2h-1.2V41c0 .1-.1.2-.2.2s-.2-.1-.2-.2v-4.5h-1.1c-.1 0-.2-.1-.2-.2s.1-.2.2-.2h1.1v-1.7c0-.1.1-.2.2-.2s.2.1.2.2v1.7h1.2zm2.4-1.1c-.2 0-.4-.1-.4-.4s.1-.4.4-.4c.2 0 .4.1.4.4s-.2.4-.4.4zm.2 1.4V41c0 .1-.1.2-.2.2s-.2-.1-.2-.2v-4.6c0-.1.1-.2.2-.2.1-.1.2.1.2.2zm7.1 2.3c0 1.4-1 2.7-2.5 2.7-1.4 0-2.5-1.3-2.5-2.7s1-2.7 2.5-2.7c1.4 0 2.5 1.3 2.5 2.7zm-.5 0c0-1.2-.8-2.2-2-2.2s-2 1.1-2 2.2c0 1.2.9 2.2 2 2.2 1.2-.1 2-1.1 2-2.2zm6.6-.5v2.7c0 .1-.1.2-.2.2s-.2-.1-.2-.2v-2.7c0-.9-.5-1.8-1.5-1.8-1.3 0-1.7 1.2-1.7 2.4v2.1c0 .1-.1.2-.2.2s-.2-.1-.2-.2v-4.6c0-.1.1-.2.2-.2s.2.1.2.2v.7c.4-.7 1-1.1 1.7-1.1 1.2.1 1.9 1.2 1.9 2.3z"/></svg>