<?xml version="1.0" encoding="utf-8"?>
<!-- Generator: Adobe Illustrator 17.1.0, SVG Export Plug-In . SVG Version: 6.00 Build 0)  -->
<!DOCTYPE svg PUBLIC "-//W3C//DTD SVG 1.1//EN" "http://www.w3.org/Graphics/SVG/1.1/DTD/svg11.dtd">
<svg version="1.1" id="Layer_1" xmlns="http://www.w3.org/2000/svg" xmlns:xlink="http://www.w3.org/1999/xlink" x="0px" y="0px"
	 viewBox="0 -1 200 152" enable-background="new 0 -1 200 152" xml:space="preserve">
<path fill="#D6C965" stroke="#232323" stroke-width="2.5" stroke-linecap="round" stroke-linejoin="round" stroke-miterlimit="10" d="
	M154.1,99.5l1.4,41.2c0,0-57.6,3.5-115,0l1.4-40.5"/>
<path fill="#D6C965" stroke="#232323" stroke-width="2.5" stroke-linecap="round" stroke-linejoin="round" stroke-miterlimit="10" d="
	M39.6,62.7h116.6v36H39.6L39.6,62.7z"/>
<path fill="none" stroke="#232323" stroke-width="2" stroke-linecap="round" stroke-linejoin="round" stroke-miterlimit="10" d="
	M82.7,60.6c0,0-0.7-3.9,0-4.8c2.5-3.4,12-3.5,16.1-3.5c4.1,0,13.6,0.2,16.1,3.5c0.7,0.9,0,4.8,0,4.8"/>
<path fill="#F7F7EB" d="M75.6,125.3l-3.4,3l-3.5-3V60.6h6.9V125.3z"/>
<path fill="#232323" d="M74.9,90.3c-0.2,4.6-0.2,12.4,0,17h-5.7c0.2-4.6,0.2-12.4,0-17H74.9z M77.2,87.5C77,87.8,74.6,88,72.1,88
	S67,87.8,67,87.5c0.4,0.7,0.4,21.9,0,22.4c0.2-0.4,2.7-0.5,5.1-0.5s5.1,0.2,5.1,0.5C77,109.4,77,88.2,77.2,87.5z"/>
<path fill="#F7F7EB" d="M128.4,125.3l-3.4,3l-3.4-3V60.6h6.7V125.3z"/>
<path fill="#232323" d="M127.9,90.3c-0.2,4.6-0.2,12.4,0,17h-5.7c0.2-4.6,0.2-12.4,0-17H127.9z M130.4,87.5
	c-0.2,0.4-2.7,0.5-5.1,0.5c-2.5,0-5.1-0.2-5.3-0.5c0.4,0.7,0.4,21.9,0,22.4c0.2-0.4,2.7-0.5,5.1-0.5c2.5,0,5.1,0.2,5.1,0.5
	C130,109.4,130,88.2,130.4,87.5z"/>
<path fill="none" stroke="#232323" stroke-width="1.063" stroke-linecap="round" stroke-linejoin="round" stroke-miterlimit="10" stroke-dasharray="0.5315,4.2518" d="
	M125.1,77.2v42.9 M72.1,77.2v42.9"/>
</svg>
