<?xml version="1.0" encoding="utf-8"?>
<!-- Generator: Adobe Illustrator 17.1.0, SVG Export Plug-In . SVG Version: 6.00 Build 0)  -->
<!DOCTYPE svg PUBLIC "-//W3C//DTD SVG 1.1//EN" "http://www.w3.org/Graphics/SVG/1.1/DTD/svg11.dtd">
<svg version="1.1" id="Layer_1" xmlns="http://www.w3.org/2000/svg" xmlns:xlink="http://www.w3.org/1999/xlink" x="0px" y="0px"
	 viewBox="-40 -38 223 185.5" enable-background="new -40 -38 223 185.5" xml:space="preserve">
<path fill="#FFFFFF" stroke="#000000" stroke-width="1.8799" stroke-linecap="round" stroke-linejoin="round" stroke-miterlimit="10" d="
	M58.3,54.7c0-7.1,5.8-12.8,12.8-12.8S84,47.6,84,54.7"/>
<path fill="none" stroke="#000000" stroke-width="1.8799" stroke-linecap="round" stroke-linejoin="round" stroke-miterlimit="10" d="
	M51.7,54c0-10.6,6.6-19.5,19.5-19.5c13.7,0,19.5,8.6,19.5,19.5"/>
<path fill="#E4F9ED" d="M-30.7,114.7c-4.2,14.4,6.9,25.5,23.7,23.7c-3.1,1.8,157.2,1.8,154.1,0c16.8,1.8,27.9-9.3,23.7-23.7
	c4.2,0.7,4.2-34.8,0-34.1c4.2-14.4-6.9-25.5-23.7-23.7c3.1-1.8-157.2-1.8-154.1,0c-16.8-1.8-27.9,9.3-23.7,23.7
	C-34.9,79.7-34.9,115.4-30.7,114.7z"/>
<path fill="none" stroke="#000000" stroke-width="4" stroke-linecap="round" stroke-linejoin="round" stroke-miterlimit="10" d="
	M-30.7,113.7c-4.2,14.4,6.9,25.5,23.7,23.7c-3.1,1.8,157.2,1.8,154.1,0c16.8,1.8,27.9-9.3,23.7-23.7c4.2,0.7,4.2-34.8,0-34.1
	c4.2-14.4-6.9-25.5-23.7-23.7c3.1-1.8-157.2-1.8-154.1,0c-16.8-1.8-27.9,9.3-23.7,23.7C-34.9,78.7-34.9,114.4-30.7,113.7z"/>
<path fill="#FFFFFF" stroke="#000000" stroke-width="1.5947" stroke-linecap="round" stroke-linejoin="round" stroke-miterlimit="10" d="
	M2.3,55.8h9.5v81.8H2.3V55.8z"/>
<path fill="none" stroke="#101010" stroke-width="3.3463" stroke-linecap="round" stroke-linejoin="round" stroke-miterlimit="10" d="
	M36.8,99.6c22.6,1.1,45,1.1,67.5,0"/>
<path fill="none" stroke="#FFFFFF" stroke-width="1.2809" stroke-linecap="round" stroke-linejoin="round" stroke-miterlimit="10" stroke-dasharray="0.6406,3.8436" d="
	M38.8,99.9c21.5,1.1,43,1.1,64.4,0"/>
<path fill="none" stroke="#000000" stroke-width="2.939" stroke-linecap="round" stroke-miterlimit="10" d="M103.3,99.9v9.7
	 M26.2,57.6v10"/>
<path fill="#FFFFFF" stroke="#000000" stroke-width="1.5947" stroke-linecap="round" stroke-linejoin="round" stroke-miterlimit="10" d="
	M127.6,55.8h9.5v81.8h-9.5V55.8z"/>
<path fill="none" stroke="#000000" stroke-width="2" stroke-linecap="round" stroke-linejoin="round" stroke-miterlimit="10" d="
	M-765.9-1052.1h1806.7v2427.7H-765.9V-1052.1z"/>
</svg>
