<svg xmlns="http://www.w3.org/2000/svg" viewBox="0 183 500 136" enable-background="new 0 183 500 136"><path fill="#839B9E" d="M363.3 225.6l7.9 8.5 5.8-8.5zM193.5 226.2l7.8 8.6 5.8-8.6zM307.6 226.2l-6.2 6.4-7.4-6.4zM477.5 225.6l-6.2 6.3-7.4-6.3z"/><circle fill="#fff" stroke="#000" stroke-width=".773" stroke-miterlimit="10" cx="249.6" cy="254.1" r="56.4"/><path fill="#839B9E" d="M136.5 226.3l-6.1 6.4-7.5-6.4z"/><circle fill="#fff" stroke="#000" stroke-width=".773" stroke-miterlimit="10" cx="421.2" cy="253.7" r="56.4"/><path fill="#839B9E" d="M36.1 218.1l6 6.5 4.5-6.5zM135.9 218.1l-6.2 6.3-7.4-6.3zM22.5 226.3l7.8 8.5 5.8-8.5z"/><circle fill="#fff" stroke="#000" stroke-width=".773" stroke-miterlimit="10" cx="79.6" cy="254" r="56.4"/><path d="M22.5 206.4h114.1v19.9H22.5z"/><circle cx="79.3" cy="245.4" r="5.1"/><circle cx="54.1" cy="265" r="3"/><circle cx="67.3" cy="265" r="3"/><circle cx="91.3" cy="265" r="3"/><circle cx="104.2" cy="265" r="3"/><circle cx="67.6" cy="286.1" r="2.4"/><circle cx="79.3" cy="286.3" r="2.4"/><circle cx="90.7" cy="286.3" r="2.4"/><path stroke="#000" stroke-width=".511" stroke-miterlimit="10" fill="none" d="M79.3 248.5v8.4l-25.1-3-.1 10.1M91.5 255.9l-.2 9.1"/><path d="M235.2 242.8l-3-2c-.1-.1-.1-.1-.1-.2s0-.1.1-.1l3-2c.1 0 .1-.1.1-.1.1 0 .2.1.2.2s0 .1-.1.1l-2.8 1.9 2.8 1.9c.1 0 .1.1.1.1 0 .1-.1.2-.2.2h-.1zM241.1 243.9c0 .9-1 1.4-1.9 1.4-.9 0-1.9-.4-1.9-1.4 0-.1 0-.3.2-.3.1 0 .1.1.1.2 0 .9.7 1.2 1.5 1.2.7 0 1.4-.3 1.4-1 0-1.4-3.3-.6-3.3-2.2 0-.9 1-1.2 1.7-1.2.9 0 1.8.3 1.8 1.4 0 .1-.1.1-.2.1s-.1-.1-.1-.2c0-.2-.1-.4-.2-.6-.3-.3-.8-.4-1.2-.4-.5 0-1.4.1-1.4.7.2 1.2 3.5.5 3.5 2.3zM246.9 244.1c-.4.7-1.1 1.1-1.8 1.1-1.3 0-2.2-1.2-2.2-2.4s.9-2.4 2.2-2.4c.6 0 1.2.3 1.6.7.1.1.3.4.3.4s-.1.2-.2.2-.1 0-.1-.1c-.3-.5-.9-.9-1.5-.9-1.1 0-1.8.9-1.8 2 0 1 .7 2 1.8 2 .6 0 1.2-.4 1.5-.9l.1-.1c.1.2.2.3.1.4.1 0 0 0 0 0zM251 240.8c0 .1-.1.2-.1.2-1.2.1-1.7 1.1-1.7 2.2v1.8c0 .1-.1.2-.2.2s-.2-.1-.2-.2v-4.2c0-.1.1-.2.2-.2s.2.1.2.2v.9c.3-.5.9-1 1.6-1 .1-.2.2-.1.2.1zM253.1 239.5c-.1 0-.3-.1-.3-.3s.1-.3.3-.3c.1 0 .3.1.3.3 0 .2-.1.3-.3.3zm.3 1.3v4.2c0 .1-.1.2-.2.2s-.2-.1-.2-.2v-4.2c0-.1.1-.2.2-.2 0 0 .2.1.2.2zM259.9 242.8c0 1.2-.9 2.4-2.2 2.4-.8 0-1.5-.5-2-1.2v3.5c0 .1-.1.2-.2.2s-.2-.1-.2-.2v-6.9c0-.1.1-.2.2-.2s.2.1.2.2v.9c.4-.7 1.1-1.2 2-1.2 1.2.2 2.2 1.3 2.2 2.5zm-.4 0c0-1-.7-2-1.8-2s-1.8.9-1.8 2c0 1 .7 2 1.8 2 1 .1 1.8-.9 1.8-2zM263.7 240.5c.1 0 .2.1.2.2s-.1.2-.2.2h-1v4c0 .1-.1.2-.2.2s-.2-.1-.2-.2v-4h-1c-.1 0-.2-.1-.2-.2s.1-.2.2-.2h1V239c0-.1.1-.2.2-.2s.2.1.2.2v1.5h1zM265.6 242.6c0-.1 0-.1.1-.1l2.8-1.9-2.8-1.9-.1-.1s.1-.2.2-.2.1 0 .1.1l3 2 .1.1s0 .1-.1.2l-3 2h-.1c-.2 0-.2 0-.2-.2zM232 287.5l-3-2c-.1-.1-.1-.1-.1-.2s0-.1.1-.1l3-2c.1 0 .1-.1.1-.1.1 0 .2.1.2.2s0 .1-.1.1l-2.8 1.9 2.8 1.9c.1 0 .1.1.1.1 0 .1-.1.2-.2.2-.1.1-.1.1-.1 0zM234.2 289.7c0-.1 2.2-7.5 2.5-8.1 0-.1.1-.1.1-.1.1 0 .2.1.2.2s-2.2 7.5-2.5 8.1c0 .1-.1.1-.1.1-.1 0-.2-.1-.2-.2zM242.6 288.5c0 .9-1 1.4-1.9 1.4-.9 0-1.9-.4-1.9-1.4 0-.1 0-.3.2-.3.1 0 .1.1.1.2 0 .9.7 1.2 1.5 1.2.7 0 1.4-.3 1.4-1 0-1.4-3.3-.6-3.3-2.2 0-.9 1-1.2 1.7-1.2.9 0 1.8.3 1.8 1.4 0 .1-.1.1-.2.1s-.1-.1-.1-.2c0-.2-.1-.4-.2-.6-.3-.3-.8-.4-1.2-.4-.5 0-1.4.1-1.4.7.2 1.3 3.5.5 3.5 2.3zM248.4 288.9c-.4.7-1.1 1.1-1.8 1.1-1.3 0-2.2-1.2-2.2-2.4s.9-2.4 2.2-2.4c.6 0 1.2.3 1.6.7.1.1.3.4.3.4 0 .1-.1.2-.2.2s-.1 0-.1-.1c-.3-.5-.9-.9-1.5-.9-1.1 0-1.8.9-1.8 2s.7 2 1.8 2c.6 0 1.2-.4 1.5-.9l.1-.1c.1.2.1.2.1.4 0-.1 0-.1 0 0zM252.4 285.4c0 .1-.1.2-.1.2-1.2.1-1.7 1.1-1.7 2.2v1.8c0 .1-.1.2-.2.2s-.2-.1-.2-.2v-4.2c0-.1.1-.2.2-.2s.2.1.2.2v.9c.3-.5.9-1 1.6-1 .1 0 .2 0 .2.1zM254.6 284.3c-.1 0-.3-.1-.3-.3s.1-.3.3-.3c.1 0 .3.1.3.3 0 .1-.2.3-.3.3zm.2 1.2v4.2c0 .1-.1.2-.2.2s-.2-.1-.2-.2v-4.2c0-.1.1-.2.2-.2s.2.1.2.2zM261.3 287.6c0 1.2-.9 2.4-2.2 2.4-.8 0-1.5-.5-2-1.2v3.5c0 .1-.1.2-.2.2s-.2-.1-.2-.2v-6.9c0-.1.1-.2.2-.2s.2.1.2.2v.9c.4-.7 1.1-1.2 2-1.2 1.3.1 2.2 1.2 2.2 2.5zm-.4 0c0-1-.7-2-1.8-2s-1.8.9-1.8 2 .7 2 1.8 2c1.1-.1 1.8-1 1.8-2zM265.1 285.3c.1 0 .2.1.2.2s-.1.2-.2.2h-1v4c0 .1-.1.2-.2.2s-.2-.1-.2-.2v-4h-1c-.1 0-.2-.1-.2-.2s.1-.2.2-.2h1v-1.5c0-.1.1-.2.2-.2s.2.1.2.2v1.5h1zM267 287.4c0-.1 0-.1.1-.1l2.8-1.9-2.8-1.9-.1-.1s.1-.2.2-.2.1 0 .1.1l3 2 .1.1s0 .1-.1.2l-3 2h-.1c-.1 0-.2-.2-.2-.2z"/><circle cx="79.1" cy="265.3" r="3"/><path stroke="#000" stroke-width=".773" stroke-miterlimit="10" d="M78.8 300.7" fill="none"/><path stroke="#000" stroke-width=".511" stroke-miterlimit="10" d="M105.1 265v-10l-25.7 1.9.1 29.1M67.3 265l.3-9.5M67.9 286.1l-.3-9.9 11.7 2.6 11.4-2.2-.2 9.5" fill="none"/><g stroke="#000" stroke-width=".863" stroke-miterlimit="10"><path d="M230.7 252.6h-2.2c-1 0-1.7.9-1.7 1.8v7.9c0 .7 0 1.6-.4 2.1.4.5.4 1.4.4 2.1v7.8c0 .9.7 1.8 1.7 1.8h2.2c.2 0 .4.2.4.4s-.2.4-.4.4h-2.2c-1.4 0-2.6-1.2-2.6-2.7v-7.8c0-1.2.2-1.7-1.1-1.7-.4 0-.9.1-.9-.4 0-.2.1-.4.4-.4 1.6 0 1.6.1 1.6-1.6v-7.8c0-1.4 1.2-2.7 2.6-2.7h2.2c.2 0 .4.2.4.4.1.3-.1.4-.4.4zM245.5 262.5c0-.2.2-.4.4-.4h8.7c.2 0 .4.2.4.4s-.2.4-.4.4h-8.7c-.3 0-.4-.2-.4-.4zm0 3.3c0-.2.2-.4.4-.4h8.7c.2 0 .4.2.4.4s-.2.4-.4.4h-8.7c-.3 0-.4-.2-.4-.4zM268.2 251.7h2.2c1.4 0 2.6 1.2 2.6 2.7v7.8c0 1.7 0 1.6 1.6 1.6.2 0 .4.2.4.4 0 .6-.6.4-.9.4-1.2 0-1.1.5-1.1 1.7v7.8c0 1.4-1.2 2.7-2.6 2.7h-2.2c-.2 0-.4-.2-.4-.4s.2-.4.4-.4h2.2c1 0 1.7-.9 1.7-1.8v-7.8c0-.7 0-1.6.4-2.1-.4-.5-.4-1.4-.4-2.1v-7.8c0-.9-.7-1.8-1.7-1.8h-2.2c-.2 0-.4-.2-.4-.4s.2-.5.4-.5z"/></g><path stroke="#000" stroke-width=".746" stroke-miterlimit="10" fill="none" d="M393.9 255.5h54.4v26.3h-54.4zM393.9 247.8h54.4v7.7h-54.4z"/><path fill="#fff" stroke="#000" stroke-width=".746" stroke-miterlimit="10" d="M398.8 251.7h4.3v7.5h-4.3z"/><path d="M413.7 241h15.1v3.1h-15.1z"/><path stroke="#000" stroke-width=".746" stroke-miterlimit="10" fill="none" d="M411.2 248v-5.4h2.5M431.1 248v-5.4h-2.3"/><path fill="#fff" stroke="#000" stroke-width=".746" stroke-miterlimit="10" d="M438.6 251.7h4.3v7.5h-4.3z"/><g fill="#fff" stroke="#fff" stroke-miterlimit="10"><path d="M36.1 215.2c1.4.5 2.9 1.3 2.9 3 0 1.6-1.2 2.6-2.7 2.6-1.7 0-2.9-1.2-2.9-2.8 0-.1.1-.2.2-.2s.2.1.2.2v.4c.1.7.4 1.2 1 1.6.4.3.9.4 1.4.4 1.3 0 2.2-.8 2.2-2.2 0-1.4-1.4-2.2-2.5-2.5-1.2-.4-2.6-1-2.6-2.5 0-1.4 1.2-2.4 2.5-2.4 1.5 0 2.7 1.1 2.7 2.6 0 .1-.1.2-.2.2s-.2-.1-.2-.2c0-.2 0-.4-.1-.7-.3-1-1-1.5-2-1.5-1.1 0-2.1.8-2.1 2s1.2 1.7 2.2 2zM41.5 214.2c-.2 0-.4-.1-.4-.4 0-.2.1-.4.4-.4s.4.1.4.4c-.1.2-.2.4-.4.4zm.2 1.4v4.8c0 .1-.1.2-.2.2s-.2-.1-.2-.2v-4.8c0-.1.1-.2.2-.2s.2.1.2.2zM46.8 215.3c.1 0 .2.1.2.2s-.1.2-.2.2h-1.2v4.7c0 .1-.1.2-.2.2s-.2-.1-.2-.2v-4.7H44c-.1 0-.2-.1-.2-.2s.1-.2.2-.2h1.2v-1.7c0-.1.1-.2.2-.2s.2.1.2.2v1.7h1.2zM53.4 218c0 .1-.1.2-.2.2h-4.4c.1 1.1.9 2.1 2.1 2.1.8 0 1.4-.3 1.8-.9.1-.1.1-.1.2-.1s.2.1.2.2v.1c-.4.8-1.3 1.2-2.2 1.2-1.5 0-2.5-1.3-2.5-2.7 0-1.4 1.1-2.7 2.5-2.7 1.4-.2 2.5 1.1 2.5 2.6zm-.5-.2c-.1-1.1-.9-2.1-2.1-2.1s-2 1-2.1 2.1h4.2zM60.1 220.4c0-.1 2.9-8.9 3.1-9.6 0-.1.1-.1.2-.1s.2.1.2.1c.2.7 3.1 9.5 3.1 9.6 0 .1-.1.2-.2.2s-.2-.1-.2-.1l-1.2-3.7h-3.5l-1.2 3.7c0 .1-.1.1-.2.1.1.1-.1-.1-.1-.2zm1.8-4H65l-1.6-4.8-1.5 4.8zM71.5 215.5c0 .1-.1.2-.2.2-1.3.2-1.9 1.2-1.9 2.5v2.1c0 .1-.1.2-.2.2s-.2-.1-.2-.2v-4.8c0-.1.1-.2.2-.2s.2.1.2.2v1c.4-.7 1.1-1.2 1.9-1.2.1 0 .2.1.2.2zM77.5 219.5c-.4.7-1.2 1.2-2.1 1.2-1.5 0-2.5-1.3-2.5-2.7 0-1.4 1.1-2.7 2.5-2.7.7 0 1.4.3 1.8.8.1.1.3.4.3.5 0 .1-.1.2-.2.2s-.1 0-.1-.1c-.4-.6-1-1-1.7-1-1.2 0-2.1 1.2-2.1 2.3 0 1.2.9 2.3 2.1 2.3.7 0 1.4-.4 1.7-1 .1-.1.1-.1.2-.1s.2.1.2.2c0 0 0 .1-.1.1zM84.1 217.6v2.8c0 .1-.1.2-.2.2s-.2-.1-.2-.2v-2.8c0-.9-.5-1.9-1.6-1.9-1.4 0-2 1.2-1.9 2.4V220.4c0 .1-.1.2-.2.2s-.2-.1-.2-.2v-9.2c0-.1.1-.2.2-.2s.2.1.2.2v5.3c.4-.7 1.1-1.2 1.9-1.2 1.2-.1 2 1.1 2 2.3zM86.6 214.2c-.2 0-.4-.1-.4-.4 0-.2.1-.4.4-.4s.4.1.4.4c-.1.2-.2.4-.4.4zm.2 1.4v4.8c0 .1-.1.2-.2.2s-.2-.1-.2-.2v-4.8c0-.1.1-.2.2-.2 0 0 .2.1.2.2zM91.8 215.3c.1 0 .2.1.2.2s-.1.2-.2.2h-1.2v4.7c0 .1-.1.2-.2.2s-.2-.1-.2-.2v-4.7H89c-.1 0-.2-.1-.2-.2s.1-.2.2-.2h1.2v-1.7c0-.1.1-.2.2-.2s.2.1.2.2v1.7h1.2zM98.4 218c0 .1-.1.2-.2.2h-4.4c.1 1.1.9 2.1 2.1 2.1.8 0 1.4-.3 1.8-.9.1-.1.1-.1.2-.1s.2.1.2.2v.1c-.4.8-1.3 1.2-2.2 1.2-1.5 0-2.5-1.3-2.5-2.7 0-1.4 1.1-2.7 2.5-2.7s2.5 1.1 2.5 2.6zm-.4-.2c-.1-1.1-.9-2.1-2.1-2.1s-2 1-2.1 2.1H98zM105.1 219.5c-.4.7-1.2 1.2-2.1 1.2-1.5 0-2.5-1.3-2.5-2.7 0-1.4 1.1-2.7 2.5-2.7.7 0 1.4.3 1.8.8.1.1.3.4.3.5 0 .1-.1.2-.2.2s-.1 0-.1-.1c-.4-.6-1-1-1.7-1-1.2 0-2.1 1.2-2.1 2.3 0 1.2.9 2.3 2.1 2.3.7 0 1.4-.4 1.7-1 .1-.1.1-.1.2-.1s.2.1.2.2c0 0 0 .1-.1.1zM110.1 215.3c.1 0 .2.1.2.2s-.1.2-.2.2h-1.2v4.7c0 .1-.1.2-.2.2s-.2-.1-.2-.2v-4.7h-1.2c-.1 0-.2-.1-.2-.2s.1-.2.2-.2h1.2v-1.7c0-.1.1-.2.2-.2s.2.1.2.2v1.7h1.2zM116.4 215.6v4.8c0 .1-.1.2-.2.2s-.2-.1-.2-.2v-.9c-.4.7-1 1.2-1.9 1.2-1.3 0-2-1.2-2-2.4v-2.8c0-.1.1-.2.2-.2s.2.1.2.2v2.8c0 .9.5 1.9 1.6 1.9 1.5 0 1.9-1.4 1.9-3v-1.8c0-.1.1-.2.2-.2.1.2.2.3.2.4zM121.1 215.5c0 .1-.1.2-.2.2-1.3.2-1.9 1.2-1.9 2.5v2.1c0 .1-.1.2-.2.2s-.2-.1-.2-.2v-4.8c0-.1.1-.2.2-.2s.2.1.2.2v1c.4-.7 1.1-1.2 1.9-1.2.1 0 .2.1.2.2zM127.6 218c0 .1-.1.2-.2.2H123c.1 1.1.9 2.1 2.1 2.1.8 0 1.4-.3 1.8-.9.1-.1.1-.1.2-.1s.2.1.2.2v.1c-.4.8-1.3 1.2-2.2 1.2-1.5 0-2.5-1.3-2.5-2.7 0-1.4 1.1-2.7 2.5-2.7s2.5 1.1 2.5 2.6zm-.4-.2c-.1-1.1-.9-2.1-2.1-2.1-1.2 0-2 1-2.1 2.1h4.2z"/></g><path d="M193.5 206.2h114.1v19.9H193.5z"/><g fill="#fff" stroke="#fff" stroke-miterlimit="10"><path d="M199.5 220.5c-1.4-.9-1.9-2.9-1.9-4.4s.5-3.5 1.9-4.4c.4-.2.8-.4 1.2-.4.9 0 1.7.7 2.2 1.4.1.1.4.7.4.8s-.1.2-.2.2-.1-.1-.2-.1c-.4-.9-1.1-1.9-2.2-1.9-.4 0-.7.1-1 .4-1.2.8-1.7 2.7-1.7 4s.5 3.3 1.7 4c.3.2.7.3 1 .3 1.2 0 1.8-1 2.2-1.9 0-.1.1-.1.2-.1s.2.1.2.2-.3.7-.4.8c-.5.8-1.3 1.4-2.2 1.4-.4.1-.8-.1-1.2-.3zM210.3 218.3c0 1.4-1 2.7-2.5 2.7s-2.5-1.2-2.5-2.7c0-1.4 1-2.7 2.5-2.7s2.5 1.3 2.5 2.7zm-.4 0c0-1.2-.8-2.2-2-2.2s-2 1.1-2 2.2c0 1.2.9 2.2 2 2.2 1.1-.1 2-1.1 2-2.2zM217.2 211.7v8.9c0 .1-.1.2-.2.2s-.2-.1-.2-.2v-.9c-.4.8-1.2 1.3-2.1 1.3-1.4 0-2.5-1.3-2.5-2.7s1-2.7 2.5-2.7c.9 0 1.7.6 2.1 1.3v-5.2c0-.1.1-.2.2-.2s.2.1.2.2zm-.6 6.6c0-1.2-.8-2.2-2-2.2s-2 1.1-2 2.2.9 2.2 2 2.2c1.3 0 2-1.1 2-2.2zM224.1 218.3c0 .1-.1.2-.2.2h-4.2c.1 1 .9 2 2 2 .7 0 1.3-.3 1.7-.9.1-.1.1-.1.2-.1s.2.1.2.2v.1c-.4.7-1.3 1.1-2.1 1.1-1.4 0-2.5-1.3-2.5-2.7s1-2.7 2.5-2.7 2.4 1.4 2.4 2.8zm-.4-.2c-.1-1-.9-2-2-2s-1.9.9-2 2h4zM230.7 220.6v-9c0-.1.1-.2.2-.2h2.1c1.2 0 2.1 1.2 2.1 2.3 0 .8-.4 1.6-1.2 2 1 .4 1.7 1.3 1.7 2.5 0 1.4-1.2 2.6-2.7 2.6h-2.1c-.1 0-.1-.1-.1-.2zm2.2-8.8H231v3.8h1.8c1 0 1.7-.9 1.7-1.9.1-.9-.6-1.9-1.6-1.9zm.1 4.2h-2v4.3h2c1.2 0 2.2-.9 2.2-2.2s-1-2.1-2.2-2.1zM242.6 216v4.6c0 .1-.1.2-.2.2s-.2-.1-.2-.2v-.9c-.4.8-1.2 1.3-2.1 1.3-1.4 0-2.5-1.3-2.5-2.7s1-2.7 2.5-2.7c.9 0 1.7.6 2.1 1.3v-1c0-.1.1-.2.2-.2s.2.1.2.3zm-.5 2.3c0-1.2-.8-2.2-2-2.2s-2 1.1-2 2.2.9 2.2 2 2.2 2-1.1 2-2.2zM248.7 219.4c0 1.1-1.2 1.6-2 1.6-1 0-2.1-.4-2.1-1.6 0-.2 0-.4.3-.4.1 0 .1.1.1.2 0 1 .8 1.2 1.7 1.2.7 0 1.6-.4 1.6-1.2 0-1.5-3.7-.7-3.7-2.4 0-1 1.2-1.3 2-1.3.9 0 2 .4 2 1.5 0 .1-.1.2-.2.2s-.2-.1-.2-.2c0-.2-.1-.4-.2-.6-.3-.4-.9-.4-1.4-.4-.5 0-1.5.1-1.5.9 0 1.4 3.6.5 3.6 2.5zM255.6 218.3c0 .1-.1.2-.2.2h-4.3c.1 1 .9 2 2 2 .7 0 1.3-.3 1.7-.9.1-.1.1-.1.2-.1s.2.1.2.2v.1c-.4.7-1.3 1.1-2.1 1.1-1.4 0-2.5-1.3-2.5-2.7s1-2.7 2.5-2.7 2.5 1.4 2.5 2.8zm-.4-.2c-.1-1-.9-2-2-2s-1.9.9-2 2h4zM263.9 220.5c-1.4-.9-1.9-2.9-1.9-4.4s.5-3.5 1.9-4.4c.4-.2.8-.4 1.2-.4.9 0 1.7.7 2.2 1.4.1.1.4.7.4.8s-.1.2-.2.2-.1-.1-.2-.1c-.4-.9-1.1-1.9-2.2-1.9-.4 0-.7.1-1 .4-1.2.8-1.7 2.7-1.7 4s.5 3.3 1.7 4c.3.2.7.3 1 .3 1.2 0 1.8-1 2.2-1.9 0-.1.1-.1.2-.1s.2.1.2.2-.3.7-.4.8c-.5.8-1.3 1.4-2.2 1.4-.3.1-.8-.1-1.2-.3zM272.3 216c0 .1-.1.2-.2.2-1.2.2-1.8 1.2-1.8 2.4v2c0 .1-.1.2-.2.2s-.2-.1-.2-.2V216c0-.1.1-.2.2-.2s.2.1.2.2v.9c.4-.6 1-1.2 1.8-1.2 0 0 .2.1.2.3zM278.5 218.3c0 .1-.1.2-.2.2H274c.1 1 .9 2 2 2 .7 0 1.3-.3 1.7-.9.1-.1.1-.1.2-.1s.2.1.2.2v.1c-.4.7-1.3 1.1-2.1 1.1-1.4 0-2.5-1.3-2.5-2.7s1-2.7 2.5-2.7c1.6.1 2.5 1.4 2.5 2.8zm-.5-.2c-.1-1-.9-2-2-2s-1.9.9-2 2h4zM285.4 216v4.6c0 .1-.1.2-.2.2s-.2-.1-.2-.2v-.9c-.4.8-1.2 1.3-2.1 1.3-1.4 0-2.5-1.3-2.5-2.7s1-2.7 2.5-2.7c.9 0 1.7.6 2.1 1.3v-1c0-.1.1-.2.2-.2.2 0 .2.1.2.3zm-.5 2.3c0-1.2-.8-2.2-2-2.2s-2 1.1-2 2.2.9 2.2 2 2.2c1.2 0 2-1.1 2-2.2zM290.1 215.7c.1 0 .2.1.2.2s-.1.2-.2.2h-1.2v4.5c0 .1-.1.2-.2.2s-.2-.1-.2-.2v-4.5h-1.1c-.1 0-.2-.1-.2-.2s.1-.2.2-.2h1.1V214c0-.1.1-.2.2-.2s.2.1.2.2v1.7h1.2zM292.5 214.6c-.2 0-.4-.1-.4-.4s.1-.4.4-.4c.2 0 .4.1.4.4s-.2.4-.4.4zm.2 1.4v4.6c0 .1-.1.2-.2.2s-.2-.1-.2-.2V216c0-.1.1-.2.2-.2.1-.1.2.1.2.2zM299.8 218.3c0 1.4-1 2.7-2.5 2.7-1.4 0-2.5-1.3-2.5-2.7s1-2.7 2.5-2.7c1.4 0 2.5 1.3 2.5 2.7zm-.5 0c0-1.2-.8-2.2-2-2.2s-2 1.1-2 2.2c0 1.2.9 2.2 2 2.2 1.2-.1 2-1.1 2-2.2zM305.9 217.8v2.7c0 .1-.1.2-.2.2s-.2-.1-.2-.2v-2.7c0-.9-.5-1.8-1.5-1.8-1.3 0-1.7 1.2-1.7 2.4v2.1c0 .1-.1.2-.2.2s-.2-.1-.2-.2v-4.6c0-.1.1-.2.2-.2s.2.1.2.2v.7c.4-.7 1-1.1 1.7-1.1 1.2.1 1.9 1.2 1.9 2.3z"/></g><path d="M363.3 205.6h114.1v19.9H363.3z"/><g fill="#fff" stroke="#fff" stroke-miterlimit="10"><path d="M371.4 210.9v6.7c0 1.7-1.2 2.6-2.7 2.6s-2.8-.9-2.8-2.6v-6.7c0-.1.1-.2.2-.2s.2.1.2.2v6.7c0 1.4 1 2.2 2.4 2.2s2.4-.7 2.4-2.2v-6.7c0-.1.1-.2.2-.2 0 0 .1.1.1.2zM377.6 217.2v2.7c0 .1-.1.2-.2.2s-.2-.1-.2-.2v-2.7c0-.9-.5-1.8-1.5-1.8-1.3 0-1.7 1.2-1.7 2.4v2.1c0 .1-.1.2-.2.2s-.2-.1-.2-.2v-4.6c0-.1.1-.2.2-.2s.2.1.2.2v.7c.4-.7 1-1.1 1.7-1.1 1.2 0 1.9 1.1 1.9 2.3zM384.4 217.6c0 1.4-1 2.7-2.5 2.7-1.4 0-2.5-1.2-2.5-2.7 0-1.4 1-2.7 2.5-2.7s2.5 1.3 2.5 2.7zm-.4 0c0-1.2-.8-2.2-2-2.2s-2 1.1-2 2.2c0 1.2.9 2.2 2 2.2s2-1.1 2-2.2zM391.5 217.6c0 1.4-1 2.7-2.5 2.7-.9 0-1.7-.5-2.1-1.3v1c0 .1-.1.2-.2.2s-.2-.1-.2-.2v-9c0-.1.1-.2.2-.2s.2.1.2.2v5.3c.4-.8 1.2-1.3 2.1-1.3 1.4 0 2.5 1.3 2.5 2.6zm-.5 0c0-1.2-.9-2.2-2-2.2-1.2 0-2 1.1-2 2.2s.9 2.2 2 2.2c1.2 0 2-1.1 2-2.2zM396.1 215c.1 0 .2.1.2.2s-.1.2-.2.2h-1.2v4.5c0 .1-.1.2-.2.2s-.2-.1-.2-.2v-4.5h-1.1c-.1 0-.2-.1-.2-.2s.1-.2.2-.2h1.1v-1.7c0-.1.1-.2.2-.2s.2.1.2.2v1.7h1.2zM400.5 215.2c0 .1-.1.2-.2.2-1.2.2-1.8 1.2-1.8 2.4v2c0 .1-.1.2-.2.2s-.2-.1-.2-.2v-4.6c0-.1.1-.2.2-.2s.2.1.2.2v.9c.4-.6 1-1.2 1.8-1.2 0 .1.2.2.2.3zM406.6 215.2v4.6c0 .1-.1.2-.2.2s-.2-.1-.2-.2v-.8c-.4.7-.9 1.2-1.7 1.2-1.2 0-2-1.1-2-2.2v-2.7c0-.1.1-.2.2-.2s.2.1.2.2v2.7c0 .9.5 1.8 1.5 1.8 1.4 0 1.7-1.3 1.7-2.8v-1.7c0-.1.1-.2.2-.2.2 0 .3.1.3.1zM412.8 218.6c0 1.1-1.2 1.6-2 1.6-1 0-2.1-.4-2.1-1.6 0-.2 0-.4.3-.4.1 0 .1.1.1.2 0 1 .8 1.2 1.7 1.2.7 0 1.6-.4 1.6-1.2 0-1.5-3.7-.7-3.7-2.4 0-1 1.2-1.3 2-1.3.9 0 2 .4 2 1.5 0 .1-.1.2-.2.2s-.2-.1-.2-.2c0-.2-.1-.4-.2-.6-.3-.4-.9-.4-1.4-.4-.5 0-1.5.1-1.5.9-.1 1.5 3.6.6 3.6 2.5zM415.1 213.9c-.2 0-.4-.1-.4-.4 0-.2.1-.4.4-.4.2 0 .4.1.4.4 0 .2-.2.4-.4.4zm.2 1.3v4.6c0 .1-.1.2-.2.2s-.2-.1-.2-.2v-4.6c0-.1.1-.2.2-.2l.2.2zM421.7 215.2c0 .1-1.7 4.4-1.9 4.8 0 .1-.1.1-.2.1s-.2 0-.2-.1c-.1-.4-1.9-4.7-1.9-4.8 0-.1.1-.2.2-.2s.1.1.2.1l1.7 4.3 1.7-4.3c0-.1.1-.1.2-.1 0 0 .2.1.2.2zM428 217.6c0 .1-.1.2-.2.2h-4.3c.1 1 .9 2 2 2 .7 0 1.3-.3 1.7-.9.1-.1.1-.1.2-.1s.2.1.2.2v.1c-.4.7-1.3 1.1-2.1 1.1-1.4 0-2.5-1.3-2.5-2.7s1-2.7 2.5-2.7c1.5.1 2.5 1.4 2.5 2.8zm-.5-.3c-.1-1-.9-2-2-2s-1.9.9-2 2h4zM440 210.9v6.7c0 1.7-1.2 2.6-2.7 2.6-1.6 0-2.8-.9-2.8-2.6v-6.7c0-.1.1-.2.2-.2s.2.1.2.2v6.7c0 1.4 1 2.2 2.4 2.2s2.4-.7 2.4-2.2v-6.7c0-.1.1-.2.2-.2 0 0 .1.1.1.2zM447.1 217.6c0 1.4-1 2.7-2.5 2.7-.9 0-1.7-.5-2.1-1.3v3.9c0 .1-.1.2-.2.2s-.2-.1-.2-.2v-7.6c0-.1.1-.2.2-.2s.2.1.2.2v1c.4-.8 1.2-1.3 2.1-1.3 1.5 0 2.5 1.2 2.5 2.6zm-.4 0c0-1.2-.9-2.2-2-2.2-1.2 0-2 1.1-2 2.2s.9 2.2 2 2.2c1.2 0 2-1.1 2-2.2zM452.8 219.8v.1c0 .1-.1.2-.2.2s-.1 0-.1-.1l-2-2.8-.9.7v2c0 .1-.1.2-.2.2s-.2-.1-.2-.2v-9c0-.1.1-.2.2-.2s.2.1.2.2v6.4l2.8-2.3.1-.1c.1 0 .2.1.2.2s0 .1-.1.1l-1.9 1.6 2.1 3zM459.5 217.6c0 .1-.1.2-.2.2H455c.1 1 .9 2 2 2 .7 0 1.3-.3 1.7-.9.1-.1.1-.1.2-.1s.2.1.2.2v.1c-.4.7-1.3 1.1-2.1 1.1-1.4 0-2.5-1.3-2.5-2.7s1-2.7 2.5-2.7c1.6.1 2.5 1.4 2.5 2.8zm-.5-.3c-.1-1-.9-2-2-2s-1.9.9-2 2h4zM466.3 217.6c0 .1-.1.2-.2.2h-4.3c.1 1 .9 2 2 2 .7 0 1.3-.3 1.7-.9.1-.1.1-.1.2-.1s.2.1.2.2v.1c-.4.7-1.3 1.1-2.1 1.1-1.4 0-2.5-1.3-2.5-2.7s1-2.7 2.5-2.7c1.6.1 2.5 1.4 2.5 2.8zm-.4-.3c-.1-1-.9-2-2-2s-1.9.9-2 2h4zM473.3 217.6c0 1.4-1 2.7-2.5 2.7-.9 0-1.7-.5-2.1-1.3v3.9c0 .1-.1.2-.2.2s-.2-.1-.2-.2v-7.6c0-.1.1-.2.2-.2s.2.1.2.2v1c.4-.8 1.2-1.3 2.1-1.3 1.5 0 2.5 1.2 2.5 2.6zm-.4 0c0-1.2-.9-2.2-2-2.2-1.2 0-2 1.1-2 2.2s.9 2.2 2 2.2c1.2 0 2-1.1 2-2.2z"/></g></svg>