<?xml version="1.0" encoding="UTF-8"?>
<svg id="Layer_1" xmlns="http://www.w3.org/2000/svg" xmlns:xlink="http://www.w3.org/1999/xlink" version="1.1" viewBox="0 0 834 1279">
  <!-- Generator: Adobe Illustrator 29.0.0, SVG Export Plug-In . SVG Version: 2.1.0 Build 186)  -->
  <defs>
    <style>
      .st0, .st1, .st2, .st3 {
        fill: none;
      }

      .st4 {
        fill: #7db0de;
      }

      .st5, .st6, .st7, .st1, .st2, .st8, .st9, .st10, .st3, .st11, .st12 {
        stroke-miterlimit: 10;
      }

      .st5, .st6, .st9, .st3 {
        stroke-width: 2px;
      }

      .st5, .st1, .st2, .st9, .st10 {
        stroke: #231f20;
      }

      .st5, .st10, .st13 {
        fill: #ec1c24;
      }

      .st14 {
        fill: #231f20;
      }

      .st6 {
        stroke: red;
      }

      .st6, .st15 {
        fill: red;
      }

      .st16 {
        display: none;
        fill: #c8c7c5;
      }

      .st17, .st12 {
        fill: #007dc5;
      }

      .st7 {
        fill: #fccfc4;
      }

      .st7, .st2, .st8, .st10 {
        stroke-width: 4px;
      }

      .st7, .st8 {
        stroke: #fccfc4;
      }

      .st1 {
        stroke-width: 6px;
      }

      .st18, .st9 {
        fill: #fff;
      }

      .st19 {
        opacity: .2;
      }

      .st8 {
        fill: #f37c71;
      }

      .st3, .st12 {
        stroke: #007dc5;
      }

      .st11 {
        stroke: #676b64;
      }

      .st12 {
        stroke-width: 3px;
      }

      .st20 {
        clip-path: url(#clippath);
      }

      .st21 {
        fill: #0085c9;
      }
    </style>
    <clipPath id="clippath">
      <polygon class="st0" points="801.7 1229.3 405.8 1229.3 405.8 308.3 805.7 308.3 801.7 1229.3"/>
    </clipPath>
  </defs>
  <polygon class="st17" points="795.4 682.7 62.7 682.7 42.4 70.3 765 25.4 795.4 682.7"/>
  <polygon class="st19" points="216.9 1131.5 25.9 1132.5 25.9 984.6 216.9 993.8 216.9 1131.5"/>
  <polyline class="st19" points="371 733.1 344 733.1 340.2 779.5 368.7 779.5"/>
  <polyline class="st19" points="371.9 817.8 336.1 817.8 332.3 869.6 369.2 869.6"/>
  <polyline class="st19" points="370 915.2 326.4 915.2 319.7 991.7 366.7 991.7"/>
  <rect class="st4" x="147" y="842.4" width="91.5" height="65.2"/>
  <polyline class="st19" points="368.1 1072.4 314.5 1072.4 305 1148.1 364.2 1148.1"/>
  <g>
    <polyline class="st17" points="156.1 899.7 148.7 929.2 134.4 1059.4 179.8 1057.9 188.1 933.8 198.4 918.3"/>
    <path class="st17" d="M246.8,930.3c0,1.3,8.8,69.6,8.8,69.6l-37.4,1.8-10.6-71.5,39.3.9"/>
    <polygon class="st17" points="252.6 791 284.6 918.6 241.8 919.7 210.9 800.7 252.6 791"/>
    <polygon class="st17" points="137.8 797 106.9 925.9 149.7 924.8 174.9 804.5 137.8 797"/>
    <g>
      <circle class="st18" cx="195" cy="788.6" r="52.8"/>
      <path d="M195,849.4c-32.9,0-60-26.3-60.8-59.4-.8-33.5,25.8-61.4,59.4-62.2,33.5-.8,61.4,25.8,62.2,59.4h0c.4,16.2-5.6,31.7-16.8,43.4-11.2,11.8-26.3,18.4-42.6,18.8-.5,0-1,0-1.5,0ZM195,743.8c-.4,0-.7,0-1.1,0-24.7.6-44.3,21.2-43.7,45.9.6,24.3,20.6,43.8,44.8,43.8s.7,0,1.1,0c12-.3,23.1-5.2,31.4-13.9,8.3-8.7,12.7-20,12.4-32h0c-.6-24.3-20.6-43.8-44.8-43.8Z"/>
    </g>
    <rect class="st11" x="219.5" y="999.8" width="39.6" height="19.9" transform="translate(-23.9 6) rotate(-1.4)"/>
    <path class="st13" d="M205.8,921.5l-13.6.3c1.3-2,3.6-3.4,6.2-3.5h1.1c2.6,0,5,1.2,6.3,3.2Z"/>
    <rect class="st11" x="192.5" y="1008.3" width="22.8" height="151.8" rx="9.6" ry="9.6" transform="translate(-25.7 5.2) rotate(-1.4)"/>
    <path class="st10" d="M145.1,816.6"/>
    <polyline class="st21" points="198.4 918.3 204.1 919.5 205.8 921.5 241.8 921.7 235.8 899.2 156.1 899.7"/>
    <path class="st10" d="M248,814.2"/>
    <g>
      <line x1="152.7" y1="898.7" x2="239.5" y2="895.6"/>
      <polygon points="153.8 904.1 155.7 893.3 235.4 890.2 237.5 901 153.8 904.1"/>
    </g>
    <rect class="st11" x="131.1" y="1057.9" width="40.4" height="25" transform="translate(-25.4 3.9) rotate(-1.4)"/>
    <path class="st6" d="M291.5,958.2c0,2.6-.9,5.1-2.7,7-1.8,1.9-4.2,3-6.8,3,0,0-.2,0-.2,0-5.2,0-9.6-4.2-9.7-9.5l-.6-24.5-60.4,1.4,1.1,46.7c14.7,4.2,25.3,17.6,25.7,33.1l2,83.8-17.7.3-3.1-83.7c-.2-8.9-4.6-19.1-16.5-19.1s-.3,0-.4,0c-5,.1-9.1,2.1-12,5.8-2.8,3.6-4.3,8.7-4.1,14.2l.9,83.8-17.7.3-2-83.7c-.3-14.7,8.2-27.7,21.6-33.3l-1.1-47.7-60.3,1.4.6,24.8c0,2.6-.9,5.1-2.7,6.9-1.8,1.9-4.2,3-6.8,3h-.2c-5.2,0-9.6-4.3-9.7-9.5l-1-42.6,163.5-3.9v-.3s19.5-.5,19.5-.5l1,42.6Z"/>
  </g>
  <g>
    <path class="st7" d="M322.5,567.8c0,1,12.5,72,12.5,72l-25.6,1.3-4.3-54-5.3-18.4"/>
    <polyline class="st7" points="266.8 569.1 262.6 587.9 254.1 673.3 284 672.3 290.7 583.4 308.3 583 324.5 566.5"/>
    <polyline class="st8" points="269.5 518.6 316.3 515.8 324.1 566.8 262.7 569"/>
    <rect x="266.8" y="564.5" width="58.1" height="9"/>
    <polygon class="st7" points="333.1 493.2 352.8 577.1 324.7 577.8 304.4 499.5 333.1 493.2"/>
    <polyline class="st16" points="272.4 520.1 319.2 517.3 327 568.4 265.6 570.6"/>
    <polygon class="st7" points="251.6 497.1 235.9 581.8 264.1 581.2 280.7 502 251.6 497.1"/>
    <rect x="310.6" y="637.8" width="26.1" height="13.1" transform="translate(-15.2 7.9) rotate(-1.4)"/>
    <rect x="292.3" y="638.1" width="15" height="99.8" rx="7.1" ry="7.1" transform="translate(-16.3 7.3) rotate(-1.4)"/>
    <rect x="251.8" y="670.7" width="26.6" height="16.5" transform="translate(-16.1 6.5) rotate(-1.4)"/>
    <line class="st0" x1="311.4" y1="703.4" x2="294.3" y2="703.4"/>
    <g>
      <path class="st6" d="M355,603.1c0,2.2-1.7,4.1-4,4.2-2.2,0-4.1-1.7-4.2-4l-.4-17.3c0-.6-.5-1.1-1.1-1.1l-41.6,1,.8,33.8c3.6.9,7,2.8,9.8,5.4,4.3,4.1,6.8,9.7,6.9,15.6l1.3,52.8-9.6.2-2.3-52.7c0-3.7-.6-6.1-3.2-8.6-2.7-2.5-5.1-3.9-8.8-3.8-3.7,0-7.1,1.6-9.6,4.3-2.5,2.7-2.9,5.1-2.8,8.8l1.3,52.7-9.6.2-1.3-52.7c-.1-6,2-11.6,6.2-15.9,2.7-2.8,5.9-4.8,9.5-5.9l-.8-33.8-43.2,1c-.6,0-1.1.5-1.1,1.1l.4,17.5c0,2.2-1.7,4.1-4,4.2h0c-2.2,0-4-1.8-4.1-4l-.4-18.6v-2c-.1-2.8,2.1-5.1,4.9-5.2h3.1c0,0,99.4-2.4,99.4-2.4v-.2h3.1c2.8-.1,5.1,2.1,5.2,4.8l.5,20.6Z"/>
      <path class="st6" d="M275.8,696.7l-1.3-54.8c-.2-6.5,2.2-12.7,6.7-17.4,2.5-2.6,5.6-4.7,8.9-5.9l-.7-30.3-40.3,1,.4,16.6c0,1.6-.6,3.2-1.7,4.4-1.1,1.2-2.6,1.9-4.3,1.9h-.1c-3.3,0-6-2.6-6.1-6l-.5-20.6c0-1.9.6-3.7,1.9-5,1.3-1.4,3.1-2.1,4.9-2.2h3.1c0,0,97.4-2.4,97.4-2.4v-.2h5.1c0-.1.1-.1.2-.1,3.8,0,7,3.1,7.1,6.9l.5,20.6c0,1.6-.6,3.2-1.7,4.4-1.1,1.2-2.6,1.9-4.3,1.9,0,0,0,0-.1,0-3.3,0-6-2.6-6.1-6l-.4-16.4-38.7.9.7,30.3c3.4,1.1,6.6,3,9.2,5.5,4.7,4.5,7.4,10.5,7.5,17l1.3,54.8-13.6.3-2.4-54.7c0-3.4-.5-5.2-2.6-7.2-2.5-2.4-4.6-3.3-7.3-3.2-3.1,0-6,1.4-8.2,3.6-2,2.1-2.3,4-2.2,7.3l1.3,54.8-13.7.3ZM293.4,584.2l.9,37.3-1.5.5c-3.2,1-6.2,2.9-8.6,5.4-3.7,3.9-5.7,9.1-5.6,14.5l1.2,50.7h5.6c0-.1-1.2-50.8-1.2-50.8,0-3.5.1-6.8,3.3-10.2,2.9-3,6.8-4.8,11-4.9,3.9,0,6.9,1.2,10.2,4.3,3.1,3,3.8,5.9,3.9,10l2.2,50.7h5.6c0-.1-1.2-50.8-1.2-50.8-.1-5.4-2.4-10.5-6.3-14.2-2.5-2.4-5.5-4.1-8.9-5l-1.5-.4-.9-37.3,43.6-1s0,0,0,0c1.7,0,3.1,1.4,3.2,3.1l.4,17.3c0,1.1.9,2,2.1,2h0c.6,0,1.1-.2,1.4-.6.4-.4.6-.9.6-1.5h0s-.5-20.6-.5-20.6c0-1.7-1.4-3-3.1-2.9h-1.1v.2l-104.4,2.5c-.8,0-1.6.3-2.1.9-.6.6-.8,1.3-.8,2.2v2s.5,18.6.5,18.6c0,1.1.9,2,2.1,2,.6,0,1.1-.2,1.5-.6.4-.4.6-.9.6-1.5l-.4-17.5c0-1.7,1.3-3.2,3.1-3.2l45.2-1.1Z"/>
    </g>
    <g>
      <circle class="st18" cx="294.4" cy="480.6" r="43.8"/>
      <path d="M294.4,532.4c-13.4,0-26-5.1-35.7-14.3-10-9.6-15.7-22.4-16-36.3-.3-13.8,4.7-27,14.3-37s22.4-15.7,36.3-16c28.6-.7,52.3,22,53,50.6h0c.3,13.8-4.7,27-14.3,37s-22.4,15.7-36.3,16c-.4,0-.8,0-1.3,0ZM294.4,444.8c-.3,0-.6,0-.9,0-9.6.2-18.5,4.2-25.1,11.1-6.6,6.9-10.1,16-9.9,25.6.2,9.6,4.2,18.5,11.1,25.1,6.9,6.6,16,10.1,25.6,9.9,9.6-.2,18.5-4.2,25.1-11.1,6.6-6.9,10.1-16,9.9-25.6h0c-.5-19.5-16.4-35-35.8-35Z"/>
    </g>
  </g>
  <g class="st20">
    <g>
      <rect class="st14" x="1100.3" y="433.7" width="65.7" height="152.6" transform="translate(-46.9 120.6) rotate(-6)"/>
      <path class="st9" d="M419.4,608.1"/>
      <g>
        <path d="M492.2,1046.2h128.4v119.1c0,12-9.8,21.8-21.8,21.8h-84.8c-12,0-21.8-9.8-21.8-21.8v-119.1h0Z" transform="translate(-113.1 63.9) rotate(-6)"/>
        <path class="st6" d="M1110.3,978.5l-661.1,69.1-14.6-84.7c-12.5-72.6-19.4-146.1-20.7-219.8l-1-56.5,10.9-308.5,575.8-58.5,72.8,296.4,37.9,362.4Z"/>
        <path class="st14" d="M938.1,1000.1h128.4v112.9c0,15.5-12.5,28-28,28h-72.4c-15.5,0-28-12.5-28-28v-112.9h0Z" transform="translate(-105.9 110) rotate(-6)"/>
        <rect class="st14" x="887.3" y="717.3" width="169.3" height="82.2" transform="translate(-73.6 105.2) rotate(-6)"/>
        <path class="st12" d="M941.7,607.8l-103.8,6.3c-90.7,5.5-181.1,14.9-271,28.3l-106,15.7,11.1-216.8,415.1-43.4,54.6,209.9Z"/>
        <line class="st5" x1="447.8" y1="1019.4" x2="1104" y2="950.7"/>
        <line class="st2" x1="450" y1="1044.5" x2="1024.5" y2="984.4"/>
        <g>
          <path class="st17" d="M1084.9,1001.7c-207.8,14.3-415.6,40.8-623.4,79.4-12.7,2.4-24.1-8.9-25.4-25.4-.2-2.3-.4-4.7-.6-7-1.3-16.5,7.9-31.4,20.6-33.1,207.8-29.1,415.6-46.1,623.4-51,12.7-.3,24.1,6.9,25.4,15.7.2,1.3.4,2.5.6,3.8,1.3,8.9-7.9,16.7-20.6,17.7Z"/>
          <path class="st3" d="M1084.9,1001.7c-207.8,14.3-415.6,40.8-623.4,79.4-12.7,2.4-24.1-8.9-25.4-25.4-.2-2.3-.4-4.7-.6-7-1.3-16.5,7.9-31.4,20.6-33.1,207.8-29.1,415.6-46.1,623.4-51,12.7-.3,24.1,6.9,25.4,15.7.2,1.3.4,2.5.6,3.8,1.3,8.9-7.9,16.7-20.6,17.7Z"/>
        </g>
        <path class="st1" d="M1063.2,847.7"/>
        <path class="st1" d="M474,909.3"/>
        <path class="st1" d="M1065.5,870"/>
        <path class="st1" d="M476.3,931.6"/>
        <path class="st1" d="M1067.8,891.8"/>
        <path class="st1" d="M478.6,953.4"/>
        <circle cx="537.4" cy="853.8" r="71.4"/>
        <circle class="st18" cx="536.5" cy="854.1" r="48.2"/>
      </g>
      <g>
        <line x1="665.8" y1="858.1" x2="806.1" y2="847.2"/>
        <polygon points="666.6 868.2 667.1 848 805.3 837.1 806.9 857.3 666.6 868.2"/>
      </g>
      <g>
        <line x1="668.3" y1="898.2" x2="809.6" y2="885.3"/>
        <polygon points="669.2 908.3 669.4 888.1 808.6 875.2 810.5 895.4 669.2 908.3"/>
      </g>
      <g>
        <line x1="671.1" y1="938.7" x2="812.4" y2="925.8"/>
        <polygon points="672 948.8 672.2 928.6 811.5 915.7 813.3 935.8 672 948.8"/>
      </g>
    </g>
  </g>
  <path d="M433.9,1147.5h-96.7l9.6-95.8c0-21.4,17.4-19.7,38.8-19.7h0c21.4,0,38.8-1.8,38.8,19.7l9.6,95.8Z"/>
  <path d="M424.3,991.7h-77.4l7.7-76.7c0-17.1,13.9-15.7,31-15.7h0c17.1,0,31-1.4,31,15.7l7.7,76.7Z"/>
  <path d="M416.5,870.5h-61.9l6.1-61.3c0-13.7,11.1-12.6,24.8-12.6h0c13.7,0,24.8-1.1,24.8,12.6l6.1,61.3Z"/>
  <path d="M410.3,778.5h-49.5l4.9-49.1c0-11,8.9-10.1,19.9-10.1h0c11,0,19.9-.9,19.9,10.1l4.9,49.1Z"/>
  <g>
    <line x1="609.2" y1="792.2" x2="455.8" y2="780.2"/>
    <rect x="522.5" y="709.3" width="20" height="153.9" transform="translate(-293 1255.5) rotate(-85.5)"/>
  </g>
  <g>
    <path class="st18" d="M85.5,155.5c.2-1.3,1-1.7,1.9-1.2,5,2.7,10.7,4.6,14.9,4.8.5,0,.9,0,1.4,0,3.1-.5,4.9-2.4,4.7-5.1-.6-7.4-31-4.6-33.2-32-1.3-16.8,8.8-28.9,25.2-30.1,7.7-.6,17.7,2.3,25,7.1.9.6,1.3,1.5,1,2.2l-5.4,18.2c-.2,1.3-1,1.7-1.9,1.2-5-2.8-10.7-4.8-14.5-5.2-.9,0-1.8,0-2.6.1-2.5.6-4,2.4-3.8,4.7.6,7.4,31.2,4.5,33.4,32.1,1.3,16.7-9,28.7-25.7,30.1-9.1.7-18.9-1.8-24.7-6.4-.9-.7-1.3-1.5-1-2.2l5.4-18.2Z"/>
    <path class="st18" d="M202.9,86.3c1.1,0,1.9.9,2,2l4.1,52.3c1.7,22.2-7.6,34.7-27.3,36.2-19.4,1.5-30.6-9.3-32.6-31.5l-4.1-52.3c0-1.1.7-2.2,1.7-2.3l18.7-1.5c1.1,0,1.9.9,2,2l4.3,54.6c.5,5.8,3.5,8.9,8.3,8.6,4.8-.4,7.3-4,6.9-9.6l-4.3-54.7c0-1.1.7-2.2,1.7-2.3l18.7-1.5Z"/>
    <path class="st18" d="M250.6,82.9c19-1.5,31.3,9.5,32.7,27.5,1.4,18-9,30.8-28,32.3l-4.4.3,2,25.1c0,.9-.6,1.8-1.6,1.9l-19.4,1.5c-.8,0-1.6-.8-1.7-1.6l-6.5-83c0-1,.6-1.9,1.4-2l25.6-2ZM254.6,120.1c3.8-.3,6.2-3.5,5.8-7.9-.3-4.4-3.2-7.2-7-6.9l-5.6.4,1.2,14.8,5.6-.4Z"/>
    <path class="st18" d="M323.3,77.4c19-1.5,31.3,9.5,32.7,27.5,1.4,18-9,30.8-28,32.3l-4.4.3,2,25.1c0,.9-.6,1.8-1.6,1.9l-19.4,1.5c-.8,0-1.6-.8-1.7-1.6l-6.5-83c0-1,.6-1.9,1.4-2l25.6-2ZM327.2,114.6c3.8-.3,6.2-3.5,5.8-7.9-.3-4.4-3.2-7.2-7-6.9l-5.6.4,1.2,14.8,5.6-.4Z"/>
    <path class="st18" d="M409.2,154.4c-23.1,1.8-39.9-15.1-42-42-2.1-27.2,11.8-46.5,34.9-48.3,23.1-1.8,39.9,15.1,42.1,42.3,2.1,27-11.9,46.3-35,48.1ZM404.1,89.4c-8.9.7-14.2,9.2-13.3,21.1.9,11.9,7.5,19.5,16.4,18.8,8.9-.7,14.2-9.2,13.3-21.1-.9-11.9-7.5-19.5-16.4-18.8Z"/>
    <path class="st18" d="M523.8,146.7c.6,1.1,0,2-1,2.1l-23.2,1.8c-1.1,0-2.1-.7-2.7-1.8l-13.4-26.5h-1.3c0,.1,2.2,27.7,2.2,27.7,0,.9-.6,1.8-1.6,1.9l-19.1,1.5c-.9,0-1.7-.8-1.8-1.6l-6.5-83c0-1,.6-1.9,1.5-2l28.6-2.3c16.7-1.3,28.7,9.1,30,26.2.8,9.9-3.6,20.4-11.5,25l19.8,30.9ZM486.8,100.6c3.7-.3,6-3.1,5.7-7.1-.3-4-3-6.5-6.7-6.2l-6.4.5,1,13.3,6.4-.5Z"/>
    <path class="st18" d="M584.8,56.7c1,0,1.7.8,1.7,1.6v19.2c-.2,1-1,1.8-1.7,1.9l-16.2,1.3,4.9,62.3c0,.9-.5,1.8-1.4,1.9l-19.2,1.5c-.9,0-1.7-.8-1.8-1.6l-4.9-62.3-18,1.4c-.8,0-1.6-.6-1.7-1.6l-1.5-19c0-1,.6-1.9,1.4-2l58.4-4.6Z"/>
    <path class="st18" d="M114.8,203.2c19-1.8,31.5,9,33.2,26.9,1.7,17.9-8.5,30.9-27.5,32.7l-4.4.4,2.4,25.1c0,.9-.6,1.8-1.6,1.9l-19.4,1.9c-.8,0-1.6-.7-1.7-1.6l-8-82.9c0-1,.6-2,1.3-2l25.6-2.5ZM119.4,240.4c3.8-.4,6.1-3.6,5.7-8-.4-4.4-3.3-7.1-7.1-6.8l-5.6.5,1.4,14.8,5.6-.5Z"/>
    <path class="st18" d="M230.3,277.8c.6,1.1,0,2-1,2.1l-23.2,2.2c-1.1.1-2.1-.7-2.7-1.8l-13.9-26.2h-1.3c0,.1,2.7,27.7,2.7,27.7,0,.9-.6,1.8-1.6,1.9l-19.1,1.8c-.9,0-1.7-.7-1.8-1.6l-8-82.9c0-1,.6-2,1.4-2l28.6-2.7c16.7-1.6,28.8,8.6,30.4,25.7,1,9.9-3.3,20.4-11,25.2l20.3,30.6ZM192.5,232.3c3.7-.4,5.9-3.2,5.5-7.2-.4-4-3.1-6.4-6.8-6l-6.4.6,1.3,13.3,6.4-.6Z"/>
    <path class="st18" d="M279.7,272.8c-23.1,2.2-40.2-14.4-42.8-41.3-2.6-27.2,11-46.7,34.1-48.9,23.1-2.2,40.2,14.4,42.8,41.6,2.6,26.9-11.1,46.5-34.1,48.7ZM273.4,207.9c-8.9.9-14.1,9.4-12.9,21.4,1.1,11.9,7.9,19.4,16.8,18.5,8.9-.9,14.1-9.4,12.9-21.4-1.1-11.9-7.9-19.4-16.8-18.5Z"/>
    <path class="st18" d="M377.8,178.4c1,0,1.7.7,1.7,1.6l.2,19.2c0,1-.8,1.9-1.6,1.9l-16.1,1.6,6,62.2c0,.9-.5,1.8-1.3,1.9l-19.2,1.8c-.9,0-1.7-.7-1.8-1.6l-6-62.2-18,1.7c-.8,0-1.6-.6-1.7-1.6l-1.8-18.9c0-1,.6-2,1.3-2l58.3-5.6Z"/>
    <path class="st18" d="M450.8,236.1c.9,0,1.7.6,1.8,1.5l1.8,19.2c0,.9-.6,1.8-1.5,1.9l-50.4,4.8c-.8,0-1.6-.9-1.9-1.7l-8-82.9c-.1-1.1.4-1.8,1.3-1.9l49.3-4.7c1,0,1.8.7,1.9,1.6l1.8,18.9c.1,1.1-.6,2-1.6,2l-28.3,2.7,1,9.9,23-2.2c1,0,1.6.7,1.6,1.5l.2,17.7c0,.8-.7,1.7-1.7,1.8l-21,2,1,10.7,29.6-2.8Z"/>
    <path class="st18" d="M526.7,243.9c.4.8,0,1.8-.8,2.3-5.8,5.1-14,8.7-22,9.5-22.3,2.1-39-14.5-41.6-41.5-2.6-27.1,10.6-46.6,32.9-48.7,8-.8,16.7,1.2,23.4,5.1.9.4,1.4,1.3,1.2,2.2l-5.5,18.1c-.3,1.2-1,1.6-2,1.2-4.3-2.2-8.2-2.7-12.9-2.3-9.7.9-15.4,9.8-14.3,22.2,1.2,12.4,8.5,20.1,18.2,19.1,4.7-.4,8.5-1.7,12.2-4.7.8-.6,1.6-.3,2.2.8l8.8,16.7Z"/>
    <path class="st18" d="M588.8,158.3c1,0,1.7.7,1.7,1.6l.2,19.2c0,1-.8,1.8-1.6,1.9l-16.1,1.6,6,62.2c0,.9-.5,1.8-1.3,1.9l-19.2,1.8c-.9,0-1.7-.7-1.8-1.6l-6-62.2-18,1.7c-.8,0-1.6-.6-1.7-1.6l-1.8-18.9c0-1,.6-2,1.3-2l58.3-5.6Z"/>
    <path class="st18" d="M657.8,215.9c.9,0,1.7.6,1.8,1.5l1.8,19.2c0,.9-.6,1.8-1.5,1.9l-50.4,4.8c-.8,0-1.6-.9-1.9-1.7l-8-82.9c-.1-1.1.4-1.8,1.3-1.9l49.3-4.7c1,0,1.8.7,1.9,1.6l1.8,18.9c.1,1.1-.6,2-1.6,2l-28.3,2.7,1,9.9,23-2.2c1,0,1.6.7,1.6,1.5l.2,17.7c0,.8-.7,1.7-1.7,1.8l-21,2,1,10.7,29.6-2.8Z"/>
    <path class="st18" d="M693.5,148c23-2.2,39.9,13.5,42.4,39.6,2.5,25.8-11.1,44.7-34.1,46.9l-25.1,2.4c-.8,0-1.6-.7-1.7-1.7l-8-82.7c0-1,.6-2,1.3-2l25.1-2.4ZM701,211.8c8.3-.8,13.2-9.6,12-22-1.2-12.4-7.6-20.1-16-19.3l-5.6.5,4,41.4,5.6-.5Z"/>
    <path class="st18" d="M128.7,307.4c14.2-1.4,24.5,7.5,26,22.2.9,9-2.3,16-7.9,18.6,7,1.3,12.2,8.4,13.2,18.8,1.4,14.7-7.1,25.3-21.2,26.7l-34.3,3.3c-.9,0-1.6-.7-1.7-1.6l-8-82.9c0-.9.5-1.9,1.3-2l32.6-3.1ZM127,341.8c3.2-.3,5.2-2.8,4.9-6.3-.3-3.5-2.7-5.6-6-5.2l-6.8.7,1.1,11.5,6.8-.7ZM131.8,371.7c3.1-.3,5.1-2.9,4.7-6.5-.3-3.6-2.7-5.8-5.9-5.5l-8.8.8,1.2,12,8.8-.8Z"/>
    <path class="st18" d="M191.6,303.7c1,0,1.7.7,1.8,1.7l8,82.9c0,.9-.5,1.8-1.5,1.9l-19.2,1.8c-.8,0-1.6-.7-1.7-1.6l-8-82.9c0-1,.6-2,1.3-2l19.2-1.8Z"/>
    <path class="st18" d="M280.6,378.8c.6.8.3,1.5-.6,1.6l-25.1,2.4c-.8,0-1.9-.5-2.4-1.3l-16.4-30,3,31.1c0,.9-.5,1.8-1.5,1.9l-19.2,1.8c-.8,0-1.6-.7-1.7-1.6l-8-82.9c0-1,.6-2,1.3-2l19.2-1.8c1,0,1.7.7,1.8,1.7l2.7,28.1,10.3-29.7c.3-.9,1.4-1.7,2.3-1.7l23.7-2.3c.9,0,1.3.5.9,1.4l-17.6,41.8,27.3,41.5Z"/>
    <path class="st18" d="M340,351.7c.9,0,1.7.6,1.8,1.5l1.8,19.2c0,.9-.6,1.8-1.5,1.9l-50.4,4.8c-.8,0-1.6-.9-1.9-1.7l-8-82.9c-.1-1.1.4-1.8,1.3-1.9l49.3-4.7c1,0,1.8.7,1.9,1.6l1.8,18.9c.1,1.1-.6,2-1.6,2l-28.3,2.7,1,9.9,23-2.2c1,0,1.6.7,1.6,1.5l.2,17.7c0,.8-.7,1.7-1.7,1.8l-21,2,1,10.7,29.6-2.8Z"/>
    <path class="st18" d="M419.5,344c.8,0,1.5.6,1.6,1.6l.3,19.2c0,.9-.7,1.8-1.6,1.9l-39.1,3.8c-.9,0-1.7-.7-1.8-1.6l-8-82.9c0-1,.6-2,1.4-2l19.2-1.8c.9,0,1.7.7,1.8,1.7l6,62,20.1-1.9Z"/>
    <path class="st18" d="M508.9,356.9c.4.7,0,1.6-.8,1.7l-21.4,2.1c-1,0-1.9-.4-2.4-1.4l-4.5-12.8-20.4,2-2,13.5c-.3,1-1.1,1.8-2.1,1.8l-21.4,2.1c-.9,0-1.4-.8-1.1-1.5l16.5-85.6c.3-.8,1.4-1.8,2.4-1.9l22.1-2.1c1.1-.1,2.4.7,2.8,1.4l32.5,80.9ZM465.5,305.6l-3.6,24.4,11.7-1.1-8.1-23.3Z"/>
    <path class="st18" d="M573.7,265.1c1,0,1.7.7,1.8,1.7l8,82.9c0,.9-.5,1.8-1.5,1.9l-18.7,1.8c-.8,0-1.8-.5-2.4-1.4l-22.6-37.2,3.7,38.9c0,.9-.5,1.8-1.5,1.9l-19.2,1.8c-.9,0-1.6-.7-1.7-1.6l-8-82.9c0-1,.5-1.9,1.3-2l18.7-1.8c1,0,2.1.4,2.6,1.4l22.5,37.2-3.7-38.7c0-1,.6-2,1.3-2l19.2-1.8Z"/>
    <path class="st18" d="M653,322.4c.9,0,1.7.6,1.8,1.5l1.8,19.2c0,.9-.6,1.8-1.5,1.9l-50.4,4.8c-.8,0-1.6-.9-1.9-1.7l-8-82.9c-.1-1.1.4-1.8,1.3-1.9l49.3-4.7c1,0,1.8.7,1.9,1.6l1.8,18.9c.1,1.1-.6,2-1.6,2l-28.3,2.7,1,9.9,23-2.2c1,0,1.6.7,1.6,1.5l.2,17.7c0,.8-.7,1.7-1.7,1.8l-21,2,1,10.7,29.6-2.8Z"/>
    <path class="st18" d="M673.8,316.6c.2-1.3.9-1.7,1.9-1.2,5.3,2.8,11.5,4.6,15.6,4.6,3.5-.3,5.6-2.4,5.3-5.3-.7-7.4-31.1-4.1-33.7-31.4-1.6-16.8,8.3-29,24.7-30.6,7.7-.7,17.8,2,25.1,6.7.9.5,1.3,1.5,1.1,2.2l-5.1,18.3c-.2,1.3-.9,1.7-1.9,1.2-5.6-3-12.1-5-15.9-5-3.4.3-5.4,2.3-5.1,5,.7,7.4,31.3,3.9,34,31.5,1.6,16.7-8.5,28.9-25.2,30.5-9.1.9-18.9-1.5-24.8-6-.9-.7-1.3-1.5-1.1-2.2l5.1-18.3Z"/>
    <path class="st18" d="M738.7,309.3c-.9,0-1.6-.9-1.6-1.8v-62.1c.2-1,.9-1.9,1.8-1.8l19.1.5c.9,0,1.6.9,1.6,1.9l-3.5,62c0,.9-.8,1.7-1.7,1.7l-15.8-.4ZM746,316.8c9.4.3,11.8,6.1,11.7,10.7-.1,4.8-2.9,10.5-12.3,10.2-9.2-.3-11.8-6.1-11.7-10.9.1-4.5,3-10.2,12.3-10Z"/>
  </g>
  <path d="M101.6,1203.6c.4,0,.6.4.5.8l-3,8.3c-.2.5-.6.8-1,.8h-12.7l-1.8,5h10c.4,0,.6.4.4.7l-3.5,7.7c-.2.3-.7.7-1.1.7h-9.1l-4.8,13.2c-.1.4-.6.8-1,.8h-8.8c-.4,0-.5-.4-.4-.8l13.3-36.4c.1-.4.6-.8,1-.8h22.2Z"/>
  <path d="M110.5,1242.5c-10.6,0-14.8-7.9-10.5-19.8,4.4-12,14.3-19.9,24.9-19.9s14.8,7.9,10.4,19.9c-4.3,11.8-14.3,19.8-24.9,19.8ZM120.9,1213.9c-4.1,0-8.1,3.5-10,8.8-1.9,5.2-.5,8.8,3.6,8.8s8.1-3.5,10-8.8c1.9-5.2.4-8.8-3.6-8.8Z"/>
  <path d="M163.3,1240.8c0,.5-.4.9-.9.9h-10.7c-.5,0-.8-.4-.8-.9l-.8-12h-.6l-4.4,12.1c-.1.4-.6.8-1.1.8h-8.8c-.4,0-.6-.4-.5-.8l13.3-36.4c.2-.4.6-.8,1-.8h13.2c7.7,0,10.9,5,8.2,12.5-1.6,4.4-5.6,8.8-10,10.5l2.8,14.2ZM155.9,1219.4c1.7,0,3.3-1.2,3.9-2.9.6-1.8,0-2.9-1.8-2.9h-2.9l-2.1,5.8h2.9Z"/>
  <path class="st15" d="M223.3,1209.8c.3,0,.4.3.3.5l-2.5,5.6c-.1.3-.5.5-.7.5h-4.9l-6.6,18.1c0,.3-.4.5-.6.5h-5.9c-.3,0-.4-.3-.3-.5l6.6-18.1h-5.5c-.2,0-.4-.2-.3-.5l2-5.5c.1-.3.4-.5.7-.5h17.8Z"/>
  <path class="st15" d="M246.1,1209.8c.3,0,.4.3.3.5l-8.8,24.2c0,.3-.4.5-.7.5h-6.2c-.3,0-.4-.3-.3-.5l3-8.2h-4.6l-3,8.2c0,.3-.4.5-.7.5h-6.2c-.2,0-.4-.3-.3-.5l8.8-24.2c.1-.3.4-.5.7-.5h6.2c.3,0,.4.3.3.5l-3.5,9.5h4.6l3.5-9.5c.1-.3.4-.5.7-.5h6.2Z"/>
  <path class="st15" d="M260.9,1228.5c.3,0,.4.2.3.5l-2,5.6c0,.3-.4.5-.7.5h-15.4c-.2,0-.4-.3-.3-.5l8.8-24.2c.1-.3.4-.5.6-.5h15c.3,0,.4.3.3.5l-2,5.5c-.1.3-.4.5-.7.5h-8.6l-1.1,2.9h7c.3,0,.4.3.3.5l-2.3,5.1c-.1.2-.4.5-.7.5h-6.4l-1.1,3.1h9Z"/>
  <path d="M330.3,1218.4c.4,0,.6.4.5.8l-6.4,17.5c-.2.5-.6,1-1.1,1.3-4,2.8-9.2,4.5-14,4.5-10.8,0-15-7.9-10.7-19.8,4.3-11.9,14.4-19.8,25.2-19.8s7.1,1.2,9.3,3.2c.3.2.3.7,0,1l-5.4,8.1c-.3.4-.7.6-1.1.4-1.6-1.2-4-1.9-6.5-1.9-4.6,0-9,3.6-11,9-2,5.5-.2,9.1,4.3,9.1s3.2-.4,4-1l1.2-3.2h-4.6c-.4,0-.7-.2-.6-.6l2.1-7.6c.2-.6.6-.9,1.1-.9h13.5ZM318.1,1229.9v.2c0,0,0-.2,0-.2Z"/>
  <path d="M345.7,1242.5c-10.6,0-14.8-7.9-10.5-19.8,4.4-12,14.3-19.9,24.9-19.9s14.8,7.9,10.4,19.9c-4.3,11.8-14.3,19.8-24.9,19.8ZM356.1,1213.9c-4.1,0-8.1,3.5-10,8.8-1.9,5.2-.5,8.8,3.6,8.8s8.1-3.5,10-8.8c1.9-5.2.4-8.8-3.6-8.8Z"/>
  <path d="M386.8,1242.5c-10.6,0-14.8-7.9-10.5-19.8,4.4-12,14.3-19.9,24.9-19.9s14.8,7.9,10.4,19.9c-4.3,11.8-14.3,19.8-24.9,19.8ZM397.1,1213.9c-4.1,0-8.1,3.5-10,8.8-1.9,5.2-.5,8.8,3.6,8.8s8.1-3.5,10-8.8c1.9-5.2.4-8.8-3.6-8.8Z"/>
  <path d="M437,1203.6c10.6,0,14.8,7.6,10.7,19-4.1,11.4-13.9,19-24.5,19h-11.6c-.3,0-.6-.4-.4-.8l13.2-36.4c.2-.4.6-.8,1-.8h11.6ZM427.3,1231.7c3.8,0,7.8-3.6,9.7-9.1,2-5.5.7-9.1-3.1-9.1h-2.6l-6.6,18.2h2.6Z"/>
  <path class="st15" d="M476.7,1236c-7.3,0-10.1-5.4-7.2-13.6,3-8.2,9.8-13.6,17.1-13.6s10.1,5.4,7.2,13.6c-3,8.1-9.8,13.6-17.1,13.6ZM483.8,1216.5c-2.8,0-5.6,2.4-6.9,6-1.3,3.6-.3,6,2.5,6s5.6-2.4,6.9-6c1.3-3.6.3-6-2.5-6Z"/>
  <path class="st15" d="M518.4,1209.4c.3,0,.4.3.3.5l-2.1,5.7c-.1.3-.4.6-.7.6h-8.7l-1.3,3.4h6.9c.3,0,.4.3.3.5l-2.4,5.3c-.1.2-.5.5-.8.5h-6.3l-3.3,9c0,.3-.4.5-.7.5h-6c-.3,0-.4-.3-.3-.6l9.1-25c0-.3.4-.5.7-.5h15.2Z"/>
  <path d="M549.1,1230.1c.3-.6.8-.7,1.1-.4,1.8,1.4,4.1,2.5,6,2.6,1.6,0,2.9-.8,3.4-2.1,1.2-3.3-12.9-3.1-8.5-15.1,2.7-7.4,9.5-12.3,17.1-12.3s7.4,1.6,9.7,4c.3.3.3.7,0,1l-6,7.8c-.3.6-.8.7-1.1.4-1.9-1.5-4.3-2.7-6-2.9-1.5,0-2.8.8-3.3,2-1.2,3.3,13,3,8.6,15.2-2.7,7.3-9.6,12.2-17.3,12.2s-8-1.4-9.7-3.6c-.3-.3-.3-.7,0-1l6-7.8Z"/>
  <path d="M588.7,1242.5c-10.6,0-14.8-7.9-10.5-19.8,4.4-12,14.3-19.9,24.9-19.9s14.8,7.9,10.4,19.9c-4.3,11.8-14.3,19.8-24.9,19.8ZM599,1213.9c-4.1,0-8.1,3.5-10,8.8-1.9,5.2-.5,8.8,3.6,8.8s8.1-3.5,10-8.8c1.9-5.2.4-8.8-3.6-8.8Z"/>
  <path d="M641.2,1238.3c0,.4-.3.8-.8,1-3.6,2-7.9,3.2-11.6,3.2-10.3,0-14.2-7.9-9.9-19.8,4.3-11.9,14.1-19.8,24.4-19.8s7.1,1.2,9.3,3.2c.3.2.4.6,0,1l-6.1,7.7c-.4.5-.8.7-1.1.4-1.4-1.2-3.1-1.5-5.2-1.5-4.5,0-8.8,3.6-10.8,9.1-2,5.5-.3,9.1,4.2,9.1s4.1-.4,6.3-1.5c.5-.2.8,0,.8.4l.5,7.7Z"/>
  <path d="M671.7,1203.6c.4,0,.6.4.4.8l-13.3,36.4c-.1.4-.6.8-1,.8h-8.8c-.3,0-.6-.4-.4-.8l13.3-36.4c.2-.4.6-.8,1-.8h8.8Z"/>
  <path d="M696.4,1231.7c.4,0,.6.3.5.7l-3.1,8.4c-.1.4-.6.8-1,.8h-23.2c-.3,0-.5-.4-.5-.8l13.3-36.4c.2-.5.5-.8,1-.8h22.7c.4,0,.7.4.5.8l-3,8.3c-.2.5-.7.8-1.1.8h-13l-1.6,4.4h10.6c.4,0,.6.4.4.7l-3.5,7.7c-.2.3-.7.7-1.1.7h-9.7l-1.7,4.7h13.6Z"/>
  <path d="M741.4,1203.6c.5,0,.6.4.4.8l-3.8,8.4c-.2.4-.7.8-1.1.8h-7.4l-9.9,27.3c-.1.4-.6.8-1,.8h-8.8c-.4,0-.6-.4-.5-.8l9.9-27.3h-8.3c-.3,0-.6-.3-.4-.8l3-8.3c.2-.4.7-.8,1-.8h26.8Z"/>
  <path d="M776.4,1203.6c.4,0,.7.4.2.9l-19,21.9-5.3,14.4c-.1.4-.6.8-1,.8h-8.8c-.4,0-.6-.4-.5-.8l5.3-14.4-3-21.9c0-.5.4-.9.9-.9h10.4c.5,0,.8.4.8.9l.5,9.9,7.7-9.9c.4-.5,1-.9,1.5-.9h10.4Z"/>
  <path d="M776.3,1234.8c4.3,0,4.6,2.5,3.8,4.5-.8,2.1-2.9,4.6-7.2,4.6s-4.6-2.5-3.8-4.6c.7-2,2.9-4.5,7.1-4.5ZM774.2,1230.1c-.4,0-.6-.4-.5-.8l9.1-27.2c.2-.4.7-.8,1-.8h8.8c.4,0,.6.4.4.8l-10.7,27.2c-.1.4-.6.8-1,.8h-7.2Z"/>
</svg>