<?xml version="1.0" encoding="utf-8"?>
<!-- Generator: Adobe Illustrator 17.1.0, SVG Export Plug-In . SVG Version: 6.00 Build 0)  -->
<!DOCTYPE svg PUBLIC "-//W3C//DTD SVG 1.1//EN" "http://www.w3.org/Graphics/SVG/1.1/DTD/svg11.dtd">
<svg version="1.1" id="Layer_1" xmlns="http://www.w3.org/2000/svg" xmlns:xlink="http://www.w3.org/1999/xlink" x="0px" y="0px"
	 viewBox="0 0 156 213.8" enable-background="new 0 0 156 213.8" xml:space="preserve">
<path fill="#FFB061" d="M25.7,213.3c0,0,4.2-33.3,4-61c-0.4-67.3-4-90.7-4-90.7C23.5,25,49.8,7,79.5,7s52,10.2,49.7,51.7
	c0,0,0.3,38.6,0.3,94.6c0,12.9,5.7,60.1,5.7,60.1"/>
<path fill="#1A1A1A" d="M84,211.4"/>
<circle fill="#2D2D2B" cx="31.5" cy="34.4" r="3"/>
<path fill="#2D2D2B" d="M92.4,39.3c0.4,2.1-1.4,3.9-3.5,3.5c-1.2-0.2-2.1-1.2-2.4-2.4c-0.4-2.1,1.4-3.9,3.5-3.5
	C91.2,37.2,92.1,38.2,92.4,39.3z"/>
<g>
	<path fill="#FF4E50" d="M88.6,89.8c0,12.2-17.6,22.1-39.3,22.1s-36.1-10.1-36.1-22.3s14.4-22,36.1-22c20,0,36.5,8.4,39,19.3
		C88.5,87.9,88.6,88.8,88.6,89.8z"/>
	<g>
		<path fill="#FF4E50" d="M83,82.3c1.2,5.4,2.7,9.6,4.1,12.8c2.3-5.5,4.8-8.6,7-10.1C90.5,83.9,86.8,82.9,83,82.3z"/>
	</g>
	<path fill="#2D2D2B" d="M67.1,89.5c0,5.3-9.8,9.6-21.9,9.6S25,94.8,25,89.5S33.1,80,45.2,80c11.1,0,20.4,3.6,21.8,8.3
		C67.1,88.7,67.1,89.1,67.1,89.5z"/>
</g>
<line fill="none" stroke="#F9F7F7" stroke-width="0.75" stroke-miterlimit="10" x1="25.6" y1="211.1" x2="25.6" y2="215.8"/>
<line fill="none" stroke="#2D2D2B" stroke-width="2" stroke-linecap="round" stroke-miterlimit="10" x1="24.1" y1="31" x2="38.9" y2="31"/>
<line fill="none" stroke="#2D2D2B" stroke-width="2" stroke-linecap="round" stroke-miterlimit="10" x1="82" y1="36.4" x2="96.8" y2="36.4"/>
</svg>
