<?xml version="1.0" encoding="utf-8"?>
<!-- Generator: Adobe Illustrator 20.1.0, SVG Export Plug-In . SVG Version: 6.00 Build 0)  -->
<svg version="1.1" id="Capa_1" xmlns="http://www.w3.org/2000/svg" xmlns:xlink="http://www.w3.org/1999/xlink" x="0px" y="0px"
	 viewBox="0 0 23.1 22.1" style="enable-background:new 0 0 23.1 22.1;" xml:space="preserve">
<g>
	<path d="M11.1,0C4.9,0,0,4.9,0,11.1s4.9,11.1,11.1,11.1s11.1-4.9,11.1-11.1S17.2,0,11.1,0z M17.6,17.6c-0.9,0.9-1.8,1.5-3,2
		c-0.3,0.1-0.6,0.2-0.9,0.3v-1.7c0-0.9-0.3-1.5-0.9-1.9c0.4,0,0.7-0.1,1-0.2s0.6-0.2,1-0.3c0.3-0.1,0.7-0.3,0.9-0.4
		c0.3-0.2,0.5-0.4,0.8-0.7c0.3-0.3,0.5-0.6,0.6-0.9c0.2-0.3,0.3-0.8,0.4-1.2c0.1-0.5,0.2-1,0.2-1.6c0-1.1-0.4-2.1-1.1-2.8
		c0.3-0.9,0.3-1.8-0.1-2.8l-0.3,0c-0.2,0-0.5,0.1-1,0.2c-0.5,0.2-1,0.5-1.6,0.9c-0.9-0.2-1.7-0.4-2.7-0.4c-0.9,0-1.8,0.1-2.7,0.4
		C8.1,6.2,7.7,6,7.4,5.9S6.7,5.6,6.5,5.5C6.3,5.5,6.1,5.4,6,5.4c-0.2,0-0.3,0-0.3,0c-0.1,0-0.1,0-0.1,0c-0.4,1-0.4,2-0.1,2.8
		C4.7,9,4.3,10,4.3,11.1c0,0.6,0.1,1.1,0.2,1.6c0.1,0.5,0.2,0.9,0.4,1.2c0.2,0.3,0.4,0.6,0.6,0.9c0.3,0.3,0.5,0.5,0.8,0.7
		c0.3,0.2,0.6,0.3,0.9,0.4c0.3,0.1,0.7,0.2,1,0.3c0.3,0.1,0.7,0.1,1,0.2c-0.6,0.4-0.9,1-0.9,1.9v1.7c-0.3-0.1-0.6-0.2-1-0.3
		c-1.1-0.5-2.1-1.1-3-2c-0.9-0.9-1.5-1.8-2-3c-0.5-1.1-0.7-2.4-0.7-3.6S2,8.6,2.5,7.4c0.5-1.1,1.1-2.1,2-3s1.8-1.5,3-2
		C8.6,2,9.8,1.8,11.1,1.8s2.5,0.2,3.6,0.7c1.1,0.5,2.1,1.1,3,2c0.9,0.9,1.5,1.8,2,3c0.5,1.1,0.7,2.4,0.7,3.6s-0.2,2.5-0.7,3.6
		C19.1,15.8,18.5,16.8,17.6,17.6z"/>
</g>
</svg>
