<?xml version="1.0" encoding="utf-8"?>
<!-- Generator: Adobe Illustrator 24.0.1, SVG Export Plug-In . SVG Version: 6.00 Build 0)  -->
<svg version="1.1" id="Layer_1" xmlns="http://www.w3.org/2000/svg" xmlns:xlink="http://www.w3.org/1999/xlink" x="0px" y="0px"
	 viewBox="0 0 20 20" style="enable-background:new 0 0 20 20;" xml:space="preserve">
<style type="text/css">
	.st0{fill-rule:evenodd;clip-rule:evenodd;}
</style>
<title>IG Logo</title>
<g>
	<path class="st0" d="M10,0.4C7.4,0.4,7,0.4,6,0.5c-1,0-1.7,0.2-2.3,0.4C3.1,1.2,2.5,1.5,2,2C1.5,2.5,1.2,3.1,0.9,3.7
		C0.7,4.3,0.5,5,0.5,6c0,1-0.1,1.3-0.1,3.9s0,2.9,0.1,3.9c0,1,0.2,1.7,0.4,2.3c0.2,0.6,0.6,1.2,1.1,1.7c0.5,0.5,1.1,0.9,1.7,1.1
		C4.3,19.2,5,19.4,6,19.4c1,0,1.3,0.1,3.9,0.1s2.9,0,3.9-0.1c1,0,1.7-0.2,2.3-0.4c0.6-0.2,1.2-0.6,1.7-1.1c0.5-0.5,0.9-1.1,1.1-1.7
		c0.2-0.6,0.4-1.3,0.4-2.3c0-1,0.1-1.3,0.1-3.9s0-2.9-0.1-3.9c0-1-0.2-1.7-0.4-2.3c-0.2-0.6-0.6-1.2-1.1-1.7
		c-0.5-0.5-1.1-0.9-1.7-1.1c-0.6-0.2-1.3-0.4-2.3-0.4C12.9,0.4,12.5,0.4,10,0.4z M10,2.1c2.5,0,2.8,0,3.9,0.1c0.9,0,1.4,0.2,1.8,0.3
		c0.4,0.2,0.8,0.4,1.1,0.7c0.3,0.3,0.5,0.7,0.7,1.1c0.1,0.3,0.3,0.8,0.3,1.8c0,1,0.1,1.3,0.1,3.9s0,2.8-0.1,3.9
		c0,0.9-0.2,1.4-0.3,1.8c-0.2,0.4-0.4,0.8-0.7,1.1c-0.3,0.3-0.7,0.5-1.1,0.7c-0.3,0.1-0.8,0.3-1.8,0.3c-1,0-1.3,0.1-3.9,0.1
		s-2.8,0-3.9-0.1c-0.9,0-1.4-0.2-1.8-0.3c-0.4-0.2-0.8-0.4-1.1-0.7c-0.3-0.3-0.6-0.7-0.7-1.1c-0.1-0.3-0.3-0.8-0.3-1.8
		c0-1-0.1-1.3-0.1-3.9s0-2.8,0.1-3.9c0-0.9,0.2-1.4,0.3-1.8c0.2-0.4,0.4-0.8,0.7-1.1c0.3-0.3,0.7-0.5,1.1-0.7
		c0.3-0.1,0.8-0.3,1.8-0.3C7.1,2.1,7.4,2.1,10,2.1z"/>
	<path class="st0" d="M10,13.1c-1.8,0-3.2-1.4-3.2-3.2c0-1.8,1.4-3.2,3.2-3.2c0,0,0,0,0,0c1.8,0,3.2,1.4,3.2,3.2
		C13.1,11.7,11.7,13.1,10,13.1z M10,5.1c-2.7,0-4.9,2.2-4.9,4.9c0,2.7,2.2,4.9,4.9,4.9c0,0,0,0,0,0c2.7,0,4.9-2.2,4.9-4.9
		C14.9,7.2,12.7,5.1,10,5.1z M16.3,5c0,0.6-0.5,1.2-1.2,1.2S14,5.6,14,5s0.5-1.2,1.2-1.2S16.3,4.3,16.3,5"/>
</g>
</svg>
