<?xml version="1.0" encoding="utf-8"?>
<!-- Generator: Adobe Illustrator 20.1.0, SVG Export Plug-In . SVG Version: 6.00 Build 0)  -->
<svg version="1.1" id="Layer_1" xmlns="http://www.w3.org/2000/svg" xmlns:xlink="http://www.w3.org/1999/xlink" x="0px" y="0px"
	 viewBox="0 0 31.8 48" style="enable-background:new 0 0 31.8 48;" xml:space="preserve">
<style type="text/css">
	.st0{fill:#333333;}
	.st1{fill:none;stroke:#E57373;stroke-width:7.9182;stroke-linecap:round;stroke-linejoin:round;stroke-miterlimit:10;}
	.st2{fill:#FFFFFF;}
	.st3{fill:#FF6569;}
	.st4{fill:#333333;stroke:#E57373;stroke-width:7.9182;stroke-linecap:round;stroke-linejoin:round;stroke-miterlimit:10;}
</style>
<g>
	<g>
		<path class="st0" d="M985.3,40.3c-0.9,0-1.8-0.3-2.5-0.9c-1.7-1.4-1.9-3.9-0.5-5.6c0.8-1,19.9-23.3,50.1-13.9
			c2.1,0.6,3.3,2.9,2.6,5c-0.6,2.1-2.9,3.3-5,2.6c-25.1-7.8-41.1,10.6-41.7,11.4C987.6,39.8,986.5,40.3,985.3,40.3z"/>
	</g>
</g>
<g>
	<g>
		<path class="st0" d="M1065.5,22.9c-1,0-2-0.4-2.8-1.1c-1.6-1.5-1.6-4-0.1-5.6c0.9-0.9,21.7-21.6,51.1-9.8c2,0.8,3,3.1,2.2,5.1
			c-0.8,2-3.1,3-5.1,2.2c-24.6-9.9-42.3,7.8-42.5,8C1067.5,22.5,1066.5,22.9,1065.5,22.9z"/>
	</g>
</g>
<g>
	<g>
		<path class="st0" d="M1014.1,74.8c-10.2,0-18.4-8.3-18.4-18.4s8.3-18.4,18.4-18.4s18.4,8.3,18.4,18.4S1024.2,74.8,1014.1,74.8z
			 M1014.1,41.9c-8,0-14.5,6.5-14.5,14.5s6.5,14.5,14.5,14.5c8,0,14.5-6.5,14.5-14.5S1022,41.9,1014.1,41.9z"/>
	</g>
</g>
<g>
	<g>
		<path class="st0" d="M1093.7,55.3c-10.2,0-18.4-8.3-18.4-18.4s8.3-18.4,18.4-18.4c10.2,0,18.4,8.3,18.4,18.4
			S1103.9,55.3,1093.7,55.3z M1093.7,22.5c-8,0-14.5,6.5-14.5,14.5s6.5,14.5,14.5,14.5c8,0,14.5-6.5,14.5-14.5
			S1101.7,22.5,1093.7,22.5z"/>
	</g>
</g>
<circle class="st0" cx="1099" cy="37.1" r="11.7"/>
<circle class="st0" cx="1018.7" cy="56.5" r="11.8"/>
<g>
	<g>
		<path class="st0" d="M1047.8,91.2c-0.8,0-1.6-0.5-1.9-1.4c-0.3-1,0.2-2.2,1.3-2.5c4.4-1.5,8.2-2.5,11.3-3.3c8.4-2.2,9.5-2.9,9-5.2
			c-0.5-2.4-3.2-10.6-6.1-19.3c-2.7-8.2-5.5-16.7-7.2-22.6c-0.3-1.1,0.3-2.1,1.3-2.5c1.1-0.3,2.1,0.3,2.5,1.3
			c1.7,5.8,4.5,14.2,7.2,22.4c3,9.2,5.7,17.1,6.2,19.8c1.3,6.3-4,7.7-11.9,9.8c-3,0.8-6.8,1.8-11.1,3.2
			C1048.2,91.2,1048,91.2,1047.8,91.2z"/>
	</g>
</g>
<g>
	<path class="st0" d="M1091.4-3.3c-1,0-1.9-0.8-2-1.9c-0.6-9.3-4.7-26.4-4.7-26.6c-0.3-1.1,0.4-2.1,1.5-2.4c1.1-0.3,2.1,0.4,2.4,1.5
		c0.2,0.7,4.2,17.6,4.8,27.3c0.1,1.1-0.8,2-1.9,2.1C1091.5-3.3,1091.5-3.3,1091.4-3.3z"/>
</g>
<g>
	<g>
		<path class="st0" d="M1011.7,163.8c-4.6,0-8.9-0.2-13-0.4c-26.3-1.6-51-7.6-63.8-12.9c-1-0.4-1.5-1.6-1.1-2.6
			c0.4-1,1.6-1.5,2.6-1.1c24.4,10,97.5,23.8,133.9-1c22.3-15.2,23.8-78.3,23.8-78.9c0-1.1,0.9-2.1,2-2.1c0,0,0,0,0,0
			c1.1,0,2,1.1,1.9,2.2c-0.1,2.7-1.6,65.7-25.5,82C1055.4,160.6,1031.8,163.8,1011.7,163.8z"/>
	</g>
</g>
<path class="st1" d="M903.5,35.6"/>
<path class="st0" d="M943.6,62.2l-15.5-12.5c0.7,71.6,24.5,107.4,32.8,117.7c1,1.2,0,3-1.5,2.9c-35.4-2.8-60-15-74.9-30.1
	c-9.4-9.5-17.4-23.9-20.8-42c-4.8-25.4-4.4-50.5,3.3-76.4c9.8-32.5,18.4-49.3,46-77.1c30.5-30.8,129.1-62,167.9-16.4
	c48.7,57.4-54.5,65.6-91.8,77.9c-5.2,1.7-10.1,4.3-14.5,7.6c-10.1,7.8-27.9,24.6-28.4,47.4C946.2,62.6,944.5,63.2,943.6,62.2z"/>
<path class="st2" d="M929.1,50.6c-4.7,0.2-18.9,4.9-16.9,20.7c1.4,10.6,9.2,18.3,19.8,17.2C932,88.5,929.6,71.6,929.1,50.6z"/>
<g>
	<g>
		<path class="st3" d="M925.7,53c-0.8,0-1.6-0.2-2.3-0.8c-0.5-0.4-13.3-9.9-21.2-29.3c-0.8-2,0.1-4.3,2.2-5.2c2-0.8,4.3,0.1,5.2,2.2
			c7.1,17.3,18.5,25.8,18.6,25.9c1.8,1.3,2.1,3.8,0.9,5.5C928.1,52.4,926.9,53,925.7,53z"/>
	</g>
	<g>
		<path class="st3" d="M925.7,53c-0.8,0-1.6-0.2-2.3-0.8c-0.5-0.4-13.3-9.9-21.2-29.3c-0.8-2,0.1-4.3,2.2-5.2c2-0.8,4.3,0.1,5.2,2.2
			c7.1,17.3,18.5,25.8,18.6,25.9c1.8,1.3,2.1,3.8,0.9,5.5C928.1,52.4,926.9,53,925.7,53z"/>
	</g>
</g>
<path class="st4" d="M923.3,63.2"/>
<path class="st0" d="M1083.7,100.6c-0.1-2.4-2.4-4-4.7-3.5c-18.9,4.2-42.2,8.6-60.6,12.8c-2.9,0.6-5.9,1.4-7.9,3.5
	c-3.7,3.9-2.1,10.4,0.7,14.9c5.6,9.1,15.4,15.6,25.9,17.3c10.6,1.6,21.8-1.6,30-8.6c9.1-7.8,13.9-19.6,16.2-31.4
	C1083.6,104,1083.8,102.2,1083.7,100.6z"/>
<path class="st0" d="M1096,67.1c0,0,3.9,39.1,20.3,66.7c0.7,1.2,0,2.6-1.4,2.8c-16.6,3-34,2.2-34,2.2
	C1091.4,125.8,1096,67.1,1096,67.1z"/>
<g>
	<path class="st2" d="M8.9,44.5c-0.5,0-1-0.2-1.4-0.6c-0.8-0.8-0.9-2.1-0.1-3L23,24.1L7.4,7.4c-0.8-0.8-0.7-2.2,0.1-3
		c0.8-0.8,2.2-0.7,3,0.1l17,18.2c0.8,0.8,0.8,2.1,0,2.9l-17,18.2C10,44.2,9.5,44.4,8.9,44.5z"/>
</g>
</svg>
