<?xml version="1.0" encoding="utf-8"?>
<!-- Generator: Adobe Illustrator 17.1.0, SVG Export Plug-In . SVG Version: 6.00 Build 0)  -->
<!DOCTYPE svg PUBLIC "-//W3C//DTD SVG 1.1//EN" "http://www.w3.org/Graphics/SVG/1.1/DTD/svg11.dtd">
<svg version="1.1" id="Layer_1" xmlns="http://www.w3.org/2000/svg" xmlns:xlink="http://www.w3.org/1999/xlink" x="0px" y="0px"
	 viewBox="0 0 200 200" enable-background="new 0 0 200 200" xml:space="preserve">
<path fill="#232323" d="M183.6,92.6c-36.2,6.2-71.9,14.4-71.9,14.4c-2.6,0.5-5.1-1.1-5.6-3.7l-0.3-1.6c-0.5-2.6,1.1-5.1,3.7-5.6
	c0,0,36.9-6.3,71.9-14.4c2.6-0.5,5.1,1.1,5.6,3.7l0.3,1.6C188.1,89.6,186.2,92.1,183.6,92.6z"/>
<path fill="#232323" stroke="#3F3F3F" stroke-width="3.142" stroke-miterlimit="10" d="M114,109.2l-3.5,0.7L107,92.4l3.5-0.7
	c0,0,3,6.1,3.5,8.5C114.5,102.7,114,109.2,114,109.2z"/>
<circle fill="#3F3F3F" stroke="#232323" stroke-width="2" stroke-miterlimit="10" cx="61.3" cy="110.8" r="46.3"/>
<path fill="#232323" d="M11.9,132c0.1,2.5,9.5,1.7,9.5,1.7l-5.3-31.9c0,0-9.2,5.3-8.5,8.2C9.2,116.9,11.5,126.3,11.9,132z"/>
<path fill="#F4F7D7" d="M89.3,101c4.6,4.9,2.4,10.2,0.2,14.6c-1.8,3.6-2.9,9.6-8.6,12.9c-3.9,2.2-10.3,1-15.8,3
	c-6.1,1.8-11.4,6.2-16.2,6.3c-7,0-11.1-5-14.3-8.5c-3.3-3.7-7.1-8.5-4-15.4c2-4.2,7.5-6.5,9.4-10.5c2.4-4.4,1.3-10.5,3.6-13.7
	c3.5-5.2,8.3-5.4,11.6-4.9c3.1,0.1,8.5-2.4,13.3,0c3.4,1.7,5.2,7.1,8.9,10.1C80.6,97.4,86.5,97.6,89.3,101z"/>
<circle fill="#E5CC13" cx="67.1" cy="110.5" r="6.9"/>
</svg>
