<svg xmlns="http://www.w3.org/2000/svg" viewBox="0 0 194.7 65.5" enable-background="new 0 0 194.7 65.5"><path fill="#F7F7EB" d="M17.1 52.3c0 1.7 1.3 3 3 3h152c1.7 0 3-1.3 3-3V21.8c0-1.7-1.3-3-3-3h-152c-1.7 0-3 1.3-3 3v30.5z"/><path stroke="#232323" stroke-width="2" stroke-linecap="round" stroke-linejoin="round" stroke-miterlimit="10" d="M17.1 52.3c0 1.7 1.3 3 3 3h152c1.7 0 3-1.3 3-3V21.8c0-1.7-1.3-3-3-3h-152c-1.7 0-3 1.3-3 3v30.5zM174.1 43.6H167V25.9h7.1" fill="none"/><path fill="#fff" stroke="#232323" stroke-width="2" stroke-linecap="round" stroke-linejoin="round" stroke-miterlimit="10" d="M25.7 31.3h39.8v9.8H25.7zM71.2 31.3H111v9.8H71.2zM116.4 31.3h39.8v9.8h-39.8z"/><path stroke="#F4AEAE" stroke-width="3" stroke-linecap="round" stroke-linejoin="round" stroke-miterlimit="10" fill="none" d="M25.8 46.6h131.1"/><path stroke="#232323" stroke-width="1.5" stroke-linecap="round" stroke-linejoin="round" stroke-miterlimit="10" fill="none" d="M9.8 58.3h174.3"/><path stroke="#232323" stroke-width="2" stroke-linecap="round" stroke-linejoin="round" stroke-miterlimit="10" fill="none" d="M140.8 56.3h19.4M101.1 56.3h19.5M63.8 56.3h19.4M24.7 56.3h19.5M122.2 14.9H61.6M126.5 10.9h-23.4"/><circle stroke="#232323" stroke-miterlimit="10" cx="169.7" cy="32.3" r="2.6"/><path stroke="#232323" stroke-width="4" stroke-miterlimit="10" fill="none" d="M168.7 32.3v11.3"/><path stroke="#232323" stroke-width="1.5" stroke-linecap="round" stroke-linejoin="round" stroke-miterlimit="10" fill="none" d="M5.8 55.3h174.3"/></svg>