<?xml version="1.0" encoding="utf-8"?>
<!-- Generator: Adobe Illustrator 17.1.0, SVG Export Plug-In . SVG Version: 6.00 Build 0)  -->
<!DOCTYPE svg PUBLIC "-//W3C//DTD SVG 1.1//EN" "http://www.w3.org/Graphics/SVG/1.1/DTD/svg11.dtd">
<svg version="1.1" id="Layer_1" xmlns="http://www.w3.org/2000/svg" xmlns:xlink="http://www.w3.org/1999/xlink" x="0px" y="0px"
	 viewBox="0 0 156 213.8" enable-background="new 0 0 156 213.8" xml:space="preserve">
<path fill="#F9D423" d="M28.8,72.6C26.6,36,52.9,18,82.7,18s50.8,20.7,54.7,54.7c0,0,4.3,19.3,4.3,75.3c0,12.9-3.3,66.3-3.3,66.3
	H28.8c0,0,4.2-23.3,4-51C32.4,96,28.8,72.6,28.8,72.6z"/>
<g>
	<path fill="#AF0814" d="M92.5,83.4c0,15.4-18.3,27.8-40.8,27.8S10,98.8,10,83.4s19.1-27.8,41.7-27.8c20.7,0,37.9,10.6,40.5,24.2
		C92.4,81,92.5,82.2,92.5,83.4z"/>
	<path fill="#2D2D2B" d="M79.8,82.5c0,10.2-13.8,21.4-30.9,21.4S14.5,96.2,16,82.5c1.2-11,14.6-19.8,32.9-18.4
		C68.7,65.6,79.8,72.3,79.8,82.5z"/>
	<polygon fill="#AF0814" points="100.8,81.1 90.8,89.6 90.5,74.8 	"/>
</g>
<circle fill="#2D2D2B" cx="36.3" cy="39.9" r="3"/>
<circle fill="#2D2D2B" cx="113.7" cy="50.9" r="3"/>
</svg>
