<svg id="lamp" xmlns="http://www.w3.org/2000/svg" viewBox="0 0 102.2 107" enable-background="new 0 0 102.2 107"><path stroke="#262626" stroke-width="1.293" stroke-linecap="round" stroke-linejoin="round" stroke-miterlimit="10" stroke-dasharray="0.6466,3.8799" fill="none" d="M55.9 31.3v23.2"/><path fill="#262626" d="M57.7 58.8c0 1-.8 1.9-1.9 1.9-1 0-1.9-.8-1.9-1.9 0-1 .8-1.9 1.9-1.9 1.1.1 1.9.9 1.9 1.9z"/><path stroke="#262626" stroke-width="2.059" stroke-linecap="round" stroke-linejoin="round" stroke-miterlimit="10" d="M49.1 24.8v71.6" fill="none"/><path fill="#232323" stroke="#232323" stroke-width="2" stroke-linecap="round" stroke-linejoin="round" stroke-miterlimit="10" d="M86.2 22.9c0 4.6-3.2 4.4-7.2 4.4H19.2c-4 0-7.2.3-7.2-4.4v-3.3c0-4.6 2.9-8.9 8.2-9.4C34.5 9 63.5 9 78 10.2c5.4.5 8.2 4.7 8.2 9.4v3.3z"/><path fill="#262626" d="M74.6 96.8c0 .9-.9 1.7-2 1.7h-47c-1.1 0-2-.8-2-1.7 0-.9.9-1.7 2-1.7h47c1.1 0 2 .8 2 1.7z"/><path fill="#F7F7EB" stroke="#232323" stroke-miterlimit="10" d="M84.2 23.7c0 3.7-3 3.5-6.7 3.5H21.8c-3.7 0-6.7.2-6.7-3.5v-2.6c0-3.7 2.7-7.2 7.7-7.6 13.3-1 40.3-1 53.8 0 5 .4 7.7 3.8 7.7 7.6v2.6z"/><path fill="#B8F1F4" d="M74.3 22.4H15.6l.1-2.1h58.7c1.4 0 2.2-.5 2.3-.7-.1-.1-.9-.6-2.3-.6l-58.6.7s.5-2 .8-2c5.5.1 57.7-.8 57.7-.8 2.5 0 4.4 1.2 4.4 2.8s-1.9 2.7-4.4 2.7z"/><path fill="#232323" d="M62.1 29.2c0 .8-.6 1.4-1.4 1.4H37.5c-.8 0-1.4-.6-1.4-1.4 0-.8.6-1.4 1.4-1.4h23.1c.8-.1 1.5.6 1.5 1.4zM56.2 95.5H42c-.5 0-.9-.4-.9-.9s.4-.9.9-.9h14.2c.5 0 .9.4.9.9s-.4.9-.9.9z"/></svg>