<svg id="satchel" xmlns="http://www.w3.org/2000/svg" viewBox="0 -1 200 152" enable-background="new 0 -1 200 152"><path fill="#D6C965" stroke="#232323" stroke-width="2.5" stroke-linecap="round" stroke-linejoin="round" stroke-miterlimit="10" d="M154.1 99.5l1.4 41.2s-57.6 3.5-115 0l1.4-40.5"/><path fill="#D6C965" stroke="#232323" stroke-width="2.5" stroke-linecap="round" stroke-linejoin="round" stroke-miterlimit="10" d="M39.6 62.7h116.6v36H39.6v-36z"/><path stroke="#232323" stroke-width="2" stroke-linecap="round" stroke-linejoin="round" stroke-miterlimit="10" d="M82.7 60.6s-.7-3.9 0-4.8c2.5-3.4 12-3.5 16.1-3.5 4.1 0 13.6.2 16.1 3.5.7.9 0 4.8 0 4.8" fill="none"/><path fill="#F7F7EB" d="M75.6 125.3l-3.4 3-3.5-3V60.6h6.9v64.7z"/><path fill="#232323" d="M74.9 90.3c-.2 4.6-.2 12.4 0 17h-5.7c.2-4.6.2-12.4 0-17h5.7zm2.3-2.8c-.2.3-2.6.5-5.1.5s-5.1-.2-5.1-.5c.4.7.4 21.9 0 22.4.2-.4 2.7-.5 5.1-.5s5.1.2 5.1.5c-.2-.5-.2-21.7 0-22.4z"/><path fill="#F7F7EB" d="M128.4 125.3l-3.4 3-3.4-3V60.6h6.7v64.7z"/><path fill="#232323" d="M127.9 90.3c-.2 4.6-.2 12.4 0 17h-5.7c.2-4.6.2-12.4 0-17h5.7zm2.5-2.8c-.2.4-2.7.5-5.1.5-2.5 0-5.1-.2-5.3-.5.4.7.4 21.9 0 22.4.2-.4 2.7-.5 5.1-.5 2.5 0 5.1.2 5.1.5-.2-.5-.2-21.7.2-22.4z"/><path stroke="#232323" stroke-width="1.063" stroke-linecap="round" stroke-linejoin="round" stroke-miterlimit="10" stroke-dasharray="0.5315,4.2518" d="M125.1 77.2v42.9m-53-42.9v42.9" fill="none"/></svg>