<?xml version="1.0" encoding="utf-8"?>
<!-- Generator: Adobe Illustrator 17.1.0, SVG Export Plug-In . SVG Version: 6.00 Build 0)  -->
<!DOCTYPE svg PUBLIC "-//W3C//DTD SVG 1.1//EN" "http://www.w3.org/Graphics/SVG/1.1/DTD/svg11.dtd">
<svg version="1.1" id="Layer_1" xmlns="http://www.w3.org/2000/svg" xmlns:xlink="http://www.w3.org/1999/xlink" x="0px" y="0px"
	 viewBox="0 0 156 213.8" enable-background="new 0 0 156 213.8" xml:space="preserve">
<path fill="#E1F5C4" d="M22,84.1c-2.2-36.6,24.1-54.7,53.8-54.7s50.8,20.7,54.7,54.7c0,0-1.9,38.6,4.3,75.3
	c7,41.6-3.3,53.3-3.3,53.3H22c0,0-7.9-6.6-6-38C18.5,132,22,84.1,22,84.1z"/>
<circle fill="#2D2D2B" cx="31.5" cy="50.6" r="3"/>
<circle fill="#2D2D2B" cx="108.9" cy="61.6" r="3"/>
<g>
	<path fill="#CF4647" d="M114.1,110.1c1.7,19.4-20.1,37.1-48.5,39.5S11.6,138.4,10,119s21.2-37.2,49.6-39.6
		c26.2-2.2,48.9,9.2,53.7,26.2C113.7,107,114,108.6,114.1,110.1z"/>
	<g>
		<path fill="#CF4647" d="M121.9,107.5c-3.9,1.8-8.1,5.9-11.8,13.3c-0.9-7.5-1.7-15.8-2-25C112.6,102,117.3,105.6,121.9,107.5z"/>
	</g>
	<path fill="#2D2D2B" d="M94,111.7c0.9,10.9-13.7,21-32.7,22.6c-19,1.6-35.8-5.8-36.8-16.7C23.7,106.8,39,96.6,58,95
		c17.5-1.5,32.5,4.7,35.5,14.2C93.8,110,94,110.9,94,111.7z"/>
</g>
<circle fill="#C8D8AD" cx="128.5" cy="167.5" r="4.5"/>
<circle fill="#C8D8AD" cx="128.5" cy="158.6" r="2.9"/>
<ellipse fill="#C8D8AD" cx="122.1" cy="162.3" rx="1.8" ry="1.7"/>
</svg>
