<?xml version="1.0" encoding="utf-8"?>
<!-- Generator: Adobe Illustrator 17.1.0, SVG Export Plug-In . SVG Version: 6.00 Build 0)  -->
<!DOCTYPE svg PUBLIC "-//W3C//DTD SVG 1.1//EN" "http://www.w3.org/Graphics/SVG/1.1/DTD/svg11.dtd">
<svg version="1.1" id="Layer_1" xmlns="http://www.w3.org/2000/svg" xmlns:xlink="http://www.w3.org/1999/xlink" x="0px" y="0px"
	 viewBox="0 0 200 200" enable-background="new 0 0 200 200" xml:space="preserve">
<path fill="#F7F7EB" stroke="#232323" stroke-width="3.5" stroke-linecap="round" stroke-linejoin="round" stroke-miterlimit="10" d="
	M78.4,185.1c0,0-11.3,1.8-26,1.8c-14.5,0-25.6-1.8-25.6-1.8l-5.3-76.5h62.2L78.4,185.1z"/>
<path fill="#232323" stroke="#232323" stroke-width="2.766" stroke-linecap="round" stroke-linejoin="round" stroke-miterlimit="10" d="
	M85.9,113c0,0-12.2,0.9-33,0.9c-21.4,0-33-0.9-33-0.9l2.7-4.6l-2.7-1.9c0,0,11.3-1.9,33-1.9c21.9,0,33,1.9,33,1.9l-3.5,2.3
	C82.3,108.7,85.9,113,85.9,113z"/>
<path fill="none" stroke="#232323" stroke-width="2" stroke-linecap="round" stroke-linejoin="round" stroke-miterlimit="10" d="
	M34.6,105.7H22.3v-5.8l12.4-1.8V105.7z"/>
<path opacity="0.23" fill="none" stroke="#000000" stroke-width="2.061" stroke-linecap="round" stroke-linejoin="round" stroke-miterlimit="10" enable-background="new    " d="
	M17.5,99.2c-1.2-4.6,2.1-5.5,0.9-10.1c-1.2-4.6-4.8-3.5-6.2-8.1c-1.2-4.6,2.1-5.5,0.9-10.1c-1.2-4.6-4.8-3.5-6.2-8.1"/>
<path fill="#FFFFFF" d="M158.5,147.8c0-3.9-1.9-7.6-4.6-10.1s-6.4-3.7-10.2-3.7c-3.9,0-7.2,1.8-9.7,4.2c-2.7,2.5-4.2,5.7-4.2,9.5
	s1.4,7.2,4.1,9.7s6,3.9,9.9,3.9s7.6-1.2,10.1-3.7C156.4,155.2,158.5,151.7,158.5,147.8L158.5,147.8z"/>
<path fill="none" stroke="#000000" stroke-width="1.276" stroke-linecap="round" stroke-linejoin="round" stroke-miterlimit="10" d="
	M158.5,147.8c0-3.9-1.9-7.6-4.6-10.1s-6.4-3.7-10.2-3.7c-3.9,0-7.2,1.8-9.7,4.2c-2.7,2.5-4.2,5.7-4.2,9.5s1.4,7.2,4.1,9.7
	s6,3.9,9.9,3.9s7.6-1.2,10.1-3.7C156.4,155.2,158.5,151.7,158.5,147.8L158.5,147.8z"/>
<path fill="#FFFFFF" d="M186.4,144.8c0-3.4,1.4-6.7,0.7-9.7c-0.7-3.2-2.1-6.2-3.7-9c-1.4-2.8-4.2-4.9-6.4-7.4
	c-2.1-2.5-3.5-5.7-6-7.6s-6-2.3-9-3.5c-2.8-1.2-5.7-2.3-8.8-3c-3-0.7-6-1.1-9.4-1.1c-3.4,0-6.7-1.2-9.7-0.5
	c-3.2,0.7-5.7,3.5-8.5,4.8c-3,1.4-6,2.1-8.7,4.1c-2.5,1.9-4.2,4.6-6.4,7.1c-2.1,2.5-4.8,4.4-6.2,7.2c-1.4,2.8-1.4,6.2-2.3,9.4
	c-0.7,3-1.8,6-1.8,9.4s0.5,6.4,1.2,9.5c0.7,3.2,1.8,6.2,3.2,9c1.4,2.8,3.2,5.7,5.1,8.1c2.1,2.5,4.2,4.9,6.7,6.9
	c2.5,1.9,5.5,3.4,8.5,4.8c2.8,1.2,6.2,1.6,9.4,2.3c3,0.7,6.2,1.9,9.4,1.9c3.4,0,6.5-0.5,9.5-1.1c3.2-0.7,6.2-1.8,9.2-3.2
	c3-1.4,5.8-3,8.3-4.9c2.5-1.9,3.9-4.9,6-7.4c2.1-2.5,3.7-4.9,5.1-7.8c1.4-2.8,3.4-5.5,4.1-8.7C186.7,151.3,186.4,148.1,186.4,144.8
	L186.4,144.8z"/>
<path fill="none" stroke="#232323" stroke-width="2" stroke-linecap="round" stroke-linejoin="round" stroke-miterlimit="10" d="
	M186.4,144.8c0-3.4,1.4-6.7,0.7-9.7c-0.7-3.2-2.1-6.2-3.7-9c-1.4-2.8-4.2-4.9-6.4-7.4c-2.1-2.5-3.5-5.7-6-7.6s-6-2.3-9-3.5
	c-2.8-1.2-5.7-2.3-8.8-3c-3-0.7-6-1.1-9.4-1.1c-3.4,0-6.7-1.2-9.7-0.5c-3.2,0.7-5.7,3.5-8.5,4.8c-3,1.4-6,2.1-8.7,4.1
	c-2.5,1.9-4.2,4.6-6.4,7.1c-2.1,2.5-4.8,4.4-6.2,7.2c-1.4,2.8-1.4,6.2-2.3,9.4c-0.7,3-1.8,6-1.8,9.4s0.5,6.4,1.2,9.5
	c0.7,3.2,1.8,6.2,3.2,9c1.4,2.8,3.2,5.7,5.1,8.1c2.1,2.5,4.2,4.9,6.7,6.9c2.5,1.9,5.5,3.4,8.5,4.8c2.8,1.2,6.2,1.6,9.4,2.3
	c3,0.7,6.2,1.9,9.4,1.9c3.4,0,6.5-0.5,9.5-1.1c3.2-0.7,6.2-1.8,9.2-3.2c3-1.4,5.8-3,8.3-4.9c2.5-1.9,3.9-4.9,6-7.4
	c2.1-2.5,3.7-4.9,5.1-7.8c1.4-2.8,3.4-5.5,4.1-8.7C186.7,151.3,186.4,148.1,186.4,144.8L186.4,144.8z"/>
<path fill="#E2D6B3" d="M181.4,145.5c0-3.2,0.2-6.4-0.5-9.4c-0.7-3-2.1-5.8-3.4-8.7c-1.4-2.8-3.4-5.1-5.3-7.4
	c-1.9-2.5-3.5-5.3-5.8-7.2c-2.5-1.9-5.1-3.5-8-4.8c-2.8-1.4-5.7-3-8.7-3.5c-3-0.7-6.2,0-9.4,0c-3.2,0-6.4-0.5-9.4,0.2
	c-3,0.7-5.7,2.7-8.5,3.9c-2.8,1.4-5.7,2.5-8.1,4.4c-2.5,1.9-3.9,4.8-5.8,7.2c-1.9,2.5-3.7,4.8-5.1,7.6c-1.4,2.8-2.3,5.7-2.8,8.7
	c-0.7,3-0.5,6-0.5,9c0,3.2-0.7,6.4-0.2,9.2c0.7,3,1.4,6.2,2.8,8.8c1.4,2.8,3,5.7,4.9,8c1.9,2.5,4.9,3.7,7.4,5.7
	c2.5,1.9,4.4,4.6,7.2,6c2.8,1.4,5.7,2.7,8.8,3.4c3,0.7,6.2-0.7,9.4-0.7s6.2,0,9-0.7c3-0.7,6.2-1.1,9-2.3c2.8-1.4,4.8-3.9,7.2-5.8
	s4.4-4.1,6.4-6.4c1.9-2.5,3.9-4.8,5.1-7.4c1.4-2.8,3.5-5.3,4.2-8.3C182,151.8,181.4,148.7,181.4,145.5L181.4,145.5z"/>
<path fill="none" stroke="#232323" stroke-width="3.5" stroke-linecap="round" stroke-linejoin="round" stroke-miterlimit="10" d="
	M181.4,145.5c0-3.2,0.2-6.4-0.5-9.4c-0.7-3-2.1-5.8-3.4-8.7c-1.4-2.8-3.4-5.1-5.3-7.4c-1.9-2.5-3.5-5.3-5.8-7.2
	c-2.5-1.9-5.1-3.5-8-4.8c-2.8-1.4-5.7-3-8.7-3.5c-3-0.7-6.2,0-9.4,0c-3.2,0-6.4-0.5-9.4,0.2c-3,0.7-5.7,2.7-8.5,3.9
	c-2.8,1.4-5.7,2.5-8.1,4.4c-2.5,1.9-3.9,4.8-5.8,7.2c-1.9,2.5-3.7,4.8-5.1,7.6c-1.4,2.8-2.3,5.7-2.8,8.7c-0.7,3-0.5,6-0.5,9
	c0,3.2-0.7,6.4-0.2,9.2c0.7,3,1.4,6.2,2.8,8.8c1.4,2.8,3,5.7,4.9,8c1.9,2.5,4.9,3.7,7.4,5.7c2.5,1.9,4.4,4.6,7.2,6
	c2.8,1.4,5.7,2.7,8.8,3.4c3,0.7,6.2-0.7,9.4-0.7s6.2,0,9-0.7c3-0.7,6.2-1.1,9-2.3c2.8-1.4,4.8-3.9,7.2-5.8s4.4-4.1,6.4-6.4
	c1.9-2.5,3.9-4.8,5.1-7.4c1.4-2.8,3.5-5.3,4.2-8.3C182,151.8,181.4,148.7,181.4,145.5L181.4,145.5z"/>
<path fill="#FFFFFF" d="M154.2,145.1c0-3.9-1.6-6.9-4.2-9.4c-2.7-2.5-5.7-4.1-9.5-4.1s-7.6,1.1-10.2,3.4c-2.7,2.5-4.4,6.2-4.4,10.1
	s1.8,7.4,4.4,10.1c2.7,2.5,6.2,4.8,10.2,4.8c4.1,0,7.2-2.7,9.9-5.1C152.8,152.4,154.2,149,154.2,145.1L154.2,145.1z"/>
<path fill="none" stroke="#232323" stroke-width="3.5" stroke-linecap="round" stroke-linejoin="round" stroke-miterlimit="10" d="
	M154.2,145.1c0-3.9-1.6-6.9-4.2-9.4c-2.7-2.5-5.7-4.1-9.5-4.1s-7.6,1.1-10.2,3.4c-2.7,2.5-4.4,6.2-4.4,10.1s1.8,7.4,4.4,10.1
	c2.7,2.5,6.2,4.8,10.2,4.8c4.1,0,7.2-2.7,9.9-5.1C152.8,152.4,154.2,149,154.2,145.1L154.2,145.1z"/>
<ellipse fill="none" stroke="#262626" stroke-width="1.067" stroke-linecap="round" stroke-linejoin="round" stroke-dasharray="0.7803,4.6818" cx="139.2" cy="145.1" rx="32.9" ry="31.6"/>
<ellipse fill="none" stroke="#262626" stroke-width="1.188" stroke-linecap="round" stroke-linejoin="round" stroke-dasharray="0.5993,3.5957" cx="139.2" cy="145.8" rx="25.1" ry="24.4"/>
<path fill="#FFFFFF" d="M153,137.7c0,1.2-0.9,2.5-1.2,3.7c-0.2,1.2-0.5,2.5-0.9,3.7c-0.4,1.2-1.2,2.1-1.8,3.4
	c-0.5,1.2-0.4,2.7-0.9,3.7c-0.7,1.2-1.9,1.8-2.7,2.8c-0.7,1.2-0.9,2.7-1.6,3.5"/>
<path fill="none" stroke="#232323" stroke-width="2" stroke-linecap="round" stroke-linejoin="round" stroke-miterlimit="10" d="
	M153,137.7c0,1.2-0.9,2.5-1.2,3.7c-0.2,1.2-0.5,2.5-0.9,3.7c-0.4,1.2-1.2,2.1-1.8,3.4c-0.5,1.2-0.4,2.7-0.9,3.7
	c-0.7,1.2-1.9,1.8-2.7,2.8c-0.7,1.2-0.9,2.7-1.6,3.5"/>
<g>
	<g>
		
			<path fill="none" stroke="#66CCD3" stroke-width="1.5" stroke-linecap="round" stroke-linejoin="round" stroke-miterlimit="10" d="
			M26.4,134.1c17.3,1.6,34.7,1.6,52.1,0 M26.9,141.4c17,1.5,34.1,1.5,51.1,0 M27.6,148.8c16.9,1.4,33.9,1.3,50.8-0.1 M27.5,156.3
			c16.7,1.3,33.5,1.3,50.3,0"/>
	</g>
</g>
<path fill="none" stroke="#232323" stroke-width="2.766" stroke-linecap="round" stroke-linejoin="round" stroke-miterlimit="10" d="
	M19.3,108.7"/>
</svg>
