<svg xmlns="http://www.w3.org/2000/svg" viewBox="0 0 119.99 57.26"><defs><style>.a{fill:#383030;}.b{fill:#e50c0c;}.c{fill:#fff;}</style></defs><title>Untitled-6</title><path class="a" d="M6.64,47.43l-3.45-.64A50.22,50.22,0,0,1,52.71,5.85c1.79,0,44,.46,49.7,40.65l-3.47.5C93.62,9.78,54.38,9.35,52.71,9.35A46.72,46.72,0,0,0,6.64,47.43Z" transform="translate(-2.81 -5.85)"/><path class="a" d="M111,48.64L2.81,48.52,3.54,45,111,45.13a8.29,8.29,0,0,0,8.31-8.25v-0.2A8.29,8.29,0,0,0,111,28.44H92.79V24.93H111A11.8,11.8,0,0,1,122.8,36.68v0.2A11.8,11.8,0,0,1,111,48.64Z" transform="translate(-2.81 -5.85)"/><path class="a" d="M10.43,63.11H10.32A7.34,7.34,0,0,1,2.9,55.86L2.83,48.54l3.51,0L6.4,55.84a3.88,3.88,0,0,0,3.91,3.76h0.11a3.77,3.77,0,0,0,3.78-3.75V48.25h3.51v7.61A7.28,7.28,0,0,1,10.43,63.11Z" transform="translate(-2.81 -5.85)"/><path class="b" d="M110.92,25A6,6,0,0,0,99,25" transform="translate(-2.81 -5.85)"/><path class="b" d="M112.87,25H109a4,4,0,0,0-8,0H97A7.91,7.91,0,0,1,112.87,25Z" transform="translate(-2.81 -5.85)"/><rect class="a" x="103.69" y="33.15" width="14" height="3"/><ellipse class="a" cx="110.06" cy="27.83" rx="1.95" ry="1.94"/><path class="a" d="M94.54,63H94.43a7.28,7.28,0,0,1-7.29-7.25V45.51h3.51V55.72a3.77,3.77,0,0,0,3.78,3.75h0.11a4,4,0,0,0,4-3.77v-8h3.51v8A7.5,7.5,0,0,1,94.54,63Z" transform="translate(-2.81 -5.85)"/><path class="a" d="M25.46,57.22a6.14,6.14,0,0,1-6.22-6.1V45.51h3.51v5.61a2.67,2.67,0,0,0,5.33,0v-5.4h3.51v5.4A6.12,6.12,0,0,1,25.46,57.22Z" transform="translate(-2.81 -5.85)"/><path class="b" d="M112.77,25h3.55a1.54,1.54,0,0,0,1.55-1.54v0a1.54,1.54,0,0,0-1.55-1.54h-5.5" transform="translate(-2.81 -5.85)"/><path class="b" d="M20.09,35.31H18.33l-0.81,5.51h-2.1l0.81-5.51H14.44l0.27-1.82h5.66Z" transform="translate(-2.81 -5.85)"/><path class="b" d="M28,38a3.09,3.09,0,0,1-1.4,2.5,4.09,4.09,0,0,1-2.13.53c-1.35,0-2.28-.48-2.57-1.34a2.57,2.57,0,0,1-.12-0.82A5.46,5.46,0,0,1,21.88,38l0.66-4.55h2.1L24,38a3.59,3.59,0,0,0-.05.52,0.69,0.69,0,0,0,.83.8c0.73,0,1-.33,1.17-1.32l0.65-4.49h2.1Z" transform="translate(-2.81 -5.85)"/><path class="b" d="M32.66,40.82h-2.1l1.07-7.33h3.85a1.86,1.86,0,0,1,1.93.88,2,2,0,0,1,.18,1c0,0.15,0,.32,0,0.48a2.4,2.4,0,0,1-1.74,2.09L37,40.82H34.71l-0.95-2.55H33Zm1.56-4.06c0.85,0,1.17-.23,1.26-0.88a2.15,2.15,0,0,0,0-.23c0-.48-0.3-0.66-1-0.66h-1l-0.26,1.77h1Z" transform="translate(-2.81 -5.85)"/><path class="b" d="M45.26,35.31H43.5l-0.81,5.51h-2.1l0.81-5.51H39.61l0.27-1.82h5.66Z" transform="translate(-2.81 -5.85)"/><path class="b" d="M51.48,40.82h-4.8l1.07-7.33h2.11L49.05,39h2.69Z" transform="translate(-2.81 -5.85)"/><path class="b" d="M60.18,35.1H56.94l-0.15,1h3.06l-0.23,1.62H56.55L56.34,39.2H59.9l-0.23,1.62H54l1.07-7.33h5.34Z" transform="translate(-2.81 -5.85)"/><path class="b" d="M72.85,36.19C72.53,35.33,72.23,35,71.58,35h0c-0.92,0-1.58.81-1.78,2.15a4.07,4.07,0,0,0,0,.58A1.29,1.29,0,0,0,71,39.29a1.69,1.69,0,0,0,1.56-1.18l1.65,0.95a3.93,3.93,0,0,1-1,1.15,3.7,3.7,0,0,1-2.5.86A2.88,2.88,0,0,1,67.59,38a6.35,6.35,0,0,1,.05-0.75,4.38,4.38,0,0,1,4.24-4,2.79,2.79,0,0,1,2.2.86,3.22,3.22,0,0,1,.7,1.17Z" transform="translate(-2.81 -5.85)"/><path class="b" d="M78.49,39.77l-0.42,1H75.74l3.66-7.33h2.42l1.48,7.33H81l-0.13-1H78.49Zm1.85-4.57L79.1,38.16h1.6Z" transform="translate(-2.81 -5.85)"/><path class="b" d="M87.58,40.82h-2.1l1.07-7.33H90.5a1.81,1.81,0,0,1,2.09,1.92,3.07,3.07,0,0,1,0,.52,2.7,2.7,0,0,1-2.79,2.51H87.93Zm1.58-3.89a1.07,1.07,0,0,0,1.3-1,1,1,0,0,0,0-.24c0-.52-0.31-0.73-1-0.73h-1l-0.29,1.94h1Z" transform="translate(-2.81 -5.85)"/><path class="a" d="M80.35,58.59a6.14,6.14,0,0,1-6.22-6.1V46.88h3.51v5.61a2.67,2.67,0,0,0,5.33,0V47.1h3.51v5.4A6.12,6.12,0,0,1,80.35,58.59Z" transform="translate(-2.81 -5.85)"/><path class="c" d="M42.66,18.6v0.09l0,0.29V19l0,0,0,0-0.68,0H41.82l-0.27,0H41.46l-0.27,0H40.75l-0.27,0H40.4l-0.45,0H39.71l0,0,0,0V18.61l0-.29V17.86l0-.29V16.73l0-.29V16.36l0-.29V15.61l0-.28V15.25l0,0,0,0h0.11l0.34,0h0.4l0.31,0H41l0.31,0h0.88l0.18,0h0.13l0.07,0,0,0v0.85l0,0,0,0H41.14l-0.23,0H40.73l0,0v0.5l0,0,0.06,0H41.6l0.58,0H42.4l0,0,0,0v0.78l0,0,0,0H42.25l-0.23,0H41.93l-0.42,0H41.1l-0.21,0H40.74l0,0,0,0v0.08l0,0.14v0.26l0,0,0,0h0.43l0.28,0,0.37,0h0.08l0.37,0H42.4l0.19,0,0,0,0,0V18.3Z" transform="translate(-2.81 -5.85)"/><path class="c" d="M46.65,17.89v0.18l0,0.09,0,0.12,0,0.08,0,0.11,0,0.07-0.06.1-0.05.07-0.06.06-0.06.06-0.1.07-0.07,0L46,19l-0.07,0-0.12,0-0.16.05-0.08,0-0.13,0H45.06l-0.25,0H44.42l-0.09,0-0.08,0-0.11,0-0.07,0L44,19l-0.07,0-0.07,0-0.17-.12-0.06-.05-0.09-.08-0.06-.05-0.06-.06,0,0v0l0,0,0,0,0.05-.06,0.15-.14,0-.06L43.74,18l0-.06,0.05-.06,0.06,0H44l0.06,0L44.18,18l0.08,0,0.07,0,0.12,0.06,0.08,0,0.08,0,0.08,0h0.2l0.33,0h0.12l0.08,0,0.07,0,0.05-.05,0,0,0-.08V17.83l0-.08,0,0-0.07-.05,0,0-0.08,0-0.09,0-0.09,0-0.49,0-0.16,0-0.08,0-0.11,0-0.08,0-0.08,0L44,17.28l-0.07,0-0.08,0-0.07,0-0.09-.08,0-.07,0-.08,0-.08,0-.11,0-.08,0-.12V16.12l0-.08,0-.07,0-.08,0.05-.12,0-.08,0-.06,0.05-.06,0.08-.08,0.07-.05,0.07,0,0.07,0,0.1-.06,0.16-.07,0.08,0,0.12,0,0.08,0,0.16,0,0.11,0h0.24l0.16,0h0.2l0.18,0,0.09,0,0.08,0,0.09,0,0.08,0,0.08,0,0.08,0,0.1,0.06,0.07,0,0.07,0,0,0V15.6l0,0.06-0.06.11,0,0.07-0.2.27L46,16.18l-0.06.05,0,0h0l-0.05,0-0.08,0-0.08,0,0,0-0.08,0h0l-0.09,0-0.12,0H44.85l-0.09,0-0.08,0,0,0-0.06,0,0,0,0,0.08v0.09l0,0.07,0,0.07,0.06,0.05,0.06,0,0,0,0.08,0,0.13,0h0.18l0.09,0,0.18,0,0.17,0.05,0.12,0,0.08,0,0.15,0.05,0.1,0,0.07,0,0.07,0,0.07,0,0.15,0.13L46.4,17.2l0.05,0.07,0.06,0.1,0,0.07,0,0.08,0,0.08,0,0.12v0.17Z" transform="translate(-2.81 -5.85)"/><path class="c" d="M50.25,15.62v0.44l0,0,0,0H50l-0.16,0H49.8l-0.24,0H49.24l-0.05,0,0,0v0.07l0,0.32v0.09l0,0.33v0.09l0,0.33V18.7l0,0.24V19l0,0.07,0,0H49l-0.13,0H48.74l-0.23,0H48.42l-0.23,0H48.13l0,0V18.93l0-.23V17.39l0-.33v-0.9l0,0h-1l0,0,0,0V15.62l0-.21V15.33l0-.07,0,0,0,0h0.17l0.19,0h0.08l0.3,0h0.08l0.31,0h0.08l0.38,0h1.52l0,0,0,0v0.36Z" transform="translate(-2.81 -5.85)"/><path class="c" d="M55.53,18.89V19l0,0.07,0,0,0,0,0,0H54.17l-0.52,0H53.47l-0.06,0,0,0V18.62l0-.16V18.34l0-.06h0.06l0.21,0h0.26l0,0,0,0V17.74l0-.33V16.52l0,0,0,0h0l-0.19.07-0.08,0H53.48l0,0,0,0V15.76l0,0,0,0,0.05,0,0,0,0.08,0,0.15,0,0.07,0,0.27-.11,0.08,0,0.28-.09,0.08,0,0.12-.06,0.09,0,0.08,0H54.9l0.05,0,0,0,0,0.07v1.28l0,0.33V17l0,0.34V17.4l0,0.33v0.09l0,0.34v0.05l0,0,0,0H55.5l0,0v0.55Z" transform="translate(-2.81 -5.85)"/><path class="c" d="M59.55,17l0,0.35V18l0,0.08,0,0.13,0,0.08,0,0.11,0,0.08-0.06.1-0.05.07-0.08.1-0.06.06L59,18.84l-0.07,0-0.08,0-0.08,0L58.71,19l-0.08,0-0.08,0-0.08,0-0.16,0-0.08,0-0.18,0-0.13,0H57.66l-0.22,0-0.08,0-0.13,0-0.08,0-0.09,0L57,19,56.9,19l-0.08,0-0.08,0-0.07,0-0.08-.07-0.06-.06,0,0,0-.08-0.06-.12,0-.09,0-.08,0-.17V18l0,0,0,0h0.25l0.24,0h0.35l0.07,0,0,0,0,0.06,0,0,0,0.06,0,0,0.07,0,0.08,0,0.09,0h0.4l0.08,0,0.08,0,0.07,0,0.06-.06,0.06-.08,0-.08,0-.08V17.74l0-.09,0-.07,0,0h0l0,0-0.08,0-0.08,0-0.11,0-0.08,0H57.26l-0.08,0-0.09,0-0.08,0-0.14-.07-0.07,0-0.11-.07-0.06-.05-0.09-.09,0-.06-0.09-.15,0-.08-0.05-.16,0-.14,0-.09v-0.2l0-.16,0-.08,0-.08,0-.08,0-.11,0-.07,0.06-.1,0-.07,0.07-.09,0.06-.06,0.09-.08,0.07-.05,0.08,0,0.08,0,0.12-.05,0.07,0,0.11,0,0.19,0,0.16,0h0.62l0.08,0,0.12,0,0.18,0.05,0.08,0,0.08,0,0.08,0L59,15.44l0.07,0,0.09,0.07,0.06,0.05,0.08,0.09,0.05,0.06,0,0.07,0,0.07,0.07,0.14,0,0.08,0,0.09,0,0.09V17Zm-1.08-.43V16.41l0-.08,0-.07,0-.05,0,0-0.06,0-0.07,0,0,0-0.08,0-0.14,0H57.65l-0.08,0,0,0-0.07,0-0.06.06,0,0.06,0,0,0,0.13v0.09l0,0.08,0,0.07,0,0.07,0.06,0.06,0.07,0,0.12,0.06,0.07,0,0.12,0h0.08l0.16,0,0.08,0,0.08,0,0.07,0,0.06-.06,0-.07,0,0,0-.09v0Z" transform="translate(-2.81 -5.85)"/><path class="c" d="M63.68,18.17v0.14l0,0.07,0,0-0.07,0H63.39l0,0-0.05,0,0,0.07v0.08l0,0.17V19l0,0.08,0,0.05-0.07,0H63l-0.3,0h-0.4l0,0,0-.07V18.53l0-.07,0,0H62.11l-0.34,0H61.69l-0.78,0H60.83l-0.2,0H60.48l-0.06,0,0,0V18.32L60.32,18V17.92l0-.32V17.54l0,0,0,0,0.17-.23,0.05-.07,0.19-.22,0.06-.06,0.2-.21,0.06-.06,0.19-.22,0.05-.07,0.18-.23L61.56,16l0.2-.21,0.06-.06,0.08-.1,0.05-.07,0-.06L62,15.48l0.2-.21,0,0,0,0h0.4l0.28,0h0.21l0,0,0,0v0.07l0,0.34V17l0,0.34v0.07l0,0.06,0.07,0h0.18l0.06,0,0,0,0,0.07v0.48Zm-1.87-.6h0.37l0,0,0-.06V17.39l0-.29V16.66l0,0h0l0,0L62,16.87l-0.06.07-0.16.21-0.06.06-0.18.19,0,0v0l0,0,0.07,0h0.22Z" transform="translate(-2.81 -5.85)"/><path class="c" d="M67.82,17.83v0.31l0,0.12,0,0.08,0,0.11,0,0.08-0.07.11,0,0.06-0.09.09-0.06,0-0.1.08-0.07,0-0.12,0-0.08,0-0.09,0-0.09,0-0.12,0-0.08,0-0.19,0H65.79l-0.26,0-0.13,0-0.08,0-0.11,0-0.08,0L65,18.94l-0.07,0-0.1-.08-0.06-.05-0.07-.09-0.05-.06-0.07-.09,0-.07-0.05-.12,0-.08,0-.12v-0.3l0-.12,0-.08,0.06-.11,0-.07,0-.06,0-.06,0.06-.06,0.06,0,0.07-.07v0l0,0,0-.05-0.06-.08-0.05-.08,0-.08,0-.09,0-.09,0-.09,0-.09V16.12l0-.09,0-.09,0-.09,0-.08,0.05-.07,0.05-.07,0.07-.09,0.06-.06L65,15.42l0.07,0,0,0,0.09,0,0,0,0.08,0,0.08,0,0.12,0,0.08,0,0.08,0h0.73l0.18,0,0.09,0L67,15.3l0.08,0,0.11,0,0.07,0,0.1,0.07,0.07,0,0.07,0.06,0.06,0.07,0.07,0.1,0,0.07,0,0.08,0,0.09,0,0.09v0.38l0,0.08,0,0.12,0,0.08-0.05.08-0.06.07L67.48,17l0,0.05,0,0,0,0,0,0,0.06,0.06,0.06,0.07,0.09,0.15,0,0.08,0,0.11,0,0.09Zm-1.34.4,0.08,0,0,0,0.07-.06,0,0,0-.09V17.81l0-.08,0,0-0.07-.06,0,0-0.08,0-0.1,0-0.08,0-0.12,0H65.91l-0.12,0-0.08,0,0,0-0.06.06,0,0,0,0.08,0,0.08V18l0,0.08,0,0,0.06,0.07,0.07,0.05,0.07,0,0.09,0,0.09,0h0.33l0.08,0ZM65.7,16.15l0,0,0,0.07,0,0.08v0.11l0,0.07,0,0,0.06,0.06,0,0,0.07,0,0,0,0.08,0,0.12,0h0.24l0.11,0,0.06,0,0,0,0-.05,0,0,0-.07,0-.08V16.3l0-.07,0-.07-0.08-.08-0.07,0-0.08,0-0.08,0H66l-0.08,0-0.11,0-0.06,0Z" transform="translate(-2.81 -5.85)"/><path class="a" d="M94.89,28.43C84.09,10,59.94,6.61,52.47,6.61c-18.07,0-32.62,8.66-40.72,21.82" transform="translate(-2.81 -5.85)"/><path class="c" d="M38.38,17.47H36.32l-0.1.67h1.95l-0.15,1H36.07l-0.14.92H38.2l-0.15,1h-3.6l0.68-4.66h3.4Z" transform="translate(-2.81 -5.85)"/><path class="c" d="M43.33,17.85a1.1,1.1,0,0,0-1-.45,0.56,0.56,0,0,0-.64.34V17.8c0,0.15.13,0.21,0.62,0.31a3.91,3.91,0,0,1,.92.26,1.46,1.46,0,0,1,.46.27,0.92,0.92,0,0,1,.28.71,1.09,1.09,0,0,1,0,.25,2.07,2.07,0,0,1-2.3,1.67,3.35,3.35,0,0,1-1.14-.18A2,2,0,0,1,40,20.75a1.24,1.24,0,0,1-.38-0.52l1.17-.64a1.1,1.1,0,0,0,1.1.55,0.65,0.65,0,0,0,.75-0.39V19.69c0-.16-0.14-0.23-0.59-0.33l-0.4-.09a2.09,2.09,0,0,1-1.07-.45,1,1,0,0,1-.27-0.74,1.62,1.62,0,0,1,0-.25,1.94,1.94,0,0,1,2.13-1.55,2.32,2.32,0,0,1,1.4.41,2.1,2.1,0,0,1,.45.46Z" transform="translate(-2.81 -5.85)"/><path class="c" d="M49.05,17.6H47.93l-0.51,3.51H46.08l0.51-3.51H45.45l0.17-1.16h3.6Z" transform="translate(-2.81 -5.85)"/><path class="c" d="M54.42,21.11l0.43-2.93a2.63,2.63,0,0,1-.75.09H53.91l0.16-1.05a1,1,0,0,0,1.17-.63h1.09l-0.66,4.52H54.42Z" transform="translate(-2.81 -5.85)"/><path class="c" d="M59.53,19.91a0.42,0.42,0,0,0,.46.47,1,1,0,0,0,.86-0.66A4.16,4.16,0,0,0,61,19.11a1.75,1.75,0,0,1-1.22.5,1.23,1.23,0,0,1-1.27-1.29,1.92,1.92,0,0,1,2.11-1.91,1.51,1.51,0,0,1,1.63,1.72c0,2.16-1.28,3.14-2.48,3.14a1.23,1.23,0,0,1-1.43-1.16Zm0.79-1.19a0.77,0.77,0,0,0,.74-0.85,0.5,0.5,0,0,0-.53-0.55,0.78,0.78,0,0,0-.75.85A0.5,0.5,0,0,0,60.32,18.72Z" transform="translate(-2.81 -5.85)"/><path class="c" d="M66.74,21.11H65.55l0.14-.92H63.63l0.12-.87,2.4-2.74H67.4L67,19.32h0.62l-0.12.87H66.87ZM66,17.88l-1.28,1.44h1.06Z" transform="translate(-2.81 -5.85)"/><path class="c" d="M72.88,19.64c0,0.64-.38,1.63-2.09,1.63-1.08,0-1.69-.43-1.69-1.19A1.39,1.39,0,0,1,70,18.71,0.86,0.86,0,0,1,69.63,18a1.61,1.61,0,0,1,1.86-1.55c0.93,0,1.47.41,1.47,1.1a1.25,1.25,0,0,1-.7,1.18A1,1,0,0,1,72.88,19.64Zm-1.23,0a0.49,0.49,0,0,0-.56-0.49,0.67,0.67,0,0,0-.73.69,0.5,0.5,0,0,0,.56.5,0.7,0.7,0,0,0,.73-0.59A0.63,0.63,0,0,0,71.65,19.69Zm-0.29-2.37a0.58,0.58,0,0,0-.6.57,0.41,0.41,0,0,0,.47.41,0.57,0.57,0,0,0,.6-0.57A0.41,0.41,0,0,0,71.36,17.31Z" transform="translate(-2.81 -5.85)"/></svg>