<?xml version="1.0" encoding="utf-8"?>
<!-- Generator: Adobe Illustrator 17.1.0, SVG Export Plug-In . SVG Version: 6.00 Build 0)  -->
<!DOCTYPE svg PUBLIC "-//W3C//DTD SVG 1.1//EN" "http://www.w3.org/Graphics/SVG/1.1/DTD/svg11.dtd">
<svg version="1.1" id="Layer_1" xmlns="http://www.w3.org/2000/svg" xmlns:xlink="http://www.w3.org/1999/xlink" x="0px" y="0px"
	 viewBox="0 0 339 75" enable-background="new 0 0 339 75" xml:space="preserve">
<circle fill="#333333" cx="316.9" cy="35.2" r="3.2"/>
<path fill="#FFB79A" d="M5.3,12.9V5.5H46v7.4H29.9v37.7h-8.5V12.9H5.3z"/>
<path fill="#FFB79A" d="M54.1,26.8h8.1v23.7h-8.1v-2.7c-1.5,2.1-4,3.1-6.6,3.1c-5.8,0-11.5-4.7-11.5-12.3s5.7-12.4,11.5-12.4
	c2.4,0,5.1,1.1,6.6,3.1V26.8z M49.1,43.5c2.7,0,4.9-2.2,4.9-4.9s-2.2-4.9-4.9-4.9s-4.9,2.2-4.9,4.9S46.5,43.5,49.1,43.5z"/>
<path fill="#FFB79A" d="M76.8,50.5h-8.1V26.8h8.1v3.7c0.8-3,4.6-4.3,6.7-4.3c6.3,0,9.4,4.3,9.4,11.7v12.6h-8.1V38.1
	c0-3.1-2.2-4.1-3.9-4.1c-1.8,0-4.2,1-4.2,4V50.5z"/>
<path fill="#FFB79A" d="M121.6,26.8l-16,41.9h-8.5l7.3-21.4l-9.3-20.5h8.8l4.6,11.5l4.4-11.5H121.6z"/>
<path fill="#FFB79A" d="M141,26.8h8.1v23.7H141v-2.7c-1.5,2.1-4,3.1-6.6,3.1c-5.8,0-11.5-4.7-11.5-12.3s5.7-12.4,11.5-12.4
	c2.4,0,5.1,1.1,6.6,3.1V26.8z M136.1,43.5c2.7,0,4.9-2.2,4.9-4.9s-2.2-4.9-4.9-4.9s-4.9,2.2-4.9,4.9S133.4,43.5,136.1,43.5z"/>
<path fill="#FFB79A" d="M203.5,50h-7.8V27h7.5v5.7c1.2-4.4,4.3-6.3,7.3-6.3c1,0,2.1,0,3.4,0.6l-1.9,7.4c-1.6-0.6-2.9-0.6-3.6-0.6
	c-3,0-4.8,1.7-4.8,8.6V50z"/>
<path fill="#FFB79A" d="M233.2,27h7.8v23h-7.8v-2.6c-1.4,2-3.8,3.1-6.4,3.1c-5.7,0-11.2-4.5-11.2-12s5.5-12,11.2-12
	c2.3,0,4.9,1,6.4,3.1V27z M228.4,43.3c2.6,0,4.8-2.2,4.8-4.8s-2.2-4.8-4.8-4.8s-4.8,2.2-4.8,4.8S225.8,43.3,228.4,43.3z"/>
<path fill="#FFB79A" d="M253.7,41c-7.2-2-7.1-6.1-7.1-7.7c0-3.5,4.2-6.9,9.4-6.9c4.8,0,10.1,2,10.1,7.9h-7.4c0-1.4-0.8-2.1-2.3-2.1
	c-1,0-1.9,0.4-1.9,1.3c0,0.6,0.3,1.1,1.7,1.5l4.1,1.1c5.9,1.6,6.4,5.5,6.4,7c0,5.1-5.5,7.3-10.4,7.3c-4.9,0-10-2.9-10-8.1h7.4
	c0,1,0.7,2.4,2.7,2.4c1.3,0,2.4-0.6,2.4-1.5c0-0.7-0.4-0.9-2.1-1.3L253.7,41z"/>
<path fill="#FFB79A" d="M278.1,41c-7.2-2-7.1-6.1-7.1-7.7c0-3.5,4.2-6.9,9.4-6.9c4.8,0,10.1,2,10.1,7.9h-7.4c0-1.4-0.8-2.1-2.3-2.1
	c-1,0-1.9,0.4-1.9,1.3c0,0.6,0.3,1.1,1.7,1.5l4.1,1.1c5.9,1.6,6.4,5.5,6.4,7c0,5.1-5.5,7.3-10.4,7.3c-4.9,0-10-2.9-10-8.1h7.4
	c0,1,0.7,2.4,2.7,2.4c1.3,0,2.4-0.6,2.4-1.5c0-0.7-0.4-0.9-2.1-1.3L278.1,41z"/>
<path fill="#FFB79A" d="M300.2,14.9c2.6,0,4.7,1.9,4.7,4.4c0,2.5-2.1,4.5-4.7,4.5c-2.6,0-4.7-2-4.7-4.5
	C295.4,16.8,297.6,14.9,300.2,14.9z M296.3,50h7.8V27h-7.8V50z"/>
<path fill="#FFB79A" d="M330.9,35.3L316,42.4c1.2,1.8,4,2,6.3,0.9c1.2-0.6,2.6-1.6,3.1-3.6c1.2,0.3,5,0.9,6.6,1.2
	c-0.8,3.9-4.3,6.8-7.6,8.3c-6,2.8-13.1,0.9-16.2-5.7c-3.1-6.6,0-13.2,5.9-16c5.9-2.8,12.7-1.1,15.8,5.5
	C330.2,33.5,330.7,34.7,330.9,35.3z M325,32.6c-2.9-3.5-6.7-2.4-8.3-1.6c-1.6,0.8-5.1,3.1-4,7.5L325,32.6z"/>
<path fill="#FFB79A" d="M183.3,27.9c5.4,0.9,7.6,6.5,7.6,10.9c0,6.7-3.4,13.6-13.1,13.6h-17.4v-46h16.2c7.4,0,12.1,4.9,12.1,12.3
	C188.9,21.4,187.7,26.4,183.3,27.9z M176.1,24c2.6,0,4.5-1.9,4.5-5c0-3.1-1.2-5.5-4.4-5.5h-7.2V24H176.1z M168.9,32.7v11.8h7.8
	c3.8,0,5.6-3,5.6-6c0-2.7-1.6-5.8-5.7-5.8H168.9z"/>
</svg>
