<?xml version="1.0" encoding="utf-8"?>
<!-- Generator: Adobe Illustrator 18.1.1, SVG Export Plug-In . SVG Version: 6.00 Build 0)  -->
<svg version="1.1" id="Layer_1" xmlns="http://www.w3.org/2000/svg" xmlns:xlink="http://www.w3.org/1999/xlink" x="0px" y="0px"
	 viewBox="0 148.5 576 98.1" enable-background="new 0 148.5 576 98.1" xml:space="preserve">
<circle fill="#333333" cx="429.5" cy="196.9" r="4.3"/>
<path fill="#FFB79A" d="M9.2,167.7v-11h55.2v11H42.5v50.1H31v-50.1H9.2z"/>
<path fill="#FFB79A" d="M75.3,185.5h11v32.1h-11V214c-2,2.8-5.4,4.2-8.9,4.2c-7.9,0-15.6-6.4-15.6-16.7s7.7-16.8,15.6-16.8
	c3.3,0,6.9,1.5,8.9,4.2V185.5z M68.5,208.1c3.7,0,6.6-3,6.6-6.6c0-3.7-3-6.6-6.6-6.6s-6.6,3-6.6,6.6C61.9,205.2,65,208.1,68.5,208.1
	z"/>
<path fill="#FFB79A" d="M106.1,217.6h-11v-32.1h11v5c1.1-4.1,6.2-5.8,9.1-5.8c8.5,0,12.7,5.8,12.7,15.9v17.1h-11v-16.8
	c0-4.2-3-5.6-5.3-5.6c-2.4,0-5.7,1.4-5.7,5.4v16.9H106.1z"/>
<path fill="#FFB79A" d="M165.8,185.5l-21.7,56.8h-10.5l9.9-29l-12.6-27.8h11.9l6.2,15.6l6-15.6C155,185.5,165.8,185.5,165.8,185.5z"
	/>
<path fill="#FFB79A" d="M191.1,185.5h11v32.1h-11V214c-2,2.8-5.4,4.2-8.9,4.2c-7.9,0-15.6-6.4-15.6-16.7s7.7-16.8,15.6-16.8
	c3.3,0,6.9,1.5,8.9,4.2V185.5z M184.5,208.1c3.7,0,6.6-3,6.6-6.6c0-3.7-3-6.6-6.6-6.6s-6.6,3-6.6,6.6
	C177.8,205.2,180.8,208.1,184.5,208.1z"/>
<path fill="#FFB79A" d="M275.8,216.9h-10.6v-31.2h10.2v7.7c1.6-6,5.8-8.5,9.9-8.5c1.4,0,2.8,0,4.6,0.8l-2.6,10
	c-2.2-0.8-3.9-0.8-4.9-0.8c-4.1,0-6.5,2.3-6.5,11.7v10.3H275.8z"/>
<path fill="#FFB79A" d="M316.1,185.8h10.6v31.2h-10.6v-3.5c-1.9,2.7-5.2,4.2-8.7,4.2c-7.7,0-15.2-6.1-15.2-16.3s7.5-16.3,15.2-16.3
	c3.1,0,6.6,1.4,8.7,4.2V185.8z M309.5,207.9c3.5,0,6.5-3,6.5-6.5c0-3.5-3-6.5-6.5-6.5s-6.5,3-6.5,6.5
	C303,204.9,306,207.9,309.5,207.9z"/>
<path fill="#FFB79A" d="M343.8,204.7c-9.8-2.7-9.6-8.3-9.6-10.4c0-4.7,5.7-9.4,12.7-9.4c6.5,0,13.7,2.7,13.7,10.7h-10
	c0-1.9-1.1-2.8-3.1-2.8c-1.4,0-2.6,0.5-2.6,1.8c0,0.8,0.4,1.5,2.3,2l5.6,1.5c8,2.2,8.7,7.5,8.7,9.5c0,6.9-7.5,9.9-14.1,9.9
	s-13.6-3.9-13.6-11h10c0,1.4,0.9,3.3,3.7,3.3c1.8,0,3.3-0.8,3.3-2c0-0.9-0.5-1.2-2.8-1.8L343.8,204.7z"/>
<path fill="#FFB79A" d="M376.9,204.7c-9.8-2.7-9.6-8.3-9.6-10.4c0-4.7,5.7-9.4,12.7-9.4c6.5,0,13.7,2.7,13.7,10.7h-10
	c0-1.9-1.1-2.8-3.1-2.8c-1.4,0-2.6,0.5-2.6,1.8c0,0.8,0.4,1.5,2.3,2l5.6,1.5c8,2.2,8.7,7.5,8.7,9.5c0,6.9-7.5,9.9-14.1,9.9
	s-13.6-3.9-13.6-11h10c0,1.4,0.9,3.3,3.7,3.3c1.8,0,3.3-0.8,3.3-2c0-0.9-0.5-1.2-2.8-1.8L376.9,204.7z"/>
<path fill="#FFB79A" d="M406.9,169.4c3.5,0,6.4,2.6,6.4,6s-2.8,6.1-6.4,6.1s-6.4-2.7-6.4-6.1C400.4,171.9,403.3,169.4,406.9,169.4z
	 M401.6,216.9h10.6v-31.2h-10.6V216.9z"/>
<path fill="#FFB79A" d="M448.5,197l-20.2,9.6c1.6,2.4,5.4,2.7,8.5,1.2c1.6-0.8,3.5-2.2,4.2-4.9c1.6,0.4,6.8,1.2,8.9,1.6
	c-1.1,5.3-5.8,9.2-10.3,11.2c-8.1,3.8-17.8,1.2-22-7.7s0-17.9,8-21.7c8-3.8,17.2-1.5,21.4,7.5C447.5,194.6,448.2,196.2,448.5,197z
	 M440.5,193.4c-3.9-4.7-9.1-3.3-11.2-2.2c-2.2,1.1-6.9,4.2-5.4,10.2L440.5,193.4z"/>
<path fill="#FFB79A" d="M248.4,187c7.3,1.2,10.3,8.8,10.3,14.8c0,9.1-4.6,18.4-17.8,18.4h-23.6v-62.3h22c10,0,16.4,6.6,16.4,16.7
	C256,178.2,254.4,185,248.4,187z M238.7,181.7c3.5,0,6.1-2.6,6.1-6.8s-1.6-7.5-6-7.5H229v14.2H238.7z M228.9,193.5v16h10.6
	c5.2,0,7.6-4.1,7.6-8.1c0-3.7-2.2-7.9-7.7-7.9H228.9z"/>
<path fill="#222222" d="M563.5,167.1c0,8.9-7.3,16.3-16.3,16.3h-62.6c-2.3,0-5.6,0-7.3,0s-5,0-7,0c-8.9,0-16.3-7.3-16.3-16.3v-0.3
	c0-8.9,7.3-16.3,16.3-16.3h77c8.9,0,16.3,7.3,16.3,16.3V167.1L563.5,167.1z"/>
<g enable-background="new    ">
	<path fill="#FFFFFF" d="M467.5,158.3v5.5c0.9-1.1,2-1.6,3.3-1.6c0.7,0,1.3,0.1,1.8,0.4s0.9,0.6,1.2,0.9c0.3,0.4,0.5,0.8,0.6,1.3
		c0.1,0.5,0.1,1.2,0.1,2.2v6.4h-2.9v-5.8c0-1.1-0.1-1.9-0.2-2.2s-0.3-0.6-0.6-0.7c-0.3-0.2-0.6-0.3-1-0.3c-0.5,0-0.9,0.1-1.3,0.3
		s-0.7,0.6-0.8,1.1c-0.2,0.5-0.3,1.2-0.3,2.1v5.5h-2.9v-15H467.5z"/>
	<path fill="#FFFFFF" d="M484.4,169.9l2.9,0.5c-0.4,1.1-1,1.9-1.7,2.4c-0.8,0.6-1.8,0.8-3,0.8c-1.9,0-3.3-0.6-4.2-1.9
		c-0.7-1-1.1-2.2-1.1-3.8c0-1.8,0.5-3.2,1.4-4.2s2.1-1.5,3.6-1.5c1.6,0,2.9,0.5,3.8,1.6c0.9,1.1,1.4,2.7,1.3,4.9h-7.2
		c0,0.9,0.3,1.5,0.7,2c0.4,0.5,1,0.7,1.7,0.7c0.5,0,0.8-0.1,1.1-0.4S484.3,170.4,484.4,169.9z M484.6,167c0-0.8-0.2-1.5-0.6-1.9
		c-0.4-0.4-0.9-0.7-1.5-0.7c-0.6,0-1.1,0.2-1.6,0.7s-0.6,1.1-0.6,1.9H484.6z"/>
	<path fill="#FFFFFF" d="M490.4,173.4v-15h2.9v15H490.4z"/>
	<path fill="#FFFFFF" d="M496.9,173.4v-15h2.9v15H496.9z"/>
	<path fill="#FFFFFF" d="M502.7,167.8c0-1,0.2-1.9,0.7-2.8c0.5-0.9,1.1-1.6,2-2.1c0.9-0.5,1.8-0.7,2.9-0.7c1.6,0,3,0.5,4.1,1.6
		c1.1,1.1,1.6,2.4,1.6,4.1c0,1.6-0.5,3-1.6,4.1c-1.1,1.1-2.4,1.6-4,1.6c-1,0-2-0.2-2.9-0.7c-0.9-0.5-1.6-1.1-2.1-2
		C502.9,170.1,502.7,169,502.7,167.8z M505.7,167.9c0,1.1,0.3,1.9,0.8,2.5c0.5,0.6,1.1,0.9,1.9,0.9s1.4-0.3,1.9-0.9
		c0.5-0.6,0.8-1.4,0.8-2.5c0-1.1-0.3-1.9-0.8-2.5c-0.5-0.6-1.1-0.9-1.9-0.9s-1.4,0.3-1.9,0.9C505.9,166,505.7,166.8,505.7,167.9z"/>
	<path fill="#FFFFFF" d="M516.2,167.8c0-1,0.2-1.9,0.7-2.8c0.5-0.9,1.1-1.6,2-2.1c0.9-0.5,1.8-0.7,2.9-0.7c1.6,0,3,0.5,4.1,1.6
		c1.1,1.1,1.6,2.4,1.6,4.1c0,1.6-0.5,3-1.6,4.1c-1.1,1.1-2.4,1.6-4,1.6c-1,0-2-0.2-2.9-0.7c-0.9-0.5-1.6-1.1-2.1-2
		C516.4,170.1,516.2,169,516.2,167.8z M519.1,167.9c0,1.1,0.3,1.9,0.8,2.5c0.5,0.6,1.1,0.9,1.9,0.9s1.4-0.3,1.9-0.9
		c0.5-0.6,0.8-1.4,0.8-2.5c0-1.1-0.3-1.9-0.8-2.5c-0.5-0.6-1.1-0.9-1.9-0.9s-1.4,0.3-1.9,0.9C519.4,166,519.1,166.8,519.1,167.9z"/>
	<path fill="#FFFFFF" d="M529.6,167.8c0-1,0.2-1.9,0.7-2.8c0.5-0.9,1.1-1.6,2-2.1c0.9-0.5,1.8-0.7,2.9-0.7c1.6,0,3,0.5,4.1,1.6
		c1.1,1.1,1.6,2.4,1.6,4.1c0,1.6-0.5,3-1.6,4.1c-1.1,1.1-2.4,1.6-4,1.6c-1,0-2-0.2-2.9-0.7c-0.9-0.5-1.6-1.1-2.1-2
		C529.9,170.1,529.6,169,529.6,167.8z M532.6,167.9c0,1.1,0.3,1.9,0.8,2.5c0.5,0.6,1.1,0.9,1.9,0.9s1.4-0.3,1.9-0.9
		c0.5-0.6,0.8-1.4,0.8-2.5c0-1.1-0.3-1.9-0.8-2.5c-0.5-0.6-1.1-0.9-1.9-0.9s-1.4,0.3-1.9,0.9C532.8,166,532.6,166.8,532.6,167.9z"/>
	<path fill="#FFFFFF" d="M543.1,167.8c0-1,0.2-1.9,0.7-2.8c0.5-0.9,1.1-1.6,2-2.1c0.9-0.5,1.8-0.7,2.9-0.7c1.6,0,3,0.5,4.1,1.6
		c1.1,1.1,1.6,2.4,1.6,4.1c0,1.6-0.5,3-1.6,4.1c-1.1,1.1-2.4,1.6-4,1.6c-1,0-2-0.2-2.9-0.7c-0.9-0.5-1.6-1.1-2.1-2
		C543.3,170.1,543.1,169,543.1,167.8z M546,167.9c0,1.1,0.3,1.9,0.8,2.5c0.5,0.6,1.1,0.9,1.9,0.9s1.4-0.3,1.9-0.9
		c0.5-0.6,0.8-1.4,0.8-2.5c0-1.1-0.3-1.9-0.8-2.5c-0.5-0.6-1.1-0.9-1.9-0.9s-1.4,0.3-1.9,0.9C546.3,166,546,166.8,546,167.9z"/>
</g>
<path fill="#222222" d="M463.4,177.2c0.4,5-6.5,15-6.5,15s19.4-7.9,17.6-13.1C473.8,177.1,463.2,175.1,463.4,177.2z"/>
<path fill="#FFB79A" d="M-30-24.7"/>
</svg>
