<?xml version="1.0" encoding="utf-8"?>
<!-- Generator: Adobe Illustrator 17.1.0, SVG Export Plug-In . SVG Version: 6.00 Build 0)  -->
<!DOCTYPE svg PUBLIC "-//W3C//DTD SVG 1.1//EN" "http://www.w3.org/Graphics/SVG/1.1/DTD/svg11.dtd">
<svg version="1.1" id="Layer_1" xmlns="http://www.w3.org/2000/svg" xmlns:xlink="http://www.w3.org/1999/xlink" x="0px" y="0px"
	 viewBox="0 223.6 960 177" enable-background="new 0 223.6 960 177" xml:space="preserve">
<circle fill="#333333" cx="720" cy="304.5" r="6.4"/>
<path fill="#FFC0AB" d="M19.2,256.5v-17.6H112v19.2H75.2v83.2H56v-83.2C56,256.5,19.2,256.5,19.2,256.5z"/>
<path fill="#FFC0AB" d="M129.6,286.9h17.6v52.8h-17.6v-6.4c-3.2,4.8-9.6,6.4-14.4,6.4c-12.8,0-25.6-11.2-25.6-27.2
	c0-17.6,12.8-28.8,25.6-28.8c4.8,0,11.2,3.2,14.4,6.4V286.9z M118.4,323.7c6.4,0,11.2-4.8,11.2-11.2c0-6.4-4.8-11.2-11.2-11.2
	c-6.4,0-11.2,4.8-11.2,11.2C107.2,318.9,113.6,323.7,118.4,323.7z"/>
<path fill="#FFC0AB" d="M180.8,339.7h-17.6v-52.8h17.6v8c1.6-6.4,9.6-9.6,14.4-9.6c14.4,0,20.8,9.6,20.8,27.2v28.8h-17.6v-28.8
	c0-6.4-4.8-9.6-9.6-9.6c-3.2,0-9.6,1.6-9.6,9.6L180.8,339.7L180.8,339.7z"/>
<path fill="#FFC0AB" d="M281.6,286.9l-36.8,94.4h-17.6l16-48l-20.8-46.4h19.2l9.6,25.6l9.6-25.6
	C262.4,286.9,281.6,286.9,281.6,286.9z"/>
<path fill="#FFC0AB" d="M323.2,286.9h17.6v52.8h-17.6v-6.4c-3.2,4.8-9.6,6.4-14.4,6.4c-12.8,0-25.6-11.2-25.6-27.2
	s12.8-28.8,25.6-28.8c4.8,0,11.2,3.2,14.4,6.4V286.9z M312,323.7c6.4,0,11.2-4.8,11.2-11.2c0-6.4-4.8-11.2-11.2-11.2
	c-6.4,0-11.2,4.8-11.2,11.2S305.6,323.7,312,323.7z"/>
<path fill="#FFC0AB" d="M464,338.1h-17.6v-51.2H464v12.8c3.2-9.6,9.6-14.4,16-14.4c1.6,0,4.8,0,8,1.6l-4.8,16
	c-3.2-1.6-6.4-1.6-8-1.6c-6.4,0-11.2,4.8-11.2,20.8V338.1L464,338.1z"/>
<path fill="#FFC0AB" d="M531.2,286.9h17.6v51.2h-17.6v-6.4c-3.2,4.8-8,6.4-14.4,6.4c-12.8,0-25.6-9.6-25.6-27.2
	c0-17.6,12.8-27.2,25.6-27.2c4.8,0,11.2,1.6,14.4,6.4V286.9z M520,323.7c6.4,0,11.2-4.8,11.2-11.2c0-6.4-4.8-11.2-11.2-11.2
	s-11.2,4.8-11.2,11.2S515.2,323.7,520,323.7z"/>
<path fill="#FFC0AB" d="M577.6,318.9c-16-4.8-16-14.4-16-17.6c0-8,9.6-16,20.8-16s22.4,4.8,22.4,17.6h-16c0-3.2-1.6-4.8-4.8-4.8
	s-4.8,1.6-4.8,3.2s0,3.2,3.2,3.2l9.6,3.2c12.8,3.2,14.4,12.8,14.4,16c0,11.2-12.8,16-24,16s-22.4-6.4-22.4-19.2h16
	c0,3.2,1.6,4.8,6.4,4.8c3.2,0,4.8-1.6,4.8-3.2c0-1.6,0-1.6-4.8-3.2H577.6z"/>
<path fill="#FFC0AB" d="M632,318.9c-16-4.8-16-14.4-16-17.6c0-8,9.6-16,20.8-16s22.4,4.8,22.4,17.6h-16c0-3.2-1.6-4.8-4.8-4.8
	s-4.8,1.6-4.8,3.2s0,3.2,3.2,3.2l9.6,3.2c12.8,3.2,14.4,12.8,14.4,16c0,11.2-12.8,16-24,16s-22.4-6.4-22.4-19.2h16
	c0,3.2,1.6,4.8,6.4,4.8c3.2,0,4.8-1.6,4.8-3.2c0-1.6,0-1.6-4.8-3.2H632z"/>
<path fill="#FFC0AB" d="M683.2,259.7c6.4,0,11.2,4.8,11.2,9.6s-4.8,9.6-11.2,9.6s-11.2-3.2-11.2-9.6
	C672,262.9,676.8,259.7,683.2,259.7z M673.6,338.1h17.6v-51.2h-17.6V338.1z"/>
<path fill="#FFC0AB" d="M752,304.5l-33.6,16c3.2,3.2,9.6,4.8,14.4,1.6c3.2-1.6,6.4-3.2,6.4-8c3.2,0,11.2,1.6,14.4,3.2
	c-1.6,9.6-9.6,16-17.6,19.2c-12.8,6.4-28.8,1.6-36.8-12.8c-6.4-14.4,0-30.4,12.8-36.8s30.3-3,36,9.1
	C748.7,297.4,752,304.5,752,304.5z M738.2,298.7c-6.4-8-16-4.8-19.2-3.2c-7,3.2-11.9,6.7-9.6,17.6L738.2,298.7z"/>
<path fill="#FFC0AB" d="M419.2,288.5c12.8,1.6,17.6,14.4,17.6,24c0,16-8,30.4-30.4,30.4h-40v-104h36.8c16,0,27.2,11.2,27.2,27.2
	C432,274.1,428.8,285.3,419.2,288.5z M403.2,280.5c6.4,0,9.6-4.8,9.6-11.2c0-6.4-3.2-12.8-9.6-12.8h-16v24H403.2L403.2,280.5
	L403.2,280.5z M385.6,299.7v27.2h17.6c8,0,12.8-6.4,12.8-12.8s-3.2-12.8-12.8-12.8L385.6,299.7L385.6,299.7z"/>
<path fill="#222222" d="M944,254.9c0,14.4-12.8,27.2-27.2,27.2h-104c-3.2,0-9.6,0-12.8,0s-8,0-11.2,0c-14.4,0-27.2-12.8-27.2-27.2
	l0,0c0-14.4,12.8-27.2,27.2-27.2h128C931.2,227.7,944,240.5,944,254.9L944,254.9L944,254.9z"/>
<path fill="#222222" d="M777.6,272.5c0,8-11.2,25.6-11.2,25.6s32-12.8,28.8-22.4C795.2,272.5,776,269.3,777.6,272.5z"/>
<path fill="#FFB79A" d="M-28.8-63.5"/>
<g>
	<path fill="#FFFFFF" d="M791.5,250.7c1.6-1.8,3.5-2.8,5.7-2.8c1.2,0,2.2,0.2,3.1,0.6c0.9,0.4,1.6,1,2.1,1.6s0.8,1.4,0.9,2.2
		c0.2,0.8,0.3,2,0.3,3.7V267h-4.9v-9.9c0-1.9-0.1-3.2-0.3-3.7c-0.2-0.5-0.5-1-1-1.3c-0.5-0.3-1.1-0.5-1.8-0.5
		c-0.8,0-1.5,0.2-2.2,0.6c-0.6,0.4-1.1,1-1.4,1.8c-0.3,0.8-0.5,2-0.5,3.6v9.4h-4.9v-25.8h4.9V250.7z"/>
	<path fill="#FFFFFF" d="M825.5,261.9c-0.6,1.8-1.7,3.2-3,4.1c-1.4,1-3.1,1.4-5.1,1.4c-3.2,0-5.7-1.1-7.2-3.2
		c-1.2-1.7-1.8-3.8-1.8-6.4c0-3.1,0.8-5.5,2.4-7.3c1.6-1.8,3.7-2.6,6.2-2.6c2.8,0,5,0.9,6.6,2.7c1.6,1.8,2.4,4.6,2.3,8.4h-12.4
		c0,1.5,0.4,2.6,1.2,3.4c0.8,0.8,1.7,1.2,2.8,1.2c0.8,0,1.4-0.2,1.9-0.6c0.5-0.4,0.9-1.1,1.2-2.1L825.5,261.9z M819.7,252.8
		c-0.7-0.8-1.5-1.1-2.6-1.1c-1.1,0-2,0.4-2.7,1.2c-0.7,0.8-1.1,1.9-1,3.2h7.4C820.8,254.7,820.4,253.5,819.7,252.8z"/>
	<path fill="#FFFFFF" d="M832.9,241.2h4.9V267h-4.9V241.2z"/>
	<path fill="#FFFFFF" d="M844,241.2h4.9V267H844V241.2z"/>
	<path fill="#FFFFFF" d="M855.2,252.6c0.8-1.5,1.9-2.7,3.4-3.5c1.5-0.8,3.1-1.2,5-1.2c2.8,0,5.1,0.9,6.9,2.7
		c1.8,1.8,2.7,4.1,2.7,6.9c0,2.8-0.9,5.2-2.7,7c-1.8,1.9-4.1,2.8-6.9,2.8c-1.7,0-3.3-0.4-4.9-1.2c-1.5-0.8-2.7-1.9-3.5-3.4
		c-0.8-1.5-1.2-3.3-1.2-5.5C854,255.8,854.4,254.2,855.2,252.6z M860.4,261.9c0.9,1,2,1.5,3.3,1.5c1.3,0,2.3-0.5,3.2-1.5
		c0.9-1,1.3-2.4,1.3-4.3c0-1.8-0.4-3.2-1.3-4.2c-0.9-1-2-1.5-3.2-1.5c-1.3,0-2.4,0.5-3.3,1.5c-0.9,1-1.3,2.4-1.3,4.2
		C859.1,259.5,859.5,261,860.4,261.9z"/>
	<path fill="#FFFFFF" d="M878.4,252.6c0.8-1.5,1.9-2.7,3.4-3.5c1.5-0.8,3.1-1.2,5-1.2c2.8,0,5.1,0.9,6.9,2.7
		c1.8,1.8,2.7,4.1,2.7,6.9c0,2.8-0.9,5.2-2.7,7c-1.8,1.9-4.1,2.8-6.9,2.8c-1.7,0-3.3-0.4-4.9-1.2c-1.5-0.8-2.7-1.9-3.5-3.4
		c-0.8-1.5-1.2-3.3-1.2-5.5C877.1,255.8,877.5,254.2,878.4,252.6z M883.5,261.9c0.9,1,2,1.5,3.3,1.5c1.3,0,2.3-0.5,3.2-1.5
		c0.9-1,1.3-2.4,1.3-4.3c0-1.8-0.4-3.2-1.3-4.2c-0.9-1-2-1.5-3.2-1.5c-1.3,0-2.4,0.5-3.3,1.5c-0.9,1-1.3,2.4-1.3,4.2
		C882.2,259.5,882.6,261,883.5,261.9z"/>
	<path fill="#FFFFFF" d="M901.5,252.6c0.8-1.5,1.9-2.7,3.4-3.5c1.5-0.8,3.1-1.2,5-1.2c2.8,0,5.1,0.9,6.9,2.7
		c1.8,1.8,2.7,4.1,2.7,6.9c0,2.8-0.9,5.2-2.7,7c-1.8,1.9-4.1,2.8-6.9,2.8c-1.7,0-3.3-0.4-4.9-1.2c-1.5-0.8-2.7-1.9-3.5-3.4
		c-0.8-1.5-1.2-3.3-1.2-5.5C900.3,255.8,900.7,254.2,901.5,252.6z M906.6,261.9c0.9,1,2,1.5,3.3,1.5c1.3,0,2.3-0.5,3.2-1.5
		c0.9-1,1.3-2.4,1.3-4.3c0-1.8-0.4-3.2-1.3-4.2c-0.9-1-2-1.5-3.2-1.5c-1.3,0-2.4,0.5-3.3,1.5c-0.9,1-1.3,2.4-1.3,4.2
		C905.4,259.5,905.8,261,906.6,261.9z"/>
</g>
</svg>
