<?xml version="1.0" encoding="utf-8"?>
<!-- Generator: Adobe Illustrator 18.1.1, SVG Export Plug-In . SVG Version: 6.00 Build 0)  -->
<svg version="1.1" id="Layer_1" xmlns="http://www.w3.org/2000/svg" xmlns:xlink="http://www.w3.org/1999/xlink" x="0px" y="0px"
	 viewBox="0 25.3 60 11.3" enable-background="new 0 25.3 60 11.3" xml:space="preserve">
<circle fill="#333333" cx="45" cy="30.9" r="0.4"/>
<path fill="#FFC0AB" d="M1.2,27.9v-1.1H7v1.2H4.7v5.2H3.5v-5.2C3.5,27.9,1.2,27.9,1.2,27.9z"/>
<path fill="#FFC0AB" d="M8.1,29.8h1.1v3.3H8.1v-0.4c-0.2,0.3-0.6,0.4-0.9,0.4c-0.8,0-1.6-0.7-1.6-1.7c0-1.1,0.8-1.8,1.6-1.8
	c0.3,0,0.7,0.2,0.9,0.4V29.8z M7.4,32.1c0.4,0,0.7-0.3,0.7-0.7c0-0.4-0.3-0.7-0.7-0.7c-0.4,0-0.7,0.3-0.7,0.7
	C6.7,31.8,7.1,32.1,7.4,32.1z"/>
<path fill="#FFC0AB" d="M11.3,33.1h-1.1v-3.3h1.1v0.5c0.1-0.4,0.6-0.6,0.9-0.6c0.9,0,1.3,0.6,1.3,1.7v1.8h-1.1v-1.8
	c0-0.4-0.3-0.6-0.6-0.6c-0.2,0-0.6,0.1-0.6,0.6L11.3,33.1C11.3,33.1,11.3,33.1,11.3,33.1z"/>
<path fill="#FFC0AB" d="M17.6,29.8l-2.3,5.9h-1.1l1-3l-1.3-2.9h1.2l0.6,1.6l0.6-1.6C16.4,29.8,17.6,29.8,17.6,29.8z"/>
<path fill="#FFC0AB" d="M20.2,29.8h1.1v3.3h-1.1v-0.4c-0.2,0.3-0.6,0.4-0.9,0.4c-0.8,0-1.6-0.7-1.6-1.7s0.8-1.8,1.6-1.8
	c0.3,0,0.7,0.2,0.9,0.4V29.8z M19.5,32.1c0.4,0,0.7-0.3,0.7-0.7c0-0.4-0.3-0.7-0.7-0.7c-0.4,0-0.7,0.3-0.7,0.7
	C18.8,31.8,19.1,32.1,19.5,32.1z"/>
<path fill="#FFC0AB" d="M29,33h-1.1v-3.2H29v0.8c0.2-0.6,0.6-0.9,1-0.9c0.1,0,0.3,0,0.5,0.1l-0.3,1c-0.2-0.1-0.4-0.1-0.5-0.1
	C29.3,30.7,29,31,29,32L29,33L29,33z"/>
<path fill="#FFC0AB" d="M33.2,29.8h1.1V33h-1.1v-0.4c-0.2,0.3-0.5,0.4-0.9,0.4c-0.8,0-1.6-0.6-1.6-1.7c0-1.1,0.8-1.7,1.6-1.7
	c0.3,0,0.7,0.1,0.9,0.4V29.8z M32.5,32.1c0.4,0,0.7-0.3,0.7-0.7c0-0.4-0.3-0.7-0.7-0.7s-0.7,0.3-0.7,0.7
	C31.8,31.8,32.2,32.1,32.5,32.1z"/>
<path fill="#FFC0AB" d="M36.1,31.8c-1-0.3-1-0.9-1-1.1c0-0.5,0.6-1,1.3-1c0.7,0,1.4,0.3,1.4,1.1h-1c0-0.2-0.1-0.3-0.3-0.3
	c-0.2,0-0.3,0.1-0.3,0.2c0,0.1,0,0.2,0.2,0.2l0.6,0.2c0.8,0.2,0.9,0.8,0.9,1c0,0.7-0.8,1-1.5,1c-0.7,0-1.4-0.4-1.4-1.2h1
	c0,0.2,0.1,0.3,0.4,0.3c0.2,0,0.3-0.1,0.3-0.2c0-0.1,0-0.1-0.3-0.2L36.1,31.8z"/>
<path fill="#FFC0AB" d="M39.5,31.8c-1-0.3-1-0.9-1-1.1c0-0.5,0.6-1,1.3-1c0.7,0,1.4,0.3,1.4,1.1h-1c0-0.2-0.1-0.3-0.3-0.3
	c-0.2,0-0.3,0.1-0.3,0.2c0,0.1,0,0.2,0.2,0.2l0.6,0.2c0.8,0.2,0.9,0.8,0.9,1c0,0.7-0.8,1-1.5,1c-0.7,0-1.4-0.4-1.4-1.2h1
	c0,0.2,0.1,0.3,0.4,0.3c0.2,0,0.3-0.1,0.3-0.2c0-0.1,0-0.1-0.3-0.2L39.5,31.8z"/>
<path fill="#FFC0AB" d="M42.7,28.1c0.4,0,0.7,0.3,0.7,0.6s-0.3,0.6-0.7,0.6S42,29.1,42,28.7C42,28.3,42.3,28.1,42.7,28.1z M42.1,33
	h1.1v-3.2h-1.1V33z"/>
<path fill="#FFC0AB" d="M47,30.9l-2.1,1c0.2,0.2,0.6,0.3,0.9,0.1c0.2-0.1,0.4-0.2,0.4-0.5c0.2,0,0.7,0.1,0.9,0.2
	c-0.1,0.6-0.6,1-1.1,1.2c-0.8,0.4-1.8,0.1-2.3-0.8c-0.4-0.9,0-1.9,0.8-2.3c0.8-0.4,1.8-0.2,2.2,0.8C46.9,30.7,47,30.9,47,30.9z
	 M46.2,30.6c-0.4-0.5-1-0.3-1.2-0.2c-0.2,0.1-0.7,0.4-0.6,1.1L46.2,30.6z"/>
<path fill="#FFC0AB" d="M26.2,29.9c0.8,0.1,1.1,0.9,1.1,1.5c0,1-0.5,1.9-1.9,1.9h-2.5v-6.5h2.3c1,0,1.7,0.7,1.7,1.7
	C27,29,26.8,29.7,26.2,29.9z M25.2,29.4c0.4,0,0.6-0.3,0.6-0.7c0-0.4-0.2-0.8-0.6-0.8h-1v1.5L25.2,29.4L25.2,29.4L25.2,29.4z
	 M24.1,30.6v1.7h1.1c0.5,0,0.8-0.4,0.8-0.8c0-0.4-0.2-0.8-0.8-0.8L24.1,30.6L24.1,30.6z"/>
<path fill="#222222" d="M59,27.8c0,0.9-0.8,1.7-1.7,1.7h-6.5c-0.2,0-0.6,0-0.8,0s-0.5,0-0.7,0c-0.9,0-1.7-0.8-1.7-1.7v0
	c0-0.9,0.8-1.7,1.7-1.7h8C58.2,26.1,59,26.9,59,27.8L59,27.8L59,27.8z"/>
<g enable-background="new    ">
	<path fill="#FFFFFF" d="M49,26.9v0.6c0.1-0.1,0.2-0.2,0.3-0.2c0.1,0,0.1,0,0.2,0s0.1,0.1,0.1,0.1c0,0,0,0.1,0.1,0.1
		c0,0.1,0,0.1,0,0.2v0.7h-0.3v-0.6c0-0.1,0-0.2,0-0.2c0,0,0-0.1-0.1-0.1c0,0-0.1,0-0.1,0c0,0-0.1,0-0.1,0c0,0-0.1,0.1-0.1,0.1
		c0,0,0,0.1,0,0.2v0.6h-0.3v-1.6L49,26.9L49,26.9z"/>
	<path fill="#FFFFFF" d="M50.8,28.1l0.3,0c0,0.1-0.1,0.2-0.2,0.2c-0.1,0.1-0.2,0.1-0.3,0.1c-0.2,0-0.3-0.1-0.4-0.2
		C50,28.2,50,28.1,50,27.9c0-0.2,0-0.3,0.2-0.4c0.1-0.1,0.2-0.2,0.4-0.2c0.2,0,0.3,0,0.4,0.2c0.1,0.1,0.2,0.3,0.1,0.5h-0.8
		c0,0.1,0,0.2,0.1,0.2s0.1,0.1,0.2,0.1c0,0,0.1,0,0.1,0C50.7,28.2,50.7,28.2,50.8,28.1z M50.8,27.8c0-0.1,0-0.2-0.1-0.2
		c0,0-0.1-0.1-0.2-0.1c-0.1,0-0.1,0-0.2,0.1c0,0-0.1,0.1-0.1,0.2H50.8z"/>
	<path fill="#FFFFFF" d="M51.4,28.5v-1.6h0.3v1.6L51.4,28.5L51.4,28.5z"/>
	<path fill="#FFFFFF" d="M52,28.5v-1.6h0.3v1.6L52,28.5L52,28.5z"/>
	<path fill="#FFFFFF" d="M52.7,27.9c0-0.1,0-0.2,0.1-0.3s0.1-0.2,0.2-0.2c0.1-0.1,0.2-0.1,0.3-0.1c0.2,0,0.3,0.1,0.4,0.2
		c0.1,0.1,0.2,0.2,0.2,0.4c0,0.2,0,0.3-0.2,0.4c-0.1,0.1-0.2,0.2-0.4,0.2c-0.1,0-0.2,0-0.3-0.1c-0.1-0.1-0.2-0.1-0.2-0.2
		C52.7,28.1,52.7,28,52.7,27.9z M53,27.9c0,0.1,0,0.2,0.1,0.3c0,0.1,0.1,0.1,0.2,0.1s0.2,0,0.2-0.1s0.1-0.1,0.1-0.3
		c0-0.1,0-0.2-0.1-0.3c0-0.1-0.1-0.1-0.2-0.1s-0.2,0-0.2,0.1C53,27.7,53,27.8,53,27.9z"/>
	<path fill="#FFFFFF" d="M54.1,27.9c0-0.1,0-0.2,0.1-0.3s0.1-0.2,0.2-0.2c0.1-0.1,0.2-0.1,0.3-0.1c0.2,0,0.3,0.1,0.4,0.2
		c0.1,0.1,0.2,0.2,0.2,0.4c0,0.2,0,0.3-0.2,0.4c-0.1,0.1-0.2,0.2-0.4,0.2c-0.1,0-0.2,0-0.3-0.1c-0.1-0.1-0.2-0.1-0.2-0.2
		C54.1,28.1,54.1,28,54.1,27.9z M54.4,27.9c0,0.1,0,0.2,0.1,0.3c0,0.1,0.1,0.1,0.2,0.1s0.2,0,0.2-0.1s0.1-0.1,0.1-0.3
		c0-0.1,0-0.2-0.1-0.3c0-0.1-0.1-0.1-0.2-0.1s-0.2,0-0.2,0.1C54.4,27.7,54.4,27.8,54.4,27.9z"/>
	<path fill="#FFFFFF" d="M55.5,27.9c0-0.1,0-0.2,0.1-0.3s0.1-0.2,0.2-0.2c0.1-0.1,0.2-0.1,0.3-0.1c0.2,0,0.3,0.1,0.4,0.2
		c0.1,0.1,0.2,0.2,0.2,0.4c0,0.2,0,0.3-0.2,0.4c-0.1,0.1-0.2,0.2-0.4,0.2c-0.1,0-0.2,0-0.3-0.1c-0.1-0.1-0.2-0.1-0.2-0.2
		C55.5,28.1,55.5,28,55.5,27.9z M55.8,27.9c0,0.1,0,0.2,0.1,0.3c0,0.1,0.1,0.1,0.2,0.1s0.2,0,0.2-0.1s0.1-0.1,0.1-0.3
		c0-0.1,0-0.2-0.1-0.3c0-0.1-0.1-0.1-0.2-0.1s-0.2,0-0.2,0.1C55.8,27.7,55.8,27.8,55.8,27.9z"/>
	<path fill="#FFFFFF" d="M56.9,27.9c0-0.1,0-0.2,0.1-0.3s0.1-0.2,0.2-0.2c0.1-0.1,0.2-0.1,0.3-0.1c0.2,0,0.3,0.1,0.4,0.2
		c0.1,0.1,0.2,0.2,0.2,0.4c0,0.2,0,0.3-0.2,0.4c-0.1,0.1-0.2,0.2-0.4,0.2c-0.1,0-0.2,0-0.3-0.1c-0.1-0.1-0.2-0.1-0.2-0.2
		C56.9,28.1,56.9,28,56.9,27.9z M57.2,27.9c0,0.1,0,0.2,0.1,0.3c0,0.1,0.1,0.1,0.2,0.1s0.2,0,0.2-0.1s0.1-0.1,0.1-0.3
		c0-0.1,0-0.2-0.1-0.3c0-0.1-0.1-0.1-0.2-0.1s-0.2,0-0.2,0.1C57.2,27.7,57.2,27.8,57.2,27.9z"/>
</g>
<path fill="#222222" d="M48.6,28.9c0,0.5-0.7,1.6-0.7,1.6s2-0.8,1.8-1.4C49.7,28.9,48.5,28.7,48.6,28.9z"/>
<path fill="#FFB79A" d="M-1.8,7.9"/>
</svg>
