<?xml version="1.0" encoding="utf-8"?>
<!-- Generator: Adobe Illustrator 17.1.0, SVG Export Plug-In . SVG Version: 6.00 Build 0)  -->
<!DOCTYPE svg PUBLIC "-//W3C//DTD SVG 1.1//EN" "http://www.w3.org/Graphics/SVG/1.1/DTD/svg11.dtd">
<svg version="1.1" id="Layer_1" xmlns="http://www.w3.org/2000/svg" xmlns:xlink="http://www.w3.org/1999/xlink" x="0px" y="0px"
	 viewBox="0 0 322 315" enable-background="new 0 0 322 315" xml:space="preserve">
<ellipse fill="#FFFFFF" cx="162" cy="159.1" rx="153" ry="150.5"/>
<rect x="-149.3" y="106.5" fill="#C6BDA5" width="79" height="159"/>
<rect x="-149.3" y="99.5" fill="#A89D86" width="79" height="13"/>
<rect x="-138.3" y="54.2" fill="#B2AA96" width="11.1" height="25.9"/>
<rect x="-92.4" y="54.2" fill="#B2AA96" width="11.1" height="26.8"/>
<rect x="-153.3" y="97.5" fill="#C6BDA5" width="86" height="13"/>
<polyline fill="#A89D86" points="-149.3,112.5 -149.3,110.5 -153.3,110.5 "/>
<rect x="-147.3" y="79.5" fill="#C6BDA5" width="75" height="18"/>
<polyline fill="#A89D86" points="-70.3,112.5 -70.3,110.5 -67.3,110.5 "/>
<line fill="none" stroke="#000000" stroke-width="0.25" stroke-miterlimit="10" stroke-dasharray="3,4" x1="-152.8" y1="103.5" x2="-67.2" y2="103.5"/>
<rect x="-127.2" y="48.5" fill="#C6BDA5" width="34.8" height="31.7"/>
<line fill="none" stroke="#BCB2A4" stroke-width="4" stroke-miterlimit="10" x1="-154.1" y1="107.2" x2="-66.4" y2="107.2"/>
<g>
	<g>
		<path fill="#999999" d="M134.8,60.8c-5-2.7-12.5-4.5-17.9-2c-8.3,3.8-5,12.6-1.5,18.7c1,1.7,3.6,0.2,2.6-1.5
			c-1.6-2.7-3.2-5.3-3.6-8.5c-0.5-4.2,3.2-6.2,6.6-6.7c4.1-0.5,8.6,0.7,12.2,2.6C134.9,64.3,136.5,61.7,134.8,60.8L134.8,60.8z"/>
	</g>
</g>
<circle fill="#F9F8F7" stroke="#E9B800" stroke-width="4" stroke-miterlimit="10" cx="-109.8" cy="75.8" r="12.3"/>
<line fill="#E9B800" stroke="#E5DECF" stroke-width="0.5" stroke-miterlimit="10" x1="-138.3" y1="124.5" x2="-138.3" y2="257.5"/>
<line fill="#E9B800" stroke="#E5DECF" stroke-width="0.5" stroke-miterlimit="10" x1="-130.3" y1="124.5" x2="-130.3" y2="257.5"/>
<line fill="#E9B800" stroke="#E5DECF" stroke-width="0.5" stroke-miterlimit="10" x1="-91.3" y1="124.5" x2="-91.3" y2="257.5"/>
<path fill="#0B486B" stroke="#E32F21" stroke-width="2" stroke-miterlimit="10" d="M237.8,129.3c0,16.2-0.3,64.2-10.3,84.9
	c-13.5,28-44.3,25.5-66.3,25.5c-22.1,0-51.6,1.1-63.3-24.8c-8.4-18.5-8.8-71.9-7.5-87c1.1-12.9,2.8-23.7,8.8-34.4
	c11.6-20.8,36.4-33.9,62-33.9C199.4,59.6,237.8,91.2,237.8,129.3z"/>
<g>
	<path fill="#CAD6DD" d="M126.7,85.2l-1,1c3-14,9-26,15-39c0-2,0-5,2-4c32,3,63,7,93,16c-5,4-11,8-16,13c-2,2-3,5-6,7
		C188.7,59.2,148.7,60.2,126.7,85.2L126.7,85.2z"/>
</g>
<path fill="none" stroke="#707B7F" stroke-linecap="round" stroke-miterlimit="10" stroke-dasharray="4,5" d="M95.4,133.9"/>
<g>
	<path fill="#999999" d="M116.6,289.7c-1.4-1.5-2.9-3.1-4.3-4.6c-1.1,1.5-2.2,3.1-3.2,4.6c-4.7-37.2,4.7-74.3,0-111.5
		c2.5,0,5,0,7.5,0C121.3,215.4,112,252.5,116.6,289.7z"/>
</g>
<g>
	<path fill="#26292B" d="M212.8,78.7c0,0-3-2.3-8.3-4.8c-18.1-8.7-69.1-19.4-101.6,50.2c-2,4.4-3.6,9.6-5.2,14.7
		c0,0-3.5-1.8-3.5-1.8c1.3-16.5,4.2-33.5,11.6-43.2c12.5-16.5,15-16.3,25.5-22.7c14.3-8.8,21.2-9.4,35.9-9.3
		c4.2,0,14.7,1.6,22.3,4.4C201.1,70.3,212.8,78.7,212.8,78.7z"/>
	<path fill="#707B7F" d="M94.2,137l-1.1-0.6l0-0.4c0.1-1,0.2-2,0.3-3c0-0.3,0.3-0.5,0.6-0.5c0.3,0,0.6,0.3,0.5,0.6
		c-0.1,0.9-0.2,1.7-0.2,2.6 M94.7,129C94.7,129,94.7,129,94.7,129c-0.4,0-0.6-0.3-0.6-0.6c0.2-1.3,0.3-2.6,0.5-3.9
		c0-0.3,0.3-0.5,0.7-0.5c0.3,0,0.5,0.3,0.5,0.7c-0.2,1.3-0.4,2.6-0.5,3.9C95.3,128.8,95,129,94.7,129z M96.2,119.4c0,0-0.1,0-0.1,0
		c-0.3-0.1-0.5-0.4-0.5-0.7c0.3-1.3,0.5-2.6,0.8-3.9c0.1-0.3,0.4-0.5,0.7-0.4c0.3,0.1,0.5,0.4,0.4,0.7c-0.3,1.2-0.6,2.5-0.8,3.8
		C96.7,119.2,96.5,119.4,96.2,119.4z M98.6,110c-0.1,0-0.1,0-0.2,0c-0.3-0.1-0.5-0.4-0.4-0.7c0.4-1.3,0.9-2.5,1.4-3.7
		c0.1-0.3,0.5-0.4,0.8-0.3c0.3,0.1,0.4,0.5,0.3,0.8c-0.5,1.2-0.9,2.4-1.3,3.6C99.1,109.8,98.8,110,98.6,110z M102.2,100.5
		c-0.1,0-0.2,0-0.3-0.1c-0.3-0.1-0.4-0.5-0.3-0.8c0.6-1.2,1.2-2.4,1.9-3.5c0.2-0.3,0.5-0.4,0.8-0.2c0.3,0.2,0.4,0.5,0.2,0.8
		c-0.7,1.1-1.3,2.2-1.8,3.4C102.6,100.4,102.4,100.5,102.2,100.5z M107.5,92.5c-0.1,0-0.2,0-0.4-0.1c-0.3-0.2-0.3-0.6-0.1-0.8
		c0.8-1.1,1.6-2.1,2.4-3.1c0.2-0.3,0.6-0.3,0.8-0.1c0.3,0.2,0.3,0.6,0.1,0.8c-0.8,1-1.6,2-2.4,3.1C107.9,92.5,107.7,92.5,107.5,92.5
		z M114.1,85.6c-0.1,0-0.3,0-0.4-0.1c-0.2-0.2-0.3-0.6-0.1-0.8c0.9-1.1,1.8-2.1,2.6-3c0.2-0.2,0.6-0.3,0.8,0c0.2,0.2,0.3,0.6,0,0.8
		c-0.8,0.9-1.6,1.8-2.6,2.9C114.4,85.5,114.3,85.6,114.1,85.6z M120.8,78.6c-0.2,0-0.3-0.1-0.4-0.2c-0.2-0.2-0.2-0.6,0.1-0.8
		c1-0.9,2-1.7,3.1-2.5c0.3-0.2,0.6-0.1,0.8,0.1c0.2,0.3,0.1,0.6-0.1,0.8c-1.1,0.8-2.1,1.6-3,2.4C121,78.5,120.9,78.6,120.8,78.6z
		 M128.6,72.9c-0.2,0-0.4-0.1-0.5-0.3c-0.2-0.3-0.1-0.6,0.2-0.8c0.6-0.4,1.3-0.8,2-1.3c0.4-0.3,0.9-0.5,1.3-0.8
		c0.3-0.2,0.6-0.1,0.8,0.2c0.2,0.3,0.1,0.6-0.2,0.8c-0.4,0.3-0.9,0.5-1.3,0.8c-0.7,0.4-1.4,0.8-2,1.3
		C128.8,72.9,128.7,72.9,128.6,72.9z M197,70.2c-0.1,0-0.2,0-0.3-0.1c-1.2-0.6-2.4-1.2-3.5-1.7c-0.3-0.1-0.4-0.5-0.3-0.8
		c0.1-0.3,0.5-0.4,0.8-0.3c1.2,0.5,2.4,1.1,3.6,1.7c0.3,0.1,0.4,0.5,0.3,0.8C197.4,70.1,197.2,70.2,197,70.2z M137,68.1
		c-0.2,0-0.4-0.1-0.5-0.3c-0.1-0.3,0-0.6,0.2-0.8c1.2-0.6,2.4-1.2,3.6-1.7c0.3-0.1,0.6,0,0.8,0.3c0.1,0.3,0,0.6-0.3,0.8
		c-1.1,0.5-2.3,1.1-3.5,1.7C137.2,68,137.1,68.1,137,68.1z M188.1,66.4c-0.1,0-0.1,0-0.2,0c-1.1-0.4-2.4-0.8-3.7-1.1
		c-0.3-0.1-0.5-0.4-0.4-0.7c0.1-0.3,0.4-0.5,0.7-0.4c1.3,0.4,2.6,0.8,3.8,1.2c0.3,0.1,0.5,0.4,0.4,0.7
		C188.5,66.2,188.3,66.4,188.1,66.4z M146,64.4c-0.2,0-0.5-0.2-0.6-0.4c-0.1-0.3,0.1-0.6,0.4-0.7c1.3-0.4,2.5-0.7,3.9-1
		c0.3-0.1,0.6,0.1,0.7,0.5c0.1,0.3-0.1,0.6-0.5,0.7c-1.3,0.3-2.5,0.6-3.8,0.9C146.1,64.4,146,64.4,146,64.4z M178.7,63.9
		c0,0-0.1,0-0.1,0c-1.3-0.3-2.6-0.5-3.8-0.7c-0.3-0.1-0.5-0.3-0.5-0.7c0.1-0.3,0.3-0.5,0.7-0.5c1.3,0.2,2.6,0.5,3.9,0.7
		c0.3,0.1,0.5,0.4,0.5,0.7C179.2,63.7,179,63.9,178.7,63.9z M155.5,62.6c-0.3,0-0.5-0.2-0.6-0.5c0-0.3,0.2-0.6,0.5-0.6
		c1.2-0.1,2.5-0.2,3.9-0.2c0.3,0,0.6,0.2,0.6,0.6c0,0.3-0.2,0.6-0.6,0.6C158,62.5,156.7,62.5,155.5,62.6
		C155.5,62.6,155.5,62.6,155.5,62.6z M169.1,62.5C169.1,62.5,169.1,62.5,169.1,62.5c-1-0.1-1.8-0.1-2.5-0.1l-1.4,0
		c-0.3,0-0.6-0.3-0.6-0.6c0-0.3,0.3-0.6,0.6-0.6l1.4,0c0.7,0,1.6,0,2.5,0.1c0.3,0,0.6,0.3,0.5,0.6C169.6,62.2,169.4,62.5,169.1,62.5
		z"/>
</g>
<path fill="#C7D7E0" d="M98.2,137c0.1-0.4,0.2-0.9,0.4-1.3c6.4-23.2,16-44.2,24.4-66.8c0.5-1.2,1.4-3.7,1.4-3.7l1.5-6.7l3-4.8
	l0.9-5.6L220.2,67l-3.8,8.4l-65.6-13.7L136.7,67l-13.3,20.3l-9.2,11.8c0,0-5.2,13.3-7.3,17.3c0,0-0.8,1.2-3.7,6.9
	c-0.6,1.2-3.3,8.7-4.7,12.7"/>
<path fill="#E32F21" stroke="#E32F21" stroke-width="2" stroke-miterlimit="10" d="M103.1,142.9c0-0.8-13.3-8.3-13.3-7.1
	c-0.8,55.8-16.3,96.3,38.4,101.8c2.9,0.3-22.9-13.4-24.5-37.7C102.1,177.4,104.5,169.7,103.1,142.9z"/>
<g>
	<path fill="#BFCAD1" d="M107.8,114.4c11.6-27.7,29.2-69,29.2-69s100,19.8,97.3,22c-0.9,0.7-4.5,3.4-4.5,3.4s-1.4,4.1-1.9,4.6
		c-2,2.2-6.5,10.2-6.9,9.8c-8.2-9.4-72.1-42.7-113.4,29.9"/>
</g>
<path fill="none" stroke="#707B7F" stroke-linecap="round" stroke-miterlimit="10" stroke-dasharray="4,5" d="M103.1,130.7"/>
<path fill="#CAD6DD" d="M125.9,53.2"/>
<path fill="#CAD6DD" d="M120.9,92.8"/>
<g>
	<path fill="#999999" d="M228.6,278.1c-1.4-1.5-2.9-3.1-4.3-4.6c-1.1,1.5-2.2,3.1-3.2,4.6c-4.7-37.2,4.7-74.3,0-111.5
		c2.5,0,5,0,7.5,0C233.3,203.8,224,241,228.6,278.1z"/>
</g>
<path fill="#C7D7E0" d="M63.1,79.7"/>
<path fill="#C7D7E0" d="M78.8,115.6"/>
<path fill="#0B486B" stroke="#E32F21" stroke-width="2" stroke-miterlimit="10" d="M246.1,136.6c1.7,15.5,7,60.7-3,80.6
	c-13.5,27-44.2,24.6-66.2,24.6c-22.1,0-59.3,0.2-72-21.6c-10-17-4.8-66.8-1.9-81.2c6.1-30.1,34.2-67.2,72.4-68.6
	C214.3,69,241.9,97.5,246.1,136.6z"/>
<path fill="#0F4659" stroke="#E32F21" stroke-width="3" stroke-miterlimit="10" d="M158.9,224.8c16.5,7.9,68.5,6.3,75.9-11.3
	c5.1-12,2.9-45.7,2.9-45.7c-1.9-31.4,2-34-20.3-34.3c-60.4-1-65.9,17.4-67.5,41.2C150,174.6,146.1,218.7,158.9,224.8z"/>
<path fill="none" stroke="#993434" stroke-width="4" stroke-miterlimit="10" stroke-dasharray="2,3" d="M156.4,227.4
	c17.4,7.9,72.6,6.1,80.6-11.8c5.4-12.2,3.3-46.5,3.3-46.5c-1.9-31.9,2.3-34.5-21.4-34.8c-64.1-0.8-70,18-71.7,42.1
	C147.2,176.4,142.8,221.2,156.4,227.4z"/>
<path fill="#E32F21" d="M242.2,144.9c1.4,12.7,1.5,15.3-47,19.4c-35.8,3-50.7,3.7-51.1-9.8c-0.3-9.3,1.5-27,50.1-23.6
	C222.8,132.9,239.5,120.8,242.2,144.9z"/>
<g>
	<g>
		<path fill="#E32F21" d="M145,53.6c-5.7,3.4-9,9.3-13.9,13.7c-1.1,1,0.5,2.6,1.6,1.6c4.7-4.2,7.9-10.1,13.4-13.3
			C147.4,54.8,146.3,52.8,145,53.6L145,53.6z"/>
	</g>
</g>
<g>
	<g>
		<path fill="#E32F21" d="M145.4,54.1c-0.4,5.6-2.3,10.9-2.1,16.6c0,1.4,2.3,1.5,2.2,0c-0.2-5.6,1.7-11,2.1-16.6
			C147.8,52.7,145.5,52.7,145.4,54.1L145.4,54.1z"/>
	</g>
</g>
<g>
	<g>
		<path fill="#E32F21" d="M144.2,60.7c-1.3-0.1-2.5-0.3-3.7-0.7c-1.4-0.5-2,1.7-0.6,2.2c1.4,0.5,2.9,0.6,4.3,0.8
			c0.6,0.1,1.1-0.6,1.1-1.1C145.4,61.2,144.9,60.8,144.2,60.7L144.2,60.7z"/>
	</g>
</g>
<g>
	<g>
		<path fill="#E32F21" d="M153.8,56.5c-0.8,2.3-1.9,4.5-3,6.7c-0.6,1.3,1.3,2.4,1.9,1.1c1.1-2.4,2.3-4.7,3.2-7.2
			C156.4,55.8,154.2,55.2,153.8,56.5L153.8,56.5z"/>
	</g>
</g>
<g>
	<g>
		<path fill="#E32F21" d="M157.1,60c-1.8-0.3-4.3-0.4-5.9-1.6c-1.1-0.9-2.7,0.7-1.6,1.6c1.9,1.5,4.5,1.9,6.9,2.2
			C157.9,62.4,158.5,60.2,157.1,60L157.1,60z"/>
	</g>
</g>
<path fill="#999999" d="M227.7,160.5L227.7,160.5l-2.6,0.4c0,0-0.6,9.8,0,13c0.1,0.7,2.6,0.6,2.6-1
	C227.7,171.2,227.7,160.5,227.7,160.5z"/>
</svg>
