<?xml version="1.0" encoding="utf-8"?>
<!-- Generator: Adobe Illustrator 17.1.0, SVG Export Plug-In . SVG Version: 6.00 Build 0)  -->
<!DOCTYPE svg PUBLIC "-//W3C//DTD SVG 1.1//EN" "http://www.w3.org/Graphics/SVG/1.1/DTD/svg11.dtd">
<svg version="1.1" id="Layer_1" xmlns="http://www.w3.org/2000/svg" xmlns:xlink="http://www.w3.org/1999/xlink" x="0px" y="0px"
	 viewBox="0 0 322 315" enable-background="new 0 0 322 315" xml:space="preserve">
<ellipse fill="#FFFFFF" cx="159.8" cy="159.9" rx="153" ry="150.5"/>
<rect x="108.3" y="125.5" fill="#DBC4AD" width="33.1" height="23.7"/>
<path fill="#D4D000" d="M78.9,152.2c2,35.1,0.4,91.4-6.4,96.4c23.3,5.8,39.8-1.7,62.9-8.4c6.7-1.9,14.1-5.2,16.7-12.3
	c0.9-2.5,1.1-5.2,1.2-7.9c0.4-9.4,0.4-18.9-1.7-27.9c-3.4-14.4,9-32.1,0.8-43.8c-3.3-4.7-27.5-2.4-32.9-2.2c-8.7,0.3-5.6,1-26.1-4.2
	L78.9,152.2z"/>
<path fill="#BCB206" d="M106,146.4l-1.1-3.3l20.8,2.2c-0.3,2.5-7.3,7.5-3.5,12.4C120.2,155,106,146.4,106,146.4z"/>
<g>
	<g>
		<path fill="#E8CFAC" d="M60.4,181.3c-0.9,13.1,3.4,26.8,7.6,39.1c1,3,2.1,6.1,3.3,9c2.2,5.5,5.3,6.5,10.2,8.6
			c9,3.7,18.3,6.9,27.8,9.2c11.2,2.6,23.8,4.2,33.3-3.5c4.4-3.6,3.7-11.1,0-14.8c-4.4-4.4-10.4-3.6-14.8,0c1.4-1,1.6-1.2,0.6-0.6
			c1.5-0.6,1.8-0.7,0.7-0.3c-0.6,0.2-3.8,0.7-0.9,0.3c-2.3,0.3-4.7,0.1-7.1-0.1c-1.2-0.1-1.3-0.1-0.1,0c-0.7-0.1-1.3-0.2-2-0.3
			c-1.4-0.2-2.7-0.5-4.1-0.8c-3.1-0.7-6.2-1.6-9.3-2.5c-4.8-1.5-9.6-3.2-14.3-5c-1.6-0.6-3.2-1.2-4.7-1.9c-2.4-1,2.5,1.1,0.2,0.1
			c1.6,2.1,3.2,4.2,4.8,6.3c-5.5-13.4-11.1-28.8-10.2-42.6c0.4-5.7-5.1-10.5-10.5-10.5C64.9,170.8,60.8,175.6,60.4,181.3L60.4,181.3
			z"/>
	</g>
</g>
<g>
	<g>
		<path id="SVGID_1_" fill="#BCB206" d="M55.8,190c2.8-22.6,5.5-40.7,18.3-39.3c13.2,1.5,11,19.9,8.2,42.5c0,0-9.3,2-13.1,1.7
			C66.3,194.6,55.8,190,55.8,190z"/>
	</g>
</g>
<g>
	<path fill="#4C3115" d="M107.5,138.5c2.8,19.3-10.3,14-13.6,21c-2.3-11-7.9-19-15.7-28.2c-9.2-10.9,2.2-9,9.3-8.2
		c8.9,1,19-0.8,15.6,3.2C101.1,128.6,107.5,138.5,107.5,138.5z"/>
</g>
<g>
	<path fill="#4C3115" d="M160.8,54.3c6.9,3.2,14.3,13.2,16.4,19.1c3.1,9,0.6,21.4-2,30.2c-1.4,4.9-4,9.4-5.1,14.2
		c-1.2,5.2-5.4,11.9-0.8,15.7c5.9,4.9,0.8,14.9,3.4,20.2c-8.2-15.1-23.6-4.8-31.5-11.8c-6-5.3-2.2-16.8,3.5-23.8
		c4.4-5.3,0.8-1.1,5.1-6.3c4.1-4.8,7.2-12.2,6.6-18c-1.6-14.3,5.1-36.5-12.6-39.4c-6.2-1-4.2-7.7,4-7.2c6.1,0.4,10.7,3.8,16,5.8"/>
</g>
<path fill="#E8CFAC" d="M86.1,107.5L82,78.9c-0.1-0.6-0.1-1.1-0.1-1.7V61.9C81.9,56,86.2,51,92,50.2l58.3-7.7
	c6.9-0.9,13,4.6,13,11.7v9c-0.6,16.2-0.4,29-0.2,36.2c0.1,4.2-1,8.3-3.2,11.8l-11.4,18c0,0,0,0,0,0.1c-2.1,3.3-4.9,7.5-9.4,9.9
	l-20.4,1.4c-6.1-2.2-9.2-2.9-11.5-4.8c-0.3-0.3-0.6-0.5-0.9-0.8"/>
<path fill="none" stroke="#33281B" stroke-width="4" stroke-linecap="round" stroke-miterlimit="10" d="M93.4,73.8l9.1-5.4
	c0.5-0.3,9.4,0.6,9.9,0.7l11,1"/>
<polyline fill="none" stroke="#33281B" stroke-width="3" stroke-linecap="round" stroke-miterlimit="10" points="137.7,69.3 
	153,62.5 163,67 "/>
<g>
	<g>
		<path id="SVGID_3_" fill="#BCB206" d="M171.3,184.3c-1.4-18.3-0.9-40.9-14.1-38.8c-10.9,1.8-9.5,20.1-7.7,42.6
			c0,0,7.6,1.8,10.7,1.4C162.6,189.2,171.3,184.3,171.3,184.3z"/>
	</g>
</g>
<g>
	<path fill="#4C3115" d="M97.6,42.6c-1.4,16.1,36,27.8,50.1,24.6c14.2-3.2,27.8-2,37.4,1.1c-7.5-4.9-8.5-16.9-13.1-23.5
		c-4.8-6.9-16-12.6-23.8-14.5c-12.1-3-27.2-2-39.8-2"/>
</g>
<circle fill="#B2A674" cx="126.2" cy="161.2" r="1.7"/>
<g>
	<path fill="#4C3115" d="M88.5,154.5c-7.3,7.5-17.9,2.9-24.1,7.5c3.2-10.7,2.3-20.4,0-32.3c-2.7-14-10.1-27,1.9-42.2
		c9.3-11.8,9.7-29.3,18.2-43c3.2-5.1,19.6-16.9,24-13.5l-0.1,21.1c0,0-15.9,15.3-17.5,23.7c-2.4,12.9-4,26.9-1.6,33.7
		c2.5,7.1,8.2,11,9,16.2C101.4,146,88.5,154.5,88.5,154.5z"/>
</g>
<g>
	<path fill="#E8CFAC" d="M91.7,84.2c-4.1-2.9-9.4-1.1-11,5.3c-1.1,4.3,3.4,9.7,8.9,8.7"/>
</g>
<circle fill="#B2A674" cx="127.9" cy="179" r="1.7"/>
<circle fill="#B2A674" cx="129.4" cy="199.5" r="1.7"/>
<circle fill="#B2A674" cx="129.4" cy="218.5" r="1.7"/>
<ellipse fill="#F0F4EF" cx="108.2" cy="83.5" rx="10.7" ry="11"/>
<line fill="none" stroke="#7F5E0B" stroke-width="5" stroke-miterlimit="10" x1="119.3" y1="227.5" x2="115" y2="250.5"/>
<ellipse fill="#F0F4EF" cx="151.4" cy="78.1" rx="10.2" ry="10.4"/>
<path fill="#373838" d="M252.3,248.3H129.1c-1.6,0-2.8-1.4-2.5-3l16.9-86.7c0.2-1.2,1.3-2.1,2.5-2l131.6,3.4c1.7,0,2.8,1.7,2.3,3.2
	l-16.4,85C263.3,249.4,253.4,248.3,252.3,248.3z"/>
<path fill="none" stroke="#724969" stroke-width="4" stroke-linecap="round" stroke-miterlimit="10" d="M123.7,73.5
	c2.3,1.2,1.7,10.2-0.2,14.1c-1.4,2.9-4.3,5.5-6.4,6.2c-3.4,1.1-7.5,1.4-9.9,0.9c-4.3-0.9-6.3-1.7-8.5-4.5
	c-11.1-14.4-4.1-12.6-3.9-12.6C104.7,76.8,122.8,73,123.7,73.5z"/>
<path fill="none" stroke="#724969" stroke-width="4" stroke-linecap="round" stroke-miterlimit="10" d="M133,71.9
	c-1.8,1.9,1.2,10.3,4.2,13.4c2.2,2.3,5.7,4,7.9,4c3.6,0,7.5-0.8,9.7-2.1c3.8-2.2,5.6-3.5,6.8-6.8c6.5-17.1,0.4-13.3,0.1-13.2
	C152.2,69.5,133.7,71.2,133,71.9z"/>
<ellipse fill="#434C32" cx="113.5" cy="89.2" rx="4.2" ry="4.3"/>
<ellipse fill="#434C32" cx="153.9" cy="83.1" rx="4.2" ry="4.3"/>
<line opacity="0.96" fill="none" stroke="#35352A" stroke-width="5" stroke-linecap="round" stroke-miterlimit="10" enable-background="new    " x1="280.1" y1="250.6" x2="41.4" y2="250.6"/>
<g>
	<g>
		<path fill="#EDA994" d="M148.5,108.7c-11.3,6.2-21.9,13.9-35.4,12.3c-1.9-0.2-1.9,2.8,0,3c14.1,1.7,25.2-6.3,36.9-12.7
			C151.7,110.4,150.2,107.8,148.5,108.7L148.5,108.7z"/>
	</g>
</g>
<g>
	<g>
		<path id="SVGID_5_" fill="#BCB206" d="M117.3,171.7c1,12,1.5,21.7-7.6,22.5c-9.4,0.9-10.3-8.9-11.3-20.9c0,0,6.2-2.2,8.9-2.5
			C109.4,170.6,117.3,171.7,117.3,171.7z"/>
	</g>
</g>
<g>
	<path fill="#E58088" d="M124.5,120.4c0.1-10.6-11.9-12.3-10,1.1c-0.3,0,1.5,0.6,5.4,0C121.2,121.3,124.5,120.4,124.5,120.4z"/>
</g>
<circle fill="#A89178" cx="94.2" cy="112.1" r="0.6"/>
<path fill="#BCB206" d="M145,143.5l2.9,1.8l-17.5,11.5c-1.3-2.1,0.9-10.4-5.2-11.8C128.6,145.8,145,143.5,145,143.5z"/>
<circle fill="#B2A674" cx="126.2" cy="146.3" r="1.7"/>
<circle fill="#FFFFFF" stroke="#BA9063" stroke-width="2" stroke-miterlimit="10" cx="117.8" cy="236.8" r="5.7"/>
<line fill="none" stroke="#724969" stroke-width="4" stroke-linecap="round" stroke-miterlimit="10" x1="135" y1="71.4" x2="121.7" y2="73.5"/>
</svg>
