<?xml version="1.0" encoding="utf-8"?>
<!-- Generator: Adobe Illustrator 17.1.0, SVG Export Plug-In . SVG Version: 6.00 Build 0)  -->
<!DOCTYPE svg PUBLIC "-//W3C//DTD SVG 1.1//EN" "http://www.w3.org/Graphics/SVG/1.1/DTD/svg11.dtd">
<svg version="1.1" id="Layer_1" xmlns="http://www.w3.org/2000/svg" xmlns:xlink="http://www.w3.org/1999/xlink" x="0px" y="0px"
	 viewBox="0 0 500 500" enable-background="new 0 0 500 500" xml:space="preserve">
<path fill="#A09A2A" d="M334.7,90.7c-0.3,1.8-32.8,3.3-72.6,3.3c-39.7,0-72-1.5-72-3.3c0-1.8,32.3-3,72-5
	C303.2,83.6,336.3,81.8,334.7,90.7z"/>
<path fill="#998675" d="M425.1,309.5c12.5,50.4-18.6,58.7-36,60c-62.9,4.6-199.1-11.8-199.1-11.8V281V107c0,0,19.4,4.4,143.4,0
	c6-0.2-7.9,155.3-0.1,160.7C352,280.6,416.3,274.1,425.1,309.5z"/>
<linearGradient id="SVGID_1_" gradientUnits="userSpaceOnUse" x1="190" y1="226.6347" x2="429.456" y2="226.6347">
	<stop  offset="0.1008" style="stop-color:#CDC63D"/>
	<stop  offset="0.6016" style="stop-color:#D8D22B"/>
	<stop  offset="1" style="stop-color:#DDD822"/>
</linearGradient>
<path fill="url(#SVGID_1_)" d="M426.5,300.8c12.6,52.8-18.7,61.4-36.2,62.7C327,368.4,190,351.2,190,351.2v-80.2V88.9
	c0,0,7.2,3.4,40.2,3.7c21.7,0.2,54.7-1.8,104.2-3.7c6.1-0.2-8,162.5-0.1,168.2C353,270.6,417.7,263.7,426.5,300.8z"/>
<path fill="none" stroke="#C1272D" stroke-width="3.3382" stroke-miterlimit="10" d="M191.9,91.1c0,0-2.3,62.5,0,135.6
	c1.5,48.2,0,30.8,0,124.8"/>
<g>
	<path fill="#C1272D" d="M192.7,98.1c-3.5-1.5-7.3-1.7-11-2.3c-1.7-0.3-7.7-0.6-7.7-3c0,1.1,0,2.2,0,3.3c0-3.2,7.7-3.9,10.2-4.2
		c2.4-0.4,4.7-0.5,7.1-0.1c2.4,0.4,2.5,2.3,2.5,4.5c0-0.3,0-0.6,0-0.8c0,0.8-0.1,1.5-0.3,2.3c-0.2,1.1,0.2,2.3,0,3.3
		c0.5-2.7,1.4-11-1.3-12.3c-4.5-2.1-13.2,0.1-17.3,2.3c-2.5,1.3-2,5.7,0.4,6.7c5.5,2.3,12,1.2,17.5,3.6
		C192.3,101.3,193.1,98.3,192.7,98.1L192.7,98.1z"/>
</g>
<path fill="#D9E021" d="M334.1,101.1"/>
<g opacity="0.13">
	
		<image overflow="visible" width="213" height="232" xlink:href="A79A959C81D3066B.png"  transform="matrix(1.6691 0 0 1.6691 133.4779 36)">
	</image>
</g>
<g opacity="0.9">
	<path fill="#D3C72F" d="M327.9,259.8c-17.3,10.6-37.2,15.9-55.9,23.5c-0.7,0.3-0.4,1.5,0.3,1.2c18.8-7.7,38.7-12.9,56.2-23.7
		C329.3,260.5,328.6,259.4,327.9,259.8L327.9,259.8z"/>
</g>
<ellipse fill="#A09A2A" cx="165.4" cy="122.4" rx="72" ry="3.3"/>
<path fill="#998675" d="M328.3,342.9c12.5,50.4-18.7,58.7-36.1,60C229.3,407.5,93,391.1,93,391.1v-76.7v-174c0,0,19.5,4.4,143.5,0
	c6-0.2-7.9,155.3,0,160.7C255.1,314,319.5,307.5,328.3,342.9z"/>
<path fill="#DDD822" d="M329.7,334.2c12.6,52.8-18.8,61.4-36.3,62.7C230.1,401.8,93,384.6,93,384.6v-80.2V122.3
	c0,0,19.6,4.6,144.4,0c6.1-0.2-7.9,162.5,0,168.2C256.1,303.9,320.9,297.1,329.7,334.2z"/>
<path fill="none" stroke="#C1272D" stroke-width="3.3382" stroke-miterlimit="10" d="M95.1,124.5c0,0-2.3,62.5,0,135.6
	c1.5,48.2,0,30.8,0,124.8"/>
<g>
	<path fill="#C1272D" d="M95.8,131.5c-3.5-1.5-7.4-1.7-11.1-2.3c-1.7-0.3-7.8-0.6-7.8-3c0,1.1,0,2.2,0,3.3c0-3.2,7.8-3.9,10.2-4.2
		c2.4-0.4,4.8-0.5,7.1-0.1c2.4,0.4,2.5,2.3,2.5,4.5c0-0.3,0-0.6,0-0.8c0,0.8-0.1,1.5-0.3,2.3c-0.2,1.1,0.2,2.3,0,3.3
		c0.5-2.7,1.4-11-1.3-12.3c-4.5-2.1-13.1,0.1-17.3,2.3c-2.5,1.3-2,5.7,0.4,6.7c5.5,2.3,12,1.2,17.5,3.6
		C95.5,134.6,96.3,131.7,95.8,131.5L95.8,131.5z"/>
</g>
<path fill="#D9E021" d="M237.3,134.5"/>
<g opacity="0.13">
	
		<image overflow="visible" opacity="0.75" width="175" height="195" xlink:href="A79A959C81D30669.png"  transform="matrix(1.6691 0 0 1.6691 69.8532 99.2282)">
	</image>
	<g>
		
			<image overflow="visible" width="215" height="236" xlink:href="A79A959C81D3066F.png"  transform="matrix(1.6691 0 0 1.6691 35 64.375)">
		</image>
	</g>
</g>
<g opacity="0.9">
	<path fill="#D3C72F" d="M180.4,319.6c0.8,0,0.8-1.3,0-1.3C179.6,318.4,179.6,319.6,180.4,319.6L180.4,319.6z"/>
</g>
<g opacity="0.9">
	<path fill="#D3C72F" d="M233.1,292.7c0.8,0,0.8-1.3,0-1.3C232.3,291.5,232.3,292.7,233.1,292.7L233.1,292.7z"/>
</g>
<g opacity="0.14">
	<path fill="#684D64" d="M210.3,289.4c0.6,0,0.6-1,0-1S209.6,289.4,210.3,289.4L210.3,289.4z"/>
</g>
<g opacity="0.14">
	<path fill="#684D64" d="M220.3,279.4c0.6,0,0.6-1,0-1C219.6,278.4,219.6,279.4,220.3,279.4L220.3,279.4z"/>
</g>
<g opacity="0.14">
	<path fill="#684D64" d="M277,362.8c0.6,0,0.6-1,0-1S276.4,362.8,277,362.8L277,362.8z"/>
</g>
<g opacity="0.14">
	<path fill="#684D64" d="M256.2,357.8c0.6,0,0.6-1,0-1S255.5,357.8,256.2,357.8L256.2,357.8z"/>
</g>
<g opacity="0.14">
	<path fill="#684D64" d="M269.5,341.1c0.6,0,0.6-1,0-1C268.9,340.1,268.9,341.1,269.5,341.1L269.5,341.1z"/>
</g>
<g opacity="0.14">
	<path fill="#684D64" d="M254.5,320.3c0.6,0,0.6-1,0-1S253.8,320.3,254.5,320.3L254.5,320.3z"/>
</g>
<g opacity="0.14">
	<path fill="#684D64" d="M236.1,314.4c0.6,0,0.6-1,0-1S235.5,314.4,236.1,314.4L236.1,314.4z"/>
</g>
<g opacity="0.14">
	<path fill="#684D64" d="M142.7,377c0.6,0,0.6-1,0-1C142,376,142,377,142.7,377L142.7,377z"/>
</g>
<g opacity="0.14">
	<path fill="#684D64" d="M134.3,374.5c0.6,0,0.6-1,0-1S133.7,374.5,134.3,374.5L134.3,374.5z"/>
</g>
<g opacity="0.14">
	<path fill="#684D64" d="M251.2,383.7c0.6,0,0.6-1,0-1C250.5,382.7,250.5,383.7,251.2,383.7L251.2,383.7z"/>
</g>
<g opacity="0.14">
	<path fill="#684D64" d="M239.5,382c0.6,0,0.6-1,0-1C238.8,381,238.8,382,239.5,382L239.5,382z"/>
</g>
<g opacity="0.14">
	<path fill="#684D64" d="M310.4,339.4c0.6,0,0.6-1,0-1S309.8,339.4,310.4,339.4L310.4,339.4z"/>
</g>
<g opacity="0.14">
	<path fill="#684D64" d="M307.9,377c0.6,0,0.6-1,0-1S307.3,377,307.9,377L307.9,377z"/>
</g>
<g opacity="0.14">
	<path fill="#684D64" d="M108.4,337.8c0.6,0,0.6-1,0-1C107.8,336.8,107.8,337.8,108.4,337.8L108.4,337.8z"/>
</g>
<g opacity="0.14">
	<path fill="#684D64" d="M108.4,326.1c0.6,0,0.6-1,0-1C107.8,325.1,107.8,326.1,108.4,326.1L108.4,326.1z"/>
</g>
<g opacity="0.9">
	<linearGradient id="SVGID_2_" gradientUnits="userSpaceOnUse" x1="202.3639" y1="321.5331" x2="183.7232" y2="302.8924">
		<stop  offset="0" style="stop-color:#DDD822"/>
		<stop  offset="0.1724" style="stop-color:#D9D425"/>
		<stop  offset="0.3508" style="stop-color:#CDC72C"/>
		<stop  offset="0.5078" style="stop-color:#BCB637"/>
		<stop  offset="0.6472" style="stop-color:#CBC52E"/>
		<stop  offset="0.8366" style="stop-color:#D8D325"/>
		<stop  offset="1" style="stop-color:#DDD822"/>
	</linearGradient>
	<path fill="url(#SVGID_2_)" d="M224.3,298.3c-15.3,16.4-43.2,18.6-63.2,26.7c-0.7,0.3-0.4,1.5,0.3,1.2c20.2-8.2,48.2-10.3,63.7-27
		C225.8,298.6,224.9,297.7,224.3,298.3L224.3,298.3z"/>
</g>
<g opacity="0.9">
	<path fill="#D3C72F" d="M239.5,289.9c-17.4,11-34.9,21.1-55.7,23.5c-0.8,0.1-0.8,1.3,0,1.3c21.1-2.5,38.7-12.5,56.3-23.7
		C240.8,290.5,240.2,289.4,239.5,289.9L239.5,289.9z"/>
</g>
<g opacity="0.9">
	<linearGradient id="SVGID_3_" gradientUnits="userSpaceOnUse" x1="228.3825" y1="313.7841" x2="211.9024" y2="297.304">
		<stop  offset="0" style="stop-color:#DDD822"/>
		<stop  offset="0.1724" style="stop-color:#D9D425"/>
		<stop  offset="0.3508" style="stop-color:#CDC72C"/>
		<stop  offset="0.5078" style="stop-color:#BCB637"/>
		<stop  offset="0.6472" style="stop-color:#CBC52E"/>
		<stop  offset="0.8366" style="stop-color:#D8D325"/>
		<stop  offset="1" style="stop-color:#DDD822"/>
	</linearGradient>
	<path fill="url(#SVGID_3_)" d="M247.8,293.2c-17.2,10.9-35.6,20.2-55.9,23.5c-0.8,0.1-0.5,1.3,0.3,1.2
		c20.4-3.4,38.8-12.7,56.2-23.7C249.1,293.9,248.5,292.8,247.8,293.2L247.8,293.2z"/>
</g>
<g opacity="0.9">
	<linearGradient id="SVGID_4_" gradientUnits="userSpaceOnUse" x1="318.5149" y1="280.4018" x2="302.0347" y2="263.9217">
		<stop  offset="0" style="stop-color:#DDD822"/>
		<stop  offset="0.1724" style="stop-color:#D9D425"/>
		<stop  offset="0.3508" style="stop-color:#CDC72C"/>
		<stop  offset="0.5078" style="stop-color:#BCB637"/>
		<stop  offset="0.6472" style="stop-color:#CBC52E"/>
		<stop  offset="0.8366" style="stop-color:#D8D325"/>
		<stop  offset="1" style="stop-color:#DDD822"/>
	</linearGradient>
	<path fill="url(#SVGID_4_)" d="M337.9,259.8c-17.2,10.9-35.6,20.2-55.9,23.5c-0.8,0.1-0.5,1.3,0.3,1.2
		c20.4-3.4,38.8-12.7,56.2-23.7C339.3,260.5,338.6,259.4,337.9,259.8L337.9,259.8z"/>
</g>
<linearGradient id="SVGID_5_" gradientUnits="userSpaceOnUse" x1="270.6262" y1="90.6679" x2="270.6262" y2="90.6679">
	<stop  offset="0.1041" style="stop-color:#C6BD48"/>
	<stop  offset="0.1082" style="stop-color:#C7BE47"/>
	<stop  offset="0.2092" style="stop-color:#D1C936"/>
	<stop  offset="0.3344" style="stop-color:#D8D22B"/>
	<stop  offset="0.5106" style="stop-color:#DCD724"/>
	<stop  offset="1" style="stop-color:#DDD822"/>
</linearGradient>
<path fill="url(#SVGID_5_)" d="M270.6,90.7"/>
</svg>
