<?xml version="1.0" encoding="utf-8"?>
<!-- Generator: Adobe Illustrator 17.1.0, SVG Export Plug-In . SVG Version: 6.00 Build 0)  -->
<!DOCTYPE svg PUBLIC "-//W3C//DTD SVG 1.1//EN" "http://www.w3.org/Graphics/SVG/1.1/DTD/svg11.dtd">
<svg version="1.1" id="Layer_1" xmlns="http://www.w3.org/2000/svg" xmlns:xlink="http://www.w3.org/1999/xlink" x="0px" y="0px"
	 viewBox="0 0 500 500" enable-background="new 0 0 500 500" xml:space="preserve">
<path fill="none" stroke="#5F5D59" stroke-width="1.9574" stroke-miterlimit="10" d="M294.8,453.5c0,0,38.4,3.5,54-2.1
	c14.8-5.4-90.1-4.1-76.4-3.5"/>
<path fill="none" stroke="#5F5D59" stroke-width="1.9574" stroke-miterlimit="10" d="M238.2,447.9c0,0-16.3,1.6-41.9,0
	c-40.8-2.6-20.2,7.8-73.7,5"/>
<circle fill="#D6BF5A" cx="262.5" cy="234.8" r="40.8"/>
<path fill="#D6BF5A" d="M311.3,462.9h-98c0,0,24-14.4,27.4-25.4c4.7-15.1,3.9-75,3.9-75l-3.9-119.6h45.1l-3.9,119
	c0,0-0.7,60.4,3.9,75.7C289.2,448.6,311.3,462.9,311.3,462.9z"/>
<linearGradient id="SVGID_1_" gradientUnits="userSpaceOnUse" x1="138.7203" y1="155.7129" x2="273.7958" y2="155.7129" gradientTransform="matrix(0.9855 -0.1696 0.1696 0.9855 -27.622 131.6488)">
	<stop  offset="0" style="stop-color:#3A4F59"/>
	<stop  offset="4.768759e-02" style="stop-color:#3E545E"/>
	<stop  offset="0.1719" style="stop-color:#445A65"/>
	<stop  offset="0.5171" style="stop-color:#455C67"/>
	<stop  offset="1" style="stop-color:#3A4F59"/>
</linearGradient>
<path fill="url(#SVGID_1_)" d="M196.7,218.8c54.1-0.8,84.2,12.5,66.7,26.8c-17.5,14.4-42.3,31.8-55.6,37.7
	c-13.4,5.6-43.2-6.4-66.5-25.4C118.1,238.9,142.6,219.8,196.7,218.8z"/>
<linearGradient id="SVGID_2_" gradientUnits="userSpaceOnUse" x1="267.9142" y1="154.545" x2="267.9142" y2="25.0784" gradientTransform="matrix(0.9855 -0.1696 0.1696 0.9855 -27.622 131.6488)">
	<stop  offset="0" style="stop-color:#3A4F59"/>
	<stop  offset="6.346548e-02" style="stop-color:#405661"/>
	<stop  offset="0.179" style="stop-color:#465C68"/>
	<stop  offset="0.5" style="stop-color:#475E6A"/>
	<stop  offset="1" style="stop-color:#3A4F59"/>
</linearGradient>
<path fill="url(#SVGID_2_)" d="M219.7,174.1c-17.5-42.5-7.9-69.4,21.7-58.4c29.7,11.1,49,40.6,42.9,64.3
	c-6.1,23.8-15.9,49.9-21.8,57.7C256.5,245.3,237.3,216.5,219.7,174.1z"/>
<linearGradient id="SVGID_3_" gradientUnits="userSpaceOnUse" x1="239.1053" y1="211.8032" x2="309.3483" y2="211.8032" gradientTransform="matrix(0.9855 -0.1696 0.1696 0.9855 -27.622 131.6488)">
	<stop  offset="0" style="stop-color:#3A4F59"/>
	<stop  offset="7.081273e-02" style="stop-color:#415862"/>
	<stop  offset="0.1889" style="stop-color:#475E69"/>
	<stop  offset="0.5171" style="stop-color:#48606B"/>
	<stop  offset="1" style="stop-color:#3A4F59"/>
</linearGradient>
<path fill="url(#SVGID_3_)" d="M243.1,290.2c1.1-24.6,12.6-47.7,18.6-57.1c6.1-9.4,22.5,11.9,44,54.3c21.3,42.4,21.1,73.7-7.7,65.1
	C269.5,344.3,241.9,314.7,243.1,290.2z"/>
<linearGradient id="SVGID_4_" gradientUnits="userSpaceOnUse" x1="259.8683" y1="146.7045" x2="394.4765" y2="146.7045" gradientTransform="matrix(0.9855 -0.1696 0.1696 0.9855 -27.622 131.6488)">
	<stop  offset="0" style="stop-color:#3A4F59"/>
	<stop  offset="4.768759e-02" style="stop-color:#3E545E"/>
	<stop  offset="0.1719" style="stop-color:#445A65"/>
	<stop  offset="0.5171" style="stop-color:#455C67"/>
	<stop  offset="1" style="stop-color:#3A4F59"/>
</linearGradient>
<path fill="url(#SVGID_4_)" d="M327,249.2c-53.4,2.2-85-6.1-68.6-21c16.4-14.9,43.1-31.2,56.7-37.7c13.7-6.8,41.3,2.2,64.7,21.9
	C403.1,232.1,380.4,247.3,327,249.2z"/>
<circle fill="#9A947C" cx="262.5" cy="234.3" r="13.5"/>
<circle fill="none" stroke="#9A947C" stroke-width="3.9148" stroke-miterlimit="10" cx="261.5" cy="234.8" r="134.1"/>
<circle fill="none" stroke="#9A947C" stroke-width="2.5446" stroke-miterlimit="10" cx="262.5" cy="234.3" r="113.5"/>
<line fill="none" stroke="#9A947C" stroke-width="2.5446" stroke-miterlimit="10" x1="181.5" y1="343.5" x2="341.2" y2="127.4"/>
<line fill="none" stroke="#9A947C" stroke-width="2.5446" stroke-miterlimit="10" x1="159.6" y1="147.7" x2="365.7" y2="321.2"/>
<circle fill="#E4E1D6" cx="262.1" cy="234.3" r="4.4"/>
<path fill="none" stroke="#9A947C" stroke-width="2.5446" stroke-miterlimit="10" d="M175.6,161.2c0,0,64.1,22.1,85.9,19
	c19.3-2.7,68.3-37.3,68.3-37.3"/>
<path fill="none" stroke="#9A947C" stroke-width="3.9148" stroke-miterlimit="10" d="M329.8,142.9"/>
<path fill="none" stroke="#9A947C" stroke-width="2.5446" stroke-miterlimit="10" d="M195.4,324.8c0,0,57.1-36.6,79-38.7
	c19.4-1.9,75.2,20.2,75.2,20.2"/>
<path fill="none" stroke="#9A947C" stroke-width="2.5446" stroke-miterlimit="10" d="M175.6,161.2c0,0,33,59.9,35.4,82.1
	c2.2,20.8-16.2,82.1-16.2,82.1"/>
<path fill="none" stroke="#9A947C" stroke-width="2.5446" stroke-miterlimit="10" d="M328.7,143.4c0,0-18,66-15,88.2
	c2.8,20.7,35.1,76,35.1,76"/>
<path fill="#BCA855" d="M317,465.8c0,1.6-1.3,2.9-2.9,2.9H210.5c-1.6,0-2.9-1.3-2.9-2.9l0,0c0-1.6,1.3-2.9,2.9-2.9h103.6
	C315.7,462.9,317,464.2,317,465.8L317,465.8z"/>
<path fill="#898056" d="M101.4,442.8c-0.1,0.3-0.4,0.6-0.7,0.5l-5.7-1.7c-0.3-0.1-0.4-0.4-0.3-0.8l0,0c0.1-0.4,0.4-0.6,0.7-0.5
	l5.7,1.7C101.4,442.1,101.5,442.5,101.4,442.8L101.4,442.8z"/>
<path fill="#898056" d="M99.8,449.2c-0.1,0.3-0.4,0.6-0.6,0.5l-5.5-1.6c-0.2-0.1-0.4-0.4-0.2-0.8l0,0c0.1-0.4,0.4-0.6,0.6-0.5
	l5.5,1.6C99.8,448.5,99.9,448.8,99.8,449.2L99.8,449.2z"/>
<path fill="#898056" d="M100.6,446c-0.1,0.3-0.5,0.5-0.8,0.4l-7.9-2.4c-0.4-0.1-0.5-0.5-0.4-0.8l0,0c0.1-0.3,0.5-0.5,0.8-0.4
	l7.9,2.4C100.5,445.3,100.7,445.7,100.6,446L100.6,446z"/>
<path fill="#C0BDB2" d="M117.6,438.8c3.9,1,6.4,9.3,5.5,13.2l0,0c-1,3.9-6.9,9-10.8,8l-11.1-4.1c-3.9-1-3.5-2.9-2.5-6.8l1.8-7.2
	c1-3.9,2.1-5.2,5.9-4.3L117.6,438.8z"/>
</svg>
