<?xml version="1.0" encoding="utf-8"?>
<!-- Generator: Adobe Illustrator 17.1.0, SVG Export Plug-In . SVG Version: 6.00 Build 0)  -->
<!DOCTYPE svg PUBLIC "-//W3C//DTD SVG 1.1//EN" "http://www.w3.org/Graphics/SVG/1.1/DTD/svg11.dtd">
<svg version="1.1" id="Layer_1" xmlns="http://www.w3.org/2000/svg" xmlns:xlink="http://www.w3.org/1999/xlink" x="0px" y="0px"
	 viewBox="0 0 500 500" enable-background="new 0 0 500 500" xml:space="preserve">
<rect x="209.4" y="38.5" fill="#A18F44" width="76.8" height="64.8"/>
<rect x="174.3" y="413.6" fill="#A18F44" width="150.2" height="29.6"/>
<rect x="247.8" y="37.8" fill="#D6BF5A" width="38.4" height="64.8"/>
<rect x="251.1" y="413.5" fill="#D6BF5A" width="74.3" height="29.6"/>
<circle fill="#B9D3D3" stroke="#D6BF5A" stroke-width="5" stroke-miterlimit="10" cx="249.1" cy="265.4" r="166.9"/>
<radialGradient id="SVGID_1_" cx="250.0712" cy="267.3971" r="153.9766" gradientUnits="userSpaceOnUse">
	<stop  offset="0" style="stop-color:#D5D5D4"/>
	<stop  offset="2.680549e-02" style="stop-color:#D9D9DA;stop-opacity:0.9992"/>
	<stop  offset="0.1138" style="stop-color:#E2E2E6;stop-opacity:0.9964"/>
	<stop  offset="0.2318" style="stop-color:#E7E7ED;stop-opacity:0.9927"/>
	<stop  offset="0.516" style="stop-color:#E8E8EF;stop-opacity:0.9838"/>
	<stop  offset="0.7971" style="stop-color:#E7E7ED;stop-opacity:0.9932"/>
	<stop  offset="0.8984" style="stop-color:#E2E2E6;stop-opacity:0.9966"/>
	<stop  offset="0.9703" style="stop-color:#DADADB;stop-opacity:0.999"/>
	<stop  offset="1" style="stop-color:#D5D5D3"/>
</radialGradient>
<radialGradient id="SVGID_2_" cx="250.0712" cy="267.3971" r="154.4766" gradientUnits="userSpaceOnUse">
	<stop  offset="0" style="stop-color:#B9D3D3;stop-opacity:0.4"/>
	<stop  offset="0.1413" style="stop-color:#B9D3D3;stop-opacity:0.4848"/>
	<stop  offset="1" style="stop-color:#B9D3D3"/>
</radialGradient>
<circle fill="url(#SVGID_1_)" stroke="url(#SVGID_2_)" stroke-miterlimit="10" cx="250.1" cy="267.4" r="154"/>
<circle fill="#CCCEBA" cx="251.6" cy="264.5" r="24.5"/>
<path fill="#404041" stroke="#404041" stroke-width="0.5" stroke-miterlimit="10" d="M213.4,150.6c0.2-0.5,0.5-0.9,0.9-1.2
	c0.4-0.4,0.8-0.6,1.3-0.8c0.5-0.2,1-0.3,1.5-0.3c0.6,0,1.2,0.1,1.7,0.4c0.5,0.2,1,0.6,1.4,1c0.4,0.5,0.7,1,0.9,1.7
	c0.2,0.7,0.3,1.4,0.3,2.3c0,1-0.1,1.9-0.3,2.8c-0.2,0.9-0.5,1.6-0.9,2.3c-0.4,0.7-0.9,1.2-1.5,1.6c-0.6,0.4-1.4,0.6-2.2,0.6
	c-0.6,0-1.1-0.1-1.4-0.2c-0.4-0.1-0.7-0.3-0.9-0.5c-0.2-0.2-0.3-0.4-0.4-0.6c-0.1-0.2-0.1-0.4-0.1-0.6c0-0.4,0.1-0.6,0.3-0.8
	c0.2-0.2,0.5-0.3,0.8-0.3c0.1,0,0.2,0,0.3,0c0.1,0,0.2,0,0.3,0.1c0.1,0.1,0.2,0.1,0.2,0.2c0.1,0.1,0.1,0.2,0.1,0.4
	c0,0.1,0,0.2,0,0.3c0,0.1,0,0.2-0.1,0.3c0,0.1,0,0.2-0.1,0.3c0,0.1,0,0.2,0,0.3c0,0.2,0,0.3,0.1,0.4c0.1,0.1,0.2,0.2,0.3,0.2
	c0.1,0.1,0.2,0.1,0.3,0.1s0.2,0,0.3,0c0.5,0,1-0.1,1.3-0.4c0.3-0.3,0.6-0.7,0.8-1.2c0.2-0.5,0.3-1.1,0.4-1.8
	c0.1-0.7,0.1-1.5,0.1-2.3h0c-0.1,0.1-0.2,0.2-0.3,0.3c-0.1,0.1-0.2,0.3-0.4,0.4c-0.2,0.1-0.4,0.2-0.6,0.3c-0.2,0.1-0.5,0.1-0.9,0.1
	c-0.5,0-1-0.1-1.5-0.3c-0.5-0.2-0.9-0.5-1.2-0.8c-0.4-0.3-0.6-0.8-0.8-1.2c-0.2-0.5-0.3-1-0.3-1.5S213.2,151.1,213.4,150.6z
	 M215.8,154.9c0.3,0.5,0.7,0.8,1.3,0.8c0.5,0,0.9-0.1,1.3-0.4c0.4-0.3,0.6-0.7,0.7-1.1c0-0.1,0-0.3,0.1-0.5c0-0.3,0-0.5,0-0.8
	c0-1-0.1-1.9-0.2-2.4c-0.1-0.6-0.3-1-0.5-1.3c-0.2-0.3-0.4-0.4-0.6-0.5c-0.2-0.1-0.4-0.1-0.6-0.1c-0.2,0-0.5,0-0.7,0.1
	c-0.2,0.1-0.4,0.3-0.6,0.5c-0.2,0.3-0.3,0.7-0.4,1.2c-0.1,0.5-0.2,1.2-0.2,2.1C215.3,153.6,215.5,154.4,215.8,154.9z"/>
<polygon fill="#A18F44" points="396.3,28.2 95.2,28.2 91.8,35.5 96.4,40.8 393.9,40.8 399.3,36.4 "/>
<radialGradient id="SVGID_3_" cx="165.1759" cy="2.552" r="76.6905" gradientTransform="matrix(0.9811 -0.1938 0.1938 0.9811 88.3378 295.3597)" gradientUnits="userSpaceOnUse">
	<stop  offset="0" style="stop-color:#B9D3D3;stop-opacity:0.4"/>
	<stop  offset="0.1413" style="stop-color:#B9D3D3;stop-opacity:0.4848"/>
	<stop  offset="1" style="stop-color:#B9D3D3"/>
</radialGradient>
<circle opacity="0.4" fill="url(#SVGID_3_)" cx="250.9" cy="265.9" r="76.7"/>
<line fill="none" x1="249.4" y1="182.4" x2="249.4" y2="271.1"/>
<path fill="none" d="M207.4,241.8c14.2-24.9,45.8-33.7,70.7-19.6c24.9,14.1,33.5,45.8,19.4,70.7c-14.2,24.9-45.8,33.7-70.7,19.6
	C201.9,298.5,193.3,266.8,207.4,241.8z"/>
<text transform="matrix(0.3815 -0.9207 0.9238 0.3828 202.8033 252.0454)" fill="#231F20" stroke="#3A3A3A" stroke-width="0.25" stroke-miterlimit="10" font-family="'Didot-Bold'" font-size="9.175">W</text>
<text transform="matrix(0.5497 -0.8313 0.8341 0.5516 207.5304 241.5169)" fill="#231F20" stroke="#3A3A3A" stroke-width="0.25" stroke-miterlimit="10" font-family="'Didot-Bold'" font-size="9.175">E</text>
<text transform="matrix(0.6607 -0.7462 0.7487 0.6629 212.5672 234.3571)" fill="#231F20" stroke="#3A3A3A" stroke-width="0.25" stroke-miterlimit="10" font-family="'Didot-Bold'" font-size="9.175">I</text>
<text transform="matrix(0.7619 -0.6425 0.6447 0.7645 216.4583 230.0059)" fill="#231F20" stroke="#3A3A3A" stroke-width="0.25" stroke-miterlimit="10" font-family="'Didot-Bold'" font-size="9.175">G</text>
<text transform="matrix(0.8658 -0.4936 0.4953 0.8687 223.6102 224.198)" fill="#231F20" stroke="#3A3A3A" stroke-width="0.25" stroke-miterlimit="10" font-family="'Didot-Bold'" font-size="9.175">H</text>
<text transform="matrix(0.9384 -0.3358 0.337 0.9415 232.1291 219.6059)" fill="#231F20" stroke="#3A3A3A" stroke-width="0.25" stroke-miterlimit="10" font-family="'Didot-Bold'" font-size="9.175">T</text>
<text transform="matrix(0.9734 -0.2138 0.2146 0.9767 240.3104 216.9573)" fill="#231F20" stroke="#3A3A3A" stroke-width="0.25" stroke-miterlimit="10" font-family="'Didot-Bold'" font-size="9.175"> </text>
<text transform="matrix(0.9902 -0.1132 0.1136 0.9935 244.9575 216.0196)" fill="#231F20" stroke="#3A3A3A" stroke-width="0.25" stroke-miterlimit="10" font-family="'Didot-Bold'" font-size="9.175">I</text>
<text transform="matrix(0.9962 2.867700e-02 -2.877368e-02 0.9996 250.7887 215.3976)" fill="#231F20" stroke="#3A3A3A" stroke-width="0.25" stroke-miterlimit="10" font-family="'Didot-Bold'" font-size="9.175">N</text>
<text transform="matrix(0.9837 0.16 -0.1606 0.987 259.6941 215.9356)" fill="#231F20" stroke="#3A3A3A" stroke-width="0.25" stroke-miterlimit="10" font-family="'Didot-Bold'" font-size="9.175"> </text>
<text transform="matrix(0.956 0.2816 -0.2826 0.9592 264.3585 216.7259)" fill="#231F20" stroke="#3A3A3A" stroke-width="0.25" stroke-miterlimit="10" font-family="'Didot-Bold'" font-size="9.175">P</text>
<text transform="matrix(0.8941 0.4404 -0.4419 0.8971 272.0016 219.0894)" fill="#231F20" stroke="#3A3A3A" stroke-width="0.25" stroke-miterlimit="10" font-family="'Didot-Bold'" font-size="9.175">O</text>
<text transform="matrix(0.8003 0.594 -0.596 0.803 280.6136 223.5658)" fill="#231F20" stroke="#3A3A3A" stroke-width="0.25" stroke-miterlimit="10" font-family="'Didot-Bold'" font-size="9.175">U</text>
<text transform="matrix(0.6841 0.7247 -0.7272 0.6865 287.8851 229.2084)" fill="#231F20" stroke="#3A3A3A" stroke-width="0.25" stroke-miterlimit="10" font-family="'Didot-Bold'" font-size="9.175">N</text>
<text transform="matrix(0.5444 0.8348 -0.8377 0.5462 293.8473 235.7527)" fill="#231F20" stroke="#3A3A3A" stroke-width="0.25" stroke-miterlimit="10" font-family="'Didot-Bold'" font-size="9.175">D</text>
<text transform="matrix(0.3958 0.9147 -0.9178 0.3972 298.8489 243.8681)" fill="#231F20" stroke="#3A3A3A" stroke-width="0.25" stroke-miterlimit="10" font-family="'Didot-Bold'" font-size="9.175">S</text>
<g>
	<path fill="#929497" d="M278.7,284.2c-1.3,0-7.2,18.1-6.5,19.9c-0.7-1.9-18.9-6.8-20.1-5.4c1.2-1.4,0.2-32-1.1-33.9
		C252.4,266.8,277.4,284.3,278.7,284.2z"/>
</g>
<polygon fill="#929497" points="249.6,266.1 253.1,264.2 199.2,163.9 192.1,156 194.8,166.3 "/>
<g>
	<path fill="#A4A4A4" d="M251,264.9c1.3,1.9,26.4,19.4,27.7,19.3c-1.3,0-7.2,18.1-6.5,19.9"/>
</g>
<polyline fill="#A4A4A4" points="253.1,264.2 199.2,163.9 192.1,156 196.8,164.9 250.6,263.3 "/>
<path fill="#929497" d="M257.1,262.9c1.6,3,0.5,6.8-2.5,8.4c-3,1.6-6.8,0.5-8.4-2.5c-1.6-3-0.5-6.8,2.5-8.4
	C251.7,258.8,255.5,259.9,257.1,262.9z"/>
<path fill="#929497" d="M248.5,260.3c3-1.6,6.8-0.5,8.4,2.5c1.6,3,0.5,6.8-2.5,8.4"/>
<circle fill="#58595B" cx="251.7" cy="265.8" r="3.2"/>
<polygon fill="#D6BF5A" points="413.3,457.4 82.1,457.4 82.1,446.5 84.1,444.6 87,442.6 408.3,442.6 410.3,444.6 413.3,447.2 "/>
<g opacity="0.8">
	<g>
		<g>
			<g>
				
					<line fill="none" stroke="#838383" stroke-width="0.78" stroke-linejoin="round" stroke-miterlimit="10" x1="397.8" y1="265" x2="378.1" y2="264.9"/>
				
					<line fill="none" stroke="#838383" stroke-width="0.78" stroke-linejoin="round" stroke-miterlimit="10" x1="394.5" y1="273.4" x2="381.1" y2="272.5"/>
				
					<line fill="none" stroke="#838383" stroke-width="0.78" stroke-linejoin="round" stroke-miterlimit="10" x1="393.6" y1="282.1" x2="380.4" y2="280.5"/>
				
					<line fill="none" stroke="#838383" stroke-width="0.78" stroke-linejoin="round" stroke-miterlimit="10" x1="392.2" y1="291.3" x2="379.1" y2="288.8"/>
				
					<line fill="none" stroke="#838383" stroke-width="0.78" stroke-linejoin="round" stroke-miterlimit="10" x1="390.2" y1="300.2" x2="377.3" y2="296.9"/>
			</g>
			<g>
				
					<line fill="none" stroke="#838383" stroke-width="0.78" stroke-linejoin="round" stroke-miterlimit="10" x1="390.3" y1="310.7" x2="371.6" y2="304.5"/>
				
					<line fill="none" stroke="#838383" stroke-width="0.78" stroke-linejoin="round" stroke-miterlimit="10" x1="384.6" y1="317.6" x2="372.2" y2="312.7"/>
				
					<line fill="none" stroke="#838383" stroke-width="0.78" stroke-linejoin="round" stroke-miterlimit="10" x1="381.1" y1="325.7" x2="369" y2="320"/>
				
					<line fill="none" stroke="#838383" stroke-width="0.78" stroke-linejoin="round" stroke-miterlimit="10" x1="376.9" y1="334" x2="365.2" y2="327.5"/>
				
					<line fill="none" stroke="#838383" stroke-width="0.78" stroke-linejoin="round" stroke-miterlimit="10" x1="372.2" y1="341.9" x2="360.9" y2="334.7"/>
			</g>
			<g>
				
					<line fill="none" stroke="#838383" stroke-width="0.78" stroke-linejoin="round" stroke-miterlimit="10" x1="369" y1="351.9" x2="353.2" y2="340.2"/>
				
					<line fill="none" stroke="#838383" stroke-width="0.78" stroke-linejoin="round" stroke-miterlimit="10" x1="361.4" y1="356.7" x2="351.1" y2="348.1"/>
				
					<line fill="none" stroke="#838383" stroke-width="0.78" stroke-linejoin="round" stroke-miterlimit="10" x1="355.6" y1="363.3" x2="345.8" y2="354.1"/>
				
					<line fill="none" stroke="#838383" stroke-width="0.78" stroke-linejoin="round" stroke-miterlimit="10" x1="349.1" y1="369.8" x2="339.9" y2="360.1"/>
				
					<line fill="none" stroke="#838383" stroke-width="0.78" stroke-linejoin="round" stroke-miterlimit="10" x1="342.2" y1="375.9" x2="333.7" y2="365.6"/>
			</g>
			<g>
				
					<line fill="none" stroke="#838383" stroke-width="0.78" stroke-linejoin="round" stroke-miterlimit="10" x1="336.1" y1="384.4" x2="324.6" y2="368.5"/>
				
					<line fill="none" stroke="#838383" stroke-width="0.78" stroke-linejoin="round" stroke-miterlimit="10" x1="327.4" y1="386.7" x2="320.2" y2="375.4"/>
				
					<line fill="none" stroke="#838383" stroke-width="0.78" stroke-linejoin="round" stroke-miterlimit="10" x1="319.8" y1="391.2" x2="313.4" y2="379.5"/>
				
					<line fill="none" stroke="#838383" stroke-width="0.78" stroke-linejoin="round" stroke-miterlimit="10" x1="311.6" y1="395.4" x2="305.9" y2="383.3"/>
				
					<line fill="none" stroke="#838383" stroke-width="0.78" stroke-linejoin="round" stroke-miterlimit="10" x1="303.1" y1="399" x2="298.2" y2="386.6"/>
			</g>
			<g>
				
					<line fill="none" stroke="#838383" stroke-width="0.78" stroke-linejoin="round" stroke-miterlimit="10" x1="294.7" y1="405.2" x2="288.8" y2="386.5"/>
				
					<line fill="none" stroke="#838383" stroke-width="0.78" stroke-linejoin="round" stroke-miterlimit="10" x1="285.7" y1="404.7" x2="282.4" y2="391.7"/>
				
					<line fill="none" stroke="#838383" stroke-width="0.78" stroke-linejoin="round" stroke-miterlimit="10" x1="277.1" y1="406.6" x2="274.6" y2="393.4"/>
				
					<line fill="none" stroke="#838383" stroke-width="0.78" stroke-linejoin="round" stroke-miterlimit="10" x1="268" y1="408" x2="266.3" y2="394.8"/>
				
					<line fill="none" stroke="#838383" stroke-width="0.78" stroke-linejoin="round" stroke-miterlimit="10" x1="258.9" y1="408.9" x2="258" y2="395.6"/>
			</g>
			<g>
				
					<line fill="none" stroke="#838383" stroke-width="0.78" stroke-linejoin="round" stroke-miterlimit="10" x1="248.9" y1="412.2" x2="249" y2="392.5"/>
				
					<line fill="none" stroke="#838383" stroke-width="0.78" stroke-linejoin="round" stroke-miterlimit="10" x1="240.6" y1="408.9" x2="241.4" y2="395.5"/>
				
					<line fill="none" stroke="#838383" stroke-width="0.78" stroke-linejoin="round" stroke-miterlimit="10" x1="231.8" y1="408.1" x2="233.5" y2="394.8"/>
				
					<line fill="none" stroke="#838383" stroke-width="0.78" stroke-linejoin="round" stroke-miterlimit="10" x1="222.7" y1="406.7" x2="225.2" y2="393.5"/>
				
					<line fill="none" stroke="#838383" stroke-width="0.78" stroke-linejoin="round" stroke-miterlimit="10" x1="213.7" y1="404.6" x2="217" y2="391.7"/>
			</g>
			<g>
				
					<line fill="none" stroke="#838383" stroke-width="0.78" stroke-linejoin="round" stroke-miterlimit="10" x1="203.2" y1="404.7" x2="209.4" y2="386"/>
				
					<line fill="none" stroke="#838383" stroke-width="0.78" stroke-linejoin="round" stroke-miterlimit="10" x1="196.3" y1="399" x2="201.2" y2="386.6"/>
				
					<line fill="none" stroke="#838383" stroke-width="0.78" stroke-linejoin="round" stroke-miterlimit="10" x1="188.2" y1="395.5" x2="193.9" y2="383.4"/>
				
					<line fill="none" stroke="#838383" stroke-width="0.78" stroke-linejoin="round" stroke-miterlimit="10" x1="180" y1="391.3" x2="186.4" y2="379.6"/>
				
					<line fill="none" stroke="#838383" stroke-width="0.78" stroke-linejoin="round" stroke-miterlimit="10" x1="172.1" y1="386.6" x2="179.2" y2="375.3"/>
			</g>
			<g>
				
					<line fill="none" stroke="#838383" stroke-width="0.78" stroke-linejoin="round" stroke-miterlimit="10" x1="162.1" y1="383.4" x2="173.7" y2="367.6"/>
				
					<line fill="none" stroke="#838383" stroke-width="0.78" stroke-linejoin="round" stroke-miterlimit="10" x1="157.3" y1="375.8" x2="165.8" y2="365.5"/>
				
					<line fill="none" stroke="#838383" stroke-width="0.78" stroke-linejoin="round" stroke-miterlimit="10" x1="150.7" y1="370" x2="159.8" y2="360.3"/>
				
					<line fill="none" stroke="#838383" stroke-width="0.78" stroke-linejoin="round" stroke-miterlimit="10" x1="144.1" y1="363.5" x2="153.8" y2="354.3"/>
				
					<line fill="none" stroke="#838383" stroke-width="0.78" stroke-linejoin="round" stroke-miterlimit="10" x1="138" y1="356.6" x2="148.3" y2="348.1"/>
			</g>
			<g>
				
					<line fill="none" stroke="#838383" stroke-width="0.78" stroke-linejoin="round" stroke-miterlimit="10" x1="129.5" y1="350.5" x2="145.5" y2="339"/>
				
					<line fill="none" stroke="#838383" stroke-width="0.78" stroke-linejoin="round" stroke-miterlimit="10" x1="127.3" y1="341.8" x2="138.5" y2="334.6"/>
				
					<line fill="none" stroke="#838383" stroke-width="0.78" stroke-linejoin="round" stroke-miterlimit="10" x1="122.8" y1="334.2" x2="134.5" y2="327.8"/>
				
					<line fill="none" stroke="#838383" stroke-width="0.78" stroke-linejoin="round" stroke-miterlimit="10" x1="118.6" y1="326" x2="130.7" y2="320.3"/>
				
					<line fill="none" stroke="#838383" stroke-width="0.78" stroke-linejoin="round" stroke-miterlimit="10" x1="114.9" y1="317.5" x2="127.3" y2="312.6"/>
			</g>
			<g>
				
					<line fill="none" stroke="#838383" stroke-width="0.78" stroke-linejoin="round" stroke-miterlimit="10" x1="108.7" y1="309.1" x2="127.4" y2="303.2"/>
				
					<line fill="none" stroke="#838383" stroke-width="0.78" stroke-linejoin="round" stroke-miterlimit="10" x1="109.3" y1="300.1" x2="122.2" y2="296.8"/>
				
					<line fill="none" stroke="#838383" stroke-width="0.78" stroke-linejoin="round" stroke-miterlimit="10" x1="107.4" y1="291.6" x2="120.5" y2="289"/>
				
					<line fill="none" stroke="#838383" stroke-width="0.78" stroke-linejoin="round" stroke-miterlimit="10" x1="105.9" y1="282.4" x2="119.2" y2="280.7"/>
				
					<line fill="none" stroke="#838383" stroke-width="0.78" stroke-linejoin="round" stroke-miterlimit="10" x1="105" y1="273.3" x2="118.4" y2="272.4"/>
			</g>
			<g>
				
					<line fill="none" stroke="#838383" stroke-width="0.78" stroke-linejoin="round" stroke-miterlimit="10" x1="101.8" y1="263.3" x2="121.4" y2="263.4"/>
				
					<line fill="none" stroke="#838383" stroke-width="0.78" stroke-linejoin="round" stroke-miterlimit="10" x1="105.1" y1="255" x2="118.4" y2="255.8"/>
				
					<line fill="none" stroke="#838383" stroke-width="0.78" stroke-linejoin="round" stroke-miterlimit="10" x1="105.9" y1="246.2" x2="119.1" y2="247.9"/>
				
					<line fill="none" stroke="#838383" stroke-width="0.78" stroke-linejoin="round" stroke-miterlimit="10" x1="107.3" y1="237.1" x2="120.4" y2="239.6"/>
				
					<line fill="none" stroke="#838383" stroke-width="0.78" stroke-linejoin="round" stroke-miterlimit="10" x1="109.3" y1="228.1" x2="122.2" y2="231.4"/>
			</g>
			<g>
				
					<line fill="none" stroke="#838383" stroke-width="0.78" stroke-linejoin="round" stroke-miterlimit="10" x1="109.2" y1="217.6" x2="127.9" y2="223.8"/>
				
					<line fill="none" stroke="#838383" stroke-width="0.78" stroke-linejoin="round" stroke-miterlimit="10" x1="115" y1="210.7" x2="127.4" y2="215.6"/>
				
					<line fill="none" stroke="#838383" stroke-width="0.78" stroke-linejoin="round" stroke-miterlimit="10" x1="118.4" y1="202.6" x2="130.5" y2="208.3"/>
				
					<line fill="none" stroke="#838383" stroke-width="0.78" stroke-linejoin="round" stroke-miterlimit="10" x1="122.7" y1="194.4" x2="134.4" y2="200.8"/>
				
					<line fill="none" stroke="#838383" stroke-width="0.78" stroke-linejoin="round" stroke-miterlimit="10" x1="127.3" y1="186.5" x2="138.6" y2="193.6"/>
			</g>
			<g>
				
					<line fill="none" stroke="#838383" stroke-width="0.78" stroke-linejoin="round" stroke-miterlimit="10" x1="130.5" y1="176.5" x2="146.3" y2="188.1"/>
				
					<line fill="none" stroke="#838383" stroke-width="0.78" stroke-linejoin="round" stroke-miterlimit="10" x1="138.1" y1="171.7" x2="148.4" y2="180.2"/>
				
					<line fill="none" stroke="#838383" stroke-width="0.78" stroke-linejoin="round" stroke-miterlimit="10" x1="143.9" y1="165.1" x2="153.7" y2="174.2"/>
				
					<line fill="none" stroke="#838383" stroke-width="0.78" stroke-linejoin="round" stroke-miterlimit="10" x1="150.4" y1="158.5" x2="159.6" y2="168.2"/>
				
					<line fill="none" stroke="#838383" stroke-width="0.78" stroke-linejoin="round" stroke-miterlimit="10" x1="157.3" y1="152.4" x2="165.9" y2="162.7"/>
			</g>
			<g>
				
					<line fill="none" stroke="#838383" stroke-width="0.78" stroke-linejoin="round" stroke-miterlimit="10" x1="163.4" y1="143.9" x2="174.9" y2="159.9"/>
				
					<line fill="none" stroke="#838383" stroke-width="0.78" stroke-linejoin="round" stroke-miterlimit="10" x1="172.1" y1="141.7" x2="179.3" y2="153"/>
				
					<line fill="none" stroke="#838383" stroke-width="0.78" stroke-linejoin="round" stroke-miterlimit="10" x1="179.7" y1="137.2" x2="186.2" y2="148.9"/>
				
					<line fill="none" stroke="#838383" stroke-width="0.78" stroke-linejoin="round" stroke-miterlimit="10" x1="187.9" y1="133" x2="193.6" y2="145.1"/>
				
					<line fill="none" stroke="#838383" stroke-width="0.78" stroke-linejoin="round" stroke-miterlimit="10" x1="196.4" y1="129.3" x2="201.3" y2="141.8"/>
			</g>
			<g>
				
					<line fill="none" stroke="#838383" stroke-width="0.78" stroke-linejoin="round" stroke-miterlimit="10" x1="204.8" y1="123.1" x2="210.8" y2="141.8"/>
				
					<line fill="none" stroke="#838383" stroke-width="0.78" stroke-linejoin="round" stroke-miterlimit="10" x1="213.8" y1="123.7" x2="217.1" y2="136.6"/>
				
					<line fill="none" stroke="#838383" stroke-width="0.78" stroke-linejoin="round" stroke-miterlimit="10" x1="222.4" y1="121.8" x2="224.9" y2="134.9"/>
				
					<line fill="none" stroke="#838383" stroke-width="0.78" stroke-linejoin="round" stroke-miterlimit="10" x1="231.5" y1="120.3" x2="233.2" y2="133.6"/>
				
					<line fill="none" stroke="#838383" stroke-width="0.78" stroke-linejoin="round" stroke-miterlimit="10" x1="240.7" y1="119.4" x2="241.5" y2="132.8"/>
			</g>
			<g>
				
					<line fill="none" stroke="#838383" stroke-width="0.78" stroke-linejoin="round" stroke-miterlimit="10" x1="250.6" y1="116.2" x2="250.5" y2="135.8"/>
				
					<line fill="none" stroke="#838383" stroke-width="0.78" stroke-linejoin="round" stroke-miterlimit="10" x1="258.9" y1="119.5" x2="258.1" y2="132.8"/>
				
					<line fill="none" stroke="#838383" stroke-width="0.78" stroke-linejoin="round" stroke-miterlimit="10" x1="267.7" y1="120.3" x2="266.1" y2="133.5"/>
				
					<line fill="none" stroke="#838383" stroke-width="0.78" stroke-linejoin="round" stroke-miterlimit="10" x1="276.9" y1="121.7" x2="274.4" y2="134.8"/>
				
					<line fill="none" stroke="#838383" stroke-width="0.78" stroke-linejoin="round" stroke-miterlimit="10" x1="285.8" y1="123.7" x2="282.5" y2="136.6"/>
			</g>
			<g>
				
					<line fill="none" stroke="#838383" stroke-width="0.78" stroke-linejoin="round" stroke-miterlimit="10" x1="296.3" y1="123.7" x2="290.1" y2="142.3"/>
				
					<line fill="none" stroke="#838383" stroke-width="0.78" stroke-linejoin="round" stroke-miterlimit="10" x1="303.2" y1="129.4" x2="298.3" y2="141.8"/>
				
					<line fill="none" stroke="#838383" stroke-width="0.78" stroke-linejoin="round" stroke-miterlimit="10" x1="311.3" y1="132.8" x2="305.6" y2="144.9"/>
				
					<line fill="none" stroke="#838383" stroke-width="0.78" stroke-linejoin="round" stroke-miterlimit="10" x1="319.5" y1="137.1" x2="313.1" y2="148.8"/>
				
					<line fill="none" stroke="#838383" stroke-width="0.78" stroke-linejoin="round" stroke-miterlimit="10" x1="327.5" y1="141.8" x2="320.3" y2="153"/>
			</g>
			<g>
				
					<line fill="none" stroke="#838383" stroke-width="0.78" stroke-linejoin="round" stroke-miterlimit="10" x1="337.4" y1="144.9" x2="325.8" y2="160.7"/>
				
					<line fill="none" stroke="#838383" stroke-width="0.78" stroke-linejoin="round" stroke-miterlimit="10" x1="342.3" y1="152.5" x2="333.7" y2="162.8"/>
				
					<line fill="none" stroke="#838383" stroke-width="0.78" stroke-linejoin="round" stroke-miterlimit="10" x1="348.8" y1="158.3" x2="339.7" y2="168.1"/>
				
					<line fill="none" stroke="#838383" stroke-width="0.78" stroke-linejoin="round" stroke-miterlimit="10" x1="355.4" y1="164.8" x2="345.7" y2="174"/>
				
					<line fill="none" stroke="#838383" stroke-width="0.78" stroke-linejoin="round" stroke-miterlimit="10" x1="361.5" y1="171.7" x2="351.2" y2="180.3"/>
			</g>
			<g>
				
					<line fill="none" stroke="#838383" stroke-width="0.78" stroke-linejoin="round" stroke-miterlimit="10" x1="370" y1="177.8" x2="354" y2="189.3"/>
				
					<line fill="none" stroke="#838383" stroke-width="0.78" stroke-linejoin="round" stroke-miterlimit="10" x1="372.3" y1="186.5" x2="361" y2="193.7"/>
				
					<line fill="none" stroke="#838383" stroke-width="0.78" stroke-linejoin="round" stroke-miterlimit="10" x1="376.8" y1="194.1" x2="365.1" y2="200.6"/>
				
					<line fill="none" stroke="#838383" stroke-width="0.78" stroke-linejoin="round" stroke-miterlimit="10" x1="380.9" y1="202.4" x2="368.9" y2="208"/>
				
					<line fill="none" stroke="#838383" stroke-width="0.78" stroke-linejoin="round" stroke-miterlimit="10" x1="384.6" y1="210.8" x2="372.2" y2="215.7"/>
			</g>
			<g>
				
					<line fill="none" stroke="#838383" stroke-width="0.78" stroke-linejoin="round" stroke-miterlimit="10" x1="390.8" y1="219.2" x2="372.1" y2="225.2"/>
				
					<line fill="none" stroke="#838383" stroke-width="0.78" stroke-linejoin="round" stroke-miterlimit="10" x1="390.2" y1="228.2" x2="377.3" y2="231.5"/>
				
					<line fill="none" stroke="#838383" stroke-width="0.78" stroke-linejoin="round" stroke-miterlimit="10" x1="392.1" y1="236.8" x2="379" y2="239.3"/>
				
					<line fill="none" stroke="#838383" stroke-width="0.78" stroke-linejoin="round" stroke-miterlimit="10" x1="393.6" y1="245.9" x2="380.3" y2="247.6"/>
				
					<line fill="none" stroke="#838383" stroke-width="0.78" stroke-linejoin="round" stroke-miterlimit="10" x1="394.5" y1="255.1" x2="381.2" y2="255.9"/>
			</g>
		</g>
	</g>
</g>
<path fill="#404041" stroke="#404041" stroke-width="0.5" stroke-miterlimit="10" d="M243.7,147.6c0.1-0.7,0.2-1.4,0.3-2.1
	c0.2-0.8,0.4-1.5,0.7-2.3c0.3-0.8,0.7-1.4,1.2-2c0.5-0.6,1.1-1.1,1.8-1.5c0.7-0.4,1.6-0.6,2.6-0.6c1.1,0,2,0.2,2.8,0.6
	c0.8,0.4,1.4,0.9,1.9,1.5c0.5,0.6,0.9,1.3,1.1,2.1c0.3,0.8,0.5,1.5,0.6,2.3c0.1,0.8,0.2,1.4,0.2,2.1c0,0.6,0,1.1,0,1.5
	c0,0.4,0,1-0.1,1.6c-0.1,0.7-0.2,1.4-0.3,2.1c-0.2,0.8-0.4,1.5-0.7,2.2c-0.3,0.7-0.7,1.4-1.2,2c-0.5,0.6-1.1,1.1-1.8,1.5
	c-0.7,0.4-1.6,0.6-2.6,0.6c-1.1,0-2-0.2-2.8-0.6c-0.8-0.4-1.4-0.9-1.9-1.5c-0.5-0.6-0.9-1.3-1.1-2.1c-0.3-0.8-0.5-1.5-0.6-2.3
	c-0.1-0.7-0.2-1.4-0.2-2.1c0-0.6,0-1.1,0-1.5C243.6,148.8,243.6,148.2,243.7,147.6z M247.3,153.6c0,1.2,0.2,2.2,0.4,3
	c0.2,0.8,0.5,1.4,0.9,1.7c0.4,0.4,0.9,0.6,1.6,0.6c0.7,0,1.3-0.2,1.6-0.6c0.4-0.4,0.7-0.9,0.9-1.7c0.2-0.8,0.3-1.8,0.4-3
	c0-1.2,0.1-2.7,0.1-4.4c0-1.8,0-3.3-0.1-4.5c0-1.2-0.2-2.2-0.4-3c-0.2-0.8-0.5-1.3-0.9-1.7c-0.4-0.3-0.9-0.5-1.6-0.5
	c-0.7,0-1.3,0.2-1.6,0.6c-0.4,0.4-0.7,0.9-0.9,1.7c-0.2,0.8-0.3,1.8-0.4,3c0,1.2-0.1,2.7-0.1,4.4
	C247.3,150.9,247.3,152.4,247.3,153.6z"/>
<path fill="#404041" stroke="#404041" stroke-width="0.5" stroke-miterlimit="10" d="M286,160.7v-0.2h1.6v-10.6
	c-0.4,0.2-0.7,0.4-1.1,0.6c-0.4,0.2-0.7,0.4-1.1,0.6l-0.1-0.2c0.4-0.2,0.8-0.4,1.1-0.6c0.3-0.2,0.6-0.4,0.9-0.5
	c0.3-0.2,0.6-0.4,0.8-0.6c0.3-0.2,0.6-0.5,0.9-0.8h0.7v12.1h1.6v0.2H286z"/>
<path fill="#404041" stroke="#404041" stroke-width="0.5" stroke-miterlimit="10" d="M325.9,176.4c0.2,0,0.4-0.1,0.6-0.2
	c0.2-0.1,0.4-0.3,0.5-0.5c0.2-0.2,0.2-0.6,0.3-1h0.2v3.5h-7.8v-0.2l0.1-0.1c1-0.9,1.8-1.7,2.5-2.4c0.7-0.7,1.2-1.3,1.6-1.9
	c0.4-0.6,0.7-1.3,0.9-1.9c0.2-0.7,0.3-1.5,0.3-2.4c0-0.5,0-0.9-0.1-1.3c0-0.4-0.1-0.7-0.2-1c-0.1-0.3-0.3-0.5-0.5-0.6
	c-0.2-0.2-0.5-0.2-0.8-0.2c-0.2,0-0.3,0-0.5,0.1c-0.2,0-0.3,0.1-0.5,0.2c-0.1,0.1-0.2,0.2-0.3,0.4c-0.1,0.2-0.1,0.4-0.1,0.7
	c0,0,0,0.1,0,0.2c0,0.1,0,0.2,0,0.3c0,0.1,0,0.2,0,0.3c0,0.1,0,0.2,0,0.2c0,0.3-0.1,0.5-0.3,0.6c-0.2,0.1-0.4,0.2-0.7,0.2
	c-0.1,0-0.2,0-0.3,0c-0.1,0-0.2,0-0.3-0.1c-0.1-0.1-0.2-0.1-0.3-0.3c-0.1-0.1-0.1-0.3-0.1-0.5c0-0.2,0.1-0.4,0.2-0.7
	c0.1-0.3,0.3-0.5,0.6-0.8c0.3-0.2,0.6-0.5,1.1-0.6c0.4-0.2,1-0.3,1.6-0.3c0.6,0,1.2,0.1,1.6,0.3c0.5,0.2,0.8,0.4,1.1,0.7
	c0.3,0.3,0.5,0.7,0.6,1.1c0.1,0.4,0.2,0.8,0.2,1.2c0,0.2,0,0.4-0.1,0.6c-0.1,0.2-0.1,0.5-0.3,0.8c-0.1,0.3-0.3,0.6-0.5,1
	c-0.2,0.4-0.5,0.7-0.9,1.1l-1.2,1.3l-2.5,2.5h3.7C325.6,176.4,325.7,176.4,325.9,176.4z"/>
<path fill="#404041" stroke="#404041" stroke-width="0.5" stroke-miterlimit="10" d="M345.5,205.6c0.1,0.3,0.3,0.6,0.5,0.8
	c0.2,0.3,0.5,0.5,0.9,0.7c0.4,0.2,0.8,0.3,1.3,0.3c0.6,0,1-0.1,1.3-0.3c0.3-0.2,0.6-0.5,0.8-0.8c0.2-0.3,0.3-0.7,0.4-1.2
	c0.1-0.4,0.1-0.9,0.1-1.4c0-0.3,0-0.7,0-1c0-0.4-0.1-0.7-0.2-1c-0.1-0.3-0.4-0.6-0.7-0.8c-0.3-0.2-0.7-0.3-1.3-0.3
	c-0.4,0-0.7,0.1-1.1,0.2c-0.3,0.1-0.7,0.3-1,0.5l-0.1-0.2c0.4-0.2,0.7-0.4,1.1-0.5c0.3-0.1,0.7-0.2,1.1-0.3c0.1,0,0.3-0.1,0.5-0.2
	c0.2-0.1,0.4-0.2,0.6-0.4c0.2-0.2,0.4-0.5,0.5-0.9c0.1-0.4,0.2-0.9,0.2-1.5c0-0.2,0-0.4,0-0.6c0-0.2-0.1-0.5-0.2-0.7
	c-0.1-0.2-0.3-0.4-0.5-0.6c-0.2-0.2-0.5-0.2-0.9-0.2c-0.3,0-0.6,0.1-0.8,0.2c-0.2,0.1-0.4,0.4-0.4,0.7c0,0,0,0.1,0,0.2
	c0,0.1,0,0.2,0.1,0.3c0,0.1,0,0.2,0,0.3c0,0.1,0,0.2,0,0.2c0,0.2,0,0.4-0.1,0.5c-0.1,0.1-0.2,0.2-0.3,0.2c-0.1,0.1-0.2,0.1-0.3,0.1
	c-0.1,0-0.2,0-0.3,0c-0.2,0-0.4-0.1-0.6-0.2c-0.2-0.1-0.3-0.3-0.3-0.6c0-0.7,0.3-1.2,0.9-1.6c0.6-0.4,1.4-0.6,2.4-0.6
	c0.7,0,1.3,0.1,1.8,0.3c0.5,0.2,0.8,0.4,1.1,0.7c0.3,0.3,0.4,0.5,0.5,0.8c0.1,0.3,0.1,0.5,0.1,0.7c0,0.4-0.1,0.8-0.3,1.1
	c-0.2,0.3-0.5,0.6-0.8,0.8c-0.3,0.2-0.7,0.4-1.2,0.6c-0.4,0.1-0.9,0.3-1.4,0.4v0c0.5,0.1,1,0.2,1.5,0.4c0.5,0.2,0.9,0.4,1.3,0.6
	c0.4,0.3,0.7,0.6,0.9,1c0.2,0.4,0.3,0.9,0.3,1.4c0,0.4-0.1,0.8-0.3,1.3c-0.2,0.4-0.5,0.9-0.8,1.2c-0.4,0.4-0.9,0.7-1.4,0.9
	c-0.6,0.2-1.3,0.4-2.1,0.4c-0.4,0-0.8,0-1.2-0.1c-0.4-0.1-0.7-0.2-1-0.4c-0.3-0.2-0.6-0.5-0.8-0.8c-0.2-0.3-0.4-0.8-0.5-1.2l0.3-0.1
	C345.3,205.1,345.3,205.3,345.5,205.6z"/>
<path fill="#404041" stroke="#404041" stroke-width="0.5" stroke-miterlimit="10" d="M366.3,231.8v4.4h1.5v0.2h-1.5v2.5h1.5v0.2
	h-5.1v-0.2h1.5v-2.5h-4.8c0.1-0.4,0.3-0.8,0.6-1.5c0.3-0.6,0.6-1.3,0.9-2.1c0.3-0.7,0.7-1.5,1.1-2.3c0.4-0.8,0.7-1.4,1.1-2
	c0.3-0.5,0.5-0.8,0.7-1.1c0.2-0.2,0.4-0.4,0.6-0.5c0.2-0.1,0.3-0.2,0.5-0.2c0.1,0,0.3,0,0.5,0c0.1,0,0.2,0,0.3,0
	c0.1,0,0.2,0,0.3,0.1c0.1,0,0.2,0.1,0.2,0.2c0.1,0.1,0.1,0.2,0.1,0.3c0,0.1,0,0.2-0.1,0.3c-0.1,0.1-0.2,0.2-0.3,0.3
	c-0.2,0.2-0.5,0.4-0.8,0.7c-0.3,0.3-0.7,0.7-1,1.1c-0.4,0.4-0.8,0.9-1.2,1.4c-0.4,0.5-0.8,1.1-1.2,1.6c-0.4,0.6-0.8,1.1-1.1,1.7
	c-0.3,0.6-0.6,1.1-0.9,1.7h4.5v-4.4H366.3z"/>
<path fill="#404041" stroke="#404041" stroke-width="0.5" stroke-miterlimit="10" d="M361.8,256.7c0.1,0.1,0.4,0.3,0.7,0.5
	c0.3,0.2,0.7,0.5,1.1,0.7c0.4,0.2,0.9,0.4,1.5,0.6c0.5,0.2,1.1,0.2,1.7,0.2c0.1,0,0.4,0,0.6,0c0.3,0,0.6-0.1,1-0.2
	c0.3-0.1,0.7-0.3,1.1-0.6c0.4-0.3,0.8-0.6,1.1-1.1l0.4,0.2c-0.7,0.9-1.2,1.6-1.7,2.2c-0.5,0.6-0.9,1.1-1.3,1.4
	c-0.4,0.4-0.8,0.6-1.3,0.7c-0.4,0.1-0.9,0.2-1.5,0.2c-0.3,0-0.7,0-1.1-0.1c-0.4-0.1-0.8-0.2-1.2-0.3c-0.4-0.1-0.8-0.3-1.2-0.4
	c-0.4-0.1-0.7-0.3-1-0.4l-1.1,6.2l0.1,0.1c0.2-0.3,0.5-0.5,0.7-0.8c0.2-0.2,0.5-0.4,0.9-0.6c0.3-0.2,0.7-0.3,1.2-0.4
	c0.5-0.1,1-0.2,1.7-0.2c0.9,0,1.8,0.1,2.6,0.4c0.8,0.3,1.6,0.7,2.2,1.2c0.6,0.5,1.1,1.1,1.5,1.9c0.4,0.7,0.6,1.5,0.6,2.4
	c0,0.8-0.2,1.6-0.5,2.4c-0.3,0.8-0.8,1.6-1.5,2.3c-0.7,0.7-1.5,1.2-2.4,1.7c-0.9,0.4-2,0.6-3.3,0.6c-0.8,0-1.5-0.1-2.2-0.3
	c-0.7-0.2-1.2-0.4-1.7-0.7c-0.5-0.3-0.9-0.6-1.1-1c-0.3-0.4-0.4-0.8-0.4-1.2c0-0.4,0.1-0.7,0.2-0.9c0.1-0.2,0.3-0.4,0.5-0.5
	c0.2-0.1,0.4-0.2,0.6-0.2c0.2,0,0.3,0,0.4,0c0.8,0,1.2,0.1,1.5,0.4c0.2,0.3,0.3,0.5,0.3,0.9c0,0.1,0,0.1,0,0.3c0,0.1,0,0.3,0,0.4
	c0,0.1,0,0.3,0,0.4c0,0.1,0,0.2,0,0.3c0,0.4,0.1,0.6,0.2,0.9c0.1,0.2,0.3,0.4,0.5,0.5c0.2,0.1,0.4,0.2,0.6,0.3
	c0.2,0,0.4,0.1,0.6,0.1c0.4,0,0.8,0,1.3-0.1c0.4-0.1,0.9-0.3,1.2-0.7c0.4-0.4,0.7-1,0.9-1.9c0.2-0.9,0.4-2.1,0.4-3.7
	c0-1.2-0.1-2.2-0.3-3c-0.2-0.7-0.4-1.3-0.8-1.7c-0.3-0.4-0.7-0.7-1.1-0.8c-0.4-0.1-0.9-0.2-1.4-0.2c-0.7,0-1.2,0.1-1.7,0.4
	c-0.5,0.2-0.8,0.5-1.2,0.9c-0.3,0.3-0.6,0.7-0.8,1.1c-0.2,0.4-0.4,0.7-0.5,1h-0.4l2-11.6H361.8z"/>
<path fill="#404041" stroke="#404041" stroke-width="0.5" stroke-miterlimit="10" d="M355.7,304.4c0.3-0.9,0.7-1.7,1.1-2.3
	c0.5-0.7,1.1-1.2,1.7-1.6c0.7-0.4,1.4-0.6,2.2-0.6c0.3,0,0.6,0,0.9,0.1c0.3,0.1,0.6,0.2,0.8,0.3c0.2,0.2,0.4,0.3,0.6,0.6
	c0.1,0.2,0.2,0.5,0.2,0.8c0,0.7-0.3,1-1,1c-0.4,0-0.7-0.1-0.8-0.2c-0.1-0.1-0.2-0.3-0.2-0.5c0-0.2,0-0.4,0.1-0.6
	c0.1-0.2,0.1-0.4,0.1-0.6c0,0,0-0.1,0-0.2c0-0.1-0.1-0.2-0.1-0.2c-0.1-0.1-0.1-0.1-0.2-0.2c-0.1-0.1-0.3-0.1-0.5-0.1
	c-0.4,0-0.8,0.1-1.1,0.3c-0.3,0.2-0.6,0.4-0.8,0.8c-0.2,0.3-0.4,0.7-0.5,1.1c-0.1,0.4-0.3,0.8-0.4,1.2c-0.1,0.4-0.2,0.8-0.2,1.3
	c-0.1,0.4-0.1,0.8-0.1,1.1l0,0c0.1-0.1,0.2-0.2,0.3-0.3c0.1-0.1,0.2-0.3,0.4-0.4c0.2-0.1,0.4-0.2,0.6-0.3c0.2-0.1,0.5-0.1,0.9-0.1
	c0.5,0,1,0.1,1.5,0.3c0.5,0.2,0.9,0.5,1.2,0.8c0.4,0.3,0.6,0.8,0.9,1.2c0.2,0.5,0.3,1,0.3,1.5c0,0.5-0.1,1-0.3,1.5
	c-0.2,0.5-0.5,0.9-0.9,1.2c-0.4,0.4-0.8,0.6-1.3,0.8c-0.5,0.2-1,0.3-1.5,0.3c-0.6,0-1.2-0.1-1.7-0.3c-0.5-0.2-1-0.6-1.4-1
	c-0.4-0.5-0.7-1-0.9-1.7c-0.2-0.7-0.3-1.4-0.3-2.3C355.3,306.2,355.4,305.3,355.7,304.4z M361,305.9c-0.3-0.5-0.7-0.8-1.3-0.8
	c-0.2,0-0.5,0-0.8,0.1c-0.3,0.1-0.6,0.3-0.9,0.6c-0.1,0.1-0.1,0.2-0.2,0.3c-0.1,0.1-0.1,0.2-0.1,0.4c0,0.2-0.1,0.3-0.1,0.6
	c0,0.2,0,0.5,0,0.9c0,1,0.1,1.8,0.2,2.4c0.1,0.6,0.3,1,0.5,1.3c0.2,0.3,0.4,0.4,0.6,0.5c0.2,0.1,0.5,0.1,0.7,0.1
	c0.3,0,0.5,0,0.7-0.1c0.2-0.1,0.4-0.2,0.6-0.5c0.2-0.3,0.3-0.7,0.4-1.2c0.1-0.5,0.1-1.2,0.1-2.1C361.3,307.3,361.2,306.5,361,305.9z
	"/>
<path fill="#404041" stroke="#404041" stroke-width="0.5" stroke-miterlimit="10" d="M347.6,333.9c0,0.3,0,0.8-0.1,1.3
	c-0.1,0.5-0.2,1.1-0.3,1.7c-0.1,0.6-0.3,1.3-0.6,2c-0.2,0.7-0.5,1.4-0.8,2.1c-0.4,0.9-0.7,1.7-1,2.4c-0.3,0.7-0.6,1.2-0.8,1.6
	c-0.3,0.4-0.5,0.7-0.8,0.9c-0.3,0.2-0.6,0.3-0.9,0.3c-0.3,0-0.5,0-0.8-0.1c-0.2-0.1-0.4-0.3-0.4-0.5c0-0.2,0-0.3,0.1-0.4
	c0.1-0.1,0.1-0.2,0.2-0.3l1.5-1.4c0.6-0.6,1.2-1.2,1.6-1.9c0.5-0.7,0.9-1.4,1.2-2.1c0.3-0.7,0.6-1.3,0.8-2c0.2-0.6,0.3-1.1,0.4-1.6
	h-5.3c-0.2,0-0.4,0-0.5,0.1s-0.3,0.2-0.3,0.3c-0.1,0.1-0.2,0.3-0.2,0.4c0,0.2-0.1,0.3-0.1,0.4h-0.2v-3.4H347.6z"/>
<path fill="#404041" stroke="#404041" stroke-width="0.5" stroke-miterlimit="10" d="M312,367c0.1-0.3,0.3-0.6,0.6-0.8
	c0.2-0.2,0.5-0.5,0.9-0.6c0.3-0.2,0.7-0.4,1-0.6c-0.3-0.2-0.6-0.3-0.9-0.5c-0.3-0.2-0.5-0.4-0.7-0.6c-0.2-0.2-0.4-0.5-0.5-0.8
	c-0.1-0.3-0.2-0.7-0.2-1.1c0-0.5,0.1-0.9,0.3-1.3c0.2-0.4,0.5-0.7,0.8-1c0.3-0.3,0.7-0.5,1.2-0.7c0.5-0.2,1-0.2,1.5-0.2
	c0.4,0,0.9,0.1,1.2,0.2c0.4,0.1,0.7,0.3,1,0.5c0.3,0.2,0.5,0.5,0.7,0.8c0.2,0.3,0.3,0.6,0.3,1c0,0.6-0.2,1-0.6,1.5
	c-0.4,0.4-0.9,0.8-1.7,1.2c0.9,0.4,1.6,0.9,2.1,1.4c0.5,0.5,0.7,1.2,0.7,2c0,0.4-0.1,0.9-0.3,1.4c-0.2,0.5-0.5,0.9-0.8,1.3
	c-0.4,0.4-0.8,0.7-1.3,0.9c-0.5,0.2-1.1,0.4-1.7,0.4c-0.5,0-1-0.1-1.5-0.2c-0.5-0.2-0.9-0.4-1.2-0.6c-0.4-0.3-0.6-0.6-0.8-1
	c-0.2-0.4-0.3-0.8-0.3-1.3C311.8,367.7,311.9,367.3,312,367z M314.1,365.7c-0.1,0.2-0.3,0.5-0.3,0.8c-0.1,0.3-0.1,0.5-0.1,0.8
	c0,0.3,0,0.5,0,0.8c0,0.6,0.1,1,0.2,1.4c0.1,0.4,0.2,0.7,0.4,0.9c0.2,0.2,0.4,0.4,0.6,0.5c0.2,0.1,0.5,0.1,0.8,0.1
	c0.5,0,0.8-0.1,1.2-0.3c0.3-0.2,0.5-0.4,0.7-0.6c0.2-0.3,0.3-0.5,0.4-0.8c0.1-0.3,0.1-0.6,0.1-0.8c0-0.4,0-0.7-0.1-0.9
	c-0.1-0.3-0.2-0.5-0.3-0.7c-0.2-0.2-0.3-0.4-0.6-0.5c-0.2-0.2-0.5-0.3-0.8-0.5l-1.4-0.8C314.5,365.2,314.3,365.4,314.1,365.7z
	 M314.1,361.9c0.1,0.3,0.3,0.5,0.6,0.7c0.2,0.2,0.5,0.4,0.9,0.6c0.4,0.2,0.7,0.4,1.2,0.6c0.1-0.1,0.2-0.1,0.2-0.2
	c0.1-0.1,0.2-0.2,0.2-0.4c0.1-0.2,0.1-0.4,0.2-0.7c0-0.3,0.1-0.7,0.1-1.2c0-0.2,0-0.4,0-0.6c0-0.3-0.1-0.5-0.2-0.8
	c-0.1-0.3-0.3-0.5-0.5-0.7c-0.2-0.2-0.5-0.3-0.9-0.3c-0.3,0-0.5,0.1-0.8,0.2c-0.2,0.1-0.5,0.3-0.6,0.4c-0.2,0.2-0.3,0.4-0.4,0.7
	c-0.1,0.2-0.1,0.5-0.1,0.8C313.9,361.3,314,361.6,314.1,361.9z"/>
<path fill="#404041" stroke="#404041" stroke-width="0.5" stroke-miterlimit="10" d="M239.1,387v-0.4h2.4v-16
	c-0.6,0.3-1.1,0.6-1.7,1c-0.6,0.3-1.1,0.6-1.7,1l-0.2-0.3c0.6-0.4,1.2-0.7,1.6-1c0.5-0.3,0.9-0.5,1.3-0.8c0.4-0.3,0.8-0.6,1.3-0.9
	c0.4-0.3,0.9-0.7,1.4-1.2h1v18.4h2.4v0.4H239.1z"/>
<path fill="#404041" stroke="#404041" stroke-width="0.5" stroke-miterlimit="10" d="M250.7,376.2c0.1-0.6,0.2-1.3,0.3-2
	c0.1-0.7,0.4-1.4,0.6-2.1c0.3-0.7,0.7-1.4,1.1-1.9c0.5-0.6,1-1,1.7-1.4c0.7-0.4,1.5-0.5,2.4-0.5c1,0,1.9,0.2,2.6,0.6
	c0.7,0.4,1.3,0.9,1.8,1.5c0.5,0.6,0.8,1.3,1.1,2c0.2,0.7,0.4,1.5,0.6,2.2c0.1,0.7,0.2,1.4,0.2,2c0,0.6,0,1.1,0,1.4
	c0,0.4,0,0.9-0.1,1.6c-0.1,0.6-0.2,1.3-0.3,2c-0.1,0.7-0.4,1.4-0.6,2.1c-0.3,0.7-0.7,1.3-1.1,1.9c-0.5,0.6-1,1-1.7,1.4
	c-0.7,0.4-1.5,0.5-2.4,0.5c-1,0-1.9-0.2-2.6-0.6c-0.7-0.4-1.3-0.9-1.8-1.5c-0.5-0.6-0.8-1.3-1.1-2c-0.2-0.7-0.4-1.4-0.6-2.1
	c-0.1-0.7-0.2-1.4-0.2-2c0-0.6,0-1.1,0-1.4C250.7,377.4,250.7,376.9,250.7,376.2z M254.2,382c0,1.2,0.2,2.1,0.3,2.9
	c0.2,0.7,0.5,1.3,0.8,1.6c0.4,0.4,0.9,0.5,1.6,0.5c0.7,0,1.2-0.2,1.6-0.5c0.4-0.4,0.6-0.9,0.8-1.6c0.2-0.7,0.3-1.7,0.3-2.9
	c0-1.2,0.1-2.6,0.1-4.2c0-1.7,0-3.1-0.1-4.3c0-1.2-0.2-2.1-0.3-2.8c-0.2-0.7-0.5-1.3-0.8-1.6c-0.4-0.3-0.9-0.5-1.6-0.5
	c-0.7,0-1.2,0.2-1.6,0.5c-0.4,0.4-0.6,0.9-0.8,1.6c-0.2,0.7-0.3,1.7-0.3,2.8c0,1.2-0.1,2.6-0.1,4.2
	C254.1,379.4,254.2,380.8,254.2,382z"/>
<path fill="#404041" stroke="#404041" stroke-width="0.5" stroke-miterlimit="10" d="M202.4,381.9v-0.2h1.6v-10.6
	c-0.4,0.2-0.7,0.4-1.1,0.6c-0.4,0.2-0.7,0.4-1.1,0.6l-0.1-0.2c0.4-0.2,0.8-0.4,1.1-0.6c0.3-0.2,0.6-0.4,0.9-0.5
	c0.3-0.2,0.6-0.4,0.8-0.6c0.3-0.2,0.6-0.5,0.9-0.8h0.7v12.1h1.6v0.2H202.4z"/>
<path fill="#404041" stroke="#404041" stroke-width="0.5" stroke-miterlimit="10" d="M211.9,381.9v-0.2h1.6v-10.6
	c-0.4,0.2-0.7,0.4-1.1,0.6c-0.4,0.2-0.7,0.4-1.1,0.6l-0.1-0.2c0.4-0.2,0.8-0.4,1.1-0.6c0.3-0.2,0.6-0.4,0.9-0.5
	c0.3-0.2,0.6-0.4,0.8-0.6c0.3-0.2,0.6-0.5,0.9-0.8h0.7v12.1h1.6v0.2H211.9z"/>
<path fill="#404041" stroke="#404041" stroke-width="0.5" stroke-miterlimit="10" d="M172,360.6v-0.2h1.6v-10.6
	c-0.4,0.2-0.7,0.4-1.1,0.6c-0.4,0.2-0.7,0.4-1.1,0.6l-0.1-0.2c0.4-0.2,0.8-0.4,1.1-0.6c0.3-0.2,0.6-0.4,0.9-0.5
	c0.3-0.2,0.6-0.4,0.8-0.6c0.3-0.2,0.6-0.5,0.9-0.8h0.7v12.1h1.6v0.2H172z"/>
<path fill="#404041" stroke="#404041" stroke-width="0.5" stroke-miterlimit="10" d="M185.7,358.8c0.2,0,0.4-0.1,0.6-0.2
	c0.2-0.1,0.4-0.3,0.5-0.5c0.2-0.2,0.2-0.6,0.3-1h0.2v3.5h-7.8v-0.2l0.1-0.1c1-0.9,1.8-1.7,2.5-2.4c0.7-0.7,1.2-1.3,1.6-1.9
	c0.4-0.6,0.7-1.3,0.9-1.9c0.2-0.7,0.3-1.5,0.3-2.4c0-0.5,0-0.9-0.1-1.3c0-0.4-0.1-0.7-0.2-1c-0.1-0.3-0.3-0.5-0.5-0.6
	c-0.2-0.2-0.5-0.2-0.8-0.2c-0.2,0-0.3,0-0.5,0.1c-0.2,0-0.3,0.1-0.5,0.2c-0.1,0.1-0.2,0.2-0.3,0.4c-0.1,0.2-0.1,0.4-0.1,0.7
	c0,0,0,0.1,0,0.2c0,0.1,0,0.2,0,0.3c0,0.1,0,0.2,0,0.3c0,0.1,0,0.2,0,0.2c0,0.3-0.1,0.5-0.3,0.6c-0.2,0.1-0.4,0.2-0.7,0.2
	c-0.1,0-0.2,0-0.3,0c-0.1,0-0.2,0-0.3-0.1c-0.1-0.1-0.2-0.1-0.3-0.3c-0.1-0.1-0.1-0.3-0.1-0.5c0-0.2,0.1-0.4,0.2-0.7
	c0.1-0.3,0.3-0.5,0.6-0.8c0.3-0.2,0.6-0.5,1.1-0.6c0.4-0.2,1-0.3,1.6-0.3c0.6,0,1.2,0.1,1.6,0.3c0.5,0.2,0.8,0.4,1.1,0.7
	c0.3,0.3,0.5,0.7,0.6,1.1c0.1,0.4,0.2,0.8,0.2,1.2c0,0.2,0,0.4-0.1,0.6c-0.1,0.2-0.1,0.5-0.3,0.8c-0.1,0.3-0.3,0.6-0.5,1
	c-0.2,0.4-0.5,0.7-0.9,1.1l-1.2,1.3l-2.5,2.5h3.7C185.4,358.9,185.6,358.9,185.7,358.8z"/>
<path fill="#404041" stroke="#404041" stroke-width="0.5" stroke-miterlimit="10" d="M147,335.7v-0.2h1.6v-10.6
	c-0.4,0.2-0.7,0.4-1.1,0.6c-0.4,0.2-0.7,0.4-1.1,0.6l-0.1-0.2c0.4-0.2,0.8-0.4,1.1-0.6c0.3-0.2,0.6-0.4,0.9-0.5
	c0.3-0.2,0.6-0.4,0.8-0.6c0.3-0.2,0.6-0.5,0.9-0.8h0.7v12.1h1.6v0.2H147z"/>
<path fill="#404041" stroke="#404041" stroke-width="0.5" stroke-miterlimit="10" d="M154.9,334c0.1,0.3,0.3,0.6,0.5,0.8
	c0.2,0.3,0.5,0.5,0.9,0.7c0.4,0.2,0.8,0.3,1.3,0.3c0.6,0,1-0.1,1.3-0.3c0.3-0.2,0.6-0.5,0.8-0.8c0.2-0.3,0.3-0.7,0.4-1.2
	c0.1-0.4,0.1-0.9,0.1-1.4c0-0.3,0-0.7,0-1c0-0.4-0.1-0.7-0.2-1c-0.1-0.3-0.4-0.6-0.7-0.8c-0.3-0.2-0.7-0.3-1.3-0.3
	c-0.4,0-0.7,0.1-1.1,0.2c-0.3,0.1-0.7,0.3-1,0.5l-0.1-0.2c0.4-0.2,0.7-0.4,1.1-0.5c0.3-0.1,0.7-0.2,1.1-0.3c0.1,0,0.3-0.1,0.5-0.2
	c0.2-0.1,0.4-0.2,0.6-0.4c0.2-0.2,0.4-0.5,0.5-0.9c0.1-0.4,0.2-0.9,0.2-1.5c0-0.2,0-0.4,0-0.6c0-0.2-0.1-0.5-0.2-0.7
	c-0.1-0.2-0.3-0.4-0.5-0.6c-0.2-0.2-0.5-0.2-0.9-0.2c-0.3,0-0.6,0.1-0.8,0.2c-0.2,0.1-0.4,0.4-0.4,0.7c0,0,0,0.1,0,0.2
	c0,0.1,0,0.2,0.1,0.3c0,0.1,0,0.2,0,0.3c0,0.1,0,0.2,0,0.2c0,0.2,0,0.4-0.1,0.5c-0.1,0.1-0.2,0.2-0.3,0.2c-0.1,0.1-0.2,0.1-0.3,0.1
	c-0.1,0-0.2,0-0.3,0c-0.2,0-0.4-0.1-0.6-0.2c-0.2-0.1-0.3-0.3-0.3-0.6c0-0.7,0.3-1.2,0.9-1.6c0.6-0.4,1.4-0.6,2.4-0.6
	c0.7,0,1.3,0.1,1.8,0.3c0.5,0.2,0.8,0.4,1.1,0.7c0.3,0.3,0.4,0.5,0.5,0.8c0.1,0.3,0.1,0.5,0.1,0.7c0,0.4-0.1,0.8-0.3,1.1
	c-0.2,0.3-0.5,0.6-0.8,0.8c-0.3,0.2-0.7,0.4-1.2,0.6c-0.4,0.1-0.9,0.3-1.4,0.4v0c0.5,0.1,1,0.2,1.5,0.4c0.5,0.2,0.9,0.4,1.3,0.6
	c0.4,0.3,0.7,0.6,0.9,1c0.2,0.4,0.3,0.9,0.3,1.4c0,0.4-0.1,0.8-0.3,1.3c-0.2,0.4-0.5,0.9-0.8,1.2c-0.4,0.4-0.9,0.7-1.4,0.9
	c-0.6,0.2-1.3,0.4-2.1,0.4c-0.4,0-0.8,0-1.2-0.1c-0.4-0.1-0.7-0.2-1-0.4c-0.3-0.2-0.6-0.5-0.8-0.8c-0.2-0.3-0.4-0.8-0.5-1.2l0.3-0.1
	C154.7,333.4,154.8,333.7,154.9,334z"/>
<path fill="#404041" stroke="#404041" stroke-width="0.5" stroke-miterlimit="10" d="M133.3,305.5v-0.2h1.6v-10.6
	c-0.4,0.2-0.7,0.4-1.1,0.6c-0.4,0.2-0.7,0.4-1.1,0.6l-0.1-0.2c0.4-0.2,0.8-0.4,1.1-0.6c0.3-0.2,0.6-0.4,0.9-0.5
	c0.3-0.2,0.6-0.4,0.8-0.6c0.3-0.2,0.6-0.5,0.9-0.8h0.7v12.1h1.6v0.2H133.3z"/>
<path fill="#404041" stroke="#404041" stroke-width="0.5" stroke-miterlimit="10" d="M147.8,298.2v4.4h1.5v0.2h-1.5v2.5h1.5v0.2
	h-5.1v-0.2h1.5v-2.5h-4.8c0.1-0.4,0.3-0.8,0.6-1.5c0.3-0.6,0.6-1.3,0.9-2.1c0.3-0.7,0.7-1.5,1.1-2.3s0.7-1.4,1.1-2
	c0.3-0.5,0.5-0.8,0.7-1.1c0.2-0.2,0.4-0.4,0.6-0.5c0.2-0.1,0.3-0.2,0.5-0.2c0.1,0,0.3,0,0.5,0c0.1,0,0.2,0,0.3,0s0.2,0,0.3,0.1
	c0.1,0,0.2,0.1,0.2,0.2c0.1,0.1,0.1,0.2,0.1,0.3c0,0.1,0,0.2-0.1,0.3c-0.1,0.1-0.2,0.2-0.3,0.3c-0.2,0.2-0.5,0.4-0.8,0.7
	c-0.3,0.3-0.7,0.7-1,1.1c-0.4,0.4-0.8,0.9-1.2,1.4c-0.4,0.5-0.8,1.1-1.2,1.6c-0.4,0.6-0.8,1.1-1.1,1.7c-0.3,0.6-0.6,1.1-0.9,1.7h4.5
	v-4.4H147.8z"/>
<path fill="#404041" stroke="#404041" stroke-width="0.5" stroke-miterlimit="10" d="M126.6,273.9v-0.3h2.3v-15.4
	c-0.5,0.3-1.1,0.6-1.6,0.9c-0.5,0.3-1.1,0.6-1.6,0.9l-0.2-0.3c0.6-0.3,1.1-0.7,1.6-0.9c0.5-0.3,0.9-0.5,1.3-0.8
	c0.4-0.3,0.8-0.6,1.2-0.9c0.4-0.3,0.9-0.7,1.4-1.2h1v17.7h2.3v0.3H126.6z"/>
<path fill="#404041" stroke="#404041" stroke-width="0.5" stroke-miterlimit="10" d="M141.2,256c0.1,0.1,0.3,0.3,0.6,0.5
	c0.3,0.2,0.6,0.4,1,0.6c0.4,0.2,0.8,0.4,1.2,0.5c0.5,0.1,0.9,0.2,1.4,0.2c0.1,0,0.3,0,0.5,0c0.2,0,0.5-0.1,0.8-0.2
	c0.3-0.1,0.6-0.3,0.9-0.5c0.3-0.2,0.6-0.6,0.9-1l0.3,0.1c-0.5,0.8-1,1.4-1.4,1.9c-0.4,0.5-0.8,0.9-1.1,1.2c-0.3,0.3-0.7,0.5-1.1,0.7
	c-0.4,0.1-0.8,0.2-1.2,0.2c-0.3,0-0.6,0-0.9-0.1c-0.3-0.1-0.7-0.2-1-0.3c-0.3-0.1-0.7-0.2-1-0.4c-0.3-0.1-0.6-0.2-0.8-0.3l-0.9,5.4
	l0,0c0.2-0.2,0.4-0.5,0.6-0.7c0.2-0.2,0.4-0.4,0.7-0.5c0.3-0.2,0.6-0.3,1-0.4c0.4-0.1,0.8-0.1,1.4-0.1c0.8,0,1.5,0.1,2.2,0.4
	c0.7,0.2,1.3,0.6,1.8,1.1c0.5,0.5,0.9,1,1.2,1.6c0.3,0.6,0.5,1.3,0.5,2.1c0,0.7-0.1,1.4-0.4,2.1c-0.3,0.7-0.7,1.4-1.2,2
	c-0.5,0.6-1.2,1.1-2,1.5c-0.8,0.4-1.7,0.6-2.7,0.6c-0.6,0-1.2-0.1-1.8-0.2c-0.6-0.1-1-0.3-1.4-0.6c-0.4-0.2-0.7-0.5-0.9-0.9
	c-0.2-0.3-0.3-0.7-0.3-1c0-0.3,0.1-0.6,0.2-0.8c0.1-0.2,0.3-0.3,0.4-0.4c0.2-0.1,0.3-0.1,0.5-0.2c0.2,0,0.3,0,0.4,0
	c0.6,0,1,0.1,1.2,0.3c0.2,0.2,0.3,0.5,0.3,0.8c0,0.1,0,0.1,0,0.2c0,0.1,0,0.2,0,0.3c0,0.1,0,0.2,0,0.3c0,0.1,0,0.2,0,0.2
	c0,0.3,0.1,0.6,0.2,0.8c0.1,0.2,0.2,0.4,0.4,0.5c0.1,0.1,0.3,0.2,0.5,0.2c0.2,0,0.3,0.1,0.5,0.1c0.3,0,0.7,0,1.1-0.1
	c0.4-0.1,0.7-0.3,1-0.6c0.3-0.3,0.6-0.9,0.8-1.7c0.2-0.8,0.3-1.8,0.3-3.2c0-1.1-0.1-2-0.2-2.6c-0.2-0.7-0.4-1.1-0.6-1.5
	c-0.3-0.3-0.6-0.6-0.9-0.7c-0.4-0.1-0.7-0.2-1.1-0.2c-0.5,0-1,0.1-1.4,0.3c-0.4,0.2-0.7,0.5-1,0.8c-0.3,0.3-0.5,0.6-0.7,1
	c-0.2,0.3-0.3,0.6-0.4,0.9h-0.3l1.7-10.2H141.2z"/>
<path fill="#404041" stroke="#404041" stroke-width="0.5" stroke-miterlimit="10" d="M131,232.8v-0.2h1.6V222
	c-0.4,0.2-0.7,0.4-1.1,0.6c-0.4,0.2-0.7,0.4-1.1,0.6l-0.1-0.2c0.4-0.2,0.8-0.4,1.1-0.6c0.3-0.2,0.6-0.4,0.9-0.5
	c0.3-0.2,0.6-0.4,0.8-0.6c0.3-0.2,0.6-0.5,0.9-0.8h0.7v12.1h1.6v0.2H131z"/>
<path fill="#404041" stroke="#404041" stroke-width="0.5" stroke-miterlimit="10" d="M139,225c0.3-0.9,0.7-1.7,1.1-2.3
	c0.5-0.7,1.1-1.2,1.7-1.6c0.7-0.4,1.4-0.6,2.2-0.6c0.3,0,0.6,0,0.9,0.1c0.3,0.1,0.6,0.2,0.8,0.3c0.2,0.2,0.4,0.3,0.6,0.6
	c0.1,0.2,0.2,0.5,0.2,0.8c0,0.7-0.3,1-1,1c-0.4,0-0.7-0.1-0.8-0.2c-0.1-0.1-0.2-0.3-0.2-0.5c0-0.2,0-0.4,0.1-0.6
	c0.1-0.2,0.1-0.4,0.1-0.6c0,0,0-0.1,0-0.2c0-0.1-0.1-0.2-0.1-0.2c-0.1-0.1-0.1-0.1-0.2-0.2c-0.1-0.1-0.3-0.1-0.5-0.1
	c-0.4,0-0.8,0.1-1.1,0.3c-0.3,0.2-0.6,0.4-0.8,0.8c-0.2,0.3-0.4,0.7-0.5,1.1c-0.1,0.4-0.3,0.8-0.4,1.2c-0.1,0.4-0.2,0.8-0.2,1.3
	c-0.1,0.4-0.1,0.8-0.1,1.1l0,0c0.1-0.1,0.2-0.2,0.3-0.3c0.1-0.1,0.2-0.3,0.4-0.4c0.2-0.1,0.4-0.2,0.6-0.3c0.2-0.1,0.5-0.1,0.9-0.1
	c0.5,0,1,0.1,1.5,0.3c0.5,0.2,0.9,0.5,1.2,0.8c0.4,0.3,0.6,0.8,0.9,1.2c0.2,0.5,0.3,1,0.3,1.5c0,0.5-0.1,1-0.3,1.5
	c-0.2,0.5-0.5,0.9-0.9,1.2c-0.4,0.4-0.8,0.6-1.3,0.8c-0.5,0.2-1,0.3-1.5,0.3c-0.6,0-1.2-0.1-1.7-0.3c-0.5-0.2-1-0.6-1.4-1
	c-0.4-0.5-0.7-1-0.9-1.7c-0.2-0.7-0.3-1.4-0.3-2.3C138.5,226.8,138.7,225.8,139,225z M144.2,226.4c-0.3-0.5-0.7-0.8-1.3-0.8
	c-0.2,0-0.5,0-0.8,0.1c-0.3,0.1-0.6,0.3-0.9,0.6c-0.1,0.1-0.1,0.2-0.2,0.3c-0.1,0.1-0.1,0.2-0.1,0.4c0,0.2-0.1,0.3-0.1,0.6
	c0,0.2,0,0.5,0,0.9c0,1,0.1,1.8,0.2,2.4c0.1,0.6,0.3,1,0.5,1.3c0.2,0.3,0.4,0.4,0.6,0.5c0.2,0.1,0.5,0.1,0.7,0.1
	c0.3,0,0.5,0,0.7-0.1c0.2-0.1,0.4-0.2,0.6-0.5c0.2-0.3,0.3-0.7,0.4-1.2c0.1-0.5,0.1-1.2,0.1-2.1C144.6,227.8,144.5,227,144.2,226.4z
	"/>
<path fill="#404041" stroke="#404041" stroke-width="0.5" stroke-miterlimit="10" d="M147.1,203.1v-0.2h1.6v-10.6
	c-0.4,0.2-0.7,0.4-1.1,0.6c-0.4,0.2-0.7,0.4-1.1,0.6l-0.1-0.2c0.4-0.2,0.8-0.4,1.1-0.6c0.3-0.2,0.6-0.4,0.9-0.5
	c0.3-0.2,0.6-0.4,0.8-0.6c0.3-0.2,0.6-0.5,0.9-0.8h0.7v12.1h1.6v0.2H147.1z"/>
<path fill="#404041" stroke="#404041" stroke-width="0.5" stroke-miterlimit="10" d="M162.5,191c0,0.3,0,0.8-0.1,1.3
	c-0.1,0.5-0.2,1.1-0.3,1.7c-0.1,0.6-0.3,1.3-0.6,2c-0.2,0.7-0.5,1.4-0.8,2.1c-0.4,0.9-0.7,1.7-1,2.4c-0.3,0.7-0.6,1.2-0.8,1.6
	c-0.3,0.4-0.5,0.7-0.8,0.9c-0.3,0.2-0.6,0.3-0.9,0.3c-0.3,0-0.5,0-0.8-0.1c-0.2-0.1-0.4-0.3-0.4-0.5c0-0.2,0-0.3,0.1-0.4
	c0.1-0.1,0.1-0.2,0.2-0.3l1.5-1.4c0.6-0.6,1.2-1.2,1.6-1.9c0.5-0.7,0.9-1.4,1.2-2.1c0.3-0.7,0.6-1.3,0.8-2c0.2-0.6,0.3-1.1,0.4-1.6
	h-5.3c-0.2,0-0.4,0-0.5,0.1c-0.1,0.1-0.3,0.2-0.3,0.3c-0.1,0.1-0.2,0.3-0.2,0.4c0,0.2-0.1,0.3-0.1,0.4h-0.2V191H162.5z"/>
<path fill="#404041" stroke="#404041" stroke-width="0.5" stroke-miterlimit="10" d="M174,179.1v-0.2h1.6v-10.6
	c-0.4,0.2-0.7,0.4-1.1,0.6c-0.4,0.2-0.7,0.4-1.1,0.6l-0.1-0.2c0.4-0.2,0.8-0.4,1.1-0.6c0.3-0.2,0.6-0.4,0.9-0.5
	c0.3-0.2,0.6-0.4,0.8-0.6c0.3-0.2,0.6-0.5,0.9-0.8h0.7v12.1h1.6v0.2H174z"/>
<path fill="#404041" stroke="#404041" stroke-width="0.5" stroke-miterlimit="10" d="M181.9,175c0.1-0.3,0.3-0.6,0.6-0.8
	c0.2-0.2,0.5-0.5,0.9-0.6c0.3-0.2,0.7-0.4,1-0.6c-0.3-0.2-0.6-0.3-0.9-0.5c-0.3-0.2-0.5-0.4-0.7-0.6c-0.2-0.2-0.4-0.5-0.5-0.8
	c-0.1-0.3-0.2-0.7-0.2-1.1c0-0.5,0.1-0.9,0.3-1.3c0.2-0.4,0.5-0.7,0.8-1c0.3-0.3,0.7-0.5,1.2-0.7c0.5-0.2,1-0.2,1.5-0.2
	c0.4,0,0.9,0.1,1.2,0.2c0.4,0.1,0.7,0.3,1,0.5c0.3,0.2,0.5,0.5,0.7,0.8c0.2,0.3,0.3,0.6,0.3,1c0,0.6-0.2,1-0.6,1.5
	c-0.4,0.4-0.9,0.8-1.7,1.2c0.9,0.4,1.6,0.9,2.1,1.4c0.5,0.5,0.7,1.2,0.7,2c0,0.4-0.1,0.9-0.3,1.4c-0.2,0.5-0.5,0.9-0.8,1.3
	c-0.4,0.4-0.8,0.7-1.3,0.9c-0.5,0.2-1.1,0.4-1.7,0.4c-0.5,0-1-0.1-1.5-0.2c-0.5-0.2-0.9-0.4-1.2-0.6c-0.4-0.3-0.6-0.6-0.8-1
	c-0.2-0.4-0.3-0.8-0.3-1.3C181.7,175.7,181.8,175.3,181.9,175z M184.1,173.7c-0.1,0.2-0.3,0.5-0.3,0.8c-0.1,0.3-0.1,0.5-0.1,0.8
	c0,0.3,0,0.5,0,0.8c0,0.6,0.1,1,0.2,1.4c0.1,0.4,0.2,0.7,0.4,0.9c0.2,0.2,0.4,0.4,0.6,0.5c0.2,0.1,0.5,0.1,0.8,0.1
	c0.5,0,0.8-0.1,1.2-0.3c0.3-0.2,0.5-0.4,0.7-0.6s0.3-0.5,0.4-0.8c0.1-0.3,0.1-0.6,0.1-0.8c0-0.4,0-0.7-0.1-0.9
	c-0.1-0.3-0.2-0.5-0.3-0.7c-0.2-0.2-0.3-0.4-0.6-0.5c-0.2-0.2-0.5-0.3-0.8-0.5l-1.4-0.8C184.4,173.2,184.2,173.4,184.1,173.7z
	 M184,169.9c0.1,0.3,0.3,0.5,0.6,0.7c0.2,0.2,0.5,0.4,0.9,0.6c0.4,0.2,0.7,0.4,1.2,0.6c0.1-0.1,0.2-0.1,0.2-0.2
	c0.1-0.1,0.2-0.2,0.2-0.4c0.1-0.2,0.1-0.4,0.2-0.7c0-0.3,0.1-0.7,0.1-1.2c0-0.2,0-0.4,0-0.6c0-0.3-0.1-0.5-0.2-0.8
	c-0.1-0.3-0.3-0.5-0.5-0.7s-0.5-0.3-0.9-0.3c-0.3,0-0.5,0.1-0.8,0.2c-0.2,0.1-0.5,0.3-0.6,0.4c-0.2,0.2-0.3,0.4-0.4,0.7
	c-0.1,0.2-0.1,0.5-0.1,0.8C183.8,169.3,183.9,169.7,184,169.9z"/>
<path fill="#404041" stroke="#404041" stroke-width="0.5" stroke-miterlimit="10" d="M205.6,160.6v-0.2h1.6v-10.6
	c-0.4,0.2-0.7,0.4-1.1,0.6c-0.4,0.2-0.7,0.4-1.1,0.6l-0.1-0.2c0.4-0.2,0.8-0.4,1.1-0.6c0.3-0.2,0.6-0.4,0.9-0.5
	c0.3-0.2,0.6-0.4,0.8-0.6c0.3-0.2,0.6-0.5,0.9-0.8h0.7v12.1h1.6v0.2H205.6z"/>
<path fill="#404041" stroke="#404041" stroke-width="0.5" stroke-miterlimit="10" d="M281.4,371.8c0.2-0.5,0.5-0.9,0.9-1.2
	c0.4-0.4,0.8-0.6,1.3-0.8c0.5-0.2,1-0.3,1.5-0.3c0.6,0,1.2,0.1,1.7,0.4c0.5,0.2,1,0.6,1.4,1c0.4,0.5,0.7,1,0.9,1.7
	c0.2,0.7,0.3,1.4,0.3,2.3c0,1-0.1,1.9-0.3,2.8c-0.2,0.9-0.5,1.6-0.9,2.3c-0.4,0.7-0.9,1.2-1.5,1.6c-0.6,0.4-1.4,0.6-2.2,0.6
	c-0.6,0-1.1-0.1-1.4-0.2c-0.4-0.1-0.7-0.3-0.9-0.5c-0.2-0.2-0.3-0.4-0.4-0.6c-0.1-0.2-0.1-0.4-0.1-0.6c0-0.4,0.1-0.6,0.3-0.8
	c0.2-0.2,0.5-0.3,0.8-0.3c0.1,0,0.2,0,0.3,0c0.1,0,0.2,0,0.3,0.1c0.1,0.1,0.2,0.1,0.2,0.2c0.1,0.1,0.1,0.2,0.1,0.4
	c0,0.1,0,0.2,0,0.3c0,0.1,0,0.2-0.1,0.3c0,0.1,0,0.2-0.1,0.3c0,0.1,0,0.2,0,0.3c0,0.2,0,0.3,0.1,0.4c0.1,0.1,0.2,0.2,0.3,0.2
	c0.1,0.1,0.2,0.1,0.3,0.1c0.1,0,0.2,0,0.3,0c0.5,0,1-0.1,1.3-0.4c0.3-0.3,0.6-0.7,0.8-1.2c0.2-0.5,0.3-1.1,0.4-1.8
	c0.1-0.7,0.1-1.5,0.1-2.3h0c-0.1,0.1-0.2,0.2-0.3,0.3c-0.1,0.1-0.2,0.3-0.4,0.4c-0.2,0.1-0.4,0.2-0.6,0.3c-0.2,0.1-0.5,0.1-0.9,0.1
	c-0.5,0-1-0.1-1.5-0.3c-0.5-0.2-0.9-0.5-1.2-0.8c-0.4-0.3-0.6-0.8-0.8-1.2c-0.2-0.5-0.3-1-0.3-1.5
	C281.1,372.7,281.2,372.2,281.4,371.8z M283.8,376.1c0.3,0.5,0.7,0.8,1.3,0.8c0.5,0,0.9-0.1,1.3-0.4c0.4-0.3,0.6-0.7,0.7-1.1
	c0-0.1,0-0.3,0.1-0.5c0-0.3,0-0.5,0-0.8c0-1-0.1-1.9-0.2-2.4s-0.3-1-0.5-1.3c-0.2-0.3-0.4-0.4-0.6-0.5c-0.2-0.1-0.4-0.1-0.6-0.1
	c-0.2,0-0.5,0-0.7,0.1c-0.2,0.1-0.4,0.3-0.6,0.5c-0.2,0.3-0.3,0.7-0.4,1.2c-0.1,0.5-0.2,1.2-0.2,2.1
	C283.4,374.8,283.5,375.6,283.8,376.1z"/>
<circle fill="none" stroke="#3A3A3A" stroke-width="0.25" stroke-miterlimit="10" cx="249.7" cy="265.8" r="138.4"/>
<text transform="matrix(1 0 0 1 218.7357 319.4981)"><tspan x="0" y="0" fill="#231F20" font-family="'EdwardianScriptITC'" font-size="9">TB  </tspan><tspan x="15.9" y="0" fill="#231F20" font-family="'Didot-Bold'" font-size="9">SCALE CO.</tspan></text>
<rect x="82.1" y="446.5" fill="#A18F44" width="331.2" height="10.9"/>
<polygon fill="#D6BF5A" points="399.1,36.3 91.8,35.5 95.2,28.2 396.3,28.2 "/>
</svg>
