<svg xmlns="http://www.w3.org/2000/svg" viewBox="0 0 370.1 401" enable-background="new 0 0 370.1 401"><path fill="#F7F7EB" stroke="#232323" stroke-width="7.142" stroke-linecap="round" stroke-linejoin="round" stroke-miterlimit="10" d="M136.8 346.7s-14 7.1-46.8 6.5c-31.9-.6-46.3-6.5-46.3-6.5l-9.5-162.2h112.2l-9.6 162.2z"/><path stroke="#232323" stroke-width="14.238" stroke-linecap="square" stroke-linejoin="bevel" stroke-miterlimit="10" d="M150.2 179.9s-22.1 1.2-59.6 1.2C52 181 31 179.9 31 179.9l4.8-5.9-4.8-2.5s20.3-2.5 59.6-2.5c39.5 0 59.6 2.5 59.6 2.5l-6.4 2.9 6.4 5.5z" fill="none"/><path stroke="#232323" stroke-width="5.339" stroke-linecap="round" stroke-linejoin="round" stroke-miterlimit="10" fill="none" d="M58.1 164.7H35.8v-10.3l22.3-3.2z"/><path stroke="#000" stroke-width="3.559" stroke-linecap="round" stroke-linejoin="round" stroke-miterlimit="10" d="M27.3 153c-2.4-8.2 3.9-10 1.6-18.2-2.4-8.2-8.7-6.4-11-14.6-2.4-8.2 3.9-10 1.6-18.2s-8.7-6.4-11-14.6" fill="none" opacity=".19"/><path fill="#66CCD3" d="M136.3 237.7c-30.8 2.3-61.8 2.3-92.6 0-1.3-.1-2.4-1.3-2.4-2.6s1.1-2.3 2.4-2.2c30.8 2.3 61.8 2.3 92.6 0 1.3-.1 2.4.9 2.4 2.2 0 1.3-1.1 2.5-2.4 2.6zM135.2 250.9c-30 2.2-60.2 2.2-90.2 0-1.3-.1-2.4-1.2-2.4-2.6 0-1.3 1.1-2.3 2.4-2.2 30 2.2 60.2 2.2 90.2 0 1.3-.1 2.4.9 2.4 2.2 0 1.4-1 2.5-2.4 2.6zM134.2 264.2c-29.2 2.1-58.5 2.1-87.8 0-1.3-.1-2.4-1.2-2.4-2.6 0-1.3 1.1-2.3 2.4-2.2 29.2 2.1 58.5 2 87.8 0 1.3-.1 2.4.9 2.4 2.2 0 1.3-1.1 2.5-2.4 2.6zM133.1 277.4c-28.4 2-56.9 2-85.4.1-1.3-.1-2.4-1.2-2.4-2.6 0-1.3 1.1-2.3 2.4-2.2 28.4 1.9 56.9 1.9 85.4-.1 1.3-.1 2.4.9 2.4 2.2 0 1.4-1.1 2.5-2.4 2.6z"/><path stroke="#232323" stroke-width="8.8" stroke-linecap="round" stroke-linejoin="round" stroke-miterlimit="10" d="M30.5 170.2" fill="none"/><path fill="#fff" d="M353.8 281.3c0-5.9-.2-11.7-1.5-17.2-1.4-5.7-4.1-10.8-6.7-15.9-2.6-5.2-4.4-10.9-8.1-15.4-3.7-4.4-7.9-8.8-12.5-12.3s-10.5-5.1-15.7-7.5c-5.2-2.4-10.6-4.1-16.3-5.3-5.5-1.2-11.2-1.3-17.1-1.3-5.9 0-11.8-1.2-17.4-.1-5.7 1.2-10.8 4.5-15.9 6.8-5.3 2.4-11.5 3.6-16 7-4.6 3.5-8 8.6-11.7 13-3.7 4.4-5.4 10.1-8 15.2-2.6 5.1-5.5 10-6.9 15.6-1.3 5.5-2.8 11.1-2.8 17s2.1 11.4 3.4 16.9c1.4 5.7 3 11 5.5 16.1 2.6 5.2 5.1 10.4 8.8 14.8 3.7 4.4 9.1 6.9 13.7 10.4s8.2 8.4 13.5 10.8c5.2 2.4 11.2 2.2 17 3.4 5.5 1.2 11 2.2 16.9 2.2 5.9 0 11.9 1.4 17.4.2 5.7-1.2 10.3-5.6 15.5-8 5.3-2.4 10.9-3.9 15.5-7.4 4.6-3.5 9.8-6.6 13.5-11 3.7-4.4 7.2-9.4 9.8-14.6 2.6-5.1 4-11 5.3-16.7 1.1-4.9.8-10.8.8-16.7z"/><path fill="#DDD2B0" stroke="#232323" stroke-width="6.229" stroke-linecap="round" stroke-linejoin="round" stroke-miterlimit="10" d="M346.8 278.4c0 40.1-32.5 72.5-72.5 72.5s-72.5-32.5-72.5-72.5c0-8.6.8-14.7 3.5-22.3 2.2-6.1 16.4 19.4 30.8-5.5 9.5-16.5-11.8-24.8-7.1-28.8 12.7-10.8 27.3-15.9 45.3-15.9 40.1 0 72.5 32.5 72.5 72.5z"/><ellipse fill="#fff" stroke="#232323" stroke-width="6.229" stroke-linecap="round" stroke-linejoin="round" stroke-miterlimit="10" cx="273.9" cy="278.4" rx="24.6" ry="23.8"/><g stroke="#262626" stroke-width="3.394" stroke-linecap="round" stroke-linejoin="round" fill="none"><path d="M243.9 223.8c.3-.2.8-.2 1.2-.2"/><path stroke-dasharray="2.4813,14.8879" d="M258.1 227.3c2-3 3.1-9.7 5.7-10.1 3.2-.5 7.2 8.7 10.5 8.7 10.6 0 22.8-6.2 31.5-1.5 9 4.9 10.3 18.7 15.6 27.3 5.2 8.5 17 15.9 17 26.4 0 10.6-11.8 18-17 26.4-5.3 8.6-6.5 22.4-15.6 27.3-8.6 4.7-20.8-1.5-31.5-1.5-10.6 0-22.8 6.2-31.5 1.5-9-4.9-10.3-18.7-15.6-27.3-3.7-6.1-10.9-11.6-14.6-18.2"/><path d="M210.4 279.3c0-.4-.1-.8-.1-1.2"/></g><path stroke="#262626" stroke-width="3.175" stroke-linecap="round" stroke-linejoin="round" stroke-dasharray="3.0934,12.3736" d="M320.2 278.2c0 7.2-8 12.3-11.5 18.1-3.6 5.9-4.4 15.4-10.6 18.8-5.9 3.3-14.3-.9-21.5-.9-7.3 0-15.6 4.2-21.5.9-6.2-3.4-7-12.8-10.6-18.8-3.5-5.8-11.5-10.9-11.5-18.1 0-7.2 8-12.3 11.5-18.1 3.6-5.9 4.4-15.4 10.6-18.8 5.9-3.3 14.3.9 21.5.9 7.3 0 15.6-4.2 21.5-.9 6.2 3.4 7 12.8 10.6 18.8 3.5 5.8 11.5 10.9 11.5 18.1z" fill="none"/><path fill="#fff" d="M288.9 264.5c0 2.6 1.3 5 1.3 7.2 0 2.7 1 5.1.8 7.3-.2 2.7-2.1 4.7-2.7 6.8-.7 2.3-1.3 4.5-2.8 6.5-1.3 1.7-2.6 3.7-4.7 5.5-1.6 1.4-3.4 3.1-5.6 4.6"/><path stroke="#232323" stroke-width="5.339" stroke-linecap="round" stroke-linejoin="round" stroke-miterlimit="10" d="M288.9 264.5c0 2.6 1.3 5 1.3 7.2 0 2.7 1 5.1.8 7.3-.2 2.7-2.1 4.7-2.7 6.8-.7 2.3-1.3 4.5-2.8 6.5-1.3 1.7-2.6 3.7-4.7 5.5-1.6 1.4-3.4 3.1-5.6 4.6" fill="none"/><path stroke="#232323" stroke-width="5.339" stroke-miterlimit="10" d="M279.6 206.2c3.1-.8 6.1-1.3 9.2-1.5 3.2-.2 6.2-.1 9.3.3 3.1.4 5.8 1.9 8.8 3 3 1 6.2 1.2 8.9 2.8 2.7 1.5 5.1 3.6 7.6 5.5s4.9 3.8 7.2 6c2.2 2.2 5.1 3.9 7.1 6.4 1.9 2.5 2.1 6.2 3.7 8.9s4 4.9 5.3 7.8c1.3 2.8 1.6 6.1 2.7 9 1 3 3.9 5.4 4.6 8.5.7 3.1 2.2 6.2 2.6 9.3.4 3.1-.9 6.5-.9 9.6 0 3.1-2 6-2.4 9-.4 3.1.7 6.3 0 9.3-.8 3-1.9 5.9-3.1 8.7-1.2 2.9-3.2 5.2-4.7 7.8-1.5 2.7-2.4 5.7-4.3 8.1-1.9 2.4-4.2 4.4-6.4 6.6-2.2 2.1-3.5 5.4-6 7.3-2.4 1.8-5.1 3.7-7.8 5.2-2.6 1.5-6.3 1.2-9.2 2.3-2.8 1.1-6 1.1-9 1.9-2.9.8-5.5 2.9-8.6 3.4-3 .5-6 .9-9.1 1.2-3 .3-6.1.7-9.2.7" fill="none"/><path fill="#232323" d="M227.4 360.1h-.9c-.7 0-1.3-.6-1.3-1.3 0-.7.6-1.3 1.3-1.3h.9c.7 0 1.3.6 1.3 1.3 0 .7-.6 1.3-1.3 1.3zM213.8 361.4h-1.9c-.7 0-1.3-.6-1.3-1.3 0-.7.6-1.3 1.3-1.3h1.9c.7 0 1.3.6 1.3 1.3 0 .7-.6 1.3-1.3 1.3zm8.2-7.3h-1.9c-.7 0-1.3-.6-1.3-1.3 0-.7.6-1.3 1.3-1.3h1.9c.7 0 1.3.6 1.3 1.3 0 .7-.6 1.3-1.3 1.3zm32 7.3h-1.9c-.7 0-1.3-.6-1.3-1.3 0-.7.6-1.3 1.3-1.3h1.9c.7 0 1.3.6 1.3 1.3.1.7-.5 1.3-1.3 1.3zm-9.1-2.7H243c-.7 0-1.3-.6-1.3-1.3 0-.7.6-1.3 1.3-1.3h1.9c.7 0 1.3.6 1.3 1.3 0 .8-.6 1.3-1.3 1.3zm-7.9 6.4h-1.9c-.7 0-1.3-.6-1.3-1.3 0-.7.6-1.3 1.3-1.3h1.9c.7 0 1.3.6 1.3 1.3 0 .7-.6 1.3-1.3 1.3zM274.4 365.1h-.9c-.7 0-1.3-.6-1.3-1.3 0-.7.6-1.3 1.3-1.3h.9c.7 0 1.3.6 1.3 1.3 0 .7-.6 1.3-1.3 1.3z"/></svg>