<svg xmlns="http://www.w3.org/2000/svg" viewBox="0 0 112 138.5" enable-background="new 0 0 112 138.5"><path fill="#D6C965" stroke="#000" stroke-width="2" stroke-linecap="round" stroke-linejoin="round" stroke-miterlimit="10" d="M99.9 94.5l1.1 32.2s-45.1 2.8-90.2 0L12.1 95"/><path fill="#D6C965" stroke="#000" stroke-width="2" stroke-linecap="round" stroke-linejoin="round" stroke-miterlimit="10" d="M10.4 65.7h91.3v28.2H10.4z"/><path stroke="#000" stroke-width="2" stroke-linecap="round" stroke-linejoin="round" stroke-miterlimit="10" d="M44.1 64.9s-.6-3 0-3.8c1.9-2.6 9.4-2.8 12.7-2.8 3.2 0 10.7.2 12.7 2.8.6.8 0 3.8 0 3.8" fill="none"/><path stroke="#F7F7EB" stroke-width="3.632" stroke-miterlimit="10" fill="none" d="M37.3 115.3l-1.5 2.2-1.6-2.2V68.9h3.1zM78.8 115.3l-1.5 2.2-1.6-2.2V68.9h3.1z"/><path stroke="#000" stroke-width="1.471" stroke-linecap="round" stroke-linejoin="round" stroke-miterlimit="10" stroke-dasharray="0.7356,5.8848" fill="none" d="M77.3 77v33.6M35.8 77v33.6"/><path stroke="#232323" stroke-width="2" stroke-linecap="round" stroke-linejoin="round" stroke-miterlimit="10" fill="none" d="M32.5 86.5H39V101h-6.5zM74 86.5h6.5V101H74z"/></svg>