<?xml version="1.0" encoding="utf-8"?>
<!-- Generator: Adobe Illustrator 20.1.0, SVG Export Plug-In . SVG Version: 6.00 Build 0)  -->
<svg version="1.1" id="Layer_1" xmlns="http://www.w3.org/2000/svg" xmlns:xlink="http://www.w3.org/1999/xlink" x="0px" y="0px"
	 width="46.7px" height="43.3px" viewBox="0 0 46.7 43.3" style="enable-background:new 0 0 46.7 43.3;" xml:space="preserve">
<style type="text/css">
	.st0{fill:#383030;}
	.st1{fill:#E50C0C;}
	.st2{fill:#FFFFFF;}
	.st3{fill:#95FFFC;}
	.st4{fill:#3A2820;}
	.st5{fill:#E50D0B;}
	.st6{fill:none;stroke:#000000;stroke-miterlimit:10;}
	.st7{fill:#FD7675;}
	.st8{fill:#332E32;}
	.st9{fill:#FD7675;stroke:#FD7675;stroke-miterlimit:10;}
</style>
<g>
	<circle class="st9" cx="23.4" cy="22.3" r="19.4"/>
</g>
<g>
	<path class="st0" d="M21.3,26.2v-0.3c0.1-1.8,0.3-2.2,2-3.3c3-1.8,4.1-3,4.1-5.1c0-2-1.5-3.4-4.1-3.4c-2.2,0-3.7,1.1-3.7,2.9v0.3
		c0,0.4-0.2,0.7-0.6,0.7h-1.6c-0.3,0-0.6-0.2-0.7-0.5c-0.1-0.3-0.1-0.6-0.1-0.9c0-2.2,1.9-5.3,6.9-5.3c4.1,0,7.3,2.4,7.3,6.1
		c0,4.2-4.3,6.4-5.9,7.4c-0.3,0.3-0.6,0.5-0.6,1.1v0.3c0,0.3-0.2,0.5-0.6,0.5h-1.7C21.5,26.8,21.3,26.5,21.3,26.2z M20.4,31.7
		c0-1.3,1-2.4,2.4-2.4c1.3,0,2.4,1.1,2.4,2.4c0,1.3-1.1,2.3-2.4,2.3C21.4,34.1,20.4,33,20.4,31.7z"/>
</g>
</svg>
