<?xml version="1.0" encoding="utf-8"?>
<!-- Generator: Adobe Illustrator 20.1.0, SVG Export Plug-In . SVG Version: 6.00 Build 0)  -->
<svg version="1.1" id="Layer_1" xmlns="http://www.w3.org/2000/svg" xmlns:xlink="http://www.w3.org/1999/xlink" x="0px" y="0px"
	 width="46.7px" height="43.3px" viewBox="0 0 46.7 43.3" style="enable-background:new 0 0 46.7 43.3;" xml:space="preserve">
<style type="text/css">
	.st0{fill:#383030;}
	.st1{fill:#E50C0C;}
	.st2{fill:#FFFFFF;}
	.st3{fill:#95FFFC;}
	.st4{fill:#3A2820;}
	.st5{fill:#E50D0B;}
	.st6{fill:none;stroke:#000000;stroke-miterlimit:10;}
	.st7{fill:#FD7675;}
	.st8{fill:#332E32;}
</style>
<title>Untitled-6</title>
<path class="st0" d="M1233.5,2279.6l-3.5-0.6c4.5-23.8,25.3-41,49.5-40.9c1.8,0,44,0.5,49.7,40.6l-3.5,0.5
	c-5.3-37.2-44.6-37.6-46.2-37.6C1257,2241.4,1237.7,2257.4,1233.5,2279.6z"/>
<path class="st0" d="M1337.9,2280.8l-108.2-0.1l0.7-3.5l107.5,0.1c4.6,0,8.3-3.7,8.3-8.2v-0.2c0-4.6-3.7-8.3-8.3-8.2h-18.2v-3.5
	h18.2c6.5,0,11.8,5.3,11.8,11.8v0.2C1349.6,2275.5,1344.4,2280.8,1337.9,2280.8z"/>
<path class="st0" d="M1237.3,2295.3h-0.1c-4,0-7.4-3.2-7.4-7.2l-0.1-7.3h3.5l0.1,7.3c0.1,2.1,1.8,3.8,3.9,3.8h0.1
	c2.1,0,3.8-1.7,3.8-3.8v-7.6h3.5v7.6C1244.6,2292,1241.3,2295.3,1237.3,2295.3z"/>
<path class="st1" d="M1337.8,2257.1c-0.4-3.3-3.4-5.7-6.7-5.3c-2.8,0.3-4.9,2.5-5.3,5.3"/>
<path class="st1" d="M1339.7,2257.1h-3.9c0-2.2-1.8-4-4-4s-4,1.8-4,4h-4c0-4.4,3.6-7.9,7.9-7.9
	C1336.2,2249.2,1339.7,2252.8,1339.7,2257.1z"/>
<rect x="1333.4" y="2271.1" class="st0" width="14" height="3"/>
<ellipse class="st0" cx="1339.7" cy="2265.8" rx="1.9" ry="1.9"/>
<path class="st0" d="M1321.4,2295.1h-0.1c-4,0-7.3-3.2-7.3-7.2v-10.2h3.5v10.2c0,2.1,1.7,3.8,3.8,3.8h0.1c2.1,0,3.9-1.7,4-3.8v-8
	h3.5v8C1328.8,2291.9,1325.5,2295.2,1321.4,2295.1z"/>
<path class="st0" d="M1252.3,2289.4c-3.4,0-6.2-2.7-6.2-6.1c0,0,0,0,0,0v-5.6h3.5v5.6c0.1,1.5,1.4,2.6,2.8,2.5
	c1.3-0.1,2.4-1.2,2.5-2.5v-5.4h3.5v5.4C1258.4,2286.6,1255.7,2289.4,1252.3,2289.4z"/>
<path class="st1" d="M1339.6,2257.1h3.5c0.9,0,1.5-0.7,1.6-1.5c0,0,0,0,0,0l0,0c0-0.9-0.7-1.5-1.5-1.5c0,0,0,0,0,0h-5.5"/>
<path class="st1" d="M1246.9,2267.5h-1.8l-0.8,5.5h-2.1l0.8-5.5h-1.8l0.3-1.8h5.7L1246.9,2267.5z"/>
<path class="st1" d="M1254.9,2270.1c0,1-0.6,1.9-1.4,2.5c-0.6,0.4-1.4,0.6-2.1,0.5c-1.3,0-2.3-0.5-2.6-1.3c-0.1-0.3-0.1-0.5-0.1-0.8
	c0-0.3,0-0.6,0.1-0.9l0.7-4.5h2.1l-0.6,4.5c0,0.2,0,0.3-0.1,0.5c-0.1,0.4,0.2,0.7,0.6,0.8c0.1,0,0.2,0,0.3,0c0.7,0,1-0.3,1.2-1.3
	l0.7-4.5h2.1L1254.9,2270.1z"/>
<path class="st1" d="M1259.5,2273h-2.1l1.1-7.3h3.8c0.8-0.1,1.5,0.2,1.9,0.9c0.1,0.3,0.2,0.7,0.2,1c0,0.1,0,0.3,0,0.5
	c-0.1,1-0.8,1.8-1.7,2.1l1.2,2.9h-2.3l-0.9-2.6h-0.8L1259.5,2273z M1261.1,2268.9c0.8,0,1.2-0.2,1.3-0.9c0-0.1,0-0.2,0-0.2
	c0-0.5-0.3-0.7-1-0.7h-1l-0.3,1.8H1261.1z"/>
<path class="st1" d="M1272.1,2267.5h-1.8l-0.8,5.5h-2.1l0.8-5.5h-1.8l0.3-1.8h5.7L1272.1,2267.5z"/>
<path class="st1" d="M1278.3,2273h-4.8l1.1-7.3h2.1l-0.8,5.5h2.7L1278.3,2273z"/>
<path class="st1" d="M1287,2267.2h-3.2l-0.2,1h3.1l-0.2,1.6h-3.1l-0.2,1.5h3.6l-0.2,1.6h-5.7l1.1-7.3h5.3L1287,2267.2z"/>
<path class="st1" d="M1299.7,2268.3c-0.3-0.9-0.6-1.2-1.3-1.2l0,0c-0.9,0-1.6,0.8-1.8,2.2c0,0.2,0,0.4,0,0.6c-0.1,0.7,0.3,1.4,1,1.5
	c0.1,0,0.1,0,0.2,0c0.7,0,1.3-0.5,1.6-1.2l1.7,0.9c-0.3,0.4-0.6,0.8-1,1.2c-0.7,0.6-1.6,0.9-2.5,0.9c-1.6,0.1-3-1-3.1-2.6
	c0-0.1,0-0.3,0-0.4c0-0.3,0-0.5,0.1-0.8c0.2-2.2,2-3.9,4.2-4c0.8-0.1,1.6,0.3,2.2,0.9c0.3,0.3,0.6,0.7,0.7,1.2L1299.7,2268.3z"/>
<path class="st1" d="M1305.3,2271.9l-0.4,1h-2.3l3.7-7.3h2.4l1.5,7.3h-2.3l-0.1-1C1307.7,2271.9,1305.3,2271.9,1305.3,2271.9z
	 M1307.2,2267.4l-1.2,3h1.6L1307.2,2267.4z"/>
<path class="st1" d="M1314.4,2273h-2.1l1.1-7.3h4c1-0.2,1.9,0.5,2.1,1.5c0,0.1,0,0.3,0,0.4c0,0.2,0,0.3,0,0.5
	c-0.1,1.5-1.3,2.6-2.8,2.5h-1.9L1314.4,2273z M1316,2269.1c0.6,0.1,1.1-0.2,1.3-0.8c0-0.1,0-0.1,0-0.2c0-0.1,0-0.2,0-0.2
	c0-0.5-0.3-0.7-1-0.7h-1l-0.3,1.9L1316,2269.1L1316,2269.1z"/>
<path class="st0" d="M1307.2,2290.7c-3.4,0-6.2-2.7-6.2-6.1c0,0,0,0,0,0v-5.6h3.5v5.6c0.1,1.5,1.4,2.6,2.8,2.5
	c1.3-0.1,2.4-1.2,2.5-2.5v-5.4h3.5v5.4C1313.3,2288,1310.6,2290.7,1307.2,2290.7z"/>
<path class="st2" d="M1269.5,2250.8L1269.5,2250.8v0.4v0l0,0l0,0h-0.7h-0.2h-0.3h-0.1h-0.3h-0.4h-0.3h-0.1h-0.5h-0.2l0,0l0,0v-0.4
	v-0.3v-0.5v-0.3v-0.8v-0.3v-0.1v-0.3v-0.5v-0.3v-0.1l0,0l0,0h0.1h0.3h0.4h0.3h0.1h0.3h0.9h0.2h0.1h0.1l0,0v0.9l0,0l0,0h-1.4h-0.2
	h-0.2l0,0v0.5l0,0h0.1h0.8h0.6h0.2l0,0l0,0v0.8l0,0l0,0h-0.2h-0.2h-0.1h-0.4h-0.4h-0.2h-0.2l0,0l0,0v0.1v0.1v0.3l0,0l0,0h0.4h0.3
	h0.4h0.1h0.4h0.1h0.2l0,0l0,0v0.4L1269.5,2250.8z"/>
<path class="st2" d="M1273.5,2250v0.2v0.1v0.1v0.1v0.1v0.1l-0.1,0.1l0,0.1l-0.1,0.1l-0.1,0.1l-0.1,0.1h-0.1l-0.2,0.1h-0.1h-0.1
	l-0.2,0.1h-0.1h-0.1h-0.4h-0.2h-0.4h-0.1h-0.1h-0.1h-0.1l-0.1-0.1h-0.1h-0.1l-0.2-0.1l-0.1-0.1l-0.1-0.1l-0.1,0l-0.1-0.1l0,0l0,0
	l0,0l0,0l0.1-0.1l0.2-0.1v-0.1l0.1-0.4v-0.1l0.1-0.1h0.1h0.2h0.1l0.1,0.1h0.1h0.1l0.1,0.1h0.1h0.1h0.1h0.2h0.3h0.1h0.1h0.1l0.1-0.1
	l0,0v-0.1v-0.1v-0.1l0,0l-0.1,0l0,0h-0.1h-0.1h-0.1h-0.5h-0.2h-0.1h-0.1h-0.1h-0.1l-0.2-0.4h-0.1h-0.1h-0.1l-0.1-0.1v-0.1v-0.1v-0.1
	v-0.1v-0.1v-0.1v-0.5v-0.1v-0.1v-0.1l0.1-0.1v-0.1v-0.1l0-0.1l0.1-0.1l0.1,0h0.1h0.1l0.1-0.1l0.2-0.1h0.1h0.1h0.1h0.2h0.1h0.2h0.2
	h0.2h0.2h0.1h0.1h0.1h0.1h0.1h0.1l0.1,0.1h0.1h0.1l0,0v0.2v0.1l-0.1,0.1v0.1l-0.2,0.3l-0.2,0.1l-0.1,0l0,0l0,0h0h-0.1h-0.1l0,0h-0.1
	l0,0h-0.1h-0.1h-0.6h-0.1h-0.1l0,0h-0.1l0,0v0.1v0.1v0.1v0.1l0.1,0.1h0.1l0,0h0.1h0.1h0.2h0.1h0.2l0.2,0.1h0.1h0.1l0.1,0.1h0.1h0.1
	h0.1h0.1l0.2,0.1l0,0.4l0,0.1l0.1,0.1v0.1v0.1v0.1v0.1v0.2H1273.5z"/>
<path class="st2" d="M1277.1,2247.8v0.4l0,0l0,0h-0.2h-0.2h0h-0.2h-0.3h-0.1l0,0v0.1v0.3v0.1v0.3v0.1v0.3v1.4v0.2v0.1v0.1l0,0h-0.2
	h-0.1h-0.1h-0.2h-0.1h-0.2h-0.1l0,0v-0.1v-0.2v-1.3v-0.3v-0.9l0,0h-1l0,0l0,0v-0.5v-0.2v-0.1v-0.1l0,0l0,0h0.2h0.2h0.1h0.3h0.1h0.3
	h0.1h0.4h1.5l0,0l0,0L1277.1,2247.8L1277.1,2247.8z"/>
<path class="st2" d="M1282.4,2251v0.1v0.1l0,0l0,0l0,0h-1.4h-0.5h-0.2h-0.1l0,0v-0.4v-0.2v-0.1v-0.1h0.1h0.2h0.3l0,0l0,0v-0.5v-0.3
	v-0.9l0,0l0,0l0,0l-0.2,0.1h-0.1h-0.2l0,0l0,0v-0.8l0,0l0,0h0.1l0,0h0.1h0.2h0.1l0.3-0.1h0.1l0.3-0.1h0.1l0.1-0.1h0.1h0.1h0.1h0l0,0
	v0.1v1.3v0.3v-0.2v0.3v0.1v0.3v0.1v0.3v0.1l0,0l0,0h0.6l0,0v0.5L1282.4,2251z"/>
<path class="st2" d="M1286.4,2249.1v0.4v0.6v0.1v0.1v0.1v0.1v0.1l-0.1,0.1l-0.1,0.1l-0.1,0.1l-0.1,0.1l-0.3,0h-0.1h-0.1h-0.1
	l-0.1,0.2h-0.1h-0.1h-0.1h-0.2h-0.1h-0.2h-0.1h-0.3h-0.2h-0.1h-0.1h-0.1h-0.1h-0.1h-0.1h-0.1h-0.1h-0.1l-0.1-0.1l-0.1-0.1l0,0v-0.1
	l-0.1-0.1v-0.1v-0.1v-0.2v-0.3l0,0l0,0h0.2h0.2h0.3h0.1l0,0v0.1l0,0v0.1l0,0h0.1h0.1h0.1h0.4h0.1h0.1h0.1l0.1-0.1l0.1-0.1v-0.1v-0.1
	v-0.1v-0.1v-0.1l0,0l0,0l0,0h-0.1h-0.1h-0.1h-0.1h-0.8h-0.1h-0.1h-0.1l-0.1-0.1h-0.1l-0.1-0.1l-0.1-0.1l-0.1-0.1v-0.1l-0.1-0.1v-0.1
	l0-0.2v-0.1v-0.1v-0.2v-0.2v-0.1v-0.1v-0.1v-0.1v-0.1l0.1-0.1v-0.1l0.1-0.1l0.1-0.1l0.1-0.1l0.1-0.1h0.1h0.1l0.1-0.1h0.1h0.1h0.2
	h0.2h0.6h0.1h0.1l0.2,0.1h0.1h0.1h0.1l0.2,0.1h0.1l0.1,0.1l0.1,0.1l0.1,0.1l0.1,0.1v0.1v0.1l0.1,0.1v0.1v0.1v0.1v0.8H1286.4z
	 M1285.3,2248.7v-0.2v-0.1v-0.1v0l0,0h-0.1h-0.1l0,0h-0.1h-0.1h-0.5h-0.1l0,0h-0.1l-0.1,0.1v0.1l0,0v0.1v0.1v0.1v0.1v0.1l0.1,0.1
	h0.1l0.1,0.1h0.1h0.1h0.1h0.2h0.1h0.1h0.1l0.1-0.1v-0.1l0,0v-0.1l0,0L1285.3,2248.7z"/>
<path class="st2" d="M1290.5,2250.3v0.1v0.1l0,0h-0.1h-0.2l0,0h-0.1v0.1v0.1v0.2v0.3v0.1v0.1h-0.1h-0.3h-0.3h-0.4l0,0v-0.1v-0.5
	v-0.1l0,0h-0.2h-0.3h-0.1h-0.8h-0.1h-0.2h-0.2h-0.1l0,0v-0.1l-0.1-0.3v-0.1v-0.3v-0.1l0,0l0,0l0.2-0.2l0-0.1l0.2-0.2l0.1-0.1
	l0.2-0.2l0.1-0.1l0.2-0.2l0-0.1l0.2-0.2l0.1-0.2l0.2-0.2l0.1-0.1l0.1-0.1l0-0.1v-0.1l0.1,0l0.2-0.2l0,0l0,0h0.4h0.3h0.2l0,0l0,0v0.1
	v0.3v1.3v0.3v0.1v0.1h0.1h0.2h0.1l0,0v0.1v0.5L1290.5,2250.3z M1288.7,2249.7h0.4l0,0v-0.1v-0.1v-0.3v-0.4l0,0l0,0l0,0l-0.2,0.2
	l-0.1,0.1l-0.2,0.2l-0.1,0.1l-0.2,0.2l0,0l0,0l0,0h0.1h0.2L1288.7,2249.7z"/>
<path class="st2" d="M1294.7,2250v0.3v0.1v0.1v0.1v0.1l-0.1,0.1v0.1l-0.1,0.1h-0.1l-0.1,0.1h-0.1h-0.1h-0.1h-0.1h-0.1h-0.1h-0.1
	h-0.2h-0.9h-0.3h-0.1h-0.1h-0.1h-0.1l-0.1,0.1h-0.1l-0.1-0.1l-0.1-0.1l-0.1-0.1l0-0.1l-0.1-0.1v-0.1l0-0.1v-0.1v-0.1v-0.3v-0.1v-0.1
	l0.1-0.1v-0.1v-0.1v-0.1l0.1-0.1h0.1l0.1-0.1l0,0l0,0v0l-0.1-0.1l-0.1-0.1v-0.1v-0.1v-0.1v-0.1v-0.1v-0.5v-0.1v-0.1v-0.1v-0.1
	l0.1-0.1l0.1-0.1l0.1-0.1l0.1-0.1l0.1-0.1h0.1l0,0h0.1l0,0h0.1h0.1h0.1h0.1h0.1h0.7h0.2h0.1l0.4-0.1h0.1h0.1h0.1l0.1,0.1h0.1
	l0.1,0.1l0.1,0.1l0.1,0.1v0.1v0.1v0.1v0.1v0.4v0.1v0.1v0.1l-0.1,0.1l-0.1,0.1l0,0.3v0.1l0,0l0,0l0,0l0.1,0.1l0.1,0.1l0.1,0.1v0.1
	v0.1v0.1L1294.7,2250z M1293.3,2250.4L1293.3,2250.4L1293.3,2250.4l0.2-0.1l0,0v-0.1v-0.3v-0.1l0,0l-0.1-0.1l0,0h-0.1h-0.1h-0.1
	h-0.1h-0.3h-0.1h-0.1l0,0l-0.1,0.1l0,0v0.1v0.1v0.1v0.1l0,0l0.1,0.1l0.1,0.1h0.1h0.1h0.1h0.3L1293.3,2250.4L1293.3,2250.4z
	 M1292.6,2248.3L1292.6,2248.3L1292.6,2248.3v0.1v0.1v0.1l0,0l0.1,0.1l0,0h0.1l0,0h0.1h0.1h0.2h0.1h0.1l0,0v-0.1l0,0v-0.1v-0.1v0
	v-0.1v-0.1l-0.1-0.1h-0.1h-0.1h-0.1h-0.1h-0.1h-0.1L1292.6,2248.3L1292.6,2248.3z"/>
<path class="st0" d="M1321.7,2260.6c-10.8-18.4-35-21.8-42.4-21.8c-18.1,0-32.6,8.7-40.7,21.8"/>
<path class="st2" d="M1265.2,2249.6h-2.1l-0.1,0.7h1.9l-0.1,1h-2l-0.1,0.9h2.3l-0.2,1h-3.6l0.7-4.7h3.4L1265.2,2249.6z"/>
<path class="st2" d="M1270.2,2250c-0.2-0.3-0.6-0.5-1-0.4c-0.3-0.1-0.5,0.1-0.6,0.3v0.1c0,0.2,0.1,0.2,0.6,0.3
	c0.3,0,0.6,0.1,0.9,0.3c0.2,0.1,0.3,0.2,0.5,0.3c0.2,0.2,0.3,0.4,0.3,0.7c0,0.1,0,0.2,0,0.2c-0.2,1.1-1.2,1.8-2.3,1.7
	c-0.4,0-0.8-0.1-1.1-0.2c-0.2-0.1-0.4-0.2-0.5-0.3c-0.2-0.1-0.3-0.3-0.4-0.5l1.2-0.6c0.2,0.4,0.7,0.6,1.1,0.6
	c0.3,0.1,0.6-0.1,0.8-0.4v-0.1c0-0.2-0.1-0.2-0.6-0.3l-0.4-0.1c-0.4,0-0.8-0.2-1.1-0.4c-0.2-0.2-0.3-0.5-0.3-0.7c0-0.1,0-0.2,0-0.2
	c0.2-1,1.1-1.7,2.1-1.6c0.5,0,1,0.1,1.4,0.4c0.2,0.1,0.3,0.3,0.4,0.5L1270.2,2250z"/>
<path class="st2" d="M1275.9,2249.8h-1.1l-0.5,3.5h-1.3l0.5-3.5h-1.1l0.2-1.2h3.6L1275.9,2249.8z"/>
<path class="st2" d="M1281.3,2253.3l0.4-2.9c-0.2,0.1-0.5,0.1-0.8,0.1h-0.2l0.2-1c0.5,0.1,1-0.2,1.2-0.6h1.1l-0.7,4.5
	C1282.5,2253.3,1281.3,2253.3,1281.3,2253.3z"/>
<path class="st2" d="M1286.4,2252.1c0,0.2,0.1,0.4,0.4,0.5c0,0,0.1,0,0.1,0c0.4,0,0.7-0.3,0.9-0.7c0.1-0.2,0.1-0.4,0.2-0.6
	c-0.3,0.3-0.8,0.5-1.2,0.5c-0.7,0-1.2-0.5-1.3-1.2c0,0,0-0.1,0-0.1c0-1.1,0.9-1.9,1.9-1.9c0.1,0,0.1,0,0.2,0
	c0.8-0.1,1.6,0.5,1.6,1.4c0,0.1,0,0.2,0,0.4c0,2.2-1.3,3.1-2.5,3.1c-0.7,0.1-1.3-0.3-1.4-1c0,0,0-0.1,0-0.1L1286.4,2252.1z
	 M1287.2,2250.9c0.4,0,0.8-0.4,0.7-0.8c0,0,0,0,0-0.1c0-0.3-0.2-0.5-0.4-0.5c0,0-0.1,0-0.1,0c-0.4,0-0.8,0.4-0.8,0.8c0,0,0,0,0,0
	C1286.6,2250.6,1286.8,2250.8,1287.2,2250.9C1287.1,2250.9,1287.1,2250.9,1287.2,2250.9z"/>
<path class="st2" d="M1293.6,2253.3h-1.2l0.1-0.9h-2.1l0.1-0.9l2.4-2.7h1.2l-0.4,2.7h0.6l-0.1,0.9h-0.6L1293.6,2253.3z M1292.9,2250
	l-1.3,1.4h1.1L1292.9,2250z"/>
<path class="st2" d="M1299.7,2251.8c0,0.6-0.4,1.6-2.1,1.6c-1.1,0-1.7-0.4-1.7-1.2c0-0.6,0.3-1.2,0.9-1.4c-0.2-0.2-0.4-0.4-0.4-0.7
	c0-0.9,0.8-1.6,1.6-1.6c0.1,0,0.1,0,0.2,0c0.9,0,1.5,0.4,1.5,1.1c0,0.5-0.3,1-0.7,1.2C1299.5,2251,1299.7,2251.4,1299.7,2251.8z
	 M1298.5,2251.8c0-0.3-0.2-0.5-0.5-0.5c0,0-0.1,0-0.1,0c-0.4,0-0.7,0.2-0.7,0.6c0,0,0,0.1,0,0.1c0,0.3,0.2,0.5,0.5,0.5
	c0,0,0,0,0.1,0c0.4,0,0.7-0.2,0.7-0.6C1298.5,2251.9,1298.5,2251.9,1298.5,2251.8L1298.5,2251.8z M1298.2,2249.4
	c-0.3,0-0.6,0.2-0.6,0.6c0,0,0,0,0,0c0,0.2,0.2,0.4,0.4,0.4c0,0,0,0,0.1,0c0.3,0,0.6-0.2,0.6-0.5c0,0,0,0,0,0
	C1298.7,2249.6,1298.5,2249.4,1298.2,2249.4C1298.2,2249.5,1298.2,2249.5,1298.2,2249.4L1298.2,2249.4z"/>
<image style="overflow:visible;" width="1590" height="1276" xlink:href="../../../Desktop/Screen Shot 2017-03-04 at 2.04.04 PM.png"  transform="matrix(0.5 0 0 0.5 1432.2267 1952.15)">
</image>
<rect x="1759.7" y="1962" class="st3" width="142" height="67.6"/>
<path class="st0" d="M1780.8,1888.8l-3,0.4c-0.1-0.6-0.2-1.1-0.3-1.6c-5.5-30.4-38.1-30.8-39.5-30.8c-18.7-0.1-34.8,12.7-39.2,30.7
	c-0.2,0.7-0.3,1.4-0.4,2.1l-3-0.6c0.1-0.5,0.2-1,0.3-1.5c4.4-19.7,22-33.7,42.3-33.7c1.2,0,23.2,0.2,35.4,16.4c0.7,0.9,1.4,2,2,3
	c2.4,3.9,4.2,8.7,5.1,14.3C1780.7,1888,1780.7,1888.4,1780.8,1888.8z"/>
<path class="st2" d="M1777.6,1887.6l-78.7-0.1c4.4-17.9,20.5-30.7,39.2-30.7C1739.5,1856.8,1772.1,1857.2,1777.6,1887.6z"/>
<path class="st0" d="M1798.3,1880.3v0.2c0,5.6-4.6,10.1-10.1,10.1l-68.3-0.1h-3l-4.6,0h-3l-14.1,0l0.6-3h3.1l78.7,0.1h3.1l7.6,0
	c3.9,0,7.1-3.2,7.1-7.1v-0.2c0-3.9-3.2-7.1-7.1-7.1h-15.7v-3h15.7C1793.8,1870.2,1798.3,1874.7,1798.3,1880.3z"/>
<path class="st0" d="M1701.7,1903L1701.7,1903c-3.6,0-6.4-2.8-6.5-6.2l-0.1-6.3h3l0.1,6.3c0.1,1.8,1.5,3.2,3.4,3.2h0.1
	c1.8,0,3.2-1.4,3.3-3.2v-6.5h3v6.5C1707.9,1900.3,1705.1,1903,1701.7,1903z"/>
<path class="st1" d="M1788.1,1870.3c-0.3-2.8-2.9-4.9-5.7-4.5c-2.4,0.3-4.3,2.2-4.5,4.5"/>
<path class="st1" d="M1789.8,1870.3h-3.3c0-1.9-1.5-3.4-3.4-3.4s-3.4,1.5-3.4,3.4h-3.4c0-3.8,3.1-6.8,6.8-6.8
	C1786.7,1863.4,1789.8,1866.5,1789.8,1870.3z"/>
<rect x="1784.3" y="1882.3" class="st0" width="12" height="2.6"/>
<ellipse class="st0" cx="1789.8" cy="1877.7" rx="1.7" ry="1.7"/>
<path class="st0" d="M1774,1902.9L1774,1902.9c-3.5,0-6.3-2.8-6.4-6.2v-8.8h3v8.8c0,1.8,1.5,3.2,3.3,3.2h0.1c1.8,0,3.3-1.4,3.4-3.2
	v-6.9h3v6.9C1780.4,1900.2,1777.5,1903,1774,1902.9z"/>
<path class="st0" d="M1714.6,1898c-2.9,0-5.3-2.3-5.3-5.2c0,0,0,0,0,0v-4.8h3v4.8c0.1,1.3,1.2,2.2,2.4,2.2c1.2-0.1,2.1-1,2.2-2.2
	v-4.6h3v4.6C1719.9,1895.6,1717.5,1898,1714.6,1898z"/>
<path class="st1" d="M1789.7,1870.3h3.1c0.7,0,1.3-0.6,1.3-1.3c0,0,0,0,0,0l0,0c0-0.7-0.6-1.3-1.3-1.3c0,0,0,0,0,0h-4.7"/>
<path class="st4" d="M1710,1879.1h-1.5l-0.7,4.7h-1.8l0.7-4.7h-1.5l0.2-1.6h4.9L1710,1879.1z"/>
<path class="st4" d="M1716.8,1881.4c0,0.9-0.5,1.7-1.2,2.2c-0.6,0.3-1.2,0.5-1.8,0.5c-1.2,0-2-0.4-2.2-1.2c-0.1-0.2-0.1-0.5-0.1-0.7
	c0-0.3,0-0.5,0.1-0.7l0.6-3.9h1.8l-0.6,3.9c0,0.1,0,0.3,0,0.4c-0.1,0.3,0.2,0.6,0.5,0.7c0.1,0,0.2,0,0.2,0c0.6,0,0.9-0.3,1-1.1
	l0.6-3.9h1.8L1716.8,1881.4z"/>
<path class="st4" d="M1720.8,1883.9h-1.8l0.9-6.3h3.3c0.7-0.1,1.3,0.2,1.7,0.8c0.1,0.3,0.2,0.6,0.2,0.9c0,0.1,0,0.3,0,0.4
	c-0.1,0.9-0.7,1.6-1.5,1.8l1,2.5h-2l-0.8-2.2h-0.7L1720.8,1883.9z M1722.2,1880.4c0.7,0,1-0.2,1.1-0.8c0-0.1,0-0.1,0-0.2
	c0-0.4-0.3-0.6-0.9-0.6h-0.9l-0.2,1.5H1722.2z"/>
<path class="st4" d="M1731.6,1879.1h-1.5l-0.7,4.7h-1.8l0.7-4.7h-1.5l0.2-1.6h4.9L1731.6,1879.1z"/>
<path class="st4" d="M1737,1883.9h-4.1l0.9-6.3h1.8l-0.7,4.7h2.3L1737,1883.9z"/>
<path class="st4" d="M1744.5,1879h-2.8l-0.1,0.9h2.6l-0.2,1.4h-2.6l-0.2,1.3h3.1l-0.2,1.4h-4.9l0.9-6.3h4.6L1744.5,1879z"/>
<path class="st4" d="M1755.4,1879.9c-0.3-0.7-0.5-1-1.1-1l0,0c-0.8,0-1.4,0.7-1.5,1.8c0,0.2,0,0.3,0,0.5c-0.1,0.6,0.3,1.2,0.9,1.3
	c0.1,0,0.1,0,0.2,0c0.6,0,1.2-0.4,1.3-1l1.4,0.8c-0.2,0.4-0.5,0.7-0.9,1c-0.6,0.5-1.4,0.8-2.2,0.7c-1.4,0.1-2.6-0.9-2.7-2.3
	c0-0.1,0-0.3,0-0.4c0-0.2,0-0.4,0-0.6c0.2-1.9,1.7-3.4,3.6-3.4c0.7,0,1.4,0.2,1.9,0.7c0.3,0.3,0.5,0.6,0.6,1L1755.4,1879.9z"/>
<path class="st4" d="M1760.2,1883l-0.4,0.9h-2l3.1-6.3h2.1l1.3,6.3h-2l-0.1-0.9C1762.3,1883,1760.2,1883,1760.2,1883z M1761.8,1879
	l-1.1,2.5h1.4L1761.8,1879z"/>
<path class="st4" d="M1768,1883.9h-1.8l0.9-6.3h3.4c0.8-0.1,1.6,0.4,1.8,1.3c0,0.1,0,0.2,0,0.4c0,0.1,0,0.3,0,0.4
	c-0.1,1.2-1.1,2.2-2.4,2.2h-1.6L1768,1883.9z M1769.4,1880.5c0.5,0.1,1-0.2,1.1-0.7c0-0.1,0-0.1,0-0.2c0-0.1,0-0.1,0-0.2
	c0-0.4-0.3-0.6-0.9-0.6h-0.9l-0.2,1.7L1769.4,1880.5L1769.4,1880.5z"/>
<path class="st0" d="M1761.8,1899.2c-2.9,0-5.3-2.3-5.3-5.2c0,0,0,0,0,0v-4.8h3v4.8c0.1,1.3,1.2,2.2,2.4,2.2c1.2-0.1,2.1-1,2.2-2.2
	v-4.6h3v4.6C1767.1,1896.8,1764.7,1899.2,1761.8,1899.2z"/>
<path class="st2" d="M1729.4,1864.8L1729.4,1864.8v0.3v0l0,0l0,0h-0.6h-0.1h-0.2h-0.1h-0.2h-0.4h-0.2h-0.1h-0.4h-0.2l0,0l0,0v-0.3
	v-0.2v-0.4v-0.2v-0.7v-0.2v-0.1v-0.2v-0.4v-0.2v-0.1l0,0l0,0h0.1h0.3h0.3h0.3h0.1h0.3h0.8h0.2h0.1h0.1l0,0v0.7l0,0l0,0h-1.2h-0.2
	h-0.2l0,0v0.4l0,0h0.1h0.7h0.5h0.2l0,0l0,0v0.7l0,0l0,0h-0.1h-0.2h-0.1h-0.4h-0.4h-0.2h-0.1l0,0l0,0v0.1v0.1v0.2l0,0l0,0h0.4h0.2
	h0.3h0.1h0.3h0.1h0.2l0,0l0,0v0.4L1729.4,1864.8z"/>
<path class="st2" d="M1732.8,1864.2v0.2v0.1v0.1v0.1v0.1v0.1l-0.1,0.1l0,0.1l-0.1,0.1l-0.1,0.1l-0.1,0.1h-0.1l-0.2,0.1h-0.1h-0.1
	l-0.1,0h-0.1h-0.1h-0.3h-0.2h-0.3h-0.1h-0.1h-0.1h-0.1l-0.1,0h-0.1h-0.1l-0.1-0.1l-0.1,0l-0.1-0.1l-0.1,0l-0.1-0.1l0,0l0,0l0,0l0,0
	l0-0.1l0.1-0.1v-0.1l0.1-0.3v-0.1l0-0.1h0.1h0.1h0.1l0.1,0.1h0.1h0.1l0.1,0.1h0.1h0.1h0.1h0.2h0.3h0.1h0.1h0.1l0,0l0,0v-0.1v-0.1
	v-0.1l0,0l-0.1,0l0,0h-0.1h-0.1h-0.1h-0.4h-0.1h-0.1h-0.1h-0.1h-0.1l-0.2-0.4h-0.1h-0.1h-0.1l-0.1-0.1v-0.1v-0.1v-0.1v-0.1v-0.1
	v-0.1v-0.5v-0.1v-0.1v-0.1l0-0.1v-0.1v-0.1l0-0.1l0.1-0.1l0.1,0h0.1h0.1l0.1-0.1l0.1-0.1h0.1h0.1h0.1h0.1h0.1h0.2h0.1h0.2h0.2h0.1
	h0.1h0.1h0.1h0.1h0.1l0.1,0.1h0.1h0.1l0,0v0.2v0.1l-0.1,0.1v0.1l-0.2,0.2l-0.1,0.1l-0.1,0l0,0l0,0h0h-0.1h-0.1l0,0h-0.1l0,0h-0.1
	h-0.1h-0.5h-0.1h-0.1l0,0h-0.1l0,0v0.1v0.1v0.1v0.1l0.1,0h0.1l0,0h0.1h0.1h0.2h0.1h0.2l0.1,0h0.1h0.1l0.1,0h0.1h0.1h0.1h0.1l0.1,0.1
	l0,0.3l0,0.1l0.1,0.1v0.1v0.1v0.1v0.1v0.1H1732.8z"/>
<path class="st2" d="M1735.9,1862.2v0.4l0,0l0,0h-0.2h-0.1h0h-0.2h-0.3h0l0,0v0.1v0.3v0.1v0.3v0.1v0.3v1.2v0.2v0.1v0.1l0,0h-0.2
	h-0.1h-0.1h-0.2h-0.1h-0.2h-0.1l0,0v-0.1v-0.2v-1.1v-0.3v-0.8l0,0h-0.9l0,0l0,0v-0.5v-0.2v-0.1v-0.1l0,0l0,0h0.1h0.2h0.1h0.3h0.1
	h0.3h0.1h0.3h1.3l0,0l0,0L1735.9,1862.2L1735.9,1862.2z"/>
<path class="st2" d="M1740.5,1865L1740.5,1865v0.2l0,0l0,0l0,0h-1.2h-0.4h-0.2h-0.1l0,0v-0.4v-0.1v-0.1v-0.1h0.1h0.2h0.2l0,0l0,0
	v-0.5v-0.3v-0.8l0,0l0,0l0,0l-0.2,0.1h-0.1h-0.2l0,0l0,0v-0.7l0,0l0,0h0l0,0h0.1h0.1h0.1l0.2-0.1h0.1l0.2-0.1h0.1l0.1-0.1h0.1h0.1
	h0.1h0l0,0v0.1v1.1v0.3v-0.2v0.3v0.1v0.3v0.1v0.3v0l0,0l0,0h0.5l0,0v0.5L1740.5,1865z"/>
<path class="st2" d="M1743.9,1863.4v0.3v0.6v0.1v0.1v0.1v0.1v0.1l-0.1,0.1l0,0.1l-0.1,0.1l-0.1,0.1l-0.3,0h-0.1h-0.1h-0.1l-0.1,0.1
	h-0.1h-0.1h-0.1h-0.1h-0.1h-0.2h-0.1h-0.2h-0.2h-0.1h-0.1h-0.1h-0.1h-0.1h-0.1h-0.1h-0.1h-0.1l-0.1-0.1l-0.1-0.1l0,0v-0.1l-0.1-0.1
	v-0.1v-0.1v-0.1v-0.3l0,0l0,0h0.2h0.2h0.3h0.1l0,0v0.1l0,0v0.1l0,0h0.1h0.1h0.1h0.3h0.1h0.1h0.1l0.1-0.1l0.1-0.1v-0.1v-0.1v-0.1
	v-0.1v-0.1l0,0l0,0l0,0h-0.1h-0.1h-0.1h-0.1h-0.7h-0.1h-0.1h-0.1l-0.1-0.1h-0.1l-0.1-0.1l-0.1,0l-0.1-0.1v-0.1l-0.1-0.1v-0.1l0-0.1
	v-0.1v-0.1v-0.2v-0.1v-0.1v-0.1v-0.1v-0.1v-0.1l0.1-0.1v-0.1l0.1-0.1l0.1-0.1l0.1-0.1l0.1,0h0.1h0.1l0.1,0h0.1h0.1h0.2h0.1h0.5h0.1
	h0.1l0.2,0h0.1h0.1h0.1l0.2,0h0.1l0.1,0.1l0.1,0l0.1,0.1l0,0.1v0.1v0.1l0.1,0.1v0.1v0.1v0.1v0.6H1743.9z M1743,1863v-0.1v-0.1v-0.1
	v0l0,0h-0.1h-0.1l0,0h-0.1h-0.1h-0.4h-0.1l0,0h-0.1l-0.1,0.1v0.1l0,0v0.1v0.1v0.1v0.1v0.1l0.1,0.1h0.1l0.1,0.1h0.1h0.1h0.1h0.1h0.1
	h0.1h0.1l0.1-0.1v-0.1l0,0L1743,1863L1743,1863L1743,1863z"/>
<path class="st2" d="M1747.5,1864.4v0.1v0.1l0,0h-0.1h-0.2l0,0h0v0.1v0.1v0.1v0.3v0.1v0h-0.1h-0.2h-0.3h-0.3l0,0v-0.1v-0.5v-0.1l0,0
	h-0.2h-0.3h-0.1h-0.7h-0.1h-0.2h-0.1h-0.1l0,0v-0.1l-0.1-0.3v-0.1v-0.3v-0.1l0,0l0,0l0.1-0.2l0-0.1l0.2-0.2l0.1-0.1l0.2-0.2l0.1-0.1
	l0.2-0.2l0-0.1l0.2-0.2l0.1-0.1l0.2-0.2l0.1-0.1l0.1-0.1l0-0.1v-0.1l0,0l0.2-0.2l0,0l0,0h0.3h0.2h0.2l0,0l0,0v0.1v0.3v1.1v0.3v0.1
	v0.1h0.1h0.2h0.1l0,0v0.1v0.4L1747.5,1864.4z M1745.9,1863.9h0.3l0,0v-0.1v-0.1v-0.2v-0.4l0,0l0,0l0,0l-0.2,0.2l-0.1,0.1l-0.1,0.2
	l-0.1,0.1l-0.2,0.2l0,0l0,0l0,0h0.1h0.2L1745.9,1863.9z"/>
<path class="st2" d="M1751.1,1864.1v0.3v0.1v0.1v0.1v0.1l-0.1,0.1v0.1l-0.1,0.1h-0.1l-0.1,0.1h-0.1h-0.1h-0.1h-0.1h-0.1h-0.1h-0.1
	h-0.2h-0.7h-0.2h-0.1h-0.1h-0.1h-0.1l-0.1,0.1h-0.1l-0.1-0.1l-0.1,0l-0.1-0.1l0-0.1l-0.1-0.1v-0.1l0-0.1v-0.1v-0.1v-0.3v-0.1v-0.1
	l0.1-0.1v-0.1v-0.1v-0.1l0.1-0.1h0.1l0.1-0.1l0,0l0,0v0l-0.1-0.1l0-0.1v-0.1v-0.1v-0.1v-0.1v-0.1v-0.4v-0.1v-0.1v-0.1v-0.1l0-0.1
	l0-0.1l0.1-0.1l0.1-0.1l0.1-0.1h0.1l0,0h0.1l0,0h0.1h0.1h0.1h0.1h0.1h0.6h0.2h0.1l0.3-0.1h0.1h0.1h0.1l0.1,0.1h0.1l0.1,0.1l0.1,0.1
	l0.1,0.1v0.1v0.1v0.1v0.1v0.3v0.1v0.1v0.1l0,0.1l-0.1,0.1l0,0.2v0l0,0l0,0l0,0l0.1,0.1l0.1,0.1l0.1,0.1v0.1v0.1v0.1L1751.1,1864.1z
	 M1749.9,1864.4L1749.9,1864.4L1749.9,1864.4l0.1-0.1l0,0v-0.1v-0.2v-0.1l0,0l-0.1-0.1l0,0h-0.1h-0.1h-0.1h-0.1h-0.2h-0.1h-0.1l0,0
	l-0.1,0.1l0,0v0.1v0.1v0.1v0.1l0,0l0.1,0.1l0.1,0h0.1h0.1h0.1h0.3L1749.9,1864.4L1749.9,1864.4z M1749.2,1862.7L1749.2,1862.7
	L1749.2,1862.7v0.1v0.1v0.1l0,0l0.1,0.1l0,0h0.1l0,0h0.1h0.1h0.2h0.1h0.1l0,0v0l0,0v-0.1v-0.1v0v-0.1v-0.1l-0.1-0.1h-0.1h-0.1h-0.1
	h-0.1h-0.1L1749.2,1862.7L1749.2,1862.7L1749.2,1862.7z"/>
<path class="st0" d="M1774.3,1873.2c-9.3-15.8-30.1-18.8-36.5-18.8c-15.5,0-28.1,7.4-35,18.8"/>
<path class="st2" d="M1725.7,1863.8h-1.8l-0.1,0.6h1.7l-0.1,0.9h-1.7l-0.1,0.8h2l-0.1,0.9h-3.1l0.6-4h2.9L1725.7,1863.8z"/>
<path class="st2" d="M1730,1864.1c-0.2-0.3-0.5-0.4-0.9-0.4c-0.2-0.1-0.5,0.1-0.6,0.3v0.1c0,0.1,0.1,0.2,0.5,0.3
	c0.3,0,0.5,0.1,0.8,0.2c0.1,0.1,0.3,0.1,0.4,0.2c0.2,0.2,0.3,0.4,0.2,0.6c0,0.1,0,0.1,0,0.2c-0.2,0.9-1,1.6-2,1.4
	c-0.3,0-0.7,0-1-0.2c-0.2-0.1-0.3-0.2-0.5-0.3c-0.1-0.1-0.3-0.3-0.3-0.4l1-0.6c0.2,0.3,0.6,0.5,0.9,0.5c0.3,0.1,0.5-0.1,0.6-0.3
	v-0.1c0-0.1-0.1-0.2-0.5-0.3l-0.3-0.1c-0.3,0-0.7-0.2-0.9-0.4c-0.2-0.2-0.2-0.4-0.2-0.6c0-0.1,0-0.1,0-0.2c0.2-0.9,1-1.4,1.8-1.3
	c0.4,0,0.9,0.1,1.2,0.4c0.1,0.1,0.3,0.2,0.4,0.4L1730,1864.1z"/>
<path class="st2" d="M1734.9,1863.9h-1l-0.4,3h-1.2l0.4-3h-1l0.1-1h3.1L1734.9,1863.9z"/>
<path class="st2" d="M1739.5,1866.9l0.4-2.5c-0.2,0.1-0.4,0.1-0.6,0.1h-0.2l0.1-0.9c0.4,0.1,0.9-0.1,1-0.5h0.9l-0.6,3.9
	C1740.6,1866.9,1739.5,1866.9,1739.5,1866.9z"/>
<path class="st2" d="M1743.9,1865.9c0,0.2,0.1,0.4,0.3,0.4c0,0,0.1,0,0.1,0c0.3,0,0.6-0.2,0.7-0.6c0.1-0.2,0.1-0.3,0.1-0.5
	c-0.3,0.3-0.7,0.4-1,0.4c-0.6,0-1.1-0.4-1.1-1c0,0,0-0.1,0-0.1c0-0.9,0.7-1.7,1.7-1.7c0.1,0,0.1,0,0.2,0c0.7-0.1,1.3,0.5,1.4,1.2
	c0,0.1,0,0.2,0,0.3c0,1.9-1.1,2.7-2.1,2.7c-0.6,0.1-1.1-0.3-1.2-0.9c0,0,0-0.1,0-0.1L1743.9,1865.9z M1744.6,1864.9
	c0.4,0,0.7-0.3,0.6-0.7c0,0,0,0,0,0c0-0.2-0.1-0.4-0.4-0.5c0,0,0,0-0.1,0c-0.4,0-0.7,0.3-0.6,0.7c0,0,0,0,0,0
	C1744.1,1864.6,1744.3,1864.8,1744.6,1864.9C1744.5,1864.9,1744.6,1864.9,1744.6,1864.9z"/>
<path class="st2" d="M1750.1,1866.9h-1l0.1-0.8h-1.8l0.1-0.7l2.1-2.4h1.1l-0.3,2.4h0.5l-0.1,0.7h-0.5L1750.1,1866.9z M1749.5,1864.1
	l-1.1,1.2h0.9L1749.5,1864.1z"/>
<path class="st2" d="M1755.4,1865.7c0,0.6-0.3,1.4-1.8,1.4c-0.9,0-1.5-0.4-1.5-1c0-0.5,0.3-1,0.8-1.2c-0.2-0.1-0.3-0.4-0.3-0.6
	c0-0.8,0.7-1.4,1.4-1.3c0.1,0,0.1,0,0.2,0c0.8,0,1.3,0.4,1.3,0.9c0,0.4-0.2,0.8-0.6,1C1755.2,1865,1755.4,1865.3,1755.4,1865.7z
	 M1754.3,1865.7c0-0.2-0.2-0.4-0.4-0.4c0,0,0,0-0.1,0c-0.3,0-0.6,0.2-0.6,0.5c0,0,0,0,0,0.1c0,0.2,0.2,0.4,0.4,0.4c0,0,0,0,0.1,0
	C1754,1866.3,1754.3,1866.1,1754.3,1865.7C1754.3,1865.7,1754.3,1865.7,1754.3,1865.7L1754.3,1865.7z M1754.1,1863.6
	c-0.3,0-0.5,0.2-0.5,0.5c0,0,0,0,0,0c0,0.2,0.2,0.4,0.3,0.4c0,0,0,0,0.1,0c0.3,0,0.5-0.2,0.5-0.5c0,0,0,0,0,0
	C1754.5,1863.8,1754.3,1863.6,1754.1,1863.6C1754.1,1863.7,1754.1,1863.7,1754.1,1863.6L1754.1,1863.6z"/>
<image style="overflow:visible;" width="930" height="1711" xlink:href="../../../Documents/Personal Projects/mobile-home-screenshot.png"  transform="matrix(1 0 0 1 -54.6487 1995.8102)">
</image>
<rect x="52.7" y="2720" class="st2" width="710" height="828"/>
<rect x="278.7" y="2674" class="st5" width="246" height="40"/>
<text transform="matrix(1 0 0 1 329.6395 2700.0081)" class="st2" style="font-family:'NiveauGroteskBold'; font-size:18px;">Order Yours Today</text>
<image style="overflow:visible;" width="930" height="1711" xlink:href="../../../Downloads/mobile-home-pink.png"  transform="matrix(1 0 0 1 -54.6487 214.6091)">
</image>
<rect x="102.7" y="938.8" class="st2" width="624" height="843.2"/>
<path class="st2" d="M507.2,932h-194c-11.3,0-20.5-9.2-20.5-20.5l0,0c0-11.3,9.2-20.5,20.5-20.5h194c11.3,0,20.5,9.2,20.5,20.5l0,0
	C527.7,922.8,518.5,932,507.2,932z"/>
<rect x="52.9" y="923" class="st6" width="722" height="503.3"/>
<path class="st7" d="M489.7,944.5H338.2c-11.3,0-20.5-9.2-20.5-20.5v0c0-11.3,9.2-20.5,20.5-20.5h151.4c11.3,0,20.5,9.2,20.5,20.5v0
	C510.2,935.3,501,944.5,489.7,944.5z"/>
<text transform="matrix(1 0 0 1 348.0251 930.9376)" class="st8" style="font-family:'Bauhaus93'; font-size:25.6857px;">Order Now!</text>
<circle class="st7" cx="188.1" cy="636.7" r="19.4"/>
<text transform="matrix(1 0 0 1 179.4638 648.5412)" style="font-family:'Bauhaus93'; font-size:31.8646px;">?</text>
<g>
	<circle class="st7" cx="23.4" cy="22.3" r="19.4"/>
</g>
<g>
	<path class="st0" d="M26.1,25.8h-5.8v-1c0-1.3,0.1-2.3,0.4-2.9c0.3-0.6,0.8-1.1,1.6-1.4l1.1-0.5c0.8-0.4,1.2-0.9,1.2-1.5
		c0-0.4-0.1-0.7-0.4-0.9s-0.6-0.4-0.9-0.4c-1,0-1.5,0.7-1.5,2.1h-5.4c0-1.9,0.4-3.4,1.3-4.6c0.6-0.9,1.5-1.6,2.5-2.1
		s2.1-0.8,3.2-0.8c2,0,3.6,0.6,4.9,1.9c1.3,1.3,2,2.9,2,4.8c0,2.4-1,4-2.9,5c-0.6,0.3-1,0.6-1.1,0.8C26.1,24.6,26.1,25.1,26.1,25.8z
		 M23.3,26.7c1,0,1.9,0.4,2.6,1.1c0.7,0.7,1.1,1.6,1.1,2.6c0,1-0.4,1.9-1.1,2.6c-0.7,0.7-1.6,1.1-2.6,1.1c-1.1,0-1.9-0.3-2.6-1
		c-0.7-0.7-1-1.6-1-2.6c0-1,0.4-1.9,1.1-2.6C21.4,27,22.3,26.7,23.3,26.7z"/>
</g>
</svg>
