<?xml version="1.0" encoding="utf-8"?>
<!-- Generator: Adobe Illustrator 20.1.0, SVG Export Plug-In . SVG Version: 6.00 Build 0)  -->
<svg version="1.1" id="Layer_1" xmlns="http://www.w3.org/2000/svg" xmlns:xlink="http://www.w3.org/1999/xlink" x="0px" y="0px"
	 width="113.8px" height="69.3px" viewBox="0 0 113.8 69.3" style="enable-background:new 0 0 113.8 69.3;" xml:space="preserve">
<style type="text/css">
	.st0{fill:#383030;}
	.st1{fill:#E50C0C;}
	.st2{fill:#FFFFFF;}
	.st3{fill:#95FFFC;}
	.st4{fill:#3A2820;}
</style>
<title>Untitled-6</title>
<path class="st0" d="M-456.7,439.9l-3.4-0.6c4.5-23.8,25.3-41,49.5-40.9c1.8,0,44,0.5,49.7,40.6l-3.5,0.5
	c-5.3-37.2-44.6-37.6-46.2-37.6C-433.1,401.8-452.5,417.8-456.7,439.9z"/>
<path class="st0" d="M-352.3,441.1l-108.2-0.1l0.7-3.5l107.5,0.1c4.6,0,8.3-3.7,8.3-8.2v-0.2c0-4.6-3.7-8.3-8.3-8.2h-18.2v-3.5h18.2
	c6.5,0,11.8,5.3,11.8,11.8v0.2C-340.5,435.9-345.8,441.1-352.3,441.1z"/>
<path class="st0" d="M-452.9,455.6h-0.1c-4.1,0-7.4-3.2-7.4-7.2l-0.1-7.3h3.5l0.1,7.3c0.1,2.1,1.8,3.8,3.9,3.8h0.1
	c2.1,0,3.8-1.7,3.8-3.8v-7.6h3.5v7.6C-445.6,452.4-448.9,455.6-452.9,455.6z"/>
<path class="st1" d="M-352.4,417.5c-0.4-3.3-3.4-5.7-6.7-5.3c-2.8,0.3-4.9,2.5-5.3,5.3"/>
<path class="st1" d="M-350.4,417.5h-3.9c0-2.2-1.8-4-4-4s-4,1.8-4,4h-4c0-4.4,3.6-7.9,7.9-7.9S-350.4,413.1-350.4,417.5z"/>
<rect x="-356.8" y="431.5" class="st0" width="14" height="3"/>
<ellipse class="st0" cx="-350.4" cy="426.2" rx="1.9" ry="1.9"/>
<path class="st0" d="M-368.8,455.5h-0.1c-4,0-7.3-3.2-7.3-7.2V438h3.5v10.2c0,2.1,1.7,3.8,3.8,3.8h0.1c2.1,0,3.9-1.7,4-3.8v-8h3.5v8
	C-361.4,452.3-364.7,455.5-368.8,455.5z"/>
<path class="st0" d="M-437.9,449.7c-3.4,0-6.2-2.7-6.2-6.1c0,0,0,0,0,0V438h3.5v5.6c0.1,1.5,1.4,2.6,2.8,2.5
	c1.3-0.1,2.4-1.2,2.5-2.5v-5.4h3.5v5.4C-431.7,447-434.5,449.7-437.9,449.7z"/>
<path class="st1" d="M-350.5,417.5h3.6c0.9,0,1.5-0.7,1.5-1.5c0,0,0,0,0,0l0,0c0-0.9-0.7-1.5-1.5-1.5c0,0,0,0,0,0h-5.5"/>
<path class="st1" d="M-443.2,427.8h-1.8l-0.8,5.5h-2.1l0.8-5.5h-1.8l0.3-1.8h5.7L-443.2,427.8z"/>
<path class="st1" d="M-435.3,430.5c0,1-0.6,1.9-1.4,2.5c-0.6,0.4-1.4,0.6-2.1,0.5c-1.4,0-2.3-0.5-2.6-1.3c-0.1-0.3-0.1-0.5-0.1-0.8
	c0-0.3,0-0.6,0.1-0.9l0.7-4.6h2.1l-0.6,4.6c0,0.2,0,0.3,0,0.5c-0.1,0.4,0.2,0.7,0.6,0.8c0.1,0,0.2,0,0.3,0c0.7,0,1-0.3,1.2-1.3
	l0.6-4.5h2.1L-435.3,430.5z"/>
<path class="st1" d="M-430.6,433.3h-2.1l1.1-7.3h3.9c0.8-0.1,1.5,0.2,1.9,0.9c0.1,0.3,0.2,0.7,0.2,1c0,0.1,0,0.3,0,0.5
	c-0.1,1-0.8,1.8-1.7,2.1l1.1,2.9h-2.3l-0.9-2.6h-0.8L-430.6,433.3z M-429.1,429.2c0.9,0,1.2-0.2,1.3-0.9c0-0.1,0-0.2,0-0.2
	c0-0.5-0.3-0.7-1-0.7h-1l-0.3,1.8H-429.1z"/>
<path class="st1" d="M-418,427.8h-1.8l-0.8,5.5h-2.1l0.8-5.5h-1.8l0.3-1.8h5.7L-418,427.8z"/>
<path class="st1" d="M-411.8,433.3h-4.8l1.1-7.3h2.1l-0.8,5.5h2.7L-411.8,433.3z"/>
<path class="st1" d="M-403.1,427.6h-3.2l-0.1,1h3.1l-0.2,1.6h-3.1l-0.2,1.5h3.6l-0.2,1.6h-5.7l1.1-7.3h5.3L-403.1,427.6z"/>
<path class="st1" d="M-390.5,428.7c-0.3-0.9-0.6-1.2-1.3-1.2l0,0c-0.9,0-1.6,0.8-1.8,2.1c0,0.2,0,0.4,0,0.6c-0.1,0.7,0.3,1.4,1,1.5
	c0.1,0,0.1,0,0.2,0c0.7,0,1.3-0.5,1.6-1.2l1.6,1c-0.3,0.4-0.6,0.8-1,1.1c-0.7,0.6-1.6,0.9-2.5,0.9c-1.6,0.1-3-1-3.1-2.6
	c0-0.1,0-0.3,0-0.4c0-0.3,0-0.5,0-0.8c0.2-2.2,2-3.9,4.2-4c0.8-0.1,1.6,0.3,2.2,0.9c0.3,0.3,0.6,0.7,0.7,1.2L-390.5,428.7z"/>
<path class="st1" d="M-384.8,432.3l-0.4,1h-2.3l3.7-7.3h2.4l1.5,7.3h-2.3l-0.1-1C-382.4,432.3-384.8,432.3-384.8,432.3z M-383,427.7
	l-1.2,3h1.6L-383,427.7z"/>
<path class="st1" d="M-375.7,433.3h-2.1l1.1-7.3h4c1-0.2,1.9,0.5,2.1,1.5c0,0.1,0,0.3,0,0.4c0,0.2,0,0.3,0,0.5
	c-0.1,1.5-1.3,2.6-2.8,2.5h-1.9L-375.7,433.3z M-374.1,429.4c0.6,0.1,1.1-0.2,1.3-0.8c0-0.1,0-0.1,0-0.2c0-0.1,0-0.2,0-0.2
	c0-0.5-0.3-0.7-1-0.7h-1l-0.3,1.9L-374.1,429.4L-374.1,429.4z"/>
<path class="st0" d="M-383,451.1c-3.4,0-6.2-2.7-6.2-6.1c0,0,0,0,0,0v-5.6h3.5v5.6c0.1,1.5,1.4,2.6,2.8,2.5c1.3-0.1,2.4-1.2,2.5-2.5
	v-5.4h3.5v5.4C-376.8,448.4-379.6,451.1-383,451.1z"/>
<path class="st2" d="M-420.6,411.1L-420.6,411.1v0.4v0l0,0l0,0h-0.7h-0.2h-0.3h-0.1h-0.3h-0.4h-0.3h-0.1h-0.4h-0.2l0,0l0,0v-0.4
	v-0.3v-0.5v-0.3v-0.8v-0.3v-0.1v-0.3v-0.5v-0.3v-0.1l0,0l0,0h0.1h0.3h0.4h0.3h0.1h0.3h0.9h0.2h0.1h0.1l0,0v0.9l0,0l0,0h-1.4h-0.2
	h-0.2l0,0v0.5l0,0h0.1h0.8h0.6h0.2l0,0l0,0v0.8l0,0l0,0h-0.1h-0.2h-0.1h-0.4h-0.4h-0.2h-0.1l0,0l0,0v0.1v0.1v0.3l0,0l0,0h0.4h0.3
	h0.4h0.1h0.4h0.1h0.2l0,0l0,0v0.4L-420.6,411.1z"/>
<path class="st2" d="M-416.7,410.4v0.2v0.1v0.1v0.1v0.1v0.1l-0.1,0.1l0,0.1l-0.1,0.1l-0.1,0.1l-0.1,0.1h-0.1l-0.2,0.1h-0.1h-0.1
	l-0.2,0h-0.1h-0.1h-0.4h-0.2h-0.4h-0.1h-0.1h-0.1h-0.1l-0.1,0h-0.1h-0.1l-0.2-0.1l-0.1-0.1l-0.1-0.1l-0.1-0.1l-0.1-0.1l0,0l0,0l0,0
	l0,0l0.1-0.1l0.1-0.1v-0.1l0.1-0.4v-0.1l0.1-0.1h0.1h0.1h0.1l0.1,0.1h0.1h0.1l0.1,0.1h0.1h0.1h0.1h0.2h0.3h0.1h0.1h0.1l0,0l0,0v-0.1
	v-0.1v-0.1l0,0l-0.1-0.1l0,0h-0.1h-0.1h-0.1h-0.5h-0.2h-0.1h-0.1h-0.1h-0.1l-0.2-0.4h-0.1h-0.1h-0.1l-0.1-0.1v-0.1v-0.1v-0.1v-0.1
	v-0.1v-0.1v-0.5v-0.1v-0.1v-0.1l0-0.1v-0.1v-0.1l0.1-0.1l0.1-0.1l0.1,0h0.1h0.1l0.1-0.1l0.2-0.1h0.1h0.1h0.1h0.2h0.1h0.2h0.2h0.2
	h0.2h0.1h0.1h0.1h0.1h0.1h0.1l0.1,0.1h0.1h0.1l0,0v0.2v0.1l-0.1,0.1v0.1l-0.2,0.3l-0.1,0.1l-0.1,0l0,0l0,0h-0.1h-0.1h-0.1l0,0h-0.1
	l0,0h-0.1h-0.1h-0.6h-0.1h-0.1l0,0h-0.1l0,0v0.1v0.1v0.1v0.1l0.1,0h0.1l0,0h0.1h0.1h0.2h0.1h0.2l0.2,0h0.1h0.1l0.2,0.1h0.1h0.1h0.1
	h0.1l0.1,0.1l0,0.4l0.1,0.1l0.1,0.1v0.1v0.1v0.1v0.1v0.2H-416.7z"/>
<path class="st2" d="M-413.1,408.1v0.4l0,0l0,0h-0.2h-0.2h0h-0.2h-0.3h0l0,0v0.1v0.3v0.1v0.3v0.1v0.3v1.4v0.2v0.1v0.1l0,0h-0.2h-0.1
	h-0.1h-0.2h-0.1h-0.2h-0.1l0,0v-0.1v-0.2v-1.3v-0.3v-0.9l0,0h-1l0,0l0,0v-0.5v-0.2v-0.1v-0.1l0,0l0,0h0.2h0.2h0.1h0.3h0.1h0.3h0.1
	h0.4h1.5l0,0l0,0L-413.1,408.1L-413.1,408.1z"/>
<path class="st2" d="M-407.8,411.4v0.1v0.1l0,0l0,0l0,0h-1.4h-0.5h-0.2h-0.1l0,0v-0.5v-0.2v-0.1v-0.1h0.1h0.2h0.3l0,0l0,0v-0.5v-0.3
	V409l0,0l0,0l0,0l-0.2,0.1h-0.1h-0.2l0,0l0,0v-0.8l0,0l0,0h0l0,0h0.1h0.2h0.1l0.3-0.1h0.1l0.3-0.1h0.1l0.1-0.1h0.1h0.1h0.1h0.1l0,0
	v0.1v1.3v0.3v-0.2v0.3v0.1v0.3v0.1v0.3v0l0,0l0,0h0.5l0,0v0.5L-407.8,411.4z"/>
<path class="st2" d="M-403.8,409.5v0.4v0.6v0.1v0.1v0.1v0.1v0.1l-0.1,0.1l0,0.1l-0.1,0.1l-0.1,0.1l-0.3,0h-0.1h-0.1h-0.1l-0.1,0.2
	h-0.1h-0.1h-0.1h-0.2h-0.1h-0.2h-0.1h-0.3h-0.2h-0.1h-0.1h-0.1h-0.1h-0.1h-0.1h-0.1h-0.1h-0.1l-0.1-0.1l-0.1-0.1l0,0v-0.1l-0.1-0.1
	v-0.1V411v-0.2v-0.3l0,0l0,0h0.2h0.2h0.4h0.1l0,0v0.1l0,0v0.1l0,0h0.1h0.1h0.1h0.4h0.1h0.1h0.1l0.1-0.1l0.1-0.1v-0.1v-0.1v-0.1v-0.1
	v-0.1l0,0l0,0l0,0h-0.1h-0.1h-0.1h-0.1h-0.8h-0.1h-0.1h-0.1l-0.1-0.1h-0.1l-0.1-0.1l-0.1-0.1l-0.1-0.1v-0.1l-0.1-0.1v-0.1l0-0.2
	v-0.1v-0.1v-0.2v-0.2v-0.1v-0.1v-0.1v-0.1v-0.1l0.1-0.1v-0.1l0.1-0.1l0.1-0.1l0.1-0.1l0.1-0.1h0.1h0.1l0.1,0h0.1h0.1h0.2h0.2h0.6
	h0.1h0.1l0.2,0h0.1h0.1h0.1l0.2,0.1h0.1l0.1,0.1l0.1,0l0.1,0.1l0.1,0.1v0.1v0.1l0.1,0.1v0.1v0.1v0.1v0.8H-403.8z M-404.8,409.1v-0.2
	v-0.1v-0.1v-0.1l0,0h-0.1h-0.1l0,0h-0.1h-0.1h-0.5h-0.1l0,0h-0.1l-0.1,0.1v0.1l0,0v0.1v0.1v0.1v0.1v0.1l0.1,0.1h0.1l0.1,0.1h0.1h0.1
	h0.1h0.2h0.1h0.1h0.1l0.1-0.1v-0.1l0,0L-404.8,409.1L-404.8,409.1L-404.8,409.1z"/>
<path class="st2" d="M-399.6,410.7v0.1v0.1l0,0h-0.1h-0.2l0,0h0v0.1v0.1v0.2v0.3v0.1v0.1h-0.1h-0.3h-0.3h-0.4l0,0v-0.1V411v-0.1l0,0
	h-0.2h-0.3h-0.1h-0.8h-0.1h-0.2h-0.1h-0.1l0,0v-0.1l-0.1-0.3v-0.1v-0.3V410l0,0l0,0l0.2-0.2l0.1-0.1l0.2-0.2l0.1-0.1l0.2-0.2
	l0.1-0.1l0.2-0.2l0.1-0.1l0.2-0.2l0.1-0.2l0.2-0.2l0.1-0.1l0.1-0.1l0.1-0.1V408l0,0l0.2-0.2l0,0l0,0h0.4h0.3h0.2l0,0l0,0v0.1v0.3
	v1.3v0.3v0.1v0.1h0.1h0.2h0.1l0,0v0.1v0.5L-399.6,410.7z M-401.5,410.1h0.4l0,0V410v-0.1v-0.3v-0.4l0,0l0,0l0,0l-0.2,0.2l-0.1,0.1
	l-0.2,0.2l-0.1,0.1l-0.2,0.2l0,0l0,0l0,0h0.1h0.2L-401.5,410.1z"/>
<path class="st2" d="M-395.5,410.3v0.3v0.1v0.1v0.1v0.1l-0.1,0.1v0.1l-0.1,0.1h-0.1l-0.1,0.1h-0.1h-0.1h-0.1h-0.1h-0.1h-0.1h-0.1
	h-0.2h-0.9h-0.3h-0.1h-0.1h-0.1h-0.1l-0.1,0.1h-0.1l-0.1-0.1l-0.1,0l-0.1-0.1l-0.1-0.1l-0.1-0.1V411l0-0.1v-0.1v-0.1v-0.3v-0.1v-0.1
	l0.1-0.1V410v-0.1v-0.1l0.1-0.1h0.1l0.1-0.1l0,0l0,0v0l-0.1-0.1l-0.1-0.1v-0.1v-0.1v-0.1v-0.1v-0.1v-0.5v-0.1v-0.1v-0.1v-0.1
	l0.1-0.1l0-0.1l0.1-0.1l0.1-0.1l0.1-0.1h0.1l0,0h0.1l0,0h0.1h0.1h0.1h0.1h0.1h0.7h0.2h0.1l0.4-0.1h0.1h0.1h0.1l0.1,0.1h0.1l0.1,0.1
	l0.1,0.1l0.1,0.1v0.1v0.1v0.1v0.1v0.4v0.1v0.1v0.1l-0.1,0.1l-0.1,0.1l0,0.3v0l0,0l0,0l0,0l0.1,0.1l0.1,0.1l0.1,0.1v0.1v0.1v0.1
	L-395.5,410.3z M-396.8,410.7L-396.8,410.7L-396.8,410.7l0.1-0.1l0,0v-0.1v-0.3v-0.1l0,0l-0.1-0.1l0,0h-0.1h-0.1h-0.1h-0.1h-0.3
	h-0.1h-0.1l0,0l-0.1,0.1l0,0v0.1v0.1v0.1v0.1l0,0l0.1,0.1l0.1,0h0.1h0.1h0.1h0.3L-396.8,410.7L-396.8,410.7z M-397.6,408.6
	L-397.6,408.6L-397.6,408.6v0.1v0.1v0.1l0,0l0.1,0.1l0,0h0.1l0,0h0.1h0.1h0.2h0.1h0.1l0,0V409l0,0v-0.1v-0.1v0v-0.1v-0.1l-0.1-0.1
	h-0.1h-0.1h-0.1h-0.1h-0.1h-0.1L-397.6,408.6L-397.6,408.6z"/>
<path class="st0" d="M-368.4,420.9c-10.8-18.4-34.9-21.8-42.4-21.8c-18.1,0-32.6,8.7-40.7,21.8"/>
<path class="st2" d="M-424.9,410h-2.1l-0.1,0.7h2l-0.2,1h-1.9l-0.1,0.9h2.3l-0.2,1h-3.6l0.7-4.7h3.4L-424.9,410z"/>
<path class="st2" d="M-420,410.3c-0.2-0.3-0.6-0.5-1-0.5c-0.3-0.1-0.5,0.1-0.6,0.3v0.1c0,0.1,0.1,0.2,0.6,0.3c0.3,0,0.6,0.1,0.9,0.3
	c0.2,0.1,0.3,0.2,0.5,0.3c0.2,0.2,0.3,0.4,0.3,0.7c0,0.1,0,0.2,0,0.2c-0.2,1.1-1.2,1.8-2.3,1.7c-0.4,0-0.8-0.1-1.1-0.2
	c-0.2-0.1-0.4-0.2-0.5-0.3c-0.2-0.1-0.3-0.3-0.4-0.5l1.2-0.6c0.2,0.4,0.7,0.6,1.1,0.5c0.3,0.1,0.6-0.1,0.8-0.4v-0.1
	c0-0.2-0.1-0.2-0.6-0.3l-0.4-0.1c-0.4,0-0.8-0.2-1.1-0.4c-0.2-0.2-0.3-0.5-0.3-0.7c0-0.1,0-0.2,0-0.2c0.2-1,1.1-1.7,2.1-1.5
	c0.5,0,1,0.1,1.4,0.4c0.2,0.1,0.3,0.3,0.5,0.5L-420,410.3z"/>
<path class="st2" d="M-414.3,410.1h-1.1l-0.5,3.5h-1.3l0.5-3.5h-1.1l0.2-1.2h3.6L-414.3,410.1z"/>
<path class="st2" d="M-408.9,413.6l0.4-2.9c-0.2,0.1-0.5,0.1-0.8,0.1h-0.2l0.2-1c0.5,0.1,1-0.2,1.2-0.6h1.1l-0.7,4.5
	C-407.6,413.6-408.9,413.6-408.9,413.6z"/>
<path class="st2" d="M-403.8,412.4c0,0.2,0.1,0.4,0.4,0.5c0,0,0.1,0,0.1,0c0.4,0,0.7-0.3,0.9-0.7c0.1-0.2,0.1-0.4,0.1-0.6
	c-0.3,0.3-0.8,0.5-1.2,0.5c-0.7,0-1.2-0.5-1.3-1.2c0,0,0-0.1,0-0.1c0-1.1,0.9-1.9,1.9-1.9c0.1,0,0.1,0,0.2,0
	c0.8-0.1,1.6,0.5,1.6,1.4c0,0.1,0,0.2,0,0.4c0,2.2-1.3,3.1-2.5,3.1c-0.7,0.1-1.3-0.3-1.4-1c0,0,0-0.1,0-0.1L-403.8,412.4z
	 M-403,411.2c0.4,0,0.8-0.4,0.7-0.8c0,0,0,0,0-0.1c0-0.3-0.2-0.5-0.4-0.5c0,0-0.1,0-0.1,0c-0.4,0-0.8,0.4-0.8,0.8c0,0,0,0,0,0
	C-403.6,410.9-403.4,411.2-403,411.2C-403.1,411.2-403,411.2-403,411.2z"/>
<path class="st2" d="M-396.6,413.6h-1.2l0.1-0.9h-2.1l0.1-0.9l2.4-2.7h1.2l-0.4,2.7h0.6l-0.1,0.9h-0.6L-396.6,413.6z M-397.3,410.4
	l-1.3,1.4h1.1L-397.3,410.4z"/>
<path class="st2" d="M-390.4,412.1c0,0.6-0.4,1.6-2.1,1.6c-1.1,0-1.7-0.4-1.7-1.2c0-0.6,0.3-1.2,0.9-1.4c-0.2-0.2-0.4-0.4-0.4-0.7
	c0-0.9,0.8-1.6,1.6-1.6c0.1,0,0.1,0,0.2,0c0.9,0,1.5,0.4,1.5,1.1c0,0.5-0.3,1-0.7,1.2C-390.7,411.4-390.4,411.7-390.4,412.1z
	 M-391.7,412.1c0-0.3-0.2-0.5-0.5-0.5c0,0-0.1,0-0.1,0c-0.4,0-0.7,0.2-0.7,0.6c0,0,0,0.1,0,0.1c0,0.3,0.2,0.5,0.5,0.5c0,0,0,0,0.1,0
	c0.4,0,0.7-0.2,0.7-0.6C-391.7,412.2-391.7,412.2-391.7,412.1L-391.7,412.1z M-392,409.8c-0.3,0-0.6,0.2-0.6,0.6c0,0,0,0,0,0
	c0,0.2,0.2,0.4,0.4,0.4c0,0,0,0,0.1,0c0.3,0,0.6-0.2,0.6-0.5c0,0,0,0,0,0C-391.5,409.9-391.7,409.8-392,409.8
	C-391.9,409.8-391.9,409.8-392,409.8L-392,409.8z"/>
<image style="overflow:visible;" width="1590" height="1276" xlink:href="../../../Desktop/Screen Shot 2017-03-04 at 2.04.04 PM.png"  transform="matrix(0.5 0 0 0.5 -257.94 112.4833)">
</image>
<rect x="69.5" y="122.3" class="st3" width="142" height="67.6"/>
<g>
	<path class="st0" d="M90.6,49.1l-3,0.4c-0.1-0.6-0.2-1.1-0.3-1.6c-5.5-30.4-38.1-30.8-39.5-30.8C29.2,17.1,13.1,29.9,8.7,47.8
		c-0.2,0.7-0.3,1.4-0.4,2.1l-3-0.6c0.1-0.5,0.2-1,0.3-1.5c4.4-19.7,22-33.7,42.3-33.7c1.2,0,23.2,0.2,35.4,16.4c0.7,0.9,1.4,2,2,3
		c2.4,3.9,4.2,8.7,5.1,14.3C90.5,48.3,90.6,48.7,90.6,49.1z"/>
	<path class="st2" d="M87.4,47.9L8.7,47.8c4.4-17.9,20.5-30.7,39.2-30.7C49.3,17.1,81.9,17.5,87.4,47.9z"/>
	<path class="st0" d="M108.2,40.6v0.2c0,5.6-4.6,10.1-10.1,10.1l-68.3-0.1h-3l-4.6,0h-3L5,50.8l0.6-3h3.1l78.7,0.1h3.1l7.6,0
		c3.9,0,7.1-3.2,7.1-7.1v-0.2c0-3.9-3.2-7.1-7.1-7.1H82.4v-3H98C103.6,30.5,108.1,35.1,108.2,40.6z"/>
	<path class="st0" d="M11.5,63.4L11.5,63.4c-3.6,0-6.4-2.8-6.5-6.2L5,50.8h3l0.1,6.3c0.1,1.8,1.5,3.2,3.4,3.2h0.1
		c1.8,0,3.2-1.4,3.3-3.2v-6.5h3v6.5C17.8,60.6,15,63.4,11.5,63.4z"/>
	<path class="st1" d="M97.9,30.6c-0.3-2.8-2.9-4.9-5.7-4.5c-2.4,0.3-4.3,2.2-4.5,4.5"/>
	<path class="st1" d="M99.6,30.6h-3.3c0-1.9-1.5-3.4-3.4-3.4s-3.4,1.5-3.4,3.4H86c0-3.8,3.1-6.8,6.8-6.8S99.6,26.8,99.6,30.6z"/>
	<rect x="94.1" y="42.6" class="st0" width="12" height="2.6"/>
	<ellipse class="st0" cx="99.6" cy="38.1" rx="1.7" ry="1.7"/>
	<path class="st0" d="M83.9,63.3L83.9,63.3c-3.5,0-6.3-2.8-6.4-6.2v-8.8h3V57c0,1.8,1.5,3.2,3.3,3.2h0.1c1.8,0,3.3-1.4,3.4-3.2v-6.9
		h3V57C90.2,60.5,87.4,63.3,83.9,63.3z"/>
	<path class="st0" d="M24.5,58.3c-2.9,0-5.3-2.3-5.3-5.2c0,0,0,0,0,0v-4.8h3v4.8c0.1,1.3,1.2,2.2,2.4,2.2c1.2-0.1,2.1-1,2.2-2.2
		v-4.6h3v4.6C29.7,56,27.4,58.3,24.5,58.3z"/>
	<path class="st1" d="M99.5,30.6h3.1c0.7,0,1.3-0.6,1.3-1.3c0,0,0,0,0,0l0,0c0-0.7-0.6-1.3-1.3-1.3c0,0,0,0,0,0h-4.7"/>
	<path class="st4" d="M19.8,39.5h-1.5l-0.7,4.7h-1.8l0.7-4.7H15l0.2-1.6h4.9L19.8,39.5z"/>
	<path class="st4" d="M26.6,41.8c0,0.9-0.5,1.7-1.2,2.2c-0.6,0.3-1.2,0.5-1.8,0.5c-1.2,0-2-0.4-2.2-1.2c-0.1-0.2-0.1-0.5-0.1-0.7
		c0-0.3,0-0.5,0.1-0.7l0.6-3.9h1.8l-0.6,3.9c0,0.1,0,0.3,0,0.4c-0.1,0.3,0.2,0.6,0.5,0.7c0.1,0,0.2,0,0.2,0c0.6,0,0.9-0.3,1-1.1
		l0.6-3.9h1.8L26.6,41.8z"/>
	<path class="st4" d="M30.6,44.2h-1.8l0.9-6.3h3.3c0.7-0.1,1.3,0.2,1.7,0.8c0.1,0.3,0.2,0.6,0.2,0.9c0,0.1,0,0.3,0,0.4
		c-0.1,0.9-0.7,1.6-1.5,1.8l1,2.5h-2L31.6,42h-0.7L30.6,44.2z M32,40.7c0.7,0,1-0.2,1.1-0.8c0-0.1,0-0.1,0-0.2
		c0-0.4-0.3-0.6-0.9-0.6h-0.9l-0.2,1.5H32z"/>
	<path class="st4" d="M41.5,39.5H40l-0.7,4.7h-1.8l0.7-4.7h-1.5l0.2-1.6h4.9L41.5,39.5z"/>
	<path class="st4" d="M46.8,44.2h-4.1l0.9-6.3h1.8l-0.7,4.7h2.3L46.8,44.2z"/>
	<path class="st4" d="M54.3,39.3h-2.8l-0.1,0.9H54l-0.2,1.4h-2.6L51,42.8h3.1l-0.2,1.4H49l0.9-6.3h4.6L54.3,39.3z"/>
	<path class="st4" d="M65.2,40.2c-0.3-0.7-0.5-1-1.1-1l0,0c-0.8,0-1.4,0.7-1.5,1.8c0,0.2,0,0.3,0,0.5c-0.1,0.6,0.3,1.2,0.9,1.3
		c0.1,0,0.1,0,0.2,0c0.6,0,1.2-0.4,1.3-1l1.4,0.8c-0.2,0.4-0.5,0.7-0.9,1c-0.6,0.5-1.4,0.8-2.2,0.7c-1.4,0.1-2.6-0.9-2.7-2.3
		c0-0.1,0-0.3,0-0.4c0-0.2,0-0.4,0-0.6c0.2-1.9,1.7-3.4,3.6-3.4c0.7,0,1.4,0.2,1.9,0.7c0.3,0.3,0.5,0.6,0.6,1L65.2,40.2z"/>
	<path class="st4" d="M70.1,43.3l-0.4,0.9h-2l3.1-6.3h2.1l1.3,6.3h-2l-0.1-0.9C72.1,43.3,70.1,43.3,70.1,43.3z M71.7,39.4l-1.1,2.5
		H72L71.7,39.4z"/>
	<path class="st4" d="M77.9,44.2h-1.8l0.9-6.3h3.4c0.8-0.1,1.6,0.4,1.8,1.3c0,0.1,0,0.2,0,0.4c0,0.1,0,0.3,0,0.4
		c-0.1,1.2-1.1,2.2-2.4,2.2h-1.6L77.9,44.2z M79.2,40.9c0.5,0.1,1-0.2,1.1-0.7c0-0.1,0-0.1,0-0.2c0-0.1,0-0.1,0-0.2
		c0-0.4-0.3-0.6-0.9-0.6h-0.9l-0.2,1.7L79.2,40.9L79.2,40.9z"/>
	<path class="st0" d="M71.7,59.5c-2.9,0-5.3-2.3-5.3-5.2c0,0,0,0,0,0v-4.8h3v4.8c0.1,1.3,1.2,2.2,2.4,2.2c1.2-0.1,2.1-1,2.2-2.2
		v-4.6h3v4.6C76.9,57.2,74.6,59.5,71.7,59.5z"/>
	<path class="st2" d="M39.2,25.1L39.2,25.1v0.3v0l0,0l0,0h-0.6h-0.1h-0.2h-0.1H38h-0.4h-0.2h-0.1h-0.4h-0.2l0,0l0,0v-0.3v-0.2v-0.4
		v-0.2v-0.7v-0.2v-0.1v-0.2v-0.4v-0.2v-0.1l0,0l0,0h0.1h0.3h0.3h0.3h0.1h0.3h0.8H39h0.1h0.1l0,0v0.7l0,0l0,0h-1.2h-0.2h-0.2l0,0v0.4
		l0,0h0.1h0.7h0.5H39l0,0l0,0V24l0,0l0,0h-0.1h-0.2h-0.1h-0.4h-0.4h-0.2h-0.1l0,0l0,0v0.1v0.1v0.2l0,0l0,0H38h0.2h0.3h0.1h0.3H39
		h0.2l0,0l0,0v0.4L39.2,25.1z"/>
	<path class="st2" d="M42.7,24.5v0.2v0.1v0.1v0.1V25V25l-0.1,0.1l0,0.1l-0.1,0.1l-0.1,0.1l-0.1,0.1h-0.1l-0.2,0.1h-0.1H42l-0.1,0
		h-0.1h-0.1h-0.3h-0.2h-0.3h-0.1h-0.1h-0.1h-0.1l-0.1,0h-0.1h-0.1l-0.1-0.1l-0.1,0L40,25.2l-0.1,0l-0.1-0.1l0,0l0,0l0,0l0,0l0-0.1
		l0.1-0.1v-0.1l0.1-0.3v-0.1l0-0.1h0.1h0.1h0.1l0.1,0.1h0.1h0.1l0.1,0.1h0.1h0.1H41h0.2h0.3h0.1h0.1h0.1l0,0l0,0v-0.1v-0.1v-0.1l0,0
		l-0.1,0l0,0h-0.1h-0.1h-0.1H41h-0.1h-0.1h-0.1h-0.1h-0.1L40.4,24h-0.1h-0.1h-0.1l-0.1-0.1v-0.1v-0.1v-0.1v-0.1v-0.1v-0.1V23v-0.1
		v-0.1v-0.1l0-0.1v-0.1v-0.1l0-0.1l0.1-0.1l0.1,0h0.1h0.1l0.1-0.1l0.1-0.1h0.1h0.1h0.1h0.1h0.1h0.2h0.1h0.2h0.2h0.1H42h0.1h0.1h0.1
		h0.1l0.1,0.1h0.1h0.1l0,0v0.2v0.1l-0.1,0.1v0.1L42.2,23L42.1,23l-0.1,0l0,0l0,0h0H42h-0.1l0,0h-0.1l0,0h-0.1h-0.1h-0.5h-0.1H41l0,0
		h-0.1l0,0v0.1v0.1v0.1v0.1l0.1,0H41l0,0h0.1h0.1h0.2h0.1h0.2l0.1,0h0.1h0.1l0.1,0h0.1h0.1h0.1h0.1l0.1,0.1l0,0.3l0,0.1l0.1,0.1v0.1
		v0.1v0.1v0.1v0.1H42.7z"/>
	<path class="st2" d="M45.8,22.5v0.4l0,0l0,0h-0.2h-0.1h0h-0.2h-0.3h0l0,0V23v0.3v0.1v0.3v0.1V24v1.2v0.2v0.1v0.1l0,0h-0.2h-0.1
		h-0.1h-0.2h-0.1H44h-0.1l0,0v-0.1v-0.2v-1.1v-0.3V23l0,0h-0.9l0,0l0,0v-0.5v-0.2v-0.1v-0.1l0,0l0,0h0.1h0.2h0.1h0.3h0.1h0.3h0.1
		h0.3h1.3l0,0l0,0L45.8,22.5L45.8,22.5z"/>
	<path class="st2" d="M50.3,25.3L50.3,25.3v0.2l0,0l0,0l0,0h-1.2h-0.4h-0.2h-0.1l0,0v-0.4V25v-0.1v-0.1h0.1h0.2h0.2l0,0l0,0v-0.5
		v-0.3v-0.8l0,0l0,0l0,0l-0.2,0.1h-0.1h-0.2l0,0l0,0v-0.7l0,0l0,0h0l0,0h0.1h0.1h0.1l0.2-0.1h0.1l0.2-0.1h0.1l0.1-0.1h0.1h0.1h0.1h0
		l0,0v0.1v1.1v0.3v-0.2V24v0.1v0.3v0.1v0.3v0l0,0l0,0h0.5l0,0v0.5L50.3,25.3z"/>
	<path class="st2" d="M53.8,23.7V24v0.6v0.1v0.1v0.1v0.1V25l-0.1,0.1l0,0.1l-0.1,0.1l-0.1,0.1l-0.3,0h-0.1h-0.1h-0.1L53,25.4H53
		h-0.1h-0.1h-0.1h-0.1h-0.2h-0.1h-0.2H52h-0.1h-0.1h-0.1h-0.1h-0.1h-0.1h-0.1h-0.1h-0.1l-0.1-0.1l-0.1-0.1l0,0v-0.1l-0.1-0.1v-0.1
		V25v-0.1v-0.3l0,0l0,0h0.2h0.2h0.3h0.1l0,0v0.1l0,0v0.1l0,0H52H52h0.1h0.3h0.1h0.1h0.1l0.1-0.1l0.1-0.1v-0.1v-0.1v-0.1v-0.1v-0.1
		l0,0l0,0l0,0h-0.1h-0.1h-0.1h-0.1h-0.7h-0.1h-0.1h-0.1l-0.1-0.1h-0.1l-0.1-0.1l-0.1,0L51.2,24v-0.1l-0.1-0.1v-0.1l0-0.1v-0.1v-0.1
		v-0.2v-0.1V23v-0.1v-0.1v-0.1v-0.1l0.1-0.1v-0.1l0.1-0.1l0.1-0.1l0.1-0.1l0.1,0h0.1h0.1l0.1,0h0.1h0.1h0.2h0.1h0.5h0.1h0.1l0.2,0
		H53h0.1h0.1l0.2,0h0.1l0.1,0.1l0.1,0l0.1,0.1l0,0.1v0.1v0.1l0.1,0.1v0.1V23v0.1v0.6H53.8z M52.8,23.4v-0.1v-0.1v-0.1v0l0,0h-0.1
		h-0.1l0,0h-0.1h-0.1h-0.4h-0.1l0,0H52L52,23.1v0.1l0,0v0.1v0.1v0.1v0.1v0.1l0.1,0.1h0.1l0.1,0.1h0.1h0.1h0.1h0.1h0.1h0.1h0.1
		l0.1-0.1v-0.1l0,0L52.8,23.4L52.8,23.4L52.8,23.4z"/>
	<path class="st2" d="M57.3,24.7v0.1v0.1l0,0h-0.1h-0.2l0,0h0V25V25v0.1v0.3v0.1v0H57h-0.2h-0.3h-0.3l0,0v-0.1V25V25l0,0H56h-0.3
		h-0.1h-0.7h-0.1h-0.2h-0.1h-0.1l0,0v-0.1l-0.1-0.3v-0.1v-0.3v-0.1l0,0l0,0l0.1-0.2l0-0.1l0.2-0.2l0.1-0.1l0.2-0.2l0.1-0.1l0.2-0.2
		l0-0.1l0.2-0.2l0.1-0.1l0.2-0.2l0.1-0.1l0.1-0.1l0-0.1v-0.1l0,0l0.2-0.2l0,0l0,0h0.3h0.2h0.2l0,0l0,0v0.1v0.3v1.1V24v0.1v0.1h0.1
		H57h0.1l0,0v0.1v0.4L57.3,24.7z M55.7,24.2H56l0,0v-0.1v-0.1v-0.2v-0.4l0,0l0,0l0,0l-0.2,0.2l-0.1,0.1l-0.1,0.2l-0.1,0.1l-0.2,0.2
		l0,0l0,0l0,0h0.1h0.2L55.7,24.2z"/>
	<path class="st2" d="M60.9,24.4v0.3v0.1v0.1V25V25l-0.1,0.1v0.1l-0.1,0.1h-0.1l-0.1,0.1h-0.1h-0.1h-0.1h-0.1h-0.1h-0.1H60h-0.2
		h-0.7h-0.2h-0.1h-0.1h-0.1h-0.1l-0.1,0.1h-0.1l-0.1-0.1l-0.1,0l-0.1-0.1l0-0.1l-0.1-0.1V25l0-0.1v-0.1v-0.1v-0.3v-0.1v-0.1l0.1-0.1
		v-0.1v-0.1V24l0.1-0.1h0.1l0.1-0.1l0,0l0,0v0l-0.1-0.1l0-0.1v-0.1v-0.1v-0.1v-0.1v-0.1V23v-0.1v-0.1v-0.1v-0.1l0-0.1l0-0.1l0.1-0.1
		l0.1-0.1l0.1-0.1h0.1l0,0h0.1l0,0h0.1h0.1h0.1h0.1H59h0.6h0.2h0.1l0.3-0.1h0.1h0.1h0.1l0.1,0.1h0.1l0.1,0.1l0.1,0.1l0.1,0.1v0.1
		v0.1v0.1v0.1v0.3v0.1v0.1v0.1l0,0.1l-0.1,0.1l0,0.2v0l0,0l0,0l0,0l0.1,0.1l0.1,0.1l0.1,0.1v0.1v0.1v0.1L60.9,24.4z M59.7,24.8
		L59.7,24.8L59.7,24.8l0.1-0.1l0,0v-0.1v-0.2v-0.1l0,0l-0.1-0.1l0,0h-0.1h-0.1h-0.1h-0.1h-0.2h-0.1h-0.1l0,0L59,24.3l0,0v0.1v0.1
		v0.1v0.1l0,0l0.1,0.1l0.1,0h0.1h0.1h0.1h0.3L59.7,24.8L59.7,24.8z M59.1,23L59.1,23L59.1,23v0.1v0.1v0.1l0,0l0.1,0.1l0,0h0.1l0,0
		h0.1h0.1h0.2h0.1h0.1l0,0v0l0,0v-0.1v-0.1v0v-0.1V23l-0.1-0.1h-0.1h-0.1h-0.1h-0.1h-0.1L59.1,23L59.1,23L59.1,23z"/>
	<path class="st0" d="M84.2,33.6c-9.3-15.8-30.1-18.8-36.5-18.8c-15.5,0-28.1,7.4-35,18.8"/>
	<path class="st2" d="M35.6,24.1h-1.8l-0.1,0.6h1.7l-0.1,0.9h-1.7l-0.1,0.8h2l-0.1,0.9h-3.1l0.6-4h2.9L35.6,24.1z"/>
	<path class="st2" d="M39.8,24.5c-0.2-0.3-0.5-0.4-0.9-0.4c-0.2-0.1-0.5,0.1-0.6,0.3v0.1c0,0.1,0.1,0.2,0.5,0.3
		c0.3,0,0.5,0.1,0.8,0.2c0.1,0.1,0.3,0.1,0.4,0.2c0.2,0.2,0.3,0.4,0.2,0.6c0,0.1,0,0.1,0,0.2c-0.2,0.9-1,1.6-2,1.4
		c-0.3,0-0.7,0-1-0.2c-0.2-0.1-0.3-0.2-0.5-0.3c-0.1-0.1-0.3-0.3-0.3-0.4l1-0.6c0.2,0.3,0.6,0.5,0.9,0.5c0.3,0.1,0.5-0.1,0.6-0.3V26
		c0-0.1-0.1-0.2-0.5-0.3l-0.3-0.1c-0.3,0-0.7-0.2-0.9-0.4c-0.2-0.2-0.2-0.4-0.2-0.6c0-0.1,0-0.1,0-0.2c0.2-0.9,1-1.4,1.8-1.3
		c0.4,0,0.9,0.1,1.2,0.4c0.1,0.1,0.3,0.2,0.4,0.4L39.8,24.5z"/>
	<path class="st2" d="M44.7,24.2h-1l-0.4,3h-1.2l0.4-3h-1l0.1-1h3.1L44.7,24.2z"/>
	<path class="st2" d="M49.4,27.3l0.4-2.5c-0.2,0.1-0.4,0.1-0.6,0.1h-0.2l0.1-0.9c0.4,0.1,0.9-0.1,1-0.5H51l-0.6,3.9
		C50.4,27.3,49.4,27.3,49.4,27.3z"/>
	<path class="st2" d="M53.8,26.2c0,0.2,0.1,0.4,0.3,0.4c0,0,0.1,0,0.1,0c0.3,0,0.6-0.2,0.7-0.6c0.1-0.2,0.1-0.3,0.1-0.5
		c-0.3,0.3-0.7,0.4-1,0.4c-0.6,0-1.1-0.4-1.1-1c0,0,0-0.1,0-0.1c0-0.9,0.7-1.7,1.7-1.7c0.1,0,0.1,0,0.2,0c0.7-0.1,1.3,0.5,1.4,1.2
		c0,0.1,0,0.2,0,0.3c0,1.9-1.1,2.7-2.1,2.7c-0.6,0.1-1.1-0.3-1.2-0.9c0,0,0-0.1,0-0.1L53.8,26.2z M54.4,25.2c0.4,0,0.7-0.3,0.6-0.7
		c0,0,0,0,0,0c0-0.2-0.1-0.4-0.4-0.5c0,0,0,0-0.1,0c-0.4,0-0.7,0.3-0.6,0.7c0,0,0,0,0,0C53.9,25,54.1,25.2,54.4,25.2
		C54.4,25.2,54.4,25.2,54.4,25.2z"/>
	<path class="st2" d="M60,27.3h-1l0.1-0.8h-1.8l0.1-0.7l2.1-2.4h1.1l-0.3,2.4h0.5l-0.1,0.7h-0.5L60,27.3z M59.3,24.5l-1.1,1.2h0.9
		L59.3,24.5z"/>
	<path class="st2" d="M65.2,26c0,0.6-0.3,1.4-1.8,1.4c-0.9,0-1.5-0.4-1.5-1c0-0.5,0.3-1,0.8-1.2c-0.2-0.1-0.3-0.4-0.3-0.6
		c0-0.8,0.7-1.4,1.4-1.3c0.1,0,0.1,0,0.2,0c0.8,0,1.3,0.4,1.3,0.9c0,0.4-0.2,0.8-0.6,1C65,25.3,65.2,25.6,65.2,26z M64.2,26
		c0-0.2-0.2-0.4-0.4-0.4c0,0,0,0-0.1,0c-0.3,0-0.6,0.2-0.6,0.5c0,0,0,0,0,0.1c0,0.2,0.2,0.4,0.4,0.4c0,0,0,0,0.1,0
		C63.9,26.6,64.1,26.4,64.2,26C64.2,26.1,64.2,26.1,64.2,26L64.2,26z M63.9,24c-0.3,0-0.5,0.2-0.5,0.5c0,0,0,0,0,0
		c0,0.2,0.2,0.4,0.3,0.4c0,0,0,0,0.1,0c0.3,0,0.5-0.2,0.5-0.5c0,0,0,0,0,0C64.3,24.1,64.1,24,63.9,24C63.9,24,63.9,24,63.9,24
		L63.9,24z"/>
</g>
</svg>
