<svg xmlns="http://www.w3.org/2000/svg" viewBox="0 0 113.77 56.61"><defs><style>.a{fill:#383030;}.b{fill:#e31e26;}.c{fill:#fff;}</style></defs><title>turtlecaplogo</title><path class="a" d="M114.63,47.67h-2A44.1,44.1,0,0,0,68.71,3.75c-1.79,0-43.91-.09-43.91,43.91h-2c0-46,44-45.91,45.91-45.91A45.53,45.53,0,0,1,114.63,47.67Z" transform="translate(-0.85 -1.75)"/><path class="a" d="M114.2,44.67H11.11A10.29,10.29,0,0,1,.85,34.37V34.18a10.29,10.29,0,0,1,10.26-10.3H28.85v2H11.11a8.29,8.29,0,0,0-8.26,8.3v0.19a8.29,8.29,0,0,0,8.26,8.3H114.2v2Z" transform="translate(-0.85 -1.75)"/><path class="a" d="M108.33,58.37h-0.1a6.12,6.12,0,0,1-6.12-6.12V44.17h2v8.08a4.12,4.12,0,0,0,4.12,4.12h0.1a4.23,4.23,0,0,0,4.24-4.11l0.06-5,2,0-0.06,5A6.18,6.18,0,0,1,108.33,58.37Z" transform="translate(-0.85 -1.75)"/><path class="b" d="M11.91,23.34a5.51,5.51,0,1,1,11,0" transform="translate(-0.85 -1.75)"/><path class="b" d="M24.74,23.67H21.12a3.7,3.7,0,1,0-7.41,0H10.1A7.32,7.32,0,1,1,24.74,23.67Z" transform="translate(-0.85 -1.75)"/><rect class="a" x="2.48" y="35.91" width="13" height="2"/><circle class="a" cx="12.25" cy="29.63" r="1.81"/><path class="a" d="M29.22,58h-0.1a6.32,6.32,0,0,1-6.32-6.14v-4.7h2v4.7A4.29,4.29,0,0,0,29.12,56h0.1a4.12,4.12,0,0,0,4.12-4.12V43.4h2v8.5A6.12,6.12,0,0,1,29.22,58Z" transform="translate(-0.85 -1.75)"/><path class="a" d="M94,52.66a5.07,5.07,0,0,1-5.12-5v-4h2v4a3.08,3.08,0,0,0,6.17,0V43.4h2v4.22A5,5,0,0,1,94,52.66Z" transform="translate(-0.85 -1.75)"/><path class="b" d="M11.2,23.43H7.91a2.45,2.45,0,0,1,0-4.89H13v2H7.91a0.43,0.43,0,0,0-.43.43,0.44,0.44,0,0,0,.43.46H11.2v2Z" transform="translate(-0.85 -1.75)"/><path class="b" d="M38.77,31.56v0.69l0,0.12,0,0.07-0.06.05-0.11,0H38.38l-0.28,0H38l-0.43,0H37.38l-0.23,0h-0.2l-0.09,0,0,0.06v0.13l0,0.59v0.16l0,0.6v0.16l0,0.6V35l0,0.59v0.92l0,0.59v0.15l0,0.45v0.16l0,0.12,0,0.05-0.12,0H36.44l-0.23,0H36l-0.42,0H35.48l-0.42,0H34.95l-0.06,0,0-.11V37.7l0-.42V34.84l0-.6V33.31l0-.59V32.58l0-.08-0.09,0H34.6l-0.3,0H34.14l-0.25,0H33.14l-0.1,0-0.06,0,0-.06,0-.1V32l0-.3V31.57l0-.38V31l0-.13,0-.07,0.06,0,0.09,0h0.21l0.34,0h0.15l0.54,0h0.15l0.55,0.05h0.15l0.69-.05H38l0.31,0h0.23l0.11,0,0.06,0,0,0.07,0,0.12v0.22Z" transform="translate(-0.85 -1.75)"/><path class="b" d="M46.42,34.49l0,0.32v0.38l0,0.15,0,0.24,0,0.16,0,0.23,0,0.15-0.07.21,0,0.14-0.08.21L46,36.83l-0.12.2-0.09.13-0.11.13-0.12.11-0.19.16-0.12.09-0.19.12-0.12.07-0.2.1L44.6,38l-0.2.08-0.14,0-0.21,0-0.14,0-0.29,0H43.18l-0.21,0H42.83l-0.51-.06-0.15,0H42.08l-0.15,0-0.07,0-0.15-.07-0.2-.1-0.14-.09-0.14-.1L41,37.42l-0.1-.11-0.12-.17L40.68,37l-0.15-.26-0.08-.14-0.07-.15-0.06-.16-0.06-.15,0-.14,0-.15,0-.22,0-.17,0-.17,0-.34V34.79l0-.61V34l0-.61V33.24l0-.61V31.69l0-.32V31l0-.16,0.07-.09,0.12,0,0.31,0,0.35,0h0.81l0.12,0L42,30.88,42,31V31.3l0,0.39v0.16l0,0.61V33.4L42,34V35l0,0.25,0,0.16,0.06,0.22,0.06,0.15L42.23,36l0.09,0.12,0.15,0.17,0.12,0.08,0.2,0.08,0.14,0,0.24,0h0.15l0.24-.05,0.14,0,0.18-.09L44,36.22l0.15-.14L44.25,36l0.1-.21,0.06-.15,0-.16,0-.16,0-.3V34.81l0-.61V34l0-.62V33.25l0-.61V32.48l0-.62V31.69l0-.42V31l0-.14,0.08-.08,0.12,0h0.2l0.47,0h0.15l0.37,0h0.29l0.12,0,0.07,0.07v1l0,0.62v0.16l0,0.61v0.16l0,0.62Z" transform="translate(-0.85 -1.75)"/><path class="b" d="M54.34,38l-0.12,0H52.9l-0.42,0H52.36l-0.08,0-0.07-.08-0.3-.45-0.08-.12-0.3-.43-0.08-.12-0.26-.46-0.08-.12-0.3-.43-0.07-.08-0.06,0H50.57l-0.3,0H50.15l-0.07.06,0,0.13,0,0.55v0.16l0,0.56v0.72l0,0.12,0,0-0.1,0H49.77l-0.45,0-0.43,0H48.74l-0.43,0L48.2,38l-0.06,0,0-.1V37.56l0-.26V37.13l0-.54V36.43l0-.54V35l0-.54V34.33l0-.54V33.62l0-.54V32.92l0-.53V31.52l0-.33V31l0-.13,0.06-.08,0.11,0h0.21l0.42,0,1.11,0,0.63,0h0.15l0.61,0H52l0.14,0,0.2,0.06,0.14,0.05L52.62,31l0.15,0.06,0.14,0.07L53,31.2l0.18,0.13,0.1,0.09,0.09,0.1,0.09,0.12,0.13,0.2L53.71,32l0.11,0.19,0.06,0.14L54,32.46l0,0.16,0,0.16v0.16l0,0.22v0.32l0,0.17,0,0.17L54,34l-0.06.15-0.06.15-0.08.15-0.08.13-0.08.12-0.08.11L53.36,35l-0.1.09-0.19.11L53,35.23l-0.12.07-0.12,0-0.07,0,0,0.08L53,36l0.08,0.12,0.33,0.49,0.09,0.12,0.33,0.5L54,37.32l0.29,0.36,0.08,0.11,0,0.11Zm-2.82-3.87,0.21,0,0.12,0L52,34,52,33.84l0.06-.15,0-.16V33.19l0-.17,0-.15L52,32.72l-0.08-.12-0.1-.09-0.13-.06-0.21,0-0.15,0H50.74l-0.47,0H50.16l-0.06,0L50,32.5v0.34l0,0.16,0,0.17v0.17l0,0.55V34l0,0.06,0.06,0,0.11,0,0.48,0H50.9Z" transform="translate(-0.85 -1.75)"/><path class="b" d="M60.76,31.56v0.69l0,0.12,0,0.07-0.06.05-0.11,0H60.37l-0.28,0H59.95l-0.43,0H59.37l-0.23,0H58.93l-0.09,0,0,0.06v0.13l0,0.59v0.16l0,0.6v0.16l0,0.6V35l0,0.59v0.92l0,0.59v0.15l0,0.45v0.16l0,0.12,0,0.05-0.12,0H58.43L58.2,38H58l-0.42,0H57.47l-0.42,0H56.94l-0.06,0,0-.11V37.7l0-.42V34.84l0-.6V33.31l0-.59V32.58l0-.08-0.09,0H56.59l-0.3,0H56.13l-0.25,0H55.13l-0.1,0-0.06,0,0-.06,0-.1V32l0-.3V31.57l0-.38V31l0-.13,0-.07,0.06,0,0.09,0h0.21l0.34,0h0.15l0.54,0h0.15l0.55,0.05h0.15l0.69-.05H60l0.31,0h0.23l0.11,0,0.07,0,0,0.07,0,0.12v0.22Z" transform="translate(-0.85 -1.75)"/><path class="b" d="M67.35,37.56v0.25l0,0.12L67.26,38l-0.07,0L67.1,38H66.89l-1-.06h-0.7l-0.84.06-0.54,0H63.1l-0.43,0H62.4l-0.1,0-0.07,0,0-.06,0-.12V37.64l0-.38V37.1l0-.53V36.41l0-.53V35.72l0-1.23V34.33l0-1.23V31.55l0-.3V31l0-.13,0-.06,0.07,0,0.1,0h0.21l0.46,0H64l0.07,0,0,0.07v0.88l0,0.58v0.16l0,0.58v0.16l0,0.58V34l0,0.58v0.16l-0.06,1.33v0.15l0,0,0,0,0.11,0,0.32,0,0.28,0H65l1.34,0h0.15l0.32,0H67.1l0.11,0,0.07,0.06,0,0.07v0.83Z" transform="translate(-0.85 -1.75)"/><path class="b" d="M74.22,37.08v0.16l0,0.54v0.1l0,0.07,0,0-1.22,0H72.71l-0.49,0H72.07l-0.48,0H70.8l-0.48,0H70.16l-0.8.05L69,38l-0.11,0-0.06,0,0-.07,0-.11,0-.23V37.1l0-.53V35.72l0-.53V35l0-.54V33.62l0-.53V32.93l0-.53V32l0-.3V31.54l0-.52V30.88l0-.08,0,0H69l0.12,0,0.61,0h0.72l0.56,0h0.15l0.56,0h0.15l1.27,0H73.3l0.32,0h0.23l0.13,0L74,30.82l0,0.07,0,0.13v0.27l0,0.25v0.72l0,0.12,0,0.07,0,0-0.11,0H73.63l-0.87,0H72.6l-0.47,0H72l-0.48,0-0.42,0H70.86l-0.09,0,0,0.05v0.06l0,0.11,0,0.24v0.44l0,0.07,0,0,0.1,0,0.3,0,0.3,0h0.88l1-.06,0.29,0,0.1,0,0.05,0.05,0,0.06v0.11l0,0.17v0.5l0,0.23,0,0.3,0,0.12,0,0.07-0.06.05-0.09,0H73.49l-0.42,0H72.92l-0.74.05-0.6,0H71.43l-0.37,0H70.79l0,0,0,0.07v0.15l0,0.25v0.48l0,0.07,0,0h0.1l0.51,0h0.15l0.5,0,0.66,0h0.15l0.66,0h0.28l0.33,0,0.06,0,0,0.06v0.11Z" transform="translate(-0.85 -1.75)"/><path class="b" d="M86,37.11l-0.07.08-0.17.16-0.11.09-0.18.14-0.11.08-0.19.11-0.12.07L84.84,38,84.7,38l-0.16.05-0.16,0-0.23,0-0.33,0H83.66l-0.23,0H82.78l-0.16,0-0.16,0-0.16,0-0.14-.05-0.42-.12-0.2-.08-0.12-.06-0.18-.11-0.11-.09L81,37.51l-0.13-.09-0.24-.22-0.11-.12-0.1-.13-0.1-.15-0.08-.14-0.07-.14-0.07-.14L80,36.16l-0.14-.42-0.07-.2-0.09-.3,0-.15V34.37l0-.34V33.87l0-.15,0-.22,0-.15,0-.15,0-.14,0.07-.2,0.06-.14,0.07-.15,0.07-.15,0.08-.15,0.08-.14L80.46,32l0.1-.14,0.11-.13,0.11-.11,0.12-.11,0.11-.1,0.3-.22,0.12-.08L81.56,31l0.28-.14L82,30.81l0.15-.05,0.32-.08,0.16,0,0.16,0,0.29,0,0.21,0h0.34L84,30.66l0.13,0,0.21,0,0.33,0.1,0.13,0.06L85,31,85.1,31.1l0.24,0.18,0.29,0.22,0.1,0.08,0.06,0.05,0.06,0.07,0,0.08v0.08l-0.06.08-0.08.11-0.1.11-0.1.1-0.1.09-0.1.11-0.16.2-0.1.12,0,0.05-0.08.08-0.07,0H84.79l-0.07,0-0.1-.06-0.18-.14-0.12-.07-0.21-.1L84,32.52l-0.21-.06-0.14,0-0.23,0H83.27l-0.21,0-0.15,0-0.2.07-0.14.06-0.12.05-0.19.1-0.13.1-0.06.06L82,33l-0.08.14-0.07.13-0.06.14-0.06.15,0,0.16,0,0.17,0,0.15,0,0.3V35l0,0.23,0,0.15,0.07,0.17,0.08,0.15L82,35.88,82.07,36l0.18,0.16,0.12,0.09,0.19,0.1,0.14,0.06,0.21,0.06,0.15,0h0.44l0.13,0,0.07,0,0.14,0,0.23-.09,0.15-.07,0.14-.07,0.12-.07L84.65,36l0.12-.1,0.09-.07,0.06,0,0.08,0,0.1,0.07L85.2,36l0,0.06,0.09,0.11,0.15,0.2,0.09,0.12,0.25,0.31,0.08,0.12L86,37l0,0.09v0.06Z" transform="translate(-0.85 -1.75)"/><path class="b" d="M94.68,37.75l0,0.14L94.65,38l-0.1.05-0.12,0H94.29l-0.21,0H93.52l-0.58,0-0.12,0L92.77,38l0-.11L92.43,37l-0.06-.1-0.08,0H92.17l-0.56,0H91.46l-0.7,0H89.5l-0.12,0-0.07,0L89.25,37,89,37.69,89,37.85l-0.1.13L88.74,38H88.59L88,38H87.9l-0.58,0H87.2L87.09,38,87,37.88V37.75l0-.08,0.06-.16,0.13-.31L87.28,37l0.23-.56,0.06-.14,0.24-.56,0.06-.15,0.21-.54,0.06-.15,0.25-.56,0.06-.14,0.33-.83L89,32.8l0.07-.16,0.21-.45L89.38,32l0.18-.46,0.06-.15L89.78,31l0-.11,0.09-.06,0.14,0,0.43,0h1.15l0.16,0,0.1,0.08,0,0.13,0.13,0.39,0.06,0.15L92.37,32l0.05,0.14,0.21,0.49,0.06,0.14,0.17,0.51,0.06,0.14L93.11,34l0.06,0.14,0.21,0.49,0.06,0.14,0.19,0.5,0.06,0.14L94,36l0.22,0.47,0.07,0.14,0.25,0.63Zm-3.11-2.83,0-.13-0.2-.68,0-.15-0.19-.59,0-.13L91,33.15l-0.12,0-0.1,0-0.09.1-0.25.68-0.06.15-0.24.67,0,0.15,0,0.12,0.1,0.05,0.13,0h0.59l0.44,0,0.12,0L91.55,35Z" transform="translate(-0.85 -1.75)"/><path class="b" d="M102.15,33.35v0.47l0,0.25,0,0.16-0.07.2-0.06.14-0.09.19-0.08.13-0.13.19-0.1.12-0.12.12-0.12.11-0.12.09-0.13.09-0.2.1-0.14.07-0.16.07-0.14,0-0.2.06-0.14,0-0.14,0H99.76l-0.24,0h-1.1l-0.16,0-0.11,0,0,0.07V36.3l0,0.67v0.83l0,0.11L98,38l0,0-0.1,0-0.3,0-0.36,0H97.06l-0.3,0H96.4l-0.12,0-0.06-.06,0-.12,0-.15V36.41l0-.53V35.72l0-.53V35l0-1.23V33.64l0-.54V32.93l0-.53V32.24l0-.53V31.55l0-.3V31l0-.11,0-.06,0,0h0.1l0.27,0h1.6l0.62,0h0.62l0.35,0h0.21l0.14,0,0.21,0.06,0.15,0.05L100.72,31l0.14,0.07L101,31.16l0.12,0.1,0.17,0.16,0.11,0.1,0,0.06,0.17,0.18,0.09,0.13,0,0.06,0.07,0.12,0,0.06,0.05,0.13,0,0.15,0,0.14v0.07l0,0.14,0,0.08,0,0.14,0.06,0.28v0.08Zm-2.78,1,0.17,0,0.16,0,0.07,0,0.13-.08,0.06,0,0.09-.1,0-.06,0.07-.13,0-.07,0-.16V33.28l0-.15,0-.08-0.06-.13,0-.06-0.1-.12-0.07,0-0.14-.08-0.24-.07-0.15,0H99.16l-0.28,0-0.41,0H98.25l-0.1,0,0,0,0,0.07,0,0.12V33l0,0.37v0.87l0,0.07,0.1,0,0.48,0Z" transform="translate(-0.85 -1.75)"/><path class="a" d="M28.24,26.47C38.44,5.83,61.7,3.07,68.86,3.07c16.6,0,32.13,10.12,40.07,23.74" transform="translate(-0.85 -1.75)"/><path class="a" d="M43.25,53.93a5.07,5.07,0,0,1-5.12-5v-5h2v5a3.08,3.08,0,0,0,6.17,0V43.67h2v5.22A5,5,0,0,1,43.25,53.93Z" transform="translate(-0.85 -1.75)"/><path class="c" d="M57.39,17.36v0.08l0,0.27v0.05l0,0,0,0-0.63,0H56.62l-0.25,0H56.28l-0.25,0H55.63l-0.25,0H55.3l-0.41,0H54.67l0,0V17.37l0-.27V15.61l0-.27V14.19l0,0h0.1l0.31,0h0.37l0.29,0h0.08l0.29,0h0.81l0.16,0H57.2l0.07,0,0,0V15l0,0,0,0H56l-0.22,0H55.61l0,0v0.47l0,0,0.05,0h0.76l0.54,0h0.2l0,0v0.75l0,0,0,0H57l-0.22,0H56.72l-0.38,0H56l-0.19,0H55.62l0,0v0.52l0,0H56l0.26,0,0.34,0h0.08L57,17h0.14l0.17,0,0,0,0,0v0.33Z" transform="translate(-0.85 -1.75)"/><path class="c" d="M61.09,16.7V17l0,0.11,0,0.07,0,0.1,0,0.07-0.06.09,0,0.06-0.06.06-0.06.06-0.1.07-0.06,0-0.07,0-0.07,0-0.11,0-0.14.05-0.08,0-0.12,0H59.61l-0.23,0H59l-0.08,0-0.07,0-0.11,0-0.07,0-0.07,0-0.07,0-0.06,0-0.15-.11-0.06-.05-0.09-.07-0.06-.05-0.05-.06,0,0v0l0,0,0,0,0-.06L58.27,17l0-.06,0.08-.13,0-.06,0-.06,0.05,0h0.05l0.05,0,0.15,0.11,0.07,0,0.07,0L59,17l0.07,0,0.08,0,0.08,0h0.19l0.3,0h0.11l0.07,0,0.06,0,0-.05,0,0,0-.08V16.64l0-.07,0,0L60,16.49l0,0-0.07,0-0.08,0-0.08,0-0.46,0-0.14,0-0.08,0-0.11,0-0.07,0-0.07,0-0.16-.09-0.06,0-0.07,0-0.06,0-0.08-.07,0-.07,0-.08,0-.08,0-.11V15l0-.08,0-.07,0-.08,0-.11,0-.07,0-.06,0-.06,0.08-.08,0.06-.05,0.06,0,0.07,0,0.09-.06,0.14-.06,0.07,0,0.11,0,0.08,0,0.14,0,0.11,0h0.23l0.14,0h0.18l0.16,0,0.08,0,0.08,0,0.08,0,0.08,0,0.07,0,0.07,0,0.09,0.06,0.07,0,0.06,0,0,0v0.05l0,0.06-0.05.1,0,0.06L60.53,15l-0.05.07-0.06.05,0,0h0l0,0-0.07,0-0.07,0,0,0-0.07,0h0l-0.08,0-0.11,0H59.42l-0.08,0-0.08,0,0,0-0.06,0,0,0,0,0.07v0.15l0,0.07,0.05,0.05,0.06,0,0,0,0.07,0,0.12,0h0.16l0.08,0,0.16,0,0.15,0.05,0.11,0,0.07,0,0.13,0.05,0.1,0,0.07,0,0.07,0,0.06,0L60.8,16l0.05,0.06,0,0.06L61,16.21l0,0.07,0,0.08,0,0.08,0,0.11V16.7Z" transform="translate(-0.85 -1.75)"/><path class="c" d="M64.41,14.58V15l0,0H64.22l-0.14,0H64l-0.22,0h-0.3l0,0,0,0v0.07l0,0.3v0.08l0,0.3v0.08l0,0.3v1.22l0,0.23v0.14l0,0H63.22l-0.12,0H63l-0.22,0H62.72l-0.21,0H62.45l0,0V16.23l0-.3V15H61.47l0,0,0,0V14.24l0,0,0,0h0.16l0.18,0h0.08l0.28,0h0.08l0.28,0h0.08l0.35,0h1.4l0,0,0,0v0.33Z" transform="translate(-0.85 -1.75)"/><path class="c" d="M69.29,17.63v0.15l0,0,0,0,0,0H68l-0.48,0H67.39l-0.05,0,0,0V17.38l0-.15V17.11l0-.06h0.05l0.19,0H67.8l0,0V16.56l0-.3V15.39l0,0h0l-0.17.06-0.07,0H67.4l0,0,0,0V14.71l0,0,0,0,0,0,0,0,0.07,0,0.14,0,0.07,0,0.25-.1,0.07,0,0.25-.09,0.07,0,0.11-.06,0.08,0,0.07,0h0.06l0,0,0,0v1.64l0,0.31v0.08l0,0.31v0.08l0,0.31V17l0,0,0,0h0.43l0,0v0.51Z" transform="translate(-0.85 -1.75)"/><path class="c" d="M73,15.85l0,0.33v0.67l0,0.12,0,0.07,0,0.1,0,0.07-0.06.1,0,0.07-0.08.1-0.06.06-0.06.06-0.06,0-0.07,0-0.08,0-0.1.05-0.07,0-0.07,0-0.07,0-0.14,0-0.08,0-0.16,0-0.12,0H71.26l-0.21,0-0.08,0-0.12,0-0.08,0-0.08,0-0.08,0-0.07,0-0.07,0-0.07,0-0.06,0-0.08-.07-0.05-.06,0,0,0-.07-0.05-.11,0-.08,0-.07,0-.16V16.79l0,0H70.3l0.22,0h0.33l0.06,0,0,0,0,0.06,0,0L71,17l0,0,0.06,0,0.08,0,0.08,0h0.37l0.08,0,0.07,0,0.07,0,0.06-.06L72,16.85l0-.08,0-.07V16.56l0-.08,0-.07,0,0h0l0,0-0.07,0-0.08,0-0.11,0-0.07,0H70.89l-0.08,0-0.08,0-0.08,0-0.13-.07-0.07,0-0.11-.07-0.06-.05-0.08-.08,0-.06L70.09,16l0-.08,0-.15,0-.13v-0.5L70,15,70,15l0-.11,0-.07,0.05-.1,0-.06,0.07-.08,0.05-.06,0.08-.07,0.07-.05,0.07,0,0.07,0,0.11-.05,0.07,0,0.11,0,0.18,0,0.15,0H71.8l0.08,0,0.11,0,0.16,0.05,0.08,0,0.08,0,0.07,0,0.1,0.07,0.06,0,0.09,0.07,0.05,0.05,0.07,0.09,0,0.06,0,0.07,0,0.07L72.94,15l0,0.08v0.79Zm-1-.4V15.32l0-.08,0-.06,0-.05,0,0-0.05,0-0.06,0,0,0-0.07,0-0.12,0H71.25l-0.08,0,0,0-0.06,0L71,15.14l0,0.06,0,0,0,0.12v0.16l0,0.07,0,0.07,0.05,0.06,0.06,0,0.11,0.06,0.07,0,0.11,0H71.5l0.15,0,0.08,0,0.08,0,0.07,0,0.05-.06,0-.07,0,0,0-.08v0Z" transform="translate(-0.85 -1.75)"/><path class="c" d="M76.82,17v0.13l0,0.07,0,0-0.06,0H76.56l0,0,0,0,0,0.06v0.46l0,0.05-0.07,0H76.22l-0.28,0H75.57l0,0,0-.07V17.29l0-.06,0,0H75.37l-0.32,0H75l-0.72,0H74.19l-0.18,0H73.86l-0.06,0,0,0V17.09l0-.29V16.72l0-.3V16.37l0,0,0,0,0.16-.22L74,16l0.18-.21,0.05-.06,0.18-.2,0.05-.06,0.18-.2,0-.06L74.81,15,74.86,15l0.18-.2,0.05-.06,0.08-.1,0-.07,0-.06,0.05-.05,0.18-.2,0,0,0,0h0.37l0.26,0h0.2l0,0v2.08l0,0.06,0.06,0H76.7l0.06,0,0,0V17ZM75.1,16.4h0.34l0,0,0-.06V16.23l0-.27V15.55l0,0h0l0,0-0.17.18-0.05.06L75,16,75,16.07l-0.17.17,0,0v0l0,0,0.06,0h0.2Z" transform="translate(-0.85 -1.75)"/><path class="c" d="M80.65,16.64V17l0,0.07,0,0.11,0,0.07-0.07.1,0,0.06-0.08.09-0.05,0-0.1.07-0.07,0-0.11,0-0.08,0-0.08,0-0.08,0-0.11,0-0.07,0-0.18,0H78.77l-0.24,0-0.12,0-0.08,0-0.11,0-0.07,0-0.1-.05-0.07,0-0.09-.07-0.06-.05-0.07-.09,0-.06-0.06-.09,0-.07,0-.11,0-.07v-0.4l0-.12,0-.08,0.05-.11,0-.07,0-.06,0-.06,0.05-.06,0.05,0L77.92,16V15.91l0-.05-0.05-.07,0-.08,0-.08,0-.08,0-.08,0-.09V15l0-.09,0-.08,0-.08,0-.08,0-.07,0-.06,0.07-.09L78,14.45l0.06-.06,0.07,0,0,0,0.08,0,0,0,0.08,0,0.07,0,0.11,0,0.07,0,0.07,0h0.68l0.16,0,0.09,0,0.23,0.08,0.07,0,0.1,0,0.07,0,0.09,0.06,0.07,0,0.06,0.06,0.05,0.06,0.07,0.09,0,0.07,0,0.08,0,0.08,0,0.09v0.43l0,0.11,0,0.07,0,0.08-0.05.07-0.06.06,0,0.05V16l0,0,0.06,0.06,0.05,0.06,0.09,0.14,0,0.07,0,0.11,0,0.08ZM79.42,17l0.07,0,0,0,0.06-.06,0,0,0-.08V16.62l0-.07,0,0-0.06-.06,0,0-0.07,0-0.1,0-0.07,0-0.11,0H78.89l-0.11,0-0.07,0,0,0-0.06.06,0,0,0,0.07,0,0.08v0.1l0,0.08,0,0,0.06,0.07L78.7,17l0.07,0,0.08,0,0.08,0h0.3l0.07,0Zm-0.73-1.94,0,0,0,0.07,0,0.07v0.11l0,0.07,0,0,0.05,0.06,0,0,0.07,0,0,0,0.08,0,0.12,0h0.22l0.11,0,0.06,0,0,0,0-.05,0,0,0-.07,0-.08V15.21l0-.07,0-.06L79.43,15l-0.06,0L79.3,15l-0.07,0H79L78.9,15l-0.1,0-0.06,0Z" transform="translate(-0.85 -1.75)"/></svg>