<?xml version="1.0" encoding="utf-8"?>
<!-- Generator: Adobe Illustrator 20.1.0, SVG Export Plug-In . SVG Version: 6.00 Build 0)  -->
<svg version="1.1" id="Layer_1" xmlns="http://www.w3.org/2000/svg" xmlns:xlink="http://www.w3.org/1999/xlink" x="0px" y="0px"
	 viewBox="0 0 113.8 69.3" style="enable-background:new 0 0 113.8 69.3;" xml:space="preserve">
<style type="text/css">
	.st0{fill:#383030;}
	.st1{fill:#E50C0C;}
	.st2{fill:#FFFFFF;}
	.st3{fill:#95FFFC;}
</style>
<path class="st2" d="M98.7,49.5H7.9c-4.7,0,0.5-8.5,0.5-8.5v0c3.1-4.6,5.5-8.5,5.5-8.5h84.8c4.7,0,8.5,3.8,8.5,8.5v0
	C107.2,45.7,103.4,49.5,98.7,49.5z"/>
<path class="st0" d="M90.6,49.1l-3,0.4c-0.1-0.6-0.2-1.1-0.3-1.6c-5.5-30.4-38.1-30.8-39.5-30.8c-18.6,0-34.7,12.8-39.1,30.7
	c-0.2,0.7-0.3,1.4-0.4,2.1l-3-0.6c0.1-0.5,0.2-1,0.3-1.5c4.4-19.7,22-33.7,42.3-33.7c1.2,0,23.2,0.2,35.4,16.4c0.7,0.9,1.4,2,2,3
	c2.4,3.9,4.2,8.7,5.1,14.3C90.5,48.3,90.6,48.7,90.6,49.1z"/>
<path class="st0" d="M87.4,47.9L8.7,47.8c4.4-17.9,20.5-30.7,39.2-30.7C49.3,17.1,81.9,17.5,87.4,47.9z"/>
<path class="st0" d="M108.2,40.6v0.2c0,5.6-4.6,10.1-10.1,10.1l-68.3-0.1h-3h-4.6h-3L5,50.8l0.6-3h3.1l78.7,0.1h3.1h7.6
	c3.9,0,7.1-3.2,7.1-7.1v-0.2c0-3.9-3.2-7.1-7.1-7.1H82.4v-3H98C103.6,30.5,108.1,35.1,108.2,40.6z"/>
<path class="st0" d="M11.5,63.4L11.5,63.4c-3.6,0-6.4-2.8-6.5-6.2v-6.4h3l0.1,6.3c0.1,1.8,1.5,3.2,3.4,3.2h0.1
	c1.8,0,3.2-1.4,3.3-3.2v-6.5h3v6.5C17.8,60.6,15,63.4,11.5,63.4z"/>
<path class="st1" d="M97.9,30.6c-0.3-2.8-2.9-4.9-5.7-4.5c-2.4,0.3-4.3,2.2-4.5,4.5"/>
<path class="st1" d="M99.6,30.6h-3.3c0-1.9-1.5-3.4-3.4-3.4s-3.4,1.5-3.4,3.4H86c0-3.8,3.1-6.8,6.8-6.8S99.6,26.8,99.6,30.6z"/>
<rect x="94.1" y="42.6" class="st0" width="12" height="2.6"/>
<ellipse class="st0" cx="99.6" cy="38.1" rx="1.7" ry="1.7"/>
<path class="st0" d="M83.9,63.3L83.9,63.3c-3.5,0-6.3-2.8-6.4-6.2v-8.8h3V57c0,1.8,1.5,3.2,3.3,3.2h0.1c1.8,0,3.3-1.4,3.4-3.2v-6.9
	h3V57C90.2,60.5,87.4,63.3,83.9,63.3z"/>
<path class="st0" d="M24.5,58.3c-2.9,0-5.3-2.3-5.3-5.2l0,0v-4.8h3v4.8c0.1,1.3,1.2,2.2,2.4,2.2c1.2-0.1,2.1-1,2.2-2.2v-4.6h3v4.6
	C29.7,56,27.4,58.3,24.5,58.3z"/>
<path class="st1" d="M99.5,30.6h3.1c0.7,0,1.3-0.6,1.3-1.3l0,0l0,0c0-0.7-0.6-1.3-1.3-1.3l0,0h-4.7"/>
<path class="st0" d="M71.7,59.5c-2.9,0-5.3-2.3-5.3-5.2l0,0v-4.8h3v4.8c0.1,1.3,1.2,2.2,2.4,2.2c1.2-0.1,2.1-1,2.2-2.2v-4.6h3v4.6
	C76.9,57.2,74.6,59.5,71.7,59.5z"/>
<path class="st2" d="M39.2,25.1L39.2,25.1v0.3l0,0l0,0l0,0h-0.6h-0.1h-0.2h-0.1H38h-0.4h-0.2h-0.1h-0.4h-0.2l0,0l0,0v-0.3v-0.2v-0.4
	v-0.2v-0.7v-0.2v-0.1v-0.2v-0.4v-0.2v-0.1l0,0l0,0h0.1h0.3h0.3h0.3h0.1h0.3h0.8H39h0.1h0.1l0,0v0.7l0,0l0,0H38h-0.2h-0.2l0,0v0.4
	l0,0h0.1h0.7h0.5H39l0,0l0,0V24l0,0l0,0h-0.1h-0.2h-0.1h-0.4h-0.4h-0.2h-0.1l0,0l0,0v0.1v0.1v0.2l0,0l0,0H38h0.2h0.3h0.1h0.3H39h0.2
	l0,0l0,0v0.4V25.1z"/>
<path class="st2" d="M42.7,24.5v0.2v0.1v0.1V25v0l0,0l-0.1,0.1v0.1l-0.1,0.1l-0.1,0.1l-0.1,0.1h-0.1L42,25.6h-0.1H42h-0.1h-0.1h-0.1
	h-0.3h-0.2h-0.3h-0.1h-0.1h-0.1h-0.1h-0.1h-0.1h-0.1l-0.1-0.1H40l0-0.3h-0.1l-0.1-0.1l0,0l0,0l0,0l0,0V25l0.1-0.1v-0.1l0.1-0.3v-0.1
	v-0.1h0.1h0.1h0.1l0.1,0.1h0.1h0.1l0.1,0.1h0.1h0.1H41h0.2h0.3h0.1h0.1h0.1l0,0l0,0v-0.1v-0.1v-0.1l0,0h-0.1l0,0h-0.1h-0.1h-0.1H41
	h-0.1h-0.1h-0.1h-0.1h-0.1L40.4,24h-0.1h-0.1h-0.1L40,23.9v-0.1v-0.1v-0.1v-0.1v-0.1v-0.1V23v-0.1v-0.1v-0.1v-0.1v-0.1v-0.1v-0.1
	l0.1-0.1h0.1h0.1h0.1l0.1-0.1l0.1-0.1h0.1h0.1h0.1H41h0.1h0.2h0.1h0.2h0.2h0.1H42h0.1h0.1h0.1h0.1l0.1,0.1h0.1h0.1l0,0v0.2v0.1
	l-0.1,0.1v0.1L42.2,23h-0.1H42l0,0l0,0l0,0l0,0h-0.1l0,0h-0.1l0,0h-0.1h-0.1h-0.5H41h0l0,0h-0.1l0,0v0.1v0.1v0.1v0.1H41l0,0l0,0h0.1
	h0.1h0.2h0.1h0.2h0.1h0.1H42h0.1h0.1h0.1h0.1h0.1l0.1,0.1v0.3v0.1l0.1,0.1v0.1v0.1v0.1L42.7,24.5L42.7,24.5
	C42.7,24.5,42.7,24.5,42.7,24.5z"/>
<path class="st2" d="M45.8,22.5v0.4l0,0l0,0h-0.2h-0.1l0,0h-0.2H45l0,0l0,0V23v0.3v0.1v0.3v0.1V24v1.2v0.2v0.1v0.1l0,0h-0.2h-0.1
	h-0.1h-0.2h-0.1H44h-0.1l0,0v-0.1v-0.2v-1.1v-0.3V23l0,0H43l0,0l0,0v-0.5v-0.2v-0.1v-0.1l0,0l0,0h0.1h0.2h0.1h0.3h0.1h0.3h0.1h0.3
	h1.3l0,0l0,0L45.8,22.5L45.8,22.5z"/>
<path class="st2" d="M50.3,25.3L50.3,25.3v0.2l0,0l0,0l0,0h-1.2h-0.4h-0.2h-0.1l0,0v-0.4V25v-0.1v-0.1h0.1h0.2h0.2l0,0l0,0v-0.5V24
	v-0.8l0,0l0,0l0,0l-0.2,0.1h-0.1h-0.2l0,0l0,0v-0.7l0,0l0,0l0,0l0,0h0.1h0.1h0.1l0.2-0.1H49l0.2-0.1h0.1l0.1-0.1h0.1h0.1h0.1l0,0
	l0,0v0.1v1.1v0.3v-0.2V24v0.1v0.3v0.1v0.3l0,0l0,0l0,0h0.5l0,0v0.5H50.3z"/>
<path class="st2" d="M53.8,23.7V24v0.6v0.1v0.1v0.1V25v0l-0.1,0.1v0.1l-0.1,0.1l-0.1,0.1h-0.3h-0.1H53h-0.1l0.1,0l0,0h-0.1h-0.1
	h-0.1h-0.1h-0.2h-0.1h-0.2H52h-0.1h-0.1h-0.1h-0.1h-0.1h-0.1h-0.1h-0.1h-0.1L51,25.3l-0.1-0.1l0,0v-0.1L50.8,25v-0.1V25v-0.1v-0.3
	l0,0l0,0H51h0.2h0.3h0.1l0,0v0.1l0,0v0.1l0,0H52l0,0h0.1h0.3h0.1h0.1h0.1l0.1-0.1l0.1-0.1v-0.1v-0.1v-0.1v-0.1v-0.1l0,0l0,0l0,0
	h-0.1h-0.1h-0.1h-0.1h-0.7h-0.1h-0.1h-0.1L51.4,24h-0.1l-0.1-0.1h-0.1l0.1,0.1v-0.1l-0.1-0.1v-0.1v-0.1v-0.1v-0.1v-0.2v-0.1V23v-0.1
	v-0.1v-0.1v-0.1l0.1-0.1v-0.1l0.1-0.1l0.1-0.1l0.1-0.1h0.1h0.1h0.1h0.1H52h0.1h0.2h0.1h0.5H53h0.1h0.2H53h0.1h0.1h0.2h0.1l0.1,0.1
	h0.1l0.1,0.1v0.1v0.1v0.1l0.1,0.1v0.1V23v0.1L53.8,23.7L53.8,23.7z M52.8,23.4v-0.1v-0.1v-0.1l0,0l0,0h-0.1h-0.1l0,0h-0.1h-0.1H52
	h-0.1l0,0H52v0v0.1l0,0v0.1v0.1v0.1v0.1v0.1l0.1,0.1h0.1l0.1,0.1h0.1h0.1h0.1h0.1h0.1h0.1H53l0.1-0.1v-0.1l0,0L52.8,23.4L52.8,23.4
	L52.8,23.4z"/>
<path class="st2" d="M57.3,24.7v0.1v0.1l0,0h-0.1H57l0,0l0,0V25l0,0v0.1v0.3v0.1l0,0l0,0h-0.2h-0.3h-0.3l0,0v-0.1V25l0,0l0,0H56
	h-0.3h-0.1h-0.7h-0.1h-0.2h-0.1h-0.1l0,0v-0.1l-0.1-0.3v-0.1v-0.3v-0.1l0,0l0,0l0.1-0.2v-0.1l0.2-0.2l0.1-0.1l0.2-0.2l0.1-0.1
	l0.2-0.2v-0.1l0.2-0.2l0.1-0.1l0.2-0.2l0.1-0.1l0.1-0.1v-0.1V22l0,0l0.2-0.2l0,0l0,0h0.3h0.2h0.2l0,0l0,0v0.1v0.3v1.1V24v0.1v0.1
	h0.1H57h0.1l0,0v0.1v0.4H57.3z M55.7,24.2H56l0,0v-0.1V24v-0.2v-0.4l0,0l0,0l0,0l-0.2,0.2l-0.1,0.1l-0.1,0.2L55.5,24l-0.2,0.2l0,0
	l0,0l0,0h0.1L55.7,24.2L55.7,24.2z"/>
<path class="st2" d="M60.9,24.4v0.3v0.1v0.1V25l0,0l-0.1,0.1v0.1l-0.1,0.1h-0.1l-0.1,0.1h-0.1h-0.1h-0.1h-0.1H60h-0.1H60h-0.2h-0.7
	h-0.2h-0.1h-0.1h-0.1h-0.1l-0.1,0.1h-0.1l-0.1-0.1h-0.1L58,25.3v-0.1l-0.1-0.1V25v-0.1v-0.1v-0.1v-0.3v-0.1v-0.1l0.1-0.1V24v-0.1V24
	l0.1-0.1h0.1l0.1-0.1l0,0l0,0l0,0l-0.1-0.1v-0.1v-0.1v-0.1v-0.1v-0.1v-0.1V23v-0.1v-0.1v-0.1v-0.1v-0.1v-0.1l0.1-0.1l0.1-0.1
	l0.1-0.1h0.1l0,0h0.1l0,0h0.1h0.1H59h0.1H59h0.6h0.2h0.1l0.3-0.1h0.1h0.1h0.1l0.1,0.1h0.1l0.1,0.1l0.1,0.1l0.1,0.1v0.1v0.1v0.1v0.1
	v0.3v0.1v0.1v0.1v0.1l-0.1,0.1v0.2l0,0l0,0l0,0l0,0l0.1,0.1l0.1,0.1l0.1,0.1v0.1v0.1v0.1L60.9,24.4z M59.7,24.8L59.7,24.8L59.7,24.8
	l0.1-0.1l0,0v-0.1v-0.2v-0.1l0,0l-0.1-0.1l0,0h-0.1h-0.1h-0.1h-0.1h-0.2H59h-0.1l0,0l0.1,0.1l0,0v0.1v0.1v0.1v0.1l0,0l0.1,0.1h0.1
	h0.1h0.1h0.1L59.7,24.8L59.7,24.8L59.7,24.8z M59.1,23L59.1,23L59.1,23v0.1v0.1v0.1l0,0l0.1,0.1l0,0h0.1l0,0h0.1h0.1h0.2h0.1h0.1
	l0,0l0,0l0,0v-0.1v-0.1l0,0v-0.1V23l-0.1-0.1h-0.1h-0.1h-0.1h-0.1h-0.1L59.1,23L59.1,23L59.1,23z"/>
<path class="st0" d="M84.2,33.6c-9.3-15.8-30.1-18.8-36.5-18.8c-15.5,0-28.1,7.4-35,18.8"/>
</svg>
