<svg xmlns="http://www.w3.org/2000/svg" viewBox="0 0 246.5 288.3" enable-background="new 0 0 246.5 288.3"><path fill="#F7F7EB" stroke="#000" stroke-width="4" stroke-linecap="round" stroke-linejoin="round" stroke-miterlimit="10" d="M29.3 249.4V92.5c0-6.3 5.4-11.4 12-11.4 0 0 24.6-6.2 81-6.2 54.8 0 83.7 6.2 83.7 6.2 6.6 0 12 5.1 12 11.4l-.6 158.2"/><path fill="#fff" stroke="#232323" stroke-width="4" stroke-linecap="round" stroke-linejoin="round" stroke-miterlimit="10" d="M205.2 206.5h-164c-2.7 0-4.9-2.1-4.9-4.7v-80.6c0-2.6 2.2-4.7 4.9-4.7h164c2.7 0 4.9 2.1 4.9 4.7v80.6c-.1 2.6-2.3 4.7-4.9 4.7z"/><path fill="#A0CAD8" d="M223 281.7h-41.5c-.8 0-1.4-1-1.4-2.2s.6-2.2 1.4-2.2l20.3 2 21.2-2c.8 0 1.4 1 1.4 2.2s-.6 2.2-1.4 2.2z"/><path fill="#232323" stroke="#232323" stroke-width="4.221" stroke-linecap="round" stroke-linejoin="round" stroke-miterlimit="10" d="M194.2 116.5H52.5c-1.2 0-2.2-1-2.2-2.3v-18c0-1.3 1-2.3 2.2-2.3h141.7c1.2 0 2.2 1 2.2 2.3v18.1c.1 1.2-.9 2.2-2.2 2.2z"/><path stroke="#232323" stroke-width="3.18" stroke-linecap="round" stroke-linejoin="round" stroke-miterlimit="10" d="M123.5 119.6v85.5" fill="none"/><path fill="#A0CAD8" d="M32.1 211.6h182.8v12H32.1z"/><path stroke="#232323" stroke-width="7.357" stroke-miterlimit="10" d="M217.5 259.3H30.1c-2.6 0-2.7-1.6-2.7-3.6v-.1c0-2 .1-3.6 2.7-3.6h187.4c2.6 0 2.7 1.6 2.7 3.6v.1c0 2-.1 3.6-2.7 3.6z" fill="none"/><path stroke="#232323" stroke-width="4" stroke-linecap="round" stroke-linejoin="round" stroke-miterlimit="10" d="M71 235c0 3.6-2.9 6.5-6.5 6.5H45.9c-3.6 0-6.5-2.9-6.5-6.5s2.9-6.5 6.5-6.5h18.5c3.7 0 6.6 2.9 6.6 6.5zm137.3 0c0 3.6-2.9 6.5-6.5 6.5h-18.5c-3.6 0-6.5-2.9-6.5-6.5s2.9-6.5 6.5-6.5h18.5c3.6 0 6.5 2.9 6.5 6.5z" fill="none"/><path d="M61.9 110.2l-4.1-5.8v5.8h-2.6V99.3h2.1l4.1 5.8v-5.8H64v10.8h-2.1zm10.2.2c-4.1 0-4.7-2.8-4.7-5.7 0-2.8.6-5.7 4.7-5.7 4.2 0 4.7 2.8 4.7 5.7 0 2.9-.5 5.7-4.7 5.7zm0-8.9c-1.7 0-2 1.1-2 3.3s.3 3.3 2 3.3 2-1.1 2-3.3-.3-3.3-2-3.3zm12.6.2v8.5H82v-8.5h-2.8v-2.4h8.4v2.4h-2.9zm10.4 8.5V99.3h2.7v10.8h-2.7zm13.2 0l-4.1-5.8v5.8h-2.6V99.3h2.1l4.1 5.8v-5.8h2.6v10.8h-2.1zm18.6-3.4c0 1.7-.9 3.7-4.7 3.7-1 0-2.9-.3-3.7-.7v-2.5c.6.3 2.2.9 3.7.9s1.9-.6 1.9-1.3c0-.6-.4-.9-1.6-1-3-.3-4.1-1.1-4.1-3.3 0-1.5.7-3.4 4.3-3.4 1.4 0 2.6.3 3.5.6v2.6c-1.7-.7-2.6-.9-3.5-.9-1.3 0-1.6.5-1.6 1.1 0 .6.6.8 1.7.9 2.8.2 4.1.8 4.1 3.3zm10.5-1h-4.5v2h5v2.4h-7.6V99.3h7.6v2.4h-5v1.7h4.5v2.4zm6.5 4.4h-2.7V99.3h4.1c3.2 0 4.2 1.3 4.2 3.4 0 1.3-.3 2.3-1.5 2.9l2.6 4.6h-3.2l-2.2-4.1h-1.3v4.1zm0-6.5h1.6c1.1 0 1.2-.4 1.2-1s-.1-1-1.2-1h-1.6v2zm15.5-4.4h2.9l-4.2 10.9h-1.9L152 99.3h2.9l2.3 6.7 2.2-6.7zm5.9 10.9V99.3h2.7v10.8h-2.7zm11.2-11.1c1.4 0 2.6.1 3.5.5v2.6c-1.7-.6-2.6-.7-3.5-.7-1.6 0-2.2 1.3-2.2 3.3 0 2 .6 3.3 2.2 3.3.9 0 1.8 0 3.5-.7v2.6c-.9.3-2.1.5-3.5.5-3.7 0-4.9-2.3-4.9-5.7s1.2-5.7 4.9-5.7zm14.1 6.7h-4.5v2h5v2.4h-7.6V99.3h7.6v2.4h-5v1.7h4.5v2.4z" fill="#FFD66A"/><circle fill="#FFD66A" stroke="#232323" stroke-width="3.089" stroke-linecap="round" stroke-linejoin="round" stroke-miterlimit="10" cx="39.9" cy="104.7" r="4.6"/><circle fill="#FFD66A" stroke="#232323" stroke-width="3.089" stroke-linecap="round" stroke-linejoin="round" stroke-miterlimit="10" cx="205.7" cy="104.7" r="4.6"/><path fill="#232323" stroke="#232323" stroke-width="4" stroke-linecap="round" stroke-linejoin="round" stroke-miterlimit="10" d="M210.4 261.7v12c0 2.1-1.7 3.8-3.8 3.8h-9.9c-2.1 0-3.8-1.7-3.8-3.8v-12"/><circle stroke="#232323" stroke-width="2.06" stroke-linecap="round" stroke-linejoin="round" stroke-miterlimit="10" cx="79.2" cy="213.3" r="1.7" fill="none"/><path fill="#A0CAD8" d="M66.5 281.5H25c-.8 0-1.4-1-1.4-2.2 0-1.2.6-2.2 1.4-2.2l20.3 2 21.2-2c.8 0 1.4 1 1.4 2.2 0 1.3-.6 2.2-1.4 2.2z"/><circle stroke="#232323" stroke-width="2.06" stroke-linecap="round" stroke-linejoin="round" stroke-miterlimit="10" cx="166.3" cy="213.3" r="1.7" fill="none"/><path stroke="#232323" stroke-width="3.166" stroke-linecap="round" stroke-linejoin="round" stroke-miterlimit="10" d="M80.9 211.6l23.4-43.2" fill="none"/><path stroke="#232323" stroke-width="4.221" stroke-linecap="round" stroke-linejoin="round" stroke-miterlimit="10" d="M104.3 138.4v39.3" fill="none"/><path stroke="#232323" stroke-width="3.166" stroke-linecap="round" stroke-linejoin="round" stroke-miterlimit="10" d="M164.7 211.6l-23.5-43.2" fill="none"/><path stroke="#232323" stroke-width="4.221" stroke-linecap="round" stroke-linejoin="round" stroke-miterlimit="10" d="M141.2 138.4v39.3" fill="none"/><path fill="#232323" stroke="#232323" stroke-width="4" stroke-linecap="round" stroke-linejoin="round" stroke-miterlimit="10" d="M54.2 261.7v12c0 2.1-1.7 3.8-3.8 3.8h-9.9c-2.1 0-3.8-1.7-3.8-3.8v-12"/><path stroke="#232323" stroke-width="3.642" stroke-linecap="round" stroke-linejoin="round" stroke-miterlimit="10" d="M48.8 241.6c-3.6 0-6.5-2.9-6.5-6.5s2.9-6.5 6.5-6.5m150.2 13c3.6 0 6.5-2.9 6.5-6.5s-2.9-6.5-6.5-6.5" fill="none"/><path stroke="#232323" stroke-width="4.398" stroke-linecap="round" stroke-linejoin="round" stroke-miterlimit="10" d="M168.7 74.3c0-.8 1.4-1.4 3.1-1.4 1.7 0 3.1.6 3.1 1.4m-107 0c0-.8 1.4-1.4 3.1-1.4s3.1.6 3.1 1.4" fill="none"/><path stroke="#232323" stroke-width="3.166" stroke-linecap="round" stroke-linejoin="round" stroke-miterlimit="10" d="M67.9 125.3l-23.1 23.1m17-26.9l-18.1 18.1" fill="none"/><path stroke="#fff" stroke-width="2.638" stroke-linecap="round" stroke-linejoin="round" stroke-miterlimit="10" stroke-dasharray="1.4585,8.752" d="M32.1 255.6h184.7" fill="none"/><path fill="#A0CAD8" d="M19 275.1c-.2 0-.5-.1-.7-.2l-16-8.3c-.7-.4-1-1.3-.6-2s1.3-1 2-.6l16 8.3c.7.4 1 1.3.6 2-.2.5-.8.8-1.3.8zm2-5.9c-.3 0-.6-.1-.9-.3l-14-10.4c-.7-.5-.8-1.4-.3-2.1.5-.7 1.4-.8 2.1-.3l14 10.4c.7.5.8 1.4.3 2.1-.3.4-.7.6-1.2.6zm205.4 7.1c-.5 0-1.1-.3-1.3-.8-.4-.7-.1-1.6.6-2l16-8.3c.7-.4 1.6-.1 2 .6.4.7.1 1.6-.6 2l-16 8.3c-.2.2-.4.2-.7.2zm-2-5.9c-.5 0-.9-.2-1.2-.6-.5-.7-.4-1.6.3-2.1l14-10.4c.7-.5 1.6-.4 2.1.3s.4 1.6-.3 2.1l-14 10.4c-.2.2-.6.3-.9.3z"/></svg>