<svg xmlns="http://www.w3.org/2000/svg" viewBox="0 0 246.5 288.3" enable-background="new 0 0 246.5 288.3"><path fill="#E0BA65" stroke="#000" stroke-width="4" stroke-linecap="round" stroke-linejoin="round" stroke-miterlimit="10" d="M202.3 204.4l2.1 60.3s-84.3 5.2-168.7 0l2.1-59.3"/><path fill="#E0BA65" stroke="#000" stroke-width="4" stroke-linecap="round" stroke-linejoin="round" stroke-miterlimit="10" d="M205.5 204.3s-64.2-1-85.5-1c-21.3 0-85.3 1-85.3 1v-52.8c88.5-5.8 170.8 0 170.8 0v52.8z"/><path stroke="#000" stroke-width="7" stroke-miterlimit="10" d="M97.8 148.3s-1.1-5.7 0-7.1c3.6-4.9 17.6-5.2 23.7-5.2 6.1 0 20.1.3 23.7 5.2 1.1 1.4 0 7.1 0 7.1" fill="none"/><path fill="#F7F7EB" d="M87.4 241.1l-5 4.5-4.9-4.5v-94.8h9.9z"/><path d="M86.3 191.9c-.1 2.6-.1 6.5-.1 12.5s0 9.9.1 12.5c-1.1-.1-2.5-.1-4-.1s-2.9 0-4 .1c.1-2.6.1-6.5.1-12.5s0-9.9-.1-12.5c1.1.1 2.5.1 4 .1s2.9-.1 4-.1m3.6-4zm0 0c-.2.5-3.9.7-7.6.7s-7.4-.2-7.6-.7c.4 1 .4 32 0 33 .2-.5 3.9-.7 7.6-.7s7.4.2 7.6.7c-.4-1-.4-32.1 0-33z"/><path fill="#F7F7EB" d="M164.9 241.1l-4.9 4.5-5-4.5v-94.8h9.9z"/><path d="M164.1 191.9c-.1 2.6-.1 6.5-.1 12.5s0 9.9.1 12.5c-1.1-.1-2.5-.1-4-.1s-2.9 0-4 .1c.1-2.6.1-6.5.1-12.5s0-9.9-.1-12.5c1.1.1 2.5.1 4 .1s2.8-.1 4-.1m3.6-4zm0 0c-.2.5-3.9.7-7.6.7-3.7 0-7.4-.2-7.6-.7.4 1 .4 32 0 33 .2-.5 3.9-.7 7.6-.7 3.7 0 7.4.2 7.6.7-.5-1-.5-32.1 0-33z"/><path stroke="#000" stroke-width="2.753" stroke-linecap="round" stroke-linejoin="round" stroke-miterlimit="10" stroke-dasharray="1.3764,11.011" fill="none" d="M159.9 172.7v62.9M82.3 172.7v62.9"/></svg>