<?xml version="1.0" encoding="utf-8"?>
<!-- Generator: Adobe Illustrator 17.1.0, SVG Export Plug-In . SVG Version: 6.00 Build 0)  -->
<!DOCTYPE svg PUBLIC "-//W3C//DTD SVG 1.1//EN" "http://www.w3.org/Graphics/SVG/1.1/DTD/svg11.dtd">
<svg version="1.1" id="Layer_1" xmlns="http://www.w3.org/2000/svg" xmlns:xlink="http://www.w3.org/1999/xlink" x="0px" y="0px"
	 viewBox="0 0 102 97" enable-background="new 0 0 102 97" xml:space="preserve">
<path fill="#F9CDDF" stroke="#333333" stroke-width="2.5" stroke-miterlimit="10" d="M33.8,57.4L7.9,61.9c-2.2,0.4-4.3-1.1-4.7-3.3
	l0,0c-0.4-2.2,1.1-4.3,3.3-4.7l25.9-4.5"/>
<g>
	<path fill="none" stroke="#333333" stroke-width="2" stroke-linecap="round" stroke-linejoin="round" stroke-miterlimit="10" d="
		M51.5,57.8c2.6-2.1,6.5,2.7,9.1,0.6c2.6-2.1-1.3-6.9,1.2-9c2.6-2.1,6.5,2.7,9.1,0.6c2.6-2.1-1.3-6.9,1.2-9c2.6-2.1,6.5,2.7,9.1,0.6
		"/>
</g>
<path fill="#F9CDDF" stroke="#333333" stroke-width="2.5" stroke-miterlimit="10" d="M57.6,58l17.9,19.2c-0.1,2.1,5.7,2.3,5.8,0.2
	l0,0c1.7-1.5,1.7-4.1,0.2-5.8L63.6,52.4"/>
<path fill="#F9CDDF" stroke="#333333" stroke-width="2.5" stroke-miterlimit="10" d="M48.9,63.5l7.3,25.2c0.6,2.2-0.6,4.4-2.8,5.1
	l0,0c-2.2,0.6-4.4-0.6-5.1-2.8L41,65.8"/>
<ellipse transform="matrix(0.9106 -0.4132 0.4132 0.9106 -17.8262 24.688)" fill="#F9CDDF" stroke="#333333" stroke-width="2.5" stroke-miterlimit="10" cx="48.2" cy="53.6" rx="20.6" ry="24.3"/>
<ellipse transform="matrix(0.8017 -0.5977 0.5977 0.8017 -11.7672 25.1325)" fill="#F9CDDF" stroke="#333333" stroke-width="2.5" stroke-miterlimit="10" cx="32" cy="30.3" rx="17.4" ry="14.9"/>
<ellipse transform="matrix(0.8017 -0.5977 0.5977 0.8017 -17.7214 24.4238)" fill="#FF7BAC" stroke="#333333" stroke-width="2.5" stroke-linecap="round" stroke-linejoin="round" stroke-miterlimit="10" cx="27.9" cy="38.9" rx="7.6" ry="6.7"/>
<circle fill="#333333" stroke="#333333" stroke-miterlimit="10" cx="25.4" cy="40.3" r="1.5"/>
<circle fill="#333333" stroke="#333333" stroke-miterlimit="10" cx="30.5" cy="36.5" r="1.5"/>
<circle fill="#333333" stroke="#333333" stroke-miterlimit="10" cx="21.8" cy="29.2" r="1.5"/>
<circle fill="#333333" stroke="#333333" stroke-miterlimit="10" cx="32.7" cy="21.7" r="1.5"/>
<path fill="#F9CDDF" stroke="#333333" stroke-width="2.5" stroke-miterlimit="10" d="M50.7,10.6c0.5,2.9-2.8,5.9-7.4,6.6
	c-4.6,0.8-8.7-1-9.2-3.9s4.1-2.1,8.7-2.8C47.4,9.7,50.2,7.7,50.7,10.6z"/>
<path fill="#F9CDDF" stroke="#333333" stroke-width="2.5" stroke-miterlimit="10" d="M6.3,43.5c2.6,1.3,6.4-1.1,8.4-5.2
	c2-4.2,1.5-8.6-1.1-9.9c-2.6-1.3-3.2,3.3-5.2,7.5C6.4,40.1,3.6,42.2,6.3,43.5z"/>
<path fill="#F9CDDF" stroke="#333333" stroke-width="2.5" stroke-linecap="round" stroke-linejoin="round" stroke-miterlimit="10" d="
	M52.5,35.9l7.4-25.2C60.6,8.6,62.8,7.3,65,8l0,0c2.2,0.6,3.4,2.9,2.8,5.1l-7.4,25.2"/>
</svg>
