<?xml version="1.0" encoding="utf-8"?>
<!-- Generator: Adobe Illustrator 17.1.0, SVG Export Plug-In . SVG Version: 6.00 Build 0)  -->
<!DOCTYPE svg PUBLIC "-//W3C//DTD SVG 1.1//EN" "http://www.w3.org/Graphics/SVG/1.1/DTD/svg11.dtd">
<svg version="1.1" id="Layer_1" xmlns="http://www.w3.org/2000/svg" xmlns:xlink="http://www.w3.org/1999/xlink" x="0px" y="0px"
	 viewBox="0 0 500 500" enable-background="new 0 0 500 500" xml:space="preserve">
<path fill="#EA2F2F" d="M260.5,404.7l-10.1,16.9c-0.8,1.4-2.8,1.4-3.7,0l-10.1-16.9c-0.8-1.4,0.2-3.2,1.8-3.2h20.1
	C260.3,401.4,261.3,403.2,260.5,404.7z"/>
<g id="XMLID_14_">
	<g>
		<linearGradient id="SVGID_1_" gradientUnits="userSpaceOnUse" x1="249.01" y1="252.7584" x2="249.01" y2="518.4138">
			<stop  offset="0" style="stop-color:#EA2F2F"/>
			<stop  offset="0.2301" style="stop-color:#D92F2F"/>
			<stop  offset="0.6812" style="stop-color:#AE2F2F"/>
			<stop  offset="0.975" style="stop-color:#8F2F2F"/>
		</linearGradient>
		<path fill="url(#SVGID_1_)" d="M402,257c0,0.1,0,0.2,0,0.3c-16.9,13.3-78.1,23.2-151.1,23.2c-77.9,0-143.3-11.3-154.9-26
			c0.1-5.9,0.5-11.7,1.2-17.3c2.7,16.5,70.5,29.7,152.6,29.7c83.7,0,141.8-11.5,151.2-27C401.7,245.5,402,251.2,402,257z"/>
		<linearGradient id="SVGID_2_" gradientUnits="userSpaceOnUse" x1="249" y1="269.4949" x2="249" y2="515.3009">
			<stop  offset="0" style="stop-color:#EA2F2F"/>
			<stop  offset="0.2301" style="stop-color:#D92F2F"/>
			<stop  offset="0.6812" style="stop-color:#AE2F2F"/>
			<stop  offset="0.975" style="stop-color:#8F2F2F"/>
		</linearGradient>
		<path fill="url(#SVGID_2_)" d="M402,257.3c0,4.6-0.2,9.1-0.6,13.5l-0.3,0c-9.4,13.2-62.2,27.7-148.1,27.7
			c-84.9,0-149.8-14.9-156.5-30c-0.3-3.8-0.4-7.6-0.4-11.5c0-0.8,0-1.6,0-2.4c11.6,14.7,77,26,154.9,26
			C323.9,280.5,385.1,270.7,402,257.3z"/>
		<linearGradient id="SVGID_3_" gradientUnits="userSpaceOnUse" x1="248.905" y1="282.9667" x2="248.905" y2="521.2275">
			<stop  offset="0" style="stop-color:#EA2F2F"/>
			<stop  offset="0.2301" style="stop-color:#D92F2F"/>
			<stop  offset="0.6812" style="stop-color:#AE2F2F"/>
			<stop  offset="0.975" style="stop-color:#8F2F2F"/>
		</linearGradient>
		<path fill="url(#SVGID_3_)" d="M401,270.8l0.3,0c-0.5,5.6-1.3,11.2-2.4,16.6c-14.8,12.2-76,23.7-149.2,23.7
			c-77.1,0-140.9-12.8-151.1-25.7c-1.1-5.5-1.8-11.2-2.2-17c6.7,15.1,71.6,30,156.5,30C338.9,298.5,391.6,284,401,270.8z"/>
		<linearGradient id="SVGID_4_" gradientUnits="userSpaceOnUse" x1="249.15" y1="240.1341" x2="249.15" y2="495.7937">
			<stop  offset="0" style="stop-color:#EA2F2F"/>
			<stop  offset="0.2301" style="stop-color:#D92F2F"/>
			<stop  offset="0.6812" style="stop-color:#AE2F2F"/>
			<stop  offset="0.975" style="stop-color:#8F2F2F"/>
		</linearGradient>
		<path fill="url(#SVGID_4_)" d="M398.7,225.2c1,4.8,1.8,9.7,2.4,14.7c-9.4,15.5-67.5,27-151.2,27c-82.1,0-149.9-13.2-152.6-29.7
			c0.5-3.8,1.1-7.5,1.9-11.2c11.5,14,72.9,23.3,149,23.3C325.7,249.4,388.9,239.7,398.7,225.2z"/>
		<linearGradient id="SVGID_5_" gradientUnits="userSpaceOnUse" x1="248.81" y1="297.7222" x2="248.81" y2="524.1725">
			<stop  offset="0" style="stop-color:#EA2F2F"/>
			<stop  offset="0.2301" style="stop-color:#D92F2F"/>
			<stop  offset="0.6812" style="stop-color:#AE2F2F"/>
			<stop  offset="0.975" style="stop-color:#8F2F2F"/>
		</linearGradient>
		<path fill="url(#SVGID_5_)" d="M399,287.4c-1,5.2-2.3,10.2-3.9,15.2l-0.3-0.1c-12.6,13.2-92.3,22.9-152.7,23.5
			c-57.4,0.6-133.5-13.7-140.4-27.5c-1.2-4.3-2.2-8.6-3.1-13.1c10.3,12.9,74,25.7,151.1,25.7C323,311.1,384.1,299.6,399,287.4z"/>
		<linearGradient id="SVGID_6_" gradientUnits="userSpaceOnUse" x1="248.395" y1="311.241" x2="248.395" y2="545.8024">
			<stop  offset="0" style="stop-color:#EA2F2F"/>
			<stop  offset="0.2301" style="stop-color:#D92F2F"/>
			<stop  offset="0.6812" style="stop-color:#AE2F2F"/>
			<stop  offset="0.975" style="stop-color:#8F2F2F"/>
		</linearGradient>
		<path fill="url(#SVGID_6_)" d="M394.8,302.5l0.3,0.1c-1.5,4.9-3.2,9.6-5.2,14.2c-20.2,11.8-75.8,23.8-141.3,23.8
			c-64.3,0-119.1-11.6-140.2-23.1c-2.6-6.1-4.9-12.4-6.7-18.9c6.9,13.8,83,28.1,140.4,27.5C302.4,325.5,382.1,315.8,394.8,302.5z"/>
		<linearGradient id="SVGID_7_" gradientUnits="userSpaceOnUse" x1="248.91" y1="226.9934" x2="248.91" y2="457.3122">
			<stop  offset="0" style="stop-color:#EA2F2F"/>
			<stop  offset="0.2301" style="stop-color:#D92F2F"/>
			<stop  offset="0.6812" style="stop-color:#AE2F2F"/>
			<stop  offset="0.975" style="stop-color:#8F2F2F"/>
		</linearGradient>
		<path fill="url(#SVGID_7_)" d="M394.6,209.8c1.6,5,3,10.2,4.1,15.4c-9.8,14.5-73,24.2-150.6,24.2c-76,0-137.5-9.3-149-23.3
			c1-4.9,2.3-9.8,3.8-14.6c14.1,15.8,92.9,24.2,144.5,24C308.8,235.3,387.5,230.4,394.6,209.8z"/>
		<linearGradient id="SVGID_8_" gradientUnits="userSpaceOnUse" x1="248.725" y1="214.3614" x2="248.725" y2="432.4855">
			<stop  offset="0" style="stop-color:#EA2F2F"/>
			<stop  offset="0.2301" style="stop-color:#D92F2F"/>
			<stop  offset="0.6812" style="stop-color:#AE2F2F"/>
			<stop  offset="0.975" style="stop-color:#8F2F2F"/>
		</linearGradient>
		<path fill="url(#SVGID_8_)" d="M394.6,209.8L394.6,209.8c-7.1,20.7-85.7,25.5-147.2,25.8c-51.6,0.2-130.3-8.3-144.5-24
			c1.2-3.9,2.6-7.8,4.1-11.6c17.5,12.8,94.5,18.8,140.1,18.6c54.4-0.2,131.6-6.4,143.2-20.4C391.8,201.9,393.3,205.8,394.6,209.8z"
			/>
		<linearGradient id="SVGID_9_" gradientUnits="userSpaceOnUse" x1="248.625" y1="181.8437" x2="248.625" y2="452.7305">
			<stop  offset="0" style="stop-color:#EA2F2F"/>
			<stop  offset="0.2301" style="stop-color:#D92F2F"/>
			<stop  offset="0.6812" style="stop-color:#AE2F2F"/>
			<stop  offset="0.975" style="stop-color:#8F2F2F"/>
		</linearGradient>
		<path fill="url(#SVGID_9_)" d="M271.5,105.7c53.7,7.9,98.4,43.8,118.7,92.4c-11.5,14-88.8,20.2-143.2,20.4
			c-45.5,0.2-122.5-5.8-140.1-18.6c19.8-49.3,64.6-85.9,118.7-94.1c2.1-0.3,3.6-3.2,4.6-6.7l3.2,3.4l3.8-4.1l3.8,4.1l3.8-4.1
			l3.8,4.1l3.9-4.1l3.8,4.1l3.9-4.1l3.9,4.1l3.3-3.5C268.3,102.5,269.5,105.3,271.5,105.7z"/>
		<linearGradient id="SVGID_10_" gradientUnits="userSpaceOnUse" x1="249.135" y1="336.593" x2="249.135" y2="589.0413">
			<stop  offset="0" style="stop-color:#EA2F2F"/>
			<stop  offset="0.2301" style="stop-color:#D92F2F"/>
			<stop  offset="0.6812" style="stop-color:#AE2F2F"/>
			<stop  offset="0.975" style="stop-color:#8F2F2F"/>
		</linearGradient>
		<path fill="url(#SVGID_10_)" d="M389.9,316.8C366.6,371.6,312.3,410,249,410c-63,0-117.2-38.1-140.6-92.5
			c21.1,11.6,75.9,23.1,140.2,23.1C314,340.6,369.6,328.6,389.9,316.8z"/>
		<path fill="#AA2929" d="M268.1,98.4l-0.5,0.6c0-0.2-0.1-0.4-0.1-0.6H268.1z"/>
		<path fill="#E2D771" d="M267.5,98.4c0,0.2,0.1,0.4,0.1,0.6l-3.3,3.5l-3.9-4.1H267.5z"/>
		<path fill="#E2D771" d="M267.5,98.4h-7.1h-7.7h-7.7h-7.7h-6.9c0.8-3.5,1.2-7.6,1.2-10.9c0.1-6.6,1.7-4.7,17.3-4.5
			c16,0.2,17.2-1.4,17.5,4.7C266.7,90.9,266.9,94.9,267.5,98.4z"/>
		<polygon fill="#E2D771" points="260.4,98.4 256.6,102.5 252.8,98.4 		"/>
		<polygon fill="#E2D771" points="252.8,98.4 248.9,102.5 245.1,98.4 		"/>
		<polygon fill="#E2D771" points="245.1,98.4 241.2,102.5 237.4,98.4 		"/>
		<path fill="#E2D771" d="M237.4,98.4l-3.8,4.1l-3.2-3.4c0.1-0.2,0.1-0.4,0.2-0.7H237.4z"/>
		<path fill="#AA2929" d="M230.5,98.4c-0.1,0.2-0.1,0.4-0.2,0.7l-0.6-0.7H230.5z"/>
	</g>
	<g>
		<polyline fill="none" stroke="#FFFFFF" stroke-width="1.0244" stroke-miterlimit="10" points="229.7,98.4 230.3,99 233.5,102.5 
			237.4,98.4 241.2,102.5 245.1,98.4 248.9,102.5 252.8,98.4 256.6,102.5 260.4,98.4 264.3,102.5 267.6,98.9 268.1,98.4 		"/>
		<path fill="none" stroke="#FFFFFF" stroke-width="5" stroke-linecap="round" stroke-miterlimit="10" d="M406.6,249.9
			c0,2.6-1.6,5.1-4.6,7.4c-16.9,13.3-78.1,23.2-151.1,23.2c-77.9,0-143.3-11.3-154.9-26c-1.2-1.5-1.8-3.1-1.8-4.7"/>
		<path fill="none" stroke="#FFFFFF" stroke-width="5" stroke-linecap="round" stroke-linejoin="round" d="M402.4,281.9
			c0,1.8-1.2,3.7-3.4,5.5c-14.8,12.2-76,23.7-149.2,23.7c-77.1,0-140.9-12.8-151.1-25.7c-1-1.2-1.5-2.4-1.5-3.6"/>
		<path fill="none" stroke="#FFFFFF" stroke-width="5" stroke-linecap="round" stroke-linejoin="round" d="M398,307.9
			c0,2.8-2.9,5.9-8.1,8.9c-20.2,11.8-75.8,23.8-141.3,23.8c-64.3,0-119.1-11.6-140.2-23.1c-6-3.3-9.2-6.6-9.2-9.6"/>
		<path fill="none" stroke="#FFFFFF" stroke-width="5" stroke-linecap="round" stroke-linejoin="round" d="M400,221.2
			c0,1.4-0.4,2.7-1.3,3.9c-9.8,14.5-73,24.2-150.6,24.2c-76,0-137.5-9.3-149-23.3c-1.3-1.6-1.9-3.2-1.9-4.8"/>
		<path fill="none" stroke="#FFFFFF" stroke-width="5" stroke-linecap="round" stroke-linejoin="round" d="M391.7,194.4
			c0,1.3-0.5,2.5-1.5,3.7c-11.5,14-88.8,20.2-143.2,20.4c-45.5,0.2-122.5-5.8-140.1-18.6c-2.3-1.7-3.6-3.6-3.6-5.5"/>
		<path fill="none" stroke="#000000" stroke-width="4" stroke-linecap="round" stroke-linejoin="round" stroke-dasharray="1,6" d="
			M394.6,209.8L394.6,209.8c-7.1,20.7-85.7,25.5-147.2,25.8c-51.6,0.2-130.3-8.3-144.5-24c-0.6-0.7-1.1-1.4-1.5-2.1"/>
		<path fill="none" stroke="#000000" stroke-width="4" stroke-linecap="round" stroke-linejoin="round" stroke-dasharray="1,6" d="
			M401,239.8C401,239.8,401,239.9,401,239.8c-9.4,15.5-67.5,27-151.2,27c-82.1,0-149.9-13.2-152.6-29.7c-0.1-0.3-0.1-0.7-0.1-1"/>
		<path fill="none" stroke="#000000" stroke-width="4" stroke-linecap="round" stroke-linejoin="round" stroke-dasharray="1,6" d="
			M401,270.8c-9.4,13.2-62.2,27.7-148.1,27.7c-84.9,0-149.8-14.9-156.5-30c-0.1-0.2-0.2-0.4-0.2-0.6"/>
		<path fill="none" stroke="#000000" stroke-width="4" stroke-linecap="round" stroke-linejoin="round" stroke-dasharray="1,6" d="
			M394.8,302.5c-12.6,13.2-92.3,22.9-152.7,23.5c-57.4,0.6-133.5-13.7-140.4-27.5"/>
	</g>
</g>
<path fill="none" stroke="#FFFFFF" stroke-width="3.5968" stroke-miterlimit="10" d="M110,256.7"/>
<path fill="none" stroke="#000000" stroke-width="2" stroke-miterlimit="10" d="M243.6,82.6c0-4.1,2.5-7.5,5.5-7.5s5.5,3.4,5.5,7.5"
	/>
</svg>
