<?xml version="1.0" encoding="utf-8"?>
<!-- Generator: Adobe Illustrator 17.1.0, SVG Export Plug-In . SVG Version: 6.00 Build 0)  -->
<!DOCTYPE svg PUBLIC "-//W3C//DTD SVG 1.1//EN" "http://www.w3.org/Graphics/SVG/1.1/DTD/svg11.dtd">
<svg version="1.1" id="Layer_1" xmlns="http://www.w3.org/2000/svg" xmlns:xlink="http://www.w3.org/1999/xlink" x="0px" y="0px"
	 viewBox="0 0 500 500" enable-background="new 0 0 500 500" xml:space="preserve">
<line fill="none" stroke="#FBC673" stroke-width="1.9061" stroke-miterlimit="10" x1="406.1" y1="286.6" x2="35.8" y2="286.9"/>
<path fill="#D7D9DB" d="M480.6,392H19.3V195.7c0,0-1.9-5.5,0-11.4c1.5-4.9,22.6,0,22.6,0h418c0,0,18.7-2,20.6,0
	c2.1,2.1,0,19.2,0,19.2V392z"/>
<polygon fill="#FFFFFF" stroke="#A6A8AB" stroke-width="1.9061" stroke-miterlimit="10" points="405.1,375.5 36.5,375.5 35.5,197.6 
	406.1,197.6 "/>
<line fill="none" stroke="#FBC673" stroke-width="1.9018" stroke-miterlimit="10" x1="406.1" y1="345.2" x2="37.4" y2="345.5"/>
<path fill="none" stroke="#F17E9B" stroke-width="1.9061" stroke-miterlimit="10" d="M406.1,296.1c-3,0-3-14.8-6.1-14.8
	c-3,0-3,14.8-6.1,14.8c-3,0-3-14.8-6.1-14.8c-3,0-3,14.8-6.1,14.8c-3,0-3-14.8-6.1-14.8c-3,0-3,14.8-6.1,14.8c-3,0-3-14.8-6.1-14.8
	c-3,0-3,14.8-6,14.8c-3,0-3-14.8-6.1-14.8c-3,0-3,14.8-6,14.8c-3,0-3-14.8-6.1-14.8c-3,0-3,14.8-6.1,14.8c-3,0-3-14.8-6.1-14.8
	c-3,0-3,14.8-6.1,14.8c-3,0-3-14.8-6.1-14.8c-3,0-3,14.8-6.1,14.8c-3,0-3-14.8-6.1-14.8c-3,0-3,14.8-6.1,14.8c-3,0-3-14.8-6.1-14.8
	c-3,0-3,14.8-6.1,14.8c-3,0-3-14.8-6.1-14.8c-3,0-3,14.8-6.1,14.8c-3,0-3-14.8-6.1-14.8c-3,0-3,14.8-6.1,14.8c-3,0-3-14.8-6.1-14.8
	c-3,0-3,14.8-6.1,14.8c-3,0-3-14.8-6.1-14.8c-3,0-3,14.8-6.1,14.8c-3,0-3-14.8-6.1-14.8c-3,0-3,14.8-6.1,14.8c-3,0-3-14.8-6.1-14.8
	c-3,0-3,14.8-6.1,14.8c-3,0-3-14.8-6.1-14.8c-3,0-3,14.8-6.1,14.8c-3,0-3-14.8-6.1-14.8c-3,0-3,14.8-6.1,14.8c-3,0-3-14.8-6.1-14.8
	c-3,0-3,14.8-6.1,14.8c-3,0-3-14.8-6.1-14.8c-3,0-3,14.8-6.1,14.8c-3,0-3-14.8-6.1-14.8c-3,0-3,14.8-6.1,14.8c-3,0-3-14.8-6.1-14.8
	c-3,0-3,14.8-6.1,14.8c-3,0-3-14.8-6.1-14.8c-3,0-3,14.8-6.1,14.8c-3,0-3-14.8-6.1-14.8c-3,0-3,14.8-6.1,14.8c-3,0-3-14.8-6.1-14.8
	c-3,0-3,14.8-6.1,14.8c-3,0-3-14.8-6.1-14.8c-3,0-3,14.8-6.1,14.8c-3,0-3-14.8-6.1-14.8c-3,0-3,14.8-6.1,14.8
	c-3,0-3.1-14.8-6.1-14.8c-3,0-3,14.8-6.1,14.8c-3,0-3-14.8-6.1-14.8c-3,0-3,14.8-6.1,14.8c-3,0-3.1-14.8-6.1-14.8
	c-3,0-3,14.8-6.1,14.8c-3,0-3.1-14.8-6.1-14.8"/>
<line fill="none" stroke="#FBC673" stroke-width="1.9061" stroke-miterlimit="10" x1="406.1" y1="233.3" x2="35.8" y2="233.5"/>
<path fill="none" stroke="#F17E9B" stroke-width="1.9061" stroke-miterlimit="10" d="M406.1,240.8c-3,0-3-14.8-6.1-14.8
	c-3,0-3,14.8-6.1,14.8c-3,0-3-14.8-6.1-14.8c-3,0-3,14.8-6.1,14.8c-3,0-3-14.8-6.1-14.8c-3,0-3,14.8-6.1,14.8c-3,0-3-14.8-6.1-14.8
	c-3,0-3,14.8-6,14.8c-3,0-3-14.8-6.1-14.8c-3,0-3,14.8-6,14.8c-3,0-3-14.8-6.1-14.8s-3,14.8-6.1,14.8c-3,0-3-14.8-6.1-14.8
	c-3,0-3,14.8-6.1,14.8c-3,0-3-14.8-6.1-14.8c-3,0-3,14.8-6.1,14.8c-3,0-3-14.8-6.1-14.8c-3,0-3,14.8-6.1,14.8c-3,0-3-14.8-6.1-14.8
	c-3,0-3,14.8-6.1,14.8c-3,0-3-14.8-6.1-14.8c-3,0-3,14.8-6.1,14.8c-3,0-3-14.8-6.1-14.8c-3,0-3,14.8-6.1,14.8c-3,0-3-14.8-6.1-14.8
	c-3,0-3,14.8-6.1,14.8c-3,0-3-14.8-6.1-14.8c-3,0-3,14.8-6.1,14.8c-3,0-3-14.8-6.1-14.8c-3,0-3,14.8-6.1,14.8c-3,0-3-14.8-6.1-14.8
	c-3,0-3,14.8-6.1,14.8c-3,0-3-14.8-6.1-14.8c-3,0-3,14.8-6.1,14.8c-3,0-3-14.8-6.1-14.8c-3,0-3,14.8-6.1,14.8c-3,0-3-14.8-6.1-14.8
	c-3,0-3,14.8-6.1,14.8c-3,0-3-14.8-6.1-14.8c-3,0-3,14.8-6.1,14.8c-3,0-3-14.8-6.1-14.8c-3,0-3,14.8-6.1,14.8c-3,0-3-14.8-6.1-14.8
	c-3,0-3,14.8-6.1,14.8c-3,0-3-14.8-6.1-14.8c-3,0-3,14.8-6.1,14.8c-3,0-3-14.8-6.1-14.8c-3,0-3,14.8-6.1,14.8c-3,0-3-14.8-6.1-14.8
	c-3,0-3,14.8-6.1,14.8c-3,0-3-14.8-6.1-14.8c-3,0-3,14.8-6.1,14.8c-3,0-3-14.8-6.1-14.8c-3,0-3,14.8-6.1,14.8c-3,0-3-14.8-6.1-14.8
	c-3,0-3,14.8-6.1,14.8c-3,0-3-14.8-6.1-14.8c-3,0-3,14.8-6.1,14.8c-3,0-3.1-14.8-6.1-14.8c-3,0-3,14.8-6.1,14.8
	c-3,0-3.1-14.8-6.1-14.8"/>
<path fill="none" stroke="#F17E9B" stroke-width="1.9061" stroke-miterlimit="10" d="M406.1,354.5c-3,0-3-14.8-6.1-14.8
	c-3,0-3,14.8-6.1,14.8c-3,0-3-14.8-6.1-14.8c-3,0-3,14.8-6.1,14.8c-3,0-3-14.8-6.1-14.8c-3,0-3,14.8-6.1,14.8c-3,0-3-14.8-6.1-14.8
	c-3,0-3,14.8-6,14.8c-3,0-3-14.8-6.1-14.8c-3,0-3,14.8-6,14.8c-3,0-3-14.8-6.1-14.8c-3,0-3,14.8-6.1,14.8c-3,0-3-14.8-6.1-14.8
	c-3,0-3,14.8-6.1,14.8c-3,0-3-14.8-6.1-14.8c-3,0-3,14.8-6.1,14.8c-3,0-3-14.8-6.1-14.8c-3,0-3,14.8-6.1,14.8c-3,0-3-14.8-6.1-14.8
	c-3,0-3,14.8-6.1,14.8c-3,0-3-14.8-6.1-14.8c-3,0-3,14.8-6.1,14.8c-3,0-3-14.8-6.1-14.8c-3,0-3,14.8-6.1,14.8c-3,0-3-14.8-6.1-14.8
	c-3,0-3,14.8-6.1,14.8c-3,0-3-14.8-6.1-14.8c-3,0-3,14.8-6.1,14.8c-3,0-3-14.8-6.1-14.8c-3,0-3,14.8-6.1,14.8c-3,0-3-14.8-6.1-14.8
	c-3,0-3,14.8-6.1,14.8c-3,0-3-14.8-6.1-14.8c-3,0-3,14.8-6.1,14.8c-3,0-3-14.8-6.1-14.8c-3,0-3,14.8-6.1,14.8c-3,0-3-14.8-6.1-14.8
	c-3,0-3,14.8-6.1,14.8c-3,0-3-14.8-6.1-14.8c-3,0-3,14.8-6.1,14.8c-3,0-3-14.8-6.1-14.8c-3,0-3,14.8-6.1,14.8c-3,0-3-14.8-6.1-14.8
	c-3,0-3,14.8-6.1,14.8c-3,0-3-14.8-6.1-14.8c-3,0-3,14.8-6.1,14.8c-3,0-3-14.8-6.1-14.8c-3,0-3,14.8-6.1,14.8c-3,0-3-14.8-6.1-14.8
	c-3,0-3,14.8-6.1,14.8c-3,0-3-14.8-6.1-14.8c-3,0-3,14.8-6.1,14.8c-3,0-3-14.8-6.1-14.8c-3,0-3,14.8-6.1,14.8c-3,0-3-14.8-6.1-14.8
	c-3,0-3,14.8-6.1,14.8c-3,0-3.1-14.8-6.1-14.8c-3,0-3,14.8-6.1,14.8c-3,0-3.1-14.8-6.1-14.8c-3,0-3,14.8-6.1,14.8
	c-3,0-3.1-14.8-6.1-14.8"/>
<g opacity="0.2">
	<path fill="none" stroke="#F28092" stroke-width="1.9061" stroke-miterlimit="10" d="M406.1,244.6c-3,0-3-14.8-6.1-14.8
		c-3,0-3,14.8-6.1,14.8c-3,0-3-14.8-6.1-14.8c-3,0-3,14.8-6.1,14.8c-3,0-3-14.8-6.1-14.8c-3,0-3,14.8-6.1,14.8c-3,0-3-14.8-6.1-14.8
		c-3,0-3,14.8-6,14.8c-3,0-3-14.8-6.1-14.8c-3,0-3,14.8-6,14.8c-3,0-3-14.8-6.1-14.8s-3,14.8-6.1,14.8c-3,0-3-14.8-6.1-14.8
		c-3,0-3,14.8-6.1,14.8c-3,0-3-14.8-6.1-14.8c-3,0-3,14.8-6.1,14.8c-3,0-3-14.8-6.1-14.8c-3,0-3,14.8-6.1,14.8c-3,0-3-14.8-6.1-14.8
		c-3,0-3,14.8-6.1,14.8c-3,0-3-14.8-6.1-14.8c-3,0-3,14.8-6.1,14.8c-3,0-3-14.8-6.1-14.8c-3,0-3,14.8-6.1,14.8s-3-14.8-6.1-14.8
		c-3,0-3,14.8-6.1,14.8c-3,0-3-14.8-6.1-14.8c-3,0-3,14.8-6.1,14.8c-3,0-3-14.8-6.1-14.8c-3,0-3,14.8-6.1,14.8c-3,0-3-14.8-6.1-14.8
		c-3,0-3,14.8-6.1,14.8c-3,0-3-14.8-6.1-14.8c-3,0-3,14.8-6.1,14.8c-3,0-3-14.8-6.1-14.8c-3,0-3,14.8-6.1,14.8c-3,0-3-14.8-6.1-14.8
		c-3,0-3,14.8-6.1,14.8c-3,0-3-14.8-6.1-14.8c-3,0-3,14.8-6.1,14.8c-3,0-3-14.8-6.1-14.8c-3,0-3,14.8-6.1,14.8c-3,0-3-14.8-6.1-14.8
		c-3,0-3,14.8-6.1,14.8c-3,0-3-14.8-6.1-14.8c-3,0-3,14.8-6.1,14.8c-3,0-3-14.8-6.1-14.8c-3,0-3,14.8-6.1,14.8c-3,0-3-14.8-6.1-14.8
		c-3,0-3,14.8-6.1,14.8c-3,0-3-14.8-6.1-14.8c-3,0-3,14.8-6.1,14.8c-3,0-3-14.8-6.1-14.8c-3,0-3,14.8-6.1,14.8c-3,0-3-14.8-6.1-14.8
		c-3,0-3,14.8-6.1,14.8c-3,0-3-14.8-6.1-14.8c-3,0-3,14.8-6.1,14.8c-3,0-3.1-14.8-6.1-14.8c-3,0-3,14.8-6.1,14.8
		c-3,0-3.1-14.8-6.1-14.8"/>
</g>
<g opacity="0.2">
	<path fill="none" stroke="#F16337" stroke-width="1.9061" stroke-miterlimit="10" d="M406.1,237c-3,0-3-14.8-6.1-14.8
		c-3,0-3,14.8-6.1,14.8c-3,0-3-14.8-6.1-14.8c-3,0-3,14.8-6.1,14.8c-3,0-3-14.8-6.1-14.8c-3,0-3,14.8-6.1,14.8c-3,0-3-14.8-6.1-14.8
		c-3,0-3,14.8-6,14.8c-3,0-3-14.8-6.1-14.8c-3,0-3,14.8-6,14.8c-3,0-3-14.8-6.1-14.8s-3,14.8-6.1,14.8c-3,0-3-14.8-6.1-14.8
		c-3,0-3,14.8-6.1,14.8c-3,0-3-14.8-6.1-14.8c-3,0-3,14.8-6.1,14.8c-3,0-3-14.8-6.1-14.8c-3,0-3,14.8-6.1,14.8c-3,0-3-14.8-6.1-14.8
		c-3,0-3,14.8-6.1,14.8c-3,0-3-14.8-6.1-14.8c-3,0-3,14.8-6.1,14.8c-3,0-3-14.8-6.1-14.8c-3,0-3,14.8-6.1,14.8c-3,0-3-14.8-6.1-14.8
		c-3,0-3,14.8-6.1,14.8c-3,0-3-14.8-6.1-14.8c-3,0-3,14.8-6.1,14.8c-3,0-3-14.8-6.1-14.8c-3,0-3,14.8-6.1,14.8c-3,0-3-14.8-6.1-14.8
		c-3,0-3,14.8-6.1,14.8c-3,0-3-14.8-6.1-14.8c-3,0-3,14.8-6.1,14.8c-3,0-3-14.8-6.1-14.8c-3,0-3,14.8-6.1,14.8c-3,0-3-14.8-6.1-14.8
		c-3,0-3,14.8-6.1,14.8c-3,0-3-14.8-6.1-14.8c-3,0-3,14.8-6.1,14.8c-3,0-3-14.8-6.1-14.8c-3,0-3,14.8-6.1,14.8c-3,0-3-14.8-6.1-14.8
		c-3,0-3,14.8-6.1,14.8c-3,0-3-14.8-6.1-14.8c-3,0-3,14.8-6.1,14.8c-3,0-3-14.8-6.1-14.8c-3,0-3,14.8-6.1,14.8c-3,0-3-14.8-6.1-14.8
		c-3,0-3,14.8-6.1,14.8c-3,0-3-14.8-6.1-14.8c-3,0-3,14.8-6.1,14.8c-3,0-3-14.8-6.1-14.8c-3,0-3,14.8-6.1,14.8c-3,0-3-14.8-6.1-14.8
		c-3,0-3,14.8-6.1,14.8c-3,0-3-14.8-6.1-14.8c-3,0-3,14.8-6.1,14.8c-3,0-3.1-14.8-6.1-14.8c-3,0-3,14.8-6.1,14.8
		c-3,0-3.1-14.8-6.1-14.8"/>
</g>
<line fill="none" stroke="#FBC673" stroke-width="1.9018" stroke-miterlimit="10" x1="405.1" y1="288.2" x2="36.4" y2="288.5"/>
<g opacity="0.2">
	<path fill="none" stroke="#F16337" stroke-width="1.9061" stroke-miterlimit="10" d="M406.7,290c-3,0-3-14.8-6.1-14.8
		c-3,0-3,14.8-6.1,14.8c-3,0-3-14.8-6.1-14.8c-3,0-3,14.8-6.1,14.8c-3,0-3-14.8-6.1-14.8c-3,0-3,14.8-6.1,14.8c-3,0-3-14.8-6.1-14.8
		c-3,0-3,14.8-6,14.8c-3,0-3-14.8-6.1-14.8c-3,0-3,14.8-6,14.8c-3,0-3-14.8-6.1-14.8c-3,0-3,14.8-6.1,14.8c-3,0-3-14.8-6.1-14.8
		c-3,0-3,14.8-6.1,14.8c-3,0-3-14.8-6.1-14.8c-3,0-3,14.8-6.1,14.8c-3,0-3-14.8-6.1-14.8c-3,0-3,14.8-6.1,14.8c-3,0-3-14.8-6.1-14.8
		c-3,0-3,14.8-6.1,14.8c-3,0-3-14.8-6.1-14.8c-3,0-3,14.8-6.1,14.8c-3,0-3-14.8-6.1-14.8c-3,0-3,14.8-6.1,14.8c-3,0-3-14.8-6.1-14.8
		c-3,0-3,14.8-6.1,14.8c-3,0-3-14.8-6.1-14.8c-3,0-3,14.8-6.1,14.8c-3,0-3-14.8-6.1-14.8c-3,0-3,14.8-6.1,14.8c-3,0-3-14.8-6.1-14.8
		c-3,0-3,14.8-6.1,14.8c-3,0-3-14.8-6.1-14.8c-3,0-3,14.8-6.1,14.8c-3,0-3-14.8-6.1-14.8c-3,0-3,14.8-6.1,14.8c-3,0-3-14.8-6.1-14.8
		c-3,0-3,14.8-6.1,14.8c-3,0-3-14.8-6.1-14.8c-3,0-3,14.8-6.1,14.8c-3,0-3-14.8-6.1-14.8c-3,0-3,14.8-6.1,14.8c-3,0-3-14.8-6.1-14.8
		c-3,0-3,14.8-6.1,14.8c-3,0-3-14.8-6.1-14.8c-3,0-3,14.8-6.1,14.8c-3,0-3-14.8-6.1-14.8c-3,0-3,14.8-6.1,14.8c-3,0-3-14.8-6.1-14.8
		c-3,0-3,14.8-6.1,14.8c-3,0-3-14.8-6.1-14.8c-3,0-3,14.8-6.1,14.8c-3,0-3-14.8-6.1-14.8c-3,0-3,14.8-6.1,14.8c-3,0-3-14.8-6.1-14.8
		c-3,0-3,14.8-6.1,14.8c-3,0-3-14.8-6.1-14.8c-3,0-3,14.8-6.1,14.8c-3,0-3.1-14.8-6.1-14.8c-3,0-3,14.8-6.1,14.8
		c-3,0-3.1-14.8-6.1-14.8"/>
</g>
<g opacity="0.2">
	<path fill="none" stroke="#F16337" stroke-width="1.8995" stroke-miterlimit="10" d="M404.8,350.3c-3,0-3-14.8-6-14.8
		c-3,0-3,14.8-6,14.8c-3,0-3-14.8-6-14.8c-3,0-3,14.8-6,14.8c-3,0-3-14.8-6-14.8c-3,0-3,14.8-6,14.8c-3,0-3-14.8-6-14.8
		c-3,0-3,14.8-6,14.8c-3,0-3-14.8-6-14.8c-3,0-3,14.8-6,14.8c-3,0-3-14.8-6-14.8c-3,0-3,14.8-6,14.8c-3,0-3-14.8-6-14.8
		c-3,0-3,14.8-6,14.8c-3,0-3-14.8-6-14.8c-3,0-3,14.8-6,14.8s-3-14.8-6-14.8c-3,0-3,14.8-6,14.8c-3,0-3-14.8-6-14.8
		c-3,0-3,14.8-6,14.8c-3,0-3-14.8-6-14.8c-3,0-3,14.8-6,14.8c-3,0-3-14.8-6-14.8c-3,0-3,14.8-6,14.8c-3,0-3-14.8-6-14.8
		c-3,0-3,14.8-6,14.8c-3,0-3-14.8-6-14.8c-3,0-3,14.8-6,14.8c-3,0-3-14.8-6-14.8c-3,0-3,14.8-6,14.8c-3,0-3-14.8-6-14.8
		c-3,0-3,14.8-6,14.8c-3,0-3-14.8-6-14.8c-3,0-3,14.8-6,14.8c-3,0-3-14.8-6-14.8c-3,0-3,14.8-6,14.8c-3,0-3-14.8-6-14.8
		c-3,0-3,14.8-6,14.8c-3,0-3-14.8-6-14.8c-3,0-3,14.8-6,14.8c-3,0-3-14.8-6-14.8c-3,0-3,14.8-6,14.8c-3,0-3-14.8-6-14.8
		c-3,0-3,14.8-6,14.8c-3,0-3-14.8-6-14.8c-3,0-3,14.8-6,14.8c-3,0-3-14.8-6-14.8c-3,0-3,14.8-6,14.8c-3,0-3-14.8-6-14.8
		c-3,0-3,14.8-6,14.8c-3,0-3-14.8-6-14.8c-3,0-3,14.8-6,14.8c-3,0-3-14.8-6-14.8c-3,0-3,14.8-6,14.8c-3,0-3-14.8-6-14.8
		c-3,0-3,14.8-6,14.8c-3,0-3-14.8-6-14.8c-3,0-3,14.8-6,14.8c-3,0-3-14.8-6.1-14.8c-3,0-3,14.8-6,14.8c-3,0-3-14.8-6.1-14.8"/>
</g>
<g opacity="0.2">
	<path fill="none" stroke="#F16337" stroke-width="1.9061" stroke-miterlimit="10" d="M406.7,299.5c-3,0-3-14.8-6.1-14.8
		c-3,0-3,14.8-6.1,14.8c-3,0-3-14.8-6.1-14.8c-3,0-3,14.8-6.1,14.8c-3,0-3-14.8-6.1-14.8c-3,0-3,14.8-6.1,14.8c-3,0-3-14.8-6.1-14.8
		c-3,0-3,14.8-6,14.8c-3,0-3-14.8-6.1-14.8c-3,0-3,14.8-6,14.8c-3,0-3-14.8-6.1-14.8c-3,0-3,14.8-6.1,14.8c-3,0-3-14.8-6.1-14.8
		c-3,0-3,14.8-6.1,14.8c-3,0-3-14.8-6.1-14.8c-3,0-3,14.8-6.1,14.8c-3,0-3-14.8-6.1-14.8c-3,0-3,14.8-6.1,14.8c-3,0-3-14.8-6.1-14.8
		c-3,0-3,14.8-6.1,14.8c-3,0-3-14.8-6.1-14.8c-3,0-3,14.8-6.1,14.8c-3,0-3-14.8-6.1-14.8c-3,0-3,14.8-6.1,14.8c-3,0-3-14.8-6.1-14.8
		c-3,0-3,14.8-6.1,14.8c-3,0-3-14.8-6.1-14.8c-3,0-3,14.8-6.1,14.8c-3,0-3-14.8-6.1-14.8c-3,0-3,14.8-6.1,14.8c-3,0-3-14.8-6.1-14.8
		c-3,0-3,14.8-6.1,14.8c-3,0-3-14.8-6.1-14.8c-3,0-3,14.8-6.1,14.8c-3,0-3-14.8-6.1-14.8c-3,0-3,14.8-6.1,14.8c-3,0-3-14.8-6.1-14.8
		c-3,0-3,14.8-6.1,14.8c-3,0-3-14.8-6.1-14.8c-3,0-3,14.8-6.1,14.8c-3,0-3-14.8-6.1-14.8c-3,0-3,14.8-6.1,14.8c-3,0-3-14.8-6.1-14.8
		c-3,0-3,14.8-6.1,14.8c-3,0-3-14.8-6.1-14.8c-3,0-3,14.8-6.1,14.8c-3,0-3-14.8-6.1-14.8c-3,0-3,14.8-6.1,14.8c-3,0-3-14.8-6.1-14.8
		c-3,0-3,14.8-6.1,14.8c-3,0-3-14.8-6.1-14.8c-3,0-3,14.8-6.1,14.8c-3,0-3-14.8-6.1-14.8c-3,0-3,14.8-6.1,14.8c-3,0-3-14.8-6.1-14.8
		c-3,0-3,14.8-6.1,14.8c-3,0-3-14.8-6.1-14.8c-3,0-3,14.8-6.1,14.8c-3,0-3.1-14.8-6.1-14.8c-3,0-3,14.8-6.1,14.8
		c-3,0-3.1-14.8-6.1-14.8"/>
</g>
<g opacity="0.2">
	<path fill="none" stroke="#F16337" stroke-width="1.9061" stroke-miterlimit="10" d="M406.7,351c-3,0-3-14.8-6.1-14.8
		c-3,0-3,14.8-6.1,14.8c-3,0-3-14.8-6.1-14.8c-3,0-3,14.8-6.1,14.8c-3,0-3-14.8-6.1-14.8c-3,0-3,14.8-6.1,14.8c-3,0-3-14.8-6.1-14.8
		c-3,0-3,14.8-6,14.8c-3,0-3-14.8-6.1-14.8c-3,0-3,14.8-6.1,14.8c-3,0-3-14.8-6.1-14.8c-3,0-3,14.8-6.1,14.8c-3,0-3-14.8-6.1-14.8
		c-3,0-3,14.8-6.1,14.8c-3,0-3-14.8-6.1-14.8c-3,0-3,14.8-6.1,14.8c-3,0-3-14.8-6.1-14.8c-3,0-3,14.8-6.1,14.8c-3,0-3-14.8-6.1-14.8
		c-3,0-3,14.8-6.1,14.8c-3,0-3-14.8-6.1-14.8c-3,0-3,14.8-6.1,14.8c-3,0-3-14.8-6.1-14.8c-3,0-3,14.8-6.1,14.8c-3,0-3-14.8-6.1-14.8
		c-3,0-3,14.8-6.1,14.8c-3,0-3-14.8-6.1-14.8c-3,0-3,14.8-6.1,14.8c-3,0-3-14.8-6.1-14.8c-3,0-3,14.8-6.1,14.8c-3,0-3-14.8-6.1-14.8
		c-3,0-3,14.8-6.1,14.8c-3,0-3-14.8-6.1-14.8c-3,0-3,14.8-6.1,14.8c-3,0-3-14.8-6.1-14.8c-3,0-3,14.8-6.1,14.8c-3,0-3-14.8-6.1-14.8
		c-3,0-3,14.8-6.1,14.8c-3,0-3-14.8-6.1-14.8c-3,0-3,14.8-6.1,14.8c-3,0-3-14.8-6.1-14.8c-3,0-3,14.8-6.1,14.8c-3,0-3-14.8-6.1-14.8
		c-3,0-3,14.8-6.1,14.8c-3,0-3-14.8-6.1-14.8c-3,0-3,14.8-6.1,14.8c-3,0-3-14.8-6.1-14.8c-3,0-3,14.8-6.1,14.8c-3,0-3-14.8-6.1-14.8
		c-3,0-3,14.8-6.1,14.8c-3,0-3-14.8-6.1-14.8c-3,0-3,14.8-6.1,14.8c-3,0-3-14.8-6.1-14.8c-3,0-3,14.8-6.1,14.8
		c-3,0-3.1-14.8-6.1-14.8c-3,0-3,14.8-6.1,14.8c-3,0-3-14.8-6.1-14.8c-3,0-3,14.8-6.1,14.8c-3,0-3.1-14.8-6.1-14.8
		c-3,0-3,14.8-6.1,14.8c-3,0-3.1-14.8-6.1-14.8"/>
</g>
<rect x="415.1" y="197.6" fill="#D0D2D3" stroke="#FFFFFF" stroke-width="1.9061" stroke-miterlimit="10" width="58.8" height="177.9"/>
<circle fill="#FBC673" stroke="#FFFFFF" stroke-width="1.4296" stroke-miterlimit="10" cx="444.4" cy="236.3" r="22.6"/>
<circle fill="#808184" stroke="#FFFFFF" stroke-width="1.9061" stroke-miterlimit="10" cx="444.4" cy="236.3" r="19.1"/>
<line fill="none" stroke="#F1F1F2" stroke-width="3.8121" stroke-linecap="round" stroke-miterlimit="10" x1="444.4" y1="236.6" x2="444.4" y2="254.3"/>
<g opacity="0.5">
	
		<line opacity="0.6" fill="none" stroke="#808184" stroke-width="1.4283" stroke-miterlimit="10" x1="36.2" y1="198.3" x2="36.2" y2="373.3"/>
	
		<line opacity="0.6" fill="none" stroke="#808184" stroke-width="1.4283" stroke-miterlimit="10" x1="45.2" y1="198.4" x2="45.2" y2="373.3"/>
	
		<line opacity="0.6" fill="none" stroke="#808184" stroke-width="1.4283" stroke-miterlimit="10" x1="54.2" y1="198.4" x2="54.2" y2="373.3"/>
	
		<line opacity="0.6" fill="none" stroke="#808184" stroke-width="1.4283" stroke-miterlimit="10" x1="63.2" y1="198.4" x2="63.2" y2="373.3"/>
	
		<line opacity="0.6" fill="none" stroke="#808184" stroke-width="1.4283" stroke-miterlimit="10" x1="72.2" y1="198.5" x2="72.2" y2="373.2"/>
	
		<line opacity="0.6" fill="none" stroke="#808184" stroke-width="1.4283" stroke-miterlimit="10" x1="81.2" y1="198.5" x2="81.2" y2="373.2"/>
	
		<line opacity="0.6" fill="none" stroke="#808184" stroke-width="1.4283" stroke-miterlimit="10" x1="90.2" y1="198.6" x2="90.2" y2="373.2"/>
	
		<line opacity="0.6" fill="none" stroke="#808184" stroke-width="1.4283" stroke-miterlimit="10" x1="99.2" y1="198.6" x2="99.2" y2="373.2"/>
	
		<line opacity="0.6" fill="none" stroke="#808184" stroke-width="1.4283" stroke-miterlimit="10" x1="108.2" y1="198.6" x2="108.2" y2="373.2"/>
	
		<line opacity="0.6" fill="none" stroke="#808184" stroke-width="1.4283" stroke-miterlimit="10" x1="117.3" y1="198.7" x2="117.3" y2="373.1"/>
	
		<line opacity="0.6" fill="none" stroke="#808184" stroke-width="1.4283" stroke-miterlimit="10" x1="126.3" y1="198.7" x2="126.3" y2="373.1"/>
	
		<line opacity="0.6" fill="none" stroke="#808184" stroke-width="1.4283" stroke-miterlimit="10" x1="135.3" y1="198.7" x2="135.3" y2="373.1"/>
	
		<line opacity="0.6" fill="none" stroke="#808184" stroke-width="1.4283" stroke-miterlimit="10" x1="144.3" y1="198.8" x2="144.3" y2="373.1"/>
	
		<line opacity="0.6" fill="none" stroke="#808184" stroke-width="1.4283" stroke-miterlimit="10" x1="153.3" y1="198.8" x2="153.3" y2="373.1"/>
	
		<line opacity="0.6" fill="none" stroke="#808184" stroke-width="1.4283" stroke-miterlimit="10" x1="162.3" y1="198.8" x2="162.3" y2="373.1"/>
	
		<line opacity="0.6" fill="none" stroke="#808184" stroke-width="1.4283" stroke-miterlimit="10" x1="171.3" y1="198.9" x2="171.3" y2="373"/>
	
		<line opacity="0.6" fill="none" stroke="#808184" stroke-width="1.4283" stroke-miterlimit="10" x1="180.3" y1="198.9" x2="180.3" y2="373"/>
	
		<line opacity="0.6" fill="none" stroke="#808184" stroke-width="1.4283" stroke-miterlimit="10" x1="189.3" y1="199" x2="189.3" y2="373"/>
	
		<line opacity="0.6" fill="none" stroke="#808184" stroke-width="1.4283" stroke-miterlimit="10" x1="198.4" y1="199" x2="198.4" y2="373"/>
	
		<line opacity="0.6" fill="none" stroke="#808184" stroke-width="1.4283" stroke-miterlimit="10" x1="207.4" y1="199" x2="207.4" y2="373"/>
	
		<line opacity="0.6" fill="none" stroke="#808184" stroke-width="1.4283" stroke-miterlimit="10" x1="216.4" y1="199.1" x2="216.4" y2="372.9"/>
	
		<line opacity="0.6" fill="none" stroke="#808184" stroke-width="1.4283" stroke-miterlimit="10" x1="225.4" y1="199.1" x2="225.4" y2="372.9"/>
	
		<line opacity="0.6" fill="none" stroke="#808184" stroke-width="1.4283" stroke-miterlimit="10" x1="234.4" y1="199.1" x2="234.4" y2="372.9"/>
	
		<line opacity="0.6" fill="none" stroke="#808184" stroke-width="1.4283" stroke-miterlimit="10" x1="243.4" y1="199.2" x2="243.4" y2="372.9"/>
	
		<line opacity="0.6" fill="none" stroke="#808184" stroke-width="1.4283" stroke-miterlimit="10" x1="252.4" y1="199.2" x2="252.4" y2="372.9"/>
	
		<line opacity="0.6" fill="none" stroke="#808184" stroke-width="1.4283" stroke-miterlimit="10" x1="261.4" y1="199.2" x2="261.4" y2="372.9"/>
	
		<line opacity="0.6" fill="none" stroke="#808184" stroke-width="1.4283" stroke-miterlimit="10" x1="270.4" y1="199.3" x2="270.4" y2="372.8"/>
	
		<line opacity="0.6" fill="none" stroke="#808184" stroke-width="1.4283" stroke-miterlimit="10" x1="279.4" y1="199.3" x2="279.4" y2="372.8"/>
	
		<line opacity="0.6" fill="none" stroke="#808184" stroke-width="1.4283" stroke-miterlimit="10" x1="288.5" y1="199.4" x2="288.5" y2="372.8"/>
	
		<line opacity="0.6" fill="none" stroke="#808184" stroke-width="1.4283" stroke-miterlimit="10" x1="297.5" y1="199.4" x2="297.5" y2="372.8"/>
	
		<line opacity="0.6" fill="none" stroke="#808184" stroke-width="1.4283" stroke-miterlimit="10" x1="306.5" y1="199.4" x2="306.5" y2="372.8"/>
	
		<line opacity="0.6" fill="none" stroke="#808184" stroke-width="1.4283" stroke-miterlimit="10" x1="315.5" y1="199.5" x2="315.5" y2="372.7"/>
	
		<line opacity="0.6" fill="none" stroke="#808184" stroke-width="1.4283" stroke-miterlimit="10" x1="324.5" y1="199.5" x2="324.5" y2="372.7"/>
	
		<line opacity="0.6" fill="none" stroke="#808184" stroke-width="1.4283" stroke-miterlimit="10" x1="333.5" y1="199.5" x2="333.5" y2="372.7"/>
	
		<line opacity="0.6" fill="none" stroke="#808184" stroke-width="1.4283" stroke-miterlimit="10" x1="342.5" y1="199.6" x2="342.5" y2="372.7"/>
	
		<line opacity="0.6" fill="none" stroke="#808184" stroke-width="1.4283" stroke-miterlimit="10" x1="351.5" y1="199.6" x2="351.5" y2="372.7"/>
	
		<line opacity="0.6" fill="none" stroke="#808184" stroke-width="1.4283" stroke-miterlimit="10" x1="360.5" y1="199.6" x2="360.5" y2="372.7"/>
	
		<line opacity="0.6" fill="none" stroke="#808184" stroke-width="1.4283" stroke-miterlimit="10" x1="369.5" y1="199.7" x2="369.5" y2="372.6"/>
	
		<line opacity="0.6" fill="none" stroke="#808184" stroke-width="1.4283" stroke-miterlimit="10" x1="378.6" y1="199.7" x2="378.6" y2="372.6"/>
	
		<line opacity="0.6" fill="none" stroke="#808184" stroke-width="1.4283" stroke-miterlimit="10" x1="387.6" y1="199.8" x2="387.6" y2="372.6"/>
	
		<line opacity="0.6" fill="none" stroke="#808184" stroke-width="1.4283" stroke-miterlimit="10" x1="396.6" y1="199.8" x2="396.6" y2="372.6"/>
	
		<line opacity="0.6" fill="none" stroke="#808184" stroke-width="1.4283" stroke-miterlimit="10" x1="405.6" y1="199.8" x2="405.6" y2="372.6"/>
</g>
<circle fill="#FFFFFF" cx="428.2" cy="299.1" r="5.6"/>
<circle fill="#FFFFFF" cx="444.2" cy="299.1" r="5.6"/>
<circle fill="#FFFFFF" cx="460.9" cy="299.1" r="5.6"/>
<polygon fill="#FFFFFF" points="473.9,198.3 415.1,198.3 444.4,205.7 "/>
<rect x="34.5" y="217.3" opacity="0.2" fill="#FBC673" width="370.3" height="31.4"/>
<polygon fill="#FFFFFF" points="474,374.8 415.2,374.8 444.5,367.4 "/>
<polygon fill="#BBBDBF" points="49.8,430.1 42.8,430.1 39,392 53.6,392 "/>
<polygon fill="#BBBDBF" points="466.9,430.1 459.9,430.1 456.1,392 470.7,392 "/>
<rect x="36.4" y="273.2" opacity="0.2" fill="#FBC673" width="370.3" height="31.4"/>
<rect x="36.5" y="330" opacity="0.2" fill="#FBC673" width="368.4" height="31.4"/>
<path fill="#F16337" d="M426.5,255.6c0,0,0.5,0.5,1.4,1.4c0.2,0.2,0.5,0.5,0.8,0.7c0.3,0.2,0.6,0.4,0.9,0.7c0.6,0.5,1.3,1.1,2.2,1.5
	c0.9,0.5,1.9,1.1,3,1.5c1.1,0.5,2.3,0.9,3.5,1.2c1.3,0.4,2.6,0.6,4,0.8c1.4,0.1,2.8,0.3,4.2,0.2c1.4,0.1,2.8-0.2,4.2-0.3
	c1.4-0.3,2.8-0.5,4-0.9c0.6-0.2,1.3-0.4,1.9-0.6c0.6-0.3,1.2-0.5,1.7-0.8c0.6-0.2,1.1-0.6,1.6-0.9c0.5-0.3,1-0.6,1.4-0.9
	c0.8-0.7,1.7-1.3,2.2-2c0.5-0.7,1.1-1.2,1.4-1.8c0.6-1.1,1-1.7,1-1.7s-0.3,0.7-0.9,1.8c-0.2,0.6-0.8,1.2-1.3,1.9
	c-0.5,0.8-1.3,1.4-2.1,2.2c-0.4,0.4-0.9,0.7-1.4,1.1c-0.5,0.3-1,0.8-1.5,1c-0.6,0.3-1.1,0.6-1.7,1c-0.6,0.3-1.3,0.5-1.9,0.8
	c-1.3,0.6-2.7,0.9-4.1,1.3c-1.5,0.3-2.9,0.6-4.4,0.7c-1.5,0.2-3,0.1-4.5,0.1c-1.5-0.1-3-0.2-4.4-0.5c-1.4-0.3-2.8-0.6-4-1.1
	c-1.3-0.4-2.4-0.9-3.5-1.4c-1.1-0.4-2-1.1-2.8-1.6c-0.4-0.3-0.8-0.5-1.2-0.8c-0.3-0.2-0.6-0.5-0.8-0.7c-1-0.8-1.5-1.3-1.5-1.3
	c-0.8-0.7-0.9-1.9-0.2-2.7c0.7-0.8,1.9-0.9,2.7-0.2C426.5,255.5,426.5,255.6,426.5,255.6z"/>
<text transform="matrix(1 0 0 1 416.4372 361.5218)" fill="#F16337" font-family="'SnellRoundhand-Black'" font-size="9.5304">Toasty Box</text>
<line opacity="0.3" fill="none" stroke="#A6A8AB" stroke-width="1.9061" stroke-miterlimit="10" x1="391.8" y1="231.9" x2="402.7" y2="241.5"/>
<circle fill="#F16337" cx="442.7" cy="342.4" r="5.6"/>
<line fill="none" stroke="#808184" stroke-width="1.9061" stroke-linejoin="round" stroke-miterlimit="10" x1="196.9" y1="182.1" x2="196.3" y2="167.1"/>
<line fill="none" stroke="#808184" stroke-width="7.6243" stroke-linecap="round" stroke-linejoin="round" stroke-miterlimit="10" x1="194.4" y1="167.1" x2="293" y2="167.1"/>
<line fill="none" stroke="#808184" stroke-width="1.9061" stroke-linejoin="round" stroke-miterlimit="10" x1="291.1" y1="167.1" x2="291.1" y2="182.1"/>
<line fill="none" stroke="#808184" stroke-width="1.4296" stroke-miterlimit="10" x1="35.8" y1="259.3" x2="405.8" y2="259.3"/>
<line fill="none" stroke="#808184" stroke-width="1.4296" stroke-miterlimit="10" x1="36.6" y1="321.1" x2="406.5" y2="321.1"/>
<g>
	<path fill="#F16337" d="M165.8,57.4c0-0.5,0.3-0.8,0.8-0.8c0.4,0,0.7,0.3,0.7,0.8v32.2c0,0.4-0.4,0.7-0.7,0.7
		c-0.5,0-0.8-0.3-0.8-0.7V57.4z M165.8,97.7c0-0.4,0.3-0.7,0.8-0.7c0.4,0,0.7,0.4,0.7,0.7v1.5c0,0.5-0.4,0.8-0.7,0.8
		c-0.5,0-0.8-0.3-0.8-0.8V97.7z"/>
	<path fill="#F16337" d="M226.9,79h-24.7v20.1c0,0.4-0.4,0.8-0.7,0.8c-0.5,0-0.8-0.4-0.8-0.8V57.4c0-0.4,0.3-0.8,0.8-0.8
		c0.4,0,0.7,0.4,0.7,0.8v20.1h24.7V57.4c0-0.4,0.3-0.8,0.7-0.8s0.8,0.4,0.8,0.8v41.8c0,0.4-0.4,0.8-0.8,0.8s-0.7-0.4-0.7-0.8V79z"/>
	<path fill="#F16337" d="M262,56c11.7,0,21.1,10,21.2,22.4c-0.1,12.5-9.5,22.4-21.2,22.4c-11.7,0-21.1-10-21.1-22.4
		C240.9,66,250.3,56,262,56z M262,99.1c10.6-0.1,19.4-9.3,19.5-20.8c-0.1-11.5-8.9-20.8-19.5-20.8c-10.7,0-19.5,9.2-19.5,20.8
		C242.5,89.8,251.3,99,262,99.1z"/>
	<path fill="#F16337" d="M303.8,58.2h-14.3c-0.4,0-0.8-0.3-0.8-0.7c0-0.4,0.4-0.8,0.8-0.8h30.2c0.5,0,0.8,0.4,0.8,0.8
		c0,0.4-0.3,0.7-0.8,0.7h-14.3v41c0,0.4-0.4,0.8-0.8,0.8c-0.5,0-0.8-0.4-0.8-0.8V58.2z"/>
</g>
<g>
	<path fill="none" stroke="#F16337" stroke-miterlimit="10" d="M160,108c2,0,2,6,4,6c2,0,2-6,4-6c2,0,2,6,4,6c2,0,2-6,4-6
		c2,0,2,6,4,6c2,0,2-6,4-6c2,0,2,6,4,6c2,0,2-6,4-6c2,0,2,6,4,6c2,0,2-6,4-6c2,0,2,6,4,6c2,0,2-6,4-6c2,0,2,6,4,6c2,0,2-6,4-6
		c2,0,2,6,4,6c2,0,2-6,4-6c2,0,2,6,4,6c2,0,2-6,4-6c2,0,2,6,4,6c2,0,2-6,4-6c2,0,2,6,4,6c2,0,2-6,4-6c2,0,2,6,4,6c2,0,2-6,4-6
		c2,0,2,6,4,6c2,0,2-6,4-6c2,0,2,6,4,6c2,0,2-6,4-6c2,0,2,6,4,6c2,0,2-6,4-6c2,0,2,6,4,6c2,0,2-6,4-6c2,0,2,6,4,6s2-6,4-6
		c2,0,2,6,4,6c2,0,2-6,4-6c2,0,2,6,4,6c2,0,2-6,4-6c2,0,2,6,4,6s2-6,4-6"/>
</g>
<polygon fill="none" stroke="#A6A8AB" stroke-width="1.9061" stroke-miterlimit="10" points="405,375 36.5,375 35.4,197.1 
	406.1,197.1 "/>
</svg>
