<svg xmlns="http://www.w3.org/2000/svg" viewBox="0 0 150 149" enable-background="new 0 0 150 149"><circle fill="#fff" stroke="#000" stroke-width=".937" stroke-miterlimit="10" cx="74.5" cy="74.3" r="68.4"/><circle fill="#fff" stroke="#000" stroke-width=".859" stroke-miterlimit="10" cx="74.2" cy="74.5" r="62.6"/><path fill="#839B9E" d="M131.1 46.4l-6.1 6.4-7.5-6.4h13.6zM30.7 38.2l6 6.5 4.5-6.5H30.7zm99.8 0l-6.2 6.3-7.4-6.3h13.6zM17.1 46.4l7.8 8.5 5.8-8.5H17.1z"/><circle fill="#fff" stroke="#000" stroke-width=".773" stroke-miterlimit="10" cx="74.2" cy="74.1" r="56.4"/><path d="M17.1 26.5h114.1v19.9H17.1V26.5z"/><circle cx="73.9" cy="65.5" r="5.1"/><circle cx="48.7" cy="85.1" r="3"/><circle cx="61.9" cy="85.1" r="3"/><circle cx="85.9" cy="85.1" r="3"/><circle cx="98.8" cy="85.1" r="3"/><circle cx="62.2" cy="106.2" r="2.4"/><circle cx="73.9" cy="106.4" r="2.4"/><circle cx="85.3" cy="106.4" r="2.4"/><path stroke="#000" stroke-width=".511" stroke-miterlimit="10" d="M73.9 68.6V77l-25.1-3-.1 10.1M86.1 76l-.2 9.1" fill="none"/><circle cx="73.7" cy="85.4" r="3"/><path stroke="#000" stroke-width=".773" stroke-miterlimit="10" d="M73.4 120.8" fill="none"/><path stroke="#000" stroke-width=".511" stroke-miterlimit="10" d="M99.7 85.1v-10L74 77l.1 29.1m-12.2-21l.3-9.5m.3 30.6l-.3-9.9 11.7 2.6 11.4-2.2-.2 9.5" fill="none"/><path fill="#fff" stroke="#fff" stroke-miterlimit="10" d="M30.7 35.3c1.4.5 2.9 1.3 2.9 3 0 1.6-1.2 2.6-2.7 2.6-1.7 0-2.9-1.2-2.9-2.8 0-.1.1-.2.2-.2s.2.1.2.2v.4c.1.7.4 1.2 1 1.6.4.3.9.4 1.4.4 1.3 0 2.2-.8 2.2-2.2s-1.4-2.2-2.5-2.5c-1.2-.4-2.6-1-2.6-2.5 0-1.4 1.2-2.4 2.5-2.4 1.5 0 2.7 1.1 2.7 2.6 0 .1-.1.2-.2.2s-.2-.1-.2-.2c0-.2 0-.4-.1-.7-.3-1-1-1.5-2-1.5-1.1 0-2.1.8-2.1 2s1.2 1.7 2.2 2zm5.4-1c-.2 0-.4-.1-.4-.4 0-.2.1-.4.4-.4s.4.1.4.4c-.1.2-.2.4-.4.4zm.2 1.4v4.8c0 .1-.1.2-.2.2s-.2-.1-.2-.2v-4.8c0-.1.1-.2.2-.2s.2.1.2.2zm5.1-.3c.1 0 .2.1.2.2s-.1.2-.2.2h-1.2v4.7c0 .1-.1.2-.2.2s-.2-.1-.2-.2v-4.7h-1.2c-.1 0-.2-.1-.2-.2s.1-.2.2-.2h1.2v-1.7c0-.1.1-.2.2-.2s.2.1.2.2v1.7h1.2zm6.6 2.7c0 .1-.1.2-.2.2h-4.4c.1 1.1.9 2.1 2.1 2.1.8 0 1.4-.3 1.8-.9.1-.1.1-.1.2-.1s.2.1.2.2v.1c-.4.8-1.3 1.2-2.2 1.2-1.5 0-2.5-1.3-2.5-2.7s1.1-2.7 2.5-2.7c1.4-.2 2.5 1.1 2.5 2.6zm-.5-.2c-.1-1.1-.9-2.1-2.1-2.1s-2 1-2.1 2.1h4.2zm7.2 2.6c0-.1 2.9-8.9 3.1-9.6 0-.1.1-.1.2-.1s.2.1.2.1c.2.7 3.1 9.5 3.1 9.6s-.1.2-.2.2-.2-.1-.2-.1l-1.2-3.7h-3.5L55 40.6c0 .1-.1.1-.2.1.1.1-.1-.1-.1-.2zm1.8-4h3.1L58 31.7l-1.5 4.8zm9.6-.9c0 .1-.1.2-.2.2-1.3.2-1.9 1.2-1.9 2.5v2.1c0 .1-.1.2-.2.2s-.2-.1-.2-.2v-4.8c0-.1.1-.2.2-.2s.2.1.2.2v1c.4-.7 1.1-1.2 1.9-1.2.1 0 .2.1.2.2zm6 4c-.4.7-1.2 1.2-2.1 1.2-1.5 0-2.5-1.3-2.5-2.7s1.1-2.7 2.5-2.7c.7 0 1.4.3 1.8.8.1.1.3.4.3.5s-.1.2-.2.2-.1 0-.1-.1c-.4-.6-1-1-1.7-1-1.2 0-2.1 1.2-2.1 2.3 0 1.2.9 2.3 2.1 2.3.7 0 1.4-.4 1.7-1 .1-.1.1-.1.2-.1s.2.1.2.2c0 0 0 .1-.1.1zm6.6-1.9v2.8c0 .1-.1.2-.2.2s-.2-.1-.2-.2v-2.8c0-.9-.5-1.9-1.6-1.9-1.4 0-2 1.2-1.9 2.4v2.3c0 .1-.1.2-.2.2s-.2-.1-.2-.2v-9.2c0-.1.1-.2.2-.2s.2.1.2.2v5.3c.4-.7 1.1-1.2 1.9-1.2 1.2-.1 2 1.1 2 2.3zm2.5-3.4c-.2 0-.4-.1-.4-.4 0-.2.1-.4.4-.4s.4.1.4.4c-.1.2-.2.4-.4.4zm.2 1.4v4.8c0 .1-.1.2-.2.2s-.2-.1-.2-.2v-4.8c0-.1.1-.2.2-.2 0 0 .2.1.2.2zm5-.3c.1 0 .2.1.2.2s-.1.2-.2.2h-1.2v4.7c0 .1-.1.2-.2.2s-.2-.1-.2-.2v-4.7h-1.2c-.1 0-.2-.1-.2-.2s.1-.2.2-.2h1.2v-1.7c0-.1.1-.2.2-.2s.2.1.2.2v1.7h1.2zm6.6 2.7c0 .1-.1.2-.2.2h-4.4c.1 1.1.9 2.1 2.1 2.1.8 0 1.4-.3 1.8-.9.1-.1.1-.1.2-.1s.2.1.2.2v.1c-.4.8-1.3 1.2-2.2 1.2-1.5 0-2.5-1.3-2.5-2.7s1.1-2.7 2.5-2.7 2.5 1.1 2.5 2.6zm-.4-.2c-.1-1.1-.9-2.1-2.1-2.1s-2 1-2.1 2.1h4.2zm7.1 1.7c-.4.7-1.2 1.2-2.1 1.2-1.5 0-2.5-1.3-2.5-2.7s1.1-2.7 2.5-2.7c.7 0 1.4.3 1.8.8.1.1.3.4.3.5s-.1.2-.2.2-.1 0-.1-.1c-.4-.6-1-1-1.7-1-1.2 0-2.1 1.2-2.1 2.3 0 1.2.9 2.3 2.1 2.3.7 0 1.4-.4 1.7-1 .1-.1.1-.1.2-.1s.2.1.2.2c0 0 0 .1-.1.1zm5-4.2c.1 0 .2.1.2.2s-.1.2-.2.2h-1.2v4.7c0 .1-.1.2-.2.2s-.2-.1-.2-.2v-4.7h-1.2c-.1 0-.2-.1-.2-.2s.1-.2.2-.2h1.2v-1.7c0-.1.1-.2.2-.2s.2.1.2.2v1.7h1.2zm6.3.3v4.8c0 .1-.1.2-.2.2s-.2-.1-.2-.2v-.9c-.4.7-1 1.2-1.9 1.2-1.3 0-2-1.2-2-2.4v-2.8c0-.1.1-.2.2-.2s.2.1.2.2v2.8c0 .9.5 1.9 1.6 1.9 1.5 0 1.9-1.4 1.9-3v-1.8c0-.1.1-.2.2-.2.1.2.2.3.2.4zm4.7-.1c0 .1-.1.2-.2.2-1.3.2-1.9 1.2-1.9 2.5v2.1c0 .1-.1.2-.2.2s-.2-.1-.2-.2v-4.8c0-.1.1-.2.2-.2s.2.1.2.2v1c.4-.7 1.1-1.2 1.9-1.2.1 0 .2.1.2.2zm6.5 2.5c0 .1-.1.2-.2.2h-4.4c.1 1.1.9 2.1 2.1 2.1.8 0 1.4-.3 1.8-.9.1-.1.1-.1.2-.1s.2.1.2.2v.1c-.4.8-1.3 1.2-2.2 1.2-1.5 0-2.5-1.3-2.5-2.7s1.1-2.7 2.5-2.7 2.5 1.1 2.5 2.6zm-.4-.2c-.1-1.1-.9-2.1-2.1-2.1s-2 1-2.1 2.1h4.2z"/></svg>