<svg xmlns="http://www.w3.org/2000/svg" viewBox="0 0 112 138.5" enable-background="new 0 0 112 138.5"><path fill="#F7F7EB" stroke="#232323" stroke-width="2" stroke-linecap="round" stroke-linejoin="round" stroke-miterlimit="10" d="M44.8 125.6s-6.4 1-14.7 1c-8.2 0-14.5-1-14.5-1l-3-43.2h35.2l-3 43.2z"/><path fill="#232323" stroke="#232323" stroke-width="3" stroke-linecap="round" stroke-linejoin="round" stroke-miterlimit="10" d="M49 84.7s-7 .5-18.9.5c-12.3 0-18.9-.5-18.9-.5l.6-2.6-.6-1.1s6.4-1.1 18.9-1.1C42.7 79.9 49 81 49 81l-1.1 1.3 1.1 2.4z"/><path stroke="#232323" stroke-linecap="round" stroke-linejoin="round" stroke-miterlimit="10" fill="none" d="M20.1 80.6h-7v-3.3l7-1z"/><path stroke="#000" stroke-width="2.061" stroke-linecap="round" stroke-linejoin="round" stroke-miterlimit="10" d="M10.4 76.9c-.7-2.6 1.2-3.1.5-5.7s-2.7-2-3.5-4.6c-.7-2.6 1.2-3.1.5-5.7s-2.7-2-3.5-4.6" fill="none" opacity=".27"/><path fill="#232323" d="M86.3 126.9c-.7 0-1.5-.1-2.2-.2-.7-.1-1.4-.2-2.1-.2-.3 0-.6-.3-.6-.6s.3-.6.6-.6c.8 0 1.6.1 2.3.2 1.1.2 2.1.3 3 .1 1.6-.3 3.2-.9 5-1.7 1.6-.8 3.2-1.7 4.6-2.7.9-.7 1.5-1.6 2.1-2.5.4-.5.8-1.1 1.2-1.6 1.2-1.4 2.1-2.8 2.9-4.3.2-.5.5-.9.7-1.3.6-1.1 1.2-2.2 1.5-3.4.3-1.2.2-2.4.2-3.7v-1.6c0-.8.1-1.6.3-2.4.2-1.1.4-2.1.2-3-.4-1.7-1.2-3.4-2-5-.5-1-1.3-1.8-2.1-2.6-.5-.5-.9-.9-1.3-1.4-.4-.5-.8-1.1-1.2-1.7-.6-1-1.3-1.9-2.1-2.5-.8-.6-1.8-.9-2.9-1.2-.7-.2-1.4-.4-2.1-.7-1.7-.8-3.2-1.3-4.9-1.7-1.9-.4-3.5-.6-5.2-.6-.3 0-.6-.3-.6-.6s.3-.6.6-.6c1.7 0 3.4.2 5.4.6 1.8.4 3.4.9 5.2 1.7.6.3 1.3.5 2 .7 1.1.3 2.3.7 3.2 1.4 1 .8 1.7 1.8 2.4 2.8.4.6.7 1.1 1.1 1.6.4.5.8.9 1.3 1.4.9.9 1.8 1.8 2.4 2.9.8 1.6 1.7 3.4 2.1 5.2.3 1.1.1 2.3-.1 3.5-.1.7-.3 1.5-.3 2.2v1.5c.1 1.3.1 2.7-.2 4-.3 1.4-1 2.5-1.6 3.7-.2.4-.5.9-.7 1.3-.8 1.6-1.8 3-3 4.5-.4.5-.7 1-1.1 1.5-.7 1-1.4 2-2.4 2.8-1.5 1.1-3.1 2.1-4.8 2.9-1.9.9-3.6 1.5-5.3 1.8-.7 0-1.1.1-1.5.1z"/><path fill="#E2D6B3" d="M103 102.5c0-1.8.3-3.6-.1-5.2-.4-1.7-1.5-3.2-2.2-4.7-.8-1.6-1.1-3.4-2.2-4.8s-2.5-2.5-3.8-3.6c-1.4-1.1-3.1-1.6-4.7-2.3-1.6-.8-3.1-1.3-4.8-1.7-1.7-.4-3.3-1.2-5.1-1.2-2.6 0-4.4-.1-6 .3-1.7.4-3.3 1.2-5.3 2.8-.3.3 1.6 2.2 2.3 4.4.4 1.3.5 2.4-.9 4-1.3 1.3-2.3 2.2-3.4 2.8-1.7.9-2.9.9-4.1.5-2.2-.7-3.3-2.3-3.5-2.1-2.2 2.3-2.9 3.3-2.9 5 0 1.4.1 3.1.1 6 0 1.8-.1 3.7.3 5.3.4 1.7 1.5 3.3 2.2 4.8.8 1.6 2 2.9 3.1 4.2 1.1 1.4 2.3 2.6 3.7 3.7 1.4 1.1 2.7 2.1 4.3 2.9 1.6.8 3.3.9 5 1.3 1.7.4 3.3 1.2 5.1 1.2 1.8 0 3.6.1 5.3-.2 1.7-.4 3.4-1.1 5-1.9 1.6-.8 2.7-2.3 4-3.4 1.4-1.1 3.2-1.8 4.2-3.1 1.1-1.4 1.6-3.1 2.4-4.7.8-1.6 1-3.3 1.4-5 .3-1.9.6-3.5.6-5.3z"/><path stroke="#232323" stroke-width="2" stroke-linecap="round" stroke-linejoin="round" stroke-miterlimit="10" d="M103 102.5c0-1.8.3-3.6-.1-5.2-.4-1.7-1.5-3.2-2.2-4.7-.8-1.6-1.1-3.4-2.2-4.8s-2.5-2.5-3.8-3.6c-1.4-1.1-3.1-1.6-4.7-2.3-1.6-.8-3.1-1.3-4.8-1.7-1.7-.4-3.3-1.2-5.1-1.2-2.6 0-4.4-.1-6 .3-1.7.4-3.3 1.2-5.3 2.8-.3.3 1.6 2.2 2.3 4.4.4 1.3.5 2.4-.9 4-1.3 1.3-2.3 2.2-3.4 2.8-1.7.9-2.9.9-4.1.5-2.2-.7-3.3-2.3-3.5-2.1-2.2 2.3-2.9 3.3-2.9 5 0 1.4.1 3.1.1 6 0 1.8-.1 3.7.3 5.3.4 1.7 1.5 3.3 2.2 4.8.8 1.6 2 2.9 3.1 4.2 1.1 1.4 2.3 2.6 3.7 3.7 1.4 1.1 2.7 2.1 4.3 2.9 1.6.8 3.3.9 5 1.3 1.7.4 3.3 1.2 5.1 1.2 1.8 0 3.6.1 5.3-.2 1.7-.4 3.4-1.1 5-1.9 1.6-.8 2.7-2.3 4-3.4 1.4-1.1 3.2-1.8 4.2-3.1 1.1-1.4 1.6-3.1 2.4-4.7.8-1.6 1-3.3 1.4-5 .3-1.9.6-3.5.6-5.3z" fill="none"/><path fill="#fff" d="M88.1 102.5c0-2.2-.7-4.1-2.2-5.5-1.5-1.4-3.4-2.4-5.6-2.4s-4.4.8-5.9 2.1c-1.5 1.4-1.7 3.6-1.7 5.8 0 2.2.6 3.9 2.1 5.4 1.5 1.4 3.3 2.7 5.5 2.7s4.6-.7 6-2.1c1.5-1.5 1.8-3.9 1.8-6z"/><path stroke="#232323" stroke-width="2" stroke-linecap="round" stroke-linejoin="round" stroke-miterlimit="10" d="M88.1 102.5c0-2.2-.7-4.1-2.2-5.5-1.5-1.4-3.4-2.4-5.6-2.4s-4.4.8-5.9 2.1c-1.5 1.4-1.7 3.6-1.7 5.8 0 2.2.6 3.9 2.1 5.4 1.5 1.4 3.3 2.7 5.5 2.7s4.6-.7 6-2.1c1.5-1.5 1.8-3.9 1.8-6z" fill="none"/><g stroke="#262626" stroke-width="1.13" stroke-linecap="round" stroke-linejoin="round" fill="none"><path d="M79.8 82.4h-.4c.2-.1.3-.1.4 0"/><path stroke-dasharray="0.8273,4.964" d="M74.2 87c2-.9 3.8-1.9 4.8-2.8M84.2 84.5c.7.5 1.5 1 2.2 1.3 2.4 1 5.7.7 7.4 2.4 1.8 1.8 1.5 5.1 2.5 7.4 1 2.3 3.5 4.4 3.5 7 0 2.6-2.6 4.7-3.5 7-1 2.4-.7 5.6-2.5 7.4-1.8 1.8-5.1 1.5-7.4 2.4-2.3.9-4.4 3.5-7 3.5-2.6 0-4.7-2.6-7-3.5-2.4-1-5.7-.7-7.4-2.4-1.8-1.8-1.5-5.1-2.5-7.4-1-2.3-3.5-4.4-3.5-7 0-2.8 2.7-4.7 4-6.7"/></g><path stroke="#262626" stroke-linecap="round" stroke-linejoin="round" stroke-dasharray="1.0096,4.5433" d="M95.5 103.4c0 1.9-2.3 3.3-3 5-.7 1.7-.2 4.3-1.5 5.6-1.3 1.3-3.9.6-5.7 1.3-1.7.7-3.1 2.9-5 2.9s-3.4-2.3-5-2.9c-1.7-.7-4.4 0-5.7-1.3-1.3-1.3-.8-3.9-1.5-5.6-.7-1.6-3-3.1-3-5s2.3-3.3 3-5c.7-1.7.2-4.3 1.5-5.6 1.3-1.3 3.9-.6 5.7-1.3 1.7-.7 3.1-2.9 5-2.9s3.4 2.3 5 2.9c1.7.7 4.4 0 5.7 1.3 1.3 1.3.8 3.9 1.5 5.6.7 1.7 3 3.1 3 5z" fill="none"/><path fill="#232323" d="M87 98.8c0 .7-.5 1.4-.7 2.1-.1.7-.3 1.4-.5 2.1-.2.7-.7 1.2-1 1.9-.3.7-.2 1.5-.5 2.1-.4.7-1.1 1-1.5 1.6-.4.7-.5 1.5-.9 2"/><path fill="#232323" d="M82 111.1c-.1 0-.2 0-.4-.1-.2-.2-.3-.6-.1-.8.1-.2.2-.5.3-.8.1-.4.2-.8.5-1.2.2-.3.5-.6.8-.8.3-.2.5-.5.7-.7.1-.2.2-.6.2-.9 0-.4.1-.8.3-1.2.1-.3.3-.6.5-.9.2-.3.4-.6.5-.9.2-.5.3-1.1.4-1.7l.1-.4c.1-.4.2-.7.4-1 .1-.3.3-.7.3-.9 0-.3.3-.6.6-.6s.6.3.6.6c0 .5-.2 1-.4 1.4-.1.3-.2.6-.3.8l-.1.3c-.1.6-.2 1.2-.4 1.8-.1.4-.4.8-.6 1.2-.2.3-.3.5-.4.8-.1.2-.1.5-.2.9 0 .4-.1.9-.3 1.3-.2.4-.6.8-.9 1-.2.2-.5.4-.6.6-.2.3-.3.6-.4.9-.1.4-.3.8-.5 1.2-.3.1-.4.1-.6.1z"/><g stroke="#66CCD3" stroke-width="1.5" stroke-linecap="round" stroke-linejoin="round" stroke-miterlimit="10" fill="none"><path d="M15.6 96.6h29.1M16 100.7h28.3M16.4 104.9H44M16.8 109h26.9"/></g><path stroke="#232323" stroke-width="2.766" stroke-linecap="round" stroke-linejoin="round" stroke-miterlimit="10" d="M11.4 82.3" fill="none"/></svg>