<svg xmlns="http://www.w3.org/2000/svg" viewBox="0 0 112 138.5" enable-background="new 0 0 112 138.5"><path fill="#F9F9F2" d="M19.3 68.2c0 1.7 1.3 3 3 3h67.4c1.7 0 3-1.3 3-3V14.9c0-1.7-1.3-3-3-3H22.3c-1.7 0-3 1.3-3 3v53.3z"/><path stroke="#000" stroke-width="2" stroke-linecap="round" stroke-linejoin="round" stroke-miterlimit="10" d="M19.3 68.2c0 1.7 1.3 3 3 3h67.4c1.7 0 3-1.3 3-3V14.9c0-1.7-1.3-3-3-3H22.3c-1.7 0-3 1.3-3 3v53.3z" fill="none"/><path fill="#F9F9F2" d="M19.3 131.4c0 1.7 1.3 3 3 3h67.4c1.7 0 3-1.3 3-3v-54c0-1.7-1.3-3-3-3H22.3c-1.7 0-3 1.3-3 3v54z"/><path stroke="#000" stroke-width="2" stroke-linecap="round" stroke-linejoin="round" stroke-miterlimit="10" d="M19.3 131.4c0 1.7 1.3 3 3 3h67.4c1.7 0 3-1.3 3-3v-54c0-1.7-1.3-3-3-3H22.3c-1.7 0-3 1.3-3 3v54z" fill="none"/><path stroke="#000" stroke-width="2" stroke-miterlimit="10" d="M61.1 11.7l-4-6c-.7-1.2-2.4-1.2-3.1-.1l-4.1 6.2" fill="none"/><circle stroke="#000" stroke-width="1.869" stroke-miterlimit="10" cx="27.4" cy="65.4" r="1.2" fill="none"/><path stroke="#4D4D4D" stroke-width=".75" stroke-linecap="round" stroke-linejoin="round" stroke-miterlimit="10" fill="none" d="M27.2 94.9h56.5M26.9 106.2h56.4M27.4 118.2h56.4"/><g stroke="#232323" stroke-width=".25" stroke-miterlimit="10"><path d="M27.1 39.5h4.1v1.2h-2.6v1.5H31v1.2h-2.4v2.7h-1.5v-6.6zM37.8 43.4h-2.5V45h2.8v1.2h-4.3v-6.7H38v1.2h-2.6v1.4h2.5v1.3zM40.7 39.6c.4-.1 1.2-.1 2-.1.9 0 1.5.1 2 .4.5.2.8.7.8 1.3 0 .6-.3 1.2-1.1 1.4.8.2 1.3.8 1.3 1.7 0 .6-.3 1.1-.7 1.4-.5.4-1.3.6-2.6.6-.7 0-1.3-.1-1.6-.1v-6.6zm1.5 2.6h.5c.8 0 1.2-.3 1.2-.8s-.4-.8-1.1-.8h-.6v1.6zm0 3h.6c.7 0 1.3-.3 1.3-1s-.6-.9-1.4-.9h-.5v1.9zM48.2 39.6c.5-.1 1.2-.1 2-.1 1 0 1.7.1 2.2.5.4.3.6.8.6 1.4 0 .9-.6 1.4-1.2 1.7.5.2.7.6.9 1.3.2.8.4 1.6.5 1.9h-1.6c-.1-.2-.3-.7-.5-1.6-.2-.8-.5-1.1-1.1-1.1h-.5v2.6H48v-6.6zm1.6 2.9h.6c.8 0 1.2-.4 1.2-1s-.4-.9-1.1-.9c-.4 0-.6 0-.7.1v1.8zM57.2 39.5v3.9c0 1.2.4 1.7 1.2 1.7.8 0 1.2-.6 1.2-1.7v-3.9h1.5v3.8c0 2.1-1 3.1-2.8 3.1-1.7 0-2.7-.9-2.7-3.1v-3.8h1.6zM65.2 44.5l-.5 1.7h-1.6l2.1-6.7h2l2.1 6.7h-1.6l-.5-1.7h-2zm1.7-1.1l-.4-1.4c-.1-.4-.2-.9-.3-1.3-.1.4-.2.9-.3 1.3l-.4 1.4h1.4zM71.7 39.6c.5-.1 1.2-.1 2-.1 1 0 1.7.1 2.2.5.4.3.6.8.6 1.4 0 .9-.6 1.4-1.2 1.7.5.2.7.6.9 1.3.2.8.4 1.6.5 1.9h-1.6c-.1-.2-.3-.7-.5-1.6-.2-.8-.5-1.1-1.1-1.1H73v2.6h-1.5v-6.6zm1.5 2.9h.6c.8 0 1.2-.4 1.2-1s-.4-.9-1.1-.9c-.4 0-.6 0-.7.1v1.8zM80.5 46.2v-2.8l-2.1-4h1.7l.7 1.6c.2.5.3.8.5 1.3.1-.4.3-.8.5-1.3l.7-1.6h1.7L82 43.3v2.8h-1.5z"/></g><path stroke="#000" stroke-miterlimit="10" fill="none" d="M27.5 67v12.3M85.4 65v12.4"/><path fill="#F9A7AD" d="M35.5 93.1c-.1 0-.2-.1-.3-.2l-6.1-6.7c-.2-.2-.2-.5 0-.6.2-.2.5-.2.6 0l6.1 6.7c.2.2.2.5 0 .6-.1.1-.2.2-.3.2zM29.1 93.1c-.1 0-.2 0-.3-.1-.2-.2-.2-.5 0-.6l6.1-6.7c.2-.2.5-.2.6 0 .2.2.2.5 0 .6L29.4 93c-.1 0-.2.1-.3.1zM47.1 93.1c-.1 0-.2-.1-.3-.2l-6.1-6.7c-.2-.2-.2-.5 0-.6.2-.2.5-.2.6 0l6.1 6.7c.2.2.2.5 0 .6-.1.1-.2.2-.3.2zM40.6 93.1c-.1 0-.2 0-.3-.1-.2-.2-.2-.5 0-.6l6.1-6.7c.2-.2.5-.2.6 0 .2.2.2.5 0 .6l-6 6.6c-.1.1-.2.2-.4.2zM59.1 93.1c-.1 0-.2-.1-.3-.2l-6.1-6.7c-.2-.2-.2-.5 0-.6.2-.2.5-.2.6 0l6.1 6.7c.2.2.2.5 0 .6-.1.1-.2.2-.3.2zM52.6 93.1c-.1 0-.2 0-.3-.1-.2-.2-.2-.5 0-.6l6.1-6.7c.2-.2.5-.2.6 0 .2.2.2.5 0 .6L52.9 93s-.2.1-.3.1z"/><path fill="#B8F1F4" d="M27 48.2h58v7.3H27zM27 29.2h58v7.3H27z"/><path stroke="#4D4D4D" stroke-width=".75" stroke-linecap="round" stroke-linejoin="round" stroke-miterlimit="10" fill="none" d="M38.1 82.2v45.6M49.9 82.6v45.5M61.4 82.2v45.6"/><path fill="#FFD66A" d="M64.9 109l3.4-1.8-.6 3.8 2.7 2.7-3.8.5-1.7 3.5-1.7-3.5-3.8-.5 2.8-2.7-.7-3.8z"/><path stroke="#4D4D4D" stroke-width=".75" stroke-linecap="round" stroke-linejoin="round" stroke-miterlimit="10" fill="none" d="M72.8 82.6v45.5"/><circle stroke="#000" stroke-width="1.869" stroke-miterlimit="10" cx="27.4" cy="80.2" r="1.2" fill="none"/><circle stroke="#000" stroke-width="1.869" stroke-miterlimit="10" cx="85.4" cy="64.8" r="1.2" fill="none"/><circle stroke="#000" stroke-width="1.869" stroke-miterlimit="10" cx="85.4" cy="79" r="1.2" fill="none"/></svg>