<?xml version="1.0" encoding="utf-8"?>
<!-- Generator: Adobe Illustrator 17.1.0, SVG Export Plug-In . SVG Version: 6.00 Build 0)  -->
<!DOCTYPE svg PUBLIC "-//W3C//DTD SVG 1.1//EN" "http://www.w3.org/Graphics/SVG/1.1/DTD/svg11.dtd">
<svg version="1.1" id="Layer_1" xmlns="http://www.w3.org/2000/svg" xmlns:xlink="http://www.w3.org/1999/xlink" x="0px" y="0px"
	 viewBox="0 0 156 213.8" enable-background="new 0 0 156 213.8" xml:space="preserve">
<path fill="#A6E23D" d="M26.4,85.1c-2.2-36.6,24.1-54.7,53.8-54.7s50.8,20.7,54.7,54.7c0,0-1.9,38.6,4.3,75.3
	c7,41.6-3.3,53.3-3.3,53.3H26.4c0,0-7.9-6.6-6-38C23,133,26.4,85.1,26.4,85.1z"/>
<circle fill="#2D2D2B" cx="36" cy="50" r="3"/>
<circle fill="#2D2D2B" cx="113.3" cy="59" r="3"/>
<g>
	<path fill="#CF4647" d="M68.6,93.2c0.7,7.3-8.7,13.9-21,14.8s-23.4-4.2-24.1-11.5c-0.7-7.3,9.2-13.9,21.5-14.8
		c11.3-0.8,21.2,3.5,23.3,9.8C68.4,92.1,68.5,92.6,68.6,93.2z"/>
	<g>
		<path fill="#CF4647" d="M71.1,89.7c-1.3,0.8-2.9,3.1-4.2,7.6c-0.4-2.7-0.7-5.7-0.9-9.2C67.7,88.4,69.4,89,71.1,89.7z"/>
	</g>
	<path fill="#2D2D2B" d="M60,93.9c0.3,2.8-6.1,5.3-14.4,5.6C37.3,99.8,30,97.8,29.7,95s6.5-5.3,14.7-5.6c7.6-0.3,14.1,1.4,15.4,3.8
		C59.9,93.4,60,93.7,60,93.9z"/>
</g>
<ellipse fill="none" stroke="#31332C" stroke-width="4" stroke-miterlimit="10" cx="36.5" cy="50.5" rx="9.5" ry="9.8"/>
<ellipse fill="none" stroke="#31332C" stroke-width="4" stroke-miterlimit="10" cx="113.3" cy="59" rx="9.5" ry="9.8"/>
<path fill="none" stroke="#31332C" stroke-width="4" stroke-miterlimit="10" d="M46,50.5c0,0,28.9-3.5,57.8,5.2"/>
</svg>
