<svg xmlns="http://www.w3.org/2000/svg" viewBox="0 0 150 149" enable-background="new 0 0 150 149"><path fill="#839B9E" d="M363.3 407.6l7.9 8.5 5.8-8.5h-13.7zm-169.8.6l7.8 8.6 5.8-8.6h-13.6zm114.1 0l-6.2 6.4-7.4-6.4h13.6zm169.9-.6l-6.2 6.3-7.4-6.3h13.6z"/><circle fill="#fff" stroke="#000" stroke-width=".773" stroke-miterlimit="10" cx="421.2" cy="435.7" r="56.4"/><path stroke="#000" stroke-width=".746" stroke-miterlimit="10" d="M393.9 437.5h54.4v26.3h-54.4v-26.3zm0-7.7h54.4v7.7h-54.4v-7.7z" fill="none"/><path fill="#fff" stroke="#000" stroke-width=".746" stroke-miterlimit="10" d="M398.8 433.7h4.3v7.5h-4.3v-7.5z"/><path d="M413.7 423h15.1v3.1h-15.1V423z"/><path stroke="#000" stroke-width=".746" stroke-miterlimit="10" d="M411.2 430v-5.4h2.5m17.4 5.4v-5.4h-2.3" fill="none"/><path fill="#fff" stroke="#000" stroke-width=".746" stroke-miterlimit="10" d="M438.6 433.7h4.3v7.5h-4.3v-7.5z"/><path d="M363.3 387.6h114.1v19.9H363.3v-19.9z"/><path fill="#fff" stroke="#fff" stroke-miterlimit="10" d="M371.4 392.9v6.7c0 1.7-1.2 2.6-2.7 2.6s-2.8-.9-2.8-2.6v-6.7c0-.1.1-.2.2-.2s.2.1.2.2v6.7c0 1.4 1 2.2 2.4 2.2s2.4-.7 2.4-2.2v-6.7c0-.1.1-.2.2-.2 0 0 .1.1.1.2zm6.2 6.3v2.7c0 .1-.1.2-.2.2s-.2-.1-.2-.2v-2.7c0-.9-.5-1.8-1.5-1.8-1.3 0-1.7 1.2-1.7 2.4v2.1c0 .1-.1.2-.2.2s-.2-.1-.2-.2v-4.6c0-.1.1-.2.2-.2s.2.1.2.2v.7c.4-.7 1-1.1 1.7-1.1 1.2 0 1.9 1.1 1.9 2.3zm6.8.4c0 1.4-1 2.7-2.5 2.7-1.4 0-2.5-1.2-2.5-2.7 0-1.4 1-2.7 2.5-2.7s2.5 1.3 2.5 2.7zm-.4 0c0-1.2-.8-2.2-2-2.2s-2 1.1-2 2.2c0 1.2.9 2.2 2 2.2s2-1.1 2-2.2zm7.5 0c0 1.4-1 2.7-2.5 2.7-.9 0-1.7-.5-2.1-1.3v1c0 .1-.1.2-.2.2s-.2-.1-.2-.2v-9c0-.1.1-.2.2-.2s.2.1.2.2v5.3c.4-.8 1.2-1.3 2.1-1.3 1.4 0 2.5 1.3 2.5 2.6zm-.5 0c0-1.2-.9-2.2-2-2.2-1.2 0-2 1.1-2 2.2s.9 2.2 2 2.2c1.2 0 2-1.1 2-2.2zm5.1-2.6c.1 0 .2.1.2.2s-.1.2-.2.2h-1.2v4.5c0 .1-.1.2-.2.2s-.2-.1-.2-.2v-4.5h-1.1c-.1 0-.2-.1-.2-.2s.1-.2.2-.2h1.1v-1.7c0-.1.1-.2.2-.2s.2.1.2.2v1.7h1.2zm4.4.2c0 .1-.1.2-.2.2-1.2.2-1.8 1.2-1.8 2.4v2c0 .1-.1.2-.2.2s-.2-.1-.2-.2v-4.6c0-.1.1-.2.2-.2s.2.1.2.2v.9c.4-.6 1-1.2 1.8-1.2 0 .1.2.2.2.3zm6.1 0v4.6c0 .1-.1.2-.2.2s-.2-.1-.2-.2v-.8c-.4.7-.9 1.2-1.7 1.2-1.2 0-2-1.1-2-2.2v-2.7c0-.1.1-.2.2-.2s.2.1.2.2v2.7c0 .9.5 1.8 1.5 1.8 1.4 0 1.7-1.3 1.7-2.8v-1.7c0-.1.1-.2.2-.2.2 0 .3.1.3.1zm6.2 3.4c0 1.1-1.2 1.6-2 1.6-1 0-2.1-.4-2.1-1.6 0-.2 0-.4.3-.4.1 0 .1.1.1.2 0 1 .8 1.2 1.7 1.2.7 0 1.6-.4 1.6-1.2 0-1.5-3.7-.7-3.7-2.4 0-1 1.2-1.3 2-1.3.9 0 2 .4 2 1.5 0 .1-.1.2-.2.2s-.2-.1-.2-.2c0-.2-.1-.4-.2-.6-.3-.4-.9-.4-1.4-.4s-1.5.1-1.5.9c-.1 1.5 3.6.6 3.6 2.5zm2.3-4.7c-.2 0-.4-.1-.4-.4 0-.2.1-.4.4-.4.2 0 .4.1.4.4 0 .2-.2.4-.4.4zm.2 1.3v4.6c0 .1-.1.2-.2.2s-.2-.1-.2-.2v-4.6c0-.1.1-.2.2-.2l.2.2zm6.4 0c0 .1-1.7 4.4-1.9 4.8 0 .1-.1.1-.2.1s-.2 0-.2-.1c-.1-.4-1.9-4.7-1.9-4.8 0-.1.1-.2.2-.2s.1.1.2.1l1.7 4.3 1.7-4.3c0-.1.1-.1.2-.1 0 0 .2.1.2.2zm6.3 2.4c0 .1-.1.2-.2.2h-4.3c.1 1 .9 2 2 2 .7 0 1.3-.3 1.7-.9.1-.1.1-.1.2-.1s.2.1.2.2v.1c-.4.7-1.3 1.1-2.1 1.1-1.4 0-2.5-1.3-2.5-2.7 0-1.4 1-2.7 2.5-2.7 1.5.1 2.5 1.4 2.5 2.8zm-.5-.3c-.1-1-.9-2-2-2s-1.9.9-2 2h4zm12.5-6.4v6.7c0 1.7-1.2 2.6-2.7 2.6-1.6 0-2.8-.9-2.8-2.6v-6.7c0-.1.1-.2.2-.2s.2.1.2.2v6.7c0 1.4 1 2.2 2.4 2.2s2.4-.7 2.4-2.2v-6.7c0-.1.1-.2.2-.2 0 0 .1.1.1.2zm7.1 6.7c0 1.4-1 2.7-2.5 2.7-.9 0-1.7-.5-2.1-1.3v3.9c0 .1-.1.2-.2.2s-.2-.1-.2-.2v-7.6c0-.1.1-.2.2-.2s.2.1.2.2v1c.4-.8 1.2-1.3 2.1-1.3 1.5 0 2.5 1.2 2.5 2.6zm-.4 0c0-1.2-.9-2.2-2-2.2-1.2 0-2 1.1-2 2.2s.9 2.2 2 2.2c1.2 0 2-1.1 2-2.2zm6.1 2.2v.1c0 .1-.1.2-.2.2s-.1 0-.1-.1l-2-2.8-.9.7v2c0 .1-.1.2-.2.2s-.2-.1-.2-.2v-9c0-.1.1-.2.2-.2s.2.1.2.2v6.4l2.8-2.3.1-.1c.1 0 .2.1.2.2s0 .1-.1.1l-1.9 1.6 2.1 3zm6.7-2.2c0 .1-.1.2-.2.2H455c.1 1 .9 2 2 2 .7 0 1.3-.3 1.7-.9.1-.1.1-.1.2-.1s.2.1.2.2v.1c-.4.7-1.3 1.1-2.1 1.1-1.4 0-2.5-1.3-2.5-2.7 0-1.4 1-2.7 2.5-2.7 1.6.1 2.5 1.4 2.5 2.8zm-.5-.3c-.1-1-.9-2-2-2s-1.9.9-2 2h4zm7.3.3c0 .1-.1.2-.2.2h-4.3c.1 1 .9 2 2 2 .7 0 1.3-.3 1.7-.9.1-.1.1-.1.2-.1s.2.1.2.2v.1c-.4.7-1.3 1.1-2.1 1.1-1.4 0-2.5-1.3-2.5-2.7 0-1.4 1-2.7 2.5-2.7 1.6.1 2.5 1.4 2.5 2.8zm-.4-.3c-.1-1-.9-2-2-2s-1.9.9-2 2h4zm7.4.3c0 1.4-1 2.7-2.5 2.7-.9 0-1.7-.5-2.1-1.3v3.9c0 .1-.1.2-.2.2s-.2-.1-.2-.2v-7.6c0-.1.1-.2.2-.2s.2.1.2.2v1c.4-.8 1.2-1.3 2.1-1.3 1.5 0 2.5 1.2 2.5 2.6zm-.4 0c0-1.2-.9-2.2-2-2.2-1.2 0-2 1.1-2 2.2s.9 2.2 2 2.2c1.2 0 2-1.1 2-2.2z"/><circle fill="#fff" stroke="#000" stroke-width=".937" stroke-miterlimit="10" cx="74.5" cy="74.3" r="68.4"/><circle fill="#fff" stroke="#000" stroke-width=".859" stroke-miterlimit="10" cx="74.2" cy="74.5" r="62.6"/><path fill="#839B9E" d="M16 46.5l7.9 8.5 5.8-8.5H16zm114.2 0l-6.2 6.3-7.4-6.3h13.6z"/><circle fill="#fff" stroke="#000" stroke-width=".773" stroke-miterlimit="10" cx="73.9" cy="74.6" r="56.4"/><path stroke="#000" stroke-width=".746" stroke-miterlimit="10" d="M46.6 76.4H101v26.3H46.6V76.4zm0-7.7H101v7.7H46.6v-7.7z" fill="none"/><path fill="#fff" stroke="#000" stroke-width=".746" stroke-miterlimit="10" d="M51.5 72.6h4.3v7.5h-4.3v-7.5z"/><path d="M66.4 61.9h15.1V65H66.4v-3.1z"/><path stroke="#000" stroke-width=".746" stroke-miterlimit="10" d="M63.9 68.9v-5.4h2.5m17.4 5.4v-5.4h-2.3" fill="none"/><path fill="#fff" stroke="#000" stroke-width=".746" stroke-miterlimit="10" d="M91.3 72.6h4.3v7.5h-4.3v-7.5z"/><path d="M16 26.5h114.1v19.9H16V26.5z"/><path fill="#fff" stroke="#fff" stroke-miterlimit="10" d="M24.1 31.8v6.7c0 1.7-1.2 2.6-2.7 2.6s-2.8-.9-2.8-2.6v-6.7c0-.1.1-.2.2-.2s.2.1.2.2v6.7c0 1.4 1 2.2 2.4 2.2s2.4-.7 2.4-2.2v-6.7c0-.1.1-.2.2-.2 0 0 .1.1.1.2zm6.2 6.3v2.7c0 .1-.1.2-.2.2s-.2-.1-.2-.2v-2.7c0-.9-.5-1.8-1.5-1.8-1.3 0-1.7 1.2-1.7 2.4v2.1c0 .1-.1.2-.2.2s-.2-.1-.2-.2v-4.6c0-.1.1-.2.2-.2s.2.1.2.2v.7c.4-.7 1-1.1 1.7-1.1 1.2 0 1.9 1.1 1.9 2.3zm6.8.4c0 1.4-1 2.7-2.5 2.7-1.4 0-2.5-1.2-2.5-2.7 0-1.4 1-2.7 2.5-2.7s2.5 1.3 2.5 2.7zm-.4 0c0-1.2-.8-2.2-2-2.2s-2 1.1-2 2.2c0 1.2.9 2.2 2 2.2s2-1.1 2-2.2zm7.5 0c0 1.4-1 2.7-2.5 2.7-.9 0-1.7-.5-2.1-1.3v1c0 .1-.1.2-.2.2s-.2-.1-.2-.2v-9c0-.1.1-.2.2-.2s.2.1.2.2v5.3c.4-.8 1.2-1.3 2.1-1.3 1.4 0 2.5 1.3 2.5 2.6zm-.5 0c0-1.2-.9-2.2-2-2.2-1.2 0-2 1.1-2 2.2s.9 2.2 2 2.2c1.2 0 2-1.1 2-2.2zm5.1-2.6c.1 0 .2.1.2.2s-.1.2-.2.2h-1.2v4.5c0 .1-.1.2-.2.2s-.2-.1-.2-.2v-4.5h-1.1c-.1 0-.2-.1-.2-.2s.1-.2.2-.2h1.1v-1.7c0-.1.1-.2.2-.2s.2.1.2.2v1.7h1.2zm4.4.2c0 .1-.1.2-.2.2-1.2.2-1.8 1.2-1.8 2.4v2c0 .1-.1.2-.2.2s-.2-.1-.2-.2v-4.6c0-.1.1-.2.2-.2s.2.1.2.2v.9c.4-.6 1-1.2 1.8-1.2 0 .1.2.2.2.3zm6.1 0v4.6c0 .1-.1.2-.2.2s-.2-.1-.2-.2v-.8c-.4.7-.9 1.2-1.7 1.2-1.2 0-2-1.1-2-2.2v-2.7c0-.1.1-.2.2-.2s.2.1.2.2v2.7c0 .9.5 1.8 1.5 1.8 1.4 0 1.7-1.3 1.7-2.8v-1.7c0-.1.1-.2.2-.2.2 0 .3.1.3.1zm6.2 3.4c0 1.1-1.2 1.6-2 1.6-1 0-2.1-.4-2.1-1.6 0-.2 0-.4.3-.4.1 0 .1.1.1.2 0 1 .8 1.2 1.7 1.2.7 0 1.6-.4 1.6-1.2 0-1.5-3.7-.7-3.7-2.4 0-1 1.2-1.3 2-1.3.9 0 2 .4 2 1.5 0 .1-.1.2-.2.2s-.2-.1-.2-.2c0-.2-.1-.4-.2-.6-.3-.4-.9-.4-1.4-.4s-1.5.1-1.5.9c-.1 1.5 3.6.6 3.6 2.5zm2.3-4.7c-.2 0-.4-.1-.4-.4 0-.2.1-.4.4-.4.2 0 .4.1.4.4 0 .2-.2.4-.4.4zm.2 1.3v4.6c0 .1-.1.2-.2.2s-.2-.1-.2-.2v-4.6c0-.1.1-.2.2-.2l.2.2zm6.4 0c0 .1-1.7 4.4-1.9 4.8 0 .1-.1.1-.2.1s-.2 0-.2-.1c-.1-.4-1.9-4.7-1.9-4.8s.1-.2.2-.2.1.1.2.1l1.7 4.3L74 36c0-.1.1-.1.2-.1 0 0 .2.1.2.2zm6.3 2.4c0 .1-.1.2-.2.2h-4.3c.1 1 .9 2 2 2 .7 0 1.3-.3 1.7-.9.1-.1.1-.1.2-.1s.2.1.2.2v.1c-.4.7-1.3 1.1-2.1 1.1-1.4 0-2.5-1.3-2.5-2.7s1-2.7 2.5-2.7c1.5.1 2.5 1.4 2.5 2.8zm-.5-.3c-.1-1-.9-2-2-2s-1.9.9-2 2h4zm12.5-6.4v6.7c0 1.7-1.2 2.6-2.7 2.6-1.6 0-2.8-.9-2.8-2.6v-6.7c0-.1.1-.2.2-.2s.2.1.2.2v6.7c0 1.4 1 2.2 2.4 2.2s2.4-.7 2.4-2.2v-6.7c0-.1.1-.2.2-.2 0 0 .1.1.1.2zm7.1 6.7c0 1.4-1 2.7-2.5 2.7-.9 0-1.7-.5-2.1-1.3v3.9c0 .1-.1.2-.2.2s-.2-.1-.2-.2v-7.6c0-.1.1-.2.2-.2s.2.1.2.2v1c.4-.8 1.2-1.3 2.1-1.3 1.5 0 2.5 1.2 2.5 2.6zm-.4 0c0-1.2-.9-2.2-2-2.2-1.2 0-2 1.1-2 2.2s.9 2.2 2 2.2c1.2 0 2-1.1 2-2.2zm6.1 2.2v.1c0 .1-.1.2-.2.2s-.1 0-.1-.1l-2-2.8-.9.7v2c0 .1-.1.2-.2.2s-.2-.1-.2-.2v-9c0-.1.1-.2.2-.2s.2.1.2.2v6.4l2.8-2.3.1-.1c.1 0 .2.1.2.2s0 .1-.1.1l-1.9 1.6 2.1 3zm6.7-2.2c0 .1-.1.2-.2.2h-4.3c.1 1 .9 2 2 2 .7 0 1.3-.3 1.7-.9.1-.1.1-.1.2-.1s.2.1.2.2v.1c-.4.7-1.3 1.1-2.1 1.1-1.4 0-2.5-1.3-2.5-2.7s1-2.7 2.5-2.7c1.6.1 2.5 1.4 2.5 2.8zm-.5-.3c-.1-1-.9-2-2-2s-1.9.9-2 2h4zm7.3.3c0 .1-.1.2-.2.2h-4.3c.1 1 .9 2 2 2 .7 0 1.3-.3 1.7-.9.1-.1.1-.1.2-.1s.2.1.2.2v.1c-.4.7-1.3 1.1-2.1 1.1-1.4 0-2.5-1.3-2.5-2.7s1-2.7 2.5-2.7c1.6.1 2.5 1.4 2.5 2.8zm-.4-.3c-.1-1-.9-2-2-2s-1.9.9-2 2h4zm7.4.3c0 1.4-1 2.7-2.5 2.7-.9 0-1.7-.5-2.1-1.3v3.9c0 .1-.1.2-.2.2s-.2-.1-.2-.2v-7.6c0-.1.1-.2.2-.2s.2.1.2.2v1c.4-.8 1.2-1.3 2.1-1.3 1.5 0 2.5 1.2 2.5 2.6zm-.4 0c0-1.2-.9-2.2-2-2.2-1.2 0-2 1.1-2 2.2s.9 2.2 2 2.2c1.2 0 2-1.1 2-2.2z"/></svg>