<?xml version="1.0" encoding="utf-8"?>
<!-- Generator: Adobe Illustrator 19.1.0, SVG Export Plug-In . SVG Version: 6.00 Build 0)  -->
<svg version="1.1" id="Layer_1" xmlns="http://www.w3.org/2000/svg" xmlns:xlink="http://www.w3.org/1999/xlink" x="0px" y="0px"
	 viewBox="-180 378 279 381" style="enable-background:new -180 378 279 381;" xml:space="preserve">
<style type="text/css">
	.st0{fill:none;stroke:#333333;stroke-width:8;stroke-linecap:round;stroke-linejoin:round;stroke-miterlimit:10;}
	.st1{fill:#FFFFFF;stroke:#333333;stroke-width:7;stroke-linecap:round;stroke-linejoin:round;stroke-miterlimit:10;}
	.st2{fill:none;stroke:#5C5C5C;stroke-width:16;stroke-miterlimit:10;}
	.st3{fill:#5C5C5C;}
</style>
<line class="st0" x1="-110.5" y1="501.1" x2="-127.5" y2="613"/>
<path class="st0" d="M57.5,428.4c0,26.8-37.2,100.6-37.2,100.6"/>
<path class="st1" d="M-95.8,622.3v110.4 M6.9,623.4v110.3 M-110.5,526v-68.9v0.8c0-37.1,29.7-67.2,66.4-67.2s66.4,30.1,66.4,67.2
	v-0.8v64.6V521v63.7V584c0,33.5-29.7,60.7-66.4,60.7s-66.4-27.2-66.4-60.7v0.7v-62.1"/>
<circle cx="-93.8" cy="447.5" r="10.1"/>
<ellipse class="st2" cx="-43.8" cy="501.1" rx="41" ry="26.6"/>
<path class="st3" d="M-84.9,493.9l-17.4,4.4l12.5,9.2"/>
<circle cx="6.9" cy="446.8" r="10.1"/>
<path class="st3" d="M-2.3,493.4l17.1,5.4l-13.1,8.4"/>
</svg>
