<svg xmlns="http://www.w3.org/2000/svg" viewBox="0 0 112 138.5" enable-background="new 0 0 112 138.5"><path stroke="#000" stroke-width="2" stroke-linecap="round" stroke-linejoin="round" stroke-miterlimit="10" d="M25.8 93.2V80.9C26.5 62.6 33.6 44 55.7 44c22.2 0 29.4 18.8 29.9 37.2v12" fill="none"/><path fill="#FFD66A" stroke="#000" stroke-width="2" stroke-linecap="round" stroke-linejoin="round" stroke-miterlimit="10" d="M37.4 97.9c0 1.8-1.9 3.3-4.1 3.3h-1c-2.3 0-4.1-1.5-4.1-3.3V77.7c0-1.8 1.9-3.3 4.1-3.3h1c2.3 0 4.1 1.5 4.1 3.3 0 0-.4 4.8-.5 10.1 0 5.4.5 10.1.5 10.1z"/><path stroke="#000" stroke-width="2.532" stroke-miterlimit="10" d="M27.5 93.7c0 .7-.7 1.2-1.5 1.2s-1.5-.5-1.5-1.2v-12c0-.7.7-1.2 1.5-1.2s1.5.5 1.5 1.2v12zM87.2 93.8c0 .7-.7 1.2-1.5 1.2s-1.5-.5-1.5-1.2v-12c0-.7.7-1.2 1.5-1.2s1.5.5 1.5 1.2v12z" fill="none"/><path fill="#FFD66A" stroke="#000" stroke-width="2" stroke-linecap="round" stroke-linejoin="round" stroke-miterlimit="10" d="M74.1 97.9c0 1.8 1.9 3.3 4.1 3.3h1c2.3 0 4.1-1.5 4.1-3.3V77.6c0-1.8-1.9-3.3-4.1-3.3h-1c-2.3 0-4.1 1.5-4.1 3.3 0 0 .4 4.8.5 10.1.1 5.4-.5 10.2-.5 10.2z"/><path d="M17.5 87.9h-9c-.4 0-.7-.3-.7-.7s.3-.7.7-.7h9c.4 0 .7.3.7.7s-.3.7-.7.7zM9.3 94.9c-.3 0-.5-.2-.6-.4-.1-.3.1-.7.4-.8l8.2-3c.3-.1.7.1.8.4.1.3-.1.7-.4.8l-8.2 3h-.2zM17.5 83.9h-.2l-8-2.8c-.4-.1-.5-.5-.4-.9.1-.4.5-.5.9-.4l8 2.8c.4.1.5.5.4.9-.2.3-.4.4-.7.4zM102 88.3h-9c-.4 0-.7-.3-.7-.7s.3-.7.7-.7h9c.4 0 .7.3.7.7s-.3.7-.7.7zM101.2 95.2h-.2l-8.2-3c-.3-.1-.5-.5-.4-.8.1-.3.5-.5.8-.4l8.2 3c.3.1.5.5.4.8-.1.3-.4.4-.6.4zM93 84.3c-.3 0-.5-.2-.6-.5-.1-.4.1-.7.4-.9l8-2.8c.4-.1.7.1.9.4.1.4-.1.7-.4.9l-8 2.8c-.2.1-.2.1-.3.1z"/></svg>