<svg id="duffle" xmlns="http://www.w3.org/2000/svg" viewBox="-40 -38 223 185.5" enable-background="new -40 -38 223 185.5"><path fill="#fff" stroke="#000" stroke-width="1.88" stroke-linecap="round" stroke-linejoin="round" stroke-miterlimit="10" d="M58.3 54.7c0-7.1 5.8-12.8 12.8-12.8S84 47.6 84 54.7"/><path stroke="#000" stroke-width="1.88" stroke-linecap="round" stroke-linejoin="round" stroke-miterlimit="10" d="M51.7 54c0-10.6 6.6-19.5 19.5-19.5 13.7 0 19.5 8.6 19.5 19.5" fill="none"/><path fill="#E4F9ED" d="M-30.7 114.7c-4.2 14.4 6.9 25.5 23.7 23.7-3.1 1.8 157.2 1.8 154.1 0 16.8 1.8 27.9-9.3 23.7-23.7 4.2.7 4.2-34.8 0-34.1 4.2-14.4-6.9-25.5-23.7-23.7 3.1-1.8-157.2-1.8-154.1 0-16.8-1.8-27.9 9.3-23.7 23.7-4.2-.9-4.2 34.8 0 34.1z"/><path stroke="#000" stroke-width="4" stroke-linecap="round" stroke-linejoin="round" stroke-miterlimit="10" d="M-30.7 113.7c-4.2 14.4 6.9 25.5 23.7 23.7-3.1 1.8 157.2 1.8 154.1 0 16.8 1.8 27.9-9.3 23.7-23.7 4.2.7 4.2-34.8 0-34.1 4.2-14.4-6.9-25.5-23.7-23.7 3.1-1.8-157.2-1.8-154.1 0-16.8-1.8-27.9 9.3-23.7 23.7-4.2-.9-4.2 34.8 0 34.1z" fill="none"/><path fill="#fff" stroke="#000" stroke-width="1.595" stroke-linecap="round" stroke-linejoin="round" stroke-miterlimit="10" d="M2.3 55.8h9.5v81.8H2.3V55.8z"/><path stroke="#101010" stroke-width="3.346" stroke-linecap="round" stroke-linejoin="round" stroke-miterlimit="10" d="M36.8 99.6c22.6 1.1 45 1.1 67.5 0" fill="none"/><path stroke="#fff" stroke-width="1.281" stroke-linecap="round" stroke-linejoin="round" stroke-miterlimit="10" stroke-dasharray="0.6406,3.8436" d="M38.8 99.9c21.5 1.1 43 1.1 64.4 0" fill="none"/><path stroke="#000" stroke-width="2.939" stroke-linecap="round" stroke-miterlimit="10" d="M103.3 99.9v9.7m-77.1-52v10" fill="none"/><path fill="#fff" stroke="#000" stroke-width="1.595" stroke-linecap="round" stroke-linejoin="round" stroke-miterlimit="10" d="M127.6 55.8h9.5v81.8h-9.5V55.8z"/><path stroke="#000" stroke-width="2" stroke-linecap="round" stroke-linejoin="round" stroke-miterlimit="10" d="M-765.9-1052.1h1806.7v2427.7H-765.9v-2427.7z" fill="none"/></svg>