<svg xmlns="http://www.w3.org/2000/svg" viewBox="0 0 216 216"><path d="M108 15.8c-50.8 0-92.2 41.3-92.2 92.2s41.3 92.2 92.2 92.2 92.2-41.3 92.2-92.2-41.4-92.2-92.2-92.2zm61 42.5c11 13.4 17.6 30.5 17.8 49-2.6-.5-28.6-5.8-54.8-2.5-.6-1.3-1.1-2.7-1.7-4.1-1.6-3.8-3.4-7.7-5.2-11.4 29-11.9 42.2-28.8 43.9-31zm-61-29c20 0 38.3 7.5 52.2 19.8-1.4 2-13.3 17.9-41.3 28.4-12.9-23.6-27.1-43.1-29.3-46 5.9-1.4 12.1-2.2 18.4-2.2zm-33.4 7.5c2.1 2.8 16.1 22.3 29.2 45.5C66.9 92.1 34.5 92 31 91.9c5.1-24.4 21.5-44.7 43.6-55.1zm-45.3 71.3v-2.4c3.4.1 41.6.6 80.9-11.2 2.3 4.4 4.4 8.9 6.4 13.4-1 .3-2.1.6-3.1.9-40.6 13.1-62.2 48.9-64 51.9-12.5-14-20.2-32.4-20.2-52.6zm78.7 78.7c-18.2 0-35-6.2-48.3-16.6 1.4-2.9 17.4-33.7 61.8-49.2.2-.1.3-.1.5-.2 11.1 28.7 15.6 52.8 16.8 59.7-9.5 4-19.9 6.3-30.8 6.3zm44-13.5c-.8-4.8-5-27.8-15.3-56.1 24.7-3.9 46.3 2.5 49 3.4-3.5 21.9-16 40.8-33.7 52.7z"/></svg>