<?xml version="1.0" encoding="utf-8"?>
<!-- Generator: Adobe Illustrator 18.1.1, SVG Export Plug-In . SVG Version: 6.00 Build 0)  -->
<svg version="1.1" id="Layer_1" xmlns="http://www.w3.org/2000/svg" xmlns:xlink="http://www.w3.org/1999/xlink" x="0px" y="0px"
	 viewBox="0 0 60 11.33" enable-background="new 0 0 60 11.33" xml:space="preserve">
<circle fill="#333333" cx="45.03" cy="6.6" r="0.45"/>
<path fill="#FFB79A" d="M1.25,3.56V2.42H7v1.15H4.72v5.22h-1.2V3.56C3.52,3.56,1.25,3.56,1.25,3.56z"/>
<path fill="#FFB79A" d="M8.14,5.42h1.15v3.34H8.14V8.39C7.93,8.68,7.57,8.82,7.21,8.82c-0.82,0-1.62-0.67-1.62-1.74
	s0.8-1.75,1.62-1.75c0.34,0,0.72,0.16,0.93,0.44V5.42z M7.43,7.77c0.39,0,0.69-0.31,0.69-0.69C8.11,6.7,7.8,6.4,7.43,6.4
	c-0.37,0-0.69,0.31-0.69,0.69C6.74,7.47,7.06,7.77,7.43,7.77z"/>
<path fill="#FFB79A" d="M11.34,8.76H10.2V5.42h1.15v0.52c0.11-0.43,0.65-0.6,0.95-0.6c0.89,0,1.32,0.6,1.32,1.66v1.78h-1.15V7.02
	c0-0.44-0.31-0.58-0.55-0.58c-0.25,0-0.59,0.15-0.59,0.56v1.76C11.32,8.76,11.34,8.76,11.34,8.76z"/>
<path fill="#FFB79A" d="M17.56,5.42l-2.26,5.92h-1.09l1.03-3.02l-1.31-2.9h1.24l0.65,1.63l0.63-1.63
	C16.44,5.42,17.56,5.42,17.56,5.42z"/>
<path fill="#FFB79A" d="M20.2,5.42h1.15v3.34H20.2V8.39c-0.21,0.29-0.56,0.44-0.93,0.44c-0.82,0-1.63-0.67-1.63-1.74
	s0.8-1.75,1.63-1.75c0.34,0,0.72,0.16,0.93,0.44V5.42z M19.51,7.77c0.39,0,0.69-0.31,0.69-0.69c0-0.39-0.31-0.69-0.69-0.69
	c-0.38,0-0.69,0.31-0.69,0.69C18.81,7.47,19.12,7.77,19.51,7.77z"/>
<path fill="#FFB79A" d="M29.02,8.69h-1.1V5.44h1.06v0.8c0.17-0.62,0.6-0.89,1.03-0.89c0.15,0,0.29,0,0.48,0.08l-0.27,1.04
	C29.99,6.4,29.81,6.4,29.71,6.4c-0.43,0-0.68,0.24-0.68,1.22v1.07H29.02z"/>
<path fill="#FFB79A" d="M33.22,5.45h1.1V8.7h-1.1V8.33c-0.2,0.28-0.54,0.44-0.91,0.44c-0.8,0-1.58-0.64-1.58-1.7s0.78-1.7,1.58-1.7
	c0.32,0,0.69,0.15,0.91,0.44V5.45z M32.53,7.75c0.36,0,0.68-0.31,0.68-0.68S32.9,6.4,32.53,6.4s-0.68,0.31-0.68,0.68
	S32.17,7.75,32.53,7.75z"/>
<path fill="#FFB79A" d="M36.1,7.42c-1.02-0.28-1-0.86-1-1.08c0-0.49,0.59-0.98,1.32-0.98c0.68,0,1.43,0.28,1.43,1.11h-1.04
	c0-0.2-0.11-0.29-0.32-0.29c-0.15,0-0.27,0.05-0.27,0.19c0,0.08,0.04,0.16,0.24,0.21l0.58,0.16c0.83,0.23,0.91,0.78,0.91,0.99
	c0,0.72-0.78,1.03-1.47,1.03c-0.69,0-1.42-0.41-1.42-1.15h1.04c0,0.15,0.09,0.34,0.39,0.34c0.19,0,0.34-0.08,0.34-0.21
	c0-0.09-0.05-0.12-0.29-0.19L36.1,7.42z"/>
<path fill="#FFB79A" d="M39.55,7.42c-1.02-0.28-1-0.86-1-1.08c0-0.49,0.59-0.98,1.32-0.98c0.68,0,1.43,0.28,1.43,1.11h-1.04
	c0-0.2-0.11-0.29-0.32-0.29c-0.15,0-0.27,0.05-0.27,0.19c0,0.08,0.04,0.16,0.24,0.21l0.58,0.16c0.83,0.23,0.91,0.78,0.91,0.99
	c0,0.72-0.78,1.03-1.47,1.03c-0.69,0-1.42-0.41-1.42-1.15h1.04c0,0.15,0.09,0.34,0.39,0.34c0.19,0,0.34-0.08,0.34-0.21
	c0-0.09-0.05-0.12-0.29-0.19L39.55,7.42z"/>
<path fill="#FFB79A" d="M42.68,3.74c0.36,0,0.67,0.27,0.67,0.62S43.05,5,42.68,5s-0.67-0.28-0.67-0.64C42,4,42.3,3.74,42.68,3.74z
	 M42.12,8.69h1.1V5.44h-1.1V8.69z"/>
<path fill="#FFB79A" d="M47.01,6.61l-2.1,1c0.17,0.25,0.56,0.28,0.89,0.12c0.17-0.08,0.36-0.23,0.44-0.51
	c0.17,0.04,0.71,0.12,0.93,0.17c-0.11,0.55-0.6,0.96-1.07,1.17c-0.84,0.4-1.85,0.12-2.29-0.8c-0.44-0.93,0-1.86,0.83-2.26
	c0.83-0.4,1.79-0.16,2.23,0.78C46.91,6.36,46.98,6.53,47.01,6.61z M46.18,6.24c-0.41-0.49-0.95-0.34-1.17-0.23
	c-0.23,0.11-0.72,0.44-0.56,1.06L46.18,6.24z"/>
<path fill="#FFB79A" d="M26.17,5.57c0.76,0.12,1.07,0.92,1.07,1.54c0,0.95-0.48,1.92-1.85,1.92h-2.46V2.54h2.29
	c1.04,0,1.71,0.69,1.71,1.74C26.96,4.66,26.79,5.36,26.17,5.57z M25.16,5.02c0.36,0,0.64-0.27,0.64-0.71s-0.17-0.78-0.62-0.78h-1.02
	v1.48h1.01V5.02z M24.14,6.25v1.67h1.1c0.54,0,0.79-0.43,0.79-0.84c0-0.39-0.23-0.82-0.8-0.82H24.14z"/>
<path fill="#222222" d="M58.99,3.5c0,0.93-0.76,1.7-1.7,1.7h-6.52c-0.24,0-0.58,0-0.76,0s-0.52,0-0.73,0c-0.93,0-1.7-0.76-1.7-1.7
	V3.47c0-0.93,0.76-1.7,1.7-1.7h8.02c0.93,0,1.7,0.76,1.7,1.7V3.5H58.99z"/>
<g enable-background="new    ">
	<path fill="#FFFFFF" d="M48.99,2.58v0.57c0.09-0.11,0.21-0.17,0.34-0.17c0.07,0,0.14,0.01,0.19,0.04c0.05,0.03,0.09,0.06,0.12,0.09
		c0.03,0.04,0.05,0.08,0.06,0.14c0.01,0.05,0.01,0.12,0.01,0.23v0.67h-0.3v-0.6c0-0.11-0.01-0.2-0.02-0.23
		c-0.01-0.03-0.03-0.06-0.06-0.07c-0.03-0.02-0.06-0.03-0.1-0.03c-0.05,0-0.09,0.01-0.14,0.03c-0.04,0.02-0.07,0.06-0.08,0.11
		c-0.02,0.05-0.03,0.12-0.03,0.22v0.57h-0.3V2.59h0.31V2.58z"/>
	<path fill="#FFFFFF" d="M50.75,3.79l0.3,0.05c-0.04,0.11-0.1,0.2-0.18,0.25c-0.08,0.06-0.19,0.08-0.31,0.08
		c-0.2,0-0.34-0.06-0.44-0.2c-0.07-0.1-0.11-0.23-0.11-0.4c0-0.19,0.05-0.33,0.15-0.44c0.09-0.1,0.22-0.16,0.38-0.16
		c0.17,0,0.3,0.05,0.4,0.17s0.15,0.28,0.14,0.51h-0.75c0,0.09,0.03,0.16,0.07,0.21c0.04,0.05,0.1,0.07,0.18,0.07
		c0.05,0,0.08-0.01,0.11-0.04C50.71,3.88,50.74,3.84,50.75,3.79z M50.77,3.49c0-0.08-0.02-0.16-0.06-0.2
		c-0.04-0.04-0.09-0.07-0.16-0.07c-0.06,0-0.11,0.02-0.17,0.07c-0.05,0.05-0.06,0.11-0.06,0.2H50.77z"/>
	<path fill="#FFFFFF" d="M51.37,4.16V2.59h0.3v1.56H51.37z"/>
	<path fill="#FFFFFF" d="M52.05,4.16V2.59h0.3v1.56H52.05z"/>
	<path fill="#FFFFFF" d="M52.66,3.57c0-0.1,0.02-0.2,0.07-0.29c0.05-0.09,0.11-0.17,0.21-0.22c0.09-0.05,0.19-0.07,0.3-0.07
		c0.17,0,0.31,0.05,0.43,0.17s0.17,0.25,0.17,0.43c0,0.17-0.05,0.31-0.17,0.43s-0.25,0.17-0.42,0.17c-0.1,0-0.21-0.02-0.3-0.07
		c-0.09-0.05-0.17-0.11-0.22-0.21C52.68,3.81,52.66,3.7,52.66,3.57z M52.97,3.58c0,0.11,0.03,0.2,0.08,0.26
		c0.05,0.06,0.11,0.09,0.2,0.09s0.15-0.03,0.2-0.09c0.05-0.06,0.08-0.15,0.08-0.26s-0.03-0.2-0.08-0.26
		c-0.05-0.06-0.11-0.09-0.2-0.09s-0.15,0.03-0.2,0.09C52.99,3.39,52.97,3.47,52.97,3.58z"/>
	<path fill="#FFFFFF" d="M54.06,3.57c0-0.1,0.02-0.2,0.07-0.29c0.05-0.09,0.11-0.17,0.21-0.22c0.09-0.05,0.19-0.07,0.3-0.07
		c0.17,0,0.31,0.05,0.43,0.17c0.11,0.11,0.17,0.25,0.17,0.43c0,0.17-0.05,0.31-0.17,0.43c-0.11,0.11-0.25,0.17-0.42,0.17
		c-0.1,0-0.21-0.02-0.3-0.07c-0.09-0.05-0.17-0.11-0.22-0.21C54.08,3.81,54.06,3.7,54.06,3.57z M54.36,3.58
		c0,0.11,0.03,0.2,0.08,0.26c0.05,0.06,0.11,0.09,0.2,0.09s0.15-0.03,0.2-0.09c0.05-0.06,0.08-0.15,0.08-0.26s-0.03-0.2-0.08-0.26
		c-0.05-0.06-0.11-0.09-0.2-0.09s-0.15,0.03-0.2,0.09C54.4,3.39,54.36,3.47,54.36,3.58z"/>
	<path fill="#FFFFFF" d="M55.46,3.57c0-0.1,0.02-0.2,0.07-0.29c0.05-0.09,0.11-0.17,0.21-0.22c0.09-0.05,0.19-0.07,0.3-0.07
		c0.17,0,0.31,0.05,0.43,0.17c0.11,0.11,0.17,0.25,0.17,0.43c0,0.17-0.05,0.31-0.17,0.43c-0.11,0.11-0.25,0.17-0.42,0.17
		c-0.1,0-0.21-0.02-0.3-0.07c-0.09-0.05-0.17-0.11-0.22-0.21C55.49,3.81,55.46,3.7,55.46,3.57z M55.77,3.58
		c0,0.11,0.03,0.2,0.08,0.26c0.05,0.06,0.11,0.09,0.2,0.09s0.15-0.03,0.2-0.09c0.05-0.06,0.08-0.15,0.08-0.26s-0.03-0.2-0.08-0.26
		c-0.05-0.06-0.11-0.09-0.2-0.09s-0.15,0.03-0.2,0.09C55.79,3.39,55.77,3.47,55.77,3.58z"/>
	<path fill="#FFFFFF" d="M56.86,3.57c0-0.1,0.02-0.2,0.07-0.29c0.05-0.09,0.11-0.17,0.21-0.22c0.09-0.05,0.19-0.07,0.3-0.07
		c0.17,0,0.31,0.05,0.43,0.17c0.11,0.11,0.17,0.25,0.17,0.43c0,0.17-0.05,0.31-0.17,0.43c-0.11,0.11-0.25,0.17-0.42,0.17
		c-0.1,0-0.21-0.02-0.3-0.07c-0.09-0.05-0.17-0.11-0.22-0.21C56.89,3.81,56.86,3.7,56.86,3.57z M57.17,3.58
		c0,0.11,0.03,0.2,0.08,0.26c0.05,0.06,0.11,0.09,0.2,0.09s0.15-0.03,0.2-0.09c0.05-0.06,0.08-0.15,0.08-0.26s-0.03-0.2-0.08-0.26
		c-0.05-0.06-0.11-0.09-0.2-0.09s-0.15,0.03-0.2,0.09C57.2,3.39,57.17,3.47,57.17,3.58z"/>
</g>
<path fill="#222222" d="M48.56,4.55c0.04,0.52-0.68,1.56-0.68,1.56s2.02-0.82,1.83-1.36C49.65,4.54,48.54,4.33,48.56,4.55z"/>
<path fill="#FFB79A" d="M-1.83-16.48"/>
</svg>
