<svg id="magazine" xmlns="http://www.w3.org/2000/svg" viewBox="0 0 200 200" enable-background="new 0 0 200 200"><path fill="#F7F7EB" stroke="#000" stroke-width="2.5" stroke-linecap="round" stroke-linejoin="round" stroke-miterlimit="10" d="M46.9 28.3h103.9v130.8H46.9zM16.4 50.4h103.9v130.8H16.4z"/><path fill="#D6F8FC" d="M20.1 78.5H116v70.1H20.1z"/><path stroke="#B3B3B3" stroke-miterlimit="10" fill="none" d="M31.6 63.6h49.3M31.6 71.2h48.2M33.1 155.8h49.3M33.1 163.5h48.4"/><path fill="#F4AEAE" stroke="#101010" stroke-width="2.5" stroke-linecap="round" stroke-linejoin="round" stroke-miterlimit="10" d="M167.733 181.686L65.1 165.488 85.492 36.284l102.633 16.198z"/><path fill="#F7F7EB" d="M162.27 170.655l-88.014-13.89 17.508-110.93 88.013 13.89z"/><path d="M168.696 126.278l-88.013-13.89 4.864-30.82 88.013 13.89z"/><g fill="#fff"><path d="M107.3 93l3.5.4-2.2 14.8 4.6.7-.4 2.9-8-1.3 2.5-17.5zM123 95.5l-2.7 17.7-3.5-.4 2.7-17.7 3.5.4zM128.5 96.4l7.7 1.1-.4 3.1-4.2-.7-.7 4.6 4 .7-.4 2.9-4-.7-1.1 7.3-3.5-.4 2.6-17.9zM147.1 109.4l-4-.7-.7 4.9 4.6.7-.4 3.1-8-1.3 2.7-17.7 7.7 1.1-.4 3.1-4.2-.7-.7 4 4 .7-.6 2.8z"/></g></svg>