<?xml version="1.0" encoding="utf-8"?>
<!-- Generator: Adobe Illustrator 17.1.0, SVG Export Plug-In . SVG Version: 6.00 Build 0)  -->
<!DOCTYPE svg PUBLIC "-//W3C//DTD SVG 1.1//EN" "http://www.w3.org/Graphics/SVG/1.1/DTD/svg11.dtd">
<svg version="1.1" id="Layer_1" xmlns="http://www.w3.org/2000/svg" xmlns:xlink="http://www.w3.org/1999/xlink" x="0px" y="0px"
	 viewBox="0 0 76.8 21.3" enable-background="new 0 0 76.8 21.3" xml:space="preserve">
<path fill="#E5BE1A" d="M61.1-153.6c-2.2-36.6,24.1-54.7,53.8-54.7s50.8,20.7,54.7,54.7c0,0,4.3,19.3,4.3,75.3
	c0,12.9-3.3,66.3-3.3,66.3H61.1c0,0,4.2-23.3,4-51C64.7-130.2,61.1-153.6,61.1-153.6z"/>
<path fill="#E5BE1A" d="M256.2-151.9c-2.2-36.6,24.1-54.7,53.8-54.7c29.7,0,50.8,20.7,54.7,54.7c0,0-1.9,38.6,4.3,75.3
	c7,41.6-3.3,66.3-3.3,66.3H256.2c0,0-7.9-19.6-6-51C252.8-104,256.2-151.9,256.2-151.9z"/>
<path fill="#E5BE1A" d="M470.1-153.6c-2.2-36.6,24.1-54.7,53.8-54.7c29.7,0,52,10.2,49.7,51.7c0,0,0.3,38.6,0.3,94.6
	c0,12.9,5.7,50.1,5.7,50.1H470.1c0,0,4.2-23.3,4-51C473.7-130.2,470.1-153.6,470.1-153.6z"/>
<rect x="14.8" y="-11.9" fill="#1A1A1A" width="799" height="3.4"/>
<path fill="#E5BE1A" d="M653.6-153.6c-3.8-46.4,24.1-54.7,53.8-54.7c29.7,0,64,19.9,54.7,54.7c0,0-4.9,15.5,4.3,75.3
	c2,12.7-3.3,66.3-3.3,66.3H653.6c0,0,4.2-23.3,4-51C657.2-130.2,653.6-153.6,653.6-153.6z"/>
<g>
	<path fill="#AF0814" d="M124.8-142.8c0,15.4-18.3,27.8-40.8,27.8s-41.7-12.5-41.7-27.8s19.1-27.8,41.7-27.8
		c20.7,0,37.9,10.6,40.5,24.2C124.6-145.2,124.8-144,124.8-142.8z"/>
	<path fill="#2D2D2B" d="M112.1-143.8c0,10.2-13.8,21.4-30.9,21.4s-34.4-7.7-32.9-21.4c1.2-11,14.6-19.8,32.9-18.4
		C100.9-160.7,112.1-153.9,112.1-143.8z"/>
	<polygon fill="#AF0814" points="133.1,-145.1 123.1,-136.6 122.8,-151.4 	"/>
</g>
<circle fill="#2D2D2B" cx="68.6" cy="-186.3" r="3"/>
<circle fill="#2D2D2B" cx="145.9" cy="-175.3" r="3"/>
<circle fill="#2D2D2B" cx="265.8" cy="-185.3" r="3"/>
<circle fill="#2D2D2B" cx="343.1" cy="-174.3" r="3"/>
<circle fill="#2D2D2B" cx="475.9" cy="-180.8" r="3"/>
<path fill="#2D2D2B" d="M536.8-175.9c0.4,2.1-1.4,3.9-3.5,3.5c-1.2-0.2-2.1-1.2-2.4-2.4c-0.4-2.1,1.4-3.9,3.5-3.5
	C535.6-178.1,536.5-177.1,536.8-175.9z"/>
<circle fill="#2D2D2B" cx="660.6" cy="-183.3" r="3"/>
<circle fill="#2D2D2B" cx="737.9" cy="-172.3" r="3"/>
<g>
	<path fill="#FF1D25" d="M346.8-110c-4.7,18.9-31,28.6-58.7,21.7c-27.7-6.9-47.4-28.1-42.7-47s32.1-28.3,59.8-21.4
		c25.5,6.4,43.3,24.6,42.3,42.2C347.4-113.1,347.2-111.5,346.8-110z"/>
	<path fill="#2D2D2B" d="M331.5-115.1c-3.1,12.5-23.6,22-44.5,16.8c-21-5.2-39.9-20-33.9-36.4c4.8-13.2,24-19.8,46.1-12.5
		C323-139.3,334.6-127.6,331.5-115.1z"/>
	<g>
		<path fill="#FF1D25" d="M355.4-111.6c-5,1.9-10.2,5.5-15,11.8c1-9.4,2.6-17.1,4.1-23.4C348-117.1,351.8-113.5,355.4-111.6z"/>
	</g>
</g>
<g>
	<path fill="#E5461C" d="M536-130.5c0,12.2-17.6,22.1-39.3,22.1c-21.7,0-40.1-9.9-40.1-22.1c0-12.2,18.4-22.1,40.1-22.1
		c20,0,36.5,8.4,39,19.3C535.9-132.4,536-131.4,536-130.5z"/>
	<path fill="#2D2D2B" d="M523.8-131.2c0,8.1-13.3,17-29.8,17s-33.1-6.1-31.7-17c1.1-8.8,14-15.7,31.7-14.6
		C513.1-144.7,523.8-139.3,523.8-131.2z"/>
	<g>
		<path fill="#E5461C" d="M542.2-131.9c-3.2,1.1-6.6,3.8-9.7,8.6c-0.4-5.4-0.5-10.8-0.3-16.4C535.4-135.5,538.8-133.1,542.2-131.9z"
			/>
	</g>
</g>
<g>
	<path fill="#FF1D25" d="M722.7-144.2c0,15.4-18.3,27.8-40.8,27.8c-22.5,0-41.7-12.5-41.7-27.8s19.1-27.8,41.7-27.8
		c20.7,0,37.9,10.6,40.5,24.2C722.5-146.7,722.7-145.5,722.7-144.2z"/>
	<path fill="#2D2D2B" d="M710-145.2c0,10.2-13.8,21.4-30.9,21.4c-17.1,0-34.4-7.7-32.9-21.4c1.2-11,14.6-19.8,32.9-18.4
		C698.8-162.1,710-155.3,710-145.2z"/>
	<g>
		<path fill="#FF1D25" d="M730-146.7c-3.5,3-6.4,5.9-10,7.7c-0.1-4.3-0.2-8.6-0.3-12.9C723.2-150.4,726.3-149,730-146.7z"/>
	</g>
</g>
<ellipse fill="#414949" cx="37.7" cy="10.7" rx="10.5" ry="10.5"/>
<line fill="none" stroke="#FFFFFF" stroke-width="0.75" stroke-miterlimit="10" x1="37.7" y1="0.2" x2="37.7" y2="21.2"/>
<line fill="none" stroke="#FFFFFF" stroke-width="0.75" stroke-miterlimit="10" x1="48.2" y1="10.7" x2="27.2" y2="10.7"/>
</svg>
