<svg id="clock" xmlns="http://www.w3.org/2000/svg" viewBox="0 0 83 78" enable-background="new 0 0 83 78"><path stroke="#262626" stroke-width="2" stroke-miterlimit="10" d="M62.1 26.2c-5.3-9 .4-13.5-3.1-17.2-5.7-6-31.8-5.5-38.8 0-4.2 3.3 2 8.3-3.1 17" fill="none"/><circle fill="#F9F9F2" stroke="#262626" stroke-width="2" stroke-miterlimit="10" cx="39.8" cy="47.6" r="24.8"/><path fill="#232323" d="M26.7 19c1.1 1.2 1.1 2.9.1 3.8L14.3 33.5c-1 .8-2.6.5-3.7-.7s-1.1-2.9-.1-3.8L23 18.2c1-.8 2.7-.5 3.7.8z"/><path fill="#090909" d="M52.5 19c-1.1 1.2-1.1 2.9-.1 3.8L65 33.6c1 .8 2.6.5 3.7-.7s1.1-2.9.1-3.8L56.2 18.2c-.9-.8-2.6-.5-3.7.8z"/><path fill="#262626" d="M42.8 16.1c0 .6-.5 1.1-1.1 1.1h-5c-.6 0-1.1-.5-1.1-1.1 0-.6.5-1.1 1.1-1.1h5c.6 0 1.1.5 1.1 1.1z"/><path stroke="#262626" stroke-width="1.564" stroke-miterlimit="10" fill="none" d="M39.2 17.2v5.6"/><path fill="#262626" d="M57.4 65c-2.5 3.2-5.7 5.1-5.7 5.1l1.6 3.9h4.1v-9zM22.1 65c2.5 3.2 5.7 5.1 5.7 5.1L26.2 74h-4.1v-9z"/><ellipse fill="#F9F9F2" cx="39.8" cy="47.5" rx="22.6" ry="21.4"/><ellipse stroke="#262626" stroke-width=".782" stroke-linecap="round" stroke-linejoin="round" stroke-dasharray="0.3874,2.3241" cx="39.8" cy="47.5" rx="22.6" ry="21.4" fill="none"/><circle opacity=".5" fill="#C8EDE4" cx="39.8" cy="47.5" r="13.8"/><circle fill="#262626" cx="39.8" cy="47.7" r="1.7"/><path stroke="#262626" stroke-width="1.5" stroke-linecap="round" stroke-miterlimit="10" fill="none" d="M39.9 47.9V31.3M39.9 47.9l9.5 9.5"/></svg>