<?xml version="1.0" encoding="utf-8"?>
<!-- Generator: Adobe Illustrator 17.1.0, SVG Export Plug-In . SVG Version: 6.00 Build 0)  -->
<!DOCTYPE svg PUBLIC "-//W3C//DTD SVG 1.1//EN" "http://www.w3.org/Graphics/SVG/1.1/DTD/svg11.dtd">
<svg version="1.1" id="Layer_1" xmlns="http://www.w3.org/2000/svg" xmlns:xlink="http://www.w3.org/1999/xlink" x="0px" y="0px"
	 viewBox="0 0 316.3 306" enable-background="new 0 0 316.3 306" xml:space="preserve">
<ellipse fill="#FFFFFF" cx="157" cy="152.5" rx="153" ry="150.5"/>
<path fill="#29ABE2" d="M186.1,78.9c0.1,0.1,0.1,0.1,0.2,0.2"/>
<g>
	<path fill="#E90026" d="M202.7,281.7c-28.4,8.9-61.6,8.9-90,0c3.1-53.4,11-115.8,21.3-169.2c13.3,1.8,34.1,1.8,47.4,0
		C191.7,165.9,199.5,228.3,202.7,281.7z"/>
</g>
<ellipse fill="#C90232" cx="157.2" cy="254.3" rx="25.4" ry="23.8"/>
<path fill="#A8AEAF" d="M167.6,258.2c0-5.5-6.7-11.5-10.8-11.5c-4,0-10.8,6.1-10.8,11.6V270h21.8L167.6,258.2z"/>
<path fill="#444236" d="M176.7,193.1c0,0-15.4,2.7-20.6,2.7c-4.9,0-19.6-2.7-19.6-2.7s1.3-23.5,1.3-31.6c0-5-1.3-19.5-1.3-19.5h40.2
	c0,0-1.3,14.5-1.3,19.5C175.3,169.6,176.7,193.1,176.7,193.1z"/>
<circle fill="#808080" cx="158.1" cy="177.8" r="13.3"/>
<g opacity="0.36">
	<path fill="#999999" d="M174.7,143.5h-0.5c-0.1,0-0.1,0.1-0.1,0.1s0.1,0.1,0.1,0.1h0.5C174.7,143.6,174.7,143.5,174.7,143.5
		L174.7,143.5z M173.4,143.5h-0.5c-0.1,0-0.1,0.1-0.1,0.1s0.1,0.1,0.1,0.1h0.5c0.1,0,0.1-0.1,0.1-0.1S173.5,143.5,173.4,143.5
		L173.4,143.5z M172.1,143.5h-0.5c-0.1,0-0.1,0.1-0.1,0.1s0.1,0.1,0.1,0.1h0.5c0.1,0,0.1-0.1,0.1-0.1S172.2,143.5,172.1,143.5
		L172.1,143.5z M170.8,143.5h-0.5c-0.1,0-0.1,0.1-0.1,0.1s0.1,0.1,0.1,0.1h0.5c0.1,0,0.1-0.1,0.1-0.1S170.9,143.5,170.8,143.5
		L170.8,143.5z M169.5,143.5H169c-0.1,0-0.1,0.1-0.1,0.1s0.1,0.1,0.1,0.1h0.5c0.1,0,0.1-0.1,0.1-0.1S169.6,143.5,169.5,143.5
		L169.5,143.5z M168.2,143.5h-0.5c-0.1,0-0.1,0.1-0.1,0.1s0.1,0.1,0.1,0.1h0.5c0.1,0,0.1-0.1,0.1-0.1S168.3,143.5,168.2,143.5
		L168.2,143.5z M166.9,143.5h-0.5c-0.1,0-0.1,0.1-0.1,0.1s0.1,0.1,0.1,0.1h0.5c0.1,0,0.1-0.1,0.1-0.1S167,143.5,166.9,143.5
		L166.9,143.5z M165.6,143.5h-0.5c-0.1,0-0.1,0.1-0.1,0.1s0.1,0.1,0.1,0.1h0.5c0.1,0,0.1-0.1,0.1-0.1S165.7,143.5,165.6,143.5
		L165.6,143.5z M164.3,143.5h-0.5c-0.1,0-0.1,0.1-0.1,0.1s0.1,0.1,0.1,0.1h0.5c0.1,0,0.1-0.1,0.1-0.1S164.4,143.5,164.3,143.5
		L164.3,143.5z M163,143.5h-0.5c-0.1,0-0.1,0.1-0.1,0.1s0.1,0.1,0.1,0.1h0.5c0.1,0,0.1-0.1,0.1-0.1S163.1,143.5,163,143.5L163,143.5
		z M161.7,143.5h-0.5c-0.1,0-0.1,0.1-0.1,0.1s0.1,0.1,0.1,0.1h0.5c0.1,0,0.1-0.1,0.1-0.1S161.8,143.5,161.7,143.5L161.7,143.5z
		 M160.4,143.5h-0.5c-0.1,0-0.1,0.1-0.1,0.1s0.1,0.1,0.1,0.1h0.5c0.1,0,0.1-0.1,0.1-0.1S160.5,143.5,160.4,143.5L160.4,143.5z
		 M159.1,143.5h-0.5c-0.1,0-0.1,0.1-0.1,0.1s0.1,0.1,0.1,0.1h0.5c0.1,0,0.1-0.1,0.1-0.1S159.2,143.5,159.1,143.5L159.1,143.5z
		 M157.8,143.5h-0.5c-0.1,0-0.1,0.1-0.1,0.1s0.1,0.1,0.1,0.1h0.5c0.1,0,0.1-0.1,0.1-0.1S157.9,143.5,157.8,143.5L157.8,143.5z
		 M156.5,143.5H156c-0.1,0-0.1,0.1-0.1,0.1s0.1,0.1,0.1,0.1h0.5c0.1,0,0.1-0.1,0.1-0.1S156.6,143.5,156.5,143.5L156.5,143.5z
		 M155.2,143.5h-0.5c-0.1,0-0.1,0.1-0.1,0.1s0.1,0.1,0.1,0.1h0.5c0.1,0,0.1-0.1,0.1-0.1S155.3,143.5,155.2,143.5L155.2,143.5z
		 M153.9,143.5h-0.5c-0.1,0-0.1,0.1-0.1,0.1s0.1,0.1,0.1,0.1h0.5c0.1,0,0.1-0.1,0.1-0.1S154,143.5,153.9,143.5L153.9,143.5z
		 M152.6,143.5h-0.5c-0.1,0-0.1,0.1-0.1,0.1s0.1,0.1,0.1,0.1h0.5c0.1,0,0.1-0.1,0.1-0.1S152.7,143.5,152.6,143.5L152.6,143.5z
		 M151.3,143.5h-0.5c-0.1,0-0.1,0.1-0.1,0.1s0.1,0.1,0.1,0.1h0.5c0.1,0,0.1-0.1,0.1-0.1S151.4,143.5,151.3,143.5L151.3,143.5z
		 M150,143.5h-0.5c-0.1,0-0.1,0.1-0.1,0.1s0.1,0.1,0.1,0.1h0.5c0.1,0,0.1-0.1,0.1-0.1S150.1,143.5,150,143.5L150,143.5z
		 M148.7,143.5h-0.5c-0.1,0-0.1,0.1-0.1,0.1s0.1,0.1,0.1,0.1h0.5c0.1,0,0.1-0.1,0.1-0.1S148.8,143.5,148.7,143.5L148.7,143.5z
		 M147.4,143.5h-0.5c-0.1,0-0.1,0.1-0.1,0.1s0.1,0.1,0.1,0.1h0.5c0.1,0,0.1-0.1,0.1-0.1S147.5,143.5,147.4,143.5L147.4,143.5z
		 M146.1,143.5h-0.5c-0.1,0-0.1,0.1-0.1,0.1s0.1,0.1,0.1,0.1h0.5c0.1,0,0.1-0.1,0.1-0.1S146.2,143.5,146.1,143.5L146.1,143.5z
		 M144.8,143.5h-0.5c-0.1,0-0.1,0.1-0.1,0.1s0.1,0.1,0.1,0.1h0.5c0.1,0,0.1-0.1,0.1-0.1S144.9,143.5,144.8,143.5L144.8,143.5z
		 M143.5,143.5H143c-0.1,0-0.1,0.1-0.1,0.1s0.1,0.1,0.1,0.1h0.5c0.1,0,0.1-0.1,0.1-0.1S143.6,143.5,143.5,143.5L143.5,143.5z
		 M142.2,143.5h-0.5c-0.1,0-0.1,0.1-0.1,0.1s0.1,0.1,0.1,0.1h0.5c0.1,0,0.1-0.1,0.1-0.1S142.3,143.5,142.2,143.5L142.2,143.5z
		 M140.9,143.5h-0.5c-0.1,0-0.1,0.1-0.1,0.1s0.1,0.1,0.1,0.1h0.5c0.1,0,0.1-0.1,0.1-0.1S141,143.5,140.9,143.5L140.9,143.5z
		 M139.6,143.5h-0.4l0,0c0,0,0,0.1,0,0.2h0.4c0.1,0,0.1-0.1,0.1-0.1S139.7,143.5,139.6,143.5L139.6,143.5z M139.4,144.3
		C139.4,144.3,139.4,144.3,139.4,144.3c-0.1,0-0.1,0.1-0.1,0.1c0,0.1,0,0.3,0,0.5c0,0,0,0,0,0c0,0.1,0.1,0.1,0.1,0.1c0,0,0,0,0,0
		c0.1,0,0.1-0.1,0.1-0.1l0-0.5C139.6,144.3,139.5,144.3,139.4,144.3L139.4,144.3z M139.5,145.6C139.5,145.6,139.5,145.6,139.5,145.6
		c-0.1,0-0.1,0.1-0.1,0.1c0,0,0,0.1,0,0.1c0,0.1,0,0.3,0,0.4c0,0.1,0.1,0.1,0.1,0.1c0,0,0,0,0,0c0.1,0,0.1-0.1,0.1-0.1l0-0.5
		C139.7,145.6,139.6,145.6,139.5,145.6L139.5,145.6z M139.7,146.9C139.7,146.9,139.6,146.9,139.7,146.9c-0.1,0-0.1,0.1-0.1,0.1
		c0,0,0,0,0,0.1c0,0.1,0,0.3,0,0.4c0,0.1,0.1,0.1,0.1,0.1c0,0,0,0,0,0c0.1,0,0.1-0.1,0.1-0.1l0-0.5
		C139.8,146.9,139.7,146.9,139.7,146.9L139.7,146.9z M139.8,148.2C139.8,148.2,139.8,148.2,139.8,148.2c-0.1,0-0.1,0.1-0.1,0.1
		c0,0.1,0,0.2,0,0.2c0,0.1,0,0.2,0,0.3c0,0.1,0.1,0.1,0.1,0.1c0,0,0,0,0,0c0.1,0,0.1-0.1,0.1-0.1l0-0.5
		C139.9,148.2,139.8,148.2,139.8,148.2L139.8,148.2z M139.9,149.5C139.9,149.5,139.9,149.5,139.9,149.5c-0.1,0-0.1,0.1-0.1,0.1
		c0,0,0,0,0,0c0,0.1,0,0.3,0,0.4l0,0c0,0,0,0,0,0c0,0,0,0,0,0c0,0.1,0.1,0.1,0.1,0.1c0,0,0,0,0,0c0.1,0,0.1-0.1,0.1-0.1l0-0.5
		C140,149.5,139.9,149.5,139.9,149.5L139.9,149.5z M140,150.8C140,150.8,140,150.8,140,150.8c-0.1,0-0.1,0.1-0.1,0.1c0,0,0,0,0,0.1
		c0,0.1,0,0.2,0,0.3c0,0,0,0.1,0,0.1c0,0.1,0.1,0.1,0.1,0.1c0,0,0,0,0,0c0.1,0,0.1-0.1,0.1-0.1l0-0.5
		C140.1,150.8,140,150.8,140,150.8L140,150.8z M140.1,152.1C140.1,152.1,140.1,152.1,140.1,152.1c-0.1,0-0.1,0.1-0.1,0.1
		c0,0.1,0,0.2,0,0.2c0,0.1,0,0.2,0,0.3c0,0.1,0.1,0.1,0.1,0.1c0,0,0,0,0,0c0.1,0,0.1-0.1,0.1-0.1l0-0.5
		C140.2,152.1,140.1,152.1,140.1,152.1L140.1,152.1z M140.2,153.4C140.2,153.4,140.2,153.4,140.2,153.4c-0.1,0-0.1,0.1-0.1,0.1
		c0,0.1,0,0.2,0,0.2c0,0,0,0,0,0c0,0,0,0,0,0c0,0,0,0,0,0c0,0,0,0,0,0c0,0,0,0,0,0c0,0,0,0,0,0c0,0,0,0,0,0c0,0.1,0,0.1,0,0.2
		c0,0.1,0.1,0.1,0.1,0.1c0,0,0,0,0,0c0.1,0,0.1-0.1,0.1-0.1l0-0.5C140.3,153.4,140.2,153.4,140.2,153.4L140.2,153.4z M140.2,154.7
		C140.2,154.7,140.2,154.7,140.2,154.7c-0.1,0-0.1,0.1-0.1,0.1c0,0.1,0,0.2,0,0.2c0,0.1,0,0.1,0,0.2c0,0,0,0,0,0.1
		c0,0.1,0.1,0.1,0.1,0.1c0,0,0,0,0,0c0.1,0,0.1-0.1,0.1-0.1l0-0.5C140.4,154.7,140.3,154.7,140.2,154.7L140.2,154.7z M140.3,156
		C140.3,156,140.3,156,140.3,156c-0.1,0-0.1,0.1-0.1,0.1c0,0,0,0,0,0c0,0.2,0,0.3,0,0.5c0,0.1,0.1,0.1,0.1,0.1c0,0,0,0,0,0
		c0.1,0,0.1-0.1,0.1-0.1l0-0.5C140.4,156,140.4,156,140.3,156L140.3,156z M140.4,157.3C140.4,157.3,140.4,157.3,140.4,157.3
		c-0.1,0-0.1,0.1-0.1,0.1c0,0.2,0,0.3,0,0.5c0,0.1,0.1,0.1,0.1,0.1c0,0,0,0,0,0c0.1,0,0.1-0.1,0.1-0.1l0-0.5
		C140.5,157.3,140.5,157.3,140.4,157.3L140.4,157.3z M140.5,158.6C140.5,158.6,140.5,158.6,140.5,158.6c-0.1,0-0.1,0.1-0.1,0.1
		c0,0,0,0,0,0c0,0.2,0,0.3,0,0.5c0,0.1,0.1,0.1,0.1,0.1c0,0,0,0,0,0c0.1,0,0.1-0.1,0.1-0.1l0-0.5
		C140.6,158.6,140.5,158.6,140.5,158.6L140.5,158.6z M140.5,159.9C140.5,159.9,140.5,159.9,140.5,159.9c-0.1,0-0.1,0.1-0.1,0.1
		c0,0.2,0,0.3,0,0.5c0,0.1,0.1,0.1,0.1,0.1c0,0,0,0,0,0c0.1,0,0.1-0.1,0.1-0.1l0-0.5C140.6,159.9,140.6,159.9,140.5,159.9
		L140.5,159.9z M140.5,161.2C140.5,161.2,140.5,161.2,140.5,161.2c-0.1,0-0.1,0.1-0.1,0.1c0,0,0,0,0,0c0,0,0,0,0,0.1c0,0,0,0,0,0
		c0,0,0,0,0,0c0,0,0,0,0,0c0,0,0,0,0,0c0,0,0,0,0,0l0,0l0,0l0,0c0,0,0,0,0,0c0,0,0,0,0,0c0,0,0,0,0,0c0,0,0,0,0,0c0,0,0,0,0,0
		c0,0,0,0,0,0c0,0,0,0,0,0c0,0,0,0,0,0c0,0,0,0,0,0c0,0,0,0,0,0v0c0,0.1,0,0.1,0,0.2c0,0,0,0.1,0,0.1c0,0.1,0.1,0.1,0.1,0.1
		c0,0,0,0,0,0c0.1,0,0.1-0.1,0.1-0.1l0-0.4l0-0.1C140.7,161.2,140.6,161.2,140.5,161.2L140.5,161.2z M140.5,162.5
		c-0.1,0-0.1,0.1-0.1,0.1c0,0.1,0,0.2,0,0.3c0,0,0,0,0,0c0,0,0,0,0,0c0,0,0,0,0,0v0c0,0.1,0,0.1,0,0.2c0,0.1,0.1,0.1,0.1,0.1
		c0,0,0,0,0,0c0.1,0,0.1-0.1,0.1-0.1l0-0.5C140.7,162.5,140.6,162.5,140.5,162.5C140.5,162.5,140.5,162.5,140.5,162.5L140.5,162.5z
		 M140.5,163.8c-0.1,0-0.1,0.1-0.1,0.1c0,0.2,0,0.3,0,0.5c0,0.1,0.1,0.1,0.1,0.1c0,0,0,0,0,0c0.1,0,0.1-0.1,0.1-0.1l0-0.5
		C140.6,163.8,140.6,163.8,140.5,163.8C140.5,163.8,140.5,163.8,140.5,163.8L140.5,163.8z M140.5,165.1c-0.1,0-0.1,0.1-0.1,0.1
		c0,0.1,0,0.2,0,0.3c0,0.1,0,0.2,0,0.2c0,0.1,0.1,0.1,0.1,0.1c0,0,0,0,0,0c0.1,0,0.1-0.1,0.1-0.1l0-0.5
		C140.6,165.1,140.6,165.1,140.5,165.1C140.5,165.1,140.5,165.1,140.5,165.1L140.5,165.1z M140.4,166.4c-0.1,0-0.1,0.1-0.1,0.1
		c0,0.2,0,0.3,0,0.5c0,0.1,0.1,0.1,0.1,0.1c0,0,0,0,0,0c0.1,0,0.1-0.1,0.1-0.1l0-0.5C140.6,166.4,140.5,166.4,140.4,166.4
		C140.4,166.4,140.4,166.4,140.4,166.4L140.4,166.4z M140.4,167.7c-0.1,0-0.1,0.1-0.1,0.1c0,0.1,0,0.1,0,0.2c0,0.1,0,0.1,0,0.2
		c0,0,0,0.1,0,0.1c0,0.1,0.1,0.1,0.1,0.1c0,0,0,0,0,0c0.1,0,0.1-0.1,0.1-0.1l0-0.5C140.5,167.7,140.5,167.7,140.4,167.7
		C140.4,167.7,140.4,167.7,140.4,167.7L140.4,167.7z M140.4,169c-0.1,0-0.1,0.1-0.1,0.1c0,0.1,0,0.1,0,0.2c0,0.1,0,0.2,0,0.3
		c0,0.1,0.1,0.1,0.1,0.1c0,0,0,0,0,0c0.1,0,0.1-0.1,0.1-0.1l0-0.5C140.5,169,140.4,169,140.4,169C140.4,169,140.4,169,140.4,169
		L140.4,169z M140.3,170.3c-0.1,0-0.1,0.1-0.1,0.1c0,0.1,0,0.2,0,0.3c0,0.1,0,0.1,0,0.2c0,0.1,0.1,0.1,0.1,0.1c0,0,0,0,0,0
		c0.1,0,0.1-0.1,0.1-0.1l0-0.5C140.4,170.3,140.4,170.3,140.3,170.3C140.3,170.3,140.3,170.3,140.3,170.3L140.3,170.3z M140.3,171.6
		c-0.1,0-0.1,0.1-0.1,0.1c0,0.2,0,0.3,0,0.5c0,0.1,0.1,0.1,0.1,0.1c0,0,0,0,0,0c0.1,0,0.1-0.1,0.1-0.1l0-0.5
		C140.4,171.6,140.3,171.6,140.3,171.6C140.3,171.6,140.3,171.6,140.3,171.6L140.3,171.6z M140.2,172.9c-0.1,0-0.1,0.1-0.1,0.1
		c0,0.2,0,0.3,0,0.5c0,0.1,0.1,0.1,0.1,0.1c0,0,0,0,0,0c0.1,0,0.1-0.1,0.1-0.1l0-0.5C140.3,172.9,140.3,172.9,140.2,172.9
		C140.2,172.9,140.2,172.9,140.2,172.9L140.2,172.9z M140.2,174.2c-0.1,0-0.1,0.1-0.1,0.1c0,0.2,0,0.3,0,0.5c0,0.1,0.1,0.1,0.1,0.1
		c0,0,0,0,0,0c0.1,0,0.1-0.1,0.1-0.1l0-0.5C140.3,174.2,140.2,174.2,140.2,174.2C140.2,174.2,140.2,174.2,140.2,174.2L140.2,174.2z
		 M140.1,175.5c-0.1,0-0.1,0.1-0.1,0.1c0,0,0,0.1,0,0.1c0,0.1,0,0.3,0,0.4c0,0.1,0.1,0.1,0.1,0.1c0,0,0,0,0,0c0.1,0,0.1-0.1,0.1-0.1
		l0-0.5C140.2,175.5,140.2,175.5,140.1,175.5C140.1,175.5,140.1,175.5,140.1,175.5L140.1,175.5z M140,176.8c-0.1,0-0.1,0.1-0.1,0.1
		c0,0,0,0,0,0c0,0.1,0,0.2,0,0.3c0,0.1,0,0.1,0,0.2c0,0.1,0.1,0.1,0.1,0.1c0,0,0,0,0,0c0.1,0,0.1-0.1,0.1-0.1l0-0.5
		C140.2,176.8,140.1,176.8,140,176.8C140,176.8,140,176.8,140,176.8L140,176.8z M140,178.1c-0.1,0-0.1,0.1-0.1,0.1c0,0,0,0.1,0,0.1
		c0,0.1,0,0.3,0,0.4c0,0.1,0.1,0.1,0.1,0.1c0,0,0,0,0,0c0.1,0,0.1-0.1,0.1-0.1l0-0.5C140.1,178.1,140.1,178.1,140,178.1
		C140,178.1,140,178.1,140,178.1L140,178.1z M139.9,179.4c-0.1,0-0.1,0.1-0.1,0.1c0,0.2,0,0.3,0,0.5c0,0.1,0.1,0.1,0.1,0.1
		c0,0,0,0,0,0c0.1,0,0.1-0.1,0.1-0.1l0-0.5C140.1,179.4,140,179.4,139.9,179.4C139.9,179.4,139.9,179.4,139.9,179.4L139.9,179.4z
		 M139.9,180.7c-0.1,0-0.1,0.1-0.1,0.1c0,0.1,0,0.1,0,0.2c0,0.1,0,0.2,0,0.3c0,0.1,0,0.1,0.1,0.1c0,0,0,0,0,0c0.1,0,0.1-0.1,0.1-0.1
		l0-0.5C140,180.7,139.9,180.7,139.9,180.7C139.9,180.7,139.9,180.7,139.9,180.7L139.9,180.7z M139.8,181.9c-0.1,0-0.1,0.1-0.1,0.1
		c0,0.2,0,0.3,0,0.5c0,0.1,0.1,0.1,0.1,0.1c0,0,0,0,0,0c0.1,0,0.1-0.1,0.1-0.1l0-0.5C139.9,182,139.9,182,139.8,181.9
		C139.8,181.9,139.8,181.9,139.8,181.9L139.8,181.9z M139.7,183.2c-0.1,0-0.1,0.1-0.1,0.1c0,0.2,0,0.3,0,0.5c0,0.1,0,0.1,0.1,0.1
		c0,0,0,0,0,0c0.1,0,0.1-0.1,0.1-0.1l0-0.5C139.9,183.3,139.8,183.3,139.7,183.2C139.7,183.2,139.7,183.2,139.7,183.2L139.7,183.2z
		 M139.7,184.5c-0.1,0-0.1,0.1-0.1,0.1c0,0,0,0.1,0,0.1c0,0.1,0,0.3,0,0.4c0,0,0,0,0,0c0,0.1,0,0.1,0.1,0.1c0,0,0,0,0,0
		c0.1,0,0.1-0.1,0.1-0.1l0-0.5C139.8,184.6,139.8,184.6,139.7,184.5C139.7,184.5,139.7,184.5,139.7,184.5L139.7,184.5z M139.6,185.8
		c-0.1,0-0.1,0.1-0.1,0.1c0,0.2,0,0.3,0,0.5c0,0.1,0,0.1,0.1,0.1c0,0,0,0,0,0c0.1,0,0.1-0.1,0.1-0.1l0-0.5
		C139.7,185.9,139.7,185.8,139.6,185.8C139.6,185.8,139.6,185.8,139.6,185.8L139.6,185.8z M139.5,187.1c-0.1,0-0.1,0.1-0.1,0.1
		c0,0.1,0,0.1,0,0.1c0,0.1,0,0.2,0,0.4c0,0.1,0,0.1,0.1,0.1c0,0,0,0,0,0c0.1,0,0.1-0.1,0.1-0.1l0-0.5
		C139.7,187.2,139.6,187.1,139.5,187.1C139.6,187.1,139.5,187.1,139.5,187.1L139.5,187.1z M139.5,188.4c-0.1,0-0.1,0.1-0.1,0.1
		c0,0.2,0,0.3,0,0.5c0,0.1,0,0.1,0.1,0.1c0,0,0,0,0,0c0.1,0,0.1-0.1,0.1-0.1l0-0.5C139.6,188.5,139.6,188.4,139.5,188.4
		C139.5,188.4,139.5,188.4,139.5,188.4L139.5,188.4z M139.4,189.7c-0.1,0-0.1,0.1-0.1,0.1c0,0.2,0,0.4,0,0.5c0,0.1,0,0.1,0.1,0.1
		c0,0,0,0,0,0c0.1,0,0.1-0.1,0.1-0.1l0-0.5C139.5,189.8,139.5,189.7,139.4,189.7C139.4,189.7,139.4,189.7,139.4,189.7L139.4,189.7z
		 M139.4,190.8c-0.1,0-0.1,0-0.1,0.1c0,0.1,0,0.1,0.1,0.1c0.1,0,0.3,0.1,0.5,0.1c0,0,0,0,0,0c0.1,0,0.1,0,0.1-0.1
		c0-0.1,0-0.1-0.1-0.1L139.4,190.8C139.4,190.8,139.4,190.8,139.4,190.8L139.4,190.8z M140.7,191c-0.1,0-0.1,0-0.1,0.1
		c0,0.1,0,0.1,0.1,0.1c0.1,0,0.1,0,0.2,0c0,0,0,0,0,0c0,0,0,0,0,0c0.1,0,0.2,0,0.2,0c0,0,0,0,0,0c0,0,0,0,0,0c0,0,0,0,0,0
		c0,0,0,0,0,0c0,0,0,0,0,0c0,0,0,0,0,0c0.1,0,0.1,0,0.1-0.1c0-0.1,0-0.1-0.1-0.1L140.7,191C140.7,191,140.7,191,140.7,191L140.7,191
		z M142,191.3c-0.1,0-0.1,0-0.1,0.1c0,0.1,0,0.1,0.1,0.1c0,0,0,0,0.1,0c0.1,0,0.3,0.1,0.4,0.1c0,0,0,0,0,0c0.1,0,0.1,0,0.1-0.1
		c0-0.1,0-0.1-0.1-0.1L142,191.3C142,191.3,142,191.3,142,191.3L142,191.3z M143.3,191.5c-0.1,0-0.1,0-0.1,0.1c0,0.1,0,0.1,0.1,0.1
		c0,0,0,0,0.1,0c0.1,0,0.2,0,0.3,0c0.1,0,0.1,0,0.2,0c0,0,0,0,0,0c0.1,0,0.1,0,0.1-0.1c0-0.1,0-0.1-0.1-0.1L143.3,191.5
		C143.3,191.5,143.3,191.5,143.3,191.5L143.3,191.5z M144.5,191.7c-0.1,0-0.1,0-0.1,0.1c0,0.1,0,0.1,0.1,0.1c0,0,0.1,0,0.1,0
		c0.1,0,0.1,0,0.2,0c0.1,0,0.1,0,0.2,0c0,0,0,0,0,0c0.1,0,0.1,0,0.1-0.1c0-0.1,0-0.1-0.1-0.1L144.5,191.7
		C144.6,191.7,144.5,191.7,144.5,191.7L144.5,191.7z M145.8,191.9c-0.1,0-0.1,0-0.1,0.1c0,0.1,0,0.1,0.1,0.1c0,0,0,0,0.1,0
		c0,0,0,0,0,0c0,0,0,0,0,0c0.1,0,0.3,0,0.4,0.1c0,0,0,0,0,0c0.1,0,0.1,0,0.1-0.1c0-0.1,0-0.1-0.1-0.1L145.8,191.9
		C145.8,191.9,145.8,191.9,145.8,191.9L145.8,191.9z M147.1,192.2c-0.1,0-0.1,0-0.1,0.1c0,0.1,0,0.1,0.1,0.1c0.2,0,0.3,0.1,0.5,0.1
		c0,0,0,0,0,0c0.1,0,0.1,0,0.1-0.1c0-0.1,0-0.1-0.1-0.1L147.1,192.2C147.1,192.2,147.1,192.2,147.1,192.2L147.1,192.2z M148.4,192.4
		c-0.1,0-0.1,0-0.1,0.1c0,0.1,0,0.1,0.1,0.1c0,0,0.1,0,0.1,0c0.1,0,0.2,0,0.3,0.1c0,0,0,0,0,0c0,0,0,0,0,0c0,0,0,0,0,0c0,0,0,0,0,0
		c0,0,0,0,0,0c0,0,0,0,0,0c0.1,0,0.1,0,0.1-0.1c0-0.1,0-0.1-0.1-0.1L148.4,192.4C148.4,192.4,148.4,192.4,148.4,192.4L148.4,192.4z
		 M149.7,192.6c-0.1,0-0.1,0-0.1,0.1c0,0.1,0,0.1,0.1,0.1c0,0,0.1,0,0.1,0c0.1,0,0.2,0,0.3,0c0,0,0,0,0,0c0,0,0,0,0,0c0,0,0,0,0,0h0
		c0,0,0.1,0,0.1,0c0,0,0,0,0,0c0.1,0,0.1,0,0.1-0.1c0-0.1,0-0.1-0.1-0.1L149.7,192.6C149.7,192.6,149.7,192.6,149.7,192.6
		L149.7,192.6z M150.9,192.8c-0.1,0-0.1,0-0.1,0.1c0,0.1,0,0.1,0.1,0.1c0.2,0,0.3,0,0.5,0.1c0,0,0,0,0,0c0.1,0,0.1,0,0.1-0.1
		c0-0.1,0-0.1-0.1-0.1L150.9,192.8C151,192.8,151,192.8,150.9,192.8L150.9,192.8z M152.2,193c-0.1,0-0.1,0-0.1,0.1
		c0,0.1,0,0.1,0.1,0.1c0.2,0,0.3,0,0.5,0.1c0,0,0,0,0,0c0.1,0,0.1,0,0.1-0.1c0-0.1,0-0.1-0.1-0.1L152.2,193
		C152.2,193,152.2,193,152.2,193L152.2,193z M153.5,193.1c-0.1,0-0.1,0-0.1,0.1c0,0.1,0,0.1,0.1,0.1c0.2,0,0.3,0,0.5,0.1
		c0,0,0,0,0,0c0.1,0,0.1,0,0.1-0.1c0-0.1,0-0.1-0.1-0.1L153.5,193.1C153.5,193.1,153.5,193.1,153.5,193.1L153.5,193.1z M154.8,193.2
		c-0.1,0-0.1,0-0.1,0.1c0,0.1,0,0.1,0.1,0.1c0.2,0,0.3,0,0.5,0c0,0,0,0,0,0c0.1,0,0.1-0.1,0.1-0.1c0-0.1,0-0.1-0.1-0.1
		C155.2,193.3,155,193.3,154.8,193.2C154.8,193.2,154.8,193.2,154.8,193.2L154.8,193.2z M156.1,193.3c-0.1,0-0.1,0.1-0.1,0.1
		c0,0.1,0.1,0.1,0.1,0.1c0.1,0,0.1,0,0.2,0c0,0,0,0,0,0c0,0,0,0,0,0c0,0,0,0,0,0c0,0,0,0,0,0c0.1,0,0.2,0,0.3,0l0,0c0,0,0,0,0,0
		c0.1,0,0.1-0.1,0.1-0.1c0-0.1-0.1-0.1-0.1-0.1C156.4,193.3,156.3,193.3,156.1,193.3C156.1,193.3,156.1,193.3,156.1,193.3
		L156.1,193.3z M157.9,193.3C157.9,193.3,157.9,193.3,157.9,193.3c-0.2,0-0.3,0-0.5,0c-0.1,0-0.1,0.1-0.1,0.1c0,0.1,0.1,0.1,0.1,0.1
		c0,0,0,0,0,0c0,0,0,0,0,0c0,0,0,0,0,0c0,0,0,0,0,0c0.1,0,0.3,0,0.5,0c0.1,0,0.1-0.1,0.1-0.1C158,193.3,158,193.3,157.9,193.3
		L157.9,193.3z M159.2,193.2C159.2,193.2,159.2,193.2,159.2,193.2l-0.5,0c-0.1,0-0.1,0.1-0.1,0.1c0,0.1,0.1,0.1,0.1,0.1c0,0,0,0,0,0
		c0.1,0,0.1,0,0.2,0c0,0,0,0,0,0c0,0,0,0,0,0c0,0,0,0,0,0c0,0,0,0,0,0c0.1,0,0.2,0,0.3,0c0,0,0,0,0,0l0,0c0.1,0,0.1-0.1,0.1-0.1
		C159.3,193.2,159.2,193.2,159.2,193.2L159.2,193.2z M160.5,193C160.5,193,160.5,193,160.5,193l-0.5,0.1c-0.1,0-0.1,0.1-0.1,0.1
		c0,0.1,0.1,0.1,0.1,0.1c0,0,0,0,0,0c0,0,0,0,0,0c0,0,0,0,0,0l0,0c0.1,0,0.1,0,0.2,0c0.1,0,0.1,0,0.2,0c0,0,0,0,0,0c0,0,0,0,0,0
		c0,0,0,0,0,0l0,0c0,0,0,0,0.1,0c0.1,0,0.1-0.1,0.1-0.1C160.6,193.1,160.5,193,160.5,193L160.5,193z M161.8,192.9
		C161.8,192.9,161.7,192.9,161.8,192.9l-0.5,0.1c-0.1,0-0.1,0.1-0.1,0.1c0,0.1,0.1,0.1,0.1,0.1c0,0,0,0,0,0c0,0,0.1,0,0.1,0
		c0.1,0,0.2,0,0.4,0c0,0,0,0,0.1,0c0.1,0,0.1-0.1,0.1-0.1C161.9,192.9,161.8,192.9,161.8,192.9L161.8,192.9z M163,192.7
		C163,192.7,163,192.7,163,192.7l-0.5,0.1c-0.1,0-0.1,0.1-0.1,0.1c0,0.1,0.1,0.1,0.1,0.1c0,0,0,0,0,0c0.1,0,0.1,0,0.2,0c0,0,0,0,0,0
		c0,0,0,0,0,0c0.1,0,0.1,0,0.2,0c0,0,0,0,0,0l0,0c0,0,0.1,0,0.1,0c0.1,0,0.1-0.1,0.1-0.1C163.2,192.7,163.1,192.7,163,192.7
		L163,192.7z M164.3,192.5C164.3,192.5,164.3,192.5,164.3,192.5l-0.5,0.1c-0.1,0-0.1,0.1-0.1,0.1c0,0.1,0.1,0.1,0.1,0.1c0,0,0,0,0,0
		c0,0,0,0,0.1,0c0,0,0,0,0,0c0,0,0,0,0,0c0.1,0,0.3,0,0.4-0.1l0,0c0.1,0,0.1-0.1,0.1-0.1C164.4,192.6,164.4,192.5,164.3,192.5
		L164.3,192.5z M165.6,192.3C165.6,192.3,165.6,192.3,165.6,192.3l-0.5,0.1c-0.1,0-0.1,0.1-0.1,0.1c0,0.1,0.1,0.1,0.1,0.1
		c0,0,0,0,0,0c0.1,0,0.3,0,0.4-0.1c0,0,0,0,0.1,0c0.1,0,0.1-0.1,0.1-0.1C165.7,192.4,165.7,192.3,165.6,192.3L165.6,192.3z
		 M166.9,192.1C166.9,192.1,166.9,192.1,166.9,192.1l-0.5,0.1c-0.1,0-0.1,0.1-0.1,0.1c0,0.1,0.1,0.1,0.1,0.1c0,0,0,0,0,0
		c0.2,0,0.3-0.1,0.5-0.1c0.1,0,0.1-0.1,0.1-0.1C167,192.2,167,192.1,166.9,192.1L166.9,192.1z M168.2,191.9
		C168.2,191.9,168.2,191.9,168.2,191.9l-0.5,0.1c-0.1,0-0.1,0.1-0.1,0.1c0,0.1,0.1,0.1,0.1,0.1c0,0,0,0,0,0c0.2,0,0.3-0.1,0.5-0.1
		c0.1,0,0.1-0.1,0.1-0.1C168.3,191.9,168.2,191.9,168.2,191.9L168.2,191.9z M169.5,191.7C169.5,191.7,169.4,191.7,169.5,191.7
		l-0.5,0.1c-0.1,0-0.1,0.1-0.1,0.1c0,0.1,0.1,0.1,0.1,0.1c0,0,0,0,0,0c0.1,0,0.1,0,0.2,0c0,0,0.1,0,0.1,0c0.1,0,0.1,0,0.2,0
		c0.1,0,0.1-0.1,0.1-0.1C169.6,191.7,169.5,191.7,169.5,191.7L169.5,191.7z M170.7,191.5C170.7,191.5,170.7,191.5,170.7,191.5
		l-0.5,0.1c-0.1,0-0.1,0.1-0.1,0.1c0,0.1,0.1,0.1,0.1,0.1c0,0,0,0,0,0c0.2,0,0.3-0.1,0.5-0.1c0,0,0,0,0,0c0.1,0,0.1-0.1,0.1-0.1
		C170.9,191.5,170.8,191.5,170.7,191.5L170.7,191.5z M172,191.2C172,191.2,172,191.2,172,191.2l-0.5,0.1c-0.1,0-0.1,0.1-0.1,0.1
		c0,0.1,0.1,0.1,0.1,0.1c0,0,0,0,0,0c0.2,0,0.3-0.1,0.5-0.1c0.1,0,0.1-0.1,0.1-0.1C172.1,191.3,172.1,191.2,172,191.2L172,191.2z
		 M173.3,191C173.3,191,173.3,191,173.3,191l-0.5,0.1c-0.1,0-0.1,0.1-0.1,0.1c0,0.1,0.1,0.1,0.1,0.1c0,0,0,0,0,0
		c0.1,0,0.3,0,0.4-0.1c0,0,0.1,0,0.1,0c0.1,0,0.1-0.1,0.1-0.1C173.4,191,173.4,191,173.3,191L173.3,191z M174.6,190.8
		C174.6,190.8,174.6,190.8,174.6,190.8l-0.5,0.1c-0.1,0-0.1,0.1-0.1,0.1c0,0.1,0.1,0.1,0.1,0.1c0,0,0,0,0,0c0.1,0,0.2,0,0.3,0
		c0.1,0,0.2,0,0.2,0c0.1,0,0.1-0.1,0.1-0.1C174.7,190.8,174.6,190.8,174.6,190.8L174.6,190.8z M174.5,189.7
		C174.5,189.7,174.5,189.7,174.5,189.7c-0.1,0-0.1,0.1-0.1,0.1l0,0.5c0,0.1,0.1,0.1,0.1,0.1c0,0,0,0,0,0c0.1,0,0.1-0.1,0.1-0.1
		c0-0.1,0-0.3,0-0.5C174.7,189.7,174.6,189.7,174.5,189.7L174.5,189.7z M174.5,188.4C174.5,188.4,174.5,188.4,174.5,188.4
		c-0.1,0-0.1,0.1-0.1,0.1l0,0.5c0,0.1,0.1,0.1,0.1,0.1c0,0,0,0,0,0c0.1,0,0.1-0.1,0.1-0.1c0,0,0,0,0-0.1c0-0.1,0-0.3,0-0.4
		C174.6,188.4,174.5,188.4,174.5,188.4L174.5,188.4z M174.4,187.1C174.4,187.1,174.4,187.1,174.4,187.1c-0.1,0-0.1,0.1-0.1,0.1
		l0,0.5c0,0.1,0.1,0.1,0.1,0.1c0,0,0,0,0,0c0.1,0,0.1-0.1,0.1-0.1c0-0.2,0-0.3,0-0.5c0,0,0,0,0,0
		C174.5,187.1,174.5,187.1,174.4,187.1L174.4,187.1z M174.3,185.8C174.3,185.8,174.3,185.8,174.3,185.8c-0.1,0-0.1,0.1-0.1,0.1
		l0,0.5c0,0.1,0.1,0.1,0.1,0.1c0,0,0,0,0,0c0.1,0,0.1-0.1,0.1-0.1c0-0.2,0-0.3,0-0.5C174.4,185.8,174.4,185.8,174.3,185.8
		L174.3,185.8z M174.3,184.5C174.2,184.5,174.2,184.5,174.3,184.5c-0.1,0-0.1,0.1-0.1,0.1l0,0.5c0,0.1,0.1,0.1,0.1,0.1c0,0,0,0,0,0
		c0.1,0,0.1-0.1,0.1-0.1c0-0.1,0-0.2,0-0.2c0-0.1,0-0.2,0-0.3C174.4,184.5,174.3,184.5,174.3,184.5L174.3,184.5z M174.2,183.2
		C174.2,183.2,174.2,183.2,174.2,183.2c-0.1,0-0.1,0.1-0.1,0.1l0,0.5c0,0.1,0.1,0.1,0.1,0.1c0,0,0,0,0,0c0.1,0,0.1-0.1,0.1-0.1
		c0-0.2,0-0.3,0-0.5C174.3,183.3,174.2,183.2,174.2,183.2L174.2,183.2z M174.1,181.9C174.1,181.9,174.1,181.9,174.1,181.9
		c-0.1,0-0.1,0.1-0.1,0.1l0,0.5c0,0.1,0.1,0.1,0.1,0.1c0,0,0,0,0,0c0.1,0,0.1-0.1,0.1-0.1c0,0,0-0.1,0-0.1c0-0.1,0-0.2,0-0.4
		C174.2,182,174.2,181.9,174.1,181.9L174.1,181.9z M174.1,180.6C174.1,180.6,174,180.6,174.1,180.6c-0.1,0-0.1,0.1-0.1,0.1l0,0.5
		c0,0.1,0.1,0.1,0.1,0.1c0,0,0,0,0,0c0.1,0,0.1-0.1,0.1-0.1c0-0.2,0-0.3,0-0.5C174.2,180.7,174.1,180.6,174.1,180.6L174.1,180.6z
		 M174,179.3C174,179.3,174,179.3,174,179.3c-0.1,0-0.1,0.1-0.1,0.1l0,0.5c0,0.1,0.1,0.1,0.1,0.1c0,0,0,0,0,0c0.1,0,0.1-0.1,0.1-0.1
		c0-0.2,0-0.3,0-0.5C174.1,179.4,174.1,179.3,174,179.3L174,179.3z M173.9,178C173.9,178,173.9,178,173.9,178
		c-0.1,0-0.1,0.1-0.1,0.1l0,0.5c0,0.1,0.1,0.1,0.1,0.1c0,0,0,0,0,0c0.1,0,0.1-0.1,0.1-0.1c0,0,0-0.1,0-0.1c0,0,0,0,0,0v0
		c0,0,0-0.1,0-0.1c0-0.1,0-0.2,0-0.2C174,178.1,174,178,173.9,178L173.9,178z M173.9,176.7C173.9,176.7,173.9,176.7,173.9,176.7
		c-0.1,0-0.1,0.1-0.1,0.1l0,0.5c0,0.1,0.1,0.1,0.1,0.1c0,0,0,0,0,0c0.1,0,0.1-0.1,0.1-0.1c0,0,0,0,0-0.1c0,0,0,0,0,0c0,0,0,0,0,0
		c0,0,0-0.1,0-0.1c0,0,0,0,0,0c0,0,0,0,0,0c0-0.1,0-0.2,0-0.2C174,176.8,173.9,176.7,173.9,176.7L173.9,176.7z M173.8,175.4
		C173.8,175.4,173.8,175.4,173.8,175.4c-0.1,0-0.1,0.1-0.1,0.1l0,0.5c0,0.1,0.1,0.1,0.1,0.1c0,0,0,0,0,0c0.1,0,0.1-0.1,0.1-0.1
		c0-0.1,0-0.2,0-0.2c0,0,0,0,0,0c0,0,0,0,0,0c0,0,0,0,0,0c0-0.1,0-0.2,0-0.2C173.9,175.5,173.9,175.4,173.8,175.4L173.8,175.4z
		 M173.8,174.1C173.8,174.1,173.8,174.1,173.8,174.1c-0.1,0-0.1,0.1-0.1,0.1l0,0.5c0,0.1,0.1,0.1,0.1,0.1c0,0,0,0,0,0
		c0.1,0,0.1-0.1,0.1-0.1c0-0.1,0-0.3,0-0.4c0,0,0-0.1,0-0.1C173.9,174.2,173.8,174.1,173.8,174.1L173.8,174.1z M173.7,172.8
		C173.7,172.8,173.7,172.8,173.7,172.8c-0.1,0-0.1,0.1-0.1,0.1l0,0.5c0,0.1,0.1,0.1,0.1,0.1c0,0,0,0,0,0c0.1,0,0.1-0.1,0.1-0.1
		c0,0,0-0.1,0-0.1c0-0.1,0-0.3,0-0.4C173.8,172.9,173.8,172.8,173.7,172.8L173.7,172.8z M173.6,171.5
		C173.6,171.5,173.6,171.5,173.6,171.5c-0.1,0-0.1,0.1-0.1,0.1l0,0.5c0,0.1,0.1,0.1,0.1,0.1c0,0,0,0,0,0c0.1,0,0.1-0.1,0.1-0.1
		c0-0.1,0-0.1,0-0.2c0-0.1,0-0.2,0-0.3C173.8,171.6,173.7,171.5,173.6,171.5L173.6,171.5z M173.6,170.2
		C173.6,170.2,173.6,170.2,173.6,170.2c-0.1,0-0.1,0.1-0.1,0.1l0,0.5c0,0.1,0.1,0.1,0.1,0.1c0,0,0,0,0,0c0.1,0,0.1-0.1,0.1-0.1
		c0,0,0-0.1,0-0.1c0-0.1,0-0.2,0-0.3c0,0,0,0,0,0C173.7,170.3,173.7,170.2,173.6,170.2L173.6,170.2z M173.6,168.9
		C173.6,168.9,173.6,168.9,173.6,168.9c-0.1,0-0.1,0.1-0.1,0.1l0,0.5c0,0.1,0.1,0.1,0.1,0.1c0,0,0,0,0,0c0.1,0,0.1-0.1,0.1-0.1
		c0-0.2,0-0.3,0-0.5c0,0,0,0,0,0C173.7,169,173.6,168.9,173.6,168.9L173.6,168.9z M173.5,167.6C173.5,167.6,173.5,167.6,173.5,167.6
		c-0.1,0-0.1,0.1-0.1,0.1l0,0.5c0,0.1,0.1,0.1,0.1,0.1c0,0,0,0,0,0c0.1,0,0.1-0.1,0.1-0.1c0-0.2,0-0.3,0-0.5
		C173.6,167.7,173.6,167.6,173.5,167.6L173.5,167.6z M173.5,166.3C173.5,166.3,173.5,166.3,173.5,166.3c-0.1,0-0.1,0.1-0.1,0.1
		l0,0.5c0,0.1,0.1,0.1,0.1,0.1c0,0,0,0,0,0c0.1,0,0.1-0.1,0.1-0.1c0-0.1,0-0.2,0-0.3c0-0.1,0-0.1,0-0.2c0,0,0,0,0,0
		C173.6,166.4,173.5,166.3,173.5,166.3L173.5,166.3z M173.4,165C173.4,165,173.4,165,173.4,165c-0.1,0-0.1,0.1-0.1,0.1l0,0.5
		c0,0.1,0.1,0.1,0.1,0.1c0,0,0,0,0,0c0.1,0,0.1-0.1,0.1-0.1c0,0,0,0,0,0c0-0.1,0-0.3,0-0.4c0,0,0,0,0-0.1
		C173.6,165.1,173.5,165,173.4,165L173.4,165z M173.4,163.7C173.4,163.7,173.4,163.7,173.4,163.7c-0.1,0-0.1,0.1-0.1,0.1l0,0.5
		c0,0.1,0.1,0.1,0.1,0.1c0,0,0,0,0,0c0.1,0,0.1-0.1,0.1-0.1c0-0.1,0-0.1,0-0.2c0-0.1,0-0.2,0-0.2c0,0,0-0.1,0-0.1
		C173.5,163.8,173.5,163.7,173.4,163.7L173.4,163.7z M173.4,162.4C173.4,162.4,173.4,162.4,173.4,162.4c-0.1,0-0.1,0.1-0.1,0.1
		l0,0.5c0,0.1,0.1,0.1,0.1,0.1c0,0,0,0,0,0c0.1,0,0.1-0.1,0.1-0.1c0,0,0,0,0-0.1c0,0,0,0,0,0c0,0,0,0,0,0c0-0.2,0-0.3,0-0.4
		C173.5,162.5,173.5,162.4,173.4,162.4L173.4,162.4z M173.4,161.1c-0.1,0-0.1,0.1-0.1,0.1l0,0.1l0,0.4c0,0.1,0.1,0.1,0.1,0.1
		c0,0,0,0,0,0c0.1,0,0.1-0.1,0.1-0.1c0-0.1,0-0.2,0-0.3c0,0,0-0.1,0-0.1C173.5,161.2,173.5,161.1,173.4,161.1
		C173.4,161.1,173.4,161.1,173.4,161.1L173.4,161.1z M173.5,159.8c-0.1,0-0.1,0.1-0.1,0.1l0,0.5c0,0.1,0.1,0.1,0.1,0.1c0,0,0,0,0,0
		c0.1,0,0.1-0.1,0.1-0.1c0-0.1,0-0.2,0-0.3c0-0.1,0-0.1,0-0.2C173.6,159.9,173.5,159.8,173.5,159.8
		C173.5,159.8,173.5,159.8,173.5,159.8L173.5,159.8z M173.5,158.5c-0.1,0-0.1,0.1-0.1,0.1l0,0.5c0,0.1,0.1,0.1,0.1,0.1c0,0,0,0,0,0
		c0.1,0,0.1-0.1,0.1-0.1c0-0.1,0-0.1,0-0.2c0-0.1,0-0.2,0-0.3C173.6,158.6,173.6,158.5,173.5,158.5
		C173.5,158.5,173.5,158.5,173.5,158.5L173.5,158.5z M173.6,157.2c-0.1,0-0.1,0.1-0.1,0.1l0,0.5c0,0.1,0,0.1,0.1,0.1c0,0,0,0,0,0
		c0.1,0,0.1-0.1,0.1-0.1c0-0.1,0-0.1,0-0.2c0-0.1,0-0.2,0-0.3C173.7,157.3,173.7,157.2,173.6,157.2
		C173.6,157.2,173.6,157.2,173.6,157.2L173.6,157.2z M173.7,155.9c-0.1,0-0.1,0.1-0.1,0.1l0,0.5c0,0.1,0,0.1,0.1,0.1c0,0,0,0,0,0
		c0.1,0,0.1-0.1,0.1-0.1c0,0,0-0.1,0-0.1c0-0.1,0-0.3,0-0.4C173.8,156,173.7,155.9,173.7,155.9C173.7,155.9,173.7,155.9,173.7,155.9
		L173.7,155.9z M173.7,154.6c-0.1,0-0.1,0.1-0.1,0.1l0,0.5c0,0.1,0,0.1,0.1,0.1c0,0,0,0,0,0c0.1,0,0.1-0.1,0.1-0.1
		c0-0.2,0-0.3,0-0.5C173.9,154.7,173.8,154.6,173.7,154.6C173.7,154.6,173.7,154.6,173.7,154.6L173.7,154.6z M173.8,153.3
		c-0.1,0-0.1,0.1-0.1,0.1l0,0.5c0,0.1,0,0.1,0.1,0.1c0,0,0,0,0,0c0.1,0,0.1-0.1,0.1-0.1c0-0.1,0-0.2,0-0.3c0-0.1,0-0.2,0-0.2
		c0,0,0,0,0,0C174,153.4,173.9,153.3,173.8,153.3C173.8,153.3,173.8,153.3,173.8,153.3L173.8,153.3z M173.9,152
		c-0.1,0-0.1,0.1-0.1,0.1l0,0.5c0,0.1,0,0.1,0.1,0.1c0,0,0,0,0,0c0.1,0,0.1-0.1,0.1-0.1c0,0,0-0.1,0-0.1c0,0,0,0,0,0c0,0,0,0,0,0
		c0-0.1,0-0.3,0-0.4C174,152.1,174,152,173.9,152C173.9,152,173.9,152,173.9,152L173.9,152z M174,150.7c-0.1,0-0.1,0.1-0.1,0.1
		l0,0.5c0,0.1,0,0.1,0.1,0.1c0,0,0,0,0,0c0.1,0,0.1,0,0.1-0.1c0-0.1,0-0.2,0-0.2c0-0.1,0-0.2,0-0.3
		C174.1,150.8,174.1,150.7,174,150.7C174,150.7,174,150.7,174,150.7L174,150.7z M174.1,149.4c-0.1,0-0.1,0-0.1,0.1l0,0.5
		c0,0.1,0,0.1,0.1,0.1c0,0,0,0,0,0c0.1,0,0.1,0,0.1-0.1c0-0.2,0-0.3,0-0.5C174.2,149.5,174.2,149.4,174.1,149.4
		C174.1,149.4,174.1,149.4,174.1,149.4L174.1,149.4z M174.2,148.1c-0.1,0-0.1,0-0.1,0.1l0,0.5c0,0.1,0,0.1,0.1,0.1c0,0,0,0,0,0
		c0.1,0,0.1,0,0.1-0.1c0,0,0-0.1,0-0.1c0-0.1,0-0.2,0-0.3c0,0,0,0,0,0c0,0,0,0,0,0c0,0,0-0.1,0-0.1
		C174.3,148.2,174.3,148.1,174.2,148.1C174.2,148.1,174.2,148.1,174.2,148.1L174.2,148.1z M174.3,146.8c-0.1,0-0.1,0-0.1,0.1l0,0.5
		c0,0.1,0,0.1,0.1,0.1c0,0,0,0,0,0c0.1,0,0.1,0,0.1-0.1c0-0.2,0-0.3,0-0.5C174.4,146.9,174.4,146.8,174.3,146.8
		C174.3,146.8,174.3,146.8,174.3,146.8L174.3,146.8z M174.4,145.5c-0.1,0-0.1,0-0.1,0.1l0,0.5c0,0.1,0,0.1,0.1,0.1c0,0,0,0,0,0
		c0.1,0,0.1,0,0.1-0.1c0-0.1,0-0.2,0-0.2c0-0.1,0-0.2,0-0.3C174.5,145.6,174.5,145.5,174.4,145.5
		C174.4,145.5,174.4,145.5,174.4,145.5L174.4,145.5z M174.5,144.2c-0.1,0-0.1,0-0.1,0.1l0,0.5c0,0.1,0,0.1,0.1,0.1c0,0,0,0,0,0
		c0.1,0,0.1,0,0.1-0.1c0,0,0,0,0,0c0-0.2,0-0.3,0-0.5C174.7,144.3,174.6,144.2,174.5,144.2C174.5,144.2,174.5,144.2,174.5,144.2
		L174.5,144.2z"/>
</g>
<circle fill="#4D4D4D" stroke="#999999" stroke-width="0.2" stroke-miterlimit="10" stroke-dasharray="0.5,0.5" cx="158.1" cy="178" r="10.2"/>
<rect x="95" y="122.8" fill="#CCCCCC" width="0" height="0.4"/>
<path fill="#666666" d="M172.2,184.5l-28.2-7v-2l0.6-1.9l28.4,7l0.1,2.1C173.1,182.6,172.2,184.4,172.2,184.5z"/>
<circle fill="#E0FCFB" stroke="#FFFFFF" stroke-miterlimit="10" cx="158.2" cy="74.1" r="68.1"/>
<polyline opacity="0.43" fill="#4D4D4D" points="143.2,174.1 144.2,172.2 172.8,179.2 172.8,181.3 "/>
<circle fill="#FFFFFF" stroke="#FFFFFF" stroke-miterlimit="10" cx="191.6" cy="35.2" r="9.5"/>
<line fill="#CCCCCC" x1="139" y1="160" x2="179" y2="160"/>
<line opacity="0.24" fill="none" stroke="#B21919" stroke-width="0.5" stroke-miterlimit="10" stroke-dasharray="1,1" x1="154" y1="254.6" x2="148.9" y2="258.9"/>
<line opacity="0.24" fill="none" stroke="#B21919" stroke-width="0.5" stroke-miterlimit="10" stroke-dasharray="1,1" x1="154.9" y1="255.5" x2="149.8" y2="259.8"/>
<line opacity="0.24" fill="none" stroke="#B21919" stroke-width="0.5" stroke-miterlimit="10" stroke-dasharray="1,1" x1="155.8" y1="256.4" x2="150.7" y2="260.7"/>
<ellipse fill="#37D3F7" cx="126.6" cy="128.6" rx="5.6" ry="5"/>
<ellipse fill="#002EFF" cx="135.3" cy="132.3" rx="5.6" ry="5"/>
<ellipse fill="#E864A0" cx="169.9" cy="136" rx="5.6" ry="5"/>
<ellipse fill="#EF3535" cx="152.6" cy="134.8" rx="5.6" ry="5"/>
<ellipse fill="#EF3535" cx="174.9" cy="132.3" rx="5.6" ry="5"/>
<ellipse fill="#EF3535" cx="184.8" cy="132.3" rx="5.6" ry="5"/>
<ellipse fill="#002EFF" cx="143.9" cy="134.8" rx="5.6" ry="5"/>
<path fill="none" stroke="#FFE545" stroke-width="7" stroke-linejoin="bevel" stroke-miterlimit="10" d="M190.3,138.4
	c-9.6,4.4-20.3,6.8-31.6,6.8c-12,0-23.3-2.7-33.3-7.6"/>
<ellipse fill="#FF7300" cx="145.2" cy="128.6" rx="5.6" ry="5"/>
<ellipse fill="#EF3535" cx="153.8" cy="124.8" rx="5.6" ry="5"/>
<ellipse fill="#002EFF" cx="162.5" cy="127.3" rx="5.6" ry="5"/>
<ellipse fill="#FFFF00" cx="160" cy="136" rx="5.6" ry="5"/>
<ellipse fill="#E864A0" cx="160" cy="118.6" rx="5.6" ry="5"/>
<ellipse fill="#37D3F7" cx="171.2" cy="116.2" rx="5.6" ry="5"/>
<ellipse fill="#E864A0" cx="192.2" cy="127.3" rx="5.6" ry="5"/>
<ellipse fill="#EF3535" cx="198.4" cy="122.4" rx="5.6" ry="5"/>
<ellipse fill="#FF7300" cx="204.6" cy="117.4" rx="5.6" ry="5"/>
<ellipse fill="#FF7300" cx="171.6" cy="122.8" rx="4.5" ry="4"/>
<ellipse fill="#FFFF00" cx="181.1" cy="114.9" rx="5.6" ry="5"/>
<ellipse fill="#37D3F7" cx="192.2" cy="117.4" rx="5.6" ry="5"/>
<ellipse fill="#002EFF" cx="183.6" cy="122.4" rx="5.6" ry="5"/>
<ellipse fill="#E864A0" cx="117.9" cy="123.6" rx="5.6" ry="5"/>
<ellipse fill="#EF3535" cx="146.4" cy="119.9" rx="5.6" ry="5"/>
<ellipse fill="#002EFF" cx="187.3" cy="108.7" rx="5.6" ry="5"/>
<ellipse fill="#002EFF" cx="126.6" cy="118.6" rx="5.6" ry="5"/>
<ellipse fill="#FFFF00" cx="197.2" cy="110" rx="5.6" ry="5"/>
<ellipse fill="#37D3F7" cx="136.5" cy="123.6" rx="5.6" ry="5"/>
<ellipse fill="#FFFF00" cx="135.3" cy="116.2" rx="5.6" ry="5"/>
<ellipse fill="#E864A0" cx="110.5" cy="116.2" rx="5.6" ry="5"/>
<ellipse fill="#FF7300" cx="117.9" cy="113.7" rx="5.6" ry="5"/>
<ellipse fill="#EF3535" cx="209.6" cy="110" rx="5.6" ry="5"/>
<ellipse fill="#E864A0" cx="203.4" cy="105" rx="5.6" ry="5"/>
<ellipse fill="#002EFF" cx="209.6" cy="101.3" rx="5.6" ry="5"/>
<ellipse fill="#37D3F7" cx="209.8" cy="282.1" rx="4.5" ry="4"/>
</svg>
