<svg xmlns="http://www.w3.org/2000/svg" viewBox="0 0 113.2 105.2" enable-background="new 0 0 113.2 105.2"><path stroke="#232323" stroke-width="2" stroke-linecap="round" stroke-linejoin="round" stroke-miterlimit="10" d="M22.7 76.8V64.5c.7-18.3 7.8-36.9 29.9-36.9 22.2 0 29.4 18.8 29.9 37.2v12" fill="none"/><path fill="#FFD66A" stroke="#232323" stroke-width="2" stroke-linecap="round" stroke-linejoin="round" stroke-miterlimit="10" d="M34.3 81.5c0 1.8-1.9 3.3-4.1 3.3h-1c-2.3 0-4.1-1.5-4.1-3.3V61.2c0-1.8 1.9-3.3 4.1-3.3h1c2.3 0 4.1 1.5 4.1 3.3v20.3z"/><path fill="#232323" d="M24.4 76.6c0 .7-.9 1.3-2 1.3s-2-.6-2-1.3V63.5c0-.7.9-1.3 2-1.3s2 .6 2 1.3v13.1z"/><path fill="#FFD66A" stroke="#232323" stroke-width="2" stroke-linecap="round" stroke-linejoin="round" stroke-miterlimit="10" d="M80.2 81.5c0 1.8-1.9 3.3-4.1 3.3h-1c-2.3 0-4.1-1.5-4.1-3.3V61.2c0-1.8 1.9-3.3 4.1-3.3h1c2.3 0 4.1 1.5 4.1 3.3v20.3z"/><path fill="#232323" d="M84.5 76.9c0 .7-.9 1.3-2 1.3s-2-.6-2-1.3V63.8c0-.7.9-1.3 2-1.3s2 .6 2 1.3v13.1z"/></svg>