<?xml version="1.0" encoding="utf-8"?>
<!-- Generator: Adobe Illustrator 17.1.0, SVG Export Plug-In . SVG Version: 6.00 Build 0)  -->
<!DOCTYPE svg PUBLIC "-//W3C//DTD SVG 1.1//EN" "http://www.w3.org/Graphics/SVG/1.1/DTD/svg11.dtd">
<svg version="1.1" id="Layer_1" xmlns="http://www.w3.org/2000/svg" xmlns:xlink="http://www.w3.org/1999/xlink" x="0px" y="0px"
	 viewBox="0 0 83 78" enable-background="new 0 0 83 78" xml:space="preserve">
<path fill="none" stroke="#262626" stroke-width="2" stroke-miterlimit="10" d="M62.1,26.2C56.8,17.2,62.5,12.7,59,9
	c-5.7-6-31.8-5.5-38.8,0c-4.2,3.3,2,8.3-3.1,17"/>
<circle fill="#F9F9F2" stroke="#262626" stroke-width="2" stroke-miterlimit="10" cx="39.8" cy="47.6" r="24.8"/>
<path fill="#232323" d="M26.7,19c1.1,1.2,1.1,2.9,0.1,3.8L14.3,33.5c-1,0.8-2.6,0.5-3.7-0.7l0,0c-1.1-1.2-1.1-2.9-0.1-3.8L23,18.2
	C24,17.4,25.7,17.7,26.7,19L26.7,19z"/>
<path fill="#090909" d="M52.5,19c-1.1,1.2-1.1,2.9-0.1,3.8l12.6,10.8c1,0.8,2.6,0.5,3.7-0.7l0,0c1.1-1.2,1.1-2.9,0.1-3.8L56.2,18.2
	C55.3,17.4,53.6,17.7,52.5,19L52.5,19z"/>
<path fill="#262626" d="M42.8,16.1c0,0.6-0.5,1.1-1.1,1.1h-5c-0.6,0-1.1-0.5-1.1-1.1l0,0c0-0.6,0.5-1.1,1.1-1.1h5
	C42.3,15,42.8,15.5,42.8,16.1L42.8,16.1z"/>
<line fill="none" stroke="#262626" stroke-width="1.5637" stroke-miterlimit="10" x1="39.2" y1="17.2" x2="39.2" y2="22.8"/>
<path fill="#262626" d="M57.4,65c-2.5,3.2-5.7,5.1-5.7,5.1l1.6,3.9h4.1V65z"/>
<path fill="#262626" d="M22.1,65c2.5,3.2,5.7,5.1,5.7,5.1L26.2,74h-4.1V65z"/>
<g>
	<ellipse fill="#F9F9F2" cx="39.8" cy="47.5" rx="22.6" ry="21.4"/>
	
		<ellipse fill="none" stroke="#262626" stroke-width="0.7819" stroke-linecap="round" stroke-linejoin="round" stroke-dasharray="0.3874,2.3241" cx="39.8" cy="47.5" rx="22.6" ry="21.4"/>
</g>
<circle opacity="0.5" fill="#C8EDE4" cx="39.8" cy="47.5" r="13.8"/>
<circle fill="#262626" cx="39.8" cy="47.7" r="1.7"/>
<line fill="none" stroke="#262626" stroke-width="1.5" stroke-linecap="round" stroke-miterlimit="10" x1="39.9" y1="47.9" x2="39.9" y2="31.3"/>
<line fill="none" stroke="#262626" stroke-width="1.5" stroke-linecap="round" stroke-miterlimit="10" x1="39.9" y1="47.9" x2="49.4" y2="57.4"/>
</svg>
