<svg xmlns="http://www.w3.org/2000/svg" viewBox="0 0 113.2 105.2" enable-background="new 0 0 113.2 105.2"><path stroke="#000" stroke-width="2" stroke-linecap="round" stroke-linejoin="round" stroke-miterlimit="10" fill="none" d="M-440-593H582.6V781.1H-440z"/><path fill="#F9F9F2" d="M19.9 100.6c0 1.5 1.3 2.8 2.8 2.8h58.1c1.5 0 2.8-1.3 2.8-2.8V13.2c0-1.5-1.3-2.8-2.8-2.8H22.7c-1.5 0-2.8 1.3-2.8 2.8v87.4z"/><path stroke="#232323" stroke-width="2" stroke-linecap="round" stroke-linejoin="round" stroke-miterlimit="10" d="M19.9 100.6c0 1.5 1.3 2.8 2.8 2.8h58.1c1.5 0 2.8-1.3 2.8-2.8V13.2c0-1.5-1.3-2.8-2.8-2.8H22.7c-1.5 0-2.8 1.3-2.8 2.8v87.4z" fill="none"/><path stroke="#232323" stroke-width="1.5" stroke-linecap="round" stroke-linejoin="round" stroke-miterlimit="10" d="M69.5 57.9h-7.9V34h14.8v17.2c.1 3.7-3 6.7-6.9 6.7z" fill="none"/><path fill="#F4E9D3" stroke="#101010" stroke-width="1.5" stroke-linecap="round" stroke-linejoin="round" stroke-miterlimit="10" d="M25.8 31.8h27.9v54.8H25.8z"/><path fill="#E4F9ED" stroke="#232323" stroke-width="1.5" stroke-linecap="round" stroke-linejoin="round" stroke-miterlimit="10" d="M30 38h19.6v14.7H30z"/><path fill="#101010" d="M45.7 56c0 .3.3.6.6.6s.6-.3.6-.6-.3-.6-.6-.6-.6.2-.6.6z"/><path stroke="#232323" stroke-width="1.5" stroke-linecap="round" stroke-linejoin="round" stroke-miterlimit="10" fill="none" d="M30 57.1h9.8"/><path fill="#232323" d="M29.1 79.7c0 .6.4 1 1 1h19.7c.6 0 1-.4 1-1v-2c0-.6-.4-1-1-1H30.1c-.6 0-1 .4-1 1v2z"/><path stroke="#fff" stroke-width="1.388" stroke-linecap="round" stroke-miterlimit="10" d="M29.1 79.7c0 .6.4 1 1 1h19.7c.6 0 1-.4 1-1v-2c0-.6-.4-1-1-1H30.1c-.6 0-1 .4-1 1v2z" fill="none"/><path fill="#101010" d="M47.5 56c0 .3.3.6.6.6s.6-.3.6-.6-.3-.6-.6-.6-.6.2-.6.6zM49.2 56c0 .3.3.6.6.6s.6-.3.6-.6-.3-.6-.6-.6-.6.2-.6.6zM45.7 57.9c0 .3.3.6.6.6s.6-.3.6-.6v-.1c0-.3-.3-.6-.6-.6s-.6.4-.6.7zM47.4 57.9c0 .3.3.6.6.6s.6-.3.6-.6v-.1c0-.3-.3-.6-.6-.6s-.6.4-.6.7zM49.2 57.9c0 .3.3.6.6.6s.6-.3.6-.6v-.1c0-.3-.3-.6-.6-.6s-.6.4-.6.7zM45.7 59.8c0 .3.3.6.6.6s.6-.3.6-.6v-.1c0-.3-.3-.6-.6-.6s-.6.3-.6.7zM47.4 59.8c0 .3.3.6.6.6s.6-.3.6-.6v-.1c0-.3-.3-.6-.6-.6s-.6.3-.6.7zM49.2 59.8c0 .3.3.6.6.6s.6-.3.6-.6v-.1c0-.3-.3-.6-.6-.6s-.6.3-.6.7z"/><path fill="#232323" d="M74 16.5H29.4v-5.9c0-1.9 1.5-3.4 3.4-3.4h37.7c1.9 0 3.4 1.5 3.4 3.4v5.9zM19.9 96.6h63.7v6.8H19.9z"/><g fill="#fff"><path d="M36.1 10.8h-1.4v-1h4.1v1h-1.5v4.4h-1.2v-4.4zM41.6 9.7v5.4h-1.2V9.7h1.2zM47.5 15c-.2.1-.7.2-1.4.2-1.9 0-2.8-1.2-2.8-2.7 0-1.8 1.3-2.9 2.9-2.9.6 0 1.1.1 1.3.2l-.2 1c-.2-.1-.6-.2-1-.2-1 0-1.7.6-1.7 1.8 0 1.1.6 1.8 1.7 1.8.4 0 .8-.1 1-.2l.2 1zM49.2 9.7h1.2v2.4c.1-.2.2-.4.4-.6L52 9.7h1.5L51.7 12l1.9 3.1h-1.4l-1.3-2.3-.5.6v1.8h-1.2V9.7zM58.2 12.8h-2v1.3h2.2v1H55V9.7h3.3v1h-2.1v1.1h2v1zM61.3 10.8h-1.4v-1H64v1h-1.5v4.4h-1.2v-4.4zM65.5 13.9c.3.2.8.3 1.4.3.6 0 .9-.2.9-.6 0-.3-.3-.5-.9-.8-.9-.3-1.5-.8-1.5-1.6 0-.9.8-1.6 2-1.6.6 0 1.1.1 1.4.3l-.3 1c-.2-.1-.6-.3-1.1-.3-.5 0-.8.2-.8.5s.3.5 1 .8c1 .4 1.4.8 1.4 1.6 0 .9-.7 1.7-2.2 1.7-.6 0-1.2-.2-1.5-.3l.2-1z"/></g><path fill="#B3B3B3" d="M69.4 53.8h-3c-.6 0-1.1-.5-1.1-1.1v-4.3c0-.6.5-1.1 1.1-1.1h5.3c.6 0 1.1.5 1.1 1.1v2c0 1.9-1.5 3.4-3.4 3.4z"/><path stroke="#232323" stroke-width=".953" stroke-linecap="round" stroke-linejoin="round" stroke-miterlimit="10" fill="none" d="M66.7 50.5H71"/><g stroke-width="1.235" stroke-miterlimit="10" fill="none"><path stroke="#232323" d="M19.9 16.5h63.6"/><path stroke="#1E1E1E" d="M19.9 18.8h63.6"/><path stroke="#1A1A1A" d="M19.9 21.1h63.6"/><path stroke="#151515" d="M19.9 23.4h63.6"/><path stroke="#101010" d="M19.9 25.6h63.6"/></g><path fill="#232323" d="M67.7 41.8c0 .6.4 1 1 1H71c.6 0 1-.4 1-1V39c0-.6-.4-1-1-1h-2.3c-.6 0-1 .4-1 1v2.8z"/><path stroke="#232323" stroke-linecap="round" stroke-linejoin="round" stroke-miterlimit="10" stroke-dasharray="0,2" fill="none" d="M66 38.4v5.1"/></svg>