<svg id="Layer_1" data-name="Layer 1" xmlns="http://www.w3.org/2000/svg" viewBox="0 0 322.48 313.48"><defs><style>.cls-1{fill:#3a04ff;}.cls-2,.cls-3,.cls-4,.cls-6{fill:#fff6f3;}.cls-3,.cls-4,.cls-6{stroke:#000;}.cls-3,.cls-4,.cls-6,.cls-7{stroke-miterlimit:10;}.cls-3{stroke-width:4px;}.cls-4{stroke-width:3px;}.cls-5{fill:#ffc7c2;}.cls-6{stroke-width:16.35px;}.cls-7{fill:none;stroke:#3a04ff;stroke-width:6px;}</style></defs><title>Artboard 8</title><path class="cls-1" d="M313.43,155.88c0,10.37-35.7,16.58-37.9,26.28-2.28,10,27.14,31.08,22.78,40.11s-39.28-.72-45.58,7.17,11,39.7,3.12,46-35-17.68-44.19-13.25S204.51,302.77,194.5,305c-9.7,2.2-23.67-31.17-34-31.17s-24.33,33.37-34,31.17c-10-2.28-8.13-38.46-17.17-42.82S73,281.77,65.08,275.47s9.45-38.1,3.12-46-41.15,2-45.58-7.17,25.05-30.1,22.78-40.11c-2.2-9.7-37.9-15.92-37.9-26.28S43.2,139.3,45.4,129.6c2.28-10-27.14-31.08-22.78-40.11s39.28.72,45.58-7.17-11-39.7-3.12-46,35,17.68,44.19,13.25S116.42,9,126.43,6.71c9.7-2.2,23.67,31.17,34,31.17s24.33-33.37,34-31.17c10,2.28,8.13,38.46,17.17,42.82S248,30,255.85,36.29s-9.45,38.1-3.12,46,41.15-2,45.58,7.17-25.05,30.1-22.78,40.11C277.73,139.3,313.43,145.51,313.43,155.88Z"/><rect class="cls-2" x="99.52" y="109.07" width="115.85" height="119.57"/><rect class="cls-3" x="121.06" y="186.95" width="66.11" height="22.52" rx="11.26" ry="11.26" transform="translate(-16.69 14.19) rotate(-5)"/><line class="cls-3" x1="121.18" y1="201.09" x2="187.05" y2="195.33"/><line class="cls-3" x1="153.49" y1="186.96" x2="155.45" y2="209.4"/><line class="cls-3" x1="141.91" y1="187.97" x2="143.88" y2="210.41"/><line class="cls-3" x1="130.88" y1="188.94" x2="132.84" y2="211.37"/><line class="cls-3" x1="175.04" y1="185.07" x2="177" y2="207.51"/><line class="cls-3" x1="164" y1="186.04" x2="165.96" y2="208.48"/><line class="cls-4" x1="148.57" y1="109.07" x2="148.57" y2="83.73"/><circle class="cls-2" cx="148.12" cy="81.04" r="5.27"/><rect class="cls-5" x="106.52" y="133.16" width="100.26" height="37.05"/><rect class="cls-6" x="173.92" y="145.52" width="9.81" height="9.81" rx="4.9" ry="4.9"/><rect class="cls-6" x="126.51" y="147.15" width="9.81" height="9.81" rx="4.9" ry="4.9"/><circle class="cls-2" cx="131.41" cy="152.6" r="4.9"/><circle class="cls-2" cx="178.81" cy="149.87" r="4.9"/><line class="cls-7" x1="142.86" y1="126.98" x2="107.23" y2="126.98"/><line class="cls-7" x1="206.82" y1="127.16" x2="170.19" y2="127.16"/></svg>