<?xml version="1.0" encoding="utf-8"?>
<!-- Generator: Adobe Illustrator 17.1.0, SVG Export Plug-In . SVG Version: 6.00 Build 0)  -->
<!DOCTYPE svg PUBLIC "-//W3C//DTD SVG 1.1//EN" "http://www.w3.org/Graphics/SVG/1.1/DTD/svg11.dtd">
<svg version="1.1" id="Layer_1" xmlns="http://www.w3.org/2000/svg" xmlns:xlink="http://www.w3.org/1999/xlink" x="0px" y="0px"
	 viewBox="0 0 156 213.8" enable-background="new 0 0 156 213.8" xml:space="preserve">
<path fill="#FFA81D" d="M36,212.6c0,0,3.6-28.7,3.4-52.5c-1-38-8.4-52.5-8.4-52.5C21,76,32.5,33.7,82.4,35
	c25.6,0.7,44.8,8.8,42.8,44.5c0,0,0.3,33.2,0.3,81.4c0,11.1,4.9,51.7,4.9,51.7"/>
<path fill="#1A1A1A" d="M86.2,211"/>
<circle fill="#2D2D2B" cx="41" cy="58.6" r="2.6"/>
<path fill="#2D2D2B" d="M93.5,62.8c0.3,1.8-1.2,3.4-3,3c-1-0.2-1.8-1-2.1-2.1c-0.3-1.8,1.2-3.4,3-3C92.4,61,93.2,61.9,93.5,62.8z"/>
<g>
	<path fill="#FF4E50" d="M90.2,106.3c0,10.5-15.2,19-33.8,19s-31.1-8.7-31.1-19.2s12.4-18.9,31.1-18.9c17.2,0,31.4,7.2,33.6,16.6
		C90.1,104.7,90.2,105.4,90.2,106.3z"/>
	<g>
		<path fill="#FF4E50" d="M85.4,99.8c1,4.6,2.3,8.3,3.5,11c2-4.7,4.1-7.4,6-8.7C91.8,101.2,88.7,100.4,85.4,99.8z"/>
	</g>
	<path fill="#2D2D2B" d="M71.7,106c0,4.6-8.4,8.3-18.9,8.3s-17.4-3.7-17.4-8.3c0-4.6,7-8.2,17.4-8.2c9.6,0,17.6,3.1,18.8,7.1
		C71.7,105.4,71.7,105.7,71.7,106z"/>
</g>
<line fill="none" stroke="#2D2D2B" stroke-width="2" stroke-linecap="round" stroke-miterlimit="10" x1="34.7" y1="55.7" x2="47.4" y2="55.7"/>
<line fill="none" stroke="#2D2D2B" stroke-width="2" stroke-linecap="round" stroke-miterlimit="10" x1="84.5" y1="60.3" x2="97.3" y2="60.3"/>
</svg>
