<svg xmlns="http://www.w3.org/2000/svg" viewBox="0 0 200 200" enable-background="new 0 0 200 200"><path fill="#CC3429" d="M198.3 100l-20.2 15.8 12.6 22.5-24.5 6.8 3.2 25.7-25.1-3.4-6.7 25.1-22.1-12.9L99.9 200l-15.6-20.4-22.1 12.9-6.7-25.1-25.2 3.4 3.1-25.7-24.5-6.8 12.6-22.5-20-15.8 20-15.8L8.9 61.7l24.5-6.8-3.1-25.7 25.2 3.3 6.7-25 22.1 12.9L99.9 0l15.6 20.4 22.1-12.9 6.7 25 25.1-3.3-3.2 25.7 24.5 6.8-12.6 22.5z"/><g fill="#fff" stroke="#fff" stroke-width=".25" stroke-miterlimit="10"><path d="M62.2 67.4L65 55.9c.9-3.7 3.7-7.1 8-7.1s5.4 3.2 4.5 7.1l-2.8 11.5c-.9 4.1-3.5 7.1-7.8 7.1-4.5 0-5.6-3-4.7-7.1zm11.3 0l2.8-11.5c.7-3.2 0-6.1-3.5-6.1s-5.8 2.8-6.7 6.1l-2.8 11.5c-.7 3.3 0 5.9 3.7 5.9 3.6.2 5.6-2.4 6.5-5.9zm2.1-10.9l-2.8 11c-.7 3-2.4 5.6-5.8 5.6-3.3 0-3.7-2.6-3-5.6l2.8-10.8c.7-2.8 2.6-5.6 5.9-5.6 3.3-.4 3.6 2.4 2.9 5.4zm-7.8-.2l-2.8 11c-.6 2.4-.2 4.6 2.2 4.6 2.6 0 3.9-2 4.5-4.5l2.8-11c.6-2.4.4-4.6-2.2-4.6-2.5 0-4 2.2-4.5 4.5zM89.7 61.8c.9 1.1.7 3 .4 4.6l-2 7.8h-2.6l1.9-7.8c.6-2.2 0-3.3-2.2-3.3h-2.6l-2.8 11.1H77l6.3-25.1h5.4c4.8 0 5.2 2.8 4.1 7.1-.5 1.9-1.4 4.2-3.1 5.6zm-1.5-11.5h-4.3l-5.8 23h.7l2.8-11.1h3.5c3.2 0 3.7 1.3 3 4.3l-1.7 6.7h.7l1.7-6.9c.6-2 .6-4.1-1.7-4.5 2.6-.7 3.7-3.3 4.3-5.6 1.1-3.5.9-5.9-3.2-5.9zm-6.3 11.2l2.6-10.6H88c3.7 0 3.9 2.2 3 5.4-.9 3.5-2.2 5.2-5.9 5.2h-3.2zm8-5.2c.7-2.6.6-4.3-2.2-4.3h-2.4l-2 8.5h2.2c2.7 0 3.6-1.4 4.4-4.2zM92.3 74.3l6.3-25.1h5.4c4.5 0 5.4 3.2 4.5 7.1L105.7 67c-.9 4.1-3.3 7.1-8 7.1h-5.4v.2zm12.2-7.1l2.8-10.8c.9-3.3.2-6.1-3.7-6.1h-4.3l-5.8 23h4.3c4-.1 6-2.7 6.7-6.1zm-4.6-16.3h3.3c3.5 0 4.3 2.4 3.3 5.6L104 67c-.7 3.2-2.6 5.6-6.1 5.6h-3.3l5.3-21.7zm-1.8 20.6c2.8 0 4.3-2 4.8-4.6l2.6-10.4c.7-2.6.2-4.6-2.6-4.6h-2.4l-4.8 19.7h2.4zM116.4 52l-2.2 8.5h4.8l-.4 2.6h-4.8l-2 8.4h7.4l-.9 2.8h-10l6.1-25.1h10l-.6 2.8h-7.4zm6.9-1.7h-8l-5.8 22.8h8l.2-.6h-7.2l2.6-10.4h4.8l.2-.6h-4.8l2.6-10.6h7.2l.2-.6zM133.5 61.8c.9 1.1.7 3 .4 4.6l-2 7.8h-2.8l1.9-7.8c.6-2.2 0-3.3-2.2-3.3h-2.4l-2.8 11.1h-2.8l6.3-25.1h5.4c4.8 0 5.2 2.8 4.1 7.1-.5 1.9-1.4 4.2-3.1 5.6zm-1.3-11.5h-4.3l-5.8 23h.7l2.8-11.1h3.5c3.2 0 3.7 1.3 3 4.3l-1.7 6.7h.7l1.7-6.9c.6-2 .6-4.1-1.7-4.5 2.6-.7 3.7-3.3 4.3-5.6.9-3.5.7-5.9-3.2-5.9zm-6.5 11.2l2.6-10.6h3.5c3.7 0 3.9 2.2 3 5.4-.9 3.5-2.2 5.2-5.9 5.2h-3.2zm8-5.2c.7-2.6.6-4.3-2.2-4.3h-2.4l-2 8.5h2.2c2.7 0 3.8-1.4 4.4-4.2zM56.6 90.1l-8.5 13.6-2.8 11.5h-2.8l2.8-11.3c-.9-7.6-1.5-11.3-1.7-13.6h2.8l1.3 9.7c2-3.2 4.1-6.5 6.1-9.7h2.8v-.2zM47 102.7l-1.5-11.5h-.7c.4 4.3 1.1 8.4 1.5 12.4l-2.6 10.6h.7l2.6-10.6 7.8-12.4H54l-7 11.5zM53.7 108.3l2.8-11.5c.9-3.7 3.7-7.1 8-7.1s5.4 3.2 4.5 7.1l-2.8 11.5c-.9 4.1-3.5 7.1-7.8 7.1-4.5-.1-5.7-3.1-4.7-7.1zm11.3 0l2.8-11.5c.7-3.2 0-6.1-3.5-6.1s-5.8 2.8-6.7 6.1l-2.8 11.5c-.7 3.3 0 5.9 3.7 5.9 3.5.2 5.6-2.4 6.5-5.9zm2-11l-2.8 11c-.7 3-2.4 5.6-5.8 5.6-3.3 0-3.7-2.6-3-5.6l2.8-10.8c.7-2.8 2.6-5.6 5.9-5.6 3.3-.3 3.7 2.4 2.9 5.4zm-7.8-.2l-2.8 10.8c-.6 2.4-.2 4.6 2.2 4.6 2.6 0 3.9-2 4.5-4.5l2.8-11c.6-2.4.4-4.6-2.2-4.6-2.4.3-3.9 2.5-4.5 4.7zM69.8 108.8L74.4 90h2.8l-4.6 18.6c-.6 2.2 0 4.1 2.4 4.1s3.9-1.7 4.5-4.1L84.1 90h2.8l-4.6 18.8c-.9 3.9-3.7 6.5-7.8 6.5s-5.6-2.6-4.7-6.5zm11.4 0l4.5-17.6H85l-4.5 17.5c-.7 3-2.6 5-5.8 5-3 0-3.9-2.2-3.2-5L76 91.2h-.7l-4.5 17.6c-.7 3.3.4 5.6 3.7 5.6 3.3 0 5.9-2.4 6.7-5.6zM97.5 102.7c.9 1.1.7 3 .4 4.6l-1.9 7.8h-2.8l1.9-7.8c.6-2.2 0-3.3-2.2-3.3h-2.6l-2.8 11.1h-2.8l6.3-25h5.4c4.8 0 5.2 2.8 4.1 7.1-.4 1.8-1.3 4-3 5.5zm-1.3-11.5h-4.3l-5.8 23h.7l2.8-11.1h3.5c3.2 0 3.7 1.3 3 4.3l-1.7 6.7h.7l1.7-6.9c.6-2 .6-4.1-1.7-4.5 2.6-.7 3.7-3.3 4.3-5.6 1.1-3.5.7-5.9-3.2-5.9zm-6.5 11.1l2.6-10.6h3.5c3.7 0 3.9 2.2 3 5.4-.9 3.5-2.2 5.2-5.9 5.2h-3.2zm8.2-5.2c.6-2.6.6-4.3-2.2-4.3h-2.4l-2.2 8.5h2.2c2.7.1 3.8-1.4 4.6-4.2zM113.5 115.1h-2.8L117 90h2.2l2.6 16.5 4.1-16.5h2.8l-6.3 25.1h-2.2c-.6-3.5-1.1-7.6-2.6-16.5l-4.1 16.5zm7.6-1.1h.6l5.8-23h-.6l-5.2 20.8-3.2-20.8h-.6l-5.8 23h.7l5.2-20.8c1 7.1 2 13.9 3.1 20.8zM128.5 108.8l4.6-18.8h2.8l-4.6 18.6c-.6 2.2 0 4.1 2.4 4.1s3.9-1.7 4.5-4.1l4.6-18.6h2.8l-4.6 18.8c-.9 3.9-3.7 6.5-7.8 6.5-4.3 0-5.8-2.6-4.7-6.5zm11.1 0l4.5-17.6h-.7l-4.5 17.5c-.7 3-2.6 5-5.8 5-3 0-3.9-2.2-3.2-5l4.5-17.5h-.7l-4.5 17.6c-.7 3.3.4 5.6 3.7 5.6s6-2.4 6.7-5.6zM155.4 102.5c1.5 1.3 1.5 3.5.9 5.8-1.1 4.1-3.2 6.9-7.8 6.9h-5.2l6.3-25.1h4.3c4.6 0 5.9 2.4 4.8 6.9-.5 2.2-1.4 4.2-3.3 5.5zm-1.6-11.3h-3.3l-5.8 23h4.3c3.9 0 5.6-2.4 6.5-5.9.6-2.4.4-5-2-5.6 2.6-.9 3.9-3.2 4.5-5.6.8-3.9-.3-5.9-4.2-5.9zm-8.2 22.3l2.6-10.4h3.2c3.5 0 4.1 2 3.3 5.2-.7 3.2-2.2 5.2-5.8 5.2h-3.3zm8-5.2c.6-2.6.2-4.3-2.6-4.3h-2l-2 8.4h2.4c2.5-.1 3.6-1.7 4.2-4.1zm0-16.6c3.3 0 4.3 2 3.5 5.2-.7 3.2-2.6 5.4-5.9 5.4h-2.8l2.6-10.6h2.6zm-3.9 9.7h1.9c2.6 0 3.9-1.9 4.6-4.3.7-2.6 0-4.3-2.8-4.3h-1.5l-2.2 8.6zM73.4 156h-2.8l6.3-25.1h2.2l2.6 16.5 4.1-16.5h2.8L82.3 156H80c-.6-3.5-1.1-7.6-2.6-16.5l-4 16.5zm7.6-1.1h.6l5.8-22.8h-.6l-5.2 20.8-3.2-20.9h-.6L72 155h.7l5.2-20.8c1 6.9 2 13.8 3.1 20.7zM88.4 149.1l2.8-11.5c.9-3.7 3.7-7.1 8-7.1s5.4 3.2 4.5 7.1l-2.8 11.5c-.9 4.1-3.5 7.1-7.8 7.1-4.7 0-5.6-3-4.7-7.1zm11.1 0l2.8-11.5c.7-3.2 0-6.1-3.5-6.1s-5.8 2.8-6.7 6.1l-2.8 11.5c-.7 3.3 0 5.9 3.7 5.9 3.8.2 5.8-2.4 6.5-5.9zm2.3-10.9l-2.8 11c-.7 3-2.4 5.6-5.8 5.6-3.3 0-3.7-2.6-3-5.6l2.8-10.8c.7-2.8 2.6-5.6 5.9-5.6 3.2-.4 3.6 2.4 2.9 5.4zm-8-.2L91 148.7c-.6 2.4-.2 4.6 2.2 4.6 2.6 0 3.9-2 4.5-4.5l2.8-11c.6-2.4.4-4.6-2.2-4.6-2.3.3-3.8 2.5-4.5 4.8zM128.9 130.9L117.2 156H115l1.1-15.6c-2.2 5.2-4.6 10.6-6.7 15.6h-2.2l.7-25.1h2.8l-.6 16.7c2.4-5.6 4.8-11.3 7.1-16.7h2.4l-1.3 16.7 7.8-16.7h2.8zM116.8 153l1.5-21h-.6l-8.9 21 .7-21h-.5l-.7 23h.6l8.9-20.6-1.5 20.6h.6l10.8-23h-.7l-10.2 21z"/></g></svg>