<svg width="92" height="27" viewBox="0 0 92 27" fill="none" xmlns="http://www.w3.org/2000/svg">
<path d="M0 20.4613L1.5433 18.3031C2.79607 19.3519 4.37077 19.9392 6.00441 19.9669C7.21011 19.9669 8.0541 19.565 8.0541 18.713C8.0541 17.861 7.37891 17.4993 5.61858 17.1697C3.18306 16.7356 0.578738 16.1569 0.578738 13.1507C0.578738 10.5504 2.70078 9.05933 5.57035 9.05933C8.19879 9.05933 9.79032 9.73452 11.197 10.8679L9.69386 13.0783C8.3917 12.166 7.09758 11.6596 5.89187 11.6596C4.78263 11.6596 4.15566 12.0937 4.15566 12.793C4.15566 13.5646 4.85497 13.8781 6.4465 14.1675C8.97848 14.6015 11.6712 15.1803 11.6712 18.0981C11.6712 21.2088 8.97044 22.4386 6.00441 22.4386C3.18306 22.4386 1.30216 21.5705 0 20.4613Z" fill="black"/>
<path d="M13.2656 4.44873H17.1721V7.55945H13.2656V4.44873ZM13.2897 9.31978H17.148V22.1806H13.2897V9.31978Z" fill="black"/>
<path d="M19.5801 9.31942H23.4624V11.3289C23.9671 10.6262 24.6305 10.0524 25.3987 9.65436C26.1669 9.2563 27.0182 9.04515 27.8834 9.03809C30.0536 9.03809 31.621 10.1232 31.621 12.7758V22.1722H27.7628V14.0217C27.7628 12.8642 27.3287 12.2613 26.2436 12.2613C25.1585 12.2613 24.3145 12.7918 23.4303 13.5394V22.1722H19.5801V9.31942Z" fill="black"/>
<path d="M32.1934 24.1025C32.1934 22.8486 33.2222 22.0046 34.4279 21.5183C34.1598 21.3607 33.9382 21.1348 33.7857 20.8637C33.6332 20.5926 33.5553 20.286 33.5598 19.975C33.5598 18.9139 34.4038 17.9976 35.4166 17.3465C34.7617 16.9817 34.2183 16.4456 33.8445 15.7957C33.4707 15.1459 33.2807 14.4066 33.2946 13.6571C33.2785 11.0688 35.3523 9.05933 39.0659 9.05933C40.9709 9.05933 42.4177 9.58984 43.3823 10.4579C44.3301 9.70228 45.4787 9.24116 46.6859 9.13167V12.0977C45.9531 12.1014 45.2238 12.1986 44.5157 12.3871C44.6816 12.7924 44.7636 13.2272 44.7568 13.6651C44.7568 16.2694 42.7473 18.2468 39.0659 18.2468C38.401 18.2428 37.7384 18.1701 37.0885 18.0298C36.8233 18.2468 36.6545 18.4317 36.6545 18.6808C36.6545 19.1631 37.1609 19.2596 38.1013 19.3078L40.0304 19.4284C44.4513 19.5972 46.2278 20.6582 46.2278 23.0696C46.2278 25.7222 43.117 27.0002 38.8488 27.0002C33.8331 26.9962 32.1934 25.911 32.1934 24.1025ZM42.8277 23.7006C42.8277 22.8968 42.4258 22.5431 39.4035 22.3984L37.394 22.302L36.55 22.2296C36.3403 22.3444 36.1637 22.5111 36.037 22.7138C35.9103 22.9165 35.8378 23.1484 35.8265 23.3871C35.8265 24.4964 36.8635 25.0269 39.4919 25.0269C41.4532 25.0269 42.8277 24.5607 42.8277 23.7167V23.7006ZM41.3085 13.7897C41.3085 12.4875 40.5609 11.4989 39.1141 11.4989C37.6673 11.4989 36.9197 12.4875 36.9197 13.7897C36.9197 15.0919 37.7235 16.0805 39.1141 16.0805C40.5047 16.0805 41.3085 15.1079 41.3085 13.8058V13.7897Z" fill="black"/>
<path d="M47.8164 18.7045V9.32007H51.7068V17.5671C51.7068 18.7246 52.1409 19.3515 53.226 19.3515C54.3111 19.3515 55.1511 18.7969 56.0393 18.0494V9.32007H59.9257V22.1809H56.0393V20.1714C55.5296 20.8672 54.8646 21.4344 54.0971 21.8279C53.3296 22.2214 52.4808 22.4304 51.6184 22.4381C49.3838 22.4381 47.8164 21.353 47.8164 18.7045Z" fill="black"/>
<path d="M62.3086 4.32861H66.1749V22.173H62.3207L62.3086 4.32861Z" fill="black"/>
<path d="M68.7031 4.44873H72.6096V7.55945H68.7031V4.44873ZM68.7232 9.31978H72.5815V22.1806H68.7232V9.31978Z" fill="black"/>
<rect x="87.2109" width="3.85825" height="22.1729" rx="1.92913" fill="url(#paint0_linear)"/>
<rect x="81.1836" y="12.0569" width="3.85825" height="9.87873" rx="1.92913" fill="url(#paint1_linear)"/>
<rect x="74.7559" y="18.8899" width="3.85825" height="3.11072" rx="1.55536" fill="url(#paint2_linear)"/>
<defs>
<linearGradient id="paint0_linear" x1="89.0947" y1="0.806267" x2="88.172" y2="22.1761" gradientUnits="userSpaceOnUse">
<stop stop-color="#F27690"/>
<stop offset="1" stop-color="#0029FF"/>
</linearGradient>
<linearGradient id="paint1_linear" x1="83.0673" y1="12.4161" x2="82.8839" y2="21.9513" gradientUnits="userSpaceOnUse">
<stop stop-color="#F27690"/>
<stop offset="1" stop-color="#0029FF"/>
</linearGradient>
<linearGradient id="paint2_linear" x1="76.6396" y1="19.003" x2="76.6214" y2="22.0065" gradientUnits="userSpaceOnUse">
<stop stop-color="#F27690"/>
<stop offset="1" stop-color="#0029FF"/>
</linearGradient>
</defs>
</svg>
