<?xml version="1.0" encoding="utf-8"?>
<!-- Generator: Adobe Illustrator 17.1.0, SVG Export Plug-In . SVG Version: 6.00 Build 0)  -->
<!DOCTYPE svg PUBLIC "-//W3C//DTD SVG 1.1//EN" "http://www.w3.org/Graphics/SVG/1.1/DTD/svg11.dtd">
<svg version="1.1" id="Layer_1" xmlns="http://www.w3.org/2000/svg" xmlns:xlink="http://www.w3.org/1999/xlink" x="0px" y="0px"
	 viewBox="0 0 500 500" enable-background="new 0 0 500 500" xml:space="preserve">
<g>
	<defs>
		<path id="SVGID_1_" d="M396.9,182.6c0,0,33.4,66.2,28.1,88.7c-2.1,9-19.6,24.5-21.8,32c-1.3,4.4-9.9-16.3-9.9-16.3L357,318.1
			l3.1-45.3c0,0-22.8,2.5-20.2-0.7C357.3,250.8,396.9,182.6,396.9,182.6z"/>
	</defs>
	<clipPath id="SVGID_2_">
		<use xlink:href="#SVGID_1_"  overflow="visible"/>
	</clipPath>
	<rect x="337.2" y="182.6" clip-path="url(#SVGID_2_)" fill="#009245" width="2.4" height="135.5"/>
</g>
<g>
	<defs>
		<path id="SVGID_3_" d="M396.9,182.6c0,0,33.4,66.2,28.1,88.7c-2.1,9-19.6,24.5-21.8,32c-1.3,4.4-9.9-16.3-9.9-16.3L357,318.1
			l3.1-45.3c0,0-22.8,2.5-20.2-0.7C357.3,250.8,396.9,182.6,396.9,182.6z"/>
	</defs>
	<clipPath id="SVGID_4_">
		<use xlink:href="#SVGID_3_"  overflow="visible"/>
	</clipPath>
	<rect x="339.7" y="182.6" clip-path="url(#SVGID_4_)" fill="#009245" width="12.2" height="135.5"/>
</g>
<g>
	<defs>
		<path id="SVGID_5_" d="M396.9,182.6c0,0,33.4,66.2,28.1,88.7c-2.1,9-19.6,24.5-21.8,32c-1.3,4.4-9.9-16.3-9.9-16.3L357,318.1
			l3.1-45.3c0,0-22.8,2.5-20.2-0.7C357.3,250.8,396.9,182.6,396.9,182.6z"/>
	</defs>
	<use xlink:href="#SVGID_5_"  overflow="visible" fill="#009145"/>
	<clipPath id="SVGID_6_">
		<use xlink:href="#SVGID_5_"  overflow="visible"/>
	</clipPath>
	<rect x="351.9" y="182.6" clip-path="url(#SVGID_6_)" fill="#009145" width="12.2" height="135.5"/>
</g>
<g>
	<defs>
		<path id="SVGID_7_" d="M396.9,182.6c0,0,33.4,66.2,28.1,88.7c-2.1,9-19.6,24.5-21.8,32c-1.3,4.4-9.9-16.3-9.9-16.3L357,318.1
			l3.1-45.3c0,0-22.8,2.5-20.2-0.7C357.3,250.8,396.9,182.6,396.9,182.6z"/>
	</defs>
	<clipPath id="SVGID_8_">
		<use xlink:href="#SVGID_7_"  overflow="visible"/>
	</clipPath>
	<rect x="364.1" y="182.6" clip-path="url(#SVGID_8_)" fill="#009045" width="12.2" height="135.5"/>
</g>
<g>
	<defs>
		<path id="SVGID_9_" d="M396.9,182.6c0,0,33.4,66.2,28.1,88.7c-2.1,9-19.6,24.5-21.8,32c-1.3,4.4-9.9-16.3-9.9-16.3L357,318.1
			l3.1-45.3c0,0-22.8,2.5-20.2-0.7C357.3,250.8,396.9,182.6,396.9,182.6z"/>
	</defs>
	<clipPath id="SVGID_10_">
		<use xlink:href="#SVGID_9_"  overflow="visible"/>
	</clipPath>
	<rect x="376.3" y="182.6" clip-path="url(#SVGID_10_)" fill="#008F45" width="12.2" height="135.5"/>
</g>
<g>
	<defs>
		<path id="SVGID_11_" d="M396.9,182.6c0,0,33.4,66.2,28.1,88.7c-2.1,9-19.6,24.5-21.8,32c-1.3,4.4-9.9-16.3-9.9-16.3L357,318.1
			l3.1-45.3c0,0-22.8,2.5-20.2-0.7C357.3,250.8,396.9,182.6,396.9,182.6z"/>
	</defs>
	<clipPath id="SVGID_12_">
		<use xlink:href="#SVGID_11_"  overflow="visible"/>
	</clipPath>
	<rect x="388.5" y="182.6" clip-path="url(#SVGID_12_)" fill="#008E45" width="12.2" height="135.5"/>
</g>
<g>
	<defs>
		<path id="SVGID_13_" d="M396.9,182.6c0,0,33.4,66.2,28.1,88.7c-2.1,9-19.6,24.5-21.8,32c-1.3,4.4-9.9-16.3-9.9-16.3L357,318.1
			l3.1-45.3c0,0-22.8,2.5-20.2-0.7C357.3,250.8,396.9,182.6,396.9,182.6z"/>
	</defs>
	<clipPath id="SVGID_14_">
		<use xlink:href="#SVGID_13_"  overflow="visible"/>
	</clipPath>
	<rect x="400.7" y="182.6" clip-path="url(#SVGID_14_)" fill="#008D45" width="12.2" height="135.5"/>
</g>
<g>
	<defs>
		<path id="SVGID_15_" d="M396.9,182.6c0,0,33.4,66.2,28.1,88.7c-2.1,9-19.6,24.5-21.8,32c-1.3,4.4-9.9-16.3-9.9-16.3L357,318.1
			l3.1-45.3c0,0-22.8,2.5-20.2-0.7C357.3,250.8,396.9,182.6,396.9,182.6z"/>
	</defs>
	<clipPath id="SVGID_16_">
		<use xlink:href="#SVGID_15_"  overflow="visible"/>
	</clipPath>
	<rect x="412.9" y="182.6" clip-path="url(#SVGID_16_)" fill="#008B45" width="12.2" height="135.5"/>
</g>
<g>
	<defs>
		<path id="SVGID_17_" d="M396.9,182.6c0,0,33.4,66.2,28.1,88.7c-2.1,9-19.6,24.5-21.8,32c-1.3,4.4-9.9-16.3-9.9-16.3L357,318.1
			l3.1-45.3c0,0-22.8,2.5-20.2-0.7C357.3,250.8,396.9,182.6,396.9,182.6z"/>
	</defs>
	<clipPath id="SVGID_18_">
		<use xlink:href="#SVGID_17_"  overflow="visible"/>
	</clipPath>
	<rect x="425.1" y="182.6" clip-path="url(#SVGID_18_)" fill="#008B45" width="5.2" height="135.5"/>
</g>
<path fill="#00A919" d="M253.8,376.5C163,376.5,89.1,306,89.1,219.2S163,61.9,253.8,61.9s164.6,70.6,164.6,157.3
	S344.6,376.5,253.8,376.5z M253.8,78.7c-82,0-148.7,63-148.7,140.5s66.7,140.5,148.7,140.5s148.7-63,148.7-140.5
	S335.8,78.7,253.8,78.7z"/>
<g>
	<defs>
		<path id="SVGID_19_" d="M418.8,240.6c0,0-10.7,79.6-26.1,102.4c-6.2,9.1-25.9,20.2-34,29.6c-3.5,4.1,1.1-21.4,1.1-21.4l-45.1,19.3
			l26.8-47.5c0,0-20.8-1-17.6-4.2C352,290.6,418.8,240.6,418.8,240.6z"/>
	</defs>
	<clipPath id="SVGID_20_">
		<use xlink:href="#SVGID_19_"  overflow="visible"/>
	</clipPath>
	<path clip-path="url(#SVGID_20_)" fill="#009245" d="M314.7,240.6v136.1V240.6z"/>
</g>
<g>
	<defs>
		<path id="SVGID_21_" d="M418.8,240.6c0,0-10.7,79.6-26.1,102.4c-6.2,9.1-25.9,20.2-34,29.6c-3.5,4.1,1.1-21.4,1.1-21.4l-45.1,19.3
			l26.8-47.5c0,0-20.8-1-17.6-4.2C352,290.6,418.8,240.6,418.8,240.6z"/>
	</defs>
	<clipPath id="SVGID_22_">
		<use xlink:href="#SVGID_21_"  overflow="visible"/>
	</clipPath>
	<rect x="314.7" y="240.6" clip-path="url(#SVGID_22_)" fill="#009245" width="14.8" height="136.1"/>
</g>
<g>
	<defs>
		<path id="SVGID_23_" d="M418.8,240.6c0,0-10.7,79.6-26.1,102.4c-6.2,9.1-25.9,20.2-34,29.6c-3.5,4.1,1.1-21.4,1.1-21.4l-45.1,19.3
			l26.8-47.5c0,0-20.8-1-17.6-4.2C352,290.6,418.8,240.6,418.8,240.6z"/>
	</defs>
	<use xlink:href="#SVGID_23_"  overflow="visible" fill="#008F45"/>
	<clipPath id="SVGID_24_">
		<use xlink:href="#SVGID_23_"  overflow="visible"/>
	</clipPath>
	<rect x="329.4" y="240.6" clip-path="url(#SVGID_24_)" fill="#008F45" width="14.8" height="136.1"/>
</g>
<g>
	<defs>
		<path id="SVGID_25_" d="M418.8,240.6c0,0-10.7,79.6-26.1,102.4c-6.2,9.1-25.9,20.2-34,29.6c-3.5,4.1,1.1-21.4,1.1-21.4l-45.1,19.3
			l26.8-47.5c0,0-20.8-1-17.6-4.2C352,290.6,418.8,240.6,418.8,240.6z"/>
	</defs>
	<clipPath id="SVGID_26_">
		<use xlink:href="#SVGID_25_"  overflow="visible"/>
	</clipPath>
	<rect x="344.2" y="240.6" clip-path="url(#SVGID_26_)" fill="#009045" width="14.8" height="136.1"/>
</g>
<g>
	<defs>
		<path id="SVGID_27_" d="M418.8,240.6c0,0-10.7,79.6-26.1,102.4c-6.2,9.1-25.9,20.2-34,29.6c-3.5,4.1,1.1-21.4,1.1-21.4l-45.1,19.3
			l26.8-47.5c0,0-20.8-1-17.6-4.2C352,290.6,418.8,240.6,418.8,240.6z"/>
	</defs>
	<clipPath id="SVGID_28_">
		<use xlink:href="#SVGID_27_"  overflow="visible"/>
	</clipPath>
	<rect x="359" y="240.6" clip-path="url(#SVGID_28_)" fill="#008F45" width="14.8" height="136.1"/>
</g>
<g>
	<defs>
		<path id="SVGID_29_" d="M418.8,240.6c0,0-10.7,79.6-26.1,102.4c-6.2,9.1-25.9,20.2-34,29.6c-3.5,4.1,1.1-21.4,1.1-21.4l-45.1,19.3
			l26.8-47.5c0,0-20.8-1-17.6-4.2C352,290.6,418.8,240.6,418.8,240.6z"/>
	</defs>
	<clipPath id="SVGID_30_">
		<use xlink:href="#SVGID_29_"  overflow="visible"/>
	</clipPath>
	<rect x="373.8" y="240.6" clip-path="url(#SVGID_30_)" fill="#008E45" width="14.8" height="136.1"/>
</g>
<g>
	<defs>
		<path id="SVGID_31_" d="M418.8,240.6c0,0-10.7,79.6-26.1,102.4c-6.2,9.1-25.9,20.2-34,29.6c-3.5,4.1,1.1-21.4,1.1-21.4l-45.1,19.3
			l26.8-47.5c0,0-20.8-1-17.6-4.2C352,290.6,418.8,240.6,418.8,240.6z"/>
	</defs>
	<clipPath id="SVGID_32_">
		<use xlink:href="#SVGID_31_"  overflow="visible"/>
	</clipPath>
	<rect x="388.6" y="240.6" clip-path="url(#SVGID_32_)" fill="#008D45" width="14.8" height="136.1"/>
</g>
<g>
	<defs>
		<path id="SVGID_33_" d="M418.8,240.6c0,0-10.7,79.6-26.1,102.4c-6.2,9.1-25.9,20.2-34,29.6c-3.5,4.1,1.1-21.4,1.1-21.4l-45.1,19.3
			l26.8-47.5c0,0-20.8-1-17.6-4.2C352,290.6,418.8,240.6,418.8,240.6z"/>
	</defs>
	<clipPath id="SVGID_34_">
		<use xlink:href="#SVGID_33_"  overflow="visible"/>
	</clipPath>
	<rect x="403.4" y="240.6" clip-path="url(#SVGID_34_)" fill="#008B45" width="14.8" height="136.1"/>
</g>
<g>
	<defs>
		<path id="SVGID_35_" d="M418.8,240.6c0,0-10.7,79.6-26.1,102.4c-6.2,9.1-25.9,20.2-34,29.6c-3.5,4.1,1.1-21.4,1.1-21.4l-45.1,19.3
			l26.8-47.5c0,0-20.8-1-17.6-4.2C352,290.6,418.8,240.6,418.8,240.6z"/>
	</defs>
	<clipPath id="SVGID_36_">
		<use xlink:href="#SVGID_35_"  overflow="visible"/>
	</clipPath>
	<rect x="418.2" y="240.6" clip-path="url(#SVGID_36_)" fill="#008B45" width="0.6" height="136.1"/>
</g>
<path fill="#00A919" d="M364.4,113.5c0,0,58.6,70.8,64.2,101.2c2.3,12.2-8,29.1-7.3,50c0.2,6.1-16.4-17-16.4-17l-21.5,53.5
	l-16.2-58.9c0,0-18.3,17.3-17.8,12.1C351.9,225.1,364.4,113.5,364.4,113.5z"/>
<g>
	<defs>
		<path id="SVGID_37_" d="M314.2,98.2c0,0,81.3,37,98.4,58c6.8,8.4,12.8,30.3,15.5,39.2c1.4,4.7-22.5-8.5-22.5-8.5l-0.1,44.4
			L367,192.1c0,0-11.1,17.1-12.6,13.2C347.1,186.2,314.2,98.2,314.2,98.2z"/>
	</defs>
	<clipPath id="SVGID_38_">
		<use xlink:href="#SVGID_37_"  overflow="visible"/>
	</clipPath>
	<path clip-path="url(#SVGID_38_)" fill="#009245" d="M314.2,98.2v133.1V98.2z"/>
</g>
<g>
	<defs>
		<path id="SVGID_39_" d="M314.2,98.2c0,0,81.3,37,98.4,58c6.8,8.4,12.8,30.3,15.5,39.2c1.4,4.7-22.5-8.5-22.5-8.5l-0.1,44.4
			L367,192.1c0,0-11.1,17.1-12.6,13.2C347.1,186.2,314.2,98.2,314.2,98.2z"/>
	</defs>
	<clipPath id="SVGID_40_">
		<use xlink:href="#SVGID_39_"  overflow="visible"/>
	</clipPath>
	<rect x="314.2" y="98.2" clip-path="url(#SVGID_40_)" fill="#009245" width="16.2" height="133.1"/>
</g>
<g>
	<defs>
		<path id="SVGID_41_" d="M314.2,98.2c0,0,81.3,37,98.4,58c6.8,8.4,12.8,30.3,15.5,39.2c1.4,4.7-22.5-8.5-22.5-8.5l-0.1,44.4
			L367,192.1c0,0-11.1,17.1-12.6,13.2C347.1,186.2,314.2,98.2,314.2,98.2z"/>
	</defs>
	<clipPath id="SVGID_42_">
		<use xlink:href="#SVGID_41_"  overflow="visible"/>
	</clipPath>
	<rect x="330.4" y="98.2" clip-path="url(#SVGID_42_)" fill="#009145" width="16.2" height="133.1"/>
</g>
<g>
	<defs>
		<path id="SVGID_43_" d="M314.2,98.2c0,0,81.3,37,98.4,58c6.8,8.4,12.8,30.3,15.5,39.2c1.4,4.7-22.5-8.5-22.5-8.5l-0.1,44.4
			L367,192.1c0,0-11.1,17.1-12.6,13.2C347.1,186.2,314.2,98.2,314.2,98.2z"/>
	</defs>
	<clipPath id="SVGID_44_">
		<use xlink:href="#SVGID_43_"  overflow="visible"/>
	</clipPath>
	<rect x="346.6" y="98.2" clip-path="url(#SVGID_44_)" fill="#009045" width="16.2" height="133.1"/>
</g>
<g>
	<defs>
		<path id="SVGID_45_" d="M314.2,98.2c0,0,81.3,37,98.4,58c6.8,8.4,12.8,30.3,15.5,39.2c1.4,4.7-22.5-8.5-22.5-8.5l-0.1,44.4
			L367,192.1c0,0-11.1,17.1-12.6,13.2C347.1,186.2,314.2,98.2,314.2,98.2z"/>
	</defs>
	<clipPath id="SVGID_46_">
		<use xlink:href="#SVGID_45_"  overflow="visible"/>
	</clipPath>
	<rect x="362.8" y="98.2" clip-path="url(#SVGID_46_)" fill="#008F45" width="16.2" height="133.1"/>
</g>
<g>
	<defs>
		<path id="SVGID_47_" d="M314.2,98.2c0,0,81.3,37,98.4,58c6.8,8.4,12.8,30.3,15.5,39.2c1.4,4.7-22.5-8.5-22.5-8.5l-0.1,44.4
			L367,192.1c0,0-11.1,17.1-12.6,13.2C347.1,186.2,314.2,98.2,314.2,98.2z"/>
	</defs>
	<clipPath id="SVGID_48_">
		<use xlink:href="#SVGID_47_"  overflow="visible"/>
	</clipPath>
	<rect x="379" y="98.2" clip-path="url(#SVGID_48_)" fill="#008E45" width="16.2" height="133.1"/>
</g>
<g>
	<defs>
		<path id="SVGID_49_" d="M314.2,98.2c0,0,81.3,37,98.4,58c6.8,8.4,12.8,30.3,15.5,39.2c1.4,4.7-22.5-8.5-22.5-8.5l-0.1,44.4
			L367,192.1c0,0-11.1,17.1-12.6,13.2C347.1,186.2,314.2,98.2,314.2,98.2z"/>
	</defs>
	<clipPath id="SVGID_50_">
		<use xlink:href="#SVGID_49_"  overflow="visible"/>
	</clipPath>
	<rect x="395.2" y="98.2" clip-path="url(#SVGID_50_)" fill="#008D45" width="16.2" height="133.1"/>
</g>
<g>
	<defs>
		<path id="SVGID_51_" d="M314.2,98.2c0,0,81.3,37,98.4,58c6.8,8.4,12.8,30.3,15.5,39.2c1.4,4.7-22.5-8.5-22.5-8.5l-0.1,44.4
			L367,192.1c0,0-11.1,17.1-12.6,13.2C347.1,186.2,314.2,98.2,314.2,98.2z"/>
	</defs>
	<use xlink:href="#SVGID_51_"  overflow="visible" fill="#009045"/>
	<clipPath id="SVGID_52_">
		<use xlink:href="#SVGID_51_"  overflow="visible"/>
	</clipPath>
	<rect x="411.4" y="98.2" clip-path="url(#SVGID_52_)" fill="#009045" width="16.2" height="133.1"/>
</g>
<g>
	<defs>
		<path id="SVGID_53_" d="M314.2,98.2c0,0,81.3,37,98.4,58c6.8,8.4,12.8,30.3,15.5,39.2c1.4,4.7-22.5-8.5-22.5-8.5l-0.1,44.4
			L367,192.1c0,0-11.1,17.1-12.6,13.2C347.1,186.2,314.2,98.2,314.2,98.2z"/>
	</defs>
	<clipPath id="SVGID_54_">
		<use xlink:href="#SVGID_53_"  overflow="visible"/>
	</clipPath>
	<rect x="427.6" y="98.2" clip-path="url(#SVGID_54_)" fill="#008B45" width="2" height="133.1"/>
</g>
<g>
	<defs>
		<path id="SVGID_55_" d="M271.5,80.4c0,0,82.2,9,105.2,23.3c9.2,5.7,27.6,31.6,27.6,31.6l-21.4-0.7l19.8,42L354.9,152l-3.9,16.6
			L271.5,80.4z"/>
	</defs>
	<clipPath id="SVGID_56_">
		<use xlink:href="#SVGID_55_"  overflow="visible"/>
	</clipPath>
	<path clip-path="url(#SVGID_56_)" fill="#009245" d="M271.5,80.4v96.1V80.4z"/>
</g>
<g>
	<defs>
		<path id="SVGID_57_" d="M271.5,80.4c0,0,82.2,9,105.2,23.3c9.2,5.7,27.6,31.6,27.6,31.6l-21.4-0.7l19.8,42L354.9,152l-3.9,16.6
			L271.5,80.4z"/>
	</defs>
	<clipPath id="SVGID_58_">
		<use xlink:href="#SVGID_57_"  overflow="visible"/>
	</clipPath>
	<rect x="271.5" y="80.4" clip-path="url(#SVGID_58_)" fill="#009245" width="18.9" height="96.1"/>
</g>
<g>
	<defs>
		<path id="SVGID_59_" d="M271.5,80.4c0,0,82.2,9,105.2,23.3c9.2,5.7,27.6,31.6,27.6,31.6l-21.4-0.7l19.8,42L354.9,152l-3.9,16.6
			L271.5,80.4z"/>
	</defs>
	<clipPath id="SVGID_60_">
		<use xlink:href="#SVGID_59_"  overflow="visible"/>
	</clipPath>
	<rect x="290.3" y="80.4" clip-path="url(#SVGID_60_)" fill="#009245" width="18.9" height="96.1"/>
</g>
<g>
	<defs>
		<path id="SVGID_61_" d="M271.5,80.4c0,0,82.2,9,105.2,23.3c9.2,5.7,27.6,31.6,27.6,31.6l-21.4-0.7l19.8,42L354.9,152l-3.9,16.6
			L271.5,80.4z"/>
	</defs>
	<clipPath id="SVGID_62_">
		<use xlink:href="#SVGID_61_"  overflow="visible"/>
	</clipPath>
	<rect x="309.2" y="80.4" clip-path="url(#SVGID_62_)" fill="#009245" width="18.9" height="96.1"/>
</g>
<g>
	<defs>
		<path id="SVGID_63_" d="M271.5,80.4c0,0,82.2,9,105.2,23.3c9.2,5.7,27.6,31.6,27.6,31.6l-21.4-0.7l19.8,42L354.9,152l-3.9,16.6
			L271.5,80.4z"/>
	</defs>
	<clipPath id="SVGID_64_">
		<use xlink:href="#SVGID_63_"  overflow="visible"/>
	</clipPath>
	<rect x="328.1" y="80.4" clip-path="url(#SVGID_64_)" fill="#009245" width="18.9" height="96.1"/>
</g>
<g>
	<defs>
		<path id="SVGID_65_" d="M271.5,80.4c0,0,82.2,9,105.2,23.3c9.2,5.7,27.6,31.6,27.6,31.6l-21.4-0.7l19.8,42L354.9,152l-3.9,16.6
			L271.5,80.4z"/>
	</defs>
	<clipPath id="SVGID_66_">
		<use xlink:href="#SVGID_65_"  overflow="visible"/>
	</clipPath>
	<rect x="346.9" y="80.4" clip-path="url(#SVGID_66_)" fill="#009145" width="18.9" height="96.1"/>
</g>
<g>
	<defs>
		<path id="SVGID_67_" d="M271.5,80.4c0,0,82.2,9,105.2,23.3c9.2,5.7,27.6,31.6,27.6,31.6l-21.4-0.7l19.8,42L354.9,152l-3.9,16.6
			L271.5,80.4z"/>
	</defs>
	<use xlink:href="#SVGID_67_"  overflow="visible" fill="#009145"/>
	<clipPath id="SVGID_68_">
		<use xlink:href="#SVGID_67_"  overflow="visible"/>
	</clipPath>
	<rect x="365.8" y="80.4" clip-path="url(#SVGID_68_)" fill="#009145" width="18.9" height="96.1"/>
</g>
<g>
	<defs>
		<path id="SVGID_69_" d="M271.5,80.4c0,0,82.2,9,105.2,23.3c9.2,5.7,27.6,31.6,27.6,31.6l-21.4-0.7l19.8,42L354.9,152l-3.9,16.6
			L271.5,80.4z"/>
	</defs>
	<clipPath id="SVGID_70_">
		<use xlink:href="#SVGID_69_"  overflow="visible"/>
	</clipPath>
	<rect x="384.6" y="80.4" clip-path="url(#SVGID_70_)" fill="#008B45" width="18.9" height="96.1"/>
</g>
<g>
	<defs>
		<path id="SVGID_71_" d="M271.5,80.4c0,0,82.2,9,105.2,23.3c9.2,5.7,27.6,31.6,27.6,31.6l-21.4-0.7l19.8,42L354.9,152l-3.9,16.6
			L271.5,80.4z"/>
	</defs>
	<clipPath id="SVGID_72_">
		<use xlink:href="#SVGID_71_"  overflow="visible"/>
	</clipPath>
	<rect x="403.5" y="80.4" clip-path="url(#SVGID_72_)" fill="#008B45" width="0.7" height="96.1"/>
</g>
<path fill="#00A919" d="M207.2,64.8c0,0,54.9-39.6,118.6-0.8c6.5,3.9,9.8,10.2,38.4,29.7c5,3.4-25.3,10.3-25.3,10.3l32.5,46.8
	L207.2,64.8z"/>
<g>
	<defs>
		<path id="SVGID_73_" d="M404.3,317.8c0,0-41.5,47.8-62.9,56c-8.5,3.3-40.8,5.8-40.8,5.8l10.9-14.2l-40-8.2l40.8-19.8
			c0,0-13.8-11.5-10.1-11.2C318,327.7,404.3,317.8,404.3,317.8z"/>
	</defs>
	<clipPath id="SVGID_74_">
		<use xlink:href="#SVGID_73_"  overflow="visible"/>
	</clipPath>
	<path clip-path="url(#SVGID_74_)" fill="#009245" d="M271.5,317.8v61.9V317.8z"/>
</g>
<g>
	<defs>
		<path id="SVGID_75_" d="M404.3,317.8c0,0-41.5,47.8-62.9,56c-8.5,3.3-40.8,5.8-40.8,5.8l10.9-14.2l-40-8.2l40.8-19.8
			c0,0-13.8-11.5-10.1-11.2C318,327.7,404.3,317.8,404.3,317.8z"/>
	</defs>
	<clipPath id="SVGID_76_">
		<use xlink:href="#SVGID_75_"  overflow="visible"/>
	</clipPath>
	<rect x="271.5" y="317.8" clip-path="url(#SVGID_76_)" fill="#009245" width="18.9" height="61.9"/>
</g>
<g>
	<defs>
		<path id="SVGID_77_" d="M404.3,317.8c0,0-41.5,47.8-62.9,56c-8.5,3.3-40.8,5.8-40.8,5.8l10.9-14.2l-40-8.2l40.8-19.8
			c0,0-13.8-11.5-10.1-11.2C318,327.7,404.3,317.8,404.3,317.8z"/>
	</defs>
	<clipPath id="SVGID_78_">
		<use xlink:href="#SVGID_77_"  overflow="visible"/>
	</clipPath>
	<rect x="290.3" y="317.8" clip-path="url(#SVGID_78_)" fill="#009145" width="18.9" height="61.9"/>
</g>
<g>
	<defs>
		<path id="SVGID_79_" d="M404.3,317.8c0,0-41.5,47.8-62.9,56c-8.5,3.3-40.8,5.8-40.8,5.8l10.9-14.2l-40-8.2l40.8-19.8
			c0,0-13.8-11.5-10.1-11.2C318,327.7,404.3,317.8,404.3,317.8z"/>
	</defs>
	<clipPath id="SVGID_80_">
		<use xlink:href="#SVGID_79_"  overflow="visible"/>
	</clipPath>
	<rect x="309.2" y="317.8" clip-path="url(#SVGID_80_)" fill="#009045" width="18.9" height="61.9"/>
</g>
<g>
	<defs>
		<path id="SVGID_81_" d="M404.3,317.8c0,0-41.5,47.8-62.9,56c-8.5,3.3-40.8,5.8-40.8,5.8l10.9-14.2l-40-8.2l40.8-19.8
			c0,0-13.8-11.5-10.1-11.2C318,327.7,404.3,317.8,404.3,317.8z"/>
	</defs>
	<clipPath id="SVGID_82_">
		<use xlink:href="#SVGID_81_"  overflow="visible"/>
	</clipPath>
	<rect x="328.1" y="317.8" clip-path="url(#SVGID_82_)" fill="#008F45" width="18.9" height="61.9"/>
</g>
<g>
	<defs>
		<path id="SVGID_83_" d="M404.3,317.8c0,0-41.5,47.8-62.9,56c-8.5,3.3-40.8,5.8-40.8,5.8l10.9-14.2l-40-8.2l40.8-19.8
			c0,0-13.8-11.5-10.1-11.2C318,327.7,404.3,317.8,404.3,317.8z"/>
	</defs>
	<clipPath id="SVGID_84_">
		<use xlink:href="#SVGID_83_"  overflow="visible"/>
	</clipPath>
	<rect x="346.9" y="317.8" clip-path="url(#SVGID_84_)" fill="#008E45" width="18.9" height="61.9"/>
</g>
<g>
	<defs>
		<path id="SVGID_85_" d="M404.3,317.8c0,0-41.5,47.8-62.9,56c-8.5,3.3-40.8,5.8-40.8,5.8l10.9-14.2l-40-8.2l40.8-19.8
			c0,0-13.8-11.5-10.1-11.2C318,327.7,404.3,317.8,404.3,317.8z"/>
	</defs>
	<clipPath id="SVGID_86_">
		<use xlink:href="#SVGID_85_"  overflow="visible"/>
	</clipPath>
	<rect x="365.8" y="317.8" clip-path="url(#SVGID_86_)" fill="#008D45" width="18.9" height="61.9"/>
</g>
<g>
	<defs>
		<path id="SVGID_87_" d="M404.3,317.8c0,0-41.5,47.8-62.9,56c-8.5,3.3-40.8,5.8-40.8,5.8l10.9-14.2l-40-8.2l40.8-19.8
			c0,0-13.8-11.5-10.1-11.2C318,327.7,404.3,317.8,404.3,317.8z"/>
	</defs>
	<clipPath id="SVGID_88_">
		<use xlink:href="#SVGID_87_"  overflow="visible"/>
	</clipPath>
	<rect x="384.7" y="317.8" clip-path="url(#SVGID_88_)" fill="#008B45" width="18.9" height="61.9"/>
</g>
<g>
	<defs>
		<path id="SVGID_89_" d="M404.3,317.8c0,0-41.5,47.8-62.9,56c-8.5,3.3-40.8,5.8-40.8,5.8l10.9-14.2l-40-8.2l40.8-19.8
			c0,0-13.8-11.5-10.1-11.2C318,327.7,404.3,317.8,404.3,317.8z"/>
	</defs>
	<clipPath id="SVGID_90_">
		<use xlink:href="#SVGID_89_"  overflow="visible"/>
	</clipPath>
	<rect x="403.5" y="317.8" clip-path="url(#SVGID_90_)" fill="#008B45" width="0.7" height="61.9"/>
</g>
<g>
	<defs>
		<path id="SVGID_91_" d="M231.8,73.6c0,0-78.7,5-102.1,21.4c-7.4,5.2-15.4,16.3-35.8,33.8c-4.3,3.6,24.4,7.3,24.4,7.3L98,184.7
			l48.7-28.4l4,19.1L231.8,73.6z"/>
	</defs>
	<clipPath id="SVGID_92_">
		<use xlink:href="#SVGID_91_"  overflow="visible"/>
	</clipPath>
	<rect x="89.5" y="73.6" clip-path="url(#SVGID_92_)" fill="#009245" width="3.8" height="111.1"/>
</g>
<g>
	<defs>
		<path id="SVGID_93_" d="M231.8,73.6c0,0-78.7,5-102.1,21.4c-7.4,5.2-15.4,16.3-35.8,33.8c-4.3,3.6,24.4,7.3,24.4,7.3L98,184.7
			l48.7-28.4l4,19.1L231.8,73.6z"/>
	</defs>
	<clipPath id="SVGID_94_">
		<use xlink:href="#SVGID_93_"  overflow="visible"/>
	</clipPath>
	<rect x="93.4" y="73.6" clip-path="url(#SVGID_94_)" fill="#009245" width="19.7" height="111.1"/>
</g>
<g>
	<defs>
		<path id="SVGID_95_" d="M231.8,73.6c0,0-78.7,5-102.1,21.4c-7.4,5.2-15.4,16.3-35.8,33.8c-4.3,3.6,24.4,7.3,24.4,7.3L98,184.7
			l48.7-28.4l4,19.1L231.8,73.6z"/>
	</defs>
	<use xlink:href="#SVGID_95_"  overflow="visible" fill="#009045"/>
	<clipPath id="SVGID_96_">
		<use xlink:href="#SVGID_95_"  overflow="visible"/>
	</clipPath>
	<rect x="113" y="73.6" clip-path="url(#SVGID_96_)" fill="#009045" width="19.7" height="111.1"/>
</g>
<g>
	<defs>
		<path id="SVGID_97_" d="M231.8,73.6c0,0-78.7,5-102.1,21.4c-7.4,5.2-15.4,16.3-35.8,33.8c-4.3,3.6,24.4,7.3,24.4,7.3L98,184.7
			l48.7-28.4l4,19.1L231.8,73.6z"/>
	</defs>
	<clipPath id="SVGID_98_">
		<use xlink:href="#SVGID_97_"  overflow="visible"/>
	</clipPath>
	<rect x="132.7" y="73.6" clip-path="url(#SVGID_98_)" fill="#009045" width="19.7" height="111.1"/>
</g>
<g>
	<defs>
		<path id="SVGID_99_" d="M231.8,73.6c0,0-78.7,5-102.1,21.4c-7.4,5.2-15.4,16.3-35.8,33.8c-4.3,3.6,24.4,7.3,24.4,7.3L98,184.7
			l48.7-28.4l4,19.1L231.8,73.6z"/>
	</defs>
	<clipPath id="SVGID_100_">
		<use xlink:href="#SVGID_99_"  overflow="visible"/>
	</clipPath>
	<rect x="152.4" y="73.6" clip-path="url(#SVGID_100_)" fill="#008F45" width="19.7" height="111.1"/>
</g>
<g>
	<defs>
		<path id="SVGID_101_" d="M231.8,73.6c0,0-78.7,5-102.1,21.4c-7.4,5.2-15.4,16.3-35.8,33.8c-4.3,3.6,24.4,7.3,24.4,7.3L98,184.7
			l48.7-28.4l4,19.1L231.8,73.6z"/>
	</defs>
	<clipPath id="SVGID_102_">
		<use xlink:href="#SVGID_101_"  overflow="visible"/>
	</clipPath>
	<rect x="172" y="73.6" clip-path="url(#SVGID_102_)" fill="#008E45" width="19.7" height="111.1"/>
</g>
<g>
	<defs>
		<path id="SVGID_103_" d="M231.8,73.6c0,0-78.7,5-102.1,21.4c-7.4,5.2-15.4,16.3-35.8,33.8c-4.3,3.6,24.4,7.3,24.4,7.3L98,184.7
			l48.7-28.4l4,19.1L231.8,73.6z"/>
	</defs>
	<clipPath id="SVGID_104_">
		<use xlink:href="#SVGID_103_"  overflow="visible"/>
	</clipPath>
	<rect x="191.7" y="73.6" clip-path="url(#SVGID_104_)" fill="#008D45" width="19.7" height="111.1"/>
</g>
<g>
	<defs>
		<path id="SVGID_105_" d="M231.8,73.6c0,0-78.7,5-102.1,21.4c-7.4,5.2-15.4,16.3-35.8,33.8c-4.3,3.6,24.4,7.3,24.4,7.3L98,184.7
			l48.7-28.4l4,19.1L231.8,73.6z"/>
	</defs>
	<clipPath id="SVGID_106_">
		<use xlink:href="#SVGID_105_"  overflow="visible"/>
	</clipPath>
	<rect x="211.3" y="73.6" clip-path="url(#SVGID_106_)" fill="#008B45" width="19.7" height="111.1"/>
</g>
<g>
	<defs>
		<path id="SVGID_107_" d="M231.8,73.6c0,0-78.7,5-102.1,21.4c-7.4,5.2-15.4,16.3-35.8,33.8c-4.3,3.6,24.4,7.3,24.4,7.3L98,184.7
			l48.7-28.4l4,19.1L231.8,73.6z"/>
	</defs>
	<clipPath id="SVGID_108_">
		<use xlink:href="#SVGID_107_"  overflow="visible"/>
	</clipPath>
	<rect x="231" y="73.6" clip-path="url(#SVGID_108_)" fill="#008B45" width="0.8" height="111.1"/>
</g>
<g>
	<defs>
		<path id="SVGID_109_" d="M103.9,194.4c0,0-23.4,59.8-20.4,82.4c1.2,9.1,8.7,26.6,9.6,40.3c0.3,4.5,13.5-18.4,13.5-18.4l26.3,31.2
			l-2.2-45.3c0,0,21.2-1.9,18.9-4.9C129.6,253.8,103.9,194.4,103.9,194.4z"/>
	</defs>
	<clipPath id="SVGID_110_">
		<use xlink:href="#SVGID_109_"  overflow="visible"/>
	</clipPath>
	<rect x="80.5" y="194.4" clip-path="url(#SVGID_110_)" fill="#009245" width="2.7" height="135.5"/>
</g>
<g>
	<defs>
		<path id="SVGID_111_" d="M103.9,194.4c0,0-23.4,59.8-20.4,82.4c1.2,9.1,8.7,26.6,9.6,40.3c0.3,4.5,13.5-18.4,13.5-18.4l26.3,31.2
			l-2.2-45.3c0,0,21.2-1.9,18.9-4.9C129.6,253.8,103.9,194.4,103.9,194.4z"/>
	</defs>
	<use xlink:href="#SVGID_111_"  overflow="visible" fill="#009145"/>
	<clipPath id="SVGID_112_">
		<use xlink:href="#SVGID_111_"  overflow="visible"/>
	</clipPath>
	<rect x="83.2" y="194.4" clip-path="url(#SVGID_112_)" fill="#009145" width="9.4" height="135.5"/>
</g>
<g>
	<defs>
		<path id="SVGID_113_" d="M103.9,194.4c0,0-23.4,59.8-20.4,82.4c1.2,9.1,8.7,26.6,9.6,40.3c0.3,4.5,13.5-18.4,13.5-18.4l26.3,31.2
			l-2.2-45.3c0,0,21.2-1.9,18.9-4.9C129.6,253.8,103.9,194.4,103.9,194.4z"/>
	</defs>
	<clipPath id="SVGID_114_">
		<use xlink:href="#SVGID_113_"  overflow="visible"/>
	</clipPath>
	<rect x="92.7" y="194.4" clip-path="url(#SVGID_114_)" fill="#009145" width="9.4" height="135.5"/>
</g>
<g>
	<defs>
		<path id="SVGID_115_" d="M103.9,194.4c0,0-23.4,59.8-20.4,82.4c1.2,9.1,8.7,26.6,9.6,40.3c0.3,4.5,13.5-18.4,13.5-18.4l26.3,31.2
			l-2.2-45.3c0,0,21.2-1.9,18.9-4.9C129.6,253.8,103.9,194.4,103.9,194.4z"/>
	</defs>
	<clipPath id="SVGID_116_">
		<use xlink:href="#SVGID_115_"  overflow="visible"/>
	</clipPath>
	<rect x="102.1" y="194.4" clip-path="url(#SVGID_116_)" fill="#009045" width="9.5" height="135.5"/>
</g>
<g>
	<defs>
		<path id="SVGID_117_" d="M103.9,194.4c0,0-23.4,59.8-20.4,82.4c1.2,9.1,8.7,26.6,9.6,40.3c0.3,4.5,13.5-18.4,13.5-18.4l26.3,31.2
			l-2.2-45.3c0,0,21.2-1.9,18.9-4.9C129.6,253.8,103.9,194.4,103.9,194.4z"/>
	</defs>
	<clipPath id="SVGID_118_">
		<use xlink:href="#SVGID_117_"  overflow="visible"/>
	</clipPath>
	<rect x="111.6" y="194.4" clip-path="url(#SVGID_118_)" fill="#008F45" width="9.4" height="135.5"/>
</g>
<g>
	<defs>
		<path id="SVGID_119_" d="M103.9,194.4c0,0-23.4,59.8-20.4,82.4c1.2,9.1,8.7,26.6,9.6,40.3c0.3,4.5,13.5-18.4,13.5-18.4l26.3,31.2
			l-2.2-45.3c0,0,21.2-1.9,18.9-4.9C129.6,253.8,103.9,194.4,103.9,194.4z"/>
	</defs>
	<clipPath id="SVGID_120_">
		<use xlink:href="#SVGID_119_"  overflow="visible"/>
	</clipPath>
	<rect x="121" y="194.4" clip-path="url(#SVGID_120_)" fill="#008E45" width="9.4" height="135.5"/>
</g>
<g>
	<defs>
		<path id="SVGID_121_" d="M103.9,194.4c0,0-23.4,59.8-20.4,82.4c1.2,9.1,8.7,26.6,9.6,40.3c0.3,4.5,13.5-18.4,13.5-18.4l26.3,31.2
			l-2.2-45.3c0,0,21.2-1.9,18.9-4.9C129.6,253.8,103.9,194.4,103.9,194.4z"/>
	</defs>
	<clipPath id="SVGID_122_">
		<use xlink:href="#SVGID_121_"  overflow="visible"/>
	</clipPath>
	<rect x="130.4" y="194.4" clip-path="url(#SVGID_122_)" fill="#008D45" width="9.5" height="135.5"/>
</g>
<g>
	<defs>
		<path id="SVGID_123_" d="M103.9,194.4c0,0-23.4,59.8-20.4,82.4c1.2,9.1,8.7,26.6,9.6,40.3c0.3,4.5,13.5-18.4,13.5-18.4l26.3,31.2
			l-2.2-45.3c0,0,21.2-1.9,18.9-4.9C129.6,253.8,103.9,194.4,103.9,194.4z"/>
	</defs>
	<clipPath id="SVGID_124_">
		<use xlink:href="#SVGID_123_"  overflow="visible"/>
	</clipPath>
	<rect x="139.9" y="194.4" clip-path="url(#SVGID_124_)" fill="#008B45" width="9.4" height="135.5"/>
</g>
<g>
	<defs>
		<path id="SVGID_125_" d="M103.9,194.4c0,0-23.4,59.8-20.4,82.4c1.2,9.1,8.7,26.6,9.6,40.3c0.3,4.5,13.5-18.4,13.5-18.4l26.3,31.2
			l-2.2-45.3c0,0,21.2-1.9,18.9-4.9C129.6,253.8,103.9,194.4,103.9,194.4z"/>
	</defs>
	<clipPath id="SVGID_126_">
		<use xlink:href="#SVGID_125_"  overflow="visible"/>
	</clipPath>
	<rect x="149.3" y="194.4" clip-path="url(#SVGID_126_)" fill="#008B45" width="2.5" height="135.5"/>
</g>
<path fill="#00A919" d="M115,107.4c0,0-31.5,39-37.8,87.7c-3.3,25.3-5.5,43.2-2.4,63.3c1,6.4,14.8-15.8,14.8-15.8l28.6,58.4
	l9.5-59.5l19.8,14.8L115,107.4z"/>
<path fill="#00A919" d="M104.4,315.7c0,0,31.7,48.8,67.1,60.2c8.7,2.8,27.7,3.7,36.7,5.8c4.8,1.2-10.9-18.4-10.9-18.4l40-8.2
	l-40.8-19.8c0,0,13.8-10.8,10.1-11.2C178.3,321.1,104.4,315.7,104.4,315.7z"/>
<g>
	<defs>
		<path id="SVGID_127_" d="M171.3,96.1c0,0-66.1,30.1-80.7,52.8c-5.8,9.1-11.4,33.6-20.5,52.2c-2.3,4.7,24-9.2,24-9.2l0.1,47.9
			l32.6-42.4l10.6,14.2L171.3,96.1z"/>
	</defs>
	<clipPath id="SVGID_128_">
		<use xlink:href="#SVGID_127_"  overflow="visible"/>
	</clipPath>
	<rect x="67.7" y="96.1" clip-path="url(#SVGID_128_)" fill="#009245" width="2.2" height="143.7"/>
</g>
<g>
	<defs>
		<path id="SVGID_129_" d="M171.3,96.1c0,0-66.1,30.1-80.7,52.8c-5.8,9.1-11.4,33.6-20.5,52.2c-2.3,4.7,24-9.2,24-9.2l0.1,47.9
			l32.6-42.4l10.6,14.2L171.3,96.1z"/>
	</defs>
	<clipPath id="SVGID_130_">
		<use xlink:href="#SVGID_129_"  overflow="visible"/>
	</clipPath>
	<rect x="69.9" y="96.1" clip-path="url(#SVGID_130_)" fill="#009245" width="14.4" height="143.7"/>
</g>
<g>
	<defs>
		<path id="SVGID_131_" d="M171.3,96.1c0,0-66.1,30.1-80.7,52.8c-5.8,9.1-11.4,33.6-20.5,52.2c-2.3,4.7,24-9.2,24-9.2l0.1,47.9
			l32.6-42.4l10.6,14.2L171.3,96.1z"/>
	</defs>
	<clipPath id="SVGID_132_">
		<use xlink:href="#SVGID_131_"  overflow="visible"/>
	</clipPath>
	<rect x="84.3" y="96.1" clip-path="url(#SVGID_132_)" fill="#009145" width="14.4" height="143.7"/>
</g>
<g>
	<defs>
		<path id="SVGID_133_" d="M171.3,96.1c0,0-66.1,30.1-80.7,52.8c-5.8,9.1-11.4,33.6-20.5,52.2c-2.3,4.7,24-9.2,24-9.2l0.1,47.9
			l32.6-42.4l10.6,14.2L171.3,96.1z"/>
	</defs>
	<use xlink:href="#SVGID_133_"  overflow="visible" fill="#008F45"/>
	<clipPath id="SVGID_134_">
		<use xlink:href="#SVGID_133_"  overflow="visible"/>
	</clipPath>
	<rect x="98.7" y="96.1" clip-path="url(#SVGID_134_)" fill="#008F45" width="14.4" height="143.7"/>
</g>
<g>
	<defs>
		<path id="SVGID_135_" d="M171.3,96.1c0,0-66.1,30.1-80.7,52.8c-5.8,9.1-11.4,33.6-20.5,52.2c-2.3,4.7,24-9.2,24-9.2l0.1,47.9
			l32.6-42.4l10.6,14.2L171.3,96.1z"/>
	</defs>
	<clipPath id="SVGID_136_">
		<use xlink:href="#SVGID_135_"  overflow="visible"/>
	</clipPath>
	<rect x="113.1" y="96.1" clip-path="url(#SVGID_136_)" fill="#008F45" width="14.4" height="143.7"/>
</g>
<g>
	<defs>
		<path id="SVGID_137_" d="M171.3,96.1c0,0-66.1,30.1-80.7,52.8c-5.8,9.1-11.4,33.6-20.5,52.2c-2.3,4.7,24-9.2,24-9.2l0.1,47.9
			l32.6-42.4l10.6,14.2L171.3,96.1z"/>
	</defs>
	<clipPath id="SVGID_138_">
		<use xlink:href="#SVGID_137_"  overflow="visible"/>
	</clipPath>
	<rect x="127.5" y="96.1" clip-path="url(#SVGID_138_)" fill="#008E45" width="14.4" height="143.7"/>
</g>
<g>
	<defs>
		<path id="SVGID_139_" d="M171.3,96.1c0,0-66.1,30.1-80.7,52.8c-5.8,9.1-11.4,33.6-20.5,52.2c-2.3,4.7,24-9.2,24-9.2l0.1,47.9
			l32.6-42.4l10.6,14.2L171.3,96.1z"/>
	</defs>
	<clipPath id="SVGID_140_">
		<use xlink:href="#SVGID_139_"  overflow="visible"/>
	</clipPath>
	<rect x="141.9" y="96.1" clip-path="url(#SVGID_140_)" fill="#008D45" width="14.4" height="143.7"/>
</g>
<g>
	<defs>
		<path id="SVGID_141_" d="M171.3,96.1c0,0-66.1,30.1-80.7,52.8c-5.8,9.1-11.4,33.6-20.5,52.2c-2.3,4.7,24-9.2,24-9.2l0.1,47.9
			l32.6-42.4l10.6,14.2L171.3,96.1z"/>
	</defs>
	<clipPath id="SVGID_142_">
		<use xlink:href="#SVGID_141_"  overflow="visible"/>
	</clipPath>
	<rect x="156.3" y="96.1" clip-path="url(#SVGID_142_)" fill="#008B45" width="14.4" height="143.7"/>
</g>
<g>
	<defs>
		<path id="SVGID_143_" d="M171.3,96.1c0,0-66.1,30.1-80.7,52.8c-5.8,9.1-11.4,33.6-20.5,52.2c-2.3,4.7,24-9.2,24-9.2l0.1,47.9
			l32.6-42.4l10.6,14.2L171.3,96.1z"/>
	</defs>
	<clipPath id="SVGID_144_">
		<use xlink:href="#SVGID_143_"  overflow="visible"/>
	</clipPath>
	<rect x="170.7" y="96.1" clip-path="url(#SVGID_144_)" fill="#008B45" width="0.6" height="143.7"/>
</g>
<g>
	<defs>
		<path id="SVGID_145_" d="M87.5,239.8c0,0,9.8,77.9,28.2,98.8c7.4,8.4,35.1,14.9,43.6,22.6c6.3,5.8-1.3-19.7-1.3-19.7l53.8,17.7
			l-32-43.6c0,0,22.2-5.8,18-8.5C137.8,269.8,87.5,239.8,87.5,239.8z"/>
	</defs>
	<clipPath id="SVGID_146_">
		<use xlink:href="#SVGID_145_"  overflow="visible"/>
	</clipPath>
	<path clip-path="url(#SVGID_146_)" fill="#009245" d="M87.5,239.8V367V239.8z"/>
</g>
<g>
	<defs>
		<path id="SVGID_147_" d="M87.5,239.8c0,0,9.8,77.9,28.2,98.8c7.4,8.4,35.1,14.9,43.6,22.6c6.3,5.8-1.3-19.7-1.3-19.7l53.8,17.7
			l-32-43.6c0,0,22.2-5.8,18-8.5C137.8,269.8,87.5,239.8,87.5,239.8z"/>
	</defs>
	<use xlink:href="#SVGID_147_"  overflow="visible" fill="#009145"/>
	<clipPath id="SVGID_148_">
		<use xlink:href="#SVGID_147_"  overflow="visible"/>
	</clipPath>
	<rect x="87.5" y="239.8" clip-path="url(#SVGID_148_)" fill="#009145" width="17.7" height="127.2"/>
</g>
<g>
	<defs>
		<path id="SVGID_149_" d="M87.5,239.8c0,0,9.8,77.9,28.2,98.8c7.4,8.4,35.1,14.9,43.6,22.6c6.3,5.8-1.3-19.7-1.3-19.7l53.8,17.7
			l-32-43.6c0,0,22.2-5.8,18-8.5C137.8,269.8,87.5,239.8,87.5,239.8z"/>
	</defs>
	<clipPath id="SVGID_150_">
		<use xlink:href="#SVGID_149_"  overflow="visible"/>
	</clipPath>
	<rect x="105.2" y="239.8" clip-path="url(#SVGID_150_)" fill="#009145" width="17.7" height="127.2"/>
</g>
<g>
	<defs>
		<path id="SVGID_151_" d="M87.5,239.8c0,0,9.8,77.9,28.2,98.8c7.4,8.4,35.1,14.9,43.6,22.6c6.3,5.8-1.3-19.7-1.3-19.7l53.8,17.7
			l-32-43.6c0,0,22.2-5.8,18-8.5C137.8,269.8,87.5,239.8,87.5,239.8z"/>
	</defs>
	<clipPath id="SVGID_152_">
		<use xlink:href="#SVGID_151_"  overflow="visible"/>
	</clipPath>
	<rect x="122.9" y="239.8" clip-path="url(#SVGID_152_)" fill="#009045" width="17.7" height="127.2"/>
</g>
<g>
	<defs>
		<path id="SVGID_153_" d="M87.5,239.8c0,0,9.8,77.9,28.2,98.8c7.4,8.4,35.1,14.9,43.6,22.6c6.3,5.8-1.3-19.7-1.3-19.7l53.8,17.7
			l-32-43.6c0,0,22.2-5.8,18-8.5C137.8,269.8,87.5,239.8,87.5,239.8z"/>
	</defs>
	<clipPath id="SVGID_154_">
		<use xlink:href="#SVGID_153_"  overflow="visible"/>
	</clipPath>
	<rect x="140.5" y="239.8" clip-path="url(#SVGID_154_)" fill="#008F45" width="17.7" height="127.2"/>
</g>
<g>
	<defs>
		<path id="SVGID_155_" d="M87.5,239.8c0,0,9.8,77.9,28.2,98.8c7.4,8.4,35.1,14.9,43.6,22.6c6.3,5.8-1.3-19.7-1.3-19.7l53.8,17.7
			l-32-43.6c0,0,22.2-5.8,18-8.5C137.8,269.8,87.5,239.8,87.5,239.8z"/>
	</defs>
	<clipPath id="SVGID_156_">
		<use xlink:href="#SVGID_155_"  overflow="visible"/>
	</clipPath>
	<rect x="158.2" y="239.8" clip-path="url(#SVGID_156_)" fill="#008E45" width="17.7" height="127.2"/>
</g>
<g>
	<defs>
		<path id="SVGID_157_" d="M87.5,239.8c0,0,9.8,77.9,28.2,98.8c7.4,8.4,35.1,14.9,43.6,22.6c6.3,5.8-1.3-19.7-1.3-19.7l53.8,17.7
			l-32-43.6c0,0,22.2-5.8,18-8.5C137.8,269.8,87.5,239.8,87.5,239.8z"/>
	</defs>
	<clipPath id="SVGID_158_">
		<use xlink:href="#SVGID_157_"  overflow="visible"/>
	</clipPath>
	<rect x="175.9" y="239.8" clip-path="url(#SVGID_158_)" fill="#008D45" width="17.6" height="127.2"/>
</g>
<g>
	<defs>
		<path id="SVGID_159_" d="M87.5,239.8c0,0,9.8,77.9,28.2,98.8c7.4,8.4,35.1,14.9,43.6,22.6c6.3,5.8-1.3-19.7-1.3-19.7l53.8,17.7
			l-32-43.6c0,0,22.2-5.8,18-8.5C137.8,269.8,87.5,239.8,87.5,239.8z"/>
	</defs>
	<clipPath id="SVGID_160_">
		<use xlink:href="#SVGID_159_"  overflow="visible"/>
	</clipPath>
	<rect x="193.5" y="239.8" clip-path="url(#SVGID_160_)" fill="#008B45" width="17.7" height="127.2"/>
</g>
<g>
	<defs>
		<path id="SVGID_161_" d="M87.5,239.8c0,0,9.8,77.9,28.2,98.8c7.4,8.4,35.1,14.9,43.6,22.6c6.3,5.8-1.3-19.7-1.3-19.7l53.8,17.7
			l-32-43.6c0,0,22.2-5.8,18-8.5C137.8,269.8,87.5,239.8,87.5,239.8z"/>
	</defs>
	<clipPath id="SVGID_162_">
		<use xlink:href="#SVGID_161_"  overflow="visible"/>
	</clipPath>
	<rect x="211.2" y="239.8" clip-path="url(#SVGID_162_)" fill="#008B45" width="0.7" height="127.2"/>
</g>
<circle fill="#C1272D" cx="123.5" cy="297.1" r="2.9"/>
<circle fill="#C1272D" cx="143.2" cy="308" r="2.9"/>
<circle fill="#C1272D" cx="129.2" cy="310.9" r="2.9"/>
<circle fill="#C1272D" cx="135" cy="294.3" r="2.9"/>
<circle fill="#C1272D" cx="361.6" cy="225.9" r="2.9"/>
<circle fill="#C1272D" cx="388.3" cy="236.8" r="2.9"/>
<circle fill="#C1272D" cx="372" cy="232.7" r="2.9"/>
<circle fill="#C1272D" cx="373.2" cy="223" r="2.9"/>
<circle fill="#C1272D" cx="306.2" cy="99.4" r="2.9"/>
<circle fill="#C1272D" cx="335.2" cy="110.3" r="2.9"/>
<circle fill="#C1272D" cx="321.2" cy="113.2" r="2.9"/>
<circle fill="#C1272D" cx="322.4" cy="101.2" r="2.9"/>
<circle fill="#C1272D" cx="328.2" cy="344.7" r="2.9"/>
<circle fill="#C1272D" cx="359.5" cy="353.3" r="2.9"/>
<circle fill="#C1272D" cx="338.6" cy="351.6" r="2.9"/>
<circle fill="#C1272D" cx="339.7" cy="341.9" r="2.9"/>
<circle fill="#C1272D" cx="121.7" cy="152.1" r="2.9"/>
<path fill="#00A919" d="M207.7,387.3l46.5,6.6c0.7-2.2,10.4-8,10.4-8l27.1,9.7l36-17.5l-129.3-6.9L207.7,387.3z"/>
<circle fill="#C1272D" cx="148.3" cy="163" r="2.9"/>
<circle fill="#C1272D" cx="132.1" cy="159" r="2.9"/>
<circle fill="#C1272D" cx="133.2" cy="149.2" r="2.9"/>
<polygon fill="#009145" points="191.3,380.5 213.6,394.4 226.4,374.6 261.7,390.9 258.9,378.8 288.1,392.1 335.7,371.4 271.5,359.7 
	184.9,358 "/>
<polygon fill="#AA222C" points="247.8,460.6 230,453.7 212.2,460.6 212.2,361.6 247.8,361.6 "/>
<path fill="#008F45" d="M223.1,56.3c0,0,18.1-19.6,95.3-5.7c9.9,1.8-31.4,24.9-31.4,24.9l5.8,48.1L256.7,96L223.1,56.3z"/>
<linearGradient id="SVGID_163_" gradientUnits="userSpaceOnUse" x1="162.1571" y1="161.2804" x2="346.9695" y2="161.2804" gradientTransform="matrix(1 0 0 -1 0 500)">
	<stop  offset="0" style="stop-color:#C1272D"/>
	<stop  offset="0.2567" style="stop-color:#B5272D"/>
	<stop  offset="0.5135" style="stop-color:#B1272D"/>
	<stop  offset="0.7728" style="stop-color:#B4272D"/>
	<stop  offset="0.9485" style="stop-color:#BD272D"/>
	<stop  offset="1" style="stop-color:#C1272D"/>
</linearGradient>
<path fill="url(#SVGID_163_)" d="M251.5,339c12.3,0.7,33.4-11.3,50.1-21.1c17-9.6,29.5-16.9,33.6-2.4c3.1,12,2.1,13.7,11.4,44.6
	c3.8,11.2-22.4,13.2-47,8.5c-25-4.1-48.5-15.1-48.2-15c0.2-0.1-20.9,9.1-43.7,12.3c-22.5,3.7-46.7,1.4-45.5-9.4
	c1.1-11.6,12.4-12.9,19.6-45.1c2.6-10.3,13-2.7,27.3,6.6C222.9,327.5,240.8,338.8,251.5,339z"/>
<polygon fill="#AA222C" points="294,460.6 276.4,453.7 257.9,460.6 257.9,361.6 294,361.6 "/>
<linearGradient id="SVGID_164_" gradientUnits="userSpaceOnUse" x1="157.4627" y1="141.5052" x2="350.1075" y2="141.5052" gradientTransform="matrix(1 0 0 -1 0 500)">
	<stop  offset="0" style="stop-color:#C1272D"/>
	<stop  offset="0.2183" style="stop-color:#BD272D"/>
	<stop  offset="0.4421" style="stop-color:#B1272D"/>
	<stop  offset="0.5135" style="stop-color:#AB272D"/>
	<stop  offset="0.6121" style="stop-color:#B6272D"/>
	<stop  offset="0.7589" style="stop-color:#BE272D"/>
	<stop  offset="1" style="stop-color:#C1272D"/>
</linearGradient>
<path fill="url(#SVGID_164_)" d="M251.2,349.6c27.1,0.9,98.9-53,98.9-16.2c0,15.2-1.4,16.9,0,56.6c1,28.7-98.9-22.4-98.9-22.4
	s-89.7,44.1-93.5,17.8c-2-14.2,9.3-19.1,9.3-59.6C167,299.9,227.6,348.8,251.2,349.6z"/>
<path fill="none" stroke="#C1272D" stroke-width="2.3186" stroke-miterlimit="10" d="M350.1,331.1"/>
<path fill="none" stroke="#C1272D" stroke-width="2.3186" stroke-miterlimit="10" d="M167,330.4"/>
<path fill="#AA222C" d="M231,348.9c-8.4-3.8-14.1-7.6-22.2-11.7c-6.1-3.2-7-4.1-11.7-6.3c-17.4-7.9-27.4-7.4-22.5-0.6
	c7.7,10.6,19,12.3,32.6,14.5C216.2,346.2,224.4,349.2,231,348.9"/>
<path fill="#AA222C" d="M276,348c6.3-2,12.3-5.2,20.3-8.2c10.1-3.7,13.4-5.1,26.4-10.2c3.2-1.3,13.3-5.4,18.1-1.4
	c4.6,3.8-0.4,7-5.2,9c-4.3,1.7-15.1,4.9-24.9,6.9c-15,3.1-24.7,4.5-28.4,4.9c-2.9,0.2-8.2,0.5-10.5,0.5"/>
<path fill="#C1272D" d="M243.9,337.6c0,0,2.4,0.6,5,0.4c2-0.2,5.8,0,7.9,0.3c2.6,0.4,5-0.7,5-0.7l-2,34.1c0,0-4-1.3-5.4-1.1
	c-2,0.2-6,0.1-8,0c-1.3-0.1-5.2,1.6-5.2,1.6"/>
<circle fill="#C1272D" cx="358.7" cy="341.9" r="2.9"/>
<circle fill="#C1272D" cx="366.8" cy="347.6" r="2.9"/>
<path fill="#00A919" d="M239.3,54.3c-4.3-2.9-23.9-1.6-42.9,7.4c-25.2,12-44.9,18.2-51.8,18.8c-4.9,0.5,19,5.4,19,5.4
	s-7.5,26.6-14.1,30.6c-5.1,3.1,40.3-12.6,40.3-12.6s3.2,32.2,5,24.2c1.5-6.6,36.7-40.4,36.7-40.4S246,74.5,247.1,68
	C247.9,63.9,242.4,56.4,239.3,54.3z"/>
</svg>
