<?xml version="1.0" encoding="utf-8"?>
<!-- Generator: Adobe Illustrator 17.1.0, SVG Export Plug-In . SVG Version: 6.00 Build 0)  -->
<!DOCTYPE svg PUBLIC "-//W3C//DTD SVG 1.1//EN" "http://www.w3.org/Graphics/SVG/1.1/DTD/svg11.dtd">
<svg version="1.1" id="Layer_1" xmlns="http://www.w3.org/2000/svg" xmlns:xlink="http://www.w3.org/1999/xlink" x="0px" y="0px"
	 viewBox="0 0 500 500" enable-background="new 0 0 500 500" xml:space="preserve">
<path fill="#00ADEE" d="M221,118.2c0,0,9.2-8,20.5-8c11.3,0,20.5,8,20.5,8"/>
<path fill="#00ADEE" d="M269.2,117.6"/>
<path fill="#00ADEE" d="M216.2,117.6"/>
<path fill="#FFFFFF" stroke="#554E4F" stroke-width="2.4467" stroke-miterlimit="10" d="M374.3,437.1c0,12.6-7.6,22.9-19.2,22.9
	H130.2c-11.6,0-19.2-10.2-19.2-22.9V140.9c0-12.6,7.6-22.9,19.2-22.9h224.9c11.6,0,19.2,10.2,19.2,22.9V437.1z"/>
<g>
	<defs>
		<path id="SVGID_1_" d="M356.3,319.8c0,7.3-6.7,13.3-16.8,13.3h-197c-10.1,0-16.8-5.9-16.8-13.3V148.2c0-7.3,6.7-13.3,16.8-13.3
			h197c10.1,0,16.8,5.9,16.8,13.3V319.8z"/>
	</defs>
	<clipPath id="SVGID_2_">
		<use xlink:href="#SVGID_1_"  overflow="visible"/>
	</clipPath>
	<g clip-path="url(#SVGID_2_)">
		<line fill="none" stroke="#00ADEE" stroke-width="0.4369" stroke-miterlimit="10" x1="129.2" y1="134.9" x2="358" y2="134.9"/>
		<line fill="none" stroke="#00ADEE" stroke-width="0.4369" stroke-miterlimit="10" x1="129.2" y1="140.8" x2="358" y2="140.8"/>
		<line fill="none" stroke="#00ADEE" stroke-width="0.4369" stroke-miterlimit="10" x1="129.1" y1="146.6" x2="358" y2="146.6"/>
		<line fill="none" stroke="#00ADEE" stroke-width="0.4369" stroke-miterlimit="10" x1="129.1" y1="152.4" x2="358" y2="152.4"/>
		<line fill="none" stroke="#00ADEE" stroke-width="0.4369" stroke-miterlimit="10" x1="129" y1="158.2" x2="358" y2="158.2"/>
		<line fill="none" stroke="#00ADEE" stroke-width="0.4369" stroke-miterlimit="10" x1="129" y1="164.1" x2="358" y2="164.1"/>
		<line fill="none" stroke="#00ADEE" stroke-width="0.4369" stroke-miterlimit="10" x1="128.9" y1="169.9" x2="358" y2="169.9"/>
		<line fill="none" stroke="#00ADEE" stroke-width="0.4369" stroke-miterlimit="10" x1="128.8" y1="175.7" x2="358" y2="175.7"/>
		<line fill="none" stroke="#00ADEE" stroke-width="0.4369" stroke-miterlimit="10" x1="128.8" y1="181.5" x2="358" y2="181.5"/>
		<line fill="none" stroke="#00ADEE" stroke-width="0.4369" stroke-miterlimit="10" x1="128.7" y1="187.4" x2="358" y2="187.4"/>
		<line fill="none" stroke="#00ADEE" stroke-width="0.4369" stroke-miterlimit="10" x1="128.7" y1="193.2" x2="358" y2="193.2"/>
		<line fill="none" stroke="#00ADEE" stroke-width="0.4369" stroke-miterlimit="10" x1="128.6" y1="199" x2="358" y2="199"/>
		<line fill="none" stroke="#00ADEE" stroke-width="0.4369" stroke-miterlimit="10" x1="128.6" y1="204.8" x2="358" y2="204.8"/>
		<line fill="none" stroke="#00ADEE" stroke-width="0.4369" stroke-miterlimit="10" x1="128.5" y1="210.7" x2="358" y2="210.7"/>
		<line fill="none" stroke="#00ADEE" stroke-width="0.4369" stroke-miterlimit="10" x1="128.4" y1="216.5" x2="358" y2="216.5"/>
		<line fill="none" stroke="#00ADEE" stroke-width="0.4369" stroke-miterlimit="10" x1="128.4" y1="222.3" x2="358" y2="222.3"/>
		<line fill="none" stroke="#00ADEE" stroke-width="0.4369" stroke-miterlimit="10" x1="128.3" y1="228.1" x2="358" y2="228.1"/>
		<line fill="none" stroke="#00ADEE" stroke-width="0.4369" stroke-miterlimit="10" x1="128.3" y1="234" x2="358" y2="234"/>
		<line fill="none" stroke="#00ADEE" stroke-width="0.4369" stroke-miterlimit="10" x1="128.2" y1="239.8" x2="358" y2="239.8"/>
		<line fill="none" stroke="#00ADEE" stroke-width="0.4369" stroke-miterlimit="10" x1="128.2" y1="245.6" x2="358" y2="245.6"/>
		<line fill="none" stroke="#00ADEE" stroke-width="0.4369" stroke-miterlimit="10" x1="128.1" y1="251.4" x2="358" y2="251.4"/>
		<line fill="none" stroke="#00ADEE" stroke-width="0.4369" stroke-miterlimit="10" x1="128" y1="257.3" x2="358" y2="257.3"/>
		<line fill="none" stroke="#00ADEE" stroke-width="0.4369" stroke-miterlimit="10" x1="128" y1="263.1" x2="358" y2="263.1"/>
		<line fill="none" stroke="#00ADEE" stroke-width="0.4369" stroke-miterlimit="10" x1="127.9" y1="268.9" x2="358" y2="268.9"/>
		<line fill="none" stroke="#00ADEE" stroke-width="0.4369" stroke-miterlimit="10" x1="127.9" y1="274.7" x2="358" y2="274.7"/>
		<line fill="none" stroke="#00ADEE" stroke-width="0.4369" stroke-miterlimit="10" x1="127.8" y1="280.6" x2="358" y2="280.6"/>
		<line fill="none" stroke="#00ADEE" stroke-width="0.4369" stroke-miterlimit="10" x1="127.8" y1="286.4" x2="358" y2="286.4"/>
		<line fill="none" stroke="#00ADEE" stroke-width="0.4369" stroke-miterlimit="10" x1="127.7" y1="292.2" x2="358" y2="292.2"/>
		<line fill="none" stroke="#00ADEE" stroke-width="0.4369" stroke-miterlimit="10" x1="127.7" y1="298.1" x2="358" y2="298.1"/>
		<line fill="none" stroke="#00ADEE" stroke-width="0.4369" stroke-miterlimit="10" x1="127.6" y1="303.9" x2="358" y2="303.9"/>
		<line fill="none" stroke="#00ADEE" stroke-width="0.4369" stroke-miterlimit="10" x1="127.5" y1="309.7" x2="358" y2="309.7"/>
		<line fill="none" stroke="#00ADEE" stroke-width="0.4369" stroke-miterlimit="10" x1="127.5" y1="315.5" x2="358" y2="315.5"/>
		<line fill="none" stroke="#00ADEE" stroke-width="0.4369" stroke-miterlimit="10" x1="127.4" y1="321.4" x2="358" y2="321.4"/>
		<line fill="none" stroke="#00ADEE" stroke-width="0.4369" stroke-miterlimit="10" x1="127.4" y1="327.2" x2="358" y2="327.2"/>
		<line fill="none" stroke="#00ADEE" stroke-width="0.4369" stroke-miterlimit="10" x1="127.3" y1="333" x2="358" y2="333"/>
	</g>
	<path clip-path="url(#SVGID_2_)" fill="none" stroke="#AEDEDC" stroke-width="2.2719" stroke-miterlimit="10" d="M351,384.3
		c0,7.4-6,13.4-13.4,13.4H139c-7.4,0-13.4-6-13.4-13.4l0,0c0-7.4,6-13.4,13.4-13.4h198.6C345,370.9,351,376.9,351,384.3L351,384.3z"
		/>
</g>
<path fill="#FFFFFF" stroke="#554E4F" stroke-width="2.4467" stroke-miterlimit="10" d="M337.8,388.6c0,5.3,0.6,9.6-7.4,9.6H152.2
	c-8,0-7.4-4.3-7.4-9.6l0,0c0-5.3-0.6-9.6,7.4-9.6h178.1C338.4,379,337.8,383.3,337.8,388.6L337.8,388.6z"/>
<path fill="#FFFFFF" stroke="#554E4F" stroke-width="2.4467" stroke-miterlimit="10" d="M338.5,414.7c0,2.3-1.9,4.2-4.2,4.2l0,0
	c-2.3,0-4.2-1.9-4.2-4.2l0,0c0-2.3,1.9-4.2,4.2-4.2l0,0C336.6,410.5,338.5,412.4,338.5,414.7L338.5,414.7z"/>
<path fill="none" stroke="#554E4F" stroke-width="2.4467" stroke-linecap="round" stroke-miterlimit="10" d="M356.3,320.7
	c0,7.4-6.7,13.5-16.8,13.5h-196c-10.1,0-16.8-6-16.8-13.5V146.1c0-7.4,6.7-13.5,16.8-13.5h196c10.1,0,16.8,6,16.8,13.5V320.7z"/>
<path fill="#FFFFFF" stroke="#554E4F" stroke-width="2.4467" stroke-miterlimit="10" d="M324.4,414.7c0,2.3-1.9,4.2-4.2,4.2l0,0
	c-2.3,0-4.2-1.9-4.2-4.2l0,0c0-2.3,1.9-4.2,4.2-4.2l0,0C322.5,410.5,324.4,412.4,324.4,414.7L324.4,414.7z"/>
<g>
	<path fill="#58595B" stroke="#6D6E70" stroke-width="0.4369" stroke-miterlimit="10" d="M224.8,350.4c0.7-0.1,1.7-0.2,2.6-0.2
		c1.5,0,2.4,0.3,3.1,0.9c0.5,0.5,0.8,1.2,0.8,2c0,1.4-0.9,2.3-2,2.7v0c0.8,0.3,1.3,1,1.6,2.1c0.3,1.5,0.6,2.5,0.8,2.9h-1.4
		c-0.2-0.3-0.4-1.2-0.7-2.5c-0.3-1.5-0.9-2-2.1-2.1h-1.3v4.6h-1.4V350.4z M226.1,355.2h1.4c1.5,0,2.4-0.8,2.4-2c0-1.4-1-2-2.4-2
		c-0.7,0-1.1,0.1-1.4,0.1V355.2z"/>
	<path fill="#58595B" stroke="#6D6E70" stroke-width="0.4369" stroke-miterlimit="10" d="M244.6,360.5c-0.5,0.3-1.5,0.5-2.8,0.5
		c-3,0-5.2-1.9-5.2-5.4c0-3.3,2.2-5.6,5.5-5.6c1.3,0,2.2,0.3,2.5,0.5l-0.3,1.1c-0.5-0.3-1.3-0.4-2.1-0.4c-2.5,0-4.1,1.6-4.1,4.4
		c0,2.6,1.5,4.3,4.1,4.3c0.8,0,1.7-0.2,2.2-0.4L244.6,360.5z"/>
	<path fill="#58595B" stroke="#6D6E70" stroke-width="0.4369" stroke-miterlimit="10" d="M252,357.5l-1.1,3.3h-1.4l3.6-10.6h1.7
		l3.6,10.6h-1.5l-1.1-3.3H252z M255.5,356.4l-1-3.1c-0.2-0.7-0.4-1.3-0.6-1.9h0c-0.2,0.6-0.3,1.3-0.5,1.9l-1,3.1H255.5z"/>
</g>
<path fill="#00ADEE" stroke="#00ADEE" stroke-width="1.3107" stroke-miterlimit="10" d="M197.5,41.7l42.7,68.4L197.5,41.7z"/>
<polyline fill="#00ADEE" stroke="#00ADEE" stroke-width="1.3107" stroke-miterlimit="10" points="294.5,35.8 243.9,110.2 
	294.5,35.8 "/>
<path fill="#00ADEE" stroke="#00ADEE" stroke-width="1.3107" stroke-miterlimit="10" d="M188.5,56.9l9-15.1L188.5,56.9z"/>
<path fill="none" stroke="#231F20" stroke-width="1.7476" stroke-miterlimit="10" d="M327.7,444.3"/>
</svg>
