<?xml version="1.0" encoding="utf-8"?>
<!-- Generator: Adobe Illustrator 17.1.0, SVG Export Plug-In . SVG Version: 6.00 Build 0)  -->
<!DOCTYPE svg PUBLIC "-//W3C//DTD SVG 1.1//EN" "http://www.w3.org/Graphics/SVG/1.1/DTD/svg11.dtd">
<svg version="1.1" id="Layer_1" xmlns="http://www.w3.org/2000/svg" xmlns:xlink="http://www.w3.org/1999/xlink" x="0px" y="0px"
	 viewBox="0 0 500 500" enable-background="new 0 0 500 500" xml:space="preserve">
<g>
	<rect x="17.6" y="79.5" fill="#FF0013" width="460.5" height="340"/>
	<rect x="17.6" y="79.5" fill="none" stroke="#FFFFFF" stroke-width="0.9348" stroke-miterlimit="10" width="460.5" height="340"/>
</g>
<g>
	<path fill="#FFFFFF" d="M398.7,256.9v110h-139v-110H398.7 M400.7,254.9h-143v114h143V254.9L400.7,254.9z"/>
</g>
<g>
	<line fill="none" stroke="#F9F9F9" stroke-miterlimit="10" x1="127.7" y1="157.2" x2="127.7" y2="255.8"/>
	<line fill="none" stroke="#F9F9F9" stroke-miterlimit="10" x1="131.7" y1="157.2" x2="131.7" y2="255.8"/>
	<line fill="none" stroke="#F9F9F9" stroke-miterlimit="10" x1="135.7" y1="157.2" x2="135.7" y2="255.8"/>
	<line fill="none" stroke="#F9F9F9" stroke-miterlimit="10" x1="139.6" y1="157.2" x2="139.6" y2="255.8"/>
	<line fill="none" stroke="#F9F9F9" stroke-miterlimit="10" x1="143.6" y1="157.2" x2="143.6" y2="255.8"/>
	<line fill="none" stroke="#F9F9F9" stroke-miterlimit="10" x1="147.5" y1="157.2" x2="147.5" y2="255.8"/>
	<line fill="none" stroke="#F9F9F9" stroke-miterlimit="10" x1="151.5" y1="157.2" x2="151.5" y2="255.8"/>
	<line fill="none" stroke="#F9F9F9" stroke-miterlimit="10" x1="155.5" y1="157.2" x2="155.5" y2="255.8"/>
	<line fill="none" stroke="#F9F9F9" stroke-miterlimit="10" x1="159.4" y1="157.2" x2="159.4" y2="255.8"/>
	<line fill="none" stroke="#F9F9F9" stroke-miterlimit="10" x1="163.4" y1="157.2" x2="163.4" y2="255.8"/>
	<line fill="none" stroke="#F9F9F9" stroke-miterlimit="10" x1="167.4" y1="157.2" x2="167.4" y2="255.8"/>
	<line fill="none" stroke="#F9F9F9" stroke-miterlimit="10" x1="171.3" y1="157.3" x2="171.3" y2="255.8"/>
	<line fill="none" stroke="#F9F9F9" stroke-miterlimit="10" x1="175.3" y1="157.3" x2="175.3" y2="255.8"/>
	<line fill="none" stroke="#F9F9F9" stroke-miterlimit="10" x1="179.3" y1="157.3" x2="179.3" y2="255.8"/>
	<line fill="none" stroke="#F9F9F9" stroke-miterlimit="10" x1="183.2" y1="157.3" x2="183.2" y2="255.8"/>
	<line fill="none" stroke="#F9F9F9" stroke-miterlimit="10" x1="187.2" y1="157.3" x2="187.2" y2="255.8"/>
	<line fill="none" stroke="#F9F9F9" stroke-miterlimit="10" x1="191.2" y1="157.3" x2="191.2" y2="255.8"/>
	<line fill="none" stroke="#F9F9F9" stroke-miterlimit="10" x1="195.1" y1="157.3" x2="195.1" y2="255.8"/>
	<line fill="none" stroke="#F9F9F9" stroke-miterlimit="10" x1="199.1" y1="157.3" x2="199.1" y2="255.8"/>
	<line fill="none" stroke="#F9F9F9" stroke-miterlimit="10" x1="203.1" y1="157.3" x2="203.1" y2="255.8"/>
	<line fill="none" stroke="#F9F9F9" stroke-miterlimit="10" x1="207" y1="157.3" x2="207" y2="255.8"/>
	<line fill="none" stroke="#F9F9F9" stroke-miterlimit="10" x1="211" y1="157.3" x2="211" y2="255.8"/>
	<line fill="none" stroke="#F9F9F9" stroke-miterlimit="10" x1="215" y1="157.3" x2="215" y2="255.8"/>
	<line fill="none" stroke="#F9F9F9" stroke-miterlimit="10" x1="218.9" y1="157.3" x2="218.9" y2="255.8"/>
	<line fill="none" stroke="#F9F9F9" stroke-miterlimit="10" x1="222.9" y1="157.3" x2="222.9" y2="255.9"/>
	<line fill="none" stroke="#F9F9F9" stroke-miterlimit="10" x1="226.8" y1="157.3" x2="226.8" y2="255.9"/>
	<line fill="none" stroke="#F9F9F9" stroke-miterlimit="10" x1="230.8" y1="157.3" x2="230.8" y2="255.9"/>
	<line fill="none" stroke="#F9F9F9" stroke-miterlimit="10" x1="234.8" y1="157.3" x2="234.8" y2="255.9"/>
	<line fill="none" stroke="#F9F9F9" stroke-miterlimit="10" x1="238.7" y1="157.3" x2="238.7" y2="255.9"/>
	<line fill="none" stroke="#F9F9F9" stroke-miterlimit="10" x1="242.7" y1="157.3" x2="242.7" y2="255.9"/>
	<line fill="none" stroke="#F9F9F9" stroke-miterlimit="10" x1="246.7" y1="157.3" x2="246.7" y2="255.9"/>
	<line fill="none" stroke="#F9F9F9" stroke-miterlimit="10" x1="250.6" y1="157.3" x2="250.6" y2="255.9"/>
	<line fill="none" stroke="#F9F9F9" stroke-miterlimit="10" x1="254.6" y1="157.3" x2="254.6" y2="255.9"/>
	<line fill="none" stroke="#F9F9F9" stroke-miterlimit="10" x1="258.6" y1="157.3" x2="258.6" y2="255.9"/>
	<line fill="none" stroke="#F9F9F9" stroke-miterlimit="10" x1="262.5" y1="157.3" x2="262.5" y2="255.9"/>
	<line fill="none" stroke="#F9F9F9" stroke-miterlimit="10" x1="266.5" y1="157.3" x2="266.5" y2="255.9"/>
	<line fill="none" stroke="#F9F9F9" stroke-miterlimit="10" x1="270.5" y1="157.3" x2="270.5" y2="255.9"/>
	<line fill="none" stroke="#F9F9F9" stroke-miterlimit="10" x1="274.4" y1="157.4" x2="274.4" y2="255.9"/>
	<line fill="none" stroke="#F9F9F9" stroke-miterlimit="10" x1="278.4" y1="157.4" x2="278.4" y2="255.9"/>
	<line fill="none" stroke="#F9F9F9" stroke-miterlimit="10" x1="282.4" y1="157.4" x2="282.4" y2="255.9"/>
	<line fill="none" stroke="#F9F9F9" stroke-miterlimit="10" x1="286.3" y1="157.4" x2="286.3" y2="255.9"/>
	<line fill="none" stroke="#F9F9F9" stroke-miterlimit="10" x1="290.3" y1="157.4" x2="290.3" y2="255.9"/>
	<line fill="none" stroke="#F9F9F9" stroke-miterlimit="10" x1="294.3" y1="157.4" x2="294.3" y2="255.9"/>
	<line fill="none" stroke="#F9F9F9" stroke-miterlimit="10" x1="298.2" y1="157.4" x2="298.2" y2="255.9"/>
	<line fill="none" stroke="#F9F9F9" stroke-miterlimit="10" x1="302.2" y1="157.4" x2="302.2" y2="255.9"/>
	<line fill="none" stroke="#F9F9F9" stroke-miterlimit="10" x1="306.1" y1="157.4" x2="306.1" y2="255.9"/>
	<line fill="none" stroke="#F9F9F9" stroke-miterlimit="10" x1="310.1" y1="157.4" x2="310.1" y2="255.9"/>
	<line fill="none" stroke="#F9F9F9" stroke-miterlimit="10" x1="314.1" y1="157.4" x2="314.1" y2="255.9"/>
	<line fill="none" stroke="#F9F9F9" stroke-miterlimit="10" x1="318" y1="157.4" x2="318" y2="255.9"/>
	<line fill="none" stroke="#F9F9F9" stroke-miterlimit="10" x1="322" y1="157.4" x2="322" y2="255.9"/>
	<line fill="none" stroke="#F9F9F9" stroke-miterlimit="10" x1="326" y1="157.4" x2="326" y2="256"/>
	<line fill="none" stroke="#F9F9F9" stroke-miterlimit="10" x1="329.9" y1="157.4" x2="329.9" y2="256"/>
	<line fill="none" stroke="#F9F9F9" stroke-miterlimit="10" x1="333.9" y1="157.4" x2="333.9" y2="256"/>
	<line fill="none" stroke="#F9F9F9" stroke-miterlimit="10" x1="337.9" y1="157.4" x2="337.9" y2="256"/>
	<line fill="none" stroke="#F9F9F9" stroke-miterlimit="10" x1="341.8" y1="157.4" x2="341.8" y2="256"/>
	<line fill="none" stroke="#F9F9F9" stroke-miterlimit="10" x1="345.8" y1="157.4" x2="345.8" y2="256"/>
	<line fill="none" stroke="#F9F9F9" stroke-miterlimit="10" x1="349.8" y1="157.4" x2="349.8" y2="256"/>
	<line fill="none" stroke="#F9F9F9" stroke-miterlimit="10" x1="353.7" y1="157.4" x2="353.7" y2="256"/>
</g>
<g>
	
		<image overflow="visible" opacity="0.75" width="189" height="511" xlink:href="6AF875436514DE01.png"  transform="matrix(0.24 0 0 0.24 220.3916 145.2066)">
	</image>
	<g>
		<rect x="232.4" y="157.2" fill="#F9F8E4" width="21.3" height="98.5"/>
	</g>
</g>
<line fill="#D9D8CF" stroke="#FFFFFF" stroke-width="12" stroke-miterlimit="10" x1="137.7" y1="424.5" x2="280.7" y2="424.5"/>
<line fill="#D9D8CF" stroke="#FFFFFF" stroke-width="12" stroke-miterlimit="10" x1="137.7" y1="446" x2="280.7" y2="446"/>
<rect x="127.7" y="157.2" fill="none" stroke="#FFFFFF" stroke-width="2" stroke-miterlimit="10" width="226" height="98.8"/>
<g>
	
		<image overflow="visible" opacity="0.75" width="184" height="650" xlink:href="6AF875436514DE03.png"  transform="matrix(0.24 0 0 0.24 332.0582 234.0951)">
	</image>
	<g>
		<line fill="none" stroke="#FFFFFF" stroke-width="2" stroke-miterlimit="10" x1="354.1" y1="255.1" x2="354.1" y2="368.9"/>
	</g>
</g>
<g>
	
		<image overflow="visible" opacity="0.75" width="184" height="650" xlink:href="6AF875436514DE06.png"  transform="matrix(0.24 0 0 0.24 337.4979 234.1993)">
	</image>
	<g>
		<line fill="none" stroke="#FFFFFF" stroke-width="2" stroke-miterlimit="10" x1="359.5" y1="255.2" x2="359.5" y2="369"/>
	</g>
</g>
<g>
	<rect x="109.7" y="255.1" fill="#F9F8E4" width="136" height="114"/>
</g>
<g>
	
		<image overflow="visible" opacity="0.75" width="762" height="185" xlink:href="6AF875436514DE07.png"  transform="matrix(0.24 0 0 0.24 237.7738 292.2636)">
	</image>
	<g>
		<line fill="none" stroke="#FFFFFF" stroke-width="2" stroke-miterlimit="10" x1="399.5" y1="314.4" x2="258.9" y2="314.4"/>
	</g>
</g>
<line fill="#FFFFFF" stroke="#FF0013" stroke-width="4.0399" stroke-miterlimit="10" x1="246.7" y1="310.8" x2="108" y2="310.8"/>
<line fill="#FFFFFF" stroke="#FF0013" stroke-width="4.0314" stroke-miterlimit="10" x1="178.7" y1="254.4" x2="178.7" y2="369.9"/>
<g>
	
		<image overflow="visible" opacity="0.75" width="688" height="108" xlink:href="6AF875436514DE02.png"  transform="matrix(0.24 0 0 0.24 245.8661 296.8936)">
	</image>
	<g>
		<line fill="none" stroke="#F9F8E4" stroke-width="2" stroke-miterlimit="10" x1="399" y1="309.8" x2="257.8" y2="309.8"/>
	</g>
</g>
<g>
	<g>
		<path fill="#890A0A" d="M243.7,143.8c0,0,0-5,0-5C243.7,138.8,243.7,143.8,243.7,143.8L243.7,143.8z"/>
	</g>
</g>
<g>
	<path fill="#F9F8E4" d="M220.6,150.7c0,0-3.6,17.9-7.5,24.7c-11.2,20-7.7,39.3-7.7,39.3l10.1-12.3l11.1,14.4l4.2-29.1l3.6-10.2
		c2.2-7.2,10.3-24.2,10.3-24.2"/>
</g>
<g>
	
		<image overflow="visible" opacity="0.75" width="351" height="192" xlink:href="6AF875436514DE0D.png"  transform="matrix(0.24 0 0 0.24 173.0505 122.9239)">
	</image>
	<g>
		<path fill="#FFFFFF" d="M241.3,147.5l-46.1-12.3c-3.7-1-7.7,0.8-8.1,3.6l-2,13.4c-0.4,2.6,2.5,4.8,6.2,4.8l48-1
			C245.9,155.8,247.5,149.2,241.3,147.5z"/>
	</g>
</g>
<g>
	
		<image overflow="visible" opacity="0.75" width="363" height="281" xlink:href="6AF875436514DE0E.png"  transform="matrix(0.24 0 0 0.24 181.7278 109.5338)">
	</image>
	<g>
		<path fill="#FFFFFF" d="M251.2,154.3l-38.5-28.2c-3.1-2.3-7.5-2.1-8.9,0.4l-6.7,11.8c-1.3,2.3,0.6,5.4,4.1,6.7l45.1,16.4
			C252.6,163.6,256.4,158.1,251.2,154.3z"/>
	</g>
</g>
<g>
	
		<image overflow="visible" opacity="0.75" width="349" height="192" xlink:href="6AF875436514DE0F.png"  transform="matrix(0.24 0 0 0.24 229.7117 123.1759)">
	</image>
	<g>
		<path fill="#F9F8E4" d="M245.6,147.8l45.7-12.3c3.7-1,7.7,0.8,8.1,3.6l1.9,13.4c0.4,2.6-2.5,4.8-6.1,4.8l-47.6-1
			C241,156,239.5,149.5,245.6,147.8z"/>
	</g>
</g>
<g>
	<path fill="#FFFFFF" d="M224.7,152.9c0-8.6,7.7-15.5,17.3-15.5c9.5,0,17.3,7,17.3,15.5"/>
</g>
<g>
	
		<image overflow="visible" opacity="0.75" width="340" height="251" xlink:href="6AF875436514DE04.png"  transform="matrix(0.24 0 0 0.24 220.1706 114.3513)">
	</image>
	<g>
		<path fill="#FFFFFF" d="M234.7,154.8l39.3-27c3.2-2.2,7.6-1.8,8.9,0.7l6.3,12c1.2,2.3-0.8,5.4-4.3,6.6l-45.6,15
			C233,164.1,229.4,158.4,234.7,154.8z"/>
	</g>
</g>
<g>
	<polygon fill="#FF0013" points="204.4,312.6 195.4,317.9 199.2,327.6 188.8,326.6 186.2,336.7 178.4,329.7 170.3,336.3 
		168.1,326.2 157.7,326.7 161.8,317.2 153.1,311.6 162,306.3 158.3,296.6 168.6,297.6 171.3,287.5 179.1,294.4 187.2,287.9 
		189.4,298 199.8,297.4 195.6,307 	"/>
	<polygon fill="none" stroke="#FFFFFF" stroke-miterlimit="10" points="204.4,312.6 195.4,317.9 199.2,327.6 188.8,326.6 
		186.2,336.7 178.4,329.7 170.3,336.3 168.1,326.2 157.7,326.7 161.8,317.2 153.1,311.6 162,306.3 158.3,296.6 168.6,297.6 
		171.3,287.5 179.1,294.4 187.2,287.9 189.4,298 199.8,297.4 195.6,307 	"/>
</g>
<g>
	<polygon fill="#FF0013" points="198.1,312.5 191.3,316.5 194.1,323.8 186.3,323 184.3,330.6 178.5,325.4 172.4,330.4 170.7,322.7 
		162.8,323.2 166,316 159.4,311.7 166.1,307.7 163.3,300.4 171.1,301.2 173.1,293.6 179,298.8 185.1,293.8 186.8,301.5 194.6,301 
		191.5,308.2 	"/>
	<polygon fill="none" stroke="#FFFFFF" stroke-miterlimit="10" points="198.1,312.5 191.3,316.5 194.1,323.8 186.3,323 184.3,330.6 
		178.5,325.4 172.4,330.4 170.7,322.7 162.8,323.2 166,316 159.4,311.7 166.1,307.7 163.3,300.4 171.1,301.2 173.1,293.6 179,298.8 
		185.1,293.8 186.8,301.5 194.6,301 191.5,308.2 	"/>
</g>
<g>
	<polygon fill="#FF0013" points="188.1,313 184.1,314.6 185,318.8 180.9,317.7 179.1,321.6 176.4,318.3 172.7,320.4 172.4,316.1 
		168.2,315.7 170.5,312.1 167.3,309.2 171.3,307.6 170.4,303.4 174.6,304.5 176.3,300.6 179,303.9 182.8,301.8 183,306.1 
		187.3,306.5 185,310.1 	"/>
	<polygon fill="none" stroke="#FFFFFF" stroke-miterlimit="10" points="188.1,313 184.1,314.6 185,318.8 180.9,317.7 179.1,321.6 
		176.4,318.3 172.7,320.4 172.4,316.1 168.2,315.7 170.5,312.1 167.3,309.2 171.3,307.6 170.4,303.4 174.6,304.5 176.3,300.6 
		179,303.9 182.8,301.8 183,306.1 187.3,306.5 185,310.1 	"/>
</g>
<g>
	
		<line fill="none" stroke="#FFFFFF" stroke-width="2" stroke-linecap="round" stroke-miterlimit="10" stroke-dasharray="0,20" x1="266.5" y1="263" x2="397" y2="263"/>
	
		<line fill="none" stroke="#FFFFFF" stroke-width="2" stroke-linecap="round" stroke-miterlimit="10" stroke-dasharray="0,20" x1="266.3" y1="282.3" x2="396.8" y2="282.3"/>
	
		<line fill="none" stroke="#FFFFFF" stroke-width="2" stroke-linecap="round" stroke-miterlimit="10" stroke-dasharray="0,20" x1="266.1" y1="301.6" x2="396.6" y2="301.6"/>
	
		<line fill="none" stroke="#FFFFFF" stroke-width="2" stroke-linecap="round" stroke-miterlimit="10" stroke-dasharray="0,20" x1="265.9" y1="320.9" x2="396.4" y2="320.9"/>
	
		<line fill="none" stroke="#FFFFFF" stroke-width="2" stroke-linecap="round" stroke-miterlimit="10" stroke-dasharray="0,20" x1="265.7" y1="340.2" x2="396.2" y2="340.2"/>
	
		<line fill="none" stroke="#FFFFFF" stroke-width="2" stroke-linecap="round" stroke-miterlimit="10" stroke-dasharray="0,20" x1="265.5" y1="359.5" x2="396" y2="359.5"/>
</g>
</svg>
