<svg xmlns="http://www.w3.org/2000/svg" viewBox="0 0 112 138.5" enable-background="new 0 0 112 138.5"><path fill="#F9F9F2" d="M25 120c0 1.5 1.3 2.8 2.8 2.8h58.1c1.5 0 2.8-1.3 2.8-2.8V32.6c0-1.5-1.3-2.8-2.8-2.8H27.8c-1.5 0-2.8 1.3-2.8 2.8V120z"/><path stroke="#232323" stroke-width="2" stroke-linecap="round" stroke-linejoin="round" stroke-miterlimit="10" d="M25 120c0 1.5 1.3 2.8 2.8 2.8h58.1c1.5 0 2.8-1.3 2.8-2.8V32.6c0-1.5-1.3-2.8-2.8-2.8H27.8c-1.5 0-2.8 1.3-2.8 2.8V120z" fill="none"/><path stroke="#232323" stroke-width="1.5" stroke-linecap="round" stroke-linejoin="round" stroke-miterlimit="10" d="M74.7 77.4h-7.9V53.5h14.8v17.2c0 3.7-3.1 6.7-6.9 6.7z" fill="none"/><path fill="#F4E9D3" stroke="#101010" stroke-width="1.5" stroke-linecap="round" stroke-linejoin="round" stroke-miterlimit="10" d="M30.9 51.2h27.9V106H30.9z"/><path fill="#E4F9ED" stroke="#232323" stroke-width="1.5" stroke-linecap="round" stroke-linejoin="round" stroke-miterlimit="10" d="M35.1 57.4h19.6v14.7H35.1z"/><path fill="#101010" d="M50.8 75.5c0 .3.3.6.6.6s.6-.3.6-.6v-.1c0-.3-.3-.6-.6-.6s-.6.3-.6.7z"/><path stroke="#232323" stroke-width="1.5" stroke-linecap="round" stroke-linejoin="round" stroke-miterlimit="10" fill="none" d="M35.1 76.5h9.8"/><path fill="#fff" d="M34.9 96c0 .3.2.6.6.6h19c.3 0 .6-.2.6-.6v-.2c0-.3-.2-.6-.6-.6h-19c-.3 0-.6.2-.6.6v.2z"/><path stroke="#232323" stroke-width="1.401" stroke-linecap="round" stroke-miterlimit="10" d="M34.9 96c0 .3.2.6.6.6h19c.3 0 .6-.2.6-.6v-.2c0-.3-.2-.6-.6-.6h-19c-.3 0-.6.2-.6.6v.2z" fill="none"/><path fill="#101010" d="M52.6 75.5c0 .3.3.6.6.6s.6-.3.6-.6v-.1c0-.3-.3-.6-.6-.6-.4 0-.6.3-.6.7zM54.4 75.5c0 .3.3.6.6.6s.6-.3.6-.6v-.1c0-.3-.3-.6-.6-.6s-.6.3-.6.7zM50.8 77.4c0 .3.3.6.6.6s.6-.3.6-.6v-.1c0-.3-.3-.6-.6-.6s-.6.3-.6.7zM52.6 77.4c0 .3.3.6.6.6s.6-.3.6-.6v-.1c0-.3-.3-.6-.6-.6s-.6.3-.6.7zM54.4 77.4c0 .3.3.6.6.6s.6-.3.6-.6v-.1c0-.3-.3-.6-.6-.6s-.6.3-.6.7zM50.8 79.3c0 .3.3.6.6.6s.6-.3.6-.6v-.1c0-.3-.3-.6-.6-.6s-.6.3-.6.7zM52.6 79.3c0 .3.3.6.6.6s.6-.3.6-.6v-.1c0-.3-.3-.6-.6-.6s-.6.3-.6.7zM54.4 79.3c0 .3.3.6.6.6s.6-.3.6-.6v-.1c0-.3-.3-.6-.6-.6s-.6.3-.6.7z"/><path stroke="#232323" stroke-width="4.872" stroke-miterlimit="10" d="M77.2 34H36.8v-2.6c0-.8 1.4-1.5 3.1-1.5h34.2c1.7 0 3.1.7 3.1 1.5V34z" fill="none"/><path stroke="#232323" stroke-width="5.95" stroke-linejoin="round" stroke-miterlimit="10" fill="none" d="M27.5 115.1h59v4.4h-59z"/><path fill="#fff" d="M41.2 30.2h-1.4v-1h4.1v1h-1.5v4.4h-1.2v-4.4zM46.7 29.2v5.4h-1.2v-5.4h1.2zM52.6 34.4c-.2.1-.7.2-1.4.2-1.9 0-2.8-1.2-2.8-2.7 0-1.8 1.3-2.9 2.9-2.9.6 0 1.1.1 1.3.2l-.2 1c-.2-.1-.6-.2-1-.2-1 0-1.7.6-1.7 1.8 0 1.1.6 1.8 1.7 1.8.4 0 .8-.1 1-.2l.2 1zM54.3 29.2h1.2v2.4c.1-.2.2-.4.4-.6l1.2-1.8h1.5l-1.8 2.3 1.9 3.1h-1.4L56 32.3l-.5.6v1.8h-1.2v-5.5zM63.4 32.3h-2v1.3h2.2v1h-3.4v-5.4h3.3v1h-2.1v1.1h2v1zM66.4 30.2H65v-1h4.1v1h-1.5v4.4h-1.2v-4.4zM70.6 33.3c.3.2.8.3 1.4.3.6 0 .9-.2.9-.6 0-.3-.3-.5-.9-.8-.9-.3-1.5-.8-1.5-1.6 0-.9.8-1.6 2-1.6.6 0 1.1.1 1.4.3l-.3 1c-.2-.1-.6-.3-1.1-.3-.5 0-.8.2-.8.5s.3.5 1 .8c1 .4 1.4.8 1.4 1.6 0 .9-.7 1.7-2.2 1.7-.6 0-1.2-.2-1.5-.3l.2-1z"/><path fill="#B3B3B3" d="M74.5 73.2h-3c-.6 0-1.1-.5-1.1-1.1v-4.3c0-.6.5-1.1 1.1-1.1h5.3c.6 0 1.1.5 1.1 1.1v2c0 1.9-1.5 3.4-3.4 3.4z"/><path stroke="#232323" stroke-width=".953" stroke-linecap="round" stroke-linejoin="round" stroke-miterlimit="10" fill="none" d="M71.9 70h4.3"/><g stroke-width="1.235" stroke-miterlimit="10" fill="none"><path stroke="#232323" d="M25 36h63.7"/><path stroke="#1E1E1E" d="M25 38.3h63.7"/><path stroke="#1A1A1A" d="M25 40.5h63.7"/><path stroke="#151515" d="M25 42.8h63.7"/><path stroke="#101010" d="M25 45.1h63.7"/></g><path fill="#232323" d="M73.9 60.8c0 .4.3.8.8.8h1.8c.4 0 .8-.3.8-.8v-2.2c0-.4-.3-.8-.8-.8h-1.8c-.4 0-.8.3-.8.8v2.2z"/><path stroke="#232323" stroke-width="2" stroke-miterlimit="10" d="M73.9 60.8c0 .4.3.8.8.8h1.8c.4 0 .8-.3.8-.8v-2.2c0-.4-.3-.8-.8-.8h-1.8c-.4 0-.8.3-.8.8v2.2z" fill="none"/><path stroke="#232323" stroke-linecap="round" stroke-linejoin="round" stroke-miterlimit="10" stroke-dasharray="0,2" fill="none" d="M71.1 57.8v5.1"/></svg>