<?xml version="1.0" encoding="utf-8"?>
<!-- Generator: Adobe Illustrator 17.1.0, SVG Export Plug-In . SVG Version: 6.00 Build 0)  -->
<!DOCTYPE svg PUBLIC "-//W3C//DTD SVG 1.1//EN" "http://www.w3.org/Graphics/SVG/1.1/DTD/svg11.dtd">
<svg version="1.1" id="Layer_1" xmlns="http://www.w3.org/2000/svg" xmlns:xlink="http://www.w3.org/1999/xlink" x="0px" y="0px"
	 viewBox="0 0 800 300" enable-background="new 0 0 800 300" xml:space="preserve">
<path fill="#FFA81D" stroke="#FFDE55" stroke-miterlimit="10" d="M326.6,299.3c0,0,5.9-46.7,5.6-85.6c-0.6-94.4-5.6-127.3-5.6-127.3
	c-3.1-51.4,33.8-76.6,75.5-76.6s73,14.3,69.7,72.5c0,0,0.4,54.2,0.4,132.7c0,18.1,8,84.3,8,84.3"/>
<path fill="#1A1A1A" d="M408.4,296.6"/>
<circle fill="#2D2D2B" cx="334.8" cy="48.3" r="4.2"/>
<path fill="#2D2D2B" d="M420.2,55.1c0.6,2.9-2,5.5-4.9,4.9c-1.7-0.3-2.9-1.7-3.4-3.4c-0.6-2.9,2-5.5,4.9-4.9
	C418.5,52.2,419.8,53.6,420.2,55.1z"/>
<g>
	<path fill="#FF4E50" d="M414.9,126c0,17.1-24.7,31-55.1,31c-30.4,0-50.7-14.2-50.7-31.3s20.2-30.9,50.7-30.9
		c28.1,0,51.2,11.8,54.7,27.1C414.7,123.3,414.9,124.6,414.9,126z"/>
	<g>
		<path fill="#FF4E50" d="M407,115.5c1.7,7.6,3.8,13.5,5.8,18c3.2-7.7,6.7-12.1,9.8-14.2C417.5,117.7,412.3,116.3,407,115.5z"/>
	</g>
	<path fill="#2D2D2B" d="M384.7,125.6c0,7.4-13.8,13.5-30.7,13.5c-17,0-28.3-6-28.3-13.5c0-7.4,11.4-13.3,28.3-13.3
		c15.6,0,28.6,5.1,30.6,11.6C384.7,124.5,384.7,125,384.7,125.6z"/>
</g>
<line fill="none" stroke="#F9F7F7" stroke-width="0.75" stroke-miterlimit="10" x1="326.5" y1="296.2" x2="326.5" y2="302.8"/>
<line fill="none" stroke="#2D2D2B" stroke-width="2" stroke-linecap="round" stroke-miterlimit="10" x1="324.4" y1="43.5" x2="345.1" y2="43.5"/>
<line fill="none" stroke="#2D2D2B" stroke-width="2" stroke-linecap="round" stroke-miterlimit="10" x1="405.6" y1="51.1" x2="426.4" y2="51.1"/>
</svg>
