<?xml version="1.0" encoding="utf-8"?>
<!-- Generator: Adobe Illustrator 17.1.0, SVG Export Plug-In . SVG Version: 6.00 Build 0)  -->
<!DOCTYPE svg PUBLIC "-//W3C//DTD SVG 1.1//EN" "http://www.w3.org/Graphics/SVG/1.1/DTD/svg11.dtd">
<svg version="1.1" id="Layer_1" xmlns="http://www.w3.org/2000/svg" xmlns:xlink="http://www.w3.org/1999/xlink" x="0px" y="0px"
	 viewBox="0 0 200 200" enable-background="new 0 0 200 200" xml:space="preserve">
<rect x="46.9" y="28.3" fill="#F7F7EB" stroke="#000000" stroke-width="2.5" stroke-linecap="round" stroke-linejoin="round" stroke-miterlimit="10" width="103.9" height="130.8"/>
<rect x="16.4" y="50.4" fill="#F7F7EB" stroke="#000000" stroke-width="2.5" stroke-linecap="round" stroke-linejoin="round" stroke-miterlimit="10" width="103.9" height="130.8"/>
<rect x="20.1" y="78.5" fill="#D6F8FC" width="95.9" height="70.1"/>
<line fill="none" stroke="#B3B3B3" stroke-miterlimit="10" x1="31.6" y1="63.6" x2="80.9" y2="63.6"/>
<line fill="none" stroke="#B3B3B3" stroke-miterlimit="10" x1="31.6" y1="71.2" x2="79.8" y2="71.2"/>
<line fill="none" stroke="#B3B3B3" stroke-miterlimit="10" x1="33.1" y1="155.8" x2="82.4" y2="155.8"/>
<line fill="none" stroke="#B3B3B3" stroke-miterlimit="10" x1="33.1" y1="163.5" x2="81.5" y2="163.5"/>
<rect x="74.7" y="43.5" transform="matrix(-0.9878 -0.1559 0.1559 -0.9878 234.7399 236.3013)" fill="#F4AEAE" stroke="#101010" stroke-width="2.5" stroke-linecap="round" stroke-linejoin="round" stroke-miterlimit="10" width="103.9" height="130.8"/>
<rect x="82.4" y="52.2" transform="matrix(-0.9878 -0.1559 0.1559 -0.9878 235.5257 235.0642)" fill="#F7F7EB" width="89.1" height="112.3"/>
<rect x="82.7" y="88.4" transform="matrix(-0.9878 -0.1559 0.1559 -0.9878 236.6058 226.4924)" width="89.1" height="31.2"/>
<g>
	<path fill="#FFFFFF" d="M107.3,93l3.5,0.4l-2.2,14.8l4.6,0.7l-0.4,2.9l-8-1.3L107.3,93z"/>
	<path fill="#FFFFFF" d="M123,95.5l-2.7,17.7l-3.5-0.4l2.7-17.7L123,95.5z"/>
	<path fill="#FFFFFF" d="M128.5,96.4l7.7,1.1l-0.4,3.1l-4.2-0.7l-0.7,4.6l4,0.7l-0.4,2.9l-4-0.7l-1.1,7.3l-3.5-0.4L128.5,96.4z"/>
	<path fill="#FFFFFF" d="M147.1,109.4l-4-0.7l-0.7,4.9l4.6,0.7l-0.4,3.1l-8-1.3l2.7-17.7l7.7,1.1l-0.4,3.1l-4.2-0.7l-0.7,4l4,0.7
		L147.1,109.4z"/>
</g>
</svg>
