<svg id="Layer_1" data-name="Layer 1" xmlns="http://www.w3.org/2000/svg" viewBox="0 0 47 67"><defs><style>.cls-1{fill:#ee77e3;}</style></defs><title>Artboard 8</title><path class="cls-1" d="M31.5,24A7.5,7.5,0,1,0,22,31.21V64.5h4V31.21A7.5,7.5,0,0,0,31.5,24Z"/><path class="cls-1" d="M2.83,32q-.22-.62-.4-1.25L12,27.94q.1.33.21.65Zm41.92-1.48-9.63-2.7q.09-.33.17-.67l9.78,2.1Q44.93,29.86,44.75,30.49ZM12.11,21,2.57,18q.19-.61.42-1.21l9.36,3.52C12.26,20.52,12.19,20.75,12.11,21Zm23.23,1.34q-.07-.35-.15-.69l9.69-2.47c.11.42.2.84.28,1.26ZM16.6,14.81l-5.8-8.14q.52-.38,1.07-.72l5.32,8.47Zm15,.85c-.17-.15-.34-.3-.52-.45L37.31,7.4q.51.41,1,.85Zm-7.7-3.07.3-10q.64,0,1.29.08l-.89,10Z"/></svg>