<svg xmlns="http://www.w3.org/2000/svg" viewBox="0 0 279 381" enable-background="new 0 0 279 381"><path fill="#fff" stroke="#333" stroke-width=".707" stroke-miterlimit="10" d="M84.2 242.3v110.4M186.9 242.4v110.3M269.8 43.1L199 127.5M69.5 147V78.1v.8c0-37.1 29.7-67.2 66.4-67.2s66.4 30.1 66.4 67.2v-.8 64.6-.7 63.7-.7c0 33.5-29.7 60.7-66.4 60.7S69.5 238.5 69.5 205v.7-62.1"/><circle cx="86.2" cy="69.5" r="10.1"/><ellipse stroke="#CC3429" stroke-width="16" stroke-miterlimit="10" cx="136.2" cy="123.1" rx="41" ry="26.6" fill="none"/><path fill="#CC3429" d="M95.1 115.9l-17.4 4.4 12.5 9.2"/><circle cx="186.9" cy="68.8" r="10.1"/><path fill="#CC3429" d="M177.7 115.4l17.1 5.4-13.1 8.4"/><path fill="#C7D400" d="M201.1 363.3c0 11.3-6.5 9.6-14.5 9.6s-14.5 1.7-14.5-9.6v-29.6c0-11.3 6.5-6.5 14.5-6.5s14.5-4.8 14.5 6.5v29.6z"/><path fill="#AEB209" d="M202.1 367.8c0 5.6-7 6.1-15.6 6.1s-15.6-.5-15.6-6.1 7-10.1 15.6-10.1 15.6 4.5 15.6 10.1z"/><path fill="#C7D400" d="M98.8 361.1c0 11.3-6.5 9.6-14.5 9.6s-14.5 1.7-14.5-9.6v-29.6c0-11.3 6.5-6.5 14.5-6.5s14.5-4.8 14.5 6.5v29.6z"/><path fill="#AEB209" d="M99.8 365.6c0 5.6-7 6.1-15.6 6.1s-15.6-.5-15.6-6.1 7-10.1 15.6-10.1 15.6 4.6 15.6 10.1z"/><path stroke="#333" stroke-width=".707" stroke-miterlimit="10" fill="none" d="M69.9 129.2L7.8 161.9l61.7 43"/></svg>