<svg id="coffeebagel" xmlns="http://www.w3.org/2000/svg" viewBox="0 0 200 200" enable-background="new 0 0 200 200"><path fill="#F7F7EB" stroke="#232323" stroke-width="3.5" stroke-linecap="round" stroke-linejoin="round" stroke-miterlimit="10" d="M78.4 185.1s-11.3 1.8-26 1.8c-14.5 0-25.6-1.8-25.6-1.8l-5.3-76.5h62.2l-5.3 76.5z"/><path fill="#232323" stroke="#232323" stroke-width="2.766" stroke-linecap="round" stroke-linejoin="round" stroke-miterlimit="10" d="M85.9 113s-12.2.9-33 .9c-21.4 0-33-.9-33-.9l2.7-4.6-2.7-1.9s11.3-1.9 33-1.9c21.9 0 33 1.9 33 1.9l-3.5 2.3c-.1-.1 3.5 4.2 3.5 4.2z"/><path stroke="#232323" stroke-width="2" stroke-linecap="round" stroke-linejoin="round" stroke-miterlimit="10" d="M34.6 105.7H22.3v-5.8l12.4-1.8v7.6z" fill="none"/><path opacity=".23" stroke="#000" stroke-width="2.061" stroke-linecap="round" stroke-linejoin="round" stroke-miterlimit="10" enable-background="new" d="M17.5 99.2c-1.2-4.6 2.1-5.5.9-10.1-1.2-4.6-4.8-3.5-6.2-8.1-1.2-4.6 2.1-5.5.9-10.1-1.2-4.6-4.8-3.5-6.2-8.1" fill="none"/><path fill="#fff" d="M158.5 147.8c0-3.9-1.9-7.6-4.6-10.1s-6.4-3.7-10.2-3.7c-3.9 0-7.2 1.8-9.7 4.2-2.7 2.5-4.2 5.7-4.2 9.5s1.4 7.2 4.1 9.7 6 3.9 9.9 3.9 7.6-1.2 10.1-3.7c2.5-2.4 4.6-5.9 4.6-9.8z"/><path stroke="#000" stroke-width="1.276" stroke-linecap="round" stroke-linejoin="round" stroke-miterlimit="10" d="M158.5 147.8c0-3.9-1.9-7.6-4.6-10.1s-6.4-3.7-10.2-3.7c-3.9 0-7.2 1.8-9.7 4.2-2.7 2.5-4.2 5.7-4.2 9.5s1.4 7.2 4.1 9.7 6 3.9 9.9 3.9 7.6-1.2 10.1-3.7c2.5-2.4 4.6-5.9 4.6-9.8z" fill="none"/><path fill="#fff" d="M186.4 144.8c0-3.4 1.4-6.7.7-9.7-.7-3.2-2.1-6.2-3.7-9-1.4-2.8-4.2-4.9-6.4-7.4-2.1-2.5-3.5-5.7-6-7.6s-6-2.3-9-3.5c-2.8-1.2-5.7-2.3-8.8-3-3-.7-6-1.1-9.4-1.1-3.4 0-6.7-1.2-9.7-.5-3.2.7-5.7 3.5-8.5 4.8-3 1.4-6 2.1-8.7 4.1-2.5 1.9-4.2 4.6-6.4 7.1-2.1 2.5-4.8 4.4-6.2 7.2-1.4 2.8-1.4 6.2-2.3 9.4-.7 3-1.8 6-1.8 9.4s.5 6.4 1.2 9.5c.7 3.2 1.8 6.2 3.2 9 1.4 2.8 3.2 5.7 5.1 8.1 2.1 2.5 4.2 4.9 6.7 6.9 2.5 1.9 5.5 3.4 8.5 4.8 2.8 1.2 6.2 1.6 9.4 2.3 3 .7 6.2 1.9 9.4 1.9 3.4 0 6.5-.5 9.5-1.1 3.2-.7 6.2-1.8 9.2-3.2 3-1.4 5.8-3 8.3-4.9 2.5-1.9 3.9-4.9 6-7.4s3.7-4.9 5.1-7.8c1.4-2.8 3.4-5.5 4.1-8.7.8-3.1.5-6.3.5-9.6z"/><path stroke="#232323" stroke-width="2" stroke-linecap="round" stroke-linejoin="round" stroke-miterlimit="10" d="M186.4 144.8c0-3.4 1.4-6.7.7-9.7-.7-3.2-2.1-6.2-3.7-9-1.4-2.8-4.2-4.9-6.4-7.4-2.1-2.5-3.5-5.7-6-7.6s-6-2.3-9-3.5c-2.8-1.2-5.7-2.3-8.8-3-3-.7-6-1.1-9.4-1.1-3.4 0-6.7-1.2-9.7-.5-3.2.7-5.7 3.5-8.5 4.8-3 1.4-6 2.1-8.7 4.1-2.5 1.9-4.2 4.6-6.4 7.1-2.1 2.5-4.8 4.4-6.2 7.2-1.4 2.8-1.4 6.2-2.3 9.4-.7 3-1.8 6-1.8 9.4s.5 6.4 1.2 9.5c.7 3.2 1.8 6.2 3.2 9 1.4 2.8 3.2 5.7 5.1 8.1 2.1 2.5 4.2 4.9 6.7 6.9 2.5 1.9 5.5 3.4 8.5 4.8 2.8 1.2 6.2 1.6 9.4 2.3 3 .7 6.2 1.9 9.4 1.9 3.4 0 6.5-.5 9.5-1.1 3.2-.7 6.2-1.8 9.2-3.2 3-1.4 5.8-3 8.3-4.9 2.5-1.9 3.9-4.9 6-7.4s3.7-4.9 5.1-7.8c1.4-2.8 3.4-5.5 4.1-8.7.8-3.1.5-6.3.5-9.6z" fill="none"/><path fill="#E2D6B3" d="M181.4 145.5c0-3.2.2-6.4-.5-9.4s-2.1-5.8-3.4-8.7c-1.4-2.8-3.4-5.1-5.3-7.4-1.9-2.5-3.5-5.3-5.8-7.2-2.5-1.9-5.1-3.5-8-4.8-2.8-1.4-5.7-3-8.7-3.5-3-.7-6.2 0-9.4 0s-6.4-.5-9.4.2-5.7 2.7-8.5 3.9c-2.8 1.4-5.7 2.5-8.1 4.4-2.5 1.9-3.9 4.8-5.8 7.2-1.9 2.5-3.7 4.8-5.1 7.6-1.4 2.8-2.3 5.7-2.8 8.7-.7 3-.5 6-.5 9 0 3.2-.7 6.4-.2 9.2.7 3 1.4 6.2 2.8 8.8 1.4 2.8 3 5.7 4.9 8 1.9 2.5 4.9 3.7 7.4 5.7 2.5 1.9 4.4 4.6 7.2 6 2.8 1.4 5.7 2.7 8.8 3.4 3 .7 6.2-.7 9.4-.7s6.2 0 9-.7c3-.7 6.2-1.1 9-2.3 2.8-1.4 4.8-3.9 7.2-5.8s4.4-4.1 6.4-6.4c1.9-2.5 3.9-4.8 5.1-7.4 1.4-2.8 3.5-5.3 4.2-8.3.7-3.2.1-6.3.1-9.5z"/><path stroke="#232323" stroke-width="3.5" stroke-linecap="round" stroke-linejoin="round" stroke-miterlimit="10" d="M181.4 145.5c0-3.2.2-6.4-.5-9.4s-2.1-5.8-3.4-8.7c-1.4-2.8-3.4-5.1-5.3-7.4-1.9-2.5-3.5-5.3-5.8-7.2-2.5-1.9-5.1-3.5-8-4.8-2.8-1.4-5.7-3-8.7-3.5-3-.7-6.2 0-9.4 0s-6.4-.5-9.4.2-5.7 2.7-8.5 3.9c-2.8 1.4-5.7 2.5-8.1 4.4-2.5 1.9-3.9 4.8-5.8 7.2-1.9 2.5-3.7 4.8-5.1 7.6-1.4 2.8-2.3 5.7-2.8 8.7-.7 3-.5 6-.5 9 0 3.2-.7 6.4-.2 9.2.7 3 1.4 6.2 2.8 8.8 1.4 2.8 3 5.7 4.9 8 1.9 2.5 4.9 3.7 7.4 5.7 2.5 1.9 4.4 4.6 7.2 6 2.8 1.4 5.7 2.7 8.8 3.4 3 .7 6.2-.7 9.4-.7s6.2 0 9-.7c3-.7 6.2-1.1 9-2.3 2.8-1.4 4.8-3.9 7.2-5.8s4.4-4.1 6.4-6.4c1.9-2.5 3.9-4.8 5.1-7.4 1.4-2.8 3.5-5.3 4.2-8.3.7-3.2.1-6.3.1-9.5z" fill="none"/><path fill="#fff" d="M154.2 145.1c0-3.9-1.6-6.9-4.2-9.4-2.7-2.5-5.7-4.1-9.5-4.1s-7.6 1.1-10.2 3.4c-2.7 2.5-4.4 6.2-4.4 10.1s1.8 7.4 4.4 10.1c2.7 2.5 6.2 4.8 10.2 4.8 4.1 0 7.2-2.7 9.9-5.1 2.4-2.5 3.8-5.9 3.8-9.8z"/><path stroke="#232323" stroke-width="3.5" stroke-linecap="round" stroke-linejoin="round" stroke-miterlimit="10" d="M154.2 145.1c0-3.9-1.6-6.9-4.2-9.4-2.7-2.5-5.7-4.1-9.5-4.1s-7.6 1.1-10.2 3.4c-2.7 2.5-4.4 6.2-4.4 10.1s1.8 7.4 4.4 10.1c2.7 2.5 6.2 4.8 10.2 4.8 4.1 0 7.2-2.7 9.9-5.1 2.4-2.5 3.8-5.9 3.8-9.8z" fill="none"/><ellipse stroke="#262626" stroke-width="1.067" stroke-linecap="round" stroke-linejoin="round" stroke-dasharray="0.7803,4.6818" cx="139.2" cy="145.1" rx="32.9" ry="31.6" fill="none"/><ellipse stroke="#262626" stroke-width="1.188" stroke-linecap="round" stroke-linejoin="round" stroke-dasharray="0.5993,3.5957" cx="139.2" cy="145.8" rx="25.1" ry="24.4" fill="none"/><path fill="#fff" d="M153 137.7c0 1.2-.9 2.5-1.2 3.7-.2 1.2-.5 2.5-.9 3.7-.4 1.2-1.2 2.1-1.8 3.4-.5 1.2-.4 2.7-.9 3.7-.7 1.2-1.9 1.8-2.7 2.8-.7 1.2-.9 2.7-1.6 3.5"/><path stroke="#232323" stroke-width="2" stroke-linecap="round" stroke-linejoin="round" stroke-miterlimit="10" d="M153 137.7c0 1.2-.9 2.5-1.2 3.7-.2 1.2-.5 2.5-.9 3.7-.4 1.2-1.2 2.1-1.8 3.4-.5 1.2-.4 2.7-.9 3.7-.7 1.2-1.9 1.8-2.7 2.8-.7 1.2-.9 2.7-1.6 3.5" fill="none"/><path stroke="#66CCD3" stroke-width="1.5" stroke-linecap="round" stroke-linejoin="round" stroke-miterlimit="10" d="M26.4 134.1c17.3 1.6 34.7 1.6 52.1 0m-51.6 7.3c17 1.5 34.1 1.5 51.1 0m-50.4 7.4c16.9 1.4 33.9 1.3 50.8-.1m-50.9 7.6c16.7 1.3 33.5 1.3 50.3 0" fill="none"/><path stroke="#232323" stroke-width="2.766" stroke-linecap="round" stroke-linejoin="round" stroke-miterlimit="10" d="M19.3 108.7" fill="none"/></svg>