<svg id="radio" xmlns="http://www.w3.org/2000/svg" viewBox="0 0 109.2 93.2" enable-background="new 0 0 109.2 93.2"><path fill="#F7F7EB" stroke="#000" stroke-width="2" stroke-linecap="round" stroke-linejoin="round" stroke-miterlimit="10" d="M106 87.2c0 1.7-1.2 3-2.8 3H14.1c-1.5 0-2.8-1.3-2.8-3V47.8c0-1.7 1.2-3 2.8-3h89.1c1.5 0 2.8 1.3 2.8 3v39.4z"/><path opacity=".5" fill="#BDE0D6" d="M75.8 60.3c0 1-1.1 1.8-2.5 1.8H23.7c-1.4 0-2.5-.8-2.5-1.8v-4.9c0-1 1.1-1.8 2.5-1.8h49.6c1.4 0 2.5.8 2.5 1.8v4.9z"/><g stroke="#000" stroke-width="1.5" stroke-linecap="round" stroke-linejoin="round" stroke-miterlimit="10" fill="none"><path d="M84.9 55.2H106M84.9 59.9H106M84.9 64.6H106M84.9 69.4H106M84.9 74.1H106M84.9 78.8H106"/></g><path d="M29.7 73.2c1.4 0 2.5 1.1 2.5 2.5s-1.1 2.5-2.5 2.5-2.5-1.1-2.5-2.5 1.1-2.5 2.5-2.5m0-4c-3.6 0-6.5 2.9-6.5 6.5s2.9 6.5 6.5 6.5 6.5-2.9 6.5-6.5c-.1-3.7-3-6.5-6.5-6.5z"/><path fill="#fff" stroke="#000" stroke-width="2" stroke-miterlimit="10" d="M17.3 17.5v27.3"/><circle cx="17.3" cy="14.9" r="3.5"/><g stroke="#000" stroke-linecap="round" stroke-linejoin="round" fill="none"><path d="M73.6 58.5h-.3"/><path stroke-dasharray="0.5083,4.0662" d="M69.3 58.5H25.6"/><path d="M23.5 58.5h-.2"/></g><path d="M38.1 61.8h-2v-6.3c0-.5.4-1 1-1 .5 0 1 .4 1 1v6.3zM51.1 73.2c1.4 0 2.5 1.1 2.5 2.5s-1.1 2.5-2.5 2.5-2.5-1.1-2.5-2.5c.1-1.4 1.2-2.5 2.5-2.5m0-4c-3.6 0-6.5 2.9-6.5 6.5s2.9 6.5 6.5 6.5 6.5-2.9 6.5-6.5c0-3.7-2.9-6.5-6.5-6.5z"/><circle stroke="#000" stroke-width="1.5" stroke-miterlimit="10" cx="17.3" cy="14.9" r="7.4" fill="none"/><circle stroke="#000" stroke-width="1.5" stroke-miterlimit="10" cx="17.3" cy="14.9" r="11.5" fill="none"/></svg>