<?xml version="1.0" encoding="utf-8"?>
<!-- Generator: Adobe Illustrator 17.1.0, SVG Export Plug-In . SVG Version: 6.00 Build 0)  -->
<!DOCTYPE svg PUBLIC "-//W3C//DTD SVG 1.1//EN" "http://www.w3.org/Graphics/SVG/1.1/DTD/svg11.dtd">
<svg version="1.1" id="Layer_1" xmlns="http://www.w3.org/2000/svg" xmlns:xlink="http://www.w3.org/1999/xlink" x="0px" y="0px"
	 viewBox="0 0 112 138.5" enable-background="new 0 0 112 138.5" xml:space="preserve">
<path fill="#F9F9F2" stroke="#232323" stroke-width="2" stroke-linecap="round" stroke-linejoin="round" stroke-miterlimit="10" d="
	M109.1,125.1c0,1.7-1.2,3-2.8,3H17.2c-1.5,0-2.8-1.3-2.8-3V85.7c0-1.7,1.2-3,2.8-3h89.1c1.5,0,2.8,1.3,2.8,3V125.1z"/>
<path opacity="0.5" fill="#C1E5DB" d="M78.9,98.2c0,1-1.1,1.8-2.5,1.8H26.8c-1.4,0-2.5-0.8-2.5-1.8v-4.9c0-1,1.1-1.8,2.5-1.8h49.6
	c1.4,0,2.5,0.8,2.5,1.8V98.2z"/>
<g>
	
		<line fill="none" stroke="#232323" stroke-width="2" stroke-linecap="round" stroke-linejoin="round" stroke-miterlimit="10" x1="88" y1="93.1" x2="109.1" y2="93.1"/>
	
		<line fill="none" stroke="#232323" stroke-width="2" stroke-linecap="round" stroke-linejoin="round" stroke-miterlimit="10" x1="88" y1="97.8" x2="109.1" y2="97.8"/>
	
		<line fill="none" stroke="#232323" stroke-width="2" stroke-linecap="round" stroke-linejoin="round" stroke-miterlimit="10" x1="88" y1="102.5" x2="109.1" y2="102.5"/>
	
		<line fill="none" stroke="#232323" stroke-width="2" stroke-linecap="round" stroke-linejoin="round" stroke-miterlimit="10" x1="88" y1="107.3" x2="109.1" y2="107.3"/>
	
		<line fill="none" stroke="#232323" stroke-width="2" stroke-linecap="round" stroke-linejoin="round" stroke-miterlimit="10" x1="88" y1="112" x2="109.1" y2="112"/>
	
		<line fill="none" stroke="#232323" stroke-width="2" stroke-linecap="round" stroke-linejoin="round" stroke-miterlimit="10" x1="88" y1="116.7" x2="109.1" y2="116.7"/>
</g>
<line fill="#FFFFFF" stroke="#000000" stroke-width="2" stroke-miterlimit="10" x1="20.5" y1="55.4" x2="20.5" y2="82.7"/>
<circle fill="#232323" stroke="#232323" stroke-width="1.936" stroke-miterlimit="10" cx="20.2" cy="52.5" r="2.3"/>
<g>
	<g>
		<line fill="none" stroke="#000000" stroke-linecap="round" stroke-linejoin="round" x1="76.7" y1="96.4" x2="76.5" y2="96.4"/>
		
			<line fill="none" stroke="#000000" stroke-linecap="round" stroke-linejoin="round" stroke-dasharray="0.5083,4.0662" x1="72.4" y1="96.4" x2="28.7" y2="96.4"/>
		<line fill="none" stroke="#000000" stroke-linecap="round" stroke-linejoin="round" x1="26.7" y1="96.4" x2="26.4" y2="96.4"/>
	</g>
</g>
<line fill="none" stroke="#232323" stroke-width="2" stroke-miterlimit="10" x1="39.8" y1="92.4" x2="39.8" y2="99.7"/>
<g>
	<g>
		<path fill="#232323" d="M15.1,59.8C15.1,59.8,15.1,59.8,15.1,59.8c-4.3-0.2-7.7-3.9-7.4-8.3c0.2-4.4,3.9-7.7,8.2-7.5
			c0.6,0,1,0.5,1,1c0,0.6-0.5,1-1,1c-3.2-0.2-5.9,2.4-6.1,5.6c-0.2,3.3,2.3,6,5.5,6.2c0.6,0,1,0.5,1,1
			C16.1,59.4,15.7,59.8,15.1,59.8z"/>
	</g>
</g>
<g>
	<g>
		<path fill="#232323" d="M14.8,65.5C14.7,65.5,14.7,65.5,14.8,65.5C11,65.3,7.6,63.7,5.2,61c-2.5-2.7-3.7-6.3-3.5-10
			c0.2-3.7,1.8-7.1,4.6-9.5c2.7-2.5,6.3-3.7,10-3.5c0.6,0,1,0.5,0.9,1.1c0,0.6-0.5,1-1.1,0.9c-3.2-0.2-6.2,0.9-8.5,3
			c-2.3,2.1-3.7,5-3.9,8.2c-0.2,3.1,0.9,6.2,3,8.5c2.1,2.3,5,3.7,8.2,3.9c0.6,0,1,0.5,0.9,1.1C15.7,65.1,15.3,65.5,14.8,65.5z"/>
	</g>
</g>
<circle fill="#FFFFFF" stroke="#232323" stroke-width="4" stroke-miterlimit="10" cx="30.8" cy="113.5" r="4.4"/>
<circle fill="#FFFFFF" stroke="#232323" stroke-width="4" stroke-miterlimit="10" cx="47.4" cy="113.5" r="4.4"/>
</svg>
