<?xml version="1.0" encoding="utf-8"?>
<!-- Generator: Adobe Illustrator 17.1.0, SVG Export Plug-In . SVG Version: 6.00 Build 0)  -->
<!DOCTYPE svg PUBLIC "-//W3C//DTD SVG 1.1//EN" "http://www.w3.org/Graphics/SVG/1.1/DTD/svg11.dtd">
<svg version="1.1" id="Layer_1" xmlns="http://www.w3.org/2000/svg" xmlns:xlink="http://www.w3.org/1999/xlink" x="0px" y="0px"
	 viewBox="0 0 500 500" enable-background="new 0 0 500 500" xml:space="preserve">
<g>
	<path fill="#E8DB61" d="M174.5,460.9c1.6-0.8-74.2-31.1-77.4-30.9c3.2-0.2,3.2-0.2,0,0c3.2-0.2,3.2-40.4,0-41.1
		c3.2,0.7,3.2,0.7,0,0c3.2,0.7,215.3-4.8,216.4-5.5c-1.1,0.8,101.4,15.4,104.6,14.9"/>
	<path fill="none" stroke="#FFFFFF" stroke-width="4.0806" stroke-miterlimit="10" d="M174.5,460.9c1.6-0.8-74.2-31.1-77.4-30.9
		c3.2-0.2,3.2-0.2,0,0c3.2-0.2,3.2-40.4,0-41.1c3.2,0.7,3.2,0.7,0,0c3.2,0.7,215.3-4.8,216.4-5.5c-1.1,0.8,101.4,15.4,104.6,14.9"/>
</g>
<path fill="none" stroke="#231F20" stroke-width="2.0403" stroke-miterlimit="10" d="M84.3,298.7"/>
<ellipse fill="#404041" cx="264.6" cy="389.6" rx="107.9" ry="8.8"/>
<path fill="none" stroke="#231F20" stroke-width="2.0403" stroke-miterlimit="10" d="M381.2,324.2"/>
<path fill="none" stroke="#231F20" stroke-width="2.0403" stroke-miterlimit="10" d="M234.3,124.3"/>
<path fill="none" stroke="#231F20" stroke-width="2.0403" stroke-miterlimit="10" d="M352.6,310"/>
<path fill="none" stroke="#231F20" stroke-width="2.0403" stroke-miterlimit="10" d="M154.7,240.6"/>
<path fill="none" d="M365,295.4c-33-39-76.9-109.9-98.4-183.1"/>
<path fill="none" d="M84.3,298.7c73.1-54.8,278.1,34.3,302.1,43.7c1.4,0.6,9.2-13,9.2-13"/>
<path fill="none" stroke="#231F20" stroke-width="2.0403" stroke-linejoin="round" stroke-miterlimit="10" d="M393.9,328.3"/>
<path fill="none" stroke="#231F20" stroke-width="2.0403" stroke-linejoin="round" stroke-miterlimit="10" d="M395.6,329.4
	c0,0,0,0-0.1-0.1"/>
<path fill="none" stroke="#231F20" stroke-width="2.0403" stroke-linejoin="round" stroke-miterlimit="10" d="M389.9,336"/>
<g>
	<g>
		<g>
			<path fill="none" stroke="#231F20" stroke-width="2.0403" stroke-miterlimit="10" d="M308.7,123.3c0.9,2.1-1.4,114.2,91.3,210.3"
				/>
		</g>
		<g>
			<path fill="none" stroke="#231F20" stroke-width="2.0403" stroke-miterlimit="10" d="M299.8,134.9c1,2,5.3,105.8,99.8,199.4"/>
		</g>
		<g>
			<path fill="none" stroke="#231F20" stroke-width="2.0403" stroke-miterlimit="10" d="M290.9,146.6c1.1,1.9,12.1,97.5,108.2,188.5
				"/>
		</g>
		<g>
			<path fill="none" stroke="#231F20" stroke-width="2.0403" stroke-miterlimit="10" d="M282,158.2c1.2,1.8,18.9,89.2,116.7,177.6"
				/>
		</g>
		<g>
			<path fill="none" stroke="#231F20" stroke-width="2.0403" stroke-miterlimit="10" d="M273.1,169.9c1.2,1.7,25.6,80.8,125.2,166.7
				"/>
		</g>
		<g>
			<path fill="none" stroke="#231F20" stroke-width="2.0403" stroke-miterlimit="10" d="M264.2,181.5c1.3,1.5,32.4,72.5,133.6,155.8
				"/>
		</g>
		<g>
			<path fill="none" stroke="#231F20" stroke-width="2.0403" stroke-miterlimit="10" d="M255.4,193.2c1.4,1.4,39.1,64.2,142.1,145"
				/>
		</g>
		<g>
			<path fill="none" stroke="#231F20" stroke-width="2.0403" stroke-miterlimit="10" d="M246.5,204.9c1.5,1.3,45.9,55.9,150.6,134.1
				"/>
		</g>
		<g>
			<path fill="none" stroke="#231F20" stroke-width="2.0403" stroke-miterlimit="10" d="M237.6,216.5c1.6,1.2,52.7,47.5,159,123.2"
				/>
		</g>
		<g>
			<path fill="none" stroke="#231F20" stroke-width="2.0403" stroke-miterlimit="10" d="M228.7,228.2c1.7,1.1,59.4,39.2,167.5,112.3
				"/>
		</g>
		<g>
			<path fill="none" stroke="#231F20" stroke-width="2.0403" stroke-miterlimit="10" d="M219.8,239.8c1.7,1,66.2,30.9,176,101.4"/>
		</g>
		<g>
			<path fill="none" stroke="#231F20" stroke-width="2.0403" stroke-miterlimit="10" d="M210.9,251.5c1.8,0.9,73,22.5,184.4,90.5"/>
		</g>
		<g>
			<path fill="none" stroke="#231F20" stroke-width="2.0403" stroke-miterlimit="10" d="M202.1,263.2c1.9,0.8,79.7,14.2,192.9,79.7"
				/>
		</g>
		<g>
			<path fill="none" stroke="#231F20" stroke-width="2.0403" stroke-miterlimit="10" d="M193.2,274.8c2,0.7,86.5,5.9,201.4,68.8"/>
		</g>
		<g>
			<path fill="none" stroke="#231F20" stroke-width="2.0403" stroke-miterlimit="10" d="M184.3,286.5c2.1,0.6,93.2-2.4,209.8,57.9"
				/>
		</g>
		<g>
			<path fill="none" stroke="#231F20" stroke-width="2.0403" stroke-miterlimit="10" d="M175.4,298.1c2.2,0.5,100-10.8,218.3,47"/>
		</g>
		<g>
			<path fill="none" stroke="#231F20" stroke-width="2.0403" stroke-miterlimit="10" d="M166.5,309.8c2.2,0.3,106.8-19.1,226.8,36.1
				"/>
		</g>
	</g>
</g>
<path fill="#404041" stroke="#404041" stroke-width="2.0403" stroke-linejoin="round" stroke-miterlimit="10" d="M385.9,342.2
	c3.2,1,9.4,7.3,10,9.6c1.3,4.6,0.2,11.9-6.1,12.2c-30.1,1.6-69.9-2.2-69.9-2.2l4.8,6.2c0,0,69.2,12.9,80.8,2.7
	c3.7-3.3,6.2-9.7,6.5-13.3c0.2-3.2,0.7-6.4-2.6-12.4c-0.8-1.4-14-16.2-15.2-17.2C393.4,327.3,385.2,342,385.9,342.2z"/>
<ellipse fill="#FFFFFF" cx="267.3" cy="389.2" rx="20.7" ry="1.9"/>
<g>
	<path fill="#E8DB61" d="M174.4,460.6c1.7-0.7,240.9-18.4,244.1-18c-3.2-0.4-4-0.4-0.9,0c-3.2-0.4-3.2-45.1,0-45.7
		c-3.2,0.5-241.6,9.1-243.2,8.7c1.7,0.4-74.1-17.4-77.3-18.1"/>
	<path fill="none" stroke="#FFFFFF" stroke-width="4.0806" stroke-miterlimit="10" d="M174.4,460.6c1.7-0.7,240.9-18.4,244.1-18
		c-3.2-0.4-4-0.4-0.9,0c-3.2-0.4-3.2-45.1,0-45.7c-3.2,0.5-241.6,9.1-243.2,8.7c1.7,0.4-74.1-17.4-77.3-18.1"/>
</g>
<path fill="#404041" stroke="#404041" stroke-width="2.0403" stroke-linecap="round" stroke-linejoin="round" stroke-miterlimit="10" d="
	M320.6,377.2c-2.2-6.5-5.5-17.2-2.1-18.3c1.8-0.6,8.1,3.2,8.1,3.2l-3,7.1L320.6,377.2"/>
<polyline fill="#404041" stroke="#404041" stroke-width="2.0403" stroke-linecap="round" stroke-linejoin="round" stroke-miterlimit="10" points="
	399,366.5 399.5,375.6 396.9,397.7 413.7,400.8 412,353.9 "/>
<g>
	<path fill="none" stroke="#FFFFFF" stroke-width="4.0806" stroke-miterlimit="10" d="M175.2,404.5c0,0.5,0,54.8,0,55.4"/>
</g>
<g>
	<path fill="#E8DB61" d="M295.4,262.7c-51.1,73.7-123.5,112.9-164.9,89.3c-37.8-29.1-29.5-110.9,18.7-186.6
		c51.1-73.7,123.5-112.9,164.9-89.3C351.9,105.2,343.7,187.1,295.4,262.7z"/>
	<path fill="none" stroke="#FFFFFF" stroke-width="4.0806" stroke-miterlimit="10" d="M295.4,262.7
		c-51.1,73.7-123.5,112.9-164.9,89.3c-37.8-29.1-29.5-110.9,18.7-186.6c51.1-73.7,123.5-112.9,164.9-89.3
		C351.9,105.2,343.7,187.1,295.4,262.7z"/>
</g>
<ellipse transform="matrix(0.8159 0.5782 -0.5782 0.8159 171.4585 -88.3)" fill="#231F20" cx="224.4" cy="225.1" rx="28.6" ry="65.5"/>
<path fill="none" stroke="#231F20" stroke-width="2.0403" stroke-miterlimit="10" d="M324.1,97.8"/>
<path fill="none" stroke="#231F20" stroke-width="2.0403" stroke-miterlimit="10" d="M295.5,83.5"/>
</svg>
