<?xml version="1.0" encoding="utf-8"?>
<!-- Generator: Adobe Illustrator 17.1.0, SVG Export Plug-In . SVG Version: 6.00 Build 0)  -->
<!DOCTYPE svg PUBLIC "-//W3C//DTD SVG 1.1//EN" "http://www.w3.org/Graphics/SVG/1.1/DTD/svg11.dtd">
<svg version="1.1" id="Layer_1" xmlns="http://www.w3.org/2000/svg" xmlns:xlink="http://www.w3.org/1999/xlink" x="0px" y="0px"
	 viewBox="0 0 500 500" enable-background="new 0 0 500 500" xml:space="preserve">
<polyline fill="none" stroke="#000000" stroke-width="2.867" stroke-linecap="round" stroke-miterlimit="10" points="325.8,230.4 
	342.5,246.2 356.3,264.9 374.7,280 389.4,273.8 403.2,265.3 "/>
<line fill="none" stroke="#000000" stroke-width="2.867" stroke-linecap="round" stroke-miterlimit="10" x1="375.8" y1="279.8" x2="375.1" y2="258.3"/>
<line fill="none" stroke="#000000" stroke-width="2.867" stroke-linecap="round" stroke-miterlimit="10" x1="375.4" y1="280.3" x2="389.2" y2="293.4"/>
<g>
	
		<image overflow="visible" opacity="0.75" width="247" height="242" xlink:href="582FDA29DA2F634A.png"  transform="matrix(1 0 0 1 133 263)">
	</image>
	<g>
		<g>
			<g>
				<path fill="#F5FCFC" stroke="#DEFFF5" stroke-width="3" stroke-miterlimit="10" d="M365.8,384.6c0,8.1-1.6,16-3.3,23.6
					c-1.8,7.9-2.5,16.3-5.9,23.4c-3.5,7.2-9.1,13.4-14.1,19.6s-11.5,11-17.7,16s-12.8,9.2-20,12.7c-7.1,3.4-14,8.1-21.9,9.8
					c-7.6,1.7-15.9,0.6-24,0.6s-16.1,0-23.7-1.8c-7.9-1.8-15.9-3.5-23-7c-7.2-3.5-12.4-10.1-18.6-15.1c-6.2-5-13.9-8.6-18.9-14.8
					c-5-6.2-9.4-13.2-12.9-20.4c-3.4-7.1-4.4-15.3-6.2-23.2c-1.7-7.6-1.8-15.4-1.8-23.6c0-8.1-1.6-16.3,0.1-24
					c1.8-7.9,4.1-15.9,7.5-23c3.5-7.2,8.1-14.2,13-20.4c5-6.2,11.3-11.6,17.5-16.6s14.1-7.4,21.3-10.8c7.1-3.4,13.7-8.7,21.6-10.5
					c7.6-1.7,15.9-1.8,24-1.8s16.1,1.4,23.8,3.1c7.9,1.8,15.7,4,22.8,7.4c7.2,3.5,14,8,20.2,13s13.2,9.8,18.1,16
					c5,6.2,5.8,15.1,9.2,22.4c3.4,7.1,7.4,13.9,9.2,21.7C363.9,368.6,365.8,376.4,365.8,384.6z"/>
			</g>
			<defs>
				<filter id="Adobe_OpacityMaskFilter" filterUnits="userSpaceOnUse" x="145.6" y="280.1" width="204.9" height="206">
					<feColorMatrix  type="matrix" values="1 0 0 0 0  0 1 0 0 0  0 0 1 0 0  0 0 0 1 0"/>
				</filter>
			</defs>
			<mask maskUnits="userSpaceOnUse" x="145.6" y="280.1" width="204.9" height="206" id="SVGID_19_">
				<g filter="url(#Adobe_OpacityMaskFilter)">
					
						<image overflow="visible" enable-background="new    " width="335" height="335" xlink:href="582FDA29DA2F634A.jpg"  transform="matrix(0.656 0 0 0.6583 138.4094 272.817)">
					</image>
				</g>
			</mask>
			<g opacity="0.39" mask="url(#SVGID_19_)">
				<path fill="none" stroke="#C5DDDB" stroke-width="0.9608" stroke-miterlimit="10" d="M350,383.6c0,7.8-1.5,15.4-3.2,22.7
					c-1.7,7.6-2.4,15.7-5.7,22.5c-3.4,6.9-8.7,12.9-13.5,18.9s-11,10.6-17,15.4c-5.9,4.8-12.3,8.9-19.2,12.2
					c-6.8,3.3-13.4,7.8-21,9.4c-7.3,1.6-15.2,0.6-23,0.6s-15.4,0-22.7-1.7c-7.6-1.7-15.2-3.4-22.1-6.7c-6.9-3.4-11.9-9.7-17.8-14.5
					c-5.9-4.8-13.3-8.3-18.1-14.2s-9-12.7-12.4-19.6c-3.3-6.8-4.2-14.7-5.9-22.3c-1.6-7.3-1.7-14.8-1.7-22.7
					c0-7.8-1.5-15.7,0.1-23.1c1.7-7.6,3.9-15.3,7.2-22.1c3.4-6.9,7.8-13.7,12.5-19.6c4.8-6,10.8-11.2,16.8-16
					c5.9-4.8,13.5-7.1,20.4-10.4c6.8-3.3,13.1-8.4,20.7-10.1c7.3-1.6,15.2-1.7,23-1.7s15.4,1.3,22.8,3c7.6,1.7,15.1,3.9,21.9,7.1
					c6.9,3.4,13.4,7.7,19.4,12.5c5.9,4.8,12.7,9.4,17.4,15.4c4.8,6,5.6,14.5,8.8,21.6c3.3,6.8,7.1,13.4,8.8,20.9
					C348.2,368.2,350,375.7,350,383.6z"/>
			</g>
		</g>
	</g>
</g>
<g>
	
		<image overflow="visible" opacity="0.75" width="194" height="194" xlink:href="582FDA29DA2F634E.png"  transform="matrix(1 0 0 1 147 152)">
	</image>
	<g>
		<g>
			<g>
				<path fill="#F5FCFC" stroke="#DEFFF5" stroke-width="3" stroke-miterlimit="10" d="M326.7,248.6c0,7.4-1.5,14.4-3.3,21.2
					c-1.9,7-3.2,14.4-6.8,20.6c-3.6,6.2-9,11.5-14.1,16.5c-5.1,5.1-11.3,8.7-17.6,12.3c-6.2,3.6-12.6,6.4-19.7,8.2
					c-6.8,1.8-13.8,4.4-21.1,4.4c-7.4,0-14.4-2.5-21.1-4.3c-7-1.9-13.9-4-20-7.6c-6.2-3.6-12.6-7.5-17.6-12.5
					c-5.1-5.1-7.7-12.1-11.3-18.3c-3.6-6.2-8.4-11.9-10.3-18.9c-1.8-6.8-2.8-14.2-2.8-21.5c0-7.4,2.4-14.4,4.2-21.2
					c1.9-7,5.2-13.2,8.8-19.4s6.5-13.1,11.5-18.2c5.1-5.1,10.8-10,17-13.6s13.1-6.4,20.2-8.3c6.8-1.8,14.2-2.3,21.6-2.3
					c7.4,0,14.2,2.6,21,4.4c7,1.9,14.5,2.7,20.7,6.2c6.2,3.6,11.7,8.7,16.8,13.7c5.1,5.1,9.2,11.1,12.9,17.3
					c3.6,6.2,6.7,12.7,8.6,19.8C326,233.9,326.7,241.2,326.7,248.6z"/>
				<path fill="#F5FCFC" stroke="#DEFFF5" stroke-width="3" stroke-miterlimit="10" d="M326.9,248.6c0,7.4-1.5,14.4-3.3,21.2
					c-1.9,7-3.2,14.4-6.8,20.6c-3.6,6.2-9,11.5-14.1,16.5c-5.1,5.1-11.3,8.7-17.6,12.3c-6.2,3.6-12.6,6.4-19.7,8.2
					c-6.8,1.8-13.8,4.4-21.1,4.4c-7.4,0-14.4-2.5-21.1-4.3c-7-1.9-13.9-4-20-7.6c-6.2-3.6-12.6-7.5-17.6-12.5
					c-5.1-5.1-7.7-12.1-11.3-18.3c-3.6-6.2-8.4-11.9-10.3-18.9c-1.8-6.8-2.8-14.2-2.8-21.5c0-7.4,2.4-14.4,4.2-21.2
					c1.9-7,5.2-13.2,8.8-19.4s6.5-13.1,11.5-18.2c5.1-5.1,10.8-10,17-13.6s13.1-6.4,20.2-8.3c6.8-1.8,14.2-2.3,21.6-2.3
					c7.4,0,14.2,2.6,21,4.4c7,1.9,14.5,2.7,20.7,6.2c6.2,3.6,11.7,8.7,16.8,13.7c5.1,5.1,9.2,11.1,12.9,17.3
					c3.6,6.2,6.7,12.7,8.6,19.8C326.2,233.9,326.9,241.2,326.9,248.6z"/>
			</g>
		</g>
	</g>
</g>
<g>
	
		<image overflow="visible" opacity="0.75" width="155" height="156" xlink:href="582FDA29DA2F634B.png"  transform="matrix(1 0 0 1 163 67)">
	</image>
	<g>
		<g>
			<g>
				<path fill="#F5FCFC" stroke="#DEFFF5" stroke-width="2" stroke-miterlimit="10" d="M304.8,145.3c0,7-1.5,13.6-3.6,19.9
					c-2.1,6.5-4.2,13.3-8.1,18.7c-4,5.5-9.6,9.8-15,13.8c-5.4,3.9-11.8,6.4-18.3,8.5c-6.3,2-12.8,3.2-19.8,3.2s-13.9,0.1-20.2-1.9
					c-6.5-2.1-12.1-6.3-17.5-10.3c-5.5-4-10.6-8.4-14.6-13.9c-3.9-5.4-7.7-11.3-9.8-17.8c-2-6.3-1.4-13.2-1.4-20.2
					s-0.6-13.9,1.4-20.2c2.1-6.5,5.3-12.8,9.3-18.2c4-5.5,9.6-9.6,15.1-13.6c5.4-3.9,11.5-6.5,18.1-8.6c6.3-2,12.7-4.6,19.7-4.6
					s14,0.8,20.3,2.9c6.5,2.1,12.8,5.4,18.2,9.4c5.5,4,10.2,9.2,14.2,14.7c3.9,5.4,5.9,12,8,18.5
					C302.7,131.9,304.8,138.3,304.8,145.3z"/>
			</g>
		</g>
	</g>
</g>
<g>
	<g>
		<circle fill="#333333" cx="203.4" cy="165.7" r="5.1"/>
		<circle fill="none" stroke="#D4FFFE" stroke-width="0.6209" stroke-miterlimit="10" cx="203.4" cy="165.7" r="5.1"/>
	</g>
	<defs>
		<filter id="Adobe_OpacityMaskFilter_1_" filterUnits="userSpaceOnUse" x="198" y="160.3" width="10.8" height="10.8">
			<feColorMatrix  type="matrix" values="1 0 0 0 0  0 1 0 0 0  0 0 1 0 0  0 0 0 1 0"/>
		</filter>
	</defs>
	<mask maskUnits="userSpaceOnUse" x="198" y="160.3" width="10.8" height="10.8" id="SVGID_4_">
		<g filter="url(#Adobe_OpacityMaskFilter_1_)">
			
				<image overflow="visible" enable-background="new    " width="34" height="35" xlink:href="582FDA29DA2F634B.jpg"  transform="matrix(0.6581 0 0 0.6581 192.3938 154.3962)">
			</image>
		</g>
	</mask>
	<g opacity="9.000000e-02" mask="url(#SVGID_4_)">
		<circle fill="#FFFFFF" cx="203.4" cy="165.7" r="5.1"/>
		<circle fill="none" stroke="#FFFFFF" stroke-width="0.6209" stroke-miterlimit="10" cx="203.4" cy="165.7" r="5.1"/>
	</g>
</g>
<g>
	<g>
		<circle fill="#333333" cx="213.6" cy="174.3" r="5.1"/>
		<circle fill="none" stroke="#D4FFFE" stroke-width="0.6209" stroke-miterlimit="10" cx="213.6" cy="174.3" r="5.1"/>
	</g>
	<defs>
		<filter id="Adobe_OpacityMaskFilter_2_" filterUnits="userSpaceOnUse" x="208.2" y="168.9" width="10.8" height="10.8">
			<feColorMatrix  type="matrix" values="1 0 0 0 0  0 1 0 0 0  0 0 1 0 0  0 0 0 1 0"/>
		</filter>
	</defs>
	<mask maskUnits="userSpaceOnUse" x="208.2" y="168.9" width="10.8" height="10.8" id="SVGID_5_">
		<g filter="url(#Adobe_OpacityMaskFilter_2_)">
			
				<image overflow="visible" enable-background="new    " width="35" height="34" xlink:href="582FDA29DA2F6348.jpg"  transform="matrix(0.6581 0 0 0.6581 202.2553 163.3262)">
			</image>
		</g>
	</mask>
	<g opacity="9.000000e-02" mask="url(#SVGID_5_)">
		<circle fill="#FFFFFF" cx="213.6" cy="174.3" r="5.1"/>
		<circle fill="none" stroke="#FFFFFF" stroke-width="0.6209" stroke-miterlimit="10" cx="213.6" cy="174.3" r="5.1"/>
	</g>
</g>
<g>
	<g>
		<circle fill="#333333" cx="226.6" cy="174.3" r="5.1"/>
		<circle fill="none" stroke="#D4FFFE" stroke-width="0.6209" stroke-miterlimit="10" cx="226.6" cy="174.3" r="5.1"/>
	</g>
	<defs>
		<filter id="Adobe_OpacityMaskFilter_3_" filterUnits="userSpaceOnUse" x="221.2" y="168.9" width="10.8" height="10.8">
			<feColorMatrix  type="matrix" values="1 0 0 0 0  0 1 0 0 0  0 0 1 0 0  0 0 0 1 0"/>
		</filter>
	</defs>
	<mask maskUnits="userSpaceOnUse" x="221.2" y="168.9" width="10.8" height="10.8" id="SVGID_6_">
		<g filter="url(#Adobe_OpacityMaskFilter_3_)">
			
				<image overflow="visible" enable-background="new    " width="35" height="34" xlink:href="582FDA29DA2F6356.jpg"  transform="matrix(0.6581 0 0 0.6581 215.3129 163.3262)">
			</image>
		</g>
	</mask>
	<g opacity="9.000000e-02" mask="url(#SVGID_6_)">
		<circle fill="#FFFFFF" cx="226.6" cy="174.3" r="5.1"/>
		<circle fill="none" stroke="#FFFFFF" stroke-width="0.6209" stroke-miterlimit="10" cx="226.6" cy="174.3" r="5.1"/>
	</g>
</g>
<g>
	<g>
		<circle fill="#333333" cx="238.7" cy="172.9" r="5.1"/>
		<circle fill="none" stroke="#D4FFFE" stroke-width="0.6209" stroke-miterlimit="10" cx="238.7" cy="172.9" r="5.1"/>
	</g>
	<defs>
		<filter id="Adobe_OpacityMaskFilter_4_" filterUnits="userSpaceOnUse" x="233.3" y="167.5" width="10.8" height="10.8">
			<feColorMatrix  type="matrix" values="1 0 0 0 0  0 1 0 0 0  0 0 1 0 0  0 0 0 1 0"/>
		</filter>
	</defs>
	<mask maskUnits="userSpaceOnUse" x="233.3" y="167.5" width="10.8" height="10.8" id="SVGID_7_">
		<g filter="url(#Adobe_OpacityMaskFilter_4_)">
			
				<image overflow="visible" enable-background="new    " width="35" height="35" xlink:href="582FDA29DA2F6359.jpg"  transform="matrix(0.6488 0 0 0.6488 227.5342 161.727)">
			</image>
		</g>
	</mask>
	<g opacity="9.000000e-02" mask="url(#SVGID_7_)">
		<circle fill="#FFFFFF" cx="238.7" cy="172.9" r="5.1"/>
		<circle fill="none" stroke="#FFFFFF" stroke-width="0.6209" stroke-miterlimit="10" cx="238.7" cy="172.9" r="5.1"/>
	</g>
</g>
<g>
	<g>
		<circle fill="#333333" cx="251.7" cy="172.9" r="5.1"/>
		<circle fill="none" stroke="#D4FFFE" stroke-width="0.6209" stroke-miterlimit="10" cx="251.7" cy="172.9" r="5.1"/>
	</g>
	<defs>
		<filter id="Adobe_OpacityMaskFilter_5_" filterUnits="userSpaceOnUse" x="246.3" y="167.5" width="10.8" height="10.8">
			<feColorMatrix  type="matrix" values="1 0 0 0 0  0 1 0 0 0  0 0 1 0 0  0 0 0 1 0"/>
		</filter>
	</defs>
	<mask maskUnits="userSpaceOnUse" x="246.3" y="167.5" width="10.8" height="10.8" id="SVGID_8_">
		<g filter="url(#Adobe_OpacityMaskFilter_5_)">
			
				<image overflow="visible" enable-background="new    " width="35" height="35" xlink:href="582FDA29DA2F635A.jpg"  transform="matrix(0.6488 0 0 0.6488 240.5918 161.727)">
			</image>
		</g>
	</mask>
	<g opacity="9.000000e-02" mask="url(#SVGID_8_)">
		<circle fill="#FFFFFF" cx="251.7" cy="172.9" r="5.1"/>
		<circle fill="none" stroke="#FFFFFF" stroke-width="0.6209" stroke-miterlimit="10" cx="251.7" cy="172.9" r="5.1"/>
	</g>
</g>
<g>
	<g>
		<circle fill="#333333" cx="267.7" cy="170" r="5.1"/>
		<circle fill="none" stroke="#D4FFFE" stroke-width="0.6209" stroke-miterlimit="10" cx="267.7" cy="170" r="5.1"/>
	</g>
	<defs>
		<filter id="Adobe_OpacityMaskFilter_6_" filterUnits="userSpaceOnUse" x="262.3" y="164.6" width="10.8" height="10.8">
			<feColorMatrix  type="matrix" values="1 0 0 0 0  0 1 0 0 0  0 0 1 0 0  0 0 0 1 0"/>
		</filter>
	</defs>
	<mask maskUnits="userSpaceOnUse" x="262.3" y="164.6" width="10.8" height="10.8" id="SVGID_9_">
		<g filter="url(#Adobe_OpacityMaskFilter_6_)">
			
				<image overflow="visible" enable-background="new    " width="35" height="35" xlink:href="582FDA29DA2F6358.jpg"  transform="matrix(0.6488 0 0 0.6488 256.5163 158.86)">
			</image>
		</g>
	</mask>
	<g opacity="9.000000e-02" mask="url(#SVGID_9_)">
		<circle fill="#FFFFFF" cx="267.7" cy="170" r="5.1"/>
		<circle fill="none" stroke="#FFFFFF" stroke-width="0.6209" stroke-miterlimit="10" cx="267.7" cy="170" r="5.1"/>
	</g>
</g>
<linearGradient id="SVGID_2_" gradientUnits="userSpaceOnUse" x1="204.8317" y1="54.9857" x2="298.9436" y2="54.9857">
	<stop  offset="0" style="stop-color:#121212"/>
	<stop  offset="1" style="stop-color:#000000"/>
</linearGradient>
<path fill="url(#SVGID_2_)" d="M291.5,100.7L210,92.8c-3.3-0.3-5.6-2.9-5.1-5.6c0,0,3.4-9.5,5.6-32.3c0-0.2,0.1,2.5,0.1,2.3
	c0.4-10.1,1.4-43.4,1.4-43.4c0.1-2.7,2.9-4.8,6.1-4.5l75.6,7.4c3.2,0.3,5.6,2.9,5.2,5.6l-6.6,33.4c0,0.2,0,9,0,9.2L292,97.4
	c0,0.1,0,0.2,0,0.3L291.5,100.7z"/>
<linearGradient id="SVGID_3_" gradientUnits="userSpaceOnUse" x1="189.9913" y1="125.2366" x2="312.3452" y2="54.5955">
	<stop  offset="0" style="stop-color:#2B2B2B"/>
	<stop  offset="1" style="stop-color:#000000"/>
</linearGradient>
<path fill="url(#SVGID_3_)" d="M337.3,98.1c-0.5,5-40.3,13.5-87.9,8.9s-85-20.7-84.5-25.7c0.3-3.1,15,3.9,38.2,4.6
	c13.8,0.4,30.3,1.4,48,3.1c18.6,1.8,35.7,4.1,49.7,6.5C322.7,99.3,337.6,95.1,337.3,98.1z"/>
<g>
	<g>
		<circle fill="#333333" cx="192.2" cy="112" r="6.2"/>
		<circle fill="none" stroke="#D4FFFE" stroke-width="0.6209" stroke-miterlimit="10" cx="192.2" cy="112" r="6.2"/>
	</g>
	<defs>
		<filter id="Adobe_OpacityMaskFilter_7_" filterUnits="userSpaceOnUse" x="185.7" y="105.5" width="13" height="13">
			<feColorMatrix  type="matrix" values="1 0 0 0 0  0 1 0 0 0  0 0 1 0 0  0 0 0 1 0"/>
		</filter>
	</defs>
	<mask maskUnits="userSpaceOnUse" x="185.7" y="105.5" width="13" height="13" id="SVGID_12_">
		<g filter="url(#Adobe_OpacityMaskFilter_7_)">
			
				<image overflow="visible" enable-background="new    " width="38" height="38" xlink:href="BEEA880C88D95A0D.jpg"  transform="matrix(0.6519 0 0 0.6519 179.9847 99.7645)">
			</image>
		</g>
	</mask>
	<g opacity="9.000000e-02" mask="url(#SVGID_12_)">
		<circle fill="#FFFFFF" cx="192.2" cy="112" r="6.2"/>
		<circle fill="none" stroke="#FFFFFF" stroke-width="0.6209" stroke-miterlimit="10" cx="192.2" cy="112" r="6.2"/>
	</g>
</g>
<g>
	<g>
		<circle fill="#333333" cx="288.3" cy="126.8" r="6.2"/>
		<circle fill="none" stroke="#D4FFFE" stroke-width="0.6209" stroke-miterlimit="10" cx="288.3" cy="126.8" r="6.2"/>
	</g>
	<defs>
		<filter id="Adobe_OpacityMaskFilter_8_" filterUnits="userSpaceOnUse" x="281.8" y="120.3" width="13" height="13">
			<feColorMatrix  type="matrix" values="1 0 0 0 0  0 1 0 0 0  0 0 1 0 0  0 0 0 1 0"/>
		</filter>
	</defs>
	<mask maskUnits="userSpaceOnUse" x="281.8" y="120.3" width="13" height="13" id="SVGID_13_">
		<g filter="url(#Adobe_OpacityMaskFilter_8_)">
			
				<image overflow="visible" enable-background="new    " width="36" height="38" xlink:href="BEEA880C88D95A03.jpg"  transform="matrix(0.6693 0 0 0.6693 276.3687 114.2473)">
			</image>
		</g>
	</mask>
	<g opacity="9.000000e-02" mask="url(#SVGID_13_)">
		<circle fill="#FFFFFF" cx="288.3" cy="126.8" r="6.2"/>
		<circle fill="none" stroke="#FFFFFF" stroke-width="0.6209" stroke-miterlimit="10" cx="288.3" cy="126.8" r="6.2"/>
	</g>
</g>
<path fill="#A81B33" d="M247.5,203.3c5-0.6,8.2-0.7,14.3-2.6c7.1-2.3,14.8-5.3,21-10c4.5-3.4,8.2-7.3,12.3-9.8
	c1.5-0.9,3.5,1,5.4,2.6c15.6,12.8,18,15.3-4.8,20.3c-4.8,1.1-13,4.1-17.6,5.3c-8,2.2-16.6,3.8-25,4.1c-1.3,0.1-10.9,0.2-6.8-2.8
	c0.1-0.1,0.1-0.1,0.2-0.2"/>
<g>
	<g>
		<circle fill="#333333" cx="243.1" cy="307.8" r="6.2"/>
		<circle fill="none" stroke="#D4FFFE" stroke-width="0.6209" stroke-miterlimit="10" cx="243.1" cy="307.8" r="6.2"/>
	</g>
	<defs>
		<filter id="Adobe_OpacityMaskFilter_9_" filterUnits="userSpaceOnUse" x="236.6" y="301.3" width="13" height="13">
			<feColorMatrix  type="matrix" values="1 0 0 0 0  0 1 0 0 0  0 0 1 0 0  0 0 0 1 0"/>
		</filter>
	</defs>
	<mask maskUnits="userSpaceOnUse" x="236.6" y="301.3" width="13" height="13" id="SVGID_14_">
		<g filter="url(#Adobe_OpacityMaskFilter_9_)">
			
				<image overflow="visible" enable-background="new    " width="38" height="38" xlink:href="BEEA880C88D95A05.jpg"  transform="matrix(0.6519 0 0 0.6519 230.8742 295.5897)">
			</image>
		</g>
	</mask>
	<g opacity="9.000000e-02" mask="url(#SVGID_14_)">
		<circle fill="#FFFFFF" cx="243.1" cy="307.8" r="6.2"/>
		<circle fill="none" stroke="#FFFFFF" stroke-width="0.6209" stroke-miterlimit="10" cx="243.1" cy="307.8" r="6.2"/>
	</g>
</g>
<polygon fill="#8E1B34" points="114.7,398.2 145.2,398.2 145.2,381 135.7,381 "/>
<g>
	<g>
		<circle fill="#333333" cx="246" cy="278.1" r="6.2"/>
		<circle fill="none" stroke="#D4FFFE" stroke-width="0.6209" stroke-miterlimit="10" cx="246" cy="278.1" r="6.2"/>
	</g>
	<defs>
		<filter id="Adobe_OpacityMaskFilter_10_" filterUnits="userSpaceOnUse" x="239.5" y="271.6" width="13" height="13">
			<feColorMatrix  type="matrix" values="1 0 0 0 0  0 1 0 0 0  0 0 1 0 0  0 0 0 1 0"/>
		</filter>
	</defs>
	<mask maskUnits="userSpaceOnUse" x="239.5" y="271.6" width="13" height="13" id="SVGID_15_">
		<g filter="url(#Adobe_OpacityMaskFilter_10_)">
			
				<image overflow="visible" enable-background="new    " width="38" height="38" xlink:href="BEEA880C88D95A07.jpg"  transform="matrix(0.6519 0 0 0.6519 233.7396 265.8052)">
			</image>
		</g>
	</mask>
	<g opacity="9.000000e-02" mask="url(#SVGID_15_)">
		<circle fill="#FFFFFF" cx="246" cy="278.1" r="6.2"/>
		<circle fill="none" stroke="#FFFFFF" stroke-width="0.6209" stroke-miterlimit="10" cx="246" cy="278.1" r="6.2"/>
	</g>
</g>
<path fill="#A81B33" d="M249.7,206.6c1.1,5.6-3.8,10.5-9.4,9.4c-3.1-0.6-5.7-3.1-6.3-6.3c-1.1-5.6,3.8-10.5,9.4-9.4
	C246.6,200.9,249.1,203.5,249.7,206.6z"/>
<path fill="#A81B33" d="M238.7,205c-10.6-1.1-19.7-4.6-27.6-9.6c-3.1-2-6-4.3-9.2-6.2c-2.5-1.5-5.3-3.7-8.3-3.8
	c-3.6-0.2-7.9,2.8-9.9,6c-2.3,3.7-1.8,6.8-0.9,8.5c1.4,2.9,7.2,4.6,9.8,5.9c5.7,2.7,12.1,4.3,18.4,5.1c6.7,0.9,14,1.3,20.8,1.2
	c1.4,0,2.7,0,4.1,0"/>
<path fill="#A81B33" d="M203.7,190.4l-6.9,78.4l-1.7,106.4c0,0-14.8,7.5-30.2,8.6c-7.3,0.5-22.2-2.1-29.2,0
	c-6.1,1.8-21,14.3-21,14.3s27.4-101,29.6-108c2.4-7.5,7.9-26.4,23.9-76.9c2.4-7.6,18.6-25.3,18.6-25.3L203.7,190.4z"/>
<path fill="#8E1B34" d="M181.3,323.9c0,0,8.4-118.9,7.3-119.1c-1-0.1-17.9,164.5-16.7,164.7C172.8,369.6,181.3,323.9,181.3,323.9z"
	/>
<path fill="#8E1B34" d="M175.4,238.8c0.1-0.3,1.1-3.1,1.1-1.8c0.5,9.9-19.1,99.3-23.8,120.3c-0.1,0.6-0.6,0.8-0.6,0.2l8.6-58.6
	c0.5-0.8,0.3-2,0.6-3C161.4,296,175,239.7,175.4,238.8z"/>
<line fill="none" x1="256.8" y1="199.6" x2="282.1" y2="189"/>
<polygon fill="#8E1B34" points="203.4,203.1 203.7,204.7 229.5,208.2 "/>
<polygon fill="#FC771D" points="248.2,135.6 239.6,153.6 221,134 239.7,137 "/>
<polygon fill="#D86D25" points="248.2,135.6 239.7,137 239.6,153.6 "/>
<g>
	<g>
		<circle fill="#333333" cx="246" cy="252.3" r="6.2"/>
		<circle fill="none" stroke="#D4FFFE" stroke-width="0.6209" stroke-miterlimit="10" cx="246" cy="252.3" r="6.2"/>
	</g>
	<defs>
		<filter id="Adobe_OpacityMaskFilter_11_" filterUnits="userSpaceOnUse" x="239.5" y="245.8" width="13" height="13">
			<feColorMatrix  type="matrix" values="1 0 0 0 0  0 1 0 0 0  0 0 1 0 0  0 0 0 1 0"/>
		</filter>
	</defs>
	<mask maskUnits="userSpaceOnUse" x="239.5" y="245.8" width="13" height="13" id="SVGID_16_">
		<g filter="url(#Adobe_OpacityMaskFilter_11_)">
			
				<image overflow="visible" enable-background="new    " width="38" height="36" xlink:href="BEEA880C88D95A04.jpg"  transform="matrix(0.6693 0 0 0.6693 233.4095 240.3414)">
			</image>
		</g>
	</mask>
	<g opacity="9.000000e-02" mask="url(#SVGID_16_)">
		<circle fill="#FFFFFF" cx="246" cy="252.3" r="6.2"/>
		<circle fill="none" stroke="#FFFFFF" stroke-width="0.6209" stroke-miterlimit="10" cx="246" cy="252.3" r="6.2"/>
	</g>
</g>
<path fill="none" stroke="#A81B33" stroke-width="2.867" stroke-miterlimit="10" d="M298.1,182.4"/>
<path fill="#871A31" d="M256.1,207.4c0,0,0.4-0.1,1-0.2c0.6-0.2,1.5-0.5,2.5-0.9c1-0.5,2.2-1,3.5-1.5c1.3-0.6,2.8-1,4.2-1.5
	c1.4-0.5,2.8-1.1,4.2-1.5c0.6-0.3,1.4-0.3,2-0.4c0.6-0.1,1.3-0.1,1.8-0.2c1.1-0.1,2.1-0.1,2.7-0.3c0.6-0.1,1-0.2,1-0.2v0.1
	c0,0-0.4,0.1-1,0.4c-0.6,0.3-1.6,0.4-2.7,0.6c-0.5,0.1-1.1,0.2-1.8,0.3c-0.7,0.1-1.3,0.2-1.9,0.4c-1.3,0.4-2.8,0.8-4.3,1.2
	c-1.5,0.3-2.9,0.8-4.1,1.5s-2.4,1.3-3.5,1.7s-2,0.6-2.7,0.6C256.5,207.5,256.1,207.5,256.1,207.4L256.1,207.4z"/>
</svg>
