<?xml version="1.0" encoding="utf-8"?>
<!-- Generator: Adobe Illustrator 17.1.0, SVG Export Plug-In . SVG Version: 6.00 Build 0)  -->
<!DOCTYPE svg PUBLIC "-//W3C//DTD SVG 1.1//EN" "http://www.w3.org/Graphics/SVG/1.1/DTD/svg11.dtd">
<svg version="1.1" id="Layer_1" xmlns="http://www.w3.org/2000/svg" xmlns:xlink="http://www.w3.org/1999/xlink" x="0px" y="0px"
	 viewBox="0 0 200 200" enable-background="new 0 0 200 200" xml:space="preserve">
<rect x="95.2" y="166.3" fill="#944A00" width="10.8" height="10.8"/>
<polygon fill="#FF153C" points="104.3,175.6 110.7,174.1 110.7,178.1 113.3,180.6 113.3,183.2 118.7,187.3 122.8,190.7 76,190.7 
	80.9,183.5 86,182.4 86,177.8 90.1,176.3 90.1,174.1 98,175.2 "/>
<ellipse fill="#FF153C" cx="100.2" cy="189.9" rx="35.8" ry="3.6"/>
<polygon fill="#CC124C" points="89.6,183.2 85.5,184.6 89.6,185.5 109.5,183.2 "/>
<polygon fill="#CE1747" points="91.5,177.1 104.4,179.4 109.7,179.4 106,177.1 "/>
<linearGradient id="SVGID_1_" gradientUnits="userSpaceOnUse" x1="172.1449" y1="107.4949" x2="28.2241" y2="107.4949">
	<stop  offset="0" style="stop-color:#3D6A00"/>
	<stop  offset="0.566" style="stop-color:#3D5E00"/>
</linearGradient>
<path fill="url(#SVGID_1_)" d="M28.2,161.5l4.6-5.7l67.3-106.5l65.5,103.6l6.5,8.6c0,0-34.2,2.8-45.6,3.4c-12,0.6-36.2,1-48.2,0.6
	C65.8,165.1,28.2,161.5,28.2,161.5z"/>
<linearGradient id="SVGID_2_" gradientUnits="userSpaceOnUse" x1="165.9627" y1="86.3686" x2="34.0929" y2="86.3686">
	<stop  offset="0" style="stop-color:#3D6A00"/>
	<stop  offset="0.8431" style="stop-color:#3D5E00"/>
	<stop  offset="1" style="stop-color:#3D5E00"/>
</linearGradient>
<path fill="url(#SVGID_2_)" d="M34.1,139.9l5.6-7.8L100,27.8c0,0,45.8,79.1,61.3,105.5c1,1.6,4.6,6.7,4.6,6.7s-65,5.6-86.7,5
	C67.9,144.6,34.1,139.9,34.1,139.9z"/>
<linearGradient id="SVGID_3_" gradientUnits="userSpaceOnUse" x1="154.9174" y1="66.6968" x2="45.7535" y2="66.6968">
	<stop  offset="0" style="stop-color:#3D6A00"/>
	<stop  offset="0.6104" style="stop-color:#3D6500"/>
	<stop  offset="1" style="stop-color:#3D5E00"/>
</linearGradient>
<path fill="url(#SVGID_3_)" d="M45.8,111.3c0,0,1.2-1.5,4.4-5.8C65.3,85.1,100.3,17,100.3,17s35.3,68.4,50.5,89.1
	c1.9,2.6,4,5.2,4,5.2s-53.6,5.6-71.5,5C74,116,45.8,111.3,45.8,111.3z"/>
<linearGradient id="SVGID_4_" gradientUnits="userSpaceOnUse" x1="144.8492" y1="48.9355" x2="56.5738" y2="48.9355">
	<stop  offset="0" style="stop-color:#3D6A00"/>
	<stop  offset="0.8078" style="stop-color:#3D5E00"/>
</linearGradient>
<path fill="url(#SVGID_4_)" d="M56.6,82.9c0,0,2.2-2.2,4.9-6.7C72.1,59,100.7,9.9,100.7,9.9s28,50.5,39.5,66.8
	c1.8,2.5,4.7,6.2,4.7,6.2s-35.1,4.7-54.9,5C77.8,88.1,56.6,82.9,56.6,82.9z"/>
</svg>
