<?xml version="1.0" encoding="utf-8"?>
<!-- Generator: Adobe Illustrator 17.1.0, SVG Export Plug-In . SVG Version: 6.00 Build 0)  -->
<!DOCTYPE svg PUBLIC "-//W3C//DTD SVG 1.1//EN" "http://www.w3.org/Graphics/SVG/1.1/DTD/svg11.dtd">
<svg version="1.1" id="Layer_1" xmlns="http://www.w3.org/2000/svg" xmlns:xlink="http://www.w3.org/1999/xlink" x="0px" y="0px"
	 viewBox="0 0 500 500" enable-background="new 0 0 500 500" xml:space="preserve">
<path fill="#515456" d="M340.1,436.7c0,4.3-3.5,7.8-7.8,7.8H124.1c-4.3,0-7.8-3.5-7.8-7.8v-13.1c0-4.3,3.5-5.2,7.8-5.2h208.2
	c4.3,0,7.8,3.5,7.8,7.8V436.7z"/>
<path fill="#515456" d="M339.3,224.2c0,4.3-3.5,7.8-7.8,7.8H123.2c-4.3,0-7.8-3.5-7.8-7.8v-10.5c0-4.3,3.5-7.8,7.8-7.8h208.2
	c4.3,0,7.8,3.5,7.8,7.8V224.2z"/>
<path fill="#58595B" stroke="#FFFFFF" stroke-width="2.603" stroke-miterlimit="10" d="M139.7,452.3c0,3.8-1.1,11.3-1.1,11.3l-5,11
	c0,0-2.7,3-8.2,3.1c-4.7,0-6.7-3.1-6.7-3.1c-1.4-2.2,7.1-18.4,7.1-22.2v-253c0-3.8,3.1-6.9,6.9-6.9l0,0c3.8,0,6.9,3.1,6.9,6.9V452.3
	z"/>
<path fill="#58595B" stroke="#FFFFFF" stroke-width="2.603" stroke-miterlimit="10" d="M168.3,452.1c0,3.8-3.1,6.9-6.9,6.9l0,0
	c-3.8,0-6.9-3.1-6.9-6.9V199c0-3.8,3.1-6.9,6.9-6.9l0,0c3.8,0,6.9,3.1,6.9,6.9V452.1z"/>
<path fill="#58595B" stroke="#FFFFFF" stroke-width="2.603" stroke-miterlimit="10" d="M197.8,452.3c0,3.8-3.1,6.9-6.9,6.9l0,0
	c-3.8,0-6.9-3.1-6.9-6.9v-253c0-3.8,3.1-6.9,6.9-6.9l0,0c3.8,0,6.9,3.1,6.9,6.9V452.3z"/>
<path fill="#58595B" stroke="#FFFFFF" stroke-width="2.603" stroke-miterlimit="10" d="M223,452.3c0,3.8-3.1,6.9-6.9,6.9l0,0
	c-3.8,0-6.9-3.1-6.9-6.9v-253c0-3.8,3.1-6.9,6.9-6.9l0,0c3.8,0,6.9,3.1,6.9,6.9V452.3z"/>
<path fill="#58595B" stroke="#FFFFFF" stroke-width="2.603" stroke-miterlimit="10" d="M246.4,452.5c0,3.8-3.1,6.9-6.9,6.9l0,0
	c-3.8,0-6.9-3.1-6.9-6.9v-253c0-3.8,3.1-6.9,6.9-6.9l0,0c3.8,0,6.9,3.1,6.9,6.9V452.5z"/>
<path fill="#58595B" stroke="#FFFFFF" stroke-width="2.603" stroke-miterlimit="10" d="M275.1,452.2c0,3.8-3.1,6.9-6.9,6.9l0,0
	c-3.8,0-6.9-3.1-6.9-6.9v-253c0-3.8,3.1-6.9,6.9-6.9l0,0c3.8,0,6.9,3.1,6.9,6.9V452.2z"/>
<path fill="#58595B" stroke="#FFFFFF" stroke-width="2.603" stroke-miterlimit="10" d="M302,452.6c0,3.8-3.1,6.9-6.9,6.9l0,0
	c-3.8,0-6.9-3.1-6.9-6.9v-253c0-3.8,3.1-6.9,6.9-6.9l0,0c3.8,0,6.9,3.1,6.9,6.9V452.6z"/>
<path fill="#58595B" stroke="#FFFFFF" stroke-width="2.603" stroke-miterlimit="10" d="M330.6,452.3c0,3.8,9.4,19.1,7.3,21.8
	c0,0-2,2.6-6.7,2.6c-4.9,0-7.1-2.6-7.1-2.6l-6.2-11.4c0,0-1.1-6.6-1.1-10.4v-253c0-3.8,3.1-6.9,6.9-6.9l0,0c3.8,0,6.9,3.1,6.9,6.9
	V452.3z"/>
<path fill="none" stroke="#BE1E2D" stroke-width="2.603" stroke-miterlimit="10" d="M119.7,397.3c0-1-4.7-1.8-10.5-1.8
	c-5.8,0-10.5,0.8-10.5,1.8"/>
<path fill="#A6A8AB" stroke="#FFFFFF" stroke-width="2.603" stroke-miterlimit="10" d="M359.2,223.3c0,8.8-2.9,8.8-9.7,8.8
	s-9.7,0-9.7-8.8c0-8.8,4-23.3,9.7-23.8C354,199.1,359.2,214.5,359.2,223.3z"/>
<path fill="#58595B" d="M116.3,437.3c0,3.9-3.1,4.4-7,4.4l0,0c-3.9,0-7-0.5-7-4.4v-32.5c0-3.9,3.1-1.8,7-1.8l0,0c3.9,0,7-2.1,7,1.8
	V437.3z"/>
<path fill="#58595B" d="M105.5,403.1L105.5,403.1c0-2.2,1.3-6.5,2.9-6.5h1.8c1.6,0,2.9,4.4,2.9,6.5l0,0"/>
<path fill="none" stroke="#BE1E2D" stroke-width="2.603" stroke-miterlimit="10" d="M119.7,397.2c0,1-4.7,1.8-10.5,1.8
	c-5.8,0-10.5-0.8-10.5-1.8"/>
<ellipse fill="#CBBF4F" cx="109.3" cy="396" rx="1.8" ry="1.7"/>
<line fill="#58595B" stroke="#808184" stroke-width="2.603" stroke-linecap="round" stroke-miterlimit="10" x1="161.4" y1="199.5" x2="161.4" y2="450.5"/>
<line fill="#58595B" stroke="#808184" stroke-width="2.603" stroke-linecap="round" stroke-miterlimit="10" x1="190.9" y1="202.1" x2="190.9" y2="453.1"/>
<line fill="#58595B" stroke="#808184" stroke-width="2.603" stroke-linecap="round" stroke-miterlimit="10" x1="132.8" y1="199.5" x2="132.8" y2="450.5"/>
<line fill="#58595B" stroke="#808184" stroke-width="2.603" stroke-linecap="round" stroke-miterlimit="10" x1="239.5" y1="199.5" x2="239.5" y2="450.5"/>
<line fill="#58595B" stroke="#808184" stroke-width="2.603" stroke-linecap="round" stroke-miterlimit="10" x1="216.1" y1="198.7" x2="216.1" y2="449.7"/>
<line fill="#58595B" stroke="#808184" stroke-width="2.603" stroke-linecap="round" stroke-miterlimit="10" x1="268.1" y1="199.5" x2="268.1" y2="450.5"/>
<line fill="#58595B" stroke="#808184" stroke-width="2.603" stroke-linecap="round" stroke-miterlimit="10" x1="295" y1="199.5" x2="295" y2="450.5"/>
<line fill="#58595B" stroke="#808184" stroke-width="2.603" stroke-linecap="round" stroke-miterlimit="10" x1="323.6" y1="200.6" x2="323.6" y2="451.6"/>
<g>
	<g>
		<path fill="#00ADEE" d="M378.4,10.8c0,0,0.1,0.4-0.2,1c-0.3,0.6-1,1.4-2,2.2c-2.1,1.6-5.4,3.5-9.7,5.9c-2.1,1.2-4.5,2.5-7,4.2
			c-1.2,0.8-2.5,1.7-3.6,2.8c-1.1,1.1-2.5,2.5-2,4.2c0.8,1.5,2.5,2.3,4.1,3.1c1.6,0.8,3.4,1.4,5.2,2.1c3.6,1.3,7.4,2.6,11.3,4.2
			c1.9,0.8,3.9,1.7,5.6,3.2c0.8,0.7,1.6,1.9,1.1,3c-0.5,1.1-1.4,1.8-2.3,2.5c-3.8,2.5-8.2,4.2-12.6,6.2c-2.2,1-4.4,2-6.5,3.2
			c-1.1,0.6-2.1,1.3-3.1,2.1c-0.9,0.8-1.9,1.8-1.6,3c0.4,1.1,1.5,1.9,2.5,2.6c1.1,0.7,2.2,1.3,3.3,1.8c2.3,1.1,4.7,2.1,7.1,3.1
			c2.4,1,4.9,2,7.3,3.2c1.2,0.6,2.4,1.2,3.5,1.9c1.1,0.8,2.3,1.6,2.8,3c0.2,0.7,0,1.5-0.5,2.1c-0.4,0.6-1,1-1.5,1.4
			c-1.1,0.8-2.3,1.5-3.6,2.1c-2.5,1.2-5,2.2-7.6,3.3c-2.6,1-5.1,2.1-7.6,3.3c-1.2,0.6-2.5,1.2-3.6,2c-1.1,0.7-2.3,1.7-2.4,2.9
			c0.1,1.3,1.3,2.2,2.3,3.1c1.1,0.8,2.3,1.5,3.6,2.1c2.5,1.3,5,2.4,7.6,3.5c2.6,1.1,5.1,2.3,7.6,3.6c1.2,0.7,2.5,1.4,3.6,2.3
			c0.5,0.5,1.1,1,1.4,1.7c0.2,0.4,0.3,0.7,0.3,1.2c0,0.3-0.1,0.7-0.3,1.1c-0.8,1.3-2.1,2-3.3,2.8c-1.2,0.7-2.5,1.3-3.8,1.8
			c-2.6,1.1-5.1,2.1-7.7,3.1c-2.6,1-5.1,2-7.6,3.2c-1.2,0.6-2.4,1.3-3.4,2.1c-0.5,0.4-0.9,0.9-1.1,1.5c0,0.1-0.1,0.3,0,0.4
			c0,0.2,0,0.4,0.1,0.5c0.1,0.3,0.2,0.5,0.4,0.8c1.6,2,4.1,3.3,6.4,4.5c2.4,1.2,4.8,2.3,7.1,3.4c2.4,1.1,4.7,2.2,7,3.5
			c1.1,0.6,2.2,1.3,3.3,2.1c0.5,0.4,1,0.9,1.4,1.5c0.4,0.5,0.5,1.5,0.3,2c-0.6,1.4-1.7,2.1-2.7,2.9c-1.1,0.7-2.2,1.2-3.3,1.8
			c-2.3,1-4.6,1.9-6.8,2.7c-4.5,1.7-9,3.1-12.8,5.5c-0.8,0.6-1.8,1.4-1.7,2.4c0.1,1,0.9,1.9,1.6,2.6c1.6,1.4,3.5,2.5,5.3,3.5
			c3.7,2,7.4,3.6,10.8,5.4c1.7,0.9,3.4,1.7,4.9,2.7c0.8,0.5,1.5,1,2.1,1.7c0.6,0.6,1.2,1.6,0.9,2.4c-0.2,1.8-1.4,3.2-2.7,4.1
			c-1.3,0.9-2.8,1.5-4.2,2c-2.8,0.9-5.5,1.5-7.9,2c-4.8,1-8.6,1.9-10.8,3.3c-1.1,0.7-1.7,1.6-1.9,2.2c-0.2,0.6-0.2,1-0.2,1l-0.1,0
			c0,0,0-0.4,0.2-1c0.2-0.7,0.8-1.5,1.9-2.3c2.2-1.5,6-2.4,10.8-3.4c2.4-0.5,5.1-1.1,7.8-2c1.4-0.5,2.8-1.1,4.1-2
			c1.2-0.9,2.4-2.3,2.6-3.9c0.2-0.8-0.2-1.6-0.8-2.2c-0.6-0.6-1.3-1.1-2.1-1.6c-1.5-1-3.2-1.8-4.9-2.6c-3.4-1.7-7.1-3.3-10.8-5.3
			c-1.8-1-3.7-2.1-5.4-3.6c-0.8-0.8-1.7-1.6-1.8-2.9c-0.1-0.6,0.2-1.3,0.5-1.7c0.4-0.5,0.8-0.8,1.3-1.2c3.9-2.5,8.4-3.9,12.9-5.6
			c2.2-0.8,4.5-1.7,6.8-2.7c1.1-0.5,2.2-1.1,3.3-1.7c1-0.6,2.1-1.5,2.4-2.4c0.4-1.1-0.5-2.1-1.4-2.9c-1-0.8-2-1.5-3.2-2.1
			c-2.2-1.2-4.6-2.3-7-3.5c-2.4-1.1-4.8-2.2-7.2-3.4c-2.3-1.3-4.8-2.5-6.6-4.7c-0.2-0.3-0.4-0.6-0.5-1c-0.1-0.3-0.1-0.7,0-1.1
			c0.2-0.8,0.7-1.3,1.2-1.8c1.1-0.9,2.3-1.6,3.5-2.2c2.5-1.2,5-2.2,7.6-3.2c2.6-1,5.2-2,7.7-3.1c1.3-0.5,2.5-1.1,3.7-1.8
			c1.2-0.7,2.4-1.5,3.1-2.5c0.8-1.2-0.2-2.4-1.2-3.2c-1-0.9-2.2-1.6-3.5-2.3c-2.4-1.3-5-2.5-7.6-3.6c-2.6-1.1-5.1-2.3-7.6-3.6
			c-1.2-0.6-2.5-1.3-3.6-2.2c-0.6-0.4-1.1-0.9-1.6-1.4c-0.3-0.3-0.5-0.6-0.6-0.9c-0.2-0.4-0.3-0.7-0.3-1.1c0-0.9,0.5-1.5,1-2
			c0.5-0.5,1.1-0.9,1.7-1.4c1.2-0.8,2.4-1.4,3.7-2c2.5-1.2,5.1-2.2,7.6-3.2c2.6-1,5.1-2.1,7.5-3.2c1.2-0.6,2.4-1.2,3.5-2
			c1-0.8,2.2-1.8,1.8-3.1c-0.4-1.2-1.6-2-2.6-2.8c-1.1-0.7-2.3-1.3-3.5-1.9c-2.4-1.2-4.8-2.2-7.3-3.2c-2.4-1-4.8-2-7.2-3.1
			c-1.2-0.6-2.3-1.2-3.4-1.9c-1-0.7-2.2-1.5-2.6-2.8c-0.3-1.4,0.8-2.5,1.7-3.3c1-0.8,2-1.5,3.1-2.1c2.2-1.2,4.4-2.2,6.6-3.2
			c4.4-2,8.8-3.7,12.5-6.2c0.9-0.6,1.8-1.4,2.2-2.3c0.4-1-0.3-2.1-1.1-2.8c-1.6-1.4-3.6-2.3-5.5-3.1c-3.9-1.6-7.7-2.9-11.3-4.2
			c-1.8-0.7-3.5-1.3-5.2-2.1c-1.6-0.8-3.3-1.6-4.2-3.2c-0.3-0.8,0-1.8,0.4-2.5c0.4-0.7,1-1.3,1.6-1.9c1.2-1.1,2.4-2,3.7-2.8
			c2.5-1.6,4.8-2.9,7-4.2c4.3-2.4,7.6-4.3,9.7-5.9c1-0.8,1.7-1.5,2-2.2C378.4,11.2,378.3,10.8,378.4,10.8L378.4,10.8z"/>
	</g>
	<g>
		<path fill="none" stroke="#00ADEE" stroke-width="0.6507" stroke-miterlimit="10" d="M389,11c0.6,4.7-25.6,12.4-25.4,18.8
			c0.1,5.2,26.8,10.7,26.7,16.7c-0.1,5.4-26.9,10.1-27.2,15.9c-0.2,5.5,26.1,12.5,25.7,18.2c-0.3,5.5-27.4,9.3-27.8,14.9
			c-0.4,5.6,25.7,13.4,25.2,18.9c-0.5,5.7-27.6,8.9-28.1,14.3c-0.6,5.8,25.4,14,24.9,19.4c-0.6,5.9-27.7,8.7-28.3,13.9
			c-0.7,6.3,25.2,14.9,24.6,19.7c-1.2,10.4-27.4,5.1-28.5,13.4"/>
	</g>
	<g>
		<path fill="none" stroke="#00ADEE" stroke-width="0.6507" stroke-miterlimit="10" d="M399.7,11.2c0.5,4.8-26,11.5-26.1,17.9
			c-0.1,5.2,26.2,12.1,25.8,18.1c-0.4,5.4-27.4,8.8-28,14.6c-0.5,5.5,25.3,14,24.6,19.7c-0.7,5.5-27.8,7.8-28.6,13.4
			c-0.8,5.6,24.8,15,24,20.5c-0.8,5.7-28,7.3-28.9,12.7c-0.9,5.8,24.5,15.6,23.6,21c-1,5.9-28.2,7.1-29.1,12.2
			c-1.1,6.3,24.1,16.6,23.3,21.3c-1.9,10.3-27.7,3.4-29.3,11.7"/>
	</g>
	<g>
		<path fill="none" stroke="#00ADEE" stroke-width="0.6507" stroke-miterlimit="10" d="M410.3,11.3c0.3,4.8-26.4,10.6-26.8,17.1
			c-0.3,5.3,25.6,13.5,24.8,19.5c-0.7,5.4-27.8,7.4-28.7,13.3c-0.9,5.5,24.5,15.5,23.4,21.2c-1,5.6-28.2,6.3-29.3,12
			c-1.1,5.6,23.9,16.5,22.7,22c-1.2,5.7-28.4,5.7-29.6,11.2c-1.3,5.8,23.5,17.2,22.2,22.5c-1.4,5.9-28.6,5.5-29.8,10.6
			c-1.5,6.3,23,18.1,21.8,22.9c-2.5,10.3-27.8,1.8-30,10"/>
	</g>
	<g>
		<path fill="none" stroke="#00ADEE" stroke-width="0.6507" stroke-miterlimit="10" d="M420.9,11.5c0.2,4.9-26.7,9.7-27.4,16.2
			c-0.6,5.3,24.9,14.8,23.8,20.9c-0.9,5.4-28.2,6.2-29.4,12c-1.2,5.5,23.5,16.9,22.2,22.7c-1.3,5.6-28.5,4.9-29.9,10.5
			c-1.4,5.6,22.8,18,21.3,23.5c-1.5,5.7-28.7,4.2-30.2,9.7c-1.6,5.8,22.3,18.7,20.8,24c-1.7,5.9-28.9,3.9-30.4,9.1
			c-1.9,6.2,21.8,19.6,20.3,24.4c-3.2,10.3-27.9,0.2-30.6,8.4"/>
	</g>
	<g>
		<path fill="none" stroke="#00ADEE" stroke-width="0.6507" stroke-miterlimit="10" d="M431.6,11.6c0,5-27,8.8-28,15.5
			c-0.8,5.4,24.1,16.1,22.7,22.2c-1.2,5.5-28.4,4.9-30,10.8c-1.5,5.5,22.5,18.3,20.9,24.1c-1.6,5.6-28.8,3.5-30.5,9.2
			c-1.8,5.6,21.7,19.4,19.9,24.9c-1.9,5.7-28.9,2.8-30.8,8.2c-2,5.7,21.2,20.1,19.3,25.4c-2.1,5.9-29.1,2.4-31,7.6
			c-2.3,6.2,20.5,21.1,18.8,25.8c-3.9,10.2-27.9-1.3-31.1,6.9"/>
	</g>
</g>
<path opacity="0.3" fill="#DADAD9" d="M344.3,227.2c-0.1,2.8-1.5,2.3-1.5-4.1c0-6.4,2-17.2,6.3-20.4"/>
</svg>
