<?xml version="1.0" encoding="utf-8"?>
<!-- Generator: Adobe Illustrator 17.1.0, SVG Export Plug-In . SVG Version: 6.00 Build 0)  -->
<!DOCTYPE svg PUBLIC "-//W3C//DTD SVG 1.1//EN" "http://www.w3.org/Graphics/SVG/1.1/DTD/svg11.dtd">
<svg version="1.1" id="Layer_1" xmlns="http://www.w3.org/2000/svg" xmlns:xlink="http://www.w3.org/1999/xlink" x="0px" y="0px"
	 viewBox="0 0 26.3 25.2" enable-background="new 0 0 26.3 25.2" xml:space="preserve">
<g opacity="0.63">
	<path fill="#565453" d="M13.3,1.7c0,0,0.1,0.3,0.3,0.9C13.8,3.2,14,4,14.2,5c0.4,2,0.6,4.6,0.6,7.2c0,2.6-0.2,5.3-0.6,7.2
		c-0.2,1-0.4,1.8-0.6,2.4c-0.2,0.6-0.3,0.9-0.3,0.9s-0.1-0.3-0.3-0.9c-0.2-0.6-0.4-1.4-0.6-2.4c-0.4-2-0.6-4.6-0.6-7.2
		c0-2.6,0.3-5.2,0.6-7.2c0.2-1,0.4-1.8,0.6-2.4C13.2,2,13.3,1.7,13.3,1.7z"/>
</g>
<g opacity="0.63">
	<path fill="#565453" d="M23.8,12.2c0,0-0.3,0.1-0.9,0.3c-0.6,0.2-1.4,0.4-2.4,0.6c-2,0.4-4.6,0.6-7.2,0.6c-2.6,0-5.2-0.2-7.2-0.6
		c-1-0.2-1.8-0.4-2.4-0.6c-0.6-0.2-0.9-0.3-0.9-0.3s0.3-0.1,0.9-0.3c0.6-0.2,1.4-0.4,2.4-0.6c2-0.4,4.6-0.6,7.2-0.6
		c2.6,0,5.2,0.3,7.2,0.6c1,0.2,1.8,0.4,2.4,0.6C23.5,12.1,23.8,12.2,23.8,12.2z"/>
</g>
<ellipse fill="none" stroke="#1A1A1A" stroke-width="3" stroke-miterlimit="10" cx="13.3" cy="12.5" rx="10.5" ry="10.5"/>
<circle fill="#070707" cx="13.3" cy="12.5" r="1.7"/>
</svg>
