<?xml version="1.0" encoding="utf-8"?>
<!-- Generator: Adobe Illustrator 17.1.0, SVG Export Plug-In . SVG Version: 6.00 Build 0)  -->
<!DOCTYPE svg PUBLIC "-//W3C//DTD SVG 1.1//EN" "http://www.w3.org/Graphics/SVG/1.1/DTD/svg11.dtd">
<svg version="1.1" id="Layer_1" xmlns="http://www.w3.org/2000/svg" xmlns:xlink="http://www.w3.org/1999/xlink" x="0px" y="0px"
	 viewBox="0 0 156 213.8" enable-background="new 0 0 156 213.8" xml:space="preserve">
<path fill="#E1F5C4" d="M22,84.1c-2.2-36.6,24.1-54.7,53.8-54.7s50.8,20.7,54.7,54.7c0,0-1.9,38.6,4.3,75.3
	c7,41.6-3.3,53.3-3.3,53.3H22c0,0-7.9-6.6-6-38C18.5,132,22,84.1,22,84.1z"/>
<circle fill="#2D2D2B" cx="31.5" cy="50.6" r="3"/>
<circle fill="#2D2D2B" cx="108.9" cy="61.6" r="3"/>
<g>
	<path fill="#FF1D25" d="M112.5,125.9c-4.7,18.9-31,28.6-58.7,21.7s-47.4-28.1-42.7-47s32.1-28.3,59.8-21.4
		c25.5,6.4,43.3,24.6,42.3,42.2C113.1,122.9,112.9,124.4,112.5,125.9z"/>
	<path fill="#2D2D2B" d="M97.3,120.9c-3.1,12.5-23.6,22-44.5,16.8s-39.9-20-33.9-36.4c4.8-13.2,24-19.8,46.1-12.5
		C88.7,96.7,100.4,108.4,97.3,120.9z"/>
	<g>
		<path fill="#FF1D25" d="M121.1,124.3c-5,1.9-10.2,5.5-15,11.8c1-9.4,2.6-17.1,4.1-23.4C113.8,118.8,117.5,122.5,121.1,124.3z"/>
	</g>
</g>
</svg>
