<svg xmlns="http://www.w3.org/2000/svg" viewBox="0 0 246.5 254.3" enable-background="new 0 0 246.5 254.3"><path fill="#F7F7EB" stroke="#232323" stroke-width="3.5" stroke-linecap="round" stroke-linejoin="round" stroke-miterlimit="10" d="M89.5 223.1s-7.8 3.1-26.3 2.8c-17.9-.3-26-2.8-26-2.8l-5.4-69.3h63l-5.3 69.3z"/><path stroke="#232323" stroke-width="8" stroke-linecap="square" stroke-linejoin="bevel" stroke-miterlimit="10" d="M97 151.2s-12.4.7-33.5.7c-21.7 0-33.5-.7-33.5-.7l2.7-3.3-2.7-1.4s11.4-1.4 33.5-1.4c22.2 0 33.5 1.4 33.5 1.4l-3.6 1.6 3.6 3.1z" fill="none"/><path stroke="#232323" stroke-width="3" stroke-linecap="round" stroke-linejoin="round" stroke-miterlimit="10" fill="none" d="M45.3 142.7H32.7v-5.8l12.6-1.8z"/><path stroke="#000" stroke-width="2" stroke-linecap="round" stroke-linejoin="round" stroke-miterlimit="10" d="M28 136.1c-1.3-4.6 2.2-5.6.9-10.2-1.3-4.6-4.9-3.6-6.2-8.2-1.3-4.6 2.2-5.6.9-10.2-1.3-4.6-4.9-3.6-6.2-8.2" fill="none" opacity=".19"/><path fill="#66CCD3" d="M89.2 174.5c-17.3 1.3-34.7 1.3-52 0-.7-.1-1.3-.7-1.3-1.4s.6-1.3 1.3-1.2c17.3 1.3 34.7 1.3 52 0 .7-.1 1.3.5 1.3 1.2.1.7-.5 1.4-1.3 1.4zM88.6 182c-16.9 1.2-33.8 1.2-50.7 0-.7-.1-1.3-.7-1.3-1.4s.6-1.3 1.3-1.2c16.9 1.2 33.8 1.2 50.7 0 .7-.1 1.3.5 1.3 1.2.1.7-.5 1.3-1.3 1.4zM88 189.4c-16.4 1.2-32.9 1.2-49.3 0-.7-.1-1.3-.7-1.3-1.4s.6-1.3 1.3-1.2c16.4 1.2 32.9 1.1 49.3 0 .7-.1 1.3.5 1.3 1.2.1.7-.5 1.3-1.3 1.4zM87.4 196.8c-16 1.1-32 1.1-48 0-.7-.1-1.3-.7-1.3-1.4s.6-1.3 1.3-1.2c16 1.1 32 1.1 48 0 .7-.1 1.3.5 1.3 1.2.1.7-.5 1.4-1.3 1.4z"/><path stroke="#232323" stroke-width="4.945" stroke-linecap="round" stroke-linejoin="round" stroke-miterlimit="10" d="M29.8 145.8" fill="none"/><path fill="#fff" d="M213.7 188.3c0-3.3-.1-6.6-.9-9.7-.8-3.2-2.3-6.1-3.8-8.9-1.5-2.9-2.5-6.1-4.6-8.6-2.1-2.5-4.4-4.9-7-6.9-2.6-1.9-5.9-2.8-8.8-4.2-2.9-1.3-6-2.3-9.2-3-3.1-.7-6.3-.7-9.6-.7s-6.6-.7-9.8 0c-3.2.7-6.1 2.5-9 3.8-3 1.4-6.5 2-9 4-2.6 2-4.5 4.8-6.6 7.3-2.1 2.5-3 5.7-4.5 8.6-1.5 2.9-3.1 5.6-3.9 8.8-.7 3.1-1.6 6.3-1.6 9.6s1.2 6.4 1.9 9.5c.8 3.2 1.7 6.2 3.1 9.1 1.5 2.9 2.9 5.8 5 8.3 2.1 2.5 5.1 3.9 7.7 5.9 2.6 1.9 4.6 4.7 7.6 6.1 2.9 1.3 6.3 1.2 9.5 1.9 3.1.7 6.2 1.2 9.5 1.2s6.7.8 9.8.1c3.2-.7 5.8-3.2 8.7-4.5 3-1.4 6.1-2.2 8.7-4.2 2.6-2 5.5-3.7 7.6-6.2 2.1-2.5 4.1-5.3 5.5-8.2 1.5-2.9 2.2-6.2 3-9.4.9-3.1.7-6.4.7-9.7z"/><path fill="#DDD2B0" stroke="#232323" stroke-width="3.5" stroke-linecap="round" stroke-linejoin="round" stroke-miterlimit="10" d="M209.8 186.7c0 22.5-18.2 40.8-40.8 40.8s-40.8-18.2-40.8-40.8c0-4.8.4-8.3 2-12.5 1.2-3.4 9.2 10.9 17.3-3.1 5.3-9.2-6.6-13.9-4-16.2 7.1-6.1 15.4-8.9 25.5-8.9 22.6 0 40.8 18.2 40.8 40.7z"/><ellipse fill="#fff" stroke="#232323" stroke-width="3.5" stroke-linecap="round" stroke-linejoin="round" stroke-miterlimit="10" cx="168.8" cy="186.7" rx="13.8" ry="13.4"/><g stroke="#262626" stroke-width="1.907" stroke-linecap="round" stroke-linejoin="round" fill="none"><path d="M152 156c.2-.1.4-.1.7-.1"/><path stroke-dasharray="1.394,8.364" d="M160 158c1.1-1.7 1.7-5.4 3.2-5.7 1.8-.3 4 4.9 5.9 4.9 6 0 12.8-3.5 17.7-.9 5.1 2.8 5.8 10.5 8.7 15.3 2.9 4.8 9.5 8.9 9.5 14.8s-6.6 10.1-9.5 14.8c-3 4.8-3.7 12.6-8.7 15.3-4.8 2.6-11.7-.9-17.7-.9s-12.8 3.5-17.7.9c-5.1-2.8-5.8-10.5-8.7-15.3-2.1-3.4-6.1-6.5-8.2-10.2"/><path d="M133.2 187.2v-.7"/></g><path stroke="#262626" stroke-width="1.784" stroke-linecap="round" stroke-linejoin="round" stroke-dasharray="1.738,6.9521" d="M194.8 186.6c0 4.1-4.5 6.9-6.5 10.2-2 3.3-2.5 8.6-5.9 10.5-3.3 1.8-8-.5-12.1-.5s-8.8 2.4-12.1.5c-3.5-1.9-3.9-7.2-5.9-10.5-2-3.3-6.5-6.1-6.5-10.2s4.5-6.9 6.5-10.2c2-3.3 2.5-8.6 5.9-10.5 3.3-1.8 8 .5 12.1.5s8.8-2.4 12.1-.5c3.5 1.9 3.9 7.2 5.9 10.5 2 3.3 6.5 6.1 6.5 10.2z" fill="none"/><path fill="#fff" d="M178.4 178.9c0 1.5-.3 2.8-.3 4.1 0 1.5-.3 2.8-.4 4-.1 1.5-.3 2.8-.7 3.9-.4 1.3-1.1 2.3-1.9 3.4-.7 1-1.4 2.1-2.6 3-.9.8-1.9 1.7-3.1 2.6"/><path stroke="#232323" stroke-width="3" stroke-linecap="round" stroke-linejoin="round" stroke-miterlimit="10" d="M178.4 178.9c0 1.5-.3 2.8-.3 4.1 0 1.5-.3 2.8-.4 4-.1 1.5-.3 2.8-.7 3.9-.4 1.3-1.1 2.3-1.9 3.4-.7 1-1.4 2.1-2.6 3-.9.8-1.9 1.7-3.1 2.6" fill="none"/><path stroke="#232323" stroke-width="3" stroke-miterlimit="10" d="M171.9 145.4c1.8-.4 3.6-.6 5.3-.7 1.8-.1 3.4 1.2 5.2 1.4 1.8.3 3.8-.8 5.5-.2 1.7.6 3.2 1.7 4.7 2.6 1.5.8 3.6 1.1 5 2.2s2.6 2.5 3.9 3.8c1.2 1.2 2.4 2.7 3.5 4.1 1.1 1.4.7 3.8 1.6 5.3.9 1.5 2 2.8 2.8 4.4.8 1.6 2.6 2.7 3.2 4.4.6 1.7.7 3.5 1.1 5.2.4 1.7.1 3.6.3 5.3.2 1.8.4 3.5.4 5.2 0 1.8 0 3.4-.2 5.1-.2 1.7-1 3.3-1.4 4.9-.4 1.7-.4 3.5-1 5-.6 1.6-1.6 3-2.5 4.5-.9 1.5-1.7 3-2.8 4.3-1.1 1.4-1.8 3.1-3 4.3-1.2 1.2-3.2 1.4-4.7 2.5-1.4 1-2.5 2.4-4 3.2-1.5.8-3.2 1.1-4.9 1.7-1.6.6-2.8 2.3-4.5 2.7-1.6.5-3.3 1.4-5 1.7-1.7.3-3.5-.3-5.3-.2-1.7.1-3.4-.8-5.2-.8" fill="none"/><path fill="#232323" d="M142.7 232.6h-.5c-.4 0-.8-.3-.8-.8s.3-.8.8-.8h.5c.4 0 .8.3.8.8s-.4.8-.8.8zM135 233.3h-1c-.4 0-.8-.3-.8-.8s.3-.8.8-.8h1.1c.4 0 .8.3.8.8s-.4.8-.9.8zm4.7-4.1h-1.1c-.4 0-.8-.3-.8-.8s.3-.8.8-.8h1.1c.4 0 .8.3.8.8s-.4.8-.8.8zm18 4.1h-1.1c-.4 0-.8-.3-.8-.8s.3-.8.8-.8h1.1c.4 0 .8.3.8.8s-.4.8-.8.8zm-5.2-1.5h-1.1c-.4 0-.8-.3-.8-.8s.3-.8.8-.8h1.1c.4 0 .8.3.8.8s-.4.8-.8.8zm-4.4 3.6H147c-.4 0-.8-.3-.8-.8s.3-.8.8-.8h1.1c.4 0 .8.3.8.8s-.4.8-.8.8zM169.1 235.4h-.5c-.4 0-.8-.3-.8-.8s.3-.8.8-.8h.5c.4 0 .8.3.8.8s-.4.8-.8.8z"/></svg>