<svg xmlns="http://www.w3.org/2000/svg" viewBox="0 0 112 138.5" enable-background="new 0 0 112 138.5"><path fill="#E4F9ED" d="M5 84.5c-2.1 7.3 3.5 12.9 12 12-1.6.9 79.9.9 78.3 0 8.5.9 14.1-4.7 12-12 2.1.4 2.1-19.1 0-18.7 2.1-7.3-3.5-12.9-12-12 1.6-.9-79.9-.9-78.3 0-8.4-.9-14 4.7-12 12-2-.4-2 19.1 0 18.7z"/><path stroke="#000" stroke-width="2" stroke-linecap="round" stroke-linejoin="round" stroke-miterlimit="10" d="M5 84.5c-2.1 7.3 3.5 12.9 12 12-1.6.9 79.9.9 78.3 0 8.5.9 14.1-4.7 12-12 2.1.4 2.1-19.1 0-18.7 2.1-7.3-3.5-12.9-12-12 1.6-.9-79.9-.9-78.3 0-8.4-.9-14 4.7-12 12-2-.4-2 19.1 0 18.7z" fill="none"/><path fill="#fff" stroke="#000" stroke-width="1.5" stroke-linecap="round" stroke-linejoin="round" stroke-miterlimit="10" d="M21.9 53.3h4.9V97h-4.9z"/><path stroke="#000" stroke-width="4.498" stroke-linecap="square" stroke-linejoin="round" stroke-miterlimit="10" d="M46.9 51.3c0-4.7 3.4-8.4 9.8-8.4 7 0 9.8 3.8 9.8 8.4" fill="none"/><path stroke="#101010" stroke-width="3.003" stroke-linecap="round" stroke-linejoin="round" stroke-miterlimit="10" d="M39.4 75.6c11.4.5 22.9.5 34.3 0" fill="none"/><path stroke="#fff" stroke-linecap="round" stroke-linejoin="round" stroke-miterlimit="10" stroke-dasharray="0.5835,2.2491" d="M39.4 75.6c11.2.5 22.5.5 33.7 0" fill="none"/><path stroke="#000" stroke-width="2.637" stroke-linecap="round" stroke-miterlimit="10" fill="none" d="M72 75.6v5"/><path fill="#fff" stroke="#000" stroke-width="1.5" stroke-linecap="round" stroke-linejoin="round" stroke-miterlimit="10" d="M85.5 53.3h4.9V97h-4.9z"/><path stroke="#fff" stroke-linecap="round" stroke-linejoin="round" stroke-miterlimit="10" stroke-dasharray="0.6737,2.2491" fill="none" d="M16.8 53.3h76.8"/><path stroke="#000" stroke-width="2.637" stroke-linecap="round" stroke-miterlimit="10" fill="none" d="M17.2 54v5"/></svg>