<svg xmlns="http://www.w3.org/2000/svg" viewBox="0 0 188 97.3" enable-background="new 0 0 188 97.3"><path fill="#F9F9F2" d="M15.9 55.4c0 1.7 1.3 3 3 3h152c1.7 0 3-1.3 3-3V24.9c0-1.7-1.3-3-3-3h-152c-1.7 0-3 1.3-3 3v30.5z"/><path stroke="#000" stroke-width="2" stroke-linecap="round" stroke-linejoin="round" stroke-miterlimit="10" d="M15.9 55.4c0 1.7 1.3 3 3 3h152c1.7 0 3-1.3 3-3V24.9c0-1.7-1.3-3-3-3h-152c-1.7 0-3 1.3-3 3v30.5zM172.9 46.7h-7.1V29h7.1" fill="none"/><path fill="#fff" stroke="#000" stroke-width="2" stroke-linecap="round" stroke-linejoin="round" stroke-miterlimit="10" d="M24.5 34.3h39.8v9.8H24.5zM70 34.3h39.8v9.8H70zM115.2 34.3H155v9.8h-39.8z"/><path fill="#F4AEAE" d="M155.6 51.2h-131c-.8 0-1.5-.7-1.5-1.5s.7-1.5 1.5-1.5h131.1c.8 0 1.5.7 1.5 1.5s-.7 1.5-1.6 1.5z"/><path stroke="#000" stroke-width="1.5" stroke-linecap="round" stroke-linejoin="round" stroke-miterlimit="10" fill="none" d="M8.6 61.3h174.3"/><path stroke="#000" stroke-width="2" stroke-linecap="round" stroke-linejoin="round" stroke-miterlimit="10" fill="none" d="M139.6 59.4H159M99.9 59.3h19.4M62.6 59.3H82M23.5 59.3h19.4"/><path d="M121 19H60.4c-.6 0-1-.4-1-1s.4-1 1-1H121c.6 0 1 .4 1 1s-.5 1-1 1zM125.3 15H102c-.6 0-1-.4-1-1s.4-1 1-1h23.3c.6 0 1 .4 1 1s-.5 1-1 1z"/><circle cx="168.4" cy="35.3" r="2.6"/><path stroke="#000" stroke-width="4" stroke-miterlimit="10" fill="none" d="M167.4 35.3v11.4"/><path stroke="#000" stroke-width="1.5" stroke-linecap="round" stroke-linejoin="round" stroke-miterlimit="10" fill="none" d="M4.6 58.3h174.3"/></svg>