<svg xmlns="http://www.w3.org/2000/svg" viewBox="102 -9 300 509" enable-background="new 102 -9 300 509"><path fill="#525241" stroke="#F5EDD0" stroke-width=".5" stroke-miterlimit="10" d="M187.3 287.3h-26.1c.4-2.7-2.9-34-.4-49.5 9.2-56.5 34.2-62.7 34.2-62.7l47.4-8 48.3 8s25.1 6.2 34.2 62.7c2.5 15.6-.3 47.3.2 50.1h-22.8m-20.5-65.7s6.2 12.7 7.6 22.8c1.5 10.4 2.1 22.5 12.8 42.8 0 0 12.7 48.2 12 91.3-.3 18 .1 40.2-3 43.9-1.8 2.1-19.5 5-20.5 4-16-16.1-34.9-89.5-40.6-106.8l9.1-2.6c-10.7 3.7-16.6 3.9-30.7.6l12 2.2c-7.2 20-9.9 91.5-27.5 107.2h-18.2c-22.9-58.7-5.7-151.8-5.7-151.8l14.9-53.7"/><path fill="#85876C" stroke="#F5EDD0" stroke-width=".5" stroke-miterlimit="10" d="M210.4 152.5c-.6-5.5-8.3-10.5-11-14.3-5.5-7.7-5.2-19.1-5.2-30.3 0-29.9 9-51.5 48.6-51.5 37.7 0 48 21.6 48 51.5 0 11.1-.3 22.7-6.1 30.6-2.2 3-10.6 8.1-11.3 14"/><path fill="#6B6D55" d="M276.6 154c0 .7-.8 1.8-1.8 2.2-21.3 8.3-45 8.3-66.3 0-1-.4-1.7-1.4-1.8-2.2 0-.7.8-1.4 1.8-1.5h66.2c1.1.1 1.9.8 1.9 1.5zm0 3.7c0 .7-.8 1.8-1.8 2.2-21.3 8.3-45 8.3-66.3 0-1-.4-1.7-1.4-1.8-2.2 0-.7.8-1.4 1.8-1.5h66.2c1.1.1 1.9.7 1.9 1.5z"/><path stroke="#38352C" stroke-width=".574" stroke-miterlimit="10" fill="none" d="M243.6 167.3v152.8"/><path fill="#525241" d="M289.1 124.5h3.9c1.2 0 2.1-7.2 2.1-16.1 0-8.9-1-16.1-2.1-16.1h-3.5"/><path fill="#D3C690" stroke="#F5EDD0" stroke-miterlimit="10" d="M290.1 252.7l3.2 15.6s-50.8-10.7-111.7-82.7c0 0 9.9-10.9 12.8-8.6 13.7 10.9 39.1 42.2 95.7 75.7z"/><path fill="#D3DB9B" d="M255.6 54s-6.6-3.8-14.2-3.8c-7.5 0-13.6 3.8-13.4 3.8 13.8-1.6 13.8-1.8 27.6 0z"/><path fill="#525241" d="M195.3 124.5h-3.7c-1.2 0-2.1-7.2-2.1-16.1 0-8.9 1-16.1 2.1-16.1h3.6m62.7-34.5v-2.9c0-1.2-7.2-2.1-16.1-2.1s-16.1 1-16.1 2.1v3.2"/><path fill="#85876C" stroke="#F5EDD0" stroke-miterlimit="10" d="M274 158.6c0 8 27.9 16 27.9 16 2 4.1-39.5-4.8-58.3-4.8-21.1 0-60.9 8.2-58.2 4.6 0 0 24.8-8.8 24.8-15.9"/><path stroke="#525241" stroke-width="3" stroke-linecap="round" stroke-miterlimit="10" d="M301.9 174.1c4.7 5.3-39.1-4.8-58.3-4.8-15.6 0-48.5 7.2-55.4 6.6-2.5-.2-3.7-1.2-3-1.8" fill="none"/><path fill="#85876C" stroke="#D3DB9B" stroke-miterlimit="10" d="M219.3 59.7l-.3-2.2c-.1-.6.6-1.3 1.5-1.6.9-.3 1.8-.1 1.9.5l.3 2.1m39.2 0l.4-2.2c.1-.6.9-.7 1.9-.4.9.3 1.6 1.1 1.5 1.7l-.4 2.1"/><path fill="#D3DB9B" d="M190.3 122.2c-3.1 0-3.7-5.6-3.7-13.2 0-7.5.6-14.2 3.7-14.2"/><circle fill="#525241" cx="242.9" cy="98.6" r="23.1"/><path fill="#D3DB9B" d="M294 122c2.8 0 3.3-5.6 3.3-13.2s-.5-14.2-3.3-14.2"/><path stroke="#231F20" stroke-width=".5" stroke-linecap="round" stroke-linejoin="round" stroke-miterlimit="10" stroke-dasharray="1,3" d="M195.5 127.2" fill="none"/><circle stroke="#D3DB9B" stroke-linecap="round" stroke-linejoin="round" stroke-miterlimit="10" stroke-dasharray="1,4" cx="242.4" cy="98.2" r="27.7" fill="none"/><circle stroke="#6B6D55" stroke-width="7" stroke-miterlimit="10" cx="241.8" cy="98" r="22.9" fill="none"/><path fill="#525241" d="M272.5 95.6c0 1.3-.7 2.3-3.7 2.3-3.3 0-3.7-1-3.7-2.3s.7-1.7 3.7-1.7 3.7.4 3.7 1.7z"/><circle fill="#D3DB9B" cx="242.1" cy="98.2" r="18.4"/><path fill="#6B6D55" d="M228.1 84.5c1.8 0 3.9.8 5.7 2.3l21.2 16.8c1.6 1.3 2.9 3 3.4 4.6.3 1.1.3 2-.1 2.4-.4.6-1.5.6-1.9.6-1.8 0-3.9-.8-5.7-2.3l-21.2-16.8c-3.3-2.6-4.2-6-3.4-7.1.6-.5 1.6-.5 2-.5m0-3.7c-2 0-3.7.7-4.8 2-2.4 3.1-.7 8.5 4 12.3l21.2 16.8c2.6 2.1 5.5 3.1 8.1 3.1 2 0 3.7-.7 4.8-2 2.4-3.1.7-8.5-4-12.3l-21.2-16.8c-2.7-2.1-5.6-3.1-8.1-3.1zm26.1 2.2c.4 0 1 .1 1.4.4 1 .9.6 4.3-2.2 7.3l-18.2 19.4c-1.8 1.9-4 3.1-5.8 3.1-.6 0-1.1-.2-1.4-.4-.4-.4-.6-1.3-.4-2.4.3-1.6 1.2-3.4 2.6-4.9l18.2-19.4c1.8-1.9 4-3.1 5.8-3.1m0-3.7c-2.7 0-5.9 1.5-8.5 4.2l-18.2 19.4c-4 4.2-4.9 9.9-2 12.6 1 1 2.4 1.4 3.9 1.4 2.7 0 5.9-1.5 8.5-4.2l18.2-19.4c4-4.2 4.9-9.9 2-12.6-1-.9-2.4-1.4-3.9-1.4z"/><circle fill="#525241" cx="224.8" cy="84.3" r="1.3"/><circle fill="#525241" cx="226.5" cy="115" r="1.3"/><circle fill="#525241" cx="260" cy="111.7" r="1.3"/><circle fill="#525241" cx="257.2" cy="82" r="1.3"/><circle fill="#404041" cx="174.9" cy="61.1" r="3"/><circle fill="#404041" cx="185.6" cy="61.2" r="2.6"/><circle fill="#404041" cx="186.4" cy="68.9" r="2"/><circle fill="#404041" cx="193.4" cy="68.7" r="2"/><circle fill="#404041" cx="173.4" cy="51.8" r="3.9"/><circle fill="#404041" cx="175.2" cy="40.8" r="3.2"/><circle fill="#404041" cx="162" cy="35.8" r="6.3"/><circle fill="#404041" cx="193.4" cy="75.7" r="1.3"/><circle fill="#404041" cx="158.5" cy="16" r="7.7"/><circle fill="#404041" cx="193.7" cy="80.6" r=".8"/><path stroke="#D3DB9B" stroke-linecap="round" stroke-linejoin="round" stroke-miterlimit="10" stroke-dasharray="1,4" d="M210.8 150.4h64.3" fill="none"/><path fill="#D3B72A" stroke="#F5EDD0" stroke-miterlimit="10" d="M176.1 495.5c8.9-7 20-.1 21 0 .7 0 6.7-8.6 19.1-4.6 1.7.5-1.2-59.6-2.3-59.6-4.6 0-10-1-19.1-1.1-7.1.1-20.9 67-18.7 65.3zm162.8-7.3c-9.9-5.3-19.6 3.3-20.7 3.6-.7.2-8.1-7.4-19.5-1.2-1.5.8-4.2-58.8-4.2-58.9 3.3-2.3 18.6-3.7 18.6-3.7 6.4 9.9 28.2 61.4 25.8 60.2z"/><path fill="#85876C" d="M217.2 430.4c-.1.9-1.1 1.5-2.3 1.4-7.4-.5-14.8-.5-22.2 0-1.2.1-2.2-.5-2.3-1.4s-.2-1.8-.2-2.7c-.1-.9.8-1.6 2.1-1.8 7.6-.5 15.3-.5 23 0 1.2.1 2.2.8 2.1 1.8 0 .9-.1 1.8-.2 2.7zm98.8-4.1c.1.8-.7 1.7-2 1.9-7.5 1.1-14.9 2.5-22.1 4.6-1.2.3-2.3-.1-2.5-1-.3-.8-.5-1.7-.7-2.5-.3-.8.5-1.8 1.7-2.1 7.4-2.1 15-3.7 22.8-4.7 1.3-.2 2.4.4 2.5 1.3.1.7.2 1.6.3 2.5zM159.7 289.7c0 .9 1.2 1.9 2.1 1.7 8.1-1.5 16.3-1.5 24.4 0 .8.2 2.1-.8 2.1-1.7v-.7c0-.9-.9-2-2.1-2.2-6-.9-14.7-1-24.4 0-1.5.2-2.1 1.3-2.1 2.2v.7z"/><path fill="#D3B72A" stroke="#F5EDD0" stroke-width=".5" stroke-miterlimit="10" d="M183.1 293.6c.4-.2.8-.3 1.3-.3 2.4 0 4.6 4.5 5.2 10.4.9 9.1.3 14.1-2.1 14.1-2.3 0-3.6-2.2-4.6-5.1m-6.9 11.5c-15.1.8-15.2-12.1-15.8-20.9-.3-4.8-.8-8.6 2.4-9.8 2-.7 7-.4 9.6-.4 2.5-.1 9.3-.3 11.7.7 3.9 1.6 2.7 6.2 1 10.7-3.4 8.8-1.5 19.3-8.9 19.7z"/><path fill="#F5EDD0" d="M160.7 293.3c0 .7.7 1.4 1.6 1.3 7.2-1.4 11.9.5 23.9 0 .8-.1 1.6-.6 1.6-1.3v-1.4c0-.7-.7-1.3-1.6-1.3 0 0-17.4-1.4-23.9 0-.8.2-1.6.6-1.6 1.3v1.4z"/><path fill="#525241" d="M300.3 286.1h23.6"/><path fill="#D3B72A" stroke="#F5EDD0" stroke-width=".5" stroke-miterlimit="10" d="M313.9 322c13.6.8 11.4-10.9 11.8-18.8.3-4.4.7-7.8-2.2-8.9-1.8-.6-6.3-.3-8.6-.4-2.3-.1-8.4-.3-10.6.6-3.6 1.5-2.4 5.5-.8 9.7.4 1.2.8 2.3 1.2 3.5 2.2 7 3.5 14 9.2 14.3zm-9.3-27.4c-.5-.5-1.2-.8-1.9-.8-2.1 0-3.9 3.8-4.4 8.8-.8 7.7-.3 11.9 1.8 11.9 2.6 0 3.7-3.2 4.6-6.8"/><path fill="#85876C" d="M298.6 290.2c0 .9 1.2 1.9 2.1 1.7 8.1-1.5 16.3-1.5 24.4 0 .8.2 2.1-.8 2.1-1.7v-.7c0-.9-.9-2-2.1-2.2-6-.9-14.7-1-24.4 0-1.5.2-2.1 1.3-2.1 2.2v.7z"/><path fill="#F5EDD0" d="M299.5 293.8c0 .7.7 1.4 1.6 1.3 1.2-.2 2.4-.4 3.5-.5 5.5-.4 10.5.9 20.4.5.8-.1 1.6-.6 1.6-1.3v-1.4c0-.7-.7-1.3-1.6-1.3 0 0-17.4-1.4-23.9 0-.8.2-1.6.6-1.6 1.3v1.4z"/><path stroke="#D3C690" stroke-miterlimit="10" stroke-dasharray="4,5" d="M231.9 368.6M183.3 365.7M314 365.7M265.7 371.5" fill="none"/><path fill="#D3C690" d="M298.7 282.3c0-.1-24.4 2.5-50.3 2.9-25.9.7-53.2-.9-58.8-1.6-.5-.1-1.4-1-1.4-1 .9-3.9 1.7-7.9 2.6-11.8 34.2 2.2 68.5 1.8 102.5-1.1 1.9 4.2 3.6 8.4 5.4 12.6z"/><path stroke="#F5EDD0" stroke-miterlimit="10" d="M298.7 282.3c0-.1-24.4 2.5-50.3 2.9-25.9.7-53.2-.9-58.8-1.6-.5-.1-1.4-1-1.4-1 .9-3.9 1.7-7.9 2.6-11.8 34.2 2.2 68.5 1.8 102.5-1.1 1.9 4.2 3.6 8.4 5.4 12.6z" fill="none"/><path fill="#D3C690" stroke="#F5EDD0" stroke-miterlimit="10" d="M196.1 252.5l-4.3 15.7s51.8-10.3 112.7-82.3c0 0-10.3-11-12.4-8.9-12.9 12-39.5 42.1-96 75.5z"/><circle fill="#525241" cx="191.7" cy="186" r="2.7"/><circle fill="#525241" cx="198.7" cy="192.4" r="2.7"/><circle fill="#525241" cx="295.2" cy="185.5" r="2.7"/><circle fill="#525241" cx="288.8" cy="192.5" r="2.7"/></svg>