<?xml version="1.0" encoding="utf-8"?>
<!-- Generator: Adobe Illustrator 17.1.0, SVG Export Plug-In . SVG Version: 6.00 Build 0)  -->
<!DOCTYPE svg PUBLIC "-//W3C//DTD SVG 1.1//EN" "http://www.w3.org/Graphics/SVG/1.1/DTD/svg11.dtd">
<svg version="1.1" id="Layer_1" xmlns="http://www.w3.org/2000/svg" xmlns:xlink="http://www.w3.org/1999/xlink" x="0px" y="0px"
	 viewBox="0 0 427.5 381" enable-background="new 0 0 427.5 381" xml:space="preserve">
<circle fill="#FFC6AE" cx="220.8" cy="189.2" r="184"/>
<g>
	<path fill="#FFFFFF" d="M226.1,224.4c1.7,0,3.4-0.5,5.1-0.8c0.8-0.2,1.4-0.3,2.3-0.3c1.1,0,1.9-0.2,3-0.3c1.7-0.2,3.4,0,5.1,0
		c2.9,0,5.8-0.2,8.7,0.4c4.7,0.9,9.1,2.1,13.3,4.2c0.7,0.3,1.5,0.6,2.2,1c0.7,0.4,1.1,1.1,1.8,1.5c2,1.2,3.9,2.1,6,3
		c2.2,1,4.2,2.1,6.2,3.3c1.3,0.8,2.7,1.4,4,2.2c1.1,0.7,2.1,1.5,3,2.4c1.2,1.2,2.5,2.3,3.5,3.6c1.4,1.6,2.7,3.6,3.9,5.3
		c1.1,1.6,2.2,3.4,2.4,5.4c0.1,1.7,0,3.2-0.7,4.7c-0.8,1.6-1.6,3.2-2.5,4.8c-0.3,0.6-0.6,1.1-0.9,1.7c-0.2,0.4-0.5,0.8-0.7,1.2
		c0,0.1-0.2,0.9-0.3,1.1c-0.7,0.7-1.9-0.2-2.7,0.5c-0.7,0.6-1.2,1.7-1.7,2.4c-1.2,1.6-2.4,3.2-3.5,4.8c-0.6,0.8-1.2,1.6-1.7,2.4
		c-0.5,0.9-0.4,1.5-0.5,2.4c-0.1,0.5-0.4,0.9-0.4,1.5c0,0.5,0,1-0.1,1.5c-0.2,1.4-0.6,3.1-1.5,4.3c-0.6,0.7-1.2,1.5-1.9,2.1
		c-0.7,0.7-1.2,1.6-2.1,2.1c-1.3,0.7-2.6,1.1-4,1.4c-0.9,0.2-1.7,0-2,0.9c-0.2,0.7-0.1,1.5-0.5,2.1c-0.4,0.7-1,1.2-1.4,1.8
		c-0.7,1-1.3,1.7-2.1,2.6c-1.1,1.2-1.9,2-3.4,2.5c-0.7,0.2-1.5,0.5-2,1.1c-0.3,0.4-0.3,0.8-0.5,1.3c-0.2,0.5-0.6,0.8-1,1.2
		c-0.8,0.9-1.3,1.9-2.5,2.5c-0.7,0.4-1.5,0.7-2.2,1.1c-0.6,0.3-1.2,0.4-1.8,0.5c-0.3,0.1-0.5,0.2-0.9,0.3c-0.4,0.1-0.9-0.1-1.4,0
		c-0.7,0.3-1,1.1-1.8,1.4c-0.3,0.1-0.8,0-1.1,0.1c-0.4,0.1-0.8,0.4-1.2,0.6c-0.6,0.2-1.3,0.4-1.9,0.5c-0.8,0.2-1.8,0.1-2.5,0.5
		c-0.7,0.3-1.2,1.1-1.8,1.6c-0.8,0.6-1.6,1-2.4,1.4c-0.7,0.3-1.4,0.6-2,0.9c-1,0.5-2,0.7-3.1,1.1c-2.1,0.8-4.6,0.8-6.9,1.2
		c-1.7,0.3-3.3,1.4-5,1.4c-2,0-3-0.6-3.5-2.6c-0.5-1.7-0.8-3.8-0.4-5.6c0.6-2.8,2.3-4.8,4-7c0.8-1.1,1.8-1.7,2.7-2.7
		c0.4-0.4,1.2-1.6,1.1-2.2c-0.7-0.7-2.3,1-2.8,1.4c-1.4,1.1-2.9,1.4-4.2,2.7c-1.1,1-2,2.3-3.4,2.9c-0.9,0.4-1.9,0.8-2.8,1.1
		c-1.1,0.3-2.3,0.4-3.4,0.8c-1,0.3-2,1.3-3.1,1.1c-1.3-0.2-2.3-1.7-3.1-2.6c-1-0.9-2-1.7-2.8-2.8c-0.4-0.7-0.7-1.4-1-2.1
		c-0.7-1.6-1.4-1.8-3.1-1.8c-2.2,0-4.4,0-6.6,0c-1.2,0-2.1,0.1-3.2-0.5c-1.3-0.8-2.3-2.1-3-3.5c-0.7-1.3-0.9-2.8-1.3-4.2
		c-0.3-0.9,0-2-0.3-2.9c-1.4,2.6-4.8,2.1-7.3,2.1c-1,0-2.6,0-3.5-0.4c-0.6-0.3-0.7-0.7-0.9-1.2c-0.9-2.2-2.3-4.2-3.5-6.2
		c-1.1-1.9-2.4-3.9-3.3-5.9c-0.3-0.7-0.5-1.4-0.4-2.2c0.2-1.5,1.3-1.4,2.3-2.3c0.7-0.6,1.1-0.9,1.9-1.4c1.2-0.8,2-2.1,2.9-3.2
		c1.3-1.5,2.6-2.2,4.2-3.4c1.1-0.9,1.7-1.9,2.6-3c0.9-1,1.9-1.9,2.9-2.7c2.2-1.9,4-4.2,5.9-6.4c3.4-3.8,8.2-6,12.9-7.8
		c3.1-1.2,6.1-2.5,9.4-3.1c1.7-0.3,3.3-0.6,5-0.9c3.4-0.6,5.6-4.7,7.7-7.1c1.6-1.9,3.4-3.7,4.8-5.7c0.9-1.3,1.6-2.3,1.8-3.9
		C225.1,226.7,226.1,225.7,226.1,224.4"/>
	<g>
		<path d="M278.4,280.2c-0.3,0.6-0.3,1.2,0,1.8c0.4,0.8,1.5,1,2.3,0.6c3.2-1.8,5.9-6.2,8.4-8.8c3.2-3.5,6.6-8.1,10.4-11
			c1.7-1.3,0-4.2-1.7-2.9c-3.5,2.7-6.4,6.5-9.4,9.7c-2,2.2-4,4.4-6,6.6c-0.7,0.8-1.5,1.6-2.2,2.4c-0.2,0.3-1.5,1.3-1,1.1
			c0.8,0.2,1.6,0.4,2.4,0.6c0,0,0.1,0,0.1,0c0,0.6,0,1.1,0,1.7c0,0-0.1,0-0.1-0.1C282.3,279.9,279.3,278.2,278.4,280.2L278.4,280.2z
			"/>
	</g>
	<g>
		<path fill="#FFFFFF" d="M248.9,251.7c-5.2,2.7-9,1-14.2-0.6c-4.9-1.4-10.1-2.2-15.1-2.9c-8.2-1-15.3-0.7-22.8,3.2
			c-7.2,3.7-13.2,9.4-18.4,15.5c-4.5,5.3-13.2,13.5-12.9,20.8c0-0.2-11-6.7-12.1-7.4c-8.8-5.7-17.6-16.4-20.5-21.2
			c4.5-15.6,17.6-29,32.9-34.7c0,0,34-8.2,51.7-3.4c7.6,2.1,15.2,5.2,21.7,9.6c4.7,3.1,10.4,7.3,12.2,12.8
			C252.6,247.1,252.4,249.9,248.9,251.7z"/>
		<g>
			<path d="M248,250.3c-5.6,2.5-10.7-0.2-16.2-1.6c-4.6-1.1-9.3-1.7-14-2.2c-9.4-1.1-18.1,0.9-26.1,6c-7,4.5-12.3,10.9-17.8,17
				c-4.6,5.1-10,11-10.2,18.3c1-0.4,1.9-0.8,2.9-1.2c-3.2-2.8-7.7-4.8-11.3-7c-7.4-4.5-13.6-11.1-18.8-18c-0.7-1-2.1-2.1-1.7-3.4
				c0.8-2.7,2-5.3,3.3-7.8c2.3-4.3,5.3-8.2,8.7-11.7c5-5.2,12.6-11.2,19.8-12.9c12-2.8,24.4-4.7,36.7-4.7c9.2-0.1,17.5,2.2,25.9,5.9
				c4.8,2.1,9.3,4.9,13.4,8.1C246.4,238,254.5,246.3,248,250.3c-1.8,1.1-0.1,4,1.7,2.9c8.1-5.1,1.9-14.6-3.4-19.3
				c-8.3-7.5-19.7-12.6-30.5-14.9c-15.5-3.4-33.1,0.1-48.3,3.4c-17,3.7-31.3,20.3-36.2,36.4c-0.7,2.2,3.8,6.4,5.1,8
				c3.6,4.4,7.7,8.5,12.1,12.1c4.8,3.9,11.4,6.2,15.8,10.1c1.1,1,2.8,0.3,2.9-1.2c0.2-7.4,7.1-13.5,11.7-18.7
				c6.3-7,12.7-13.7,21.6-17.4c8.6-3.6,18.3-2,27.2-0.4c7.7,1.4,14.4,5.4,22.1,2C251.7,252.3,250,249.4,248,250.3z"/>
		</g>
	</g>
	<g>
		<path d="M226.5,225.1c12.9-2,26.5-1,38.3,4.9c0.7,0.3,1.5,0.3,2-0.3c0.7-0.7,1.4-1.4,2.1-2.1c1.5-1.5-0.8-3.9-2.4-2.4
			c-0.7,0.7-1.4,1.4-2.1,2.1c0.7-0.1,1.4-0.2,2-0.3c-12.7-6.3-27.1-7.4-40.9-5.2C223.5,222.2,224.4,225.5,226.5,225.1L226.5,225.1z"
			/>
	</g>
	<g>
		<path d="M223.4,280.6c-5.4,4.8-12.3,7.4-17.8,12.2c-5,4.4-12,11.2-19.2,8.9c-9.8-3.2,0-14.2,4.2-17.8c3.4-2.9,7-5.7,10.6-8.3
			c3.3-2.5,7-4,10.5-6.1c1.9-1.1,0.2-3.8-1.7-2.9c-8.1,3.7-15.5,9.1-22.2,15c-3.2,2.8-5.7,6.5-9.1,9c-4.5,3.3-10.3,2.8-11.7-3.2
			c-0.5-2.1-3.7-1.2-3.2,0.9c2.1,8.9,11.6,9.6,17.9,4.2c4.6-3.9,8.3-8.6,13.1-12.4c5.2-4.1,10.9-7.8,16.9-10.6
			c-0.6-1-1.1-1.9-1.7-2.9c-4.6,2.7-9.1,5-13.4,8.2c-3.9,3-7.8,6.1-11.4,9.5c-4.8,4.5-9.2,13.1-3.4,18.6c5.6,5.3,13.5,1.8,18.9-1.8
			c4.2-2.8,7.6-6.6,11.9-9.4c4.5-2.9,9.2-5.2,13.2-8.8C227.4,281.6,225,279.2,223.4,280.6L223.4,280.6z"/>
	</g>
	<g>
		<path d="M238.9,313.6c-5,3.4-12.7,9.1-18.9,6.2c-10.9-5,14.1-22.1,17.9-24.2c1.9-1,0.2-3.8-1.7-2.9c-7.2,3.2-12.6,9.1-19.2,13.3
			c-2.8,1.8-5.8,3.4-8.9,4.5c-2.3,0.8-4.7,1.1-7,0.1c-3.6-1.6-3.9-6.1-1.5-8.7c1.5-1.6-0.9-4-2.4-2.4c-6.4,6.9,0.6,16.6,9.2,14.8
			c12.5-2.7,20.2-13.7,31.4-18.8c-0.6-1-1.1-1.9-1.7-2.9c-6.1,3.2-12,7.9-16.9,12.8c-3.7,3.8-6.7,9.1-4.1,14.2
			c4.9,9.8,19.7,0.5,25.3-3.3C242.4,315.2,240.7,312.3,238.9,313.6L238.9,313.6z"/>
	</g>
	<g>
		<path d="M241.8,314.8c0.3-3.2-0.7-6.3-1.9-9.3c-0.4-1-1.2-2-0.3-3c0.8-0.9,2.3-1.2,3.5-1c1.9,0.3,2.9,2.1,3.8,3.5
			c1.3,1.9,2.4,4,2,6.3c-0.6,2.7-5.5,4.5-7.5,2.5c-1.5-1.5-3.9,0.8-2.4,2.4c3.3,3.2,8.6,1.7,11.5-1.2c4.4-4.3,0.1-10.8-2.8-14.5
			c-2.6-3.3-8.1-3-10.7,0c-1.2,1.3-1.4,3.1-0.8,4.7c1.3,3.1,2.6,6.1,2.3,9.6C238.3,317,241.6,316.9,241.8,314.8L241.8,314.8z"/>
	</g>
	<g>
		<path d="M247.3,300.1c-2.5-2.7-3.6-6.9,0.8-8.3c3.3-1.1,6.3,2.2,8.1,4.5c1.7,2.2,3.1,4.9,3.4,7.7c0.5,3.7-4.1,7.8-7.7,6.4
			c-2-0.8-2.9,2.5-0.9,3.2c4.6,1.7,10.2-2.1,11.5-6.6c1.5-5.2-1.8-10.5-5-14.3c-3.2-3.8-8.6-5.8-13-2.8c-4.7,3.2-2.8,9.2,0.4,12.6
			C246.5,304,248.8,301.6,247.3,300.1L247.3,300.1z"/>
	</g>
	<g>
		<path d="M255.2,290.3c-2.1-2.5-2.5-5.8-0.2-8.3c2.7-3,6.7,0,8.7,2.2c2.3,2.5,4,6.1,4.4,9.4c0.4,3.7-3.2,8.2-6.9,8.2
			c-2.2,0-2.2,3.3,0,3.3c5.2,0,8.8-4.5,10-9.2c1.5-5.6-3.1-12.3-6.9-15.9c-3.6-3.4-8.9-3.6-12.2,0.1c-3.3,3.7-2.2,9,0.8,12.4
			C254.3,294.3,256.6,292,255.2,290.3L255.2,290.3z"/>
	</g>
	<g>
		<path d="M261.9,278.8c-3.1-5.9,0.6-11.1,7.2-9.3c3.1,0.9,5.4,3.6,7,6.2c4.1,6.8,1.8,13.8-5.7,16.4c-2,0.7-1.2,3.9,0.9,3.2
			c10.9-3.8,13.2-15.2,5.9-23.9c-3.4-4-9.3-7.5-14.6-5.1c-5.9,2.7-6.4,8.9-3.6,14.1C260,282.4,262.9,280.7,261.9,278.8L261.9,278.8z
			"/>
	</g>
	<g>
		<path fill="#FFFFFF" d="M423,166.6c-66.4,43.5-116.6,88.9-116.6,88.9c-0.9,0.6-7.1,5.3-7.9,5.8c-4.5-15.6-17.3-27-32.6-32.8
			c48-47.4,112.3-97.5,133.7-107.1C413.8,129.1,424.1,151.2,423,166.6z"/>
		<g>
			<path d="M422.1,165.2c-30.4,20-59.8,41.7-88,64.7c-12.2,9.9-23.7,21-36.5,30c0.8,0.3,1.6,0.7,2.5,1c-5-16.4-18.1-27.9-33.8-34
				c0.2,0.9,0.5,1.9,0.7,2.8c30.2-29.8,62.6-57.6,96.7-83c10.8-8.1,21.9-16.2,33.9-22.5c1-0.5,1.9-1,2.2-0.8
				c2.1,1.2,3.9,2.8,5.7,4.4c3.6,3.3,6.4,7.4,8.8,11.6c4.7,8.1,7.5,17.8,7,27.2c-0.1,2.2,3.2,2.1,3.3,0c0.9-17.2-8.5-36.8-23.2-46
				c-3.6-2.2-10,3.2-13.1,5.1c-6.9,4.2-13.4,8.8-20,13.5c-36.7,26.5-71.4,56.4-103.7,88.1c-1,1-0.4,2.4,0.7,2.8
				c14.5,5.7,26.8,16.4,31.4,31.6c0.3,1,1.5,1.6,2.5,1c12.1-8.6,22.8-18.9,34.3-28.2c28.9-23.7,59-46,90.2-66.5
				C425.6,166.9,423.9,164,422.1,165.2z"/>
		</g>
	</g>
	<g>
		<defs>
			<path id="SVGID_1_" d="M422.5,168.7c-21.3,12.2-59.1,35.7-92.5,66l-27.1,22.2c-0.8,0.6-1.7,1.3-2.5,2
				c-5.8-15.1-19.7-25.3-35.5-29.7c43.5-51.6,113.1-93.7,133.5-105.2C413.4,130.3,422.2,153.2,422.5,168.7z"/>
		</defs>
		<clipPath id="SVGID_2_">
			<use xlink:href="#SVGID_1_"  overflow="visible"/>
		</clipPath>
		<g clip-path="url(#SVGID_2_)">
			<path fill="none" stroke="#000000" stroke-width="2.7889" stroke-miterlimit="10" d="M265.8,224c30.2,5.4,38,28,38.4,33"/>
			<path fill="none" stroke="#000000" stroke-width="2.7889" stroke-miterlimit="10" d="M272,219c30.1,5.8,37.5,29,37.9,33.8"/>
			<path fill="none" stroke="#000000" stroke-width="2.7889" stroke-miterlimit="10" d="M278.2,214.1c30.1,6.2,37,30,37.4,34.5"/>
			<path fill="none" stroke="#000000" stroke-width="2.7889" stroke-miterlimit="10" d="M284.4,209.1c30,6.6,36.5,30.9,36.9,35.2"/>
			<path fill="none" stroke="#000000" stroke-width="2.7889" stroke-miterlimit="10" d="M290.6,204.1c30,7.1,36,31.9,36.4,36"/>
			<path fill="none" stroke="#000000" stroke-width="2.7889" stroke-miterlimit="10" d="M296.7,199.2c30,7.5,35.5,32.9,35.9,36.7"/>
			<path fill="none" stroke="#000000" stroke-width="2.7889" stroke-miterlimit="10" d="M302.9,194.2c29.9,7.9,35.1,33.9,35.4,37.4"
				/>
			<path fill="none" stroke="#000000" stroke-width="2.7889" stroke-miterlimit="10" d="M309.1,189.2c29.9,8.3,34.6,34.9,34.9,38.1"
				/>
			<path fill="none" stroke="#000000" stroke-width="2.7889" stroke-miterlimit="10" d="M315.3,184.3c29.8,8.7,34.1,35.9,34.4,38.9"
				/>
			<path fill="none" stroke="#000000" stroke-width="2.7889" stroke-miterlimit="10" d="M321.5,179.3c29.8,9.2,33.6,36.8,33.9,39.6"
				/>
			<path fill="none" stroke="#000000" stroke-width="2.7889" stroke-miterlimit="10" d="M327.7,174.3c29.7,9.6,33.1,37.8,33.3,40.3"
				/>
			<path fill="none" stroke="#000000" stroke-width="2.7889" stroke-miterlimit="10" d="M333.9,169.4c29.7,10,32.6,38.8,32.8,41.1"
				/>
			<path fill="none" stroke="#000000" stroke-width="2.7889" stroke-miterlimit="10" d="M340.1,164.4c29.6,10.4,32.1,39.8,32.3,41.8
				"/>
			<path fill="none" stroke="#000000" stroke-width="2.7889" stroke-miterlimit="10" d="M346.3,159.5c29.6,10.9,31.7,40.8,31.8,42.5
				"/>
			<path fill="none" stroke="#000000" stroke-width="2.7889" stroke-miterlimit="10" d="M352.5,154.5c29.6,11.3,31.2,41.8,31.3,43.3
				"/>
			<path fill="none" stroke="#000000" stroke-width="2.7889" stroke-miterlimit="10" d="M358.7,149.5c29.5,11.7,30.7,42.8,30.8,44"
				/>
			<path fill="none" stroke="#000000" stroke-width="2.7889" stroke-miterlimit="10" d="M364.9,144.6c29.5,12.1,30.2,43.7,30.3,44.7
				"/>
			<path fill="none" stroke="#000000" stroke-width="2.7889" stroke-miterlimit="10" d="M371.1,139.6c29.4,12.5,29.7,44.7,29.8,45.5
				"/>
			<path fill="none" stroke="#000000" stroke-width="2.7889" stroke-miterlimit="10" d="M377.3,134.6c29.4,13,29.2,45.7,29.3,46.2"
				/>
			<path fill="none" stroke="#000000" stroke-width="2.7889" stroke-miterlimit="10" d="M383.5,129.7c29.3,13.4,28.8,46.7,28.8,46.9
				"/>
			<path fill="none" stroke="#000000" stroke-width="2.7889" stroke-miterlimit="10" d="M389.7,124.7c29.3,13.8,28.3,47.7,28.3,47.7
				"/>
		</g>
	</g>
	<g>
		<path fill="#FFFFFF" d="M165.8,224.4c-15.3,5.8-28.4,19.2-32.9,34.7c-0.9-0.6-7-5.3-7.9-5.8c0,0-50.2-45.4-116.6-88.9
			C7.3,149,17.6,127,31.8,119.3C53.1,128.9,117.7,177,165.8,224.4z"/>
		<g>
			<path d="M165.3,222.8c-16,6.3-29,19.3-34.1,35.9c0.8-0.3,1.6-0.7,2.5-1c-7.8-5.5-14.7-11.9-22.1-18.1
				c-17-14.4-34.5-28.2-52.4-41.5c-12.2-9.1-24.5-17.9-37.1-26.4c-3.2-2.2-6.4-4.3-9.7-6.5c-3-2-2.6-3.4-2.3-6.8
				c0.5-6.5,2.8-12.8,5.6-18.6c2.6-5.2,6-10,10.1-14.1c0.7-0.7,5.4-4.8,5.6-4.7c1.4,0.7,2.8,1.4,4.2,2.2c7.3,3.9,14.3,8.6,21.1,13.3
				c38.4,26.2,74.6,56.6,107.7,89.2c1.5,1.5,3.9-0.9,2.4-2.4c-20.2-19.9-41.7-38.6-63.8-56.4c-17.7-14.2-35.8-28-54.9-40.2
				c-3.1-2-6.2-3.9-9.4-5.7c-1.6-0.9-5.5-3.9-7.4-3.3c-3.9,1.1-8,5.7-10.6,8.6c-3.8,4.3-6.7,9.3-9.1,14.4c-2.2,4.7-3.6,9.7-4.5,14.8
				c-0.7,4.3-1.9,9,2,11.6c13.1,8.6,25.9,17.6,38.6,26.8c20.6,14.9,40.6,30.6,60.1,47c8,6.7,15.7,13.8,24.2,19.9
				c0.9,0.6,2.2,0,2.5-1c4.7-15.4,16.8-27.7,31.7-33.6C168.2,225.3,167.3,222,165.3,222.8z"/>
		</g>
	</g>
</g>
<path fill="none" stroke="#000000" stroke-width="66.9333" stroke-miterlimit="10" d="M424.6,133.2c-41.8,0.8-42-10.4-83.8-9.6
	c-41.8,0.8-41.6,11.9-83.4,12.7c-41.8,0.8-42-10.4-83.8-9.6c-41.8,0.8-41.6,11.9-83.4,12.7c-41.8,0.8-42-10.4-83.8-9.6"/>
<text transform="matrix(0.9996 -2.724000e-02 2.724000e-02 0.9996 41.1456 155.3329)" fill="#FFFFFF" font-family="'Campton-BoldDEMO'" font-size="61.3555" letter-spacing="2">inCahoots!</text>
<text transform="matrix(1 0 0 1 172.1292 198.821)" font-family="'Campton-BoldDEMO'" font-size="25.6577" letter-spacing="1">design</text>
</svg>
