<?xml version="1.0" encoding="utf-8"?>
<!-- Generator: Adobe Illustrator 17.1.0, SVG Export Plug-In . SVG Version: 6.00 Build 0)  -->
<!DOCTYPE svg PUBLIC "-//W3C//DTD SVG 1.1//EN" "http://www.w3.org/Graphics/SVG/1.1/DTD/svg11.dtd">
<svg version="1.1" id="Layer_1" xmlns="http://www.w3.org/2000/svg" xmlns:xlink="http://www.w3.org/1999/xlink" x="0px" y="0px"
	 viewBox="0 0 500 500" enable-background="new 0 0 500 500" xml:space="preserve">
<rect x="173.1" y="391.9" fill="#C83B27" width="158.9" height="47.9"/>
<path fill="#D63F27" d="M183,314.9h68.7h0.8h70c0.7,4.8,3.7,55.2,3.7,55.2l5.8,22.7l-79.9,2.6l0,0l-79-3.6l6-23.2
	c0,0,1.7-50.5,2.6-53.8"/>
<polygon fill="#606057" stroke="#F4F4F2" stroke-width="2.7253" stroke-miterlimit="10" points="317.9,322.9 321.2,369.5 
	326.4,386.9 177.9,386.9 182.9,369.4 185.7,322.9 "/>
<polyline fill="#51514C" points="320,370 324.6,385.7 179.8,385.6 184.2,370 "/>
<rect x="195.8" y="369.1" fill="#C3C3C1" width="6.2" height="11.4"/>
<rect x="195.8" y="366.9" fill="#E1E1DB" width="6.2" height="11.4"/>
<g>
	<rect x="208.9" y="369.1" fill="#C3C3C1" width="6.2" height="11.4"/>
	<rect x="208.9" y="366.9" fill="#E1E1DB" width="6.2" height="11.4"/>
</g>
<g>
	<rect x="221.4" y="368.9" fill="#C3C3C1" width="6.2" height="11.4"/>
	<rect x="221.4" y="366.7" fill="#E1E1DB" width="6.2" height="11.4"/>
</g>
<g>
	<rect x="282.4" y="368.6" fill="#C3C3C1" width="6.2" height="11.4"/>
	<rect x="282.4" y="366.4" fill="#E1E1DB" width="6.2" height="11.4"/>
</g>
<g>
	<rect x="305.5" y="369.1" fill="#C3C3C1" width="6.2" height="11.4"/>
	<rect x="305.5" y="366.9" fill="#E1E1DB" width="6.2" height="11.4"/>
</g>
<g>
	<rect x="293.4" y="369.1" fill="#C3C3C1" width="6.2" height="11.4"/>
	<rect x="293.4" y="366.9" fill="#E1E1DB" width="6.2" height="11.4"/>
</g>
<linearGradient id="SVGID_1_" gradientUnits="userSpaceOnUse" x1="205.3858" y1="307.6976" x2="298.8558" y2="307.6976">
	<stop  offset="0" style="stop-color:#58595B"/>
	<stop  offset="0.5084" style="stop-color:#6D6E70"/>
	<stop  offset="1" style="stop-color:#58595B"/>
</linearGradient>
<rect x="205.4" y="303.2" fill="url(#SVGID_1_)" stroke="#FFFFFF" stroke-width="1.3627" stroke-miterlimit="10" width="93.5" height="8.9"/>
<polygon fill="#F4F4F2" points="318.5,324.3 252.6,370 186.3,324.3 "/>
<line fill="none" x1="192.5" y1="380.3" x2="330.7" y2="380.4"/>
<polygon fill="#DB4128" points="261.1,380.5 243.1,380.5 239.7,378.5 243.1,376.7 261.1,376.7 264.5,378.5 "/>
<rect x="196.3" y="95.9" fill="#D63F27" width="114.5" height="7.8"/>
<g>
	<polygon fill="#D7C628" points="252.2,381.2 244.9,378.2 252.1,375 259.3,377.9 	"/>
	<polyline fill="#CCB82F" points="259.3,378.1 252.2,381.3 244.9,378.3 	"/>
</g>
<polyline fill="none" stroke="#FFFFFF" stroke-width="1.3627" stroke-linecap="round" stroke-linejoin="round" stroke-miterlimit="10" points="
	189.9,150 238.6,139.6 301.6,150 "/>
<line fill="none" stroke="#404041" stroke-width="0.3407" stroke-miterlimit="10" x1="208.9" y1="326.3" x2="292" y2="326.3"/>
<line fill="none" stroke="#404041" stroke-width="0.3407" stroke-miterlimit="10" x1="219.8" y1="333.5" x2="286.2" y2="333.5"/>
<path fill="none" stroke="#404041" stroke-width="0.3407" stroke-miterlimit="10" d="M273.9,341.6"/>
<polyline fill="none" stroke="#FFFFFF" stroke-width="1.3627" stroke-linecap="round" stroke-linejoin="round" stroke-miterlimit="10" points="
	189.9,124 238.6,113.6 301.6,124 "/>
<path fill="none" stroke="#404041" stroke-width="0.3407" stroke-miterlimit="10" d="M232.8,341.6"/>
<linearGradient id="SVGID_2_" gradientUnits="userSpaceOnUse" x1="218.4204" y1="294.7763" x2="290.1982" y2="294.7763">
	<stop  offset="0" style="stop-color:#58595B"/>
	<stop  offset="0.5084" style="stop-color:#6D6E70"/>
	<stop  offset="1" style="stop-color:#58595B"/>
</linearGradient>
<rect x="218.4" y="288.4" fill="url(#SVGID_2_)" stroke="#FFFFFF" stroke-width="1.3627" stroke-miterlimit="10" width="71.8" height="12.8"/>
<path opacity="0.57" fill="#D3E6EA" d="M252.6,284.3h34.8c3.2,0,4.7-2.4,5.9-5.9c0,0,10.3-12,14-79.6c2.7-49,3.6-97.1,3.6-97.1
	c0-3.2-2.6-5.9-5.9-5.9H248h-45.9c-3.2,0-5.9,2.6-5.9,5.9c0,0,0.9,48.2,3.6,97.1c3.7,67.5,14,79.6,14,79.6c1.1,3.5,2.6,5.9,5.9,5.9
	h34.8"/>
<path fill="none" stroke="#DDD05D" stroke-width="1.3627" stroke-linecap="round" stroke-miterlimit="10" d="M252.6,251.4"/>
<path fill="none" stroke="#DDD05D" stroke-width="1.3627" stroke-linecap="round" stroke-miterlimit="10" d="M248.7,110.2"/>
<polygon fill="#D63F27" stroke="#FFFFFF" stroke-width="1.3627" stroke-miterlimit="10" points="314.1,97.8 192.1,97.8 188.2,90 
	318,90 "/>
<path fill="#D63F27" stroke="#FFFFFF" stroke-width="1.3627" stroke-miterlimit="10" d="M278.5,90h-48.2c0,0-1.9-3.4,0-3.7
	c22.8-4.4,24.7-4.2,48.2,0C280.3,86.6,278.5,90,278.5,90z"/>
<g>
	<path fill="#FFFFFF" d="M219.7,117.6c0,0,0.9,9,1.8,22.4c0.2,3.4,0.5,7,0.7,10.9c0.2,3.9,0.5,7.9,0.7,12.1c0.2,4.2,0.5,8.6,0.7,13
		c0.2,4.4,0.4,8.9,0.7,13.4c0.2,4.5,0.4,9,0.6,13.4c0.2,4.4,0.3,8.8,0.5,13c0.3,8.4,0.5,16.3,0.7,23.1c0.3,13.5,0.3,22.5,0.3,22.5
		s-0.9-9-1.8-22.4c-0.5-6.7-1-14.6-1.5-23c-0.2-4.2-0.5-8.6-0.7-13c-0.2-4.4-0.4-8.9-0.7-13.4c-0.2-4.5-0.4-9-0.6-13.4
		c-0.2-4.4-0.3-8.8-0.5-13c-0.1-4.2-0.3-8.3-0.4-12.2c-0.1-3.9-0.2-7.5-0.3-10.9C219.6,126.7,219.7,117.6,219.7,117.6z"/>
</g>
<g>
	<path fill="#FFFFFF" d="M290.2,117.6c0,0,0,9-0.3,22.5c-0.1,3.4-0.2,7-0.3,10.9c-0.1,3.9-0.2,7.9-0.4,12.2c-0.2,4.2-0.3,8.6-0.5,13
		c-0.2,4.4-0.4,8.9-0.6,13.4c-0.2,4.5-0.4,9-0.7,13.4c-0.2,4.4-0.5,8.8-0.7,13c-0.5,8.4-1,16.3-1.5,23c-1,13.5-1.8,22.4-1.8,22.4
		s0-9,0.3-22.5c0.1-6.8,0.4-14.6,0.7-23.1c0.2-4.2,0.3-8.6,0.5-13c0.2-4.4,0.4-8.9,0.6-13.4c0.2-4.5,0.5-9,0.7-13.4
		c0.2-4.4,0.5-8.8,0.7-13c0.3-4.2,0.5-8.3,0.7-12.1c0.3-3.9,0.5-7.5,0.7-10.9C289.3,126.6,290.2,117.6,290.2,117.6z"/>
</g>
<g>
	<path fill="#FFFFFF" d="M254.4,116.2c0,0,0,0.6,0.1,1.8c0,1.2,0.1,2.8,0.2,5c0.1,4.3,0.4,10.5,0.5,17.9c0.1,3.7,0.2,7.7,0.2,11.9
		c0.1,4.2,0.1,8.7,0.2,13.3c0,4.6,0.1,9.4,0.1,14.2c0,4.9,0,9.8,0,14.7c0,4.9,0,9.9,0,14.7c0,4.9-0.1,9.6-0.1,14.2
		c-0.1,9.2-0.2,17.9-0.4,25.3c-0.2,7.4-0.4,13.5-0.5,17.9c-0.1,2.2-0.1,3.8-0.2,5c0,1.2-0.1,1.8-0.1,1.8s0-0.6-0.1-1.8
		c0-1.2-0.1-2.8-0.2-5c-0.1-4.3-0.4-10.5-0.5-17.9c-0.2-7.4-0.3-16-0.4-25.3c0-4.6-0.1-9.4-0.1-14.2c0-4.9,0-9.8,0-14.7
		c0-4.9,0-9.9,0-14.7c0-4.9,0.1-9.6,0.1-14.2c0.1-4.6,0.1-9.1,0.2-13.3c0.1-4.2,0.2-8.2,0.2-11.9c0.2-7.4,0.4-13.5,0.5-17.9
		c0.1-2.2,0.1-3.8,0.2-5C254.4,116.8,254.4,116.2,254.4,116.2z"/>
</g>
<g>
	<path fill="#D3E6EA" d="M198.8,202.7h-15.1c-6.1,0-11.1-5-11.1-11.1v-41.3c0-6,4.9-10.8,10.8-10.8h12.9l0.4,7.9l-13.3,0.1
		c-1.6,0-2.8,1.3-2.8,2.8v41.3c0,1.7,1.4,3.1,3.1,3.1h14.6L198.8,202.7z"/>
</g>
</svg>
