<?xml version="1.0" encoding="utf-8"?>
<!-- Generator: Adobe Illustrator 17.1.0, SVG Export Plug-In . SVG Version: 6.00 Build 0)  -->
<!DOCTYPE svg PUBLIC "-//W3C//DTD SVG 1.1//EN" "http://www.w3.org/Graphics/SVG/1.1/DTD/svg11.dtd">
<svg version="1.1" id="Layer_1" xmlns="http://www.w3.org/2000/svg" xmlns:xlink="http://www.w3.org/1999/xlink" x="0px" y="0px"
	 viewBox="0 0 500 500" enable-background="new 0 0 500 500" xml:space="preserve">
<path fill="none" stroke="#DBBC26" stroke-width="1.2486" stroke-miterlimit="10" d="M447.7,257c-11.3,3.4-22.8,4.4-32.1,2.8"/>
<path fill="none" stroke="#DBBC26" stroke-width="1.2486" stroke-miterlimit="10" d="M447.5,261.5c0-2.5,1.4-10-2.9-8.7
	c-11.3,3.4-16.6,3.9-31.9,2.2"/>
<path fill="#685D52" d="M449,260.6l-17.1,54.6H358l23.9-18.9l12.3-108.4c0,0,25.3-1.9,24.9-0.3c-8.6,41-14.7,63.7,0.4,74.7
	C425.5,266.4,449,260.6,449,260.6z"/>
<path fill="none" stroke="#999490" stroke-width="0.6243" stroke-miterlimit="10" d="M444,265l-14.6,46.6l-76.4-0.8l23.9-17.2
	l12.3-100.9c0,0,25.3-2.9,24.9-1.6c-8.6,37.3-12.4,63.8,2.4,74.1C423.1,269.8,444,265,444,265z"/>
<path fill="none" stroke="#DBBC26" stroke-width="1.2486" stroke-miterlimit="10" d="M107.5,134.3c-4.8,0-7.6-4.9-7.6-9.8
	c0-4.9,2.7-8.5,7.6-8.5"/>
<path fill="#685D52" d="M107.8,147.2l55.1,170.6L55.6,316v-14.5C92.2,229.1,107.8,147.2,107.8,147.2z"/>
<line fill="none" stroke="#A6A8AB" stroke-width="1.2486" stroke-miterlimit="10" x1="107.5" y1="134.3" x2="397.9" y2="134.3"/>
<line fill="none" stroke="#DBBC26" stroke-width="1.2486" stroke-miterlimit="10" x1="107.5" y1="134.3" x2="107.5" y2="112.3"/>
<path fill="none" stroke="#DBBC26" stroke-width="1.2486" stroke-miterlimit="10" d="M417.7,186.9c0,0,0.4-8.3-0.5-8.8
	c-1.5-0.8-27.7,0-27.7,0"/>
<line fill="none" stroke="#DBBC26" stroke-width="1.2486" stroke-miterlimit="10" x1="397.9" y1="134.3" x2="397.9" y2="112.3"/>
<line fill="none" stroke="#DBBC26" stroke-width="1.2486" stroke-miterlimit="10" x1="107.5" y1="116" x2="397.9" y2="116"/>
<line fill="none" stroke="#DBBC26" stroke-width="1.2486" stroke-miterlimit="10" x1="107.5" y1="125.8" x2="397.9" y2="125.8"/>
<circle fill="#A6A8AB" stroke="#DBBC26" stroke-width="1.2486" stroke-miterlimit="10" cx="397.9" cy="112.3" r="1.4"/>
<path fill="none" stroke="#999490" stroke-width="0.6243" stroke-miterlimit="10" d="M158.6,315.5l-100.1-1.7v-12
	c36.6-72.2,50.1-144.6,50.1-144.6"/>
<line fill="none" stroke="#DBBC26" stroke-width="1.2486" stroke-miterlimit="10" x1="417.2" y1="182.7" x2="394.3" y2="182.7"/>
<circle fill="#A6A8AB" stroke="#DBBC26" stroke-width="1.2486" stroke-miterlimit="10" cx="107.5" cy="112.3" r="1.4"/>
<path fill="#682122" d="M398.5,134.3c0,41.8,1.4,142.1-13,161.5c-29.1,39.1-131.6,35.7-132.4,35.6c-1.9-0.6-103.4,3.5-132.4-35.6
	c-14.4-19.4-13.1-119.7-13.1-161.5"/>
<line fill="none" stroke="#716558" stroke-width="1.2486" stroke-miterlimit="10" x1="111" y1="147.2" x2="394.5" y2="147.2"/>
<path fill="none" stroke="#DBBC26" stroke-width="1.2486" stroke-miterlimit="10" d="M398.2,134.3c4.8,0,7.6-4.9,7.6-9.8
	c0-4.9-2.7-8.5-7.6-8.5"/>
<line fill="none" x1="128.7" y1="154.7" x2="129.3" y2="154.7"/>
<path fill="none" stroke="#716558" stroke-width="1.2486" stroke-miterlimit="10" d="M394.4,149.3c0,37.7,1.3,128.2-12.6,145.7
	c-28.1,35.2-127.3,32.2-128.1,32.1c-1.9-0.6-100,3.1-128.1-32.1c-13.9-17.5-12.6-108-12.6-145.7"/>
<path fill="#471919" d="M296.7,319.3V176.6h-9.4l-33.7-5.2l-34,5.2h-7.9v142.7C211.7,319.3,253.6,326.8,296.7,319.3z"/>
<path fill="#FFFFFF" stroke="#481A19" stroke-width="8.7405" stroke-miterlimit="10" d="M189.6,283.1c-51.6-3.2-53.2-25.4-53.2-25.4
	l-2.7-81.8l56,1.3L189.6,283.1z"/>
<line fill="none" stroke="#C3BD79" stroke-width="14" stroke-linejoin="round" stroke-miterlimit="10" x1="92" y1="348" x2="414" y2="348"/>
<path opacity="0.7" fill="none" stroke="#D0D2D3" stroke-width="0.8741" stroke-linecap="round" stroke-miterlimit="10" stroke-dasharray="1.873,2.4973" d="
	M197.4,293.4c-66.8-3.4-68.8-30.2-68.8-30.2l-3.2-94.8l72.5,1.2L197.4,293.4z"/>
<path fill="none" stroke="#5A4A42" stroke-width="6.2432" stroke-miterlimit="10" d="M358.7,320.9"/>
<path fill="none" stroke="#5A4A42" stroke-width="6.2432" stroke-miterlimit="10" d="M151.6,323.5"/>
<path fill="#F4F3EF" stroke="#471919" stroke-width="8.7405" stroke-miterlimit="10" d="M317.2,281.7c51.7-3.8,53.6-25.8,53.6-25.8
	l3.9-80.6l-56.1,1.5L317.2,281.7z"/>
<path opacity="0.7" fill="none" stroke="#D0D2D3" stroke-width="0.9989" stroke-linecap="round" stroke-miterlimit="10" stroke-dasharray="1.873,2.4973" d="
	M309.5,293.1c66.8-4.1,69.1-30.9,69.1-30.9l4.2-93.8l-72.5,0.8L309.5,293.1z"/>
<polyline fill="none" stroke="#716558" stroke-width="1.2486" stroke-miterlimit="10" points="206.8,323.6 206.8,169 215.6,169 
	253.7,163.4 291.5,169 302,169 302,323.6 "/>
<path fill="#716558" d="M123.1,163.4c0,0,1.2-0.1,3.4-0.2c1.1-0.1,2.4-0.1,3.9-0.2c0.8,0,1.6-0.1,2.4-0.1c0.9,0,1.8,0,2.7,0
	c7.5,0,17.5,0,27.5,0s20,0,27.5,0c0.9,0,1.8,0,2.7,0c0.9,0.1,1.7,0.1,2.4,0.1c1.5,0.1,2.8,0.2,3.9,0.2c2.2,0.1,3.4,0.2,3.4,0.2
	s-1.2,0.1-3.4,0.2c-1.1,0.1-2.4,0.1-3.9,0.2c-0.8,0-1.6,0.1-2.4,0.1c-0.9,0.1-1.8,0-2.7,0c-7.5,0-17.5,0-27.5,0s-20,0-27.5,0
	c-0.9,0-1.8,0-2.7,0c-0.9-0.1-1.7-0.1-2.4-0.1c-1.5-0.1-2.8-0.2-3.9-0.2C124.3,163.5,123.1,163.4,123.1,163.4z"/>
<path fill="#716558" d="M310.2,163.4c0,0,1.2-0.1,3.4-0.2c1.1-0.1,2.4-0.1,3.9-0.2c0.7,0,1.5-0.1,2.4-0.1c0.8,0,1.7,0,2.6,0
	c7.4,0,17.2,0,27,0c9.8,0,19.6,0,27,0c0.9,0,1.8,0,2.6,0c0.8,0.1,1.6,0.1,2.4,0.1c1.5,0.1,2.8,0.2,3.9,0.2c2.1,0.1,3.4,0.2,3.4,0.2
	s-1.2,0.1-3.4,0.2c-1.1,0.1-2.4,0.1-3.9,0.2c-0.7,0-1.5,0.1-2.4,0.1c-0.8,0.1-1.7,0-2.6,0c-7.4,0-17.2,0-27,0c-9.8,0-19.6,0-27,0
	c-0.9,0-1.8,0-2.6,0c-0.8-0.1-1.6-0.1-2.4-0.1c-1.5-0.1-2.8-0.2-3.9-0.2C311.4,163.5,310.2,163.4,310.2,163.4z"/>
<line fill="none" x1="136.9" y1="265.1" x2="185.5" y2="276.5"/>
<path fill="#685D52" d="M185.3,271.9l0,7.1c-38.4-3.6-45.4-17.9-44.8-25C140.5,254,149.8,268.7,185.3,271.9z"/>
<line fill="none" stroke="#DBBC26" stroke-width="1.2486" stroke-miterlimit="10" x1="392.5" y1="116" x2="392.5" y2="134.3"/>
<line fill="none" stroke="#DBBC26" stroke-width="1.2486" stroke-miterlimit="10" x1="112.8" y1="116" x2="112.8" y2="133.9"/>
<path fill="#685D52" d="M321.5,270.7l0,7.1c38.4-3.6,45.6-17.9,45-25C366.5,252.7,357,267.5,321.5,270.7z"/>
<circle fill="#FFFFFF" stroke="#481A19" stroke-width="8.7405" stroke-miterlimit="10" cx="92.2" cy="347.7" r="6.3"/>
<circle fill="#C3BE7A" cx="414.3" cy="350.4" r="18.1"/>
<path fill="#FFFFFF" stroke="#481A19" stroke-width="8.7405" stroke-miterlimit="10" d="M424.9,344.7c3.3,6,1.1,13.5-4.9,16.7
	c-6,3.3-13.5,1.1-16.7-4.9c-3.3-6-1.1-13.5,4.9-16.7C414.1,336.5,421.6,338.7,424.9,344.7z"/>
<g>
	<path fill="#5A4A42" d="M255.5,346.8c-66.7-0.3-116.6-16.8-118.7-17.5c-3.3-1.1-5-4.7-3.9-7.9c1.1-3.3,4.7-5,7.9-4
		c0.5,0.2,50.1,16.5,114.7,16.8c59.8,0.3,111.7-18.4,112.2-18.6c3.3-1.2,6.9,0.5,8,3.7c1.2,3.3-0.5,6.9-3.7,8
		C369.9,328.2,317.6,347.1,255.5,346.8z"/>
</g>
<line fill="none" stroke="#C3BD79" stroke-width="1.873" stroke-linejoin="round" stroke-miterlimit="10" x1="375.3" y1="278.9" x2="451.8" y2="419.2"/>
<line fill="none" stroke="#C3BD79" stroke-width="1.873" stroke-linejoin="round" stroke-miterlimit="10" x1="367.9" y1="409.8" x2="461.6" y2="289.3"/>
<line fill="none" stroke="#C3BD79" stroke-width="1.873" stroke-linejoin="round" stroke-miterlimit="10" x1="336.8" y1="360.7" x2="488.1" y2="341.4"/>
<line fill="none" stroke="#C3BD79" stroke-width="1.873" stroke-linejoin="round" stroke-miterlimit="10" x1="336.4" y1="328.2" x2="489.7" y2="373.3"/>
<line fill="none" stroke="#C3BD79" stroke-width="1.873" stroke-linejoin="round" stroke-miterlimit="10" x1="351.6" y1="301.4" x2="477.5" y2="399.7"/>
<line fill="none" stroke="#C3BD79" stroke-width="1.873" stroke-linejoin="round" stroke-miterlimit="10" x1="347.8" y1="387.7" x2="481.7" y2="314.8"/>
<line fill="none" stroke="#C3BD79" stroke-width="1.873" stroke-linejoin="round" stroke-miterlimit="10" x1="392.4" y1="424.2" x2="436.7" y2="273.6"/>
<ellipse transform="matrix(0.8781 -0.4785 0.4785 0.8781 -116.6135 240.4487)" fill="none" stroke="#C3BE7A" stroke-width="3.7459" stroke-miterlimit="10" cx="413.6" cy="349.1" rx="76.3" ry="79.9"/>
<line fill="none" stroke="#C3BD79" stroke-width="1.873" stroke-linejoin="round" stroke-miterlimit="10" x1="407.5" y1="269.5" x2="420.5" y2="428.7"/>
<ellipse transform="matrix(0.8781 -0.4785 0.4785 0.8781 -116.6129 240.4485)" fill="none" stroke="#716558" stroke-width="0.9365" stroke-miterlimit="10" cx="413.6" cy="349.1" rx="76.3" ry="79.9"/>
<circle fill="#FFFFFF" stroke="#481A19" stroke-width="8.7405" stroke-miterlimit="10" cx="414.1" cy="350.6" r="6.3"/>
<circle fill="#C3BE7A" cx="92.4" cy="347.6" r="18.1"/>
<path fill="#FFFFFF" stroke="#481A19" stroke-width="8.7405" stroke-miterlimit="10" d="M103.5,343.6c2.3,6.4-1,13.5-7.4,15.8
	c-6.4,2.3-13.5-1-15.8-7.4c-2.3-6.4,1-13.5,7.4-15.8C94.1,333.9,101.2,337.2,103.5,343.6z"/>
<line fill="none" stroke="#C3BD79" stroke-width="1.873" stroke-linejoin="round" stroke-miterlimit="10" x1="50" y1="278.1" x2="133.3" y2="414.4"/>
<line fill="none" stroke="#C3BD79" stroke-width="1.873" stroke-linejoin="round" stroke-miterlimit="10" x1="49.1" y1="409.1" x2="136.7" y2="284.2"/>
<line fill="none" stroke="#C3BD79" stroke-width="1.873" stroke-linejoin="round" stroke-miterlimit="10" x1="15.6" y1="361.6" x2="165.8" y2="334.9"/>
<linearGradient id="SVGID_1_" gradientUnits="userSpaceOnUse" x1="252.1231" y1="134.3303" x2="252.1231" y2="147.2313">
	<stop  offset="0" style="stop-color:#736357"/>
	<stop  offset="1" style="stop-color:#4D4D4D"/>
</linearGradient>
<path fill="url(#SVGID_1_)" d="M404.5,143.5c0,2.1-1.7,3.7-3.7,3.7H103.5c-2.1,0-3.7-1.7-3.7-3.7v-5.4c0-2.1,1.7-3.7,3.7-3.7h297.2
	c2.1,0,3.7,1.7,3.7,3.7V143.5z"/>
<line fill="none" stroke="#C3BD79" stroke-width="1.873" stroke-linejoin="round" stroke-miterlimit="10" x1="13.6" y1="329.2" x2="168.9" y2="366.7"/>
<line fill="none" stroke="#C3BD79" stroke-width="1.873" stroke-linejoin="round" stroke-miterlimit="10" x1="27.4" y1="301.7" x2="158.1" y2="393.6"/>
<line fill="none" stroke="#C3BD79" stroke-width="1.873" stroke-linejoin="round" stroke-miterlimit="10" x1="27.9" y1="388.1" x2="158.1" y2="308.6"/>
<line fill="none" stroke="#C3BD79" stroke-width="1.873" stroke-linejoin="round" stroke-miterlimit="10" x1="74.2" y1="422.3" x2="111.1" y2="269.6"/>
<ellipse transform="matrix(0.8533 -0.5214 0.5214 0.8533 -167.0772 98.5967)" fill="none" stroke="#C3BE7A" stroke-width="3.7459" stroke-miterlimit="10" cx="91.7" cy="346.2" rx="76.3" ry="79.9"/>
<line fill="none" stroke="#C3BD79" stroke-width="1.873" stroke-linejoin="round" stroke-miterlimit="10" x1="81.7" y1="267.1" x2="102.5" y2="425.4"/>
<ellipse transform="matrix(0.8533 -0.5214 0.5214 0.8533 -167.0774 98.5973)" fill="none" stroke="#716558" stroke-width="0.9365" stroke-miterlimit="10" cx="91.7" cy="346.2" rx="76.3" ry="79.9"/>
<circle fill="#FFFFFF" stroke="#481A19" stroke-width="8.7405" stroke-miterlimit="10" cx="92.2" cy="347.7" r="6.3"/>
<g>
	<path fill="#C6C6C6" stroke="#DBBC26" stroke-width="0.7492" stroke-miterlimit="10" d="M156.5,157.1l1.3-4.8h0.8l-1.7,5.8h-0.8
		l-1.5-5.1l-1.5,5.1h-0.8l-1.7-5.8h0.8l1.3,4.8l1.4-4.8h0.9L156.5,157.1z"/>
	<path fill="#C6C6C6" stroke="#DBBC26" stroke-width="0.7492" stroke-miterlimit="10" d="M161.3,152.3h3.2v0.7h-2.4v1.9h2.3v0.7
		h-2.3v2h2.5v0.7h-3.3V152.3z"/>
	<path fill="#C6C6C6" stroke="#DBBC26" stroke-width="0.7492" stroke-miterlimit="10" d="M168.3,152.3v5.2h2.4v0.7h-3.2v-5.8H168.3z
		"/>
	<path fill="#C6C6C6" stroke="#DBBC26" stroke-width="0.7492" stroke-miterlimit="10" d="M174.1,152.3v5.2h2.4v0.7h-3.2v-5.8H174.1z
		"/>
	<path fill="#C6C6C6" stroke="#DBBC26" stroke-width="0.7492" stroke-miterlimit="10" d="M182.6,156.6c0,0.3-0.1,0.5-0.2,0.7
		c-0.1,0.2-0.3,0.4-0.4,0.5c-0.2,0.1-0.4,0.2-0.6,0.3c-0.2,0.1-0.5,0.1-0.8,0.1c-0.3,0-0.6,0-0.9-0.1c-0.3-0.1-0.6-0.1-0.8-0.3
		l0.2-0.6c0.2,0.1,0.5,0.2,0.7,0.2c0.3,0.1,0.5,0.1,0.8,0.1c0.4,0,0.7-0.1,0.9-0.2c0.2-0.2,0.3-0.4,0.3-0.7c0-0.2,0-0.3-0.1-0.4
		c-0.1-0.1-0.2-0.2-0.3-0.3s-0.3-0.2-0.4-0.3c-0.2-0.1-0.3-0.2-0.5-0.2c-0.2-0.1-0.4-0.2-0.6-0.3c-0.2-0.1-0.3-0.2-0.5-0.3
		c-0.1-0.1-0.3-0.3-0.3-0.4c-0.1-0.2-0.1-0.4-0.1-0.6c0-0.3,0-0.5,0.1-0.7c0.1-0.2,0.2-0.4,0.4-0.5c0.2-0.1,0.4-0.2,0.6-0.3
		c0.2-0.1,0.5-0.1,0.8-0.1c0.3,0,0.6,0,0.8,0.1c0.3,0.1,0.5,0.1,0.7,0.3l-0.1,0.6c-0.2-0.1-0.4-0.2-0.6-0.2
		c-0.2-0.1-0.5-0.1-0.7-0.1c-0.7,0-1.1,0.3-1.1,0.8c0,0.1,0,0.2,0.1,0.3c0,0.1,0.1,0.2,0.2,0.3c0.1,0.1,0.2,0.2,0.3,0.2
		c0.1,0.1,0.3,0.2,0.5,0.2c0.2,0.1,0.4,0.2,0.6,0.3s0.4,0.2,0.6,0.4c0.2,0.1,0.3,0.3,0.4,0.5C182.5,156.2,182.6,156.4,182.6,156.6z"
		/>
	<path fill="#C6C6C6" stroke="#DBBC26" stroke-width="0.7492" stroke-miterlimit="10" d="M189,158.2v-5.8h3.3v0.7h-2.5v2h2.4v0.7
		h-2.4v2.5H189z"/>
	<path fill="#C6C6C6" stroke="#DBBC26" stroke-width="0.7492" stroke-miterlimit="10" d="M199.5,158.2h-0.8l-0.5-1.4h-2.7l-0.5,1.4
		h-0.8l2.3-5.8h0.8L199.5,158.2z M195.7,156.1h2.2l-1.1-3L195.7,156.1z"/>
	<path fill="#C6C6C6" stroke="#DBBC26" stroke-width="0.7492" stroke-miterlimit="10" d="M203,158.2h-0.8v-5.8h1.5
		c0.3,0,0.6,0,0.9,0.1c0.3,0.1,0.5,0.2,0.7,0.3c0.2,0.1,0.4,0.3,0.5,0.5c0.1,0.2,0.2,0.4,0.2,0.7c0,0.4-0.1,0.8-0.4,1
		c-0.3,0.3-0.6,0.5-1.1,0.6l2.1,2.5h-1l-1.9-2.3c0,0-0.1,0-0.1,0c-0.1,0-0.1,0-0.2,0c-0.1,0-0.1,0-0.2,0c-0.1,0-0.1,0-0.1,0V158.2z
		 M205.2,154c0-0.2,0-0.3-0.1-0.5c-0.1-0.1-0.2-0.2-0.3-0.3c-0.1-0.1-0.3-0.1-0.5-0.2c-0.2,0-0.4-0.1-0.6-0.1H203v2.2h0.4
		c0.2,0,0.5,0,0.7-0.1c0.2,0,0.4-0.1,0.6-0.2c0.2-0.1,0.3-0.2,0.4-0.4C205.1,154.4,205.2,154.2,205.2,154z"/>
	<path fill="#C6C6C6" stroke="#DBBC26" stroke-width="0.7492" stroke-miterlimit="10" d="M211.8,152.2c0.3,0,0.6,0,0.9,0.1
		c0.3,0.1,0.6,0.1,0.8,0.3l-0.1,0.6c-0.3-0.1-0.5-0.2-0.8-0.2c-0.3-0.1-0.5-0.1-0.8-0.1c-0.7,0-1.3,0.2-1.7,0.6
		c-0.4,0.4-0.6,1-0.6,1.8c0,0.7,0.2,1.3,0.6,1.7c0.4,0.4,1,0.6,1.8,0.6c0.2,0,0.4,0,0.6,0c0.2,0,0.4-0.1,0.5-0.1v-1.9h0.7v2.3
		c-0.2,0.1-0.5,0.2-0.8,0.2c-0.3,0.1-0.7,0.1-1,0.1c-0.5,0-0.9-0.1-1.3-0.2c-0.4-0.1-0.7-0.3-1-0.6c-0.3-0.3-0.5-0.6-0.6-0.9
		c-0.1-0.4-0.2-0.8-0.2-1.2c0-0.5,0.1-0.9,0.2-1.2c0.1-0.4,0.3-0.7,0.6-1c0.3-0.3,0.6-0.5,1-0.6
		C210.9,152.3,211.3,152.2,211.8,152.2z"/>
	<path fill="#C6C6C6" stroke="#DBBC26" stroke-width="0.7492" stroke-miterlimit="10" d="M219.2,158.3c-0.5,0-0.9-0.1-1.2-0.2
		c-0.4-0.2-0.7-0.4-0.9-0.7c-0.2-0.3-0.4-0.6-0.5-1c-0.1-0.4-0.2-0.8-0.2-1.2c0-0.4,0.1-0.8,0.2-1.2c0.1-0.4,0.3-0.7,0.5-1
		c0.2-0.3,0.5-0.5,0.9-0.7c0.4-0.2,0.8-0.2,1.2-0.2c0.5,0,0.9,0.1,1.2,0.2c0.4,0.2,0.7,0.4,0.9,0.7c0.2,0.3,0.4,0.6,0.5,1
		c0.1,0.4,0.2,0.8,0.2,1.2c0,0.4-0.1,0.8-0.2,1.2c-0.1,0.4-0.3,0.7-0.5,1c-0.2,0.3-0.5,0.5-0.9,0.7
		C220.1,158.2,219.7,158.3,219.2,158.3z M219.2,157.6c0.3,0,0.6-0.1,0.9-0.2c0.3-0.1,0.5-0.3,0.6-0.5c0.2-0.2,0.3-0.5,0.4-0.8
		c0.1-0.3,0.1-0.6,0.1-0.9s0-0.6-0.1-0.9c-0.1-0.3-0.2-0.5-0.4-0.8c-0.2-0.2-0.4-0.4-0.6-0.5c-0.3-0.1-0.6-0.2-0.9-0.2
		c-0.3,0-0.6,0.1-0.9,0.2c-0.3,0.1-0.5,0.3-0.6,0.5s-0.3,0.5-0.4,0.8c-0.1,0.3-0.1,0.6-0.1,0.9s0,0.6,0.1,0.9
		c0.1,0.3,0.2,0.5,0.4,0.8c0.2,0.2,0.4,0.4,0.6,0.5C218.6,157.6,218.9,157.6,219.2,157.6z"/>
	<path fill="#C6C6C6" stroke="#DBBC26" stroke-width="0.7492" stroke-miterlimit="10" d="M233.5,155c-0.1,0.2-0.1,0.3-0.2,0.5
		c-0.1,0.2-0.2,0.3-0.2,0.5c-0.1,0.2-0.2,0.3-0.3,0.4c-0.1,0.1-0.2,0.3-0.3,0.4c0.2,0.2,0.5,0.3,0.8,0.5c0.3,0.2,0.5,0.3,0.8,0.5
		l-0.3,0.6c-0.2-0.1-0.5-0.3-0.8-0.5c-0.3-0.2-0.5-0.4-0.8-0.5c-0.3,0.3-0.6,0.5-0.9,0.7c-0.4,0.2-0.8,0.3-1.2,0.3
		c-0.5,0-0.9-0.1-1.2-0.4c-0.3-0.2-0.5-0.6-0.5-1c0-0.2,0-0.4,0.1-0.5c0.1-0.2,0.2-0.3,0.3-0.4c0.1-0.1,0.2-0.3,0.4-0.4
		c0.1-0.1,0.3-0.2,0.4-0.3c-0.2-0.2-0.4-0.4-0.6-0.7s-0.3-0.6-0.3-0.9c0-0.4,0.1-0.8,0.4-1.1c0.3-0.3,0.7-0.4,1.2-0.4
		c0.2,0,0.4,0,0.6,0.1c0.2,0.1,0.3,0.1,0.5,0.2c0.1,0.1,0.2,0.2,0.3,0.4c0.1,0.1,0.1,0.3,0.1,0.5c0,0.2,0,0.4-0.1,0.6
		c-0.1,0.2-0.2,0.3-0.3,0.5c-0.1,0.1-0.3,0.3-0.4,0.4c-0.1,0.1-0.3,0.2-0.4,0.3c0.2,0.2,0.5,0.4,0.7,0.6c0.3,0.2,0.6,0.4,0.9,0.6
		c0.2-0.2,0.3-0.5,0.5-0.8c0.1-0.3,0.3-0.6,0.4-0.9L233.5,155z M230,157.7c0.3,0,0.6-0.1,0.9-0.2c0.3-0.1,0.5-0.3,0.7-0.6
		c-0.3-0.2-0.6-0.4-0.9-0.6c-0.3-0.2-0.6-0.4-0.8-0.6c-0.1,0.1-0.2,0.2-0.3,0.3c-0.1,0.1-0.2,0.2-0.3,0.3c-0.1,0.1-0.2,0.2-0.2,0.3
		s-0.1,0.2-0.1,0.4c0,0.3,0.1,0.4,0.2,0.6C229.4,157.6,229.7,157.7,230,157.7z M229.3,153.7c0,0.3,0.1,0.5,0.2,0.7
		c0.1,0.2,0.3,0.4,0.5,0.5c0.1-0.1,0.2-0.2,0.4-0.3c0.1-0.1,0.2-0.2,0.3-0.3c0.1-0.1,0.2-0.2,0.2-0.4c0.1-0.1,0.1-0.3,0.1-0.4
		c0-0.2-0.1-0.4-0.2-0.5c-0.2-0.1-0.4-0.2-0.6-0.2c-0.3,0-0.5,0.1-0.7,0.2C229.3,153.2,229.3,153.4,229.3,153.7z"/>
	<path fill="#C6C6C6" stroke="#DBBC26" stroke-width="0.7492" stroke-miterlimit="10" d="M243.1,152.2c0.3,0,0.5,0,0.8,0.1
		c0.3,0,0.5,0.1,0.7,0.2l-0.1,0.6c-0.2-0.1-0.4-0.1-0.6-0.2c-0.2,0-0.5-0.1-0.7-0.1c-0.7,0-1.3,0.2-1.7,0.6c-0.4,0.4-0.6,1-0.6,1.7
		c0,0.8,0.2,1.3,0.6,1.7c0.4,0.4,1,0.6,1.7,0.6c0.2,0,0.4,0,0.7-0.1c0.2,0,0.4-0.1,0.6-0.2l0.1,0.6c-0.2,0.1-0.4,0.1-0.7,0.2
		c-0.3,0-0.6,0.1-0.8,0.1c-0.5,0-0.9-0.1-1.3-0.2c-0.4-0.2-0.7-0.4-0.9-0.6c-0.3-0.3-0.5-0.6-0.6-1c-0.1-0.4-0.2-0.8-0.2-1.2
		s0.1-0.8,0.2-1.2c0.1-0.4,0.3-0.7,0.6-1c0.3-0.3,0.6-0.5,0.9-0.6C242.2,152.3,242.6,152.2,243.1,152.2z"/>
	<path fill="#C6C6C6" stroke="#DBBC26" stroke-width="0.7492" stroke-miterlimit="10" d="M249.8,158.3c-0.5,0-0.9-0.1-1.2-0.2
		c-0.4-0.2-0.7-0.4-0.9-0.7c-0.2-0.3-0.4-0.6-0.5-1c-0.1-0.4-0.2-0.8-0.2-1.2c0-0.4,0.1-0.8,0.2-1.2c0.1-0.4,0.3-0.7,0.5-1
		c0.2-0.3,0.5-0.5,0.9-0.7c0.4-0.2,0.8-0.2,1.2-0.2c0.5,0,0.9,0.1,1.2,0.2c0.4,0.2,0.7,0.4,0.9,0.7c0.2,0.3,0.4,0.6,0.5,1
		c0.1,0.4,0.2,0.8,0.2,1.2c0,0.4-0.1,0.8-0.2,1.2c-0.1,0.4-0.3,0.7-0.5,1c-0.2,0.3-0.5,0.5-0.9,0.7
		C250.7,158.2,250.3,158.3,249.8,158.3z M249.8,157.6c0.3,0,0.6-0.1,0.9-0.2c0.3-0.1,0.5-0.3,0.6-0.5c0.2-0.2,0.3-0.5,0.4-0.8
		c0.1-0.3,0.1-0.6,0.1-0.9s0-0.6-0.1-0.9c-0.1-0.3-0.2-0.5-0.4-0.8c-0.2-0.2-0.4-0.4-0.6-0.5c-0.3-0.1-0.6-0.2-0.9-0.2
		c-0.3,0-0.6,0.1-0.9,0.2c-0.3,0.1-0.5,0.3-0.6,0.5s-0.3,0.5-0.4,0.8c-0.1,0.3-0.1,0.6-0.1,0.9s0,0.6,0.1,0.9
		c0.1,0.3,0.2,0.5,0.4,0.8c0.2,0.2,0.4,0.4,0.6,0.5C249.2,157.6,249.5,157.6,249.8,157.6z"/>
	<path fill="#C6C6C6" stroke="#DBBC26" stroke-width="0.7492" stroke-miterlimit="10" d="M256.3,157.7c0,0.1,0,0.3-0.1,0.4
		c-0.1,0.1-0.2,0.1-0.4,0.1c-0.2,0-0.3,0-0.4-0.1c-0.1-0.1-0.1-0.2-0.1-0.4c0-0.1,0-0.3,0.1-0.4c0.1-0.1,0.2-0.1,0.4-0.1
		c0.2,0,0.3,0,0.4,0.1C256.3,157.5,256.3,157.6,256.3,157.7z"/>
	<path fill="#C6C6C6" stroke="#DBBC26" stroke-width="0.7492" stroke-miterlimit="10" d="M265.5,158.3c-0.5,0-0.9-0.1-1.2-0.2
		c-0.4-0.2-0.7-0.4-0.9-0.7c-0.2-0.3-0.4-0.6-0.5-1c-0.1-0.4-0.2-0.8-0.2-1.2c0-0.4,0.1-0.8,0.2-1.2c0.1-0.4,0.3-0.7,0.5-1
		c0.2-0.3,0.5-0.5,0.9-0.7c0.4-0.2,0.8-0.2,1.2-0.2c0.5,0,0.9,0.1,1.2,0.2c0.4,0.2,0.7,0.4,0.9,0.7c0.2,0.3,0.4,0.6,0.5,1
		c0.1,0.4,0.2,0.8,0.2,1.2c0,0.4-0.1,0.8-0.2,1.2c-0.1,0.4-0.3,0.7-0.5,1c-0.2,0.3-0.5,0.5-0.9,0.7
		C266.4,158.2,266,158.3,265.5,158.3z M265.5,157.6c0.3,0,0.6-0.1,0.9-0.2c0.3-0.1,0.5-0.3,0.6-0.5c0.2-0.2,0.3-0.5,0.4-0.8
		c0.1-0.3,0.1-0.6,0.1-0.9s0-0.6-0.1-0.9c-0.1-0.3-0.2-0.5-0.4-0.8c-0.2-0.2-0.4-0.4-0.6-0.5c-0.3-0.1-0.6-0.2-0.9-0.2
		c-0.3,0-0.6,0.1-0.9,0.2c-0.3,0.1-0.5,0.3-0.6,0.5s-0.3,0.5-0.4,0.8c-0.1,0.3-0.1,0.6-0.1,0.9s0,0.6,0.1,0.9
		c0.1,0.3,0.2,0.5,0.4,0.8c0.2,0.2,0.4,0.4,0.6,0.5C264.9,157.6,265.2,157.6,265.5,157.6z"/>
	<path fill="#C6C6C6" stroke="#DBBC26" stroke-width="0.7492" stroke-miterlimit="10" d="M274.7,152.3h0.8l-2.1,5.8h-0.8l-2.1-5.8
		h0.8l1.7,4.9L274.7,152.3z"/>
	<path fill="#C6C6C6" stroke="#DBBC26" stroke-width="0.7492" stroke-miterlimit="10" d="M278.1,152.3h3.2v0.7h-2.4v1.9h2.3v0.7
		h-2.3v2h2.5v0.7h-3.3V152.3z"/>
	<path fill="#C6C6C6" stroke="#DBBC26" stroke-width="0.7492" stroke-miterlimit="10" d="M285.1,158.2h-0.8v-5.8h1.5
		c0.3,0,0.6,0,0.9,0.1c0.3,0.1,0.5,0.2,0.7,0.3c0.2,0.1,0.4,0.3,0.5,0.5c0.1,0.2,0.2,0.4,0.2,0.7c0,0.4-0.1,0.8-0.4,1
		c-0.3,0.3-0.6,0.5-1.1,0.6l2.1,2.5h-1l-1.9-2.3c0,0-0.1,0-0.1,0c-0.1,0-0.1,0-0.2,0c-0.1,0-0.1,0-0.2,0c-0.1,0-0.1,0-0.1,0V158.2z
		 M287.2,154c0-0.2,0-0.3-0.1-0.5c-0.1-0.1-0.2-0.2-0.3-0.3c-0.1-0.1-0.3-0.1-0.5-0.2c-0.2,0-0.4-0.1-0.6-0.1h-0.7v2.2h0.4
		c0.2,0,0.5,0,0.7-0.1c0.2,0,0.4-0.1,0.6-0.2c0.2-0.1,0.3-0.2,0.4-0.4C287.2,154.4,287.2,154.2,287.2,154z"/>
	<path fill="#C6C6C6" stroke="#DBBC26" stroke-width="0.7492" stroke-miterlimit="10" d="M291.9,152.3v5.2h2.4v0.7h-3.2v-5.8H291.9z
		"/>
	<path fill="#C6C6C6" stroke="#DBBC26" stroke-width="0.7492" stroke-miterlimit="10" d="M302.1,158.2h-0.8l-0.5-1.4H298l-0.5,1.4
		h-0.8l2.3-5.8h0.8L302.1,158.2z M298.3,156.1h2.2l-1.1-3L298.3,156.1z"/>
	<path fill="#C6C6C6" stroke="#DBBC26" stroke-width="0.7492" stroke-miterlimit="10" d="M308.8,158.2l-3.3-4.6v4.6h-0.8v-5.8h0.8
		l3.3,4.6v-4.6h0.8v5.8H308.8z"/>
	<path fill="#C6C6C6" stroke="#DBBC26" stroke-width="0.7492" stroke-miterlimit="10" d="M312.7,152.3h1.6c0.5,0,1,0.1,1.4,0.2
		c0.4,0.1,0.8,0.3,1,0.6c0.3,0.3,0.5,0.6,0.7,0.9c0.2,0.4,0.2,0.7,0.2,1.2s-0.1,0.8-0.2,1.2c-0.2,0.4-0.4,0.7-0.7,0.9
		c-0.3,0.3-0.6,0.5-1,0.6c-0.4,0.1-0.9,0.2-1.4,0.2h-1.6V152.3z M314.3,157.5c0.3,0,0.7-0.1,1-0.2c0.3-0.1,0.6-0.2,0.8-0.4
		c0.2-0.2,0.4-0.4,0.5-0.7c0.1-0.3,0.2-0.6,0.2-1c0-0.4-0.1-0.7-0.2-1c-0.1-0.3-0.3-0.5-0.5-0.7c-0.2-0.2-0.5-0.3-0.8-0.4
		c-0.3-0.1-0.6-0.2-1-0.2h-0.8v4.5H314.3z"/>
	<path fill="#C6C6C6" stroke="#DBBC26" stroke-width="0.7492" stroke-miterlimit="10" d="M327.4,156.6c0,0.3-0.1,0.5-0.2,0.7
		c-0.1,0.2-0.3,0.4-0.4,0.5c-0.2,0.1-0.4,0.2-0.6,0.3c-0.2,0.1-0.5,0.1-0.8,0.1c-0.3,0-0.6,0-0.9-0.1c-0.3-0.1-0.6-0.1-0.8-0.3
		l0.2-0.6c0.2,0.1,0.5,0.2,0.7,0.2c0.3,0.1,0.5,0.1,0.8,0.1c0.4,0,0.7-0.1,0.9-0.2c0.2-0.2,0.3-0.4,0.3-0.7c0-0.2,0-0.3-0.1-0.4
		c-0.1-0.1-0.2-0.2-0.3-0.3s-0.3-0.2-0.4-0.3c-0.2-0.1-0.3-0.2-0.5-0.2c-0.2-0.1-0.4-0.2-0.6-0.3c-0.2-0.1-0.3-0.2-0.5-0.3
		c-0.1-0.1-0.3-0.3-0.3-0.4c-0.1-0.2-0.1-0.4-0.1-0.6c0-0.3,0-0.5,0.1-0.7c0.1-0.2,0.2-0.4,0.4-0.5s0.4-0.2,0.6-0.3
		c0.2-0.1,0.5-0.1,0.8-0.1c0.3,0,0.6,0,0.8,0.1c0.3,0.1,0.5,0.1,0.7,0.3l-0.1,0.6c-0.2-0.1-0.4-0.2-0.6-0.2
		c-0.2-0.1-0.5-0.1-0.7-0.1c-0.7,0-1.1,0.3-1.1,0.8c0,0.1,0,0.2,0.1,0.3c0,0.1,0.1,0.2,0.2,0.3c0.1,0.1,0.2,0.2,0.3,0.2
		c0.1,0.1,0.3,0.2,0.5,0.2c0.2,0.1,0.4,0.2,0.6,0.3c0.2,0.1,0.4,0.2,0.6,0.4c0.2,0.1,0.3,0.3,0.4,0.5
		C327.4,156.2,327.4,156.4,327.4,156.6z"/>
	<path fill="#C6C6C6" stroke="#DBBC26" stroke-width="0.7492" stroke-miterlimit="10" d="M333.9,152.3v0.7h-1.7v5.2h-0.8V153h-1.7
		v-0.7H333.9z"/>
	<path fill="#C6C6C6" stroke="#DBBC26" stroke-width="0.7492" stroke-miterlimit="10" d="M341,158.2h-0.8l-0.5-1.4h-2.7l-0.5,1.4
		h-0.8l2.3-5.8h0.8L341,158.2z M337.1,156.1h2.2l-1.1-3L337.1,156.1z"/>
	<path fill="#C6C6C6" stroke="#DBBC26" stroke-width="0.7492" stroke-miterlimit="10" d="M346.2,152.2c0.3,0,0.6,0,0.9,0.1
		c0.3,0.1,0.6,0.1,0.8,0.3l-0.1,0.6c-0.2-0.1-0.5-0.2-0.8-0.2c-0.3-0.1-0.5-0.1-0.8-0.1c-0.7,0-1.3,0.2-1.7,0.6
		c-0.4,0.4-0.6,1-0.6,1.8c0,0.7,0.2,1.3,0.6,1.7c0.4,0.4,1,0.6,1.8,0.6c0.2,0,0.4,0,0.6,0c0.2,0,0.4-0.1,0.5-0.1v-1.9h0.7v2.3
		c-0.2,0.1-0.5,0.2-0.8,0.2c-0.3,0.1-0.7,0.1-1,0.1c-0.5,0-0.9-0.1-1.3-0.2c-0.4-0.1-0.7-0.3-1-0.6c-0.3-0.3-0.5-0.6-0.6-0.9
		c-0.1-0.4-0.2-0.8-0.2-1.2c0-0.5,0.1-0.9,0.2-1.2c0.1-0.4,0.3-0.7,0.6-1c0.3-0.3,0.6-0.5,1-0.6
		C345.2,152.3,345.7,152.2,346.2,152.2z"/>
	<path fill="#C6C6C6" stroke="#DBBC26" stroke-width="0.7492" stroke-miterlimit="10" d="M351,152.3h3.2v0.7h-2.4v1.9h2.3v0.7h-2.3
		v2h2.5v0.7H351V152.3z"/>
</g>
<path fill="#DBBC26" d="M126.9,158.9c0,0-0.1,0.1-0.3,0.4c-0.2,0.2-0.4,0.6-0.8,1c-0.2,0.2-0.4,0.4-0.7,0.6
	c-0.3,0.2-0.6,0.4-0.9,0.5c-0.3,0.2-0.7,0.3-1.1,0.4c-0.4,0.1-0.9,0.2-1.3,0.2c-0.5,0-1,0-1.4-0.1c-0.5-0.1-1-0.2-1.5-0.4
	c-1-0.4-1.9-1.1-2.5-2.1c-0.6-1-0.9-2.2-0.7-3.5l0.2-0.9l0.4-0.8c0.2-0.3,0.4-0.5,0.5-0.8c0.2-0.2,0.5-0.5,0.7-0.6
	c1.1-0.7,2.4-0.9,3.6-0.5c1.2,0.3,2.2,1.3,2.4,2.5c0.2,1.1-0.1,2.4-0.9,3.1c-0.8,0.7-2,0.8-2.9,0.4c-0.9-0.4-1.3-1.3-1.3-2.1
	c0-0.8,0.5-1.4,1-1.6c0.5-0.3,1-0.2,1.2-0.1c0.3,0.1,0.4,0.2,0.4,0.2c0,0-0.1-0.1-0.4-0.2c-0.3-0.1-0.7-0.1-1.2,0.1
	c-0.5,0.2-0.9,0.8-0.9,1.6c0,0.7,0.4,1.6,1.2,1.9c0.8,0.4,1.9,0.3,2.7-0.4c0.8-0.7,1.1-1.8,0.9-2.9c-0.3-1.1-1.1-2-2.3-2.3
	c-1.1-0.3-2.4-0.1-3.3,0.5c-0.2,0.2-0.4,0.4-0.7,0.6c-0.2,0.2-0.4,0.5-0.5,0.7l-0.4,0.8L116,156c-0.2,1.2,0.1,2.3,0.6,3.3
	c0.6,0.9,1.4,1.7,2.4,2.1c0.5,0.3,1,0.3,1.4,0.4c0.5,0.1,1,0.1,1.4,0.1c0.4-0.1,0.9-0.1,1.3-0.2c0.4-0.1,0.8-0.2,1.1-0.4
	c0.3-0.2,0.6-0.4,0.9-0.5c0.3-0.2,0.5-0.4,0.7-0.6c0.4-0.3,0.6-0.7,0.8-0.9C126.8,159,126.9,158.9,126.9,158.9z"/>
<path fill="#DBBC26" d="M380.5,157.6c0,0,0.1,0.1,0.3,0.3c0.2,0.2,0.4,0.6,0.8,0.9c0.2,0.2,0.4,0.4,0.7,0.6c0.3,0.2,0.6,0.3,0.9,0.5
	c0.3,0.2,0.7,0.3,1.1,0.4c0.4,0.1,0.8,0.1,1.3,0.2c0.4,0,0.9,0,1.4-0.1c0.5-0.1,1-0.2,1.4-0.4c1-0.3,1.8-1.1,2.4-2.1
	c0.6-1,0.8-2.1,0.6-3.3l-0.2-0.9l-0.4-0.8c-0.1-0.2-0.4-0.5-0.5-0.7c-0.2-0.2-0.4-0.4-0.7-0.6c-1-0.7-2.2-0.9-3.3-0.5
	c-1.1,0.3-2,1.2-2.3,2.3c-0.2,1.1,0.1,2.2,0.9,2.9c0.7,0.7,1.9,0.8,2.7,0.4c0.8-0.3,1.3-1.2,1.2-1.9c0-0.7-0.4-1.3-0.9-1.6
	c-0.5-0.3-0.9-0.2-1.2-0.1c-0.3,0.1-0.4,0.2-0.4,0.2c0,0,0.1-0.1,0.4-0.2c0.3-0.1,0.7-0.1,1.2,0.1c0.5,0.2,0.9,0.8,1,1.6
	c0.1,0.7-0.4,1.7-1.3,2.1c-0.8,0.4-2,0.3-2.9-0.4c-0.8-0.7-1.2-2-0.9-3.1c0.3-1.2,1.2-2.2,2.4-2.5c1.2-0.4,2.6-0.2,3.6,0.5
	c0.3,0.2,0.5,0.4,0.7,0.6c0.2,0.3,0.4,0.5,0.5,0.8l0.4,0.8l0.2,0.9c0.2,1.2-0.1,2.5-0.7,3.5c-0.6,1-1.5,1.8-2.5,2.1
	c-0.5,0.3-1,0.3-1.5,0.4c-0.5,0.1-1,0.1-1.4,0.1c-0.5-0.1-0.9-0.1-1.3-0.2c-0.4-0.2-0.8-0.3-1.1-0.4c-0.3-0.2-0.6-0.4-0.9-0.5
	c-0.2-0.2-0.5-0.4-0.7-0.6c-0.4-0.3-0.6-0.7-0.8-1C380.6,157.8,380.5,157.6,380.5,157.6z"/>
<g>
	
		<line fill="none" stroke="#471919" stroke-width="1.2486" stroke-linecap="round" stroke-miterlimit="10" x1="139.4" y1="180.2" x2="141" y2="235.4"/>
	<line fill="none" stroke="#471919" stroke-width="1.2486" stroke-miterlimit="10" x1="141.9" y1="180.3" x2="143.5" y2="235.5"/>
	<line fill="none" stroke="#471919" stroke-width="1.2486" stroke-miterlimit="10" x1="144.4" y1="180.4" x2="145.9" y2="235.7"/>
	<line fill="none" stroke="#471919" stroke-width="1.2486" stroke-miterlimit="10" x1="146.8" y1="180.6" x2="148.3" y2="235.8"/>
	<line fill="none" stroke="#471919" stroke-width="1.2486" stroke-miterlimit="10" x1="149.3" y1="180.7" x2="150.8" y2="235.9"/>
	<line fill="none" stroke="#471919" stroke-width="1.2486" stroke-miterlimit="10" x1="151.8" y1="180.8" x2="153.2" y2="236"/>
	<line fill="none" stroke="#471919" stroke-width="1.2486" stroke-miterlimit="10" x1="154.2" y1="181" x2="155.6" y2="236.2"/>
	<line fill="none" stroke="#471919" stroke-width="1.2486" stroke-miterlimit="10" x1="156.7" y1="181.1" x2="158" y2="236.3"/>
	<line fill="none" stroke="#471919" stroke-width="1.2486" stroke-miterlimit="10" x1="159.2" y1="181.2" x2="160.5" y2="236.4"/>
	<line fill="none" stroke="#471919" stroke-width="1.2486" stroke-miterlimit="10" x1="161.7" y1="181.4" x2="162.9" y2="236.5"/>
	<line fill="none" stroke="#471919" stroke-width="1.2486" stroke-miterlimit="10" x1="164.1" y1="181.5" x2="165.3" y2="236.7"/>
	<line fill="none" stroke="#471919" stroke-width="1.2486" stroke-miterlimit="10" x1="166.6" y1="181.6" x2="167.7" y2="236.8"/>
	<line fill="none" stroke="#471919" stroke-width="1.2486" stroke-miterlimit="10" x1="169.1" y1="181.8" x2="170.2" y2="236.9"/>
	<line fill="none" stroke="#471919" stroke-width="1.2486" stroke-miterlimit="10" x1="171.5" y1="181.9" x2="172.6" y2="237"/>
	<line fill="none" stroke="#471919" stroke-width="1.2486" stroke-miterlimit="10" x1="174" y1="182" x2="175" y2="237.2"/>
	<line fill="none" stroke="#471919" stroke-width="1.2486" stroke-miterlimit="10" x1="176.5" y1="182.2" x2="177.5" y2="237.3"/>
	<line fill="none" stroke="#471919" stroke-width="1.2486" stroke-miterlimit="10" x1="178.9" y1="182.3" x2="179.9" y2="237.4"/>
	<line fill="none" stroke="#471919" stroke-width="1.2486" stroke-miterlimit="10" x1="181.4" y1="182.4" x2="182.3" y2="237.5"/>
	<line fill="none" stroke="#471919" stroke-width="1.2486" stroke-miterlimit="10" x1="183.9" y1="182.6" x2="184.7" y2="237.7"/>
	<line fill="none" stroke="#471919" stroke-width="1.2486" stroke-miterlimit="10" x1="186.3" y1="182.7" x2="187.2" y2="237.8"/>
</g>
<g>
	<polyline fill="#32384C" points="139.3,228.8 138.2,180.2 185.1,181.4 185.5,231.4 	"/>
</g>
<g opacity="0.5">
	
		<line fill="none" stroke="#1C0808" stroke-width="0.6243" stroke-miterlimit="10" stroke-dasharray="0.1249,1.2486" x1="185.1" y1="181.4" x2="185.3" y2="231.4"/>
	
		<line fill="none" stroke="#1C0808" stroke-width="0.6438" stroke-linejoin="round" stroke-miterlimit="10" stroke-dasharray="0.1249,1.2486" x1="183.7" y1="181.3" x2="183.9" y2="231.4"/>
	
		<line fill="none" stroke="#1C0808" stroke-width="0.6633" stroke-linejoin="round" stroke-miterlimit="10" stroke-dasharray="0.1249,1.2486" x1="182.2" y1="181.3" x2="182.5" y2="231.3"/>
	
		<line fill="none" stroke="#1C0808" stroke-width="0.6829" stroke-linejoin="round" stroke-miterlimit="10" stroke-dasharray="0.1249,1.2486" x1="180.8" y1="181.3" x2="181.1" y2="231.2"/>
	
		<line fill="none" stroke="#1C0808" stroke-width="0.7024" stroke-linejoin="round" stroke-miterlimit="10" stroke-dasharray="0.1249,1.2486" x1="179.3" y1="181.2" x2="179.7" y2="231.1"/>
	
		<line fill="none" stroke="#1C0808" stroke-width="0.7219" stroke-linejoin="round" stroke-miterlimit="10" stroke-dasharray="0.1249,1.2486" x1="177.9" y1="181.2" x2="178.2" y2="231.1"/>
	
		<line fill="none" stroke="#1C0808" stroke-width="0.7414" stroke-linejoin="round" stroke-miterlimit="10" stroke-dasharray="0.1249,1.2486" x1="176.5" y1="181.2" x2="176.8" y2="231"/>
	
		<line fill="none" stroke="#1C0808" stroke-width="0.7609" stroke-linejoin="round" stroke-miterlimit="10" stroke-dasharray="0.1249,1.2486" x1="175" y1="181.1" x2="175.4" y2="230.9"/>
	
		<line fill="none" stroke="#1C0808" stroke-width="0.7804" stroke-linejoin="round" stroke-miterlimit="10" stroke-dasharray="0.1249,1.2486" x1="173.6" y1="181.1" x2="174" y2="230.8"/>
	
		<line fill="none" stroke="#1C0808" stroke-width="0.7999" stroke-linejoin="round" stroke-miterlimit="10" stroke-dasharray="0.1249,1.2486" x1="172.1" y1="181.1" x2="172.6" y2="230.8"/>
	
		<line fill="none" stroke="#1C0808" stroke-width="0.8194" stroke-linejoin="round" stroke-miterlimit="10" stroke-dasharray="0.1249,1.2486" x1="170.7" y1="181" x2="171.2" y2="230.7"/>
	
		<line fill="none" stroke="#1C0808" stroke-width="0.8389" stroke-linejoin="round" stroke-miterlimit="10" stroke-dasharray="0.1249,1.2486" x1="169.3" y1="181" x2="169.7" y2="230.6"/>
	
		<line fill="none" stroke="#1C0808" stroke-width="0.8584" stroke-linejoin="round" stroke-miterlimit="10" stroke-dasharray="0.1249,1.2486" x1="167.8" y1="181" x2="168.3" y2="230.5"/>
	
		<line fill="none" stroke="#1C0808" stroke-width="0.878" stroke-linejoin="round" stroke-miterlimit="10" stroke-dasharray="0.1249,1.2486" x1="166.4" y1="180.9" x2="166.9" y2="230.4"/>
	
		<line fill="none" stroke="#1C0808" stroke-width="0.8975" stroke-linejoin="round" stroke-miterlimit="10" stroke-dasharray="0.1249,1.2486" x1="164.9" y1="180.9" x2="165.5" y2="230.4"/>
	
		<line fill="none" stroke="#1C0808" stroke-width="0.917" stroke-linejoin="round" stroke-miterlimit="10" stroke-dasharray="0.1249,1.2486" x1="163.5" y1="180.9" x2="164.1" y2="230.3"/>
	
		<line fill="none" stroke="#1C0808" stroke-width="0.9365" stroke-linejoin="round" stroke-miterlimit="10" stroke-dasharray="0.1249,1.2486" x1="162" y1="180.9" x2="162.6" y2="230.2"/>
	
		<line fill="none" stroke="#1C0808" stroke-width="0.956" stroke-linejoin="round" stroke-miterlimit="10" stroke-dasharray="0.1249,1.2486" x1="160.6" y1="180.8" x2="161.2" y2="230.1"/>
	
		<line fill="none" stroke="#1C0808" stroke-width="0.9755" stroke-linejoin="round" stroke-miterlimit="10" stroke-dasharray="0.1249,1.2486" x1="159.2" y1="180.8" x2="159.8" y2="230.1"/>
	
		<line fill="none" stroke="#1C0808" stroke-width="0.995" stroke-linejoin="round" stroke-miterlimit="10" stroke-dasharray="0.1249,1.2486" x1="157.7" y1="180.8" x2="158.4" y2="230"/>
	
		<line fill="none" stroke="#1C0808" stroke-width="1.0145" stroke-linejoin="round" stroke-miterlimit="10" stroke-dasharray="0.1249,1.2486" x1="156.3" y1="180.7" x2="157" y2="229.9"/>
	
		<line fill="none" stroke="#1C0808" stroke-width="1.034" stroke-linejoin="round" stroke-miterlimit="10" stroke-dasharray="0.1249,1.2486" x1="154.8" y1="180.7" x2="155.6" y2="229.8"/>
	
		<line fill="none" stroke="#1C0808" stroke-width="1.0535" stroke-linejoin="round" stroke-miterlimit="10" stroke-dasharray="0.1249,1.2486" x1="153.4" y1="180.7" x2="154.1" y2="229.8"/>
	
		<line fill="none" stroke="#1C0808" stroke-width="1.0731" stroke-linejoin="round" stroke-miterlimit="10" stroke-dasharray="0.1249,1.2486" x1="152" y1="180.6" x2="152.7" y2="229.7"/>
	
		<line fill="none" stroke="#1C0808" stroke-width="1.0926" stroke-linejoin="round" stroke-miterlimit="10" stroke-dasharray="0.1249,1.2486" x1="150.5" y1="180.6" x2="151.3" y2="229.6"/>
	
		<line fill="none" stroke="#1C0808" stroke-width="1.1121" stroke-linejoin="round" stroke-miterlimit="10" stroke-dasharray="0.1249,1.2486" x1="149.1" y1="180.6" x2="149.9" y2="229.5"/>
	
		<line fill="none" stroke="#1C0808" stroke-width="1.1316" stroke-linejoin="round" stroke-miterlimit="10" stroke-dasharray="0.1249,1.2486" x1="147.6" y1="180.5" x2="148.5" y2="229.5"/>
	
		<line fill="none" stroke="#1C0808" stroke-width="1.1511" stroke-linejoin="round" stroke-miterlimit="10" stroke-dasharray="0.1249,1.2486" x1="146.2" y1="180.5" x2="147.1" y2="229.4"/>
	
		<line fill="none" stroke="#1C0808" stroke-width="1.1706" stroke-linejoin="round" stroke-miterlimit="10" stroke-dasharray="0.1249,1.2486" x1="144.8" y1="180.5" x2="145.6" y2="229.3"/>
	
		<line fill="none" stroke="#1C0808" stroke-width="1.1901" stroke-linejoin="round" stroke-miterlimit="10" stroke-dasharray="0.1249,1.2486" x1="143.3" y1="180.4" x2="144.2" y2="229.2"/>
	
		<line fill="none" stroke="#1C0808" stroke-width="1.2096" stroke-linejoin="round" stroke-miterlimit="10" stroke-dasharray="0.1249,1.2486" x1="141.9" y1="180.4" x2="142.8" y2="229.1"/>
	
		<line fill="none" stroke="#1C0808" stroke-width="1.2291" stroke-linejoin="round" stroke-miterlimit="10" stroke-dasharray="0.1249,1.2486" x1="140.4" y1="180.4" x2="141.4" y2="229.1"/>
	
		<line fill="none" stroke="#1C0808" stroke-width="1.2486" stroke-linejoin="round" stroke-miterlimit="10" stroke-dasharray="0.1249,1.2486" x1="139" y1="180.4" x2="140" y2="229"/>
</g>
<g>
	
		<line fill="none" stroke="#471919" stroke-width="1.2486" stroke-linecap="round" stroke-miterlimit="10" x1="368.2" y1="180.2" x2="366.6" y2="235.4"/>
	<line fill="none" stroke="#471919" stroke-width="1.2486" stroke-miterlimit="10" x1="365.8" y1="180.3" x2="364.2" y2="235.5"/>
	<line fill="none" stroke="#471919" stroke-width="1.2486" stroke-miterlimit="10" x1="363.3" y1="180.4" x2="361.8" y2="235.7"/>
	<line fill="none" stroke="#471919" stroke-width="1.2486" stroke-miterlimit="10" x1="360.8" y1="180.6" x2="359.3" y2="235.8"/>
	<line fill="none" stroke="#471919" stroke-width="1.2486" stroke-miterlimit="10" x1="358.4" y1="180.7" x2="356.9" y2="235.9"/>
	<line fill="none" stroke="#471919" stroke-width="1.2486" stroke-miterlimit="10" x1="355.9" y1="180.8" x2="354.5" y2="236"/>
	<line fill="none" stroke="#471919" stroke-width="1.2486" stroke-miterlimit="10" x1="353.4" y1="181" x2="352" y2="236.2"/>
	<line fill="none" stroke="#471919" stroke-width="1.2486" stroke-miterlimit="10" x1="350.9" y1="181.1" x2="349.6" y2="236.3"/>
	<line fill="none" stroke="#471919" stroke-width="1.2486" stroke-miterlimit="10" x1="348.5" y1="181.2" x2="347.2" y2="236.4"/>
	<line fill="none" stroke="#471919" stroke-width="1.2486" stroke-miterlimit="10" x1="346" y1="181.4" x2="344.8" y2="236.5"/>
	<line fill="none" stroke="#471919" stroke-width="1.2486" stroke-miterlimit="10" x1="343.5" y1="181.5" x2="342.3" y2="236.7"/>
	<line fill="none" stroke="#471919" stroke-width="1.2486" stroke-miterlimit="10" x1="341.1" y1="181.6" x2="339.9" y2="236.8"/>
	<line fill="none" stroke="#471919" stroke-width="1.2486" stroke-miterlimit="10" x1="338.6" y1="181.8" x2="337.5" y2="236.9"/>
	<line fill="none" stroke="#471919" stroke-width="1.2486" stroke-miterlimit="10" x1="336.1" y1="181.9" x2="335" y2="237"/>
	<line fill="none" stroke="#471919" stroke-width="1.2486" stroke-miterlimit="10" x1="333.7" y1="182" x2="332.6" y2="237.2"/>
	<line fill="none" stroke="#471919" stroke-width="1.2486" stroke-miterlimit="10" x1="331.2" y1="182.2" x2="330.2" y2="237.3"/>
	<line fill="none" stroke="#471919" stroke-width="1.2486" stroke-miterlimit="10" x1="328.7" y1="182.3" x2="327.8" y2="237.4"/>
	<line fill="none" stroke="#471919" stroke-width="1.2486" stroke-miterlimit="10" x1="326.3" y1="182.4" x2="325.3" y2="237.5"/>
	<line fill="none" stroke="#471919" stroke-width="1.2486" stroke-miterlimit="10" x1="323.8" y1="182.6" x2="322.9" y2="237.7"/>
	<line fill="none" stroke="#471919" stroke-width="1.2486" stroke-miterlimit="10" x1="321.3" y1="182.7" x2="320.5" y2="237.8"/>
</g>
<g>
	<polyline fill="#32384C" points="367.9,228.7 370.1,179 322.5,180.4 321.8,231.4 	"/>
</g>
<g opacity="0.5">
	
		<line fill="none" stroke="#1C0808" stroke-width="0.6243" stroke-miterlimit="10" stroke-dasharray="0.1249,1.2486" x1="323.3" y1="181.4" x2="322.5" y2="231.4"/>
	
		<line fill="none" stroke="#1C0808" stroke-width="0.6438" stroke-linejoin="round" stroke-miterlimit="10" stroke-dasharray="0.1249,1.2486" x1="324.7" y1="181.3" x2="323.9" y2="231.4"/>
	
		<line fill="none" stroke="#1C0808" stroke-width="0.6633" stroke-linejoin="round" stroke-miterlimit="10" stroke-dasharray="0.1249,1.2486" x1="326.2" y1="181.3" x2="325.3" y2="231.3"/>
	
		<line fill="none" stroke="#1C0808" stroke-width="0.6829" stroke-linejoin="round" stroke-miterlimit="10" stroke-dasharray="0.1249,1.2486" x1="327.6" y1="181.3" x2="326.7" y2="231.2"/>
	
		<line fill="none" stroke="#1C0808" stroke-width="0.7024" stroke-linejoin="round" stroke-miterlimit="10" stroke-dasharray="0.1249,1.2486" x1="329" y1="181.2" x2="328.1" y2="231.1"/>
	
		<line fill="none" stroke="#1C0808" stroke-width="0.7219" stroke-linejoin="round" stroke-miterlimit="10" stroke-dasharray="0.1249,1.2486" x1="330.5" y1="181.2" x2="329.5" y2="231"/>
	
		<line fill="none" stroke="#1C0808" stroke-width="0.7414" stroke-linejoin="round" stroke-miterlimit="10" stroke-dasharray="0.1249,1.2486" x1="331.9" y1="181.2" x2="330.9" y2="230.9"/>
	
		<line fill="none" stroke="#1C0808" stroke-width="0.7609" stroke-linejoin="round" stroke-miterlimit="10" stroke-dasharray="0.1249,1.2486" x1="333.4" y1="181.1" x2="332.3" y2="230.8"/>
	
		<line fill="none" stroke="#1C0808" stroke-width="0.7804" stroke-linejoin="round" stroke-miterlimit="10" stroke-dasharray="0.1249,1.2486" x1="334.8" y1="181.1" x2="333.7" y2="230.7"/>
	
		<line fill="none" stroke="#1C0808" stroke-width="0.7999" stroke-linejoin="round" stroke-miterlimit="10" stroke-dasharray="0.1249,1.2486" x1="336.2" y1="181.1" x2="335.1" y2="230.6"/>
	
		<line fill="none" stroke="#1C0808" stroke-width="0.8194" stroke-linejoin="round" stroke-miterlimit="10" stroke-dasharray="0.1249,1.2486" x1="337.7" y1="181" x2="336.5" y2="230.5"/>
	
		<line fill="none" stroke="#1C0808" stroke-width="0.8389" stroke-linejoin="round" stroke-miterlimit="10" stroke-dasharray="0.1249,1.2486" x1="339.1" y1="181" x2="337.9" y2="230.4"/>
	
		<line fill="none" stroke="#1C0808" stroke-width="0.8584" stroke-linejoin="round" stroke-miterlimit="10" stroke-dasharray="0.1249,1.2486" x1="340.6" y1="181" x2="339.4" y2="230.3"/>
	
		<line fill="none" stroke="#1C0808" stroke-width="0.878" stroke-linejoin="round" stroke-miterlimit="10" stroke-dasharray="0.1249,1.2486" x1="342" y1="180.9" x2="340.8" y2="230.2"/>
	
		<line fill="none" stroke="#1C0808" stroke-width="0.8975" stroke-linejoin="round" stroke-miterlimit="10" stroke-dasharray="0.1249,1.2486" x1="343.4" y1="180.9" x2="342.2" y2="230.2"/>
	
		<line fill="none" stroke="#1C0808" stroke-width="0.917" stroke-linejoin="round" stroke-miterlimit="10" stroke-dasharray="0.1249,1.2486" x1="344.9" y1="180.9" x2="343.6" y2="230.1"/>
	
		<line fill="none" stroke="#1C0808" stroke-width="0.9365" stroke-linejoin="round" stroke-miterlimit="10" stroke-dasharray="0.1249,1.2486" x1="346.3" y1="180.9" x2="345" y2="230"/>
	
		<line fill="none" stroke="#1C0808" stroke-width="0.956" stroke-linejoin="round" stroke-miterlimit="10" stroke-dasharray="0.1249,1.2486" x1="347.7" y1="180.8" x2="346.4" y2="229.9"/>
	
		<line fill="none" stroke="#1C0808" stroke-width="0.9755" stroke-linejoin="round" stroke-miterlimit="10" stroke-dasharray="0.1249,1.2486" x1="349.2" y1="180.8" x2="347.8" y2="229.8"/>
	
		<line fill="none" stroke="#1C0808" stroke-width="0.995" stroke-linejoin="round" stroke-miterlimit="10" stroke-dasharray="0.1249,1.2486" x1="350.6" y1="180.8" x2="349.2" y2="229.7"/>
	
		<line fill="none" stroke="#1C0808" stroke-width="1.0145" stroke-linejoin="round" stroke-miterlimit="10" stroke-dasharray="0.1249,1.2486" x1="352.1" y1="180.7" x2="350.6" y2="229.6"/>
	
		<line fill="none" stroke="#1C0808" stroke-width="1.034" stroke-linejoin="round" stroke-miterlimit="10" stroke-dasharray="0.1249,1.2486" x1="353.5" y1="180.7" x2="352" y2="229.5"/>
	
		<line fill="none" stroke="#1C0808" stroke-width="1.0535" stroke-linejoin="round" stroke-miterlimit="10" stroke-dasharray="0.1249,1.2486" x1="354.9" y1="180.7" x2="353.4" y2="229.4"/>
	
		<line fill="none" stroke="#1C0808" stroke-width="1.0731" stroke-linejoin="round" stroke-miterlimit="10" stroke-dasharray="0.1249,1.2486" x1="356.4" y1="180.6" x2="354.8" y2="229.3"/>
	
		<line fill="none" stroke="#1C0808" stroke-width="1.0926" stroke-linejoin="round" stroke-miterlimit="10" stroke-dasharray="0.1249,1.2486" x1="357.8" y1="180.6" x2="356.2" y2="229.2"/>
	
		<line fill="none" stroke="#1C0808" stroke-width="1.1121" stroke-linejoin="round" stroke-miterlimit="10" stroke-dasharray="0.1249,1.2486" x1="359.3" y1="180.6" x2="357.6" y2="229.1"/>
	
		<line fill="none" stroke="#1C0808" stroke-width="1.1316" stroke-linejoin="round" stroke-miterlimit="10" stroke-dasharray="0.1249,1.2486" x1="360.7" y1="180.5" x2="359" y2="229"/>
	
		<line fill="none" stroke="#1C0808" stroke-width="1.1511" stroke-linejoin="round" stroke-miterlimit="10" stroke-dasharray="0.1249,1.2486" x1="362.1" y1="180.5" x2="360.4" y2="229"/>
	
		<line fill="none" stroke="#1C0808" stroke-width="1.1706" stroke-linejoin="round" stroke-miterlimit="10" stroke-dasharray="0.1249,1.2486" x1="363.6" y1="180.5" x2="361.8" y2="228.9"/>
	
		<line fill="none" stroke="#1C0808" stroke-width="1.1901" stroke-linejoin="round" stroke-miterlimit="10" stroke-dasharray="0.1249,1.2486" x1="365" y1="180.4" x2="363.2" y2="228.8"/>
	
		<line fill="none" stroke="#1C0808" stroke-width="1.2096" stroke-linejoin="round" stroke-miterlimit="10" stroke-dasharray="0.1249,1.2486" x1="366.5" y1="180.4" x2="364.6" y2="228.7"/>
	
		<line fill="none" stroke="#1C0808" stroke-width="1.2291" stroke-linejoin="round" stroke-miterlimit="10" stroke-dasharray="0.1249,1.2486" x1="367.9" y1="180.4" x2="366" y2="228.6"/>
	
		<line fill="none" stroke="#1C0808" stroke-width="1.2486" stroke-linejoin="round" stroke-miterlimit="10" stroke-dasharray="0.1249,1.2486" x1="369.3" y1="180.4" x2="367.4" y2="228.5"/>
</g>
</svg>
