<?xml version="1.0" encoding="utf-8"?>
<!-- Generator: Adobe Illustrator 17.1.0, SVG Export Plug-In . SVG Version: 6.00 Build 0)  -->
<!DOCTYPE svg PUBLIC "-//W3C//DTD SVG 1.1//EN" "http://www.w3.org/Graphics/SVG/1.1/DTD/svg11.dtd">
<svg version="1.1" id="Layer_1" xmlns="http://www.w3.org/2000/svg" xmlns:xlink="http://www.w3.org/1999/xlink" x="0px" y="0px"
	 viewBox="0 0 800 236.5" enable-background="new 0 0 800 236.5" xml:space="preserve">
<path fill="#F9D423" d="M46.8,91.4c-2.2-36.6,24.1-54.7,53.8-54.7s50.8,20.7,54.7,54.7c0,0,4.3,19.3,4.3,75.3
	c0,12.9-3.3,66.3-3.3,66.3H46.8c0,0,4.2-23.3,4-51C50.4,114.8,46.8,91.4,46.8,91.4z"/>
<path fill="#FFFF00" d="M639.4,91.4c-3.8-46.4,24.1-54.7,53.8-54.7c29.7,0,64,19.9,54.7,54.7c0,0-4.9,15.5,4.3,75.3
	c2,12.7-3.3,66.3-3.3,66.3H639.4c0,0,4.2-23.3,4-51C643,114.8,639.4,91.4,639.4,91.4z"/>
<path fill="#E1F5C4" d="M242,103.9c-2.2-36.6,24.1-54.7,53.8-54.7c29.7,0,50.8,20.7,54.7,54.7c0,0-1.9,38.6,4.3,75.3
	c7,41.6-3.3,53.3-3.3,53.3H242c0,0-7.9-6.6-6-38C238.5,151.7,242,103.9,242,103.9z"/>
<path fill="#E5BE1A" d="M455.8,82.4c-2.2-36.6,24.1-54.7,53.8-54.7s52,10.2,49.7,51.7c0,0,0.3,38.6,0.3,94.6
	c0,12.9,5.7,60.1,5.7,60.1H455.8c0,0,4.2-33.3,4-61C459.4,105.8,455.8,82.4,455.8,82.4z"/>
<polygon fill="#1A1A1A" points="800,233.5 589.9,231.2 514.1,232.1 151.2,230.6 0,233.6 0,236.5 800,236.5 "/>
<g>
	<path fill="#AF0814" d="M110.5,102.2c0,15.4-18.3,27.8-40.8,27.8S28,117.6,28,102.2s19.1-27.8,41.7-27.8
		c20.7,0,37.9,10.6,40.5,24.2C110.4,99.8,110.5,101,110.5,102.2z"/>
	<path fill="#2D2D2B" d="M97.8,101.2c0,10.2-13.8,21.4-30.9,21.4s-34.4-7.7-32.9-21.4c1.2-11,14.6-19.8,32.9-18.4
		C86.7,84.3,97.8,91.1,97.8,101.2z"/>
	<polygon fill="#AF0814" points="118.8,99.9 108.8,108.4 108.5,93.6 	"/>
</g>
<circle fill="#2D2D2B" cx="54.3" cy="58.7" r="3"/>
<circle fill="#2D2D2B" cx="131.7" cy="69.7" r="3"/>
<circle fill="#2D2D2B" cx="251.5" cy="70.4" r="3"/>
<circle fill="#2D2D2B" cx="328.9" cy="81.4" r="3"/>
<circle fill="#2D2D2B" cx="461.7" cy="55.2" r="3"/>
<path fill="#2D2D2B" d="M522.5,60.1c0.4,2.1-1.4,3.9-3.5,3.5c-1.2-0.2-2.1-1.2-2.4-2.4c-0.4-2.1,1.4-3.9,3.5-3.5
	C521.3,57.9,522.3,58.9,522.5,60.1z"/>
<circle fill="#2D2D2B" cx="646.3" cy="61.7" r="3"/>
<circle fill="#2D2D2B" cx="723.7" cy="72.7" r="3"/>
<g>
	<path fill="#FF1D25" d="M332.5,145.7c-4.7,18.9-31,28.6-58.7,21.7s-47.4-28.1-42.7-47s32.1-28.3,59.8-21.4
		c25.5,6.4,43.3,24.6,42.3,42.2C333.1,142.7,332.9,144.2,332.5,145.7z"/>
	<path fill="#2D2D2B" d="M317.3,140.6c-3.1,12.5-23.6,22-44.5,16.8s-39.9-20-33.9-36.4c4.8-13.2,24-19.8,46.1-12.5
		C308.7,116.4,320.4,128.2,317.3,140.6z"/>
	<g>
		<path fill="#FF1D25" d="M341.1,144.1c-5,1.9-10.2,5.5-15,11.8c1-9.4,2.6-17.1,4.1-23.4C333.8,138.6,337.5,142.2,341.1,144.1z"/>
	</g>
</g>
<g>
	<path fill="#E21E43" d="M521.8,105.5c0,12.2-17.6,22.1-39.3,22.1c-21.7,0-40.1-9.9-40.1-22.1s18.4-22.1,40.1-22.1
		c20,0,36.5,8.4,39,19.3C521.7,103.6,521.8,104.6,521.8,105.5z"/>
	<path fill="#2D2D2B" d="M509.6,105.2c0,5-13.3,15.6-29.8,15.6s-33.1-8.8-31.7-15.6c1.1-5.4,14-15.8,31.7-15.1
		C498.8,90.9,509.6,100.2,509.6,105.2z"/>
	<g>
		<path fill="#E21E43" d="M528,104.1c-3.2,1.1-6.6,3.8-9.7,8.6c-0.4-5.4-0.5-10.8-0.3-16.4C521.1,100.5,524.6,102.9,528,104.1z"/>
	</g>
</g>
<g>
	<path fill="#FF1D25" d="M708.4,100.8c0,15.4-18.3,27.8-40.8,27.8c-22.5,0-41.7-12.5-41.7-27.8s19.1-27.8,41.7-27.8
		c20.7,0,37.9,10.6,40.5,24.2C708.3,98.3,708.4,99.5,708.4,100.8z"/>
	<path fill="#2D2D2B" d="M695.7,99.8c0,10.2-13.8,21.4-30.9,21.4c-17.1,0-34.4-7.7-32.9-21.4c1.2-11,14.6-19.8,32.9-18.4
		C684.6,82.9,695.7,89.7,695.7,99.8z"/>
	<g>
		<path fill="#FF1D25" d="M715.7,98.3c-3.5,3-6.4,5.9-10,7.7c-0.1-4.3-0.2-8.6-0.3-12.9C708.9,94.6,712.1,96,715.7,98.3z"/>
	</g>
</g>
<ellipse fill="#414949" cx="23.5" cy="255.7" rx="10.5" ry="10.5"/>
<line fill="none" stroke="#FFFFFF" stroke-width="0.75" stroke-miterlimit="10" x1="23.5" y1="245.2" x2="23.5" y2="266.2"/>
<line fill="none" stroke="#FFFFFF" stroke-width="0.75" stroke-miterlimit="10" x1="34" y1="255.7" x2="13" y2="255.7"/>
<line fill="none" stroke="#F9F7F7" stroke-width="0.75" stroke-miterlimit="10" x1="196.7" y1="230.8" x2="196.7" y2="236.5"/>
<line fill="none" stroke="#F9F7F7" stroke-width="0.75" stroke-miterlimit="10" x1="325" y1="231.3" x2="325" y2="236.5"/>
<line fill="none" stroke="#F9F7F7" stroke-width="0.75" stroke-miterlimit="10" x1="455.7" y1="231.9" x2="455.7" y2="236.5"/>
<line fill="none" stroke="#F9F7F7" stroke-width="0.75" stroke-miterlimit="10" x1="630" y1="231.7" x2="630" y2="236.5"/>
<line fill="none" stroke="#F9F7F7" stroke-width="0.75" stroke-miterlimit="10" x1="733" y1="232.7" x2="733" y2="236.5"/>
<line fill="none" stroke="#F9F7F7" stroke-width="0.75" stroke-miterlimit="10" x1="62.9" y1="232.3" x2="62.9" y2="236.5"/>
</svg>
