<svg id="ship" xmlns="http://www.w3.org/2000/svg" viewBox="0 163.7 500 164" enable-background="new 0 163.7 500 164"><path fill="#00203B" d="M440.4 327.4H48.1L35 299.3c-.6-3.5-16.3-12-16.3-12-1.1-1-1.5-2.8.1-2.8 20.6.2 114.8 1.2 224.3.8 36.2-.1 68.7-.4 97.2-.8 83.7-1 132.2-2.7 132.2-2.7l-32.1 45.6z"/><path fill="#fff" stroke="#000" stroke-miterlimit="10" d="M89 284.7v-9s152.3.3 324.9-1.6v9.2"/><path fill="#D1D1CF" stroke="#0F597A" d="M102.9 275.4v-10.7l302.2-1.7v11"/><path fill="#BBD9D6" d="M500.5 327.7c-17.9 0-17.9-13.4-35.7-13.4-17.9 0-17.9 13.4-35.7 13.4-17.9 0-17.9-13.4-35.7-13.4-17.9 0-17.9 13.4-35.7 13.4-17.9 0-17.9-13.4-35.7-13.4-17.9 0-17.9 13.4-35.7 13.4-17.9 0-17.9-13.4-35.7-13.4-17.9 0-17.9 13.4-35.7 13.4-17.9 0-17.9-13.4-35.7-13.4-17.9 0-17.9 13.4-35.7 13.4-17.9 0-17.9-13.4-35.7-13.4-17.9 0-17.9 13.4-35.7 13.4-17.9 0-17.9-13.4-35.7-13.4-17.9 0-17.9 13.4-35.7 13.4"/><path fill="#424241" stroke="#fff" stroke-miterlimit="10" d="M191 263.5v-39.1c0 .1-.4-.3-.9-.3h-19.5c-.5 0-.9.4-.9.9v38.5"/><path fill="#424241" stroke="#fff" stroke-width=".999" stroke-miterlimit="10" d="M243 262.9V224c0-.5-.4-.9-.9-.9h-19.5c-.5 0-.9.4-.9.9v39"/><path stroke="#000" stroke-miterlimit="10" d="M151.2 264.1v-83.2M48.3 284.7v-76.8" fill="none"/><path fill="#E6E6E6" stroke="#000" stroke-linejoin="round" stroke-miterlimit="10" d="M351.7 262.9v-11.2l11.2-3.5 10.9 3.5.1 5.8h22.6v5.2"/><path stroke="#000" stroke-width=".75" stroke-miterlimit="10" d="M19.2 284.7v-3s215.6.5 452.2-2.9c.8 0 0 3 0 3" fill="none"/><path fill="#9E150F" d="M24.8 214.2c7.3 1.7 14.5-7.5 21.7-5.8V220c-7.3-5.6-14.5-.2-21.7-5.8z"/><path stroke="#000" stroke-width=".943" stroke-miterlimit="10" d="M157.9 264v-74" fill="none"/><path fill="#9E150F" d="M176.7 292c-91.1 0-149.4-.5-150.6-.5l-6.1-3.6c2.3 0 234.3 1.9 449.1-1.6l-2.6 3.7c-102.6 1.8-206.4 2-289.8 2z"/><path fill="#0F597A" d="M176.3 288.3c-91.8 0-155.4-.5-156.6-.5 0 0-1.7-.7-1.8-1.7 0 0 236.8 1.2 453-2.2l-1.6 2.3c-103.3 1.7-209 2.1-293 2.1z"/><path stroke="#000" stroke-width=".75" stroke-miterlimit="10" d="M28.3 281.7v2.4m13.2-2.4v2.4m13.7-2.5v3" fill="none"/><path stroke="#000" stroke-width=".848" stroke-miterlimit="10" d="M65.4 281.8v3.9m14.3-4v3.9m14.2-4v3.9m14.3-4v3.9m14.3-4v3.9m14.2-4.1v4m14.3-4.1v3.9m14.2-4.1v3.9m14.3-4v3.9m14.3-4v3.9m14.2-4.1v4m14.3-4.1v3.9m14.2-4v3.9m14.3-4v3.9m14.3-4v3.9m14.2-4.1v4m14.3-4.1v3.9m14.3-4v3.9m14.2-4v3.9m14.2-4.1v3.9m14.3-4v4m14.3-4.2v3.9m14.2-4v3.9m14.3-4v3.9m14.2-4v3.9m14.3-4v3.9m14.3-4.1v3.9m14.2-4v3.9m14.3-4v3.9" fill="none"/><path fill="#424241" stroke="#fff" stroke-width=".999" stroke-miterlimit="10" d="M294.1 262.9v-39.1c0-.5-.4-.9-.9-.9h-19.5c-.5 0-.9.4-.9.9v39"/><path stroke="#000" stroke-width=".75" stroke-linecap="round" stroke-linejoin="round" stroke-miterlimit="10" stroke-dasharray="1,5" d="M109.4 270.8l290.2-2.3" fill="none"/><path fill="#424241" stroke="#fff" stroke-miterlimit="10" d="M340.6 262.5v-38.8c0-.5-.4-.9-.9-.9h-19.5c-.5 0-.9.4-.9.9v38.9"/><path stroke="#000" stroke-miterlimit="10" d="M107.3 264.2v-18" fill="none"/><path stroke="#000" stroke-width=".5" stroke-miterlimit="10" stroke-dasharray="1.007,1" d="M151.2 180.9c-30.8 74.4-43.9 65.4-43.9 65.4m50.6-56.3c-30.8 74.4-50.6 56.7-50.6 56.7" fill="none"/><g fill="#fff" stroke="#000" stroke-width=".807" stroke-miterlimit="10"><circle cx="109.4" cy="270.8" r="2.3"/><circle cx="141.7" cy="270.6" r="2.3"/><circle cx="173.9" cy="270.3" r="2.3"/><circle cx="206.1" cy="270.1" r="2.3"/><circle cx="238.4" cy="269.8" r="2.3"/><circle cx="270.7" cy="269.6" r="2.3"/><circle cx="302.9" cy="269.3" r="2.3"/><circle cx="335.1" cy="269.1" r="2.3"/><circle cx="367.4" cy="268.8" r="2.3"/><circle cx="399.6" cy="268.6" r="2.3"/></g><path stroke="#000" stroke-linecap="round" stroke-linejoin="round" stroke-miterlimit="10" d="M395.6 257.4v-3.7h-21.8" fill="none"/><path stroke="#000" stroke-linecap="round" stroke-miterlimit="10" d="M388.1 253v4.5m-7.7-4.5v4.5" fill="none"/><path fill="#fff" stroke="#000" stroke-miterlimit="10" d="M353.2 253.6h19.2v3.7h-19.2v-3.7z"/><path fill="#D3CD00" d="M111.5 246.8c-.3 0-.6-.2-.8-.5-.2-.5 0-.9.5-1.2.2-.1.3-.1.5-.2.4-.2.9-.1 1.2.4.2.4.1.9-.4 1.2-.2.1-.4.2-.6.2-.1.1-.3.1-.4.1zm5.7-4c-.2 0-.5-.1-.6-.3-.3-.3-.3-.9 0-1.2.1-.1.3-.2.4-.4.3-.3.9-.3 1.2 0 .3.3.3.9 0 1.2l-.4.4c-.2.2-.5.3-.6.3zm4.6-5.2c-.2 0-.4-.1-.5-.2-.3-.3-.5-.9-.1-1.2l.3-.5c.3-.4.9-.5 1.2-.2.4.3.5.9.2 1.2l-.3.5c-.3.3-.5.4-.8.4zm4.1-5.6c-.2 0-.3-.1-.5-.2-.4-.3-.5-.8-.2-1.2l.3-.5c.3-.4.8-.5 1.2-.2.4.3.5.8.2 1.2l-.3.5c-.1.3-.4.4-.7.4zm3.8-5.9c-.2 0-.3-.1-.5-.1-.4-.2-.5-.8-.3-1.2l.3-.5c.2-.4.8-.5 1.2-.3.4.2.5.8.3 1.2l-.3.5c-.2.3-.4.4-.7.4zm3.5-6c-.1 0-.3-.1-.4-.1-.4-.2-.6-.8-.3-1.2l.3-.5c.2-.4.8-.6 1.2-.3.4.2.6.8.3 1.2l-.3.5c-.3.2-.6.4-.8.4zm3.2-6.2c-.1 0-.3-.1-.4-.1-.4-.2-.6-.8-.3-1.2l.3-.5c.2-.4.8-.6 1.2-.3.4.2.6.8.3 1.2l-.3.5c-.2.3-.5.4-.8.4zm3.1-6.2c-.1 0-.2 0-.4-.1-.4-.2-.6-.8-.4-1.2l.2-.5s.4-.8 1.1-.3c.6.3.5 1 .5 1l-.2.5c-.1.4-.5.6-.8.6zm3-6.3c-.1 0-.2 0-.3-.1-.5-.2-.6-.7-.4-1.2l.2-.5s.5-.9 1.2-.5c.7.6.4 1.2.4 1.2l-.2.5c-.3.4-.5.6-.9.6zm2.9-6.3c-.1 0-.2 0-.3-.1-.5-.2-.6-.7-.5-1.2l.2-.5c.2-.5.7-.6 1.2-.5.5.2.6.7.5 1.2l-.2.5c-.2.4-.5.6-.9.6zm2.8-6.4c-.1 0-.2 0-.3-.1-.5-.2-.6-.7-.5-1.2l.2-.5c.2-.5.7-.6 1.2-.5.5.2.6.7.5 1.2l-.2.5c-.3.4-.5.6-.9.6zm2.7-6.4c-.1 0-.2 0-.3-.1-.5-.2-.6-.7-.5-1.2l.2-.5c.2-.5.7-.6 1.2-.5s.6.7.5 1.2l-.2.5c-.2.4-.5.6-.9.6zm-37.6 67.1c-.2 0-.5 0-.6-.1-.5-.1-.8-.5-.8-.9.1-.5.5-.8.9-.8.2 0 .3 0 .5.1.5 0 .9.4.9.9-.1.5-.5.8-.9.8zm6.2-1.2c-.3 0-.6-.2-.8-.5-.2-.5 0-.9.5-1.2.2-.1.3-.2.5-.2.5-.2.9 0 1.2.4.2.5 0 .9-.4 1.2-.2.1-.3.2-.6.2-.2 0-.3.1-.4.1zm5.9-3.7c-.2 0-.5-.1-.7-.3-.3-.3-.2-.9.1-1.2.2-.1.3-.2.5-.3.3-.3.9-.2 1.2.1.3.3.2.9-.1 1.2-.2.1-.3.2-.5.3-.1.1-.3.2-.5.2zm5.1-4.8c-.2 0-.4-.1-.6-.2-.3-.3-.3-.9-.1-1.2l.4-.4c.3-.3.9-.4 1.2-.1.3.3.4.9.1 1.2l-.4.4c-.2.2-.4.3-.6.3zm4.5-5.3c-.2 0-.3-.1-.5-.2-.4-.3-.5-.8-.2-1.2l.3-.5c.3-.4.8-.5 1.2-.2.4.3.5.8.2 1.2l-.3.5c-.3.3-.5.4-.7.4zm4-5.7c-.2 0-.3-.1-.5-.1-.4-.3-.5-.8-.2-1.2l.3-.5c.3-.4.8-.5 1.2-.2.4.3.5.8.2 1.2l-.3.5c-.2.2-.4.3-.7.3zm3.6-5.9c-.2 0-.3-.1-.5-.1-.4-.2-.5-.8-.3-1.2l.3-.5c.2-.4.8-.6 1.2-.3.5.3.6.8.3 1.2l-.3.5c-.1.3-.4.4-.7.4zm3.5-6.1c-.1 0-.3-.1-.4-.1-.4-.2-.6-.8-.3-1.2l.3-.5c.2-.4.8-.6 1.2-.3.4.2.6.8.3 1.2l-.3.5c-.2.3-.6.4-.8.4zm3.2-6.2c-.1 0-.3-.1-.4-.1-.4-.2-.6-.8-.4-1.2l.2-.5c.2-.4.8-.6 1.2-.4.4.2.6.8.4 1.2l-.3.5c-.1.3-.4.5-.7.5zm3-6.3c-.1 0-.2 0-.3-.1-.5-.2-.6-.7-.4-1.2l.2-.5c.2-.5.7-.6 1.2-.4.5.2.6.7.4 1.2l-.2.5c-.2.3-.6.5-.9.5zm2.9-6.3c-.1 0-.2 0-.3-.1-.5-.2-.6-.7-.5-1.2l.2-.5c.2-.5.7-.6 1.2-.5.5.2.6.7.5 1.2l-.2.5c-.3.4-.6.6-.9.6zm2.7-6.4c-.1 0-.2 0-.3-.1-.5-.2-.6-.7-.5-1.2l.2-.5c.2-.5.7-.6 1.2-.5.5.2.6.7.5 1.2l-.2.5c-.3.4-.5.6-.9.6z"/><path fill="#fff" d="M222 229.8h20.7v1.2H222v-1.2zm0 1.9h20.7v1.2H222v-1.2zm0 1.9h20.7v1.2H222v-1.2zm0 2h20.7v1.2H222v-1.2zm0 1.9h20.6v1.2H222v-1.2zm-51.9-7.7h20.7v1.2h-20.7v-1.2zm0 1.9h20.7v1.2h-20.7v-1.2zm0 1.9h20.7v1.2h-20.7v-1.2zm0 2h20.7v1.2h-20.7v-1.2zm0 1.9h20.6v1.2h-20.6v-1.2zm103-7.7h20.7v1.2h-20.7v-1.2zm0 1.9h20.7v1.2h-20.7v-1.2zm0 1.9h20.7v1.2h-20.7v-1.2zm0 2h20.7v1.2h-20.7v-1.2zm0 1.9h20.6v1.2h-20.6v-1.2zm46.5-7.7h20.7v1.2h-20.7v-1.2zm0 1.9h20.7v1.2h-20.7v-1.2zm0 1.9h20.7v1.2h-20.7v-1.2zm0 2h20.7v1.2h-20.7v-1.2zm0 1.9h20.6v1.2h-20.6v-1.2z"/><g fill="#fff"><ellipse cx="109.1" cy="304.5" rx="1.9" ry="1.7"/><ellipse cx="123.2" cy="304.5" rx="1.9" ry="1.7"/><ellipse cx="137.3" cy="304.5" rx="1.9" ry="1.7"/><ellipse cx="151.3" cy="304.5" rx="1.9" ry="1.7"/><ellipse cx="165.4" cy="304.5" rx="1.9" ry="1.7"/><ellipse cx="179.5" cy="304.5" rx="1.9" ry="1.7"/><ellipse cx="193.6" cy="304.5" rx="1.9" ry="1.7"/><ellipse cx="207.7" cy="304.5" rx="1.9" ry="1.7"/><ellipse cx="221.8" cy="304.5" rx="1.9" ry="1.7"/><ellipse cx="235.8" cy="304.5" rx="1.9" ry="1.7"/><ellipse cx="250" cy="304.5" rx="1.9" ry="1.7"/><ellipse cx="264" cy="304.5" rx="1.9" ry="1.7"/><ellipse cx="278.1" cy="304.5" rx="1.9" ry="1.7"/><ellipse cx="292.2" cy="304.5" rx="1.9" ry="1.7"/><ellipse cx="306.3" cy="304.5" rx="1.9" ry="1.7"/><ellipse cx="320.4" cy="304.5" rx="1.9" ry="1.7"/><ellipse cx="334.5" cy="304.5" rx="1.9" ry="1.7"/><ellipse cx="348.5" cy="304.5" rx="1.9" ry="1.7"/><ellipse cx="362.6" cy="304.5" rx="1.9" ry="1.7"/><ellipse cx="376.7" cy="304.5" rx="1.9" ry="1.7"/><ellipse cx="390.8" cy="304.5" rx="1.9" ry="1.7"/><ellipse cx="404.9" cy="304.5" rx="1.9" ry="1.7"/></g><path stroke="#000" stroke-width=".5" stroke-miterlimit="10" stroke-dasharray="1,1" d="M419.3 206.8s2.2 57.3 6.4 76m-6.4-76s-5.4 58.5-9.9 76.7" fill="none"/><path stroke="#9E150F" stroke-width="1.985" stroke-miterlimit="10" d="M351.9 260.4H396m23.3 22.4v-76.9" fill="none"/><path fill="#00203B" d="M421.7 209.9c-2-1-3-1.7-3-3.5s1.3-2.5 3-3.5"/><ellipse fill="#fff" stroke="#000" stroke-width=".409" stroke-miterlimit="10" cx="421.8" cy="206.4" rx=".7" ry="3.5"/><path fill="#D3CD00" d="M421.2 205.8c.6 0 1 .3 1 .6s-.5.6-1 .6"/><g stroke="#D3CD00" stroke-linecap="round" stroke-linejoin="round" stroke-miterlimit="10" fill="none"><path stroke-width=".597" d="M427.8 202.5s1.1 1.7 1.1 3.8c0 2.1-1.1 3.8-1.1 3.8"/><path stroke-width=".672" d="M431.1 201.8s1.3 2.1 1.3 4.7-1.3 4.7-1.3 4.7"/><path stroke-width=".746" d="M434.6 201.2s1.5 2.5 1.5 5.6c0 3.1-1.5 5.6-1.5 5.6"/><path stroke-width=".821" d="M437.9 200.5s1.7 2.9 1.7 6.5-1.7 6.5-1.7 6.5"/><path stroke-width=".895" d="M441.4 199.8s1.9 3.3 1.9 7.4-1.9 7.4-1.9 7.4"/><path stroke-width=".97" d="M444.7 199.1s2.2 3.7 2.2 8.3c0 4.5-2.2 8.3-2.2 8.3"/><path stroke-width="1.044" d="M448.2 198.4s2.3 4.1 2.3 9.1c0 5.1-2.3 9.1-2.3 9.1"/><path stroke-width="1.119" d="M451.5 197.7s2.6 4.5 2.6 10-2.6 10.1-2.6 10.1"/><path stroke-width="1.193" d="M455 197s2.8 4.9 2.8 10.9-2.8 10.9-2.8 10.9"/><path stroke-width="1.268" d="M458.3 196.3s3 5.3 3 11.8-3 11.8-3 11.8"/></g><path fill="#B7B7B2" d="M186.4 180.9s.1.3-.2.8c-.2.5-.9 1-1.8 1.5s-2.1.9-3.4 1.3c-1.3.4-2.9.9-4.4 1.6-.7.4-1.6.8-1.8 1.6-.3.7.3 1.5 1.1 1.9 1.6.9 3.7 1.4 5.8 2 1 .3 2.1.6 3.1 1.2.5.3 1 .6 1.5 1.1.2.2.4.6.5.9 0 .2.1.3 0 .6 0 .1 0 .3-.1.5-.3.8-.8 1.2-1.3 1.5-.5.3-1.1.6-1.6.8-1.1.4-2.2.8-3.3 1.1-1.1.3-2.2.6-3.2 1-.5.2-1 .4-1.5.7-.4.3-.8.6-.9 1 0 .1 0 .2-.1.3v.3c.1.1.1.3.3.5.3.4.7.6 1.2.9.9.5 2 .8 3 1.1 2 .7 4.1 1.1 5.9 2.2.4.3.9.6 1.2 1.1.3.5.4 1.1.2 1.6-.2.6-.6.9-1 1.2-.4.3-.8.5-1.2.7-1.6.7-3.2 1.1-4.5 1.4-1.3.4-2.5.7-3.4 1.1-.9.4-1.6.9-1.8 1.3-.3.5-.2.8-.2.8s-.1-.3.2-.8c.2-.5.9-1 1.8-1.5s2.1-.9 3.4-1.3c1.3-.4 2.9-.9 4.4-1.6.7-.4 1.6-.9 1.8-1.5.3-.8-.3-1.5-1.1-1.9-1.6-.9-3.7-1.4-5.8-2-1-.3-2.1-.6-3.1-1.2-.5-.3-1-.6-1.5-1.1-.2-.2-.4-.6-.5-1v-.5c0-.2 0-.4.1-.5.2-.7.8-1.2 1.3-1.5.5-.3 1.1-.6 1.6-.8 1.1-.4 2.2-.8 3.3-1.1 1.1-.3 2.2-.6 3.2-1 .5-.2 1-.4 1.5-.7.4-.3.8-.6.9-1 .3-.8-.5-1.6-1.4-2-.9-.5-2-.8-3-1.1-2-.7-4.1-1.1-5.9-2.2-.4-.3-.9-.6-1.2-1.1-.3-.5-.4-1.1-.2-1.6s.6-.9 1-1.2c.4-.3.8-.5 1.2-.7 1.6-.7 3.2-1.1 4.5-1.4 1.3-.4 2.5-.7 3.4-1.1.9-.4 1.6-.9 1.8-1.3.2-.6.2-.9.2-.9zM238.3 179.1s.1.3-.2.8c-.2.5-.9 1-1.8 1.5s-2.1.9-3.4 1.3c-1.3.4-2.9.9-4.4 1.6-.7.4-1.6.8-1.8 1.6-.3.7.3 1.5 1.1 1.9 1.6.9 3.7 1.4 5.8 2 1 .3 2.1.6 3.1 1.2.5.3 1 .6 1.5 1.1.2.2.4.6.5.9 0 .2.1.3 0 .6 0 .1 0 .3-.1.5-.3.8-.8 1.2-1.3 1.5-.5.3-1.1.6-1.6.8-1.1.4-2.2.8-3.3 1.1-1.1.3-2.2.6-3.2 1-.5.2-1 .4-1.5.7-.4.3-.8.6-.9 1 0 .1 0 .2-.1.3v.3c.1.1.1.3.3.5.3.3.7.6 1.2.9.9.5 2 .8 3 1.1 2 .7 4.1 1.1 5.9 2.2.4.3.9.6 1.2 1.1.3.5.4 1.1.2 1.6-.2.6-.6.9-1 1.2-.4.3-.8.5-1.2.7-1.6.7-3.2 1.1-4.5 1.4-1.3.4-2.5.7-3.4 1.1-.9.4-1.6.9-1.8 1.3-.3.5-.2.8-.2.8s-.1-.3.2-.8c.2-.5.9-1 1.8-1.5s2.1-.9 3.4-1.3c1.3-.4 2.9-.9 4.4-1.6.7-.4 1.6-.9 1.8-1.5.3-.8-.3-1.5-1.1-1.9-1.6-.9-3.7-1.4-5.8-2-1-.3-2.1-.6-3.1-1.2-.5-.3-1-.6-1.5-1.1-.2-.2-.4-.6-.5-1v-.5c0-.2 0-.4.1-.5.2-.7.8-1.2 1.3-1.5.5-.3 1.1-.6 1.6-.8 1.1-.4 2.2-.8 3.3-1.1 1.1-.3 2.2-.6 3.2-1 .5-.2 1-.4 1.5-.7.4-.3.8-.6.9-1 .3-.8-.5-1.6-1.4-2-.9-.5-2-.8-3-1.1-2-.7-4.1-1.1-5.9-2.2-.4-.3-.9-.6-1.2-1.1-.3-.5-.4-1.1-.2-1.6s.6-.9 1-1.2c.4-.3.8-.5 1.2-.7 1.6-.7 3.2-1.1 4.5-1.4 1.3-.4 2.5-.7 3.4-1.1.9-.4 1.6-.9 1.8-1.3.3-.6.2-.9.2-.9zM289.4 178.5s.1.3-.2.8c-.2.5-.9 1-1.8 1.5s-2.1.9-3.4 1.3c-1.3.4-2.9.9-4.4 1.6-.7.4-1.6.8-1.8 1.6-.3.7.3 1.5 1.1 1.9 1.6.9 3.7 1.4 5.8 2 1 .3 2.1.6 3.1 1.2.5.3 1 .6 1.5 1.1.2.2.4.6.5.9 0 .2.1.3 0 .6 0 .1 0 .3-.1.5-.3.8-.8 1.2-1.3 1.5-.5.3-1.1.6-1.6.8-1.1.4-2.2.8-3.3 1.1-1.1.3-2.2.6-3.2 1-.5.2-1 .4-1.5.7-.4.3-.8.6-.9 1 0 .1 0 .2-.1.3v.3c.1.1.1.3.3.5.3.3.7.6 1.2.9.9.5 2 .8 3 1.1 2 .7 4.1 1.1 5.9 2.2.4.3.9.6 1.2 1.1.3.5.4 1.1.2 1.6-.2.6-.6.9-1 1.2-.4.3-.8.5-1.2.7-1.6.7-3.2 1.1-4.5 1.4-1.3.4-2.5.7-3.4 1.1-.9.4-1.6.9-1.8 1.3-.3.5-.2.8-.2.8s-.1-.3.2-.8c.2-.5.9-1 1.8-1.5s2.1-.9 3.4-1.3c1.3-.4 2.9-.9 4.4-1.6.7-.4 1.6-.9 1.8-1.5.3-.8-.3-1.5-1.1-1.9-1.6-.9-3.7-1.4-5.8-2-1-.3-2.1-.6-3.1-1.2-.5-.3-1-.6-1.5-1.1-.2-.2-.4-.6-.5-1v-.5c0-.2 0-.4.1-.5.2-.7.8-1.2 1.3-1.5.5-.3 1.1-.6 1.6-.8 1.1-.4 2.2-.8 3.3-1.1 1.1-.3 2.2-.6 3.2-1 .5-.2 1-.4 1.5-.7.4-.3.8-.6.9-1 .3-.8-.5-1.6-1.4-2-.9-.5-2-.8-3-1.1-2-.7-4.1-1.1-5.9-2.2-.4-.3-.9-.6-1.2-1.1-.3-.5-.4-1.1-.2-1.6s.6-.9 1-1.2c.4-.3.8-.5 1.2-.7 1.6-.7 3.2-1.1 4.5-1.4 1.3-.4 2.5-.7 3.4-1.1.9-.4 1.6-.9 1.8-1.3.2-.6.2-1 .2-.9zM335.9 179.1s.1.3-.2.8c-.2.5-.9 1-1.8 1.5s-2.1.9-3.4 1.3c-1.3.4-2.9.9-4.4 1.6-.7.4-1.6.8-1.8 1.6-.3.7.3 1.5 1.1 1.9 1.6.9 3.7 1.4 5.8 2 1 .3 2.1.6 3.1 1.2.5.3 1 .6 1.5 1.1.2.2.4.6.5.9 0 .2.1.3 0 .6 0 .1 0 .3-.1.5-.3.8-.8 1.2-1.3 1.5-.5.3-1.1.6-1.6.8-1.1.4-2.2.8-3.3 1.1-1.1.3-2.2.6-3.2 1-.5.2-1 .4-1.5.7-.4.3-.8.6-.9 1 0 .1 0 .2-.1.3v.3c.1.1.1.3.3.5.3.3.7.6 1.2.9.9.5 2 .8 3 1.1 2 .7 4.1 1.1 5.9 2.2.4.3.9.6 1.2 1.1.3.5.4 1.1.2 1.6-.2.6-.6.9-1 1.2-.4.3-.8.5-1.2.7-1.6.7-3.2 1.1-4.5 1.4-1.3.4-2.5.7-3.4 1.1-.9.4-1.6.9-1.8 1.3-.3.5-.2.8-.2.8s-.1-.3.2-.8c.2-.5.9-1 1.8-1.5s2.1-.9 3.4-1.3c1.3-.4 2.9-.9 4.4-1.6.7-.4 1.6-.9 1.8-1.5.3-.8-.3-1.5-1.1-1.9-1.6-.9-3.7-1.4-5.8-2-1-.3-2.1-.6-3.1-1.2-.5-.3-1-.6-1.5-1.1-.2-.2-.4-.6-.5-1v-.5c0-.2 0-.4.1-.5.2-.7.8-1.2 1.3-1.5.5-.3 1.1-.6 1.6-.8 1.1-.4 2.2-.8 3.3-1.1 1.1-.3 2.2-.6 3.2-1 .5-.2 1-.4 1.5-.7.4-.3.8-.6.9-1 .3-.8-.5-1.6-1.4-2-.9-.5-2-.8-3-1.1-2-.7-4.1-1.1-5.9-2.2-.4-.3-.9-.6-1.2-1.1-.3-.5-.4-1.1-.2-1.6s.6-.9 1-1.2c.4-.3.8-.5 1.2-.7 1.6-.7 3.2-1.1 4.5-1.4 1.3-.4 2.5-.7 3.4-1.1.9-.4 1.6-.9 1.8-1.3.2-.6.2-.9.2-.9z"/></svg>