<svg xmlns="http://www.w3.org/2000/svg" viewBox="0 0 300 208.5" enable-background="new 0 0 300 208.5"><g><path fill="#D9F5FC" d="M226 123.6c-52.6-8.6-77.1 0-77.1 0 .2-6.8.4-13.4.6-19.1 8-1.1 58.4-7.8 75.1-2.6.6 7.5 1.1 14.8 1.4 21.7z"/><path fill="#fff" d="M224.6 102c-16.8-5.2-67.2 1.5-75.2 2.6.3-8.1.5-14.2.6-15.8 0-.2-.2-.4-.4-.4h-.8c-.2 0-.4.2-.4.4 0 1.6 0 7.8-.1 15.9-28.6-4.7-68.5-7.8-72.2-5.4h-.2c.7-6.8 1.4-13.7 2-20.2 46.1 6.2 85.6 9.4 144.8 0 .8 7.4 1.4 15.2 1.9 22.9z"/><path fill="#D9F5FC" d="M220.9 57.8c.6 6.5 1.3 13.7 1.9 21.2-59.1 9.4-98.7 6.2-144.8 0 .7-6.8 1.4-13.3 2-19.3 50.7 5.6 86.7 6 140.9-1.9z"/><path d="M223 166c-11 3.4-65.8-.3-71.9-.7 4.1-.5 14.8-3 20.7-3.4 14.1-.9 43.3 3.5 51.2 2.8v1.3z"/><path fill="#fff" d="M219.3 40.7c.5 4.7 1 10.5 1.6 17-54.2 7.9-90.2 7.5-140.9 2 .8-7.4 1.5-13.9 2.1-19 .8.1 50.4 3.6 67.1 3.6 17.5.1 70.1-3.6 70.1-3.6z"/><path fill="#E92000" d="M219.3 40.7s-52.6 3.6-70.1 3.6c-16.7 0-66.2-3.5-67.1-3.6.6-5.8 1.1-9.8 1.2-11.1 0-.3.3-.5.6-.5 5.5.4 30.9 2.9 66.4 3.4 34.1.5 61.5-3 67.1-3.4.3 0 .6.2.6.5.3 1.4.7 5.3 1.3 11.1zm-62.6-2.3c0-.9-.8-1.7-1.7-1.7-.9 0-1.7.8-1.7 1.7s.8 1.7 1.7 1.7c1 0 1.7-.8 1.7-1.7zm-11.4 0c0-.9-.7-1.7-1.7-1.7-.9 0-1.7.8-1.7 1.7 0 .9.8 1.7 1.7 1.7.9-.1 1.7-.8 1.7-1.7z"/><circle fill="#fff" cx="155.1" cy="38.4" r="1.7"/><path fill="#fff" d="M148.6 148h-.2c0-7.2.2-15.9.4-24.3 0 0 24.5-8.6 77.1 0h.1c.5 9.2.8 17.6.8 24.3-59.1-8.7-78.2 0-78.2 0z"/><path fill="#D9F5FC" d="M149.4 165.2c-.8-.8-1-7.8-1-17.2h.2s19-8.7 78.2 0c0 9-.6 15.1-2 16.2-.3.2-.9.4-1.8.4-7.8.7-37-3.7-51.2-2.8-5.9.4-16.5 2.9-20.7 3.4-.9.2-1.5.2-1.7 0zM148.4 104.7c0 5.8-.1 12.7-.3 19.6-27.7-4.5-73.8-3.3-73.8-3.3H74c.6-7 1.3-14.4 2-21.8h.2c3.6-2.3 43.5.8 72.2 5.5z"/><path fill="#fff" d="M147.2 145.7s-35.5-5-75-1.4c.4-6.7 1-14.7 1.8-23.3h.3s46.1-1.3 73.8 3.3c-.3 7.4-.5 14.9-.9 21.4zM143.6 36.7c.9 0 1.7.8 1.7 1.7 0 .9-.7 1.7-1.7 1.7-.9 0-1.7-.7-1.7-1.7 0-.9.8-1.7 1.7-1.7z"/><path d="M143.9 165.5c-6.5.4-49.6 2.4-70.1-1.3 6.8-.4 31.6-4.7 40.8-4.5 19.5.5 27.3 5.8 29.3 5.8z"/><path fill="#D9F5FC" d="M73.8 164.2c-1 .1-1.7 0-1.7-.1-.8-1.5-.6-9 .1-19.7 39.5-3.6 75 1.4 75 1.4-.6 9.5-1.5 17.1-2.7 19.5-.1.2-.2.2-.5.2-2 0-9.8-5.3-29.2-5.8-9.4-.2-34.2 4.1-41 4.5z"/><g stroke="#000" stroke-miterlimit="10" fill="none"><path stroke-width=".722" d="M82.1 40.7c.6-5.8 1.1-9.8 1.2-11.1 0-.3.3-.5.6-.5 5.5.4 30.9 2.9 66.4 3.4 34.1.5 61.5-3 67.1-3.4.3 0 .6.2.6.5.2 1.4.6 5.3 1.2 11.1.5 4.7 1 10.5 1.6 17 .6 6.5 1.3 13.7 1.9 21.2.6 7.5 1.3 15.3 1.8 23 .5 7.4 1 14.8 1.4 21.6.5 9.2.8 17.6.8 24.3 0 9-.6 15.1-2 16.2-.3.2-.9.4-1.8.4-7.8.7-37-3.7-51.2-2.8-5.9.4-16.5 2.9-20.7 3.4-.9.1-1.5.1-1.7 0-.8-.8-1-7.8-1-17.2 0-7.2.2-15.9.4-24.3.2-6.8.4-13.4.6-19.1.3-8.1.5-14.2.6-15.8 0-.2-.2-.4-.4-.4h-.8c-.2 0-.4.2-.4.4 0 1.6 0 7.8-.1 15.9 0 5.8-.1 12.7-.3 19.6-.2 7.4-.5 14.8-.9 21.4-.6 9.5-1.5 17.1-2.7 19.5-.1.2-.2.2-.5.2-2 0-9.8-5.3-29.2-5.8-9.3-.2-34.1 4.1-40.8 4.5-1 .1-1.7 0-1.7-.1-.8-1.5-.6-9 .1-19.7.4-6.7 1-14.7 1.8-23.3.6-7 1.3-14.4 2-21.8.7-6.8 1.4-13.7 2-20.2.7-6.8 1.4-13.3 2-19.3.8-7.1 1.5-13.7 2.1-18.8zM73.1 164c.2.1.5.1.7.1 20.5 3.7 63.6 1.7 70.1 1.3.5 0 .8-.1.8-.1M150.4 165.2h.7c6.1.4 61 4.1 71.9.7 1.1-.3 1.8-.8 1.9-1.3M82.1 40.7c.8.1 50.4 3.6 67.1 3.6 17.5 0 70.1-3.6 70.1-3.6"/><path stroke-width=".722" d="M145.3 38.4c0 .9-.7 1.7-1.7 1.7-.9 0-1.7-.7-1.7-1.7 0-.9.8-1.7 1.7-1.7.9 0 1.7.8 1.7 1.7z"/><circle stroke-width=".722" cx="155.1" cy="38.4" r="1.7"/><path stroke-width=".722" d="M221.3 57.7h-.3c-54.2 7.9-90.2 7.5-140.9 2h-.2"/><path stroke-width=".73" d="M222.8 79c-59.1 9.4-98.7 6.2-144.8 0M76.2 99.3c3.7-2.4 43.6.8 72.2 5.4M74.2 121s46.1-1.3 73.8 3.3c.1 0 .2 0 .4.1M71.6 144.4h.6c39.5-3.6 75 1.4 75 1.4M148.4 104.7s.4 0 1.1-.1c8-1.1 58.4-7.8 75.1-2.6M148.9 123.6s24.5-8.6 77.1 0M148.6 148s19-8.7 78.2 0"/></g></g><path d="M145 39.2c2.7 1.5 6.1 1.2 8.8 0 .5-.2.1-.9-.4-.7-2.4 1.1-5.6 1.3-8 0-.5-.3-.9.4-.4.7z"/><path stroke="#000" stroke-width=".75" stroke-miterlimit="10" d="M151.7 39.5c0 1.6 1.6 3.9 2.2 5.5.6 2 1.1 3.9 1.2 6 0 2.4-1.3 8.1-4.7 5.7-2.4-1.7-1.6-6.5-1.2-9 .4-2.3.8-5.3 2-7.4M151.3 40c-.6 4.1-2 9.1-4 12.8-1.1 1.9-4.4 5.9-6.5 2.9-2.5-3.7 2.4-7.9 4.7-10.2 2-2 3.9-4.6 6-6.3" fill="none"/><path d="M151.3 39c-.3 11.1-7.2 21.4-2.3 32.4.2.4.8.1.6-.4-4.8-10.8 2.1-21.1 2.4-32 .1-.5-.7-.5-.7 0z"/></svg>