<svg xmlns="http://www.w3.org/2000/svg" viewBox="0 0 609 204" enable-background="new 0 0 609 204"><path d="M217.2 98.8c-.2 0-.4-.2-.4-.4v-6H82.6v6c0 .2-.2.4-.4.4s-.4-.2-.4-.4V92c0-.2.2-.4.4-.4h135c.2 0 .4.2.4.4v6.4c0 .2-.2.4-.4.4z"/><path fill="#00203B" d="M562.9 197.1h-11.5c-2.5 0-4.7-1.7-5.4-4.1l-6.4-23.1c-.1-.5-.2-1-.2-1.5l.2-38.4c0-.4.1-.9.2-1.3l6.3-25.3c.6-2.5 2.9-4.2 5.4-4.2h12.1c3.6 0 6.2 3.3 5.4 6.8l-6.8 29.8c-.1.4-.1.8-.1 1.3l.1 21.9c0 .4 0 .7.1 1l6 30.4c.8 3.5-1.8 6.7-5.4 6.7z"/><path stroke="#fff" stroke-width=".936" stroke-miterlimit="10" d="M541.9 126.7l5.7-22.1c.6-2.4 1.8-3.7 5.2-3.7l11.2.1c2.2 0 4.1 2.2 3.4 4.9l-5.8 25.1" fill="none"/><path fill="#00203B" d="M307.1 99V81c0-3.4-2.9-4.2-6.4-4.2H232c-9.6 0-18.8 5.9-18.8 15.1v6.8"/><path fill="#0B486B" d="M7.2 148.4c0-26.8 18-50.6 78.8-50.6l270.2 1.4 199.3 29.4 19.8 7.4.1 11.5-568.3-.1"/><path stroke="#000" stroke-width=".999" stroke-linecap="round" stroke-linejoin="round" stroke-miterlimit="10" d="M596.7 147.1M7.2 147.4" fill="none"/><path fill="#0F597A" d="M7.1 147.4c0 26.8 18 50.6 78.8 50.6l270.1-1.4 199.3-29.4 20.2-6.5-.1-13.1-568.3-.2z"/><g fill="#fff"><ellipse cx="89.9" cy="122.1" rx="4.8" ry="4.8"/><ellipse cx="121.7" cy="122.1" rx="4.8" ry="4.8"/><ellipse cx="153.5" cy="122.1" rx="4.8" ry="4.8"/><ellipse cx="185.3" cy="122.1" rx="4.8" ry="4.8"/><ellipse cx="217.2" cy="122.1" rx="4.8" ry="4.8"/><ellipse cx="249" cy="122.1" rx="4.8" ry="4.8"/><ellipse cx="280.8" cy="122.1" rx="4.8" ry="4.8"/><ellipse cx="312.6" cy="122.1" rx="4.8" ry="4.8"/><ellipse cx="344.4" cy="122.1" rx="4.8" ry="4.8"/></g><path d="M243.2 76.7c-.2 0-.4-.2-.4-.4V32.9c0-.2.2-.4.4-.4s.4.2.4.4v43.5c-.1.2-.2.3-.4.3z"/><path fill="#00203B" d="M594.6 166.4h-4.5c-1 0-1.9-.7-2.1-1.6l-2.5-7.1c-.1-.2-.1-.4-.1-.6l.1-15.2c0-.2 0-.3.1-.5l2.5-10c.2-1 1.1-1.7 2.1-1.7h4.8c1.4 0 2.5 1.3 2.1 2.7l-2.7 11.8c0 .2-.1.3-.1.5v9l2.4 10c.3 1.5-.7 2.7-2.1 2.7z"/><path d="M253.7 76.7c-.2 0-.4-.2-.4-.4V8.9c0-.2.2-.4.4-.4s.4.2.4.4v67.5c-.1.2-.2.3-.4.3zM280.2 76.7c-.2 0-.4-.2-.4-.4v-48c0-.2.2-.4.4-.4s.4.2.4.4v48c-.1.3-.2.4-.4.4zM252.8 14.2c-1.5 0-2.7-1.2-2.7-2.7s1.2-2.7 2.7-2.7"/><path d="M301.2 76.9c-.3 0-.5-.2-.5-.5v-4.8h-64.2v4.8c0 .3-.2.5-.5.5s-.5-.2-.5-.5v-5.2c0-.3.2-.5.5-.5h65.2c.3 0 .5.2.5.5v5.2c0 .3-.3.5-.5.5z"/><path fill="#fff" d="M579.5 159.3l-4 1.3-.2-24.6 4 1.5"/><path fill="#9E150F" d="M579.5 159.3l-.1-21.8 21.4 7.8c3 1.2 3.1 5.4.2 6.7l-21.5 7.3zM299.6 37.5c-6-1.3-11.9 1.5-17.9.2-.2 0-.4-.3-.4-.5v-8.8c0-.2.2-.3.4-.3 6 1.3 11.9-1.5 17.9-.2.2 0 .4.3.4.5v8.8c0 .3-.2.4-.4.3z"/><ellipse fill="#00203B" cx="567.3" cy="147.6" rx="16.7" ry="1.7"/><path fill="#00203B" d="M337.7 99.1h-21v-3.8h21z"/><path d="M174.6 98.3v-7.1c0-.3.3-.6.6-.6s.6.3.6.6v7.1M196.8 98.4v-7.3c0-.3.3-.6.6-.6s.6.3.6.6v7.3M151.6 98.2v-6.9c0-.3.3-.6.6-.6s.6.2.6.6v6.9M128.3 98v-6.8c0-.3.3-.6.6-.6s.6.2.6.6V98M104.6 98v-7c0-.3.3-.6.6-.6s.6.3.6.6v7"/><path fill="#fff" d="M286.2 98.8c-.3 0-.5-.2-.5-.5V73.8c0-.3.2-.5.5-.5s.5.2.5.5v24.5c0 .3-.3.5-.5.5zM294.7 98.9c-.3 0-.6-.3-.6-.6V73.8c0-.3.3-.6.6-.6s.6.3.6.6v24.5c-.1.3-.3.6-.6.6zM294.7 82.5h-8.5c-.3 0-.5-.2-.5-.5s.2-.5.5-.5h8.5c.3 0 .5.2.5.5s-.3.5-.5.5zM294.7 86.4h-8.5c-.3 0-.5-.2-.5-.5s.2-.5.5-.5h8.5c.3 0 .5.2.5.5s-.3.5-.5.5zM294.7 90.2h-8.5c-.3 0-.5-.2-.5-.5s.2-.5.5-.5h8.5c.3 0 .5.2.5.5s-.3.5-.5.5zM294.7 94h-8.5c-.3 0-.5-.2-.5-.5s.2-.5.5-.5h8.5c.3 0 .5.2.5.5s-.3.5-.5.5zM294.7 79h-8.5c-.3 0-.5-.2-.5-.5s.2-.5.5-.5h8.5c.3 0 .5.2.5.5s-.3.5-.5.5z"/><path d="M242.3 38.2c-1.5 0-2.7-1.2-2.7-2.7 0-1.5 1.2-2.7 2.7-2.7M81.5 97.8v-8c0-.3.3-.6.6-.6s.6.3.6.6v8"/><path fill="#00203B" d="M335.5 95.3l-3.8-13.8c-.1-.4.2-.7.6-.8.4-.1.8.1.9.5l3.9 14.1"/><path stroke="#00203B" stroke-width=".998" stroke-linecap="round" stroke-linejoin="round" stroke-miterlimit="10" stroke-dasharray="1.0068,2.0134,1.0067,4.0267" fill="none" d="M8.7 157.7h565.7M8.5 138.7h565.8"/><path stroke="#00203B" stroke-width=".692" stroke-linecap="round" stroke-linejoin="round" stroke-miterlimit="10" stroke-dasharray="0.6979,1.3957,0.6978,2.7914" d="M68.9 98.7c4.2 0 7.6 22 7.6 49.1S73.1 197 68.9 197" fill="none"/><path stroke="#00203B" stroke-width=".684" stroke-linecap="round" stroke-linejoin="round" stroke-miterlimit="10" stroke-dasharray="0.6901,1.3801,0.69,2.7601" d="M357.1 99.8c4.2 0 7.6 21.5 7.6 48s-3.4 48-7.6 48" fill="none"/><path stroke="#fff" stroke-width=".947" stroke-miterlimit="10" d="M561.5 165.1l5.1 25c.6 3.3-.9 5.3-4.2 5.3h-10.8c-2.4 0-3.5-1.6-4.1-3.9l-6.5-22.3" fill="none"/></svg>