<svg id="Layer_1" data-name="Layer 1" xmlns="http://www.w3.org/2000/svg" xmlns:xlink="http://www.w3.org/1999/xlink" viewBox="0 0 246.54 308.13"><defs><style>.cls-1,.cls-4,.cls-8{fill:none;}.cls-2,.cls-6{fill:#3a04ff;}.cls-3{fill:#ffcde3;stroke-width:4px;}.cls-3,.cls-4,.cls-5,.cls-6,.cls-7,.cls-8{stroke:#3a04ff;}.cls-3,.cls-6,.cls-7,.cls-8{stroke-linecap:round;stroke-linejoin:round;}.cls-4,.cls-5{stroke-miterlimit:10;}.cls-4,.cls-5,.cls-6,.cls-7{stroke-width:3.87px;}.cls-5{fill:#fff;opacity:0.9;}.cls-7{fill:#00a99d;fill-opacity:0.4;}.cls-8{stroke-width:3px;}.cls-9{opacity:0.3;}.cls-10,.cls-9{fill:url(#New_Pattern_5);}</style><pattern id="New_Pattern_5" data-name="New Pattern 5" width="24" height="24" patternUnits="userSpaceOnUse" viewBox="0 0 24 24"><rect class="cls-1" width="24" height="24"/><circle class="cls-2" cx="20.24" cy="19.57" r="1.52"/><circle class="cls-2" cx="12.24" cy="19.57" r="1.52"/><circle class="cls-2" cx="4.24" cy="19.57" r="1.52"/><circle class="cls-2" cx="22.91" cy="11.57" r="1.52"/><circle class="cls-2" cx="14.91" cy="11.57" r="1.52"/><circle class="cls-2" cx="6.91" cy="11.57" r="1.52"/><circle class="cls-2" cx="-1.09" cy="11.57" r="1.52"/><circle class="cls-2" cx="17.57" cy="3.57" r="1.52"/><circle class="cls-2" cx="9.57" cy="3.57" r="1.52"/><circle class="cls-2" cx="1.57" cy="3.57" r="1.52"/></pattern></defs><title>logo2.svg</title><polygon class="cls-3" points="9.37 119.4 133.99 81.52 239.19 112.71 110.03 150.2 9.37 119.4"/><path class="cls-3" d="M110,150.2l129.16-37.48.08,152L111,302.79S111,150.2,110,150.2Z"/><polygon class="cls-3" points="9.12 119.54 10.9 273.3 111.27 302.65 109.86 150.06 9.12 119.54"/><line class="cls-4" x1="86.77" y1="125.02" x2="65.5" y2="59.04"/><line class="cls-4" x1="138.96" y1="110.49" x2="150.97" y2="42.37"/><path class="cls-2" d="M74,52.61A10.27,10.27,0,1,1,61.1,46,10.35,10.35,0,0,1,74,52.61Z"/><circle class="cls-2" cx="152.02" cy="34.93" r="8.96" transform="translate(91.22 178.58) rotate(-80)"/><path class="cls-5" d="M225.12,173.29v4.51A16.15,16.15,0,0,1,214.54,193c-.31.12-.62.21-.95.31A16.08,16.08,0,0,1,192.89,178c0-1.53,0-3-.06-4.47A16.2,16.2,0,0,1,199,160.6a16,16,0,0,1,5.3-2.73l.06,0A16.12,16.12,0,0,1,225.12,173.29Z"/><path class="cls-5" d="M171.92,190.22v4.51a16.14,16.14,0,0,1-11.53,15.48,17.7,17.7,0,0,1-4.6.68,16.14,16.14,0,0,1-16.1-16q0-2.29-.06-4.47a16.14,16.14,0,0,1,8.9-14.59,17,17,0,0,1,2.61-1l0,0A16.13,16.13,0,0,1,171.92,190.22Z"/><path class="cls-6" d="M214.54,193a15.68,15.68,0,0,1-5.3,2.73,16.08,16.08,0,0,1-20.7-15.32c0-1.53,0-3-.06-4.47A16.14,16.14,0,0,1,199,160.6a16.2,16.2,0,0,0-6.21,12.88c0,1.43,0,2.94.06,4.47a16.08,16.08,0,0,0,20.7,15.32C213.92,193.18,214.23,193.08,214.54,193Z"/><path class="cls-6" d="M158.63,210.61a14.51,14.51,0,0,1-2.59,1,16.08,16.08,0,0,1-20.7-15.32c0-1.53,0-3-.06-4.47a16.11,16.11,0,0,1,11.51-15.61l0,0a13.58,13.58,0,0,1,1.7-.41,16.14,16.14,0,0,0-8.9,14.59q0,2.18.06,4.47a16.14,16.14,0,0,0,16.1,16A14.3,14.3,0,0,0,158.63,210.61Z"/><path class="cls-2" d="M155.66,182.55a3.82,3.82,0,0,1,3-.89,6.38,6.38,0,0,1,3.08,1.23,9.35,9.35,0,0,1,2.53,11.74A6.37,6.37,0,0,1,162,197a3.82,3.82,0,0,1-3.11.42,5.21,5.21,0,0,0,1.34-2.13,7.9,7.9,0,0,0,.38-2,15,15,0,0,0-.32-3.93,14.76,14.76,0,0,0-1.32-3.72,7.8,7.8,0,0,0-1.18-1.69A5.2,5.2,0,0,0,155.66,182.55Z"/><path class="cls-2" d="M209.52,165.29a3.82,3.82,0,0,1,3-.9,6.38,6.38,0,0,1,3.09,1.21,9.35,9.35,0,0,1,2.6,11.72,6.37,6.37,0,0,1-2.29,2.4,3.82,3.82,0,0,1-3.1.44,5.21,5.21,0,0,0,1.33-2.14,7.89,7.89,0,0,0,.36-2,15.05,15.05,0,0,0-.35-3.93,14.77,14.77,0,0,0-1.34-3.72,7.8,7.8,0,0,0-1.19-1.69A5.2,5.2,0,0,0,209.52,165.29Z"/><path class="cls-7" d="M214.55,210.54v6a42.4,42.4,0,0,1-.29,5l-54.07,16.19a33.62,33.62,0,0,1-3.56-10.58Z"/><path class="cls-7" d="M214.26,221.53a40.28,40.28,0,0,1-4.41,14.18l-40.49,12.13a27.82,27.82,0,0,1-9.17-10.12Z"/><path class="cls-7" d="M209.85,235.71c-3.7,6.91-9.36,12.21-16.21,14.66a29.31,29.31,0,0,1-9.85,1.74,26.19,26.19,0,0,1-14.43-4.28Z"/><line class="cls-8" x1="61.95" y1="36.33" x2="60.67" y2="23.25"/><line class="cls-8" x1="50.56" y1="44.83" x2="40.5" y2="36.38"/><line class="cls-8" x1="45.46" y1="57.77" x2="32.32" y2="57.77"/><line class="cls-8" x1="135.82" y1="29.01" x2="123.95" y2="23.38"/><line class="cls-8" x1="145.66" y1="20.16" x2="141.11" y2="7.83"/><line class="cls-8" x1="159.57" y1="19.72" x2="164.01" y2="7.36"/><line class="cls-8" x1="167.88" y1="30.05" x2="180.21" y2="25.53"/><polygon class="cls-9" points="13.71 119.09 130.72 83.52 229.49 112.81 108.22 148 13.71 119.09"/><polygon class="cls-10" points="10.79 118.21 12.57 271.96 112.94 301.32 111.53 148.73 10.79 118.21"/></svg>