<svg xmlns="http://www.w3.org/2000/svg" viewBox="0 0 246.5 254.3" enable-background="new 0 0 246.5 254.3"><path fill="#F7F7EB" stroke="#232323" stroke-width="2" stroke-linecap="round" stroke-linejoin="round" stroke-miterlimit="10" d="M102.2 200.8s-11.4 1.8-26.3 1.8c-14.7 0-26-1.8-26-1.8l-5.4-77.3h63l-5.3 77.3z"/><path fill="#232323" stroke="#232323" stroke-width="5.385" stroke-linecap="round" stroke-linejoin="round" stroke-miterlimit="10" d="M109.7 127.8s-12.4.9-33.5.9c-21.7 0-33.5-.9-33.5-.9l2.7-4.6-2.7-2s11.4-1.9 33.5-1.9c22.2 0 33.5 1.9 33.5 1.9l-3.6 2.3 3.6 4.3z"/><path stroke="#232323" stroke-width="2" stroke-linecap="round" stroke-linejoin="round" stroke-miterlimit="10" d="M57.9 120.4H45.4v-5.8l12.5-1.8z" fill="none"/><path stroke="#000" stroke-width="2" stroke-linecap="round" stroke-linejoin="round" stroke-miterlimit="10" d="M40.7 113.8c-1.3-4.6 2.2-5.6.9-10.2-1.3-4.6-4.9-3.6-6.2-8.2-1.3-4.6 2.2-5.6.9-10.2S31.4 81.6 30 77" opacity=".19" fill="none"/><path fill="#fff" d="M213.6 161.1c0-3.3-.1-6.6-.9-9.7-.8-3.2-2.3-6.1-3.8-8.9-1.5-2.9-2.5-6.1-4.6-8.6-2.1-2.5-4.4-4.9-7-6.9-2.6-1.9-5.9-2.8-8.8-4.2-2.9-1.3-6-2.3-9.2-3-3.1-.7-6.3-.7-9.6-.7s-6.6-.7-9.8 0c-3.2.7-6.1 2.5-9 3.8-3 1.4-6.5 2-9 4-2.6 2-4.5 4.8-6.6 7.3-2.1 2.5-3 5.7-4.5 8.6-1.5 2.9-3.1 5.6-3.9 8.8-.7 3.1-1.6 6.3-1.6 9.6s1.2 6.4 1.9 9.5c.8 3.2 1.7 6.2 3.1 9.1 1.5 2.9 2.9 5.8 5 8.3 2.1 2.5 5.1 3.9 7.7 5.9 2.6 1.9 4.6 4.7 7.6 6.1 2.9 1.3 6.3 1.2 9.5 1.9 3.1.7 6.2 1.2 9.5 1.2s6.7.8 9.8.1c3.2-.7 5.8-3.2 8.7-4.5 3-1.4 6.1-2.2 8.7-4.2 2.6-2 5.5-3.7 7.6-6.2 2.1-2.5 4.1-5.3 5.5-8.2 1.5-2.9 2.2-6.2 3-9.4.9-3 .7-6.4.7-9.7z"/><path fill="#232323" d="M176.7 204.6c-1.2 0-2.3-.1-3.5-.2-1.1-.1-2.3-.2-3.4-.2-3.5 0-6.7-.6-9.7-1.3-1.1-.2-2.2-.4-3.4-.5-2.1-.3-4.4-.6-6.4-1.5s-3.6-2.5-5.2-3.9c-.9-.8-1.7-1.6-2.6-2.3-.8-.6-1.7-1.2-2.6-1.8-1.8-1.2-3.8-2.5-5.2-4.2-2-2.4-3.4-5.1-4.7-7.8l-.4-.7c-1.6-3.2-2.5-6.5-3.2-9.3l-.6-2.4c-.6-2.4-1.3-4.8-1.3-7.4 0-3.1.7-6.1 1.4-8.9l.2-.9c.6-2.7 1.9-5.1 3.1-7.4.3-.5.6-1.1.8-1.6.5-.9.8-1.8 1.2-2.7.9-2.1 1.8-4.2 3.4-6 .5-.6 1-1.3 1.5-1.9 1.6-2 3.2-4 5.2-5.6 1.8-1.3 3.9-2.1 6-2.8 1.1-.4 2.2-.8 3.2-1.2l2.4-1.2c2.1-1.1 4.3-2.2 6.8-2.7 1.9-.4 4.3-.3 6.7-.2 4.2.3 8.7 0 13.1.9 3.5.8 6.6 1.8 9.4 3 .9.4 1.8.8 2.8 1.2 2.2.9 4.4 1.7 6.3 3.2 2.4 1.8 4.8 4.2 7.2 7 1.5 1.8 2.5 4.1 3.5 6.2.4.9.8 1.8 1.2 2.6l.4.7c1.3 2.6 2.7 5.4 3.5 8.4.8 3.3.9 6.7.9 9.9v1.6c0 2.8.1 5.6-.6 8.3-.8 3.3-1.6 6.6-3.1 9.6-1.4 2.7-3.3 5.6-5.7 8.4-1.6 1.9-3.7 3.4-5.7 4.9l-2.1 1.5c-1.9 1.4-4.1 2.3-6.2 3.1-.9.4-1.8.7-2.7 1.1-1 .5-2 1.1-3.1 1.8-1.8 1.1-3.6 2.3-5.8 2.8-.8.3-1.8.4-3 .4zm-13.6-84.8c-1.1 0-2 .1-2.9.3-2.2.5-4.3 1.5-6.3 2.6-.8.4-1.7.8-2.5 1.2-1.1.5-2.3.9-3.4 1.3-2 .7-3.9 1.4-5.4 2.5-1.8 1.4-3.4 3.3-4.8 5.2-.5.7-1 1.3-1.6 2-1.3 1.6-2.2 3.5-3.1 5.5-.4.9-.8 1.9-1.3 2.8-.3.6-.6 1.1-.8 1.6-1.2 2.3-2.3 4.5-2.9 6.9l-.2.9c-.7 2.7-1.3 5.6-1.3 8.4 0 2.3.6 4.6 1.2 6.8l.6 2.4c.9 3.8 1.8 6.4 3 8.8l.4.7c1.4 2.7 2.6 5.2 4.5 7.4 1.3 1.5 3 2.7 4.8 3.8.9.6 1.8 1.2 2.7 1.9 1 .7 1.9 1.6 2.7 2.4 1.5 1.4 2.9 2.8 4.6 3.5 1.7.8 3.7 1 5.8 1.3 1.2.1 2.4.3 3.5.6 2.9.6 5.9 1.2 9.3 1.2 1.2 0 2.4.1 3.6.2 1.2.1 2.3.2 3.3.2s1.9-.1 2.6-.2c1.8-.4 3.4-1.4 5.1-2.5 1.1-.7 2.2-1.4 3.4-1.9.9-.4 1.9-.8 2.8-1.2 2.1-.8 4-1.6 5.7-2.9l2.1-1.5c1.9-1.4 3.9-2.8 5.3-4.5 2.2-2.6 4.1-5.4 5.4-8 1.4-2.7 2.2-6 2.9-9.1.6-2.5.6-5.1.5-7.9v-1.7c0-3.1-.1-6.4-.8-9.4-.7-2.8-2-5.4-3.3-8l-.4-.7c-.4-.9-.9-1.8-1.3-2.7-.9-2.1-1.8-4.1-3.2-5.7-2.3-2.8-4.6-5-6.9-6.7-1.7-1.3-3.7-2.1-5.8-2.9-1-.4-1.9-.8-2.9-1.2-2.7-1.2-5.6-2.2-9-2.9-4.3-.9-8.7-.6-12.8-.9-.7.2-1.8.1-2.9.1z"/><path fill="#E2D6B3" d="M206.9 162.4c0-3.2-.2-6.3-.9-9.3-.7-3.1-.7-6.5-2-9.3-1.4-2.8-4.3-4.8-6.2-7.2-2-2.4-3.8-4.9-6.3-6.9-2.4-1.9-5.5-2.8-8.3-4.2-2.8-1.3-5.5-2.5-8.6-3.2-3-.7-5.9-1.1-9.1-1.1-3.2 0-6.5-1.2-9.5-.6-3.1.7-6.1 2.1-8.9 3.4-2.8 1.4-4.8 4.1-7.3 6-2.4 2-4.9 3.8-6.8 6.3-1.9 2.4-4.1 4.8-5.5 7.6-1.3 2.8-2.4 5.8-3.1 8.9-.7 3-1 6.2-1 9.4s-.1 6.5.6 9.5c.7 3.1 2.3 5.9 3.7 8.7 1.4 2.8 2.9 5.7 4.8 8.1 2 2.4 4.3 4.6 6.8 6.6 2.4 1.9 5.4 3.1 8.2 4.5 2.8 1.3 5.4 3.4 8.5 4.1 3 .7 6.3.5 9.5.5s6.5.1 9.5-.5c3.1-.7 5.7-2.8 8.5-4.1 2.8-1.4 5.1-3.4 7.5-5.3 2.4-2 5.2-3.5 7.1-6 1.9-2.4 4.5-4.6 5.9-7.5 1.3-2.8 1.6-6.1 2.3-9.2.6-2.8.6-6 .6-9.2z"/><path stroke="#232323" stroke-width="2" stroke-linecap="round" stroke-linejoin="round" stroke-miterlimit="10" d="M206.9 162.4c0-3.2-.2-6.3-.9-9.3-.7-3.1-.7-6.5-2-9.3-1.4-2.8-4.3-4.8-6.2-7.2-2-2.4-3.8-4.9-6.3-6.9-2.4-1.9-5.5-2.8-8.3-4.2-2.8-1.3-5.5-2.5-8.6-3.2-3-.7-5.9-1.1-9.1-1.1-3.2 0-6.5-1.2-9.5-.6-3.1.7-6.1 2.1-8.9 3.4-2.8 1.4-4.8 4.1-7.3 6-2.4 2-4.9 3.8-6.8 6.3-1.9 2.4-4.1 4.8-5.5 7.6-1.3 2.8-2.4 5.8-3.1 8.9-.7 3-1 6.2-1 9.4s-.1 6.5.6 9.5c.7 3.1 2.3 5.9 3.7 8.7 1.4 2.8 2.9 5.7 4.8 8.1 2 2.4 4.3 4.6 6.8 6.6 2.4 1.9 5.4 3.1 8.2 4.5 2.8 1.3 5.4 3.4 8.5 4.1 3 .7 6.3.5 9.5.5s6.5.1 9.5-.5c3.1-.7 5.7-2.8 8.5-4.1 2.8-1.4 5.1-3.4 7.5-5.3 2.4-2 5.2-3.5 7.1-6 1.9-2.4 4.5-4.6 5.9-7.5 1.3-2.8 1.6-6.1 2.3-9.2.6-2.8.6-6 .6-9.2z" fill="none"/><path fill="#fff" d="M179.3 160.7c0-3.9-2.2-6.7-4.9-9.3-2.6-2.5-5.5-5.5-9.5-5.5s-7.9 2-10.5 4.4c-2.7 2.5-3 6.5-3 10.4 0 3.9.7 7.4 3.4 10 2.6 2.5 6.2 4.1 10.1 4.1 4 0 7.8-1.3 10.4-3.8 2.7-2.6 4-6.4 4-10.3z"/><path stroke="#232323" stroke-width="2" stroke-linecap="round" stroke-linejoin="round" stroke-miterlimit="10" d="M179.3 160.7c0-3.9-2.2-6.7-4.9-9.3-2.6-2.5-5.5-5.5-9.5-5.5s-7.9 2-10.5 4.4c-2.7 2.5-3 6.5-3 10.4 0 3.9.7 7.4 3.4 10 2.6 2.5 6.2 4.1 10.1 4.1 4 0 7.8-1.3 10.4-3.8 2.7-2.6 4-6.4 4-10.3z" fill="none"/><ellipse stroke="#262626" stroke-width="1.907" stroke-linecap="round" stroke-linejoin="round" stroke-dasharray="1.395,8.37" cx="163.7" cy="160.4" rx="33.3" ry="32" fill="none"/><ellipse stroke="#262626" stroke-width="2.123" stroke-linecap="round" stroke-linejoin="round" stroke-dasharray="1.0714,6.4284" cx="163.7" cy="161.1" rx="25.5" ry="24.7" fill="none"/><path fill="#fff" d="M174.4 153.4c0 1.5-.3 2.8-.3 4.1 0 1.5-.3 2.8-.4 4-.1 1.5-.3 2.8-.7 3.9-.4 1.3-1.1 2.3-1.9 3.4-.7 1-1.4 2.1-2.6 3-.9.8-1.9 1.7-3.1 2.6"/><path stroke="#232323" stroke-width="2.035" stroke-linecap="round" stroke-linejoin="round" stroke-miterlimit="10" d="M174.4 153.4c0 1.5-.3 2.8-.3 4.1 0 1.5-.3 2.8-.4 4-.1 1.5-.3 2.8-.7 3.9-.4 1.3-1.1 2.3-1.9 3.4-.7 1-1.4 2.1-2.6 3-.9.8-1.9 1.7-3.1 2.6" fill="none"/><path fill="#66CCD3" d="M101.9 152.1h-52c-.7 0-1.3-.6-1.3-1.3s.6-1.3 1.3-1.3h52c.7 0 1.3.6 1.3 1.3s-.6 1.3-1.3 1.3zm-.6 7.4H50.6c-.7 0-1.3-.6-1.3-1.3s.6-1.3 1.3-1.3h50.7c.7 0 1.3.6 1.3 1.3s-.6 1.3-1.3 1.3zm-.6 7.4H51.4c-.7 0-1.3-.6-1.3-1.3s.6-1.3 1.3-1.3h49.3c.7 0 1.3.6 1.3 1.3s-.6 1.3-1.3 1.3zm-.6 7.4h-48c-.7 0-1.3-.6-1.3-1.3s.6-1.3 1.3-1.3h48c.7 0 1.3.6 1.3 1.3s-.6 1.3-1.3 1.3z"/><path stroke="#232323" stroke-width="4.945" stroke-linecap="round" stroke-linejoin="round" stroke-miterlimit="10" d="M42.4 123.5" fill="none"/></svg>