<svg xmlns="http://www.w3.org/2000/svg" viewBox="0 0 112 138.5" enable-background="new 0 0 112 138.5"><path stroke="#232323" stroke-width="2" stroke-linecap="round" stroke-linejoin="round" stroke-miterlimit="10" fill="none" d="M29.6 51.5V40h54.1v9.5"/><path fill="#fff" stroke="#000" stroke-width="2" stroke-linecap="round" stroke-linejoin="round" stroke-miterlimit="10" d="M67.9 115.9v3.7h-54V51.5h34.8"/><path fill="#D6F8FC" d="M41.6 102.5H20V66.1h26.4"/><path stroke="#666" stroke-width=".863" stroke-miterlimit="10" fill="none" d="M21.7 58.3h25.7M21.7 62.4h25.2"/><path stroke="#666" stroke-width=".712" stroke-miterlimit="10" fill="none" d="M22.5 106.4H40"/><path stroke="#666" stroke-width=".703" stroke-miterlimit="10" fill="none" d="M22.5 110.4h16.7"/><path fill="#F4AEAE" stroke="#101010" stroke-width="2" stroke-linecap="round" stroke-linejoin="round" stroke-miterlimit="10" d="M49.847 44.102l53.342 8.418-10.618 67.27-53.34-8.42z"/><path fill="#fff" stroke="#000" stroke-width="1.5" stroke-linecap="round" stroke-linejoin="round" stroke-miterlimit="10" d="M53.036 49.245L98.87 56.48l-9.104 57.686-45.834-7.233z"/><path fill="#232323" stroke="#232323" stroke-width="1.5" stroke-miterlimit="10" d="M50.545 67.86L95.39 74.94 92.866 90.94 48.02 83.864z"/><path fill="#fff" d="M60.5 73.7l1.8.3-1.2 7.7 2.4.4-.2 1.5-4.1-.6 1.3-9.3zM68.7 75l-1.4 9.2-1.8-.3 1.4-9.2 1.8.3zM71.5 75.5l4 .6-.2 1.6-2.2-.3-.4 2.4 2.1.3-.2 1.5-2.1-.3-.6 3.8-1.8-.3 1.4-9.3zM81.2 82.2l-2.1-.3-.4 2.5 2.4.4-.2 1.6-4.2-.6 1.4-9.2 4 .6-.2 1.6-2.2-.3-.3 2.1 2.1.3-.3 1.3z"/></svg>