<svg xmlns="http://www.w3.org/2000/svg" viewBox="0 0 370.1 401" enable-background="new 0 0 370.1 401"><path fill="#FFD66A" stroke="#000" stroke-width="6" stroke-linecap="round" stroke-linejoin="round" stroke-miterlimit="10" d="M310.5 267.6l1.3 92.7s-125.6 8-255.1 0l1.3-91"/><path fill="#FFD66A" stroke="#000" stroke-width="6" stroke-linecap="round" stroke-linejoin="round" stroke-miterlimit="10" d="M53 184.8h262.4V266H53z"/><path stroke="#000" stroke-width="7" stroke-linecap="round" stroke-linejoin="round" stroke-miterlimit="10" d="M150 179.8s-1.6-8.7 0-10.9c5.6-7.5 27.1-8 36.4-8 9.3 0 30.8.5 36.4 8 1.6 2.2 0 10.9 0 10.9" fill="none"/><path fill="#fff" d="M133.9 325.4l-7.6 6.9-7.6-6.9V179.8h15.2z"/><path stroke="#000" stroke-width="5.172" stroke-linecap="round" stroke-linejoin="round" stroke-miterlimit="10" d="M137.8 240.6c-.7 1.5-.7 49.2 0 50.7-.7-1.5-22.7-1.5-23.4 0 .7-1.5.7-49.2 0-50.7.7 1.5 22.7 1.5 23.4 0z" fill="none"/><path fill="#F7F7EB" d="M252.9 325.4l-7.4 6.9-7.8-6.9V179.8h15.2z"/><path stroke="#000" stroke-width="5.172" stroke-linecap="square" stroke-linejoin="round" stroke-miterlimit="10" d="M257.2 240.6c-.7 1.5-.7 49.2 0 50.7-.7-1.5-22.7-1.5-23.4 0 .7-1.5.7-49.2 0-50.7.7 1.5 22.8 1.5 23.4 0z" fill="none"/><path stroke="#000" stroke-width="4.229" stroke-linecap="round" stroke-linejoin="round" stroke-miterlimit="10" stroke-dasharray="2.1143,16.9144" d="M245.3 217.3v96.6m-119.2-96.6v96.6" fill="none"/></svg>