<svg xmlns="http://www.w3.org/2000/svg" viewBox="0 0 370.1 401" enable-background="new 0 0 370.1 401"><path fill="#B6DDDD" d="M222.2 371.2c23.2-1.1 45.6 5.7 69.3 3.8 13.7-1.1 27.5-1.3 41.2-.7 7.2.3 30.3-3.1 32.3 5.5-8.5 7.4-24.2-.2-34.1-.1-13.1.1-34.8 3.3-48.1 4.8-38.3 4.3-21.5-4.2-36.8-6.4-10.9-1.6-29.6.1-38.6-4.9 4.5-.9 9-1.7 13.7-1.9"/><path stroke="#262626" stroke-width="3.072" stroke-linecap="round" stroke-linejoin="round" stroke-miterlimit="10" stroke-dasharray="1.5362,9.2174" d="M231.9 198.1" fill="none"/><path fill="#CCE8EA" d="M294.5 386c3.2-.1 12.6-1.2 15.1.6 3.8 2.7-1.1 4.2-3.6 4.6-4.3.7-8-.5-12.2-1.1-2.7-.4-7.6.2-9.5-1.9 2.1-1.6 7.5-2.1 10.2-2.2"/><path stroke="#232323" stroke-width="2.838" stroke-linecap="round" stroke-linejoin="round" stroke-miterlimit="10" stroke-dasharray="0,5.676" fill="none" d="M116.7 310.4v60.8"/><path stroke="#262626" stroke-width="5.676" stroke-miterlimit="10" fill="none" d="M127.7 298l38.8-32.7"/><path stroke="#232323" stroke-width="5.676" stroke-miterlimit="10" fill="none" d="M66.6 349.6l26-21.9"/><ellipse fill="#E2F437" cx="148" cy="360.9" rx="3.6" ry="4.1"/><path fill="#E2F437" stroke="#232323" stroke-width="5.676" stroke-linejoin="round" stroke-miterlimit="10" d="M92.4 299.3c16.5-5.4 39.4-.6 39.4-.6M142.5 353.1c7.5 1.1 12.1 4.3 12.1 12.7v2.8M104.7 379.7c-12.8 0-12.8-6.7-12.8-12.8 0 0 1.8-28.7 0-62.9-.2-2.9-.4-5.6 2.5-5.3 17.9 2.1 37.4 0 37.4 0 3 0 3 2.5 2.7 5.5-.2 1.6-.4 3.3-.5 4.9"/><path fill="#232323" stroke="#232323" stroke-width="4" stroke-miterlimit="10" d="M38.7 370.7c-6.7 0-11.2-2.9-11.5-3.1-.2-.1-.4-.3-.5-.4-4.6-4.3-5.2-8.9-4.9-11.9 1-9.5 12-16.7 14.2-18 2-1.2 4.6-.6 5.9 1.4 1.2 2 .6 4.6-1.4 5.9-3.8 2.4-9.7 7.4-10.2 11.6-.1 1 0 2.5 2 4.5 1.4.8 9 4.4 19-3.5l11-9.4c1.8-1.5 1.7-1.4 3.2.5 4.3 5.4 4.2 4.5 2.4 6l-11.1 9.5c-6.9 5.3-13.2 6.9-18.1 6.9z"/><path fill="#E2F437" stroke="#232323" stroke-width="5.676" stroke-linejoin="round" stroke-miterlimit="10" d="M103.7 378.7s1.8-28.7 0-62.9c-.2-2.9-.4-5.6 2.5-5.3 17.9 2.1 37.4 0 37.4 0 3 0 3 2.5 2.7 5.5-2.8 23.6-2.8 48.2-2.8 48.2 28.9-.7 30 27.2 6.7 27.2h-33.5c-13 .1-13-6.6-13-12.7zM104.5 310.9c16.5-5.4 40.6 0 40.6 0"/><path stroke="#101010" stroke-width="5.676" stroke-miterlimit="10" d="M253.2 239.2M231.9 191.5" fill="none"/><g><g fill="#C8EDE4"><path d="M245.9 208.4c44.1 52.5 45 104.6 29 153.7-6.9-10.7-18.4-21.6-29.3-30.7l-50.4-52.8c-14.8-19-31-34.7-43.6-45.6l-27.4-28.7c-19.2-35.1-47.9-50.2-47.9-50.2 42-15.4 102.3-10.5 152.2 35.8 3.3 3 15.3 2.2 16.6 4 .8 1.3-1.7 11.5.8 14.5zM274.8 362.1l-10.1-10.6-19.2-20.1c10.9 9 22.4 20 29.3 30.7zM195.1 278.6l50.4 52.8c-15.3-12.7-29.7-21.8-29.7-21.8-6.2-11.1-13.3-21.5-20.7-31zM195.1 278.6L151.5 233c12.6 10.9 28.7 26.5 43.6 45.6zM124.1 204.2l27.4 28.7c-12.9-11.2-21.9-17.5-21.9-17.5-1.7-3.9-3.6-7.6-5.5-11.2z"/></g><g stroke="#101010" stroke-width="5.676" stroke-miterlimit="10" fill="none"><path d="M274.8 362.1c-1.1 3.5-2.4 7-3.7 10.5l-.3-.7c-3.1-4.8-7.3-9.8-12.1-14.7-20.7-21.4-52.2-41.7-52.2-41.7-31.2-56-87.4-94-87.4-94-18.6-43.2-52.8-63.3-52.8-63.3 3.1-1.5 6.3-2.8 9.6-4 42-15.4 102.3-10.5 152.2 35.8 3.3 3 15.3 2.2 16.6 4 .9 1.3-1.5 11.6.9 14.5 44.4 52.4 45.2 104.5 29.2 153.6M151.5 233c-12.9-11.2-21.9-17.5-21.9-17.5-1.7-3.9-3.5-7.7-5.5-11.2-19.2-35.1-47.9-50.2-47.9-50.2M274.8 362.1c-6.9-10.7-18.4-21.6-29.3-30.7-15.3-12.7-29.7-21.8-29.7-21.8-6.2-11.1-13.3-21.4-20.7-30.9-14.8-19-31-34.7-43.6-45.6M274.8 362.1M151.5 233"/></g></g><path stroke="#101010" stroke-width="2.177" stroke-linecap="round" stroke-linejoin="round" stroke-miterlimit="10" stroke-dasharray="0,5.676" fill="none" d="M108.9 315.8v64.3M97.6 304.4v64.4"/><path stroke="#101010" stroke-width="9.974" stroke-miterlimit="10" d="M235.6 194.4c3.2.1 9.3-1.2 9.3-1.2s-1.5 4.3-2.5 8.5l-6.8-7.3z" fill="none"/></svg>