<?xml version="1.0" encoding="utf-8"?>
<!-- Generator: Adobe Illustrator 17.1.0, SVG Export Plug-In . SVG Version: 6.00 Build 0)  -->
<!DOCTYPE svg PUBLIC "-//W3C//DTD SVG 1.1//EN" "http://www.w3.org/Graphics/SVG/1.1/DTD/svg11.dtd">
<svg version="1.1" id="Layer_1" xmlns="http://www.w3.org/2000/svg" xmlns:xlink="http://www.w3.org/1999/xlink" x="0px" y="0px"
	 viewBox="0 0 500 500" enable-background="new 0 0 500 500" xml:space="preserve">
<path fill="none" stroke="#FF5450" stroke-width="2.7073" stroke-miterlimit="10" d="M94.9,451"/>
<path fill="none" stroke="#FF5450" stroke-width="2.7073" stroke-miterlimit="10" d="M357.5,451"/>
<g>
	<path fill="none" stroke="#544D4F" stroke-width="7.8806" stroke-linecap="round" stroke-miterlimit="10" d="M368.9,195.4
		c0,0-31.1,20.3-135.6,20.3c-98.8,0-135.6-20.3-135.6-20.3"/>
	<path fill="none" stroke="#544D4F" stroke-width="7.8806" stroke-linecap="round" stroke-miterlimit="10" d="M369.1,221.4
		c0,0-31.9,20-135.6,20c-97.5,0-135.6-20-135.6-20"/>
	<path fill="none" stroke="#544D4F" stroke-width="7.8806" stroke-linecap="round" stroke-miterlimit="10" d="M369.1,247.4
		c0,0-32.8,19.8-135.6,19.8c-96.4,0-135.6-19.8-135.6-19.8"/>
	<path fill="none" stroke="#544D4F" stroke-width="7.8806" stroke-linecap="round" stroke-miterlimit="10" d="M369.1,273.4
		c0,0-33.6,19.2-135.6,19.2c-95.3,0-135.6-19.2-135.6-19.2"/>
	<path fill="none" stroke="#544D4F" stroke-width="7.8806" stroke-linecap="round" stroke-miterlimit="10" d="M369.4,299.4
		c0,0-34.4,19-135.6,19c-93.9,0-135.6-19-135.6-19"/>
	<path fill="none" stroke="#544D4F" stroke-width="7.8806" stroke-linecap="round" stroke-miterlimit="10" d="M369.4,325.4
		c0,0-34.9,18.7-135.6,18.7c-92.9,0-135.6-18.7-135.6-18.7"/>
	<path fill="none" stroke="#544D4F" stroke-width="7.8806" stroke-linecap="round" stroke-miterlimit="10" d="M369.4,351.4
		c0,0-35.7,18.4-135.6,18.4c-91.8,0-135.6-18.4-135.6-18.4"/>
	<path fill="none" stroke="#544D4F" stroke-width="7.8806" stroke-linecap="round" stroke-miterlimit="10" d="M369.7,377.4
		c0,0-36.5,17.9-135.6,17.9c-90.7,0-135.6-17.9-135.6-17.9"/>
	<path fill="none" stroke="#544D4F" stroke-width="7.8806" stroke-linecap="round" stroke-miterlimit="10" d="M369.7,403.4
		c0,0-37.4,17.6-135.6,17.6c-89.3,0-135.6-17.6-135.6-17.6"/>
	<path fill="none" stroke="#544D4F" stroke-width="7.8806" stroke-linecap="round" stroke-miterlimit="10" d="M369.7,429.4
		c0,0-38.2,17.3-135.6,17.3c-88.3,0-135.6-17.3-135.6-17.3"/>
	<path fill="none" stroke="#544D4F" stroke-width="7.8806" stroke-linecap="round" stroke-miterlimit="10" d="M370,455.6
		c0,0-39,16.8-135.6,16.8c-87.2,0-135.6-16.8-135.6-16.8"/>
</g>
<ellipse fill="#00AEDF" stroke="#544D4F" stroke-width="10.0717" stroke-linecap="round" stroke-miterlimit="10" cx="233" cy="194.9" rx="138.6" ry="20"/>
<g>
	<g>
		<path fill="#544D4F" d="M371.8,250.5c25.4-11.5,35.8,10.5,35.8,32.4c0,26.8-14.6,53.9-39.5,65c-4.6,2.2-0.5,8.9,4.1,6.8
			c30.1-13.3,45.2-47.1,43.3-78.8c-1.6-27.3-20.6-44.2-47.9-32C363.1,246,367.4,252.9,371.8,250.5L371.8,250.5z"/>
	</g>
</g>
<g>
	<g>
		<path fill="#544D4F" d="M369.7,225.7c9.2-4.9,20.6-4,30.3-0.7c18.7,6.2,26.3,26,27.9,43.9c4.6,45.2-18.1,86.6-59.8,105
			c-4.6,2.2-0.5,8.9,4.1,6.8c48.2-21.1,71.5-72.3,62-123.5c-5.7-30.6-36.1-50.4-66.5-39.2C361.6,220.1,365.1,227.9,369.7,225.7
			L369.7,225.7z"/>
	</g>
</g>
<g>
	<g>
		<path fill="#544D4F" d="M131.7,200.3c-21.7,2.2-20.6,40.9-20.8,56c-0.8,29.2,3.2,57.9,3.5,87.2c0,4.1,6.2,4.1,6,0
			c-0.3-23.3-3-46.6-3.5-69.8c-0.3-12.2-4.3-65.5,14.9-67.4C135.5,206,135.5,199.8,131.7,200.3L131.7,200.3z"/>
	</g>
</g>
<g>
	<path fill="#FFFFFF" d="M109,337.9c5.1,0.8,10.6,1.6,15.7,2.7c1.9,0.3,3.2,2.2,3.2,4.3c-0.5,8.1-1.9,16-4.1,23.8
		c-0.3,1.4-1.6,1.9-3,2.4c-3,1.1-5.7,2.2-8.7,3.2c-1.1,0.3-2.4,0-3-0.8c-1.6-2.2-3.5-4.6-5.1-6.8c-0.8-0.8-1.9-1.9-1.6-3
		c1.6-7.6,3-15.2,3.2-22.7C105.5,339,107.1,337.7,109,337.9z"/>
	<path fill="none" stroke="#544D4F" stroke-width="5.4146" stroke-linecap="round" stroke-miterlimit="10" d="M109,337.9
		c5.1,0.8,10.6,1.6,15.7,2.7c1.9,0.3,3.2,2.2,3.2,4.3c-0.5,8.1-1.9,16-4.1,23.8c-0.3,1.4-1.6,1.9-3,2.4c-3,1.1-5.7,2.2-8.7,3.2
		c-1.1,0.3-2.4,0-3-0.8c-1.6-2.2-3.5-4.6-5.1-6.8c-0.8-0.8-1.9-1.9-1.6-3c1.6-7.6,3-15.2,3.2-22.7C105.5,339,107.1,337.7,109,337.9z
		"/>
</g>
</svg>
