<?xml version="1.0" encoding="utf-8"?>
<!-- Generator: Adobe Illustrator 17.1.0, SVG Export Plug-In . SVG Version: 6.00 Build 0)  -->
<!DOCTYPE svg PUBLIC "-//W3C//DTD SVG 1.1//EN" "http://www.w3.org/Graphics/SVG/1.1/DTD/svg11.dtd">
<svg version="1.1" id="Layer_1" xmlns="http://www.w3.org/2000/svg" xmlns:xlink="http://www.w3.org/1999/xlink" x="0px" y="0px"
	 viewBox="0 0 500 500" enable-background="new 0 0 500 500" xml:space="preserve">
<g>
	<g>
		<path id="SVGID_1_" fill="#FFFFFF" d="M461.7,339.3c9.9,36.7-36.8,46.5-67.5,53.7c-21.4,5-77.2,26.9-100.5,25.1
			c-34.5-2.6-44.7-42.5-1.1-76.4c4.9-3.8,24.7-9.9,29.6-27.4c10.1-35.9-20.6-147.7-20.6-147.7l126.2-22
			C427.9,144.5,441.6,264.8,461.7,339.3z"/>
	</g>
	<g>
		<defs>
			<path id="SVGID_4_" d="M461.7,339.3c9.9,36.7-36.8,46.5-67.5,53.7c-21.4,5-77.2,26.9-100.5,25.1c-34.5-2.6-44.7-42.5-1.1-76.4
				c4.9-3.8,24.7-9.9,29.6-27.4c10.1-35.9-20.6-147.7-20.6-147.7l126.2-22C427.9,144.5,441.6,264.8,461.7,339.3z"/>
		</defs>
		<clipPath id="SVGID_6_">
			<use xlink:href="#SVGID_4_"  overflow="visible"/>
		</clipPath>
		<g clip-path="url(#SVGID_6_)">
			<polygon fill="#FFFFFF" points="460.3,319.7 442.8,313 429.7,325.8 412.8,319 399.7,331.8 382.7,325 369.7,337.8 352.7,331 
				339.7,343.8 322.7,337 309.6,349.8 292.7,343 279.6,355.8 263.2,348.9 258.3,353.1 267.8,349.3 257.6,349.5 267.1,345.7 
				256.9,345.9 266.3,342.1 256.2,342.2 265.6,338.5 255.5,338.6 264.9,334.8 254.7,335 264.2,331.2 257.3,325.6 274.9,332.3 
				287.9,319.5 304.9,326.3 318,313.5 334.9,320.3 348,307.5 365,314.3 378,301.5 395,308.3 408,295.5 425,302.3 438.1,289.5 
				454.5,296.4 459.3,292.2 449.9,296 460.1,295.8 450.6,299.6 460.8,299.4 451.3,303.2 461.5,303.1 452.1,306.8 462.2,306.7 
				452.8,310.5 463,310.3 453.6,314.4 			"/>
		</g>
	</g>
	<g>
		<path id="SVGID_2_" fill="none" stroke="#FF0000" stroke-width="4" stroke-miterlimit="10" d="M461.7,339.3
			c9.9,36.7-36.8,46.5-67.5,53.7c-21.4,5-77.2,26.9-100.5,25.1c-34.5-2.6-44.7-42.5-1.1-76.4c4.9-3.8,24.7-9.9,29.6-27.4
			c10.1-35.9-20.6-147.7-20.6-147.7l126.2-22C427.9,144.5,441.6,264.8,461.7,339.3z"/>
	</g>
</g>
<g>
	<g>
		<path id="SVGID_3_" fill="#FFFFFF" d="M230.8,340.1c9.8,36.7-37,46.3-67.7,53.5c-21.4,5-77.3,26.6-100.5,24.7
			c-34.5-2.8-44.5-42.6-0.8-76.4c4.9-3.8,24.7-9.8,29.7-27.3c10.2-35.9-20.1-147.8-20.1-147.8l126.3-21.5
			C197.7,145.3,211,265.6,230.8,340.1z"/>
	</g>
	<g>
		<defs>
			<path id="SVGID_8_" d="M230.8,340.1c9.8,36.7-37,46.3-67.7,53.5c-21.4,5-77.3,26.6-100.5,24.7c-34.5-2.8-44.5-42.6-0.8-76.4
				c4.9-3.8,24.7-9.8,29.7-27.3c10.2-35.9-20.1-147.8-20.1-147.8l126.3-21.5C197.7,145.3,211,265.6,230.8,340.1z"/>
		</defs>
		<clipPath id="SVGID_9_">
			<use xlink:href="#SVGID_8_"  overflow="visible"/>
		</clipPath>
		<g clip-path="url(#SVGID_9_)">
			<polygon fill="#FBB829" points="227.6,322.9 210,316.1 196.9,328.9 180,322 166.9,334.8 149.9,327.9 136.8,340.7 119.9,333.8 
				106.8,346.6 89.9,339.7 76.8,352.5 59.8,345.6 46.7,358.4 30.3,351.4 25.4,355.6 34.9,351.8 24.7,351.9 34.2,348.2 24,348.3 
				33.5,344.6 23.3,344.7 32.8,341 22.6,341.1 32.1,337.3 21.9,337.4 31.4,333.7 24.5,328.1 42.1,334.8 55.2,322.1 72.1,328.9 
				85.2,316.2 102.2,323 115.3,310.3 132.2,317.1 145.3,304.4 162.2,311.3 175.3,298.5 192.3,305.4 205.4,292.6 221.8,299.5 
				226.7,295.4 217.2,299.1 227.4,299 217.9,302.8 228.1,302.6 218.6,306.4 228.8,306.3 219.3,310 229.5,309.9 220,313.6 
				230.2,313.5 220.8,317.6 			"/>
		</g>
	</g>
</g>
<g>
	<path fill="#0D6759" d="M64.8,417.7l20.3-1.8l26.9-7.1l87.7-26.1c0,0-5.1-16.5-2.7-27.3c2.1-9.6,4.7-14.9,12.7-23.6
		c4.7-5,16.9-4.6,16.9-4.6s-0.8-15.7-4.5-14.8c-97.8,23.5-162.3,29.7-162.3,29.7l-11.4,8.7c1.5,4.5,8.2,9.7,10.8,14
		c4.2,7,7.1,14.4,8.6,22.4c1.6,9,1.9,21.4-3.1,29.4"/>
</g>
<g>
	<path fill="#FA1100" d="M295.3,415.6l20.3-1.9l26.9-7.2l87.8-25.4c0,0-5.2-16.5-2.8-27.3c2.1-9.6,4.6-14.9,12.6-23.6
		c4.6-5,16.8-4.7,16.8-4.7l-4.6-14.8L290.1,341l-11.3,8.7c1.5,4.5,8.3,9.6,10.9,14c4.2,7,7.2,14.3,8.6,22.4
		C300,395.2,300.3,407.6,295.3,415.6"/>
</g>
<line fill="none" stroke="#FF0000" stroke-width="25.4558" stroke-miterlimit="10" x1="304.7" y1="178.4" x2="427.2" y2="157.1"/>
<rect x="312.2" y="199.6" transform="matrix(-0.9852 0.1713 -0.1713 -0.9852 778.5305 349.5453)" fill="#ABF4F2" width="124" height="17.5"/>
<g>
	<line fill="none" stroke="#ABF4F2" stroke-width="3.5206" stroke-miterlimit="10" x1="322.6" y1="257.8" x2="438.9" y2="237.5"/>
	<line fill="none" stroke="#ABF4F2" stroke-width="3.5368" stroke-miterlimit="10" x1="322.5" y1="263.4" x2="440" y2="242.9"/>
	<line fill="none" stroke="#ABF4F2" stroke-width="3.5531" stroke-miterlimit="10" x1="322.5" y1="268.9" x2="441" y2="248.3"/>
	<line fill="none" stroke="#ABF4F2" stroke-width="3.5694" stroke-miterlimit="10" x1="322.4" y1="274.5" x2="442" y2="253.7"/>
	<line fill="none" stroke="#ABF4F2" stroke-width="3.5857" stroke-miterlimit="10" x1="322.4" y1="280.1" x2="443.1" y2="259.1"/>
	<line fill="none" stroke="#ABF4F2" stroke-width="3.602" stroke-miterlimit="10" x1="322.3" y1="285.7" x2="444.1" y2="264.5"/>
</g>
<g>
	<g>
		<defs>
			<path id="SVGID_10_" d="M461.2,338.4c9.9,36.7-36.8,46.5-67.5,53.7c-21.4,5-77.2,26.9-100.5,25.1c-34.5-2.6-44.7-42.5-1.1-76.4
				c4.9-3.8,24.7-9.9,29.6-27.4c10.1-35.9-20.6-147.7-20.6-147.7l126.2-22C427.3,143.6,441,263.9,461.2,338.4z"/>
		</defs>
		<clipPath id="SVGID_11_">
			<use xlink:href="#SVGID_10_"  overflow="visible"/>
		</clipPath>
		<g clip-path="url(#SVGID_11_)">
			<polygon fill="#ABF4F2" points="459.8,318.8 442.3,312.1 429.2,324.9 412.2,318.1 399.2,330.9 382.2,324.1 369.2,336.9 
				352.2,330.1 339.1,342.9 322.2,336.1 309.1,348.9 292.1,342.1 279.1,354.9 262.7,348 257.8,352.2 267.3,348.4 257.1,348.6 
				266.5,344.8 256.4,345 265.8,341.2 255.6,341.3 265.1,337.6 254.9,337.7 264.4,334 254.2,334.1 263.6,330.3 256.8,324.7 
				274.4,331.4 287.4,318.6 304.4,325.4 317.4,312.6 334.4,319.4 347.5,306.6 364.4,313.4 377.5,300.6 394.5,307.4 407.5,294.6 
				424.5,301.4 437.5,288.6 453.9,295.5 458.8,291.3 449.4,295.1 459.5,294.9 450.1,298.7 460.2,298.5 450.8,302.3 461,302.2 
				451.5,305.9 461.7,305.8 452.2,309.6 462.4,309.4 453.1,313.5 			"/>
		</g>
	</g>
	<g>
		<path id="SVGID_5_" fill="none" stroke="#FF0000" stroke-width="4" stroke-miterlimit="10" d="M461.2,338.4
			c9.9,36.7-36.8,46.5-67.5,53.7c-21.4,5-77.2,26.9-100.5,25.1c-34.5-2.6-44.7-42.5-1.1-76.4c4.9-3.8,24.7-9.9,29.6-27.4
			c10.1-35.9-20.6-147.7-20.6-147.7l126.2-22C427.3,143.6,441,263.9,461.2,338.4z"/>
	</g>
</g>
<rect x="317.2" y="216.8" transform="matrix(-0.9852 0.1713 -0.1713 -0.9852 790.3751 391.5895)" fill="#FF0000" width="122.2" height="26.2"/>
<g>
	
		<polyline fill="none" stroke="#FFFFFF" stroke-width="3" stroke-linecap="round" stroke-linejoin="round" stroke-miterlimit="10" points="
		318.2,235.3 328.8,243.6 336,232.2 346.6,240.5 353.8,229.1 364.4,237.4 371.6,226 382.3,234.3 389.4,222.9 400.1,231.2 
		407.3,219.8 417.9,228.1 425.1,216.7 435.7,225 	"/>
</g>
<g>
	<path fill="#FF0000" d="M448.2,287.6c-0.7,0.1-1.5-3.8-2.1-3.9c-0.7-0.1-2.2,3.7-2.8,3.4c-0.6-0.2,0.7-4,0.1-4.4
		c-0.5-0.4-3.7,2.1-4.1,1.6s2.6-3.2,2.3-3.8c-0.3-0.6-4.2,0-4.4-0.7c-0.1-0.7,3.8-1.5,3.9-2.1c0.1-0.7-3.7-2.2-3.4-2.8
		c0.2-0.6,4,0.7,4.4,0.1c0.4-0.5-2.1-3.7-1.6-4.1s3.2,2.6,3.8,2.3c0.6-0.3,0-4.2,0.7-4.4"/>
</g>
<g>
	<circle fill="#FF0000" cx="316.9" cy="198.8" r="5.6"/>
	<circle fill="#FF0000" cx="334.9" cy="195.7" r="5.6"/>
	<circle fill="#FF0000" cx="352.9" cy="192.6" r="5.6"/>
	<circle fill="#FF0000" cx="371" cy="189.5" r="5.6"/>
	<circle fill="#FF0000" cx="389" cy="186.3" r="5.6"/>
	<circle fill="#FF0000" cx="407" cy="183.2" r="5.6"/>
	<circle fill="#FF0000" cx="425" cy="180.1" r="5.6"/>
</g>
<g>
	<path fill="#FF0000" d="M342.8,298.4c0.1,0.7-3.8,1.5-3.9,2.1c-0.1,0.7,3.7,2.2,3.4,2.8c-0.2,0.6-4-0.7-4.4-0.1
		c-0.4,0.5,2.1,3.7,1.6,4.1s-3.2-2.6-3.8-2.3c-0.6,0.3,0,4.2-0.7,4.4c-0.7,0.1-1.5-3.8-2.1-3.9c-0.7-0.1-2.2,3.7-2.8,3.4
		c-0.6-0.2,0.7-4,0.1-4.4c-0.5-0.4-3.7,2.1-4.1,1.6s2.6-3.2,2.3-3.8c-0.3-0.6-4.2,0-4.4-0.7c-0.1-0.7,3.8-1.5,3.9-2.1
		c0.1-0.7-3.7-2.2-3.4-2.8c0.2-0.6,4,0.7,4.4,0.1c0.4-0.5-2.1-3.7-1.6-4.1s3.2,2.6,3.8,2.3c0.6-0.3,0-4.2,0.7-4.4
		c0.7-0.1,1.5,3.8,2.1,3.9c0.7,0.1,2.2-3.7,2.8-3.4c0.6,0.2-0.7,4-0.1,4.4c0.5,0.4,3.7-2.1,4.1-1.6s-2.6,3.2-2.3,3.8
		C338.7,298.3,342.7,297.7,342.8,298.4z"/>
</g>
<g>
	<path fill="#FF0000" d="M370.5,295.2c0.1,0.7-3.8,1.5-3.9,2.1c-0.1,0.7,3.7,2.2,3.4,2.8c-0.2,0.6-4-0.7-4.4-0.1
		c-0.4,0.5,2.1,3.7,1.6,4.1s-3.2-2.6-3.8-2.3c-0.6,0.3,0,4.2-0.7,4.4c-0.7,0.1-1.5-3.8-2.1-3.9c-0.7-0.1-2.2,3.7-2.8,3.4
		c-0.6-0.2,0.7-4,0.1-4.4c-0.5-0.4-3.7,2.1-4.1,1.6s2.6-3.2,2.3-3.8c-0.3-0.6-4.2,0-4.4-0.7c-0.1-0.7,3.8-1.5,3.9-2.1
		c0.1-0.7-3.7-2.2-3.4-2.8c0.2-0.6,4,0.7,4.4,0.1c0.4-0.5-2.1-3.7-1.6-4.1s3.2,2.6,3.8,2.3c0.6-0.3,0-4.2,0.7-4.4
		c0.7-0.1,1.5,3.8,2.1,3.9c0.7,0.1,2.2-3.7,2.8-3.4c0.6,0.2-0.7,4-0.1,4.4c0.5,0.4,3.7-2.1,4.1-1.6s-2.6,3.2-2.3,3.8
		C366.4,295.1,370.4,294.5,370.5,295.2z"/>
</g>
<g>
	<path fill="#FF0000" d="M399.6,286.5c0.1,0.7-3.8,1.5-3.9,2.1c-0.1,0.7,3.7,2.2,3.4,2.8c-0.2,0.6-4-0.7-4.4-0.1
		c-0.4,0.5,2.1,3.7,1.6,4.1s-3.2-2.6-3.8-2.3c-0.6,0.3,0,4.2-0.7,4.4c-0.7,0.1-1.5-3.8-2.1-3.9c-0.7-0.1-2.2,3.7-2.8,3.4
		c-0.6-0.2,0.7-4,0.1-4.4c-0.5-0.4-3.7,2.1-4.1,1.6s2.6-3.2,2.3-3.8c-0.3-0.6-4.2,0-4.4-0.7c-0.1-0.7,3.8-1.5,3.9-2.1
		c0.1-0.7-3.7-2.2-3.4-2.8c0.2-0.6,4,0.7,4.4,0.1c0.4-0.5-2.1-3.7-1.6-4.1s3.2,2.6,3.8,2.3c0.6-0.3,0-4.2,0.7-4.4
		c0.7-0.1,1.5,3.8,2.1,3.9c0.7,0.1,2.2-3.7,2.8-3.4c0.6,0.2-0.7,4-0.1,4.4c0.5,0.4,3.7-2.1,4.1-1.6s-2.6,3.2-2.3,3.8
		C395.5,286.4,399.5,285.8,399.6,286.5z"/>
</g>
<g>
	<path fill="#FF0000" d="M431.1,284.1c0.1,0.7-3.8,1.5-3.9,2.1c-0.1,0.7,3.7,2.2,3.4,2.8c-0.2,0.6-4-0.7-4.4-0.1
		c-0.4,0.5,2.1,3.7,1.6,4.1s-3.2-2.6-3.8-2.3c-0.6,0.3,0,4.2-0.7,4.4c-0.7,0.1-1.5-3.8-2.1-3.9c-0.7-0.1-2.2,3.7-2.8,3.4
		c-0.6-0.2,0.7-4,0.1-4.4c-0.5-0.4-3.7,2.1-4.1,1.6s2.6-3.2,2.3-3.8c-0.3-0.6-4.2,0-4.4-0.7c-0.1-0.7,3.8-1.5,3.9-2.1
		c0.1-0.7-3.7-2.2-3.4-2.8c0.2-0.6,4,0.7,4.4,0.1c0.4-0.5-2.1-3.7-1.6-4.1s3.2,2.6,3.8,2.3c0.6-0.3,0-4.2,0.7-4.4
		c0.7-0.1,1.5,3.8,2.1,3.9c0.7,0.1,2.2-3.7,2.8-3.4c0.6,0.2-0.7,4-0.1,4.4c0.5,0.4,3.7-2.1,4.1-1.6s-2.6,3.2-2.3,3.8
		C427,284,430.9,283.4,431.1,284.1z"/>
</g>
<g opacity="0.56">
	<g>
		<path fill="#A8EFCD" d="M397.5,351.9c-3.5,0.7-6.9,1-10.4,0.8c-0.5,0-0.5,0.7,0,0.8c3.6,0.2,7.1-0.1,10.6-0.8
			C398.2,352.6,398,351.8,397.5,351.9L397.5,351.9z"/>
	</g>
</g>
<g opacity="0.56">
	<g>
		<path fill="#A8EFCD" d="M370.8,354.7c-2.3,0.9-4.3,2.5-6.7,2.7c-0.3,0-0.4,0.6,0,0.5c2.5-0.2,4.6-1.8,6.9-2.7
			C371.2,355.1,371.1,354.5,370.8,354.7L370.8,354.7z"/>
	</g>
</g>
<g opacity="0.56">
	<g>
		<path fill="#A8EFCD" d="M354.4,381.3c-4.1,0.7-8.3,0.4-12.5,0.7c-0.5,0-0.5,0.8,0,0.8c4.2-0.3,8.5,0,12.7-0.7
			C355.1,381.9,354.9,381.2,354.4,381.3L354.4,381.3z"/>
	</g>
</g>
<g opacity="0.56">
	<g>
		<path fill="#A8EFCD" d="M329.5,377.5c-4.3,0.6-8.5,2-12.8,2.7c-0.5,0.1-0.3,0.8,0.2,0.7c4.3-0.7,8.3-2.1,12.6-2.7
			C330,378.2,330,377.4,329.5,377.5L329.5,377.5z"/>
	</g>
</g>
<g opacity="0.56">
	<g>
		<path fill="#A8EFCD" d="M321.2,365.2c-3.4,0.6-6.8,1.9-10.2,1.3c-0.5-0.1-0.7,0.6-0.2,0.7c3.6,0.6,7.1-0.7,10.6-1.3
			C321.8,365.8,321.6,365.1,321.2,365.2L321.2,365.2z"/>
	</g>
</g>
<g opacity="0.56">
	<g>
		<path fill="#A8EFCD" d="M292.1,355.3c3.8-0.9,7.7-0.6,11.5,0c0.5,0.1,0.7-0.6,0.2-0.7c-3.9-0.6-8-0.9-11.9,0
			C291.4,354.7,291.6,355.4,292.1,355.3L292.1,355.3z"/>
	</g>
</g>
<g opacity="0.56">
	<g>
		<path fill="#A8EFCD" d="M322.4,354.1c3-0.5,5.9-1,8.9-1.5c0.5-0.1,0.3-0.8-0.2-0.7c-3,0.5-5.9,1-8.9,1.5
			C321.7,353.5,321.9,354.2,322.4,354.1L322.4,354.1z"/>
	</g>
</g>
<g opacity="0.56">
	<g>
		<path fill="#A8EFCD" d="M382.5,343.6c4-0.9,7.8-2.4,11-5c0.4-0.3-0.2-0.8-0.5-0.5c-3.1,2.5-6.8,3.9-10.7,4.8
			C381.8,343,382,343.8,382.5,343.6L382.5,343.6z"/>
	</g>
</g>
<g opacity="0.56">
	<g>
		<path fill="#A8EFCD" d="M410.7,381.1c-4,1.2-7.9,2.6-12,3.1c-0.5,0.1-0.5,0.8,0,0.8c4.2-0.6,8.2-1.9,12.2-3.1
			C411.4,381.7,411.2,381,410.7,381.1L410.7,381.1z"/>
	</g>
</g>
<g opacity="0.56">
	<g>
		<path fill="#A8EFCD" d="M387.8,379.7c2.3-1.1,4.8-1.6,7.1-2.8c0.4-0.2,0.1-0.9-0.4-0.6c-2.3,1.2-4.8,1.7-7.1,2.8
			C387,379.3,387.4,379.9,387.8,379.7L387.8,379.7z"/>
	</g>
</g>
<g opacity="0.56">
	<g>
		<path fill="#A8EFCD" d="M337.7,396.3c-4.7,0.9-9.4,2.1-14.3,2c-0.5,0-0.5,0.7,0,0.8c4.9,0.1,9.7-1.1,14.5-2
			C338.4,397,338.2,396.2,337.7,396.3L337.7,396.3z"/>
	</g>
</g>
<g opacity="0.56">
	<g>
		<path fill="#A8EFCD" d="M345.1,368.4c2-0.3,4.1-0.5,5.9-1.6c0.4-0.2,0-0.9-0.4-0.6c-1.8,1-3.8,1.2-5.7,1.5
			C344.5,367.7,344.7,368.5,345.1,368.4L345.1,368.4z"/>
	</g>
</g>
<g opacity="0.56">
	<g>
		<path fill="#A8EFCD" d="M348.8,342.9c2.6-0.5,5.3-0.9,7.9-1.4c0.5-0.1,0.3-0.8-0.2-0.7c-2.6,0.5-5.3,0.9-7.9,1.4
			C348.2,342.3,348.4,343,348.8,342.9L348.8,342.9z"/>
	</g>
</g>
<g opacity="0.56">
	<g>
		<path fill="#A8EFCD" d="M409.4,332.4c3.4-0.7,6.9-0.9,10.3-1.3c0.5-0.1,0.5-0.8,0-0.8c-3.5,0.4-7,0.6-10.5,1.3
			C408.7,331.7,408.9,332.4,409.4,332.4L409.4,332.4z"/>
	</g>
</g>
<g opacity="0.56">
	<g>
		<path fill="#A8EFCD" d="M443,320.9c1.1-0.2,2.3-0.4,3.4-0.6c0.5-0.1,0.3-0.8-0.2-0.7c-1.1,0.2-2.3,0.4-3.4,0.6
			C442.3,320.3,442.5,321,443,320.9L443,320.9z"/>
	</g>
</g>
<g opacity="0.56">
	<g>
		<path fill="#A8EFCD" d="M416.1,344.7c-3.2,0.8-6.5,1.6-9.8,2.2c-0.5,0.1-0.3,0.8,0.2,0.7c3.3-0.6,6.5-1.4,9.8-2.2
			C416.7,345.3,416.5,344.5,416.1,344.7L416.1,344.7z"/>
	</g>
</g>
<g opacity="0.56">
	<g>
		<path fill="#A8EFCD" d="M420.5,361.6c-2.5,0.4-4.9,0.9-7.4,1.3c-0.5,0.1-0.3,0.8,0.2,0.7c2.5-0.4,4.9-0.9,7.4-1.3
			C421.2,362.3,421,361.6,420.5,361.6L420.5,361.6z"/>
	</g>
</g>
<g opacity="0.56">
	<g>
		<path fill="#A8EFCD" d="M379.2,366.3c-3.8,0.7-7.5,1.8-11.3,1.5c-0.5,0-0.5,0.7,0,0.8c3.9,0.3,7.7-0.8,11.5-1.5
			C379.9,366.9,379.7,366.2,379.2,366.3L379.2,366.3z"/>
	</g>
</g>
<g opacity="0.56">
	<g>
		<path fill="#A8EFCD" d="M374.8,390.4c-2.4,0.8-4.6,2-7.1,2.3c-0.5,0.1-0.5,0.8,0,0.8c2.6-0.3,4.9-1.5,7.3-2.3
			C375.4,391,375.2,390.3,374.8,390.4L374.8,390.4z"/>
	</g>
</g>
<g opacity="0.56">
	<g>
		<path fill="#A8EFCD" d="M343.8,403c-1.7,1.4-3.8,1.9-6,2c-0.5,0-0.5,0.8,0,0.8c2.4-0.1,4.6-0.6,6.5-2.2
			C344.7,403.2,344.2,402.7,343.8,403L343.8,403z"/>
	</g>
</g>
<g opacity="0.56">
	<g>
		<path fill="#A8EFCD" d="M308.3,393.3c-1,0.2-2,0.3-3,0.5c-0.5,0.1-0.3,0.8,0.2,0.7c1-0.2,2-0.3,3-0.5
			C309,394,308.8,393.3,308.3,393.3L308.3,393.3z"/>
	</g>
</g>
<g opacity="0.56">
	<g>
		<path fill="#A8EFCD" d="M331.1,165.6c-3.1,0.8-6-0.2-9.1-0.4c-0.5,0-0.5,0.7,0,0.8c3.2,0.3,6.1,1.3,9.3,0.4
			C331.8,166.2,331.6,165.4,331.1,165.6L331.1,165.6z"/>
	</g>
</g>
<g opacity="0.56">
	<g>
		<path fill="#A8EFCD" d="M401.6,153.8c-3.1,0.5-6.3,1-9.3,2.1c-0.4,0.2-0.3,0.9,0.2,0.7c3-1.1,6.1-1.6,9.3-2.1
			C402.3,154.4,402.1,153.7,401.6,153.8L401.6,153.8z"/>
	</g>
</g>
<g opacity="0.56">
	<g>
		<path fill="#A8EFCD" d="M383.1,164.1c-3.6,0.7-7.1,1.7-10.8,2.4c-0.5,0.1-0.3,0.8,0.2,0.7c3.6-0.7,7.1-1.7,10.8-2.4
			C383.8,164.8,383.6,164,383.1,164.1L383.1,164.1z"/>
	</g>
</g>
<g opacity="0.56">
	<g>
		<path fill="#A8EFCD" d="M354.3,172.7c-2.6,0.3-5.1,1-7.4,2.3c-0.4,0.2,0,0.9,0.4,0.6c2.2-1.3,4.5-1.9,7-2.2
			C354.8,173.4,354.8,172.6,354.3,172.7L354.3,172.7z"/>
	</g>
</g>
<g opacity="0.56">
	<g>
		<path fill="#A8EFCD" d="M329.9,175.9c-2,0.3-3.9,0.7-5.9,1c-0.5,0.1-0.3,0.8,0.2,0.7c2-0.3,3.9-0.7,5.9-1
			C330.5,176.6,330.3,175.8,329.9,175.9L329.9,175.9z"/>
	</g>
</g>
<g opacity="0.56">
	<g>
		<path fill="#A8EFCD" d="M312.8,174.3c-2,0.3-3.9,0.7-5.9,1c-0.5,0.1-0.3,0.8,0.2,0.7c2-0.3,3.9-0.7,5.9-1
			C313.5,175,313.3,174.2,312.8,174.3L312.8,174.3z"/>
	</g>
</g>
<g opacity="0.56">
	<g>
		<path fill="#A8EFCD" d="M371.2,156.6c-3.6,0.6-7.2,1.3-10.8,1.9c-0.5,0.1-0.3,0.8,0.2,0.7c3.6-0.6,7.2-1.3,10.8-1.9
			C371.8,157.2,371.6,156.5,371.2,156.6L371.2,156.6z"/>
	</g>
</g>
<g opacity="0.56">
	<g>
		<path fill="#A8EFCD" d="M425.8,147.1c-2.5,0.4-5,0.7-7.4,1.8c-0.4,0.2-0.1,0.9,0.4,0.6c2.3-1.1,4.8-1.3,7.2-1.7
			C426.5,147.7,426.3,147,425.8,147.1L425.8,147.1z"/>
	</g>
</g>
<g opacity="0.56">
	<g>
		<path fill="#A8EFCD" d="M419.2,158.4c-3.3,0.6-6.6,1.1-9.9,1.7c-0.5,0.1-0.3,0.8,0.2,0.7c3.3-0.6,6.6-1.1,9.9-1.7
			C419.9,159,419.7,158.3,419.2,158.4L419.2,158.4z"/>
	</g>
</g>
<g opacity="0.56">
	<g>
		<path fill="#A8EFCD" d="M400.4,167.2c-1.6,0.5-3.2,0.6-4.8,0.4c-0.5-0.1-0.7,0.6-0.2,0.7c1.8,0.3,3.5,0.2,5.2-0.4
			C401.1,167.8,400.9,167.1,400.4,167.2L400.4,167.2z"/>
	</g>
</g>
<g opacity="0.56">
	<g>
		<path fill="#A8EFCD" d="M372.7,162.4c-0.7,0.1-1.3,0.2-2,0.3c-0.5,0.1-0.3,0.8,0.2,0.7c0.7-0.1,1.3-0.2,2-0.3
			C373.4,163,373.2,162.3,372.7,162.4L372.7,162.4z"/>
	</g>
</g>
<g opacity="0.56">
	<g>
		<path fill="#A8EFCD" d="M350.9,166.2c-2.2,1.4-5,2.7-7.5,1.4c-0.4-0.2-0.8,0.4-0.4,0.6c2.8,1.4,5.8,0.2,8.3-1.4
			C351.7,166.6,351.3,165.9,350.9,166.2L350.9,166.2z"/>
	</g>
</g>
<g opacity="0.56">
	<g>
		<path fill="#A8EFCD" d="M375.1,173.1c-2.3,0.4-4.6,0.8-6.9,1.2c-0.5,0.1-0.3,0.8,0.2,0.7c2.3-0.4,4.6-0.8,6.9-1.2
			C375.7,173.8,375.5,173.1,375.1,173.1L375.1,173.1z"/>
	</g>
</g>
<g>
	<line fill="none" stroke="#FBB829" stroke-width="3.5206" stroke-miterlimit="10" x1="90.5" y1="259.4" x2="207" y2="239.5"/>
	<line fill="none" stroke="#FBB829" stroke-width="3.5368" stroke-miterlimit="10" x1="90.5" y1="264.9" x2="208" y2="245"/>
	<line fill="none" stroke="#FBB829" stroke-width="3.5531" stroke-miterlimit="10" x1="90.4" y1="270.5" x2="209" y2="250.4"/>
	<line fill="none" stroke="#FBB829" stroke-width="3.5694" stroke-miterlimit="10" x1="90.3" y1="276.1" x2="210" y2="255.8"/>
	<line fill="none" stroke="#FBB829" stroke-width="3.5857" stroke-miterlimit="10" x1="90.3" y1="281.7" x2="211.1" y2="261.2"/>
	<line fill="none" stroke="#FBB829" stroke-width="3.602" stroke-miterlimit="10" x1="90.2" y1="287.3" x2="212.1" y2="266.6"/>
</g>
<rect x="80.6" y="201.4" transform="matrix(-0.9858 0.1678 -0.1678 -0.9858 318.4404 393.3647)" fill="#FBB829" width="124" height="17.5"/>
<g>
	<path fill="#FFF8DC" d="M333,142.1c1.7-0.4,4.6,4.5,6.3,4.1c1.7-0.3,2.3-5.9,4-6.2s4.5,4.6,6.2,4.3s2.4-5.8,4.2-6.1
		c1.7-0.3,4.4,4.7,6.1,4.5s2.6-5.8,4.3-6c1.7-0.2,4.3,4.8,6,4.6s2.7-5.7,4.5-5.9s4.2,4.9,5.9,4.7c1.7-0.2,2.8-5.7,4.6-5.8
		c1.8-0.2,4.2,5,5.9,4.8c1.7-0.2,2.9-5.6,4.6-5.8c1.8-0.2,4.1,5,5.9,4.9c1.1-0.1,1.6-5.5,3-5.7c1.2-0.2,3.4,4.9,4.6,4.8
		c1.2-0.2,1.5-5.6,2.8-5.8c1.2-0.2,3.4,5,4.6,4.8c1.2-0.1,1.8-5.6,3.1-5.7c1.3-0.1,2.9,5.2,4.2,5.2c1.3,0,2.6-5.3,3.8-5.3
		c1.3,0.1,1.9,5.5,3.1,5.7c1.3,0.2,4.2-4.5,5.3-4c1.2,0.5-0.8,5.5,0.1,6.3s6.3-1.3,6.8-0.2c0.5,1-4.7,3.3-4.6,4.6
		c0.1,1,5.9,2.3,5.7,3.5c-0.1,1.2-6,1.3-6.3,2.4c-0.4,1.2,4.4,4.4,3.8,5.4s-5.9-1.2-6.8-0.3c-0.8,0.8,2,5.6,0.9,6.3
		c-1,0.7-4.9-3.3-6.1-2.8c-1.1,0.5,0,5.9-1.2,6.3c-1.1,0.4-4-4.4-5.2-4c-1.2,0.3-1.1,5.8-2.3,6c-1.2,0.2-3.4-4.8-4.6-4.6
		s-1.6,5.6-2.9,5.8c-1.2,0.1-3-5.1-4.2-4.9c-1.2,0.1-2,5.5-3.2,5.6s-2.8-5.2-4-5.1c-1.4,0.1-2.4,5.5-3.8,5.6s-3.2-5.1-4.6-5
		s-2.2,5.6-3.6,5.7c-1.4,0.1-3.4-5-4.8-4.8s-2.1,5.6-3.4,5.8c-1.4,0.2-3.5-4.9-4.9-4.7s-1.9,5.7-3.2,5.9c-1.4,0.2-3.7-4.8-5-4.5
		c-1.4,0.2-1.7,5.7-3.1,6c-1.3,0.3-3.8-4.7-5.1-4.4c-1.4,0.3-1.6,5.8-2.9,6.1s-3.9-4.6-5.2-4.3c-1.4,0.3-1.4,5.8-2.7,6.1
		c-1.6,0.4-4.4-4.4-6-4.1c-1.6,0.4-2,5.9-3.6,6.2s-4.2-4.6-5.8-4.3c-1.6,0.3-2.3,5.8-3.9,6s-3.9-4.9-5.5-4.7
		c-1.7,0.2-2.9,5.6-4.4,5.7c-1.6,0.1-3.3-5.2-4.9-5.3c-1.7,0-3.7,5.1-5.3,4.9c-1.7-0.2-2.1-5.7-3.6-6.2c-1.6-0.5-5.1,3.9-6.5,3.2
		c-1.5-0.7,0.3-6-0.9-7.1c-1.2-1.1-6.4,1.1-7.3-0.3c-0.8-1.3,3.5-5,3-6.6c-0.4-1.3-5.9-2.2-5.6-3.3c0.2-1.2,5.8-0.2,6.6-1.3
		c0.7-0.9-2.3-5.5-1.2-6.3c1-0.7,5.2,2.9,6.4,2.3c1.1-0.6-0.3-5.9,1-6.4c1.2-0.5,4.5,3.9,5.8,3.5c1.2-0.4,0.7-5.9,2-6.2
		c1.3-0.4,4.1,4.4,5.3,4.1c1.3-0.3,1.3-5.8,2.6-6.1c1.3-0.3,3.7,4.7,5,4.5s1.7-5.7,3-5.9c1.4-0.2,3.4,4.9,4.7,4.7
		c1.4-0.2,2.1-5.6,3.3-5.7"/>
</g>
<path fill="#C61825" d="M429.4,144c0.5,3.1-29.3,10.8-64.3,16.9c-35,6.1-63.7,8.5-64.3,5.5c-0.5-3.1,19-13.2,62.3-16.5
	C398.6,147.1,428.9,141,429.4,144z"/>
<g>
	<g>
		<path id="SVGID_7_" fill="none" stroke="#136759" stroke-width="4" stroke-miterlimit="10" d="M230,339.2
			c9.8,36.7-37,46.3-67.7,53.5c-21.4,5-77.3,26.6-100.5,24.7c-34.5-2.8-44.5-42.6-0.8-76.4c4.9-3.8,24.7-9.8,29.7-27.3
			c10.2-35.9-20.1-147.8-20.1-147.8l126.3-21.5C196.9,144.4,210.2,264.7,230,339.2z"/>
	</g>
</g>
<line fill="none" stroke="#0D6759" stroke-width="25.2786" stroke-miterlimit="10" x1="73" y1="179.9" x2="198.3" y2="158.6"/>
<rect x="85.2" y="218.6" transform="matrix(-0.9858 0.1678 -0.1678 -0.9858 329.4185 435.5549)" fill="#0D6759" width="122.2" height="26.2"/>
<g>
	
		<polyline fill="none" stroke="#FFFFFF" stroke-width="2" stroke-linecap="round" stroke-linejoin="round" stroke-miterlimit="10" points="
		86.2,236.8 96.8,245.2 104.1,233.8 114.7,242.2 121.9,230.8 132.5,239.1 139.7,227.7 150.3,236.1 157.5,224.7 168.1,233.1 
		175.4,221.7 186,230 193.2,218.6 203.8,227 	"/>
</g>
<g>
	<path fill="#0D6759" d="M216,289.6c-0.7,0.1-1.5-3.8-2.1-3.9c-0.7-0.1-2.2,3.7-2.8,3.4c-0.6-0.2,0.7-4,0.1-4.4
		c-0.5-0.4-3.7,2.1-4.1,1.6c-0.4-0.5,2.6-3.2,2.3-3.7c-0.3-0.6-4.2,0-4.4-0.7c-0.1-0.7,3.8-1.5,3.9-2.1c0.1-0.7-3.7-2.2-3.4-2.8
		c0.2-0.6,4,0.7,4.4,0.1c0.4-0.5-2.1-3.7-1.6-4.1s3.2,2.6,3.7,2.3c0.6-0.3,0-4.2,0.7-4.4"/>
</g>
<g>
	
		<ellipse transform="matrix(-0.1678 -0.9858 0.9858 -0.1678 -99.088 317.34)" fill="#0D6759" cx="84.4" cy="200.5" rx="4.5" ry="4.8"/>
	
		<ellipse transform="matrix(-0.1678 -0.9858 0.9858 -0.1678 -74.4192 331.9555)" fill="#0D6759" cx="102.9" cy="197.4" rx="4.6" ry="4.8"/>
	
		<ellipse transform="matrix(-0.1678 -0.9858 0.9858 -0.1678 -49.7507 346.571)" fill="#0D6759" cx="121.4" cy="194.3" rx="4.6" ry="4.8"/>
	
		<ellipse transform="matrix(-0.1678 -0.9858 0.9858 -0.1678 -25.2137 361.109)" fill="#0D6759" cx="139.8" cy="191.2" rx="4.6" ry="4.7"/>
	
		<ellipse transform="matrix(-0.1678 -0.9858 0.9858 -0.1678 -0.4676 375.5928)" fill="#0D6759" cx="158.3" cy="188" rx="4.6" ry="4.7"/>
	
		<ellipse transform="matrix(-0.1678 -0.9858 0.9858 -0.1678 24.2011 390.2083)" fill="#0D6759" cx="176.8" cy="184.9" rx="4.6" ry="4.7"/>
	
		<ellipse transform="matrix(-0.1678 -0.9858 0.9858 -0.1678 48.8698 404.8239)" fill="#0D6759" cx="195.3" cy="181.8" rx="4.7" ry="4.6"/>
</g>
<g>
	<path fill="#0D6759" d="M110.6,300.1c0.1,0.7-3.8,1.5-3.9,2.1c-0.1,0.7,3.7,2.2,3.4,2.8c-0.2,0.6-4-0.7-4.4-0.1
		c-0.4,0.5,2.1,3.7,1.6,4.1s-3.2-2.6-3.7-2.3c-0.6,0.3,0,4.2-0.7,4.4c-0.7,0.1-1.5-3.8-2.1-3.9c-0.7-0.1-2.2,3.7-2.8,3.4
		c-0.6-0.2,0.7-4,0.1-4.4c-0.5-0.4-3.7,2.1-4.1,1.6s2.6-3.2,2.3-3.7c-0.3-0.6-4.2,0-4.4-0.7c-0.1-0.7,3.8-1.5,3.9-2.1
		c0.1-0.7-3.7-2.2-3.4-2.8c0.2-0.6,4,0.7,4.4,0.1c0.4-0.5-2.1-3.7-1.6-4.1s3.2,2.6,3.7,2.3c0.6-0.3,0-4.2,0.7-4.4
		c0.7-0.1,1.5,3.8,2.1,3.9c0.7,0.1,2.2-3.7,2.8-3.4c0.6,0.2-0.7,4-0.1,4.4c0.5,0.4,3.7-2.1,4.1-1.6s-2.6,3.2-2.3,3.7
		C106.5,300,110.5,299.4,110.6,300.1z"/>
</g>
<g>
	<path fill="#0D6759" d="M135.2,296c0.1,0.5-3.1,1.2-3.2,1.7c-0.1,0.5,2.9,1.8,2.8,2.3c-0.2,0.5-3.3-0.6-3.6-0.2s1.6,3.1,1.2,3.4
		c-0.4,0.3-2.5-2.2-3-2s0,3.5-0.6,3.5c-0.5,0.1-1.2-3.1-1.7-3.2c-0.5,0-1.7,3-2.2,2.8s0.5-3.3,0-3.6c-0.4-0.3-3,1.8-3.3,1.4
		s2.1-2.6,1.8-3.1c-0.2-0.5-3.5,0-3.5-0.5c-0.1-0.5,3.1-1.2,3.2-1.7s-2.9-1.8-2.8-2.3c0.2-0.5,3.3,0.6,3.6,0.2
		c0.3-0.4-1.6-3.1-1.2-3.4s2.5,2.2,3,2s0-3.5,0.6-3.5c0.5-0.1,1.2,3.1,1.7,3.2c0.5,0,1.7-3,2.2-2.8s-0.5,3.3,0,3.6
		c0.4,0.3,3-1.8,3.3-1.4s-2.1,2.6-1.8,3.1C131.9,295.9,135.2,295.5,135.2,296z"/>
</g>
<g>
	<path fill="#0D6759" d="M167.5,288.4c0.1,0.7-3.8,1.5-3.9,2.1c-0.1,0.7,3.7,2.2,3.4,2.8c-0.2,0.6-4-0.7-4.4-0.1
		c-0.4,0.5,2.1,3.7,1.6,4.1s-3.2-2.6-3.7-2.3c-0.6,0.3,0,4.2-0.7,4.4s-1.5-3.8-2.1-3.9c-0.7-0.1-2.2,3.7-2.8,3.4
		c-0.6-0.2,0.7-4,0.1-4.4c-0.5-0.4-3.7,2.1-4.1,1.6c-0.4-0.5,2.6-3.2,2.3-3.7c-0.3-0.6-4.2,0-4.4-0.7c-0.1-0.7,3.8-1.5,3.9-2.1
		c0.1-0.7-3.7-2.2-3.4-2.8c0.2-0.6,4,0.7,4.4,0.1c0.4-0.5-2.1-3.7-1.6-4.1s3.2,2.6,3.7,2.3c0.6-0.3,0-4.2,0.7-4.4s1.5,3.8,2.1,3.9
		c0.7,0.1,2.2-3.7,2.8-3.4c0.6,0.2-0.7,4-0.1,4.4c0.5,0.4,3.7-2.1,4.1-1.6c0.4,0.5-2.6,3.2-2.3,3.7
		C163.4,288.3,167.4,287.7,167.5,288.4z"/>
</g>
<g>
	<path fill="#0D6759" d="M196.4,285c0.1,0.5-3.2,1.2-3.3,1.7s3,1.9,2.8,2.4s-3.3-0.7-3.7-0.3c-0.3,0.4,1.6,3.2,1.1,3.5
		c-0.4,0.3-2.5-2.3-3-2.1c-0.5,0.2-0.1,3.5-0.6,3.6s-1.3-3.2-1.8-3.2s-1.7,3.1-2.2,2.9s0.4-3.4-0.1-3.7c-0.5-0.3-3,1.9-3.3,1.5
		c-0.4-0.4,2-2.7,1.8-3.2s-3.5,0-3.6-0.5s3.2-1.2,3.3-1.7s-3-1.9-2.8-2.4s3.3,0.7,3.7,0.3c0.3-0.4-1.6-3.2-1.1-3.5
		c0.4-0.3,2.5,2.3,3,2.1c0.5-0.2,0.1-3.5,0.6-3.6s1.3,3.2,1.8,3.2s1.7-3.1,2.2-2.9s-0.4,3.4,0.1,3.7c0.5,0.3,3-1.9,3.3-1.5
		c0.4,0.4-2,2.7-1.8,3.2C193,285,196.3,284.4,196.4,285z"/>
</g>
<g opacity="0.56">
	<g>
		<path fill="#A8EFCD" d="M165.2,353.8c-3.5,0.7-6.9,1-10.4,0.8c-0.5,0-0.5,0.7,0,0.8c3.6,0.2,7.1-0.1,10.6-0.8
			C165.8,354.4,165.6,353.7,165.2,353.8L165.2,353.8z"/>
	</g>
</g>
<g opacity="0.56">
	<g>
		<path fill="#A8EFCD" d="M138.4,356.4c-2.3,0.9-4.3,2.5-6.7,2.7c-0.3,0-0.4,0.6,0,0.5c2.5-0.2,4.6-1.8,6.9-2.7
			C138.9,356.8,138.7,356.3,138.4,356.4L138.4,356.4z"/>
	</g>
</g>
<g opacity="0.56">
	<g>
		<path fill="#A8EFCD" d="M121.9,383c-4.1,0.7-8.3,0.3-12.5,0.6c-0.5,0-0.5,0.8,0,0.8c4.2-0.3,8.5,0,12.7-0.6
			C122.6,383.6,122.4,382.9,121.9,383L121.9,383z"/>
	</g>
</g>
<g opacity="0.56">
	<g>
		<path fill="#A8EFCD" d="M97,379.1c-4.3,0.6-8.5,2-12.8,2.7c-0.5,0.1-0.3,0.8,0.2,0.7c4.3-0.7,8.4-2.1,12.6-2.7
			C97.5,379.8,97.5,379,97,379.1L97,379.1z"/>
	</g>
</g>
<g opacity="0.56">
	<g>
		<path fill="#A8EFCD" d="M88.8,366.8c-3.4,0.6-6.8,1.9-10.2,1.3c-0.5-0.1-0.7,0.6-0.2,0.7c3.6,0.6,7.1-0.6,10.6-1.3
			C89.4,367.4,89.2,366.7,88.8,366.8L88.8,366.8z"/>
	</g>
</g>
<g opacity="0.56">
	<g>
		<path fill="#A8EFCD" d="M59.7,356.8c3.8-0.9,7.7-0.6,11.5,0c0.5,0.1,0.7-0.6,0.2-0.7c-3.9-0.6-7.9-0.9-11.9,0
			C59.1,356.2,59.3,356.9,59.7,356.8L59.7,356.8z"/>
	</g>
</g>
<g opacity="0.56">
	<g>
		<path fill="#A8EFCD" d="M90,355.7c3-0.5,5.9-1,8.9-1.5c0.5-0.1,0.3-0.8-0.2-0.7c-3,0.5-5.9,1-8.9,1.5
			C89.3,355,89.5,355.8,90,355.7L90,355.7z"/>
	</g>
</g>
<g opacity="0.56">
	<g>
		<path fill="#A8EFCD" d="M150.1,345.5c4-0.9,7.8-2.4,11-5c0.4-0.3-0.2-0.8-0.5-0.5c-3.1,2.5-6.8,3.9-10.7,4.8
			C149.5,344.8,149.7,345.6,150.1,345.5L150.1,345.5z"/>
	</g>
</g>
<g opacity="0.56">
	<g>
		<path fill="#A8EFCD" d="M178.2,383c-4,1.2-7.9,2.5-12.1,3.1c-0.5,0.1-0.5,0.8,0,0.8c4.2-0.5,8.2-1.9,12.3-3.1
			C178.9,383.6,178.7,382.9,178.2,383L178.2,383z"/>
	</g>
</g>
<g opacity="0.56">
	<g>
		<path fill="#A8EFCD" d="M155.3,381.6c2.3-1.1,4.9-1.6,7.1-2.7c0.4-0.2,0.1-0.9-0.4-0.6c-2.3,1.1-4.8,1.7-7.1,2.7
			C154.5,381.1,154.9,381.8,155.3,381.6L155.3,381.6z"/>
	</g>
</g>
<g opacity="0.56">
	<g>
		<path fill="#A8EFCD" d="M105.2,398c-4.7,0.8-9.4,2.1-14.3,1.9c-0.5,0-0.5,0.7,0,0.8c4.9,0.2,9.7-1.1,14.5-2
			C105.9,398.6,105.7,397.9,105.2,398L105.2,398z"/>
	</g>
</g>
<g opacity="0.56">
	<g>
		<path fill="#A8EFCD" d="M112.7,370.1c2-0.3,4.1-0.5,5.9-1.5c0.4-0.2,0-0.9-0.4-0.6c-1.8,1-3.8,1.2-5.7,1.5
			C112,369.4,112.2,370.1,112.7,370.1L112.7,370.1z"/>
	</g>
</g>
<g opacity="0.56">
	<g>
		<path fill="#A8EFCD" d="M116.5,344.6c2.6-0.4,5.3-0.9,7.9-1.3c0.5-0.1,0.3-0.8-0.2-0.7c-2.6,0.4-5.3,0.9-7.9,1.3
			C115.8,343.9,116,344.7,116.5,344.6L116.5,344.6z"/>
	</g>
</g>
<g opacity="0.56">
	<g>
		<path fill="#A8EFCD" d="M177.1,334.3c3.4-0.6,6.9-0.9,10.3-1.3c0.5-0.1,0.5-0.8,0-0.8c-3.5,0.4-7.1,0.6-10.5,1.3
			C176.5,333.6,176.7,334.4,177.1,334.3L177.1,334.3z"/>
	</g>
</g>
<g opacity="0.56">
	<g>
		<path fill="#A8EFCD" d="M210.7,323c1.2-0.2,2.3-0.4,3.5-0.6c0.5-0.1,0.3-0.8-0.2-0.7c-1.2,0.2-2.3,0.4-3.5,0.6
			C210,322.3,210.2,323.1,210.7,323L210.7,323z"/>
	</g>
</g>
<g opacity="0.56">
	<g>
		<path fill="#A8EFCD" d="M183.7,346.6c-3.2,0.8-6.5,1.6-9.8,2.2c-0.5,0.1-0.3,0.8,0.2,0.7c3.3-0.6,6.5-1.4,9.8-2.2
			C184.4,347.2,184.2,346.5,183.7,346.6L183.7,346.6z"/>
	</g>
</g>
<g opacity="0.56">
	<g>
		<path fill="#A8EFCD" d="M188.1,363.6c-2.5,0.4-4.9,0.8-7.4,1.3c-0.5,0.1-0.3,0.8,0.2,0.7c2.5-0.4,4.9-0.8,7.4-1.3
			C188.8,364.2,188.6,363.5,188.1,363.6L188.1,363.6z"/>
	</g>
</g>
<g opacity="0.56">
	<g>
		<path fill="#A8EFCD" d="M146.8,368.1c-3.8,0.7-7.5,1.7-11.3,1.4c-0.5,0-0.5,0.7,0,0.8c3.9,0.3,7.7-0.8,11.5-1.4
			C147.5,368.7,147.3,368,146.8,368.1L146.8,368.1z"/>
	</g>
</g>
<g opacity="0.56">
	<g>
		<path fill="#A8EFCD" d="M142.3,392.2c-2.4,0.8-4.6,1.9-7.1,2.2c-0.5,0.1-0.5,0.8,0,0.8c2.6-0.3,4.9-1.5,7.3-2.3
			C142.9,392.8,142.7,392,142.3,392.2L142.3,392.2z"/>
	</g>
</g>
<g opacity="0.56">
	<g>
		<path fill="#A8EFCD" d="M111.2,404.6c-1.7,1.4-3.8,1.8-6,2c-0.5,0-0.5,0.8,0,0.8c2.4-0.1,4.6-0.6,6.5-2.2
			C112.1,404.9,111.6,404.3,111.2,404.6L111.2,404.6z"/>
	</g>
</g>
<g opacity="0.56">
	<g>
		<path fill="#A8EFCD" d="M75.8,394.9c-1,0.2-2,0.3-3,0.5c-0.5,0.1-0.3,0.8,0.2,0.7c1-0.2,2-0.3,3-0.5
			C76.5,395.5,76.3,394.8,75.8,394.9L75.8,394.9z"/>
	</g>
</g>
<g opacity="0.56">
	<g>
		<path fill="#A8EFCD" d="M99.4,167.2c-3.1,0.8-6-0.2-9.1-0.5c-0.5,0-0.5,0.7,0,0.8c3.2,0.3,6.1,1.3,9.3,0.4
			C100.1,167.8,99.9,167.1,99.4,167.2L99.4,167.2z"/>
	</g>
</g>
<g opacity="0.56">
	<g>
		<path fill="#A8EFCD" d="M170,155.7c-3.1,0.5-6.3,1-9.3,2.1c-0.4,0.2-0.3,0.9,0.2,0.7c3-1.1,6.1-1.6,9.3-2.1
			C170.7,156.3,170.5,155.6,170,155.7L170,155.7z"/>
	</g>
</g>
<g opacity="0.56">
	<g>
		<path fill="#A8EFCD" d="M151.4,165.9c-3.6,0.7-7.2,1.6-10.8,2.3c-0.5,0.1-0.3,0.8,0.2,0.7c3.6-0.7,7.1-1.7,10.8-2.3
			C152.1,166.6,151.9,165.9,151.4,165.9L151.4,165.9z"/>
	</g>
</g>
<g opacity="0.56">
	<g>
		<path fill="#A8EFCD" d="M122.6,174.4c-2.6,0.3-5.1,0.9-7.4,2.3c-0.4,0.2,0,0.9,0.4,0.6c2.2-1.3,4.5-1.9,7-2.2
			C123,175.1,123,174.4,122.6,174.4L122.6,174.4z"/>
	</g>
</g>
<g opacity="0.56">
	<g>
		<path fill="#A8EFCD" d="M98.1,177.6c-2,0.3-3.9,0.7-5.9,1c-0.5,0.1-0.3,0.8,0.2,0.7c2-0.3,3.9-0.7,5.9-1
			C98.8,178.2,98.6,177.5,98.1,177.6L98.1,177.6z"/>
	</g>
</g>
<g opacity="0.56">
	<g>
		<path fill="#A8EFCD" d="M81.1,175.9c-2,0.3-3.9,0.7-5.9,1c-0.5,0.1-0.3,0.8,0.2,0.7c2-0.3,3.9-0.7,5.9-1
			C81.8,176.5,81.6,175.8,81.1,175.9L81.1,175.9z"/>
	</g>
</g>
<g opacity="0.56">
	<g>
		<path fill="#A8EFCD" d="M139.5,158.3c-3.6,0.6-7.2,1.2-10.8,1.8c-0.5,0.1-0.3,0.8,0.2,0.7c3.6-0.6,7.2-1.2,10.8-1.8
			C140.2,159,140,158.3,139.5,158.3L139.5,158.3z"/>
	</g>
</g>
<g opacity="0.56">
	<g>
		<path fill="#A8EFCD" d="M194.2,149c-2.5,0.4-5,0.7-7.4,1.8c-0.4,0.2-0.1,0.8,0.4,0.6c2.3-1.1,4.8-1.3,7.2-1.7
			C194.9,149.7,194.7,148.9,194.2,149L194.2,149z"/>
	</g>
</g>
<g opacity="0.56">
	<g>
		<path fill="#A8EFCD" d="M187.5,160.3c-3.3,0.6-6.6,1.1-9.9,1.7c-0.5,0.1-0.3,0.8,0.2,0.7c3.3-0.6,6.6-1.1,9.9-1.7
			C188.2,161,188,160.2,187.5,160.3L187.5,160.3z"/>
	</g>
</g>
<g opacity="0.56">
	<g>
		<path fill="#A8EFCD" d="M168.7,169.1c-1.6,0.5-3.2,0.6-4.8,0.3c-0.5-0.1-0.7,0.6-0.2,0.7c1.8,0.3,3.5,0.2,5.2-0.3
			C169.4,169.7,169.2,168.9,168.7,169.1L168.7,169.1z"/>
	</g>
</g>
<g opacity="0.56">
	<g>
		<path fill="#A8EFCD" d="M141,164.2c-0.7,0.1-1.3,0.2-2,0.3c-0.5,0.1-0.3,0.8,0.2,0.7c0.7-0.1,1.3-0.2,2-0.3
			C141.7,164.8,141.5,164.1,141,164.2L141,164.2z"/>
	</g>
</g>
<g opacity="0.56">
	<g>
		<path fill="#A8EFCD" d="M119.2,167.9c-2.2,1.4-5,2.6-7.5,1.3c-0.4-0.2-0.8,0.4-0.4,0.6c2.8,1.4,5.8,0.2,8.3-1.3
			C120,168.3,119.6,167.6,119.2,167.9L119.2,167.9z"/>
	</g>
</g>
<g opacity="0.56">
	<g>
		<path fill="#A8EFCD" d="M143.3,174.9c-2.3,0.4-4.6,0.8-6.9,1.2c-0.5,0.1-0.3,0.8,0.2,0.7c2.3-0.4,4.6-0.8,6.9-1.2
			C144,175.6,143.8,174.8,143.3,174.9L143.3,174.9z"/>
	</g>
</g>
<g>
	<path fill="#FFF8DC" d="M100,135.9c1.7-0.4,4.6,4.5,6.3,4.1c1.7-0.3,2.3-5.9,4-6.2s4.5,4.6,6.2,4.3s2.5-5.8,4.2-6.1
		s4.4,4.7,6.1,4.5c1.7-0.2,2.6-5.8,4.4-6c1.7-0.2,4.3,4.8,6,4.6s2.7-5.7,4.5-5.9s4.2,4.9,5.9,4.7s2.8-5.7,4.6-5.8
		c1.8-0.2,4.1,5,5.9,4.8c1.7-0.2,2.9-5.6,4.7-5.8c1.8-0.2,4.1,5,5.8,4.9c1.1-0.1,1.7-5.5,3-5.7c1.2-0.2,3.4,4.9,4.6,4.8
		c1.2-0.2,1.5-5.6,2.8-5.8c1.2-0.2,3.3,5,4.6,4.8c1.2-0.1,1.8-5.6,3.1-5.6c1.3-0.1,2.9,5.2,4.1,5.2c1.3,0,2.6-5.3,3.8-5.2
		c1.3,0.1,1.9,5.5,3,5.7c1.3,0.2,4.2-4.5,5.3-4c1.2,0.5-0.8,5.5,0.1,6.3c0.9,0.8,6.3-1.3,6.8-0.1c0.5,1-4.7,3.3-4.6,4.6
		c0.1,1,5.8,2.3,5.7,3.6c-0.1,1.2-6,1.2-6.3,2.3c-0.4,1.2,4.3,4.4,3.7,5.4s-5.9-1.2-6.8-0.3c-0.8,0.8,2,5.6,0.9,6.3
		c-1,0.6-4.9-3.3-6.1-2.8c-1.1,0.5,0,5.9-1.2,6.3c-1.1,0.4-4-4.4-5.2-4.1c-1.2,0.3-1.1,5.7-2.3,6c-1.2,0.2-3.3-4.8-4.6-4.7
		c-1.2,0.2-1.6,5.6-2.9,5.7c-1.2,0.1-3-5.1-4.2-5s-2,5.5-3.2,5.6s-2.7-5.2-4-5.1c-1.4,0.1-2.5,5.5-3.8,5.6c-1.4,0.1-3.2-5.1-4.6-5
		c-1.4,0.1-2.3,5.6-3.6,5.7c-1.4,0.1-3.4-5-4.8-4.9c-1.4,0.2-2.1,5.6-3.5,5.8s-3.5-4.9-4.9-4.7s-1.9,5.7-3.3,5.9
		c-1.4,0.2-3.6-4.8-5-4.6s-1.7,5.7-3.1,6c-1.3,0.3-3.8-4.7-5.1-4.4c-1.4,0.3-1.6,5.8-2.9,6.1s-3.9-4.6-5.2-4.3
		c-1.4,0.3-1.4,5.8-2.8,6.1c-1.6,0.4-4.4-4.4-6-4.1c-1.6,0.4-2,5.9-3.6,6.2s-4.2-4.6-5.8-4.3c-1.6,0.3-2.4,5.8-3.9,6
		c-1.6,0.2-3.9-4.9-5.4-4.7c-1.7,0.2-2.9,5.6-4.4,5.7c-1.6,0.1-3.3-5.2-4.9-5.3c-1.7-0.1-3.7,5.1-5.3,4.9c-1.7-0.2-2.1-5.7-3.6-6.2
		c-1.6-0.5-5.2,3.9-6.5,3.2c-1.5-0.8,0.4-6-0.8-7.1c-1.2-1.1-6.4,1-7.3-0.4c-0.8-1.3,3.5-4.9,3-6.6c-0.4-1.3-5.9-2.2-5.6-3.3
		c0.3-1.2,5.8-0.2,6.6-1.3c0.7-0.9-2.3-5.5-1.2-6.3c1-0.7,5.2,3,6.4,2.3c1.1-0.6-0.3-5.9,1-6.4c1.2-0.5,4.5,4,5.8,3.5
		c1.2-0.4,0.7-5.9,2-6.2c1.3-0.4,4,4.4,5.3,4.1c1.3-0.3,1.3-5.8,2.6-6.1c1.3-0.3,3.7,4.7,5,4.5s1.7-5.7,3-5.9
		c1.4-0.2,3.4,4.9,4.7,4.8c1.4-0.2,2.1-5.6,3.3-5.7"/>
</g>
<path fill="#0D493D" d="M196.5,138.1c0.5,3.1-29.4,10.7-64.4,16.7s-63.8,8.3-64.3,5.2s19.1-13.1,62.4-16.3
	C165.6,141.1,195.9,135.1,196.5,138.1z"/>
<g>
	<g>
		<path fill="#136759" d="M200,139c0-3.9-0.2-23.7,7.6-20.2c5.9,2.7-7.6,16.6-9.4,19.9c-0.9,1.7,1.6,3.2,2.6,1.5
			c3-5.3,18.6-19.4,7.5-24.3c-11-5-11.3,17.8-11.3,23.1C197,140.9,200,140.9,200,139L200,139z"/>
	</g>
</g>
<g>
	<g>
		<path fill="#FF0000" d="M432,149c0-4.6-0.4-9.2,0.6-13.7c0.5-2,1.6-3.4,3-4.9c0.9-1,2-1.7,3.2-2.5c2.1-1.3,4.9,0.3,3.8,2.9
			c-1.3,2.8-4.3,5-6.6,7c-3.4,2.9-5.1,6.1-6.5,10.2c-0.6,1.8,2.3,2.6,2.9,0.8c1.3-3.7,2.8-6.3,5.7-8.9c1.8-1.6,3.7-3.1,5.3-5
			c2.9-3.4,3.7-7.4-0.3-10.1c-3.9-2.6-9.8,3-11.7,5.9c-3.5,5.1-2.5,12.4-2.4,18.3C429,150.9,432,150.9,432,149L432,149z"/>
	</g>
</g>
</svg>
