<?xml version="1.0" encoding="utf-8"?>
<!-- Generator: Adobe Illustrator 17.1.0, SVG Export Plug-In . SVG Version: 6.00 Build 0)  -->
<!DOCTYPE svg PUBLIC "-//W3C//DTD SVG 1.1//EN" "http://www.w3.org/Graphics/SVG/1.1/DTD/svg11.dtd">
<svg version="1.1" id="Layer_1" xmlns="http://www.w3.org/2000/svg" xmlns:xlink="http://www.w3.org/1999/xlink" x="0px" y="0px"
	 viewBox="0 0 500 500" enable-background="new 0 0 500 500" xml:space="preserve">
<g>
	<defs>
		<path id="SVGID_1_" d="M333,101.7v297.7c0,13.4-11.1,20.3-24.7,20.3H194c-13.6,0-24.7-6.8-24.7-20.3V95.6"/>
	</defs>
	<clipPath id="SVGID_2_">
		<use xlink:href="#SVGID_1_"  overflow="visible"/>
	</clipPath>
	<g opacity="0.4" clip-path="url(#SVGID_2_)">
		<line fill="none" stroke="#6D6E70" stroke-width="2.0251" stroke-miterlimit="10" x1="159.2" y1="444.3" x2="159.2" y2="102.4"/>
		<line fill="none" stroke="#6D6E70" stroke-width="2.0251" stroke-miterlimit="10" x1="161" y1="444.2" x2="161" y2="102.3"/>
		<line fill="none" stroke="#6D6E70" stroke-width="2.0251" stroke-miterlimit="10" x1="162.8" y1="444.1" x2="162.8" y2="102.2"/>
		<line fill="none" stroke="#6D6E70" stroke-width="2.0251" stroke-miterlimit="10" x1="164.6" y1="444.1" x2="164.6" y2="102.1"/>
		<line fill="none" stroke="#6D6E70" stroke-width="2.0251" stroke-miterlimit="10" x1="166.4" y1="444" x2="166.4" y2="102"/>
		<line fill="none" stroke="#6D6E70" stroke-width="2.0251" stroke-miterlimit="10" x1="168.2" y1="443.9" x2="168.2" y2="101.9"/>
		<line fill="none" stroke="#6D6E70" stroke-width="2.0251" stroke-miterlimit="10" x1="170" y1="443.8" x2="170" y2="101.9"/>
		<line fill="none" stroke="#6D6E70" stroke-width="2.0251" stroke-miterlimit="10" x1="171.8" y1="443.7" x2="171.8" y2="101.8"/>
		<line fill="none" stroke="#6D6E70" stroke-width="2.0251" stroke-miterlimit="10" x1="173.6" y1="443.6" x2="173.6" y2="101.7"/>
		<line fill="none" stroke="#6D6E70" stroke-width="2.0251" stroke-miterlimit="10" x1="175.4" y1="443.5" x2="175.4" y2="101.6"/>
		<line fill="none" stroke="#6D6E70" stroke-width="2.0251" stroke-miterlimit="10" x1="177.1" y1="443.4" x2="177.1" y2="101.5"/>
		<line fill="none" stroke="#6D6E70" stroke-width="2.0251" stroke-miterlimit="10" x1="178.9" y1="443.4" x2="178.9" y2="101.4"/>
		<line fill="none" stroke="#6D6E70" stroke-width="2.0251" stroke-miterlimit="10" x1="180.7" y1="443.3" x2="180.7" y2="101.3"/>
		<line fill="none" stroke="#6D6E70" stroke-width="2.0251" stroke-miterlimit="10" x1="182.5" y1="443.2" x2="182.5" y2="101.2"/>
		<line fill="none" stroke="#6D6E70" stroke-width="2.0251" stroke-miterlimit="10" x1="184.3" y1="443.1" x2="184.3" y2="101.1"/>
		<line fill="none" stroke="#6D6E70" stroke-width="2.0251" stroke-miterlimit="10" x1="186.1" y1="443" x2="186.1" y2="101.1"/>
		<line fill="none" stroke="#6D6E70" stroke-width="2.0251" stroke-miterlimit="10" x1="187.9" y1="442.9" x2="187.9" y2="101"/>
		<line fill="none" stroke="#6D6E70" stroke-width="2.0251" stroke-miterlimit="10" x1="189.7" y1="442.8" x2="189.7" y2="100.9"/>
		<line fill="none" stroke="#6D6E70" stroke-width="2.0251" stroke-miterlimit="10" x1="191.5" y1="442.7" x2="191.5" y2="100.8"/>
		<line fill="none" stroke="#6D6E70" stroke-width="2.0251" stroke-miterlimit="10" x1="193.3" y1="442.7" x2="193.3" y2="100.7"/>
		<line fill="none" stroke="#6D6E70" stroke-width="2.0251" stroke-miterlimit="10" x1="195" y1="442.6" x2="195" y2="100.6"/>
		<line fill="none" stroke="#6D6E70" stroke-width="2.0251" stroke-miterlimit="10" x1="196.8" y1="442.5" x2="196.8" y2="100.5"/>
		<line fill="none" stroke="#6D6E70" stroke-width="2.0251" stroke-miterlimit="10" x1="198.6" y1="442.4" x2="198.6" y2="100.4"/>
		<line fill="none" stroke="#6D6E70" stroke-width="2.0251" stroke-miterlimit="10" x1="200.4" y1="442.3" x2="200.4" y2="100.4"/>
		<line fill="none" stroke="#6D6E70" stroke-width="2.0251" stroke-miterlimit="10" x1="202.2" y1="442.2" x2="202.2" y2="100.3"/>
		<line fill="none" stroke="#6D6E70" stroke-width="2.0251" stroke-miterlimit="10" x1="204" y1="442.1" x2="204" y2="100.2"/>
		<line fill="none" stroke="#6D6E70" stroke-width="2.0251" stroke-miterlimit="10" x1="205.8" y1="442" x2="205.8" y2="100.1"/>
		<line fill="none" stroke="#6D6E70" stroke-width="2.0251" stroke-miterlimit="10" x1="207.6" y1="441.9" x2="207.6" y2="100"/>
		<line fill="none" stroke="#6D6E70" stroke-width="2.0251" stroke-miterlimit="10" x1="209.4" y1="441.9" x2="209.4" y2="99.9"/>
		<line fill="none" stroke="#6D6E70" stroke-width="2.0251" stroke-miterlimit="10" x1="211.2" y1="441.8" x2="211.2" y2="99.8"/>
		<line fill="none" stroke="#6D6E70" stroke-width="2.0251" stroke-miterlimit="10" x1="212.9" y1="441.7" x2="212.9" y2="99.7"/>
		<line fill="none" stroke="#6D6E70" stroke-width="2.0251" stroke-miterlimit="10" x1="214.7" y1="441.6" x2="214.7" y2="99.7"/>
		<line fill="none" stroke="#6D6E70" stroke-width="2.0251" stroke-miterlimit="10" x1="216.5" y1="441.5" x2="216.5" y2="99.6"/>
		<line fill="none" stroke="#6D6E70" stroke-width="2.0251" stroke-miterlimit="10" x1="218.3" y1="441.4" x2="218.3" y2="99.5"/>
		<line fill="none" stroke="#6D6E70" stroke-width="2.0251" stroke-miterlimit="10" x1="220.1" y1="441.3" x2="220.1" y2="99.4"/>
		<line fill="none" stroke="#6D6E70" stroke-width="2.0251" stroke-miterlimit="10" x1="221.9" y1="441.2" x2="221.9" y2="99.3"/>
		<line fill="none" stroke="#6D6E70" stroke-width="2.0251" stroke-miterlimit="10" x1="223.7" y1="441.2" x2="223.7" y2="99.2"/>
		<line fill="none" stroke="#6D6E70" stroke-width="2.0251" stroke-miterlimit="10" x1="225.5" y1="441.1" x2="225.5" y2="99.1"/>
		<line fill="none" stroke="#6D6E70" stroke-width="2.0251" stroke-miterlimit="10" x1="227.3" y1="441" x2="227.3" y2="99"/>
		<line fill="none" stroke="#6D6E70" stroke-width="2.0251" stroke-miterlimit="10" x1="229.1" y1="440.9" x2="229.1" y2="98.9"/>
		<line fill="none" stroke="#6D6E70" stroke-width="2.0251" stroke-miterlimit="10" x1="230.8" y1="440.8" x2="230.8" y2="98.9"/>
		<line fill="none" stroke="#6D6E70" stroke-width="2.0251" stroke-miterlimit="10" x1="232.6" y1="440.7" x2="232.6" y2="98.8"/>
		<line fill="none" stroke="#6D6E70" stroke-width="2.0251" stroke-miterlimit="10" x1="234.4" y1="440.6" x2="234.4" y2="98.7"/>
		<line fill="none" stroke="#6D6E70" stroke-width="2.0251" stroke-miterlimit="10" x1="236.2" y1="440.5" x2="236.2" y2="98.6"/>
		<line fill="none" stroke="#6D6E70" stroke-width="2.0251" stroke-miterlimit="10" x1="238" y1="440.4" x2="238" y2="98.5"/>
		<line fill="none" stroke="#6D6E70" stroke-width="2.0251" stroke-miterlimit="10" x1="239.8" y1="440.4" x2="239.8" y2="98.4"/>
		<line fill="none" stroke="#6D6E70" stroke-width="2.0251" stroke-miterlimit="10" x1="241.6" y1="440.3" x2="241.6" y2="98.3"/>
		<line fill="none" stroke="#6D6E70" stroke-width="2.0251" stroke-miterlimit="10" x1="243.4" y1="440.2" x2="243.4" y2="98.2"/>
		<line fill="none" stroke="#6D6E70" stroke-width="2.0251" stroke-miterlimit="10" x1="245.2" y1="440.1" x2="245.2" y2="98.2"/>
		<line fill="none" stroke="#6D6E70" stroke-width="2.0251" stroke-miterlimit="10" x1="247" y1="440" x2="247" y2="98.1"/>
		<line fill="none" stroke="#6D6E70" stroke-width="2.0251" stroke-miterlimit="10" x1="248.7" y1="439.9" x2="248.7" y2="98"/>
		<line fill="none" stroke="#6D6E70" stroke-width="2.0251" stroke-miterlimit="10" x1="250.5" y1="439.8" x2="250.5" y2="97.9"/>
		<line fill="none" stroke="#6D6E70" stroke-width="2.0251" stroke-miterlimit="10" x1="252.3" y1="439.7" x2="252.3" y2="97.8"/>
		<line fill="none" stroke="#6D6E70" stroke-width="2.0251" stroke-miterlimit="10" x1="254.1" y1="439.7" x2="254.1" y2="97.7"/>
		<line fill="none" stroke="#6D6E70" stroke-width="2.0251" stroke-miterlimit="10" x1="255.9" y1="439.6" x2="255.9" y2="97.6"/>
		<line fill="none" stroke="#6D6E70" stroke-width="2.0251" stroke-miterlimit="10" x1="257.7" y1="439.5" x2="257.7" y2="97.5"/>
		<line fill="none" stroke="#6D6E70" stroke-width="2.0251" stroke-miterlimit="10" x1="259.5" y1="439.4" x2="259.5" y2="97.4"/>
		<line fill="none" stroke="#6D6E70" stroke-width="2.0251" stroke-miterlimit="10" x1="261.3" y1="439.3" x2="261.3" y2="97.4"/>
		<line fill="none" stroke="#6D6E70" stroke-width="2.0251" stroke-miterlimit="10" x1="263.1" y1="439.2" x2="263.1" y2="97.3"/>
		<line fill="none" stroke="#6D6E70" stroke-width="2.0251" stroke-miterlimit="10" x1="264.8" y1="439.1" x2="264.8" y2="97.2"/>
		<line fill="none" stroke="#6D6E70" stroke-width="2.0251" stroke-miterlimit="10" x1="266.6" y1="439" x2="266.6" y2="97.1"/>
		<line fill="none" stroke="#6D6E70" stroke-width="2.0251" stroke-miterlimit="10" x1="268.4" y1="439" x2="268.4" y2="97"/>
		<line fill="none" stroke="#6D6E70" stroke-width="2.0251" stroke-miterlimit="10" x1="270.2" y1="438.9" x2="270.2" y2="96.9"/>
		<line fill="none" stroke="#6D6E70" stroke-width="2.0251" stroke-miterlimit="10" x1="272" y1="438.8" x2="272" y2="96.8"/>
		<line fill="none" stroke="#6D6E70" stroke-width="2.0251" stroke-miterlimit="10" x1="273.8" y1="438.7" x2="273.8" y2="96.7"/>
		<line fill="none" stroke="#6D6E70" stroke-width="2.0251" stroke-miterlimit="10" x1="275.6" y1="438.6" x2="275.6" y2="96.7"/>
		<line fill="none" stroke="#6D6E70" stroke-width="2.0251" stroke-miterlimit="10" x1="277.4" y1="438.5" x2="277.4" y2="96.6"/>
		<line fill="none" stroke="#6D6E70" stroke-width="2.0251" stroke-miterlimit="10" x1="279.2" y1="438.4" x2="279.2" y2="96.5"/>
		<line fill="none" stroke="#6D6E70" stroke-width="2.0251" stroke-miterlimit="10" x1="281" y1="438.3" x2="281" y2="96.4"/>
		<line fill="none" stroke="#6D6E70" stroke-width="2.0251" stroke-miterlimit="10" x1="282.7" y1="438.2" x2="282.7" y2="96.3"/>
		<line fill="none" stroke="#6D6E70" stroke-width="2.0251" stroke-miterlimit="10" x1="284.5" y1="438.2" x2="284.5" y2="96.2"/>
		<line fill="none" stroke="#6D6E70" stroke-width="2.0251" stroke-miterlimit="10" x1="286.3" y1="438.1" x2="286.3" y2="96.1"/>
		<line fill="none" stroke="#6D6E70" stroke-width="2.0251" stroke-miterlimit="10" x1="288.1" y1="438" x2="288.1" y2="96"/>
		<line fill="none" stroke="#6D6E70" stroke-width="2.0251" stroke-miterlimit="10" x1="289.9" y1="437.9" x2="289.9" y2="96"/>
		<line fill="none" stroke="#6D6E70" stroke-width="2.0251" stroke-miterlimit="10" x1="291.7" y1="437.8" x2="291.7" y2="95.9"/>
		<line fill="none" stroke="#6D6E70" stroke-width="2.0251" stroke-miterlimit="10" x1="293.5" y1="437.7" x2="293.5" y2="95.8"/>
		<line fill="none" stroke="#6D6E70" stroke-width="2.0251" stroke-miterlimit="10" x1="295.3" y1="437.6" x2="295.3" y2="95.7"/>
		<line fill="none" stroke="#6D6E70" stroke-width="2.0251" stroke-miterlimit="10" x1="297.1" y1="437.5" x2="297.1" y2="95.6"/>
		<line fill="none" stroke="#6D6E70" stroke-width="2.0251" stroke-miterlimit="10" x1="298.9" y1="437.5" x2="298.9" y2="95.5"/>
		<line fill="none" stroke="#6D6E70" stroke-width="2.0251" stroke-miterlimit="10" x1="300.6" y1="437.4" x2="300.6" y2="95.4"/>
		<line fill="none" stroke="#6D6E70" stroke-width="2.0251" stroke-miterlimit="10" x1="302.4" y1="437.3" x2="302.4" y2="95.3"/>
		<line fill="none" stroke="#6D6E70" stroke-width="2.0251" stroke-miterlimit="10" x1="304.2" y1="437.2" x2="304.2" y2="95.2"/>
		<line fill="none" stroke="#6D6E70" stroke-width="2.0251" stroke-miterlimit="10" x1="306" y1="437.1" x2="306" y2="95.2"/>
		<line fill="none" stroke="#6D6E70" stroke-width="2.0251" stroke-miterlimit="10" x1="307.8" y1="437" x2="307.8" y2="95.1"/>
		<line fill="none" stroke="#6D6E70" stroke-width="2.0251" stroke-miterlimit="10" x1="309.6" y1="436.9" x2="309.6" y2="95"/>
		<line fill="none" stroke="#6D6E70" stroke-width="2.0251" stroke-miterlimit="10" x1="311.4" y1="436.8" x2="311.4" y2="94.9"/>
		<line fill="none" stroke="#6D6E70" stroke-width="2.0251" stroke-miterlimit="10" x1="313.2" y1="436.7" x2="313.2" y2="94.8"/>
		<line fill="none" stroke="#6D6E70" stroke-width="2.0251" stroke-miterlimit="10" x1="315" y1="436.7" x2="315" y2="94.7"/>
		<line fill="none" stroke="#6D6E70" stroke-width="2.0251" stroke-miterlimit="10" x1="316.8" y1="436.6" x2="316.8" y2="94.6"/>
		<line fill="none" stroke="#6D6E70" stroke-width="2.0251" stroke-miterlimit="10" x1="318.5" y1="436.5" x2="318.5" y2="94.5"/>
		<line fill="none" stroke="#6D6E70" stroke-width="2.0251" stroke-miterlimit="10" x1="320.3" y1="436.4" x2="320.3" y2="94.5"/>
		<line fill="none" stroke="#6D6E70" stroke-width="2.0251" stroke-miterlimit="10" x1="322.1" y1="436.3" x2="322.1" y2="94.4"/>
		<line fill="none" stroke="#6D6E70" stroke-width="2.0251" stroke-miterlimit="10" x1="323.9" y1="436.2" x2="323.9" y2="94.3"/>
		<line fill="none" stroke="#6D6E70" stroke-width="2.0251" stroke-miterlimit="10" x1="325.7" y1="436.1" x2="325.7" y2="94.2"/>
		<line fill="none" stroke="#6D6E70" stroke-width="2.0251" stroke-miterlimit="10" x1="327.5" y1="436" x2="327.5" y2="94.1"/>
		<line fill="none" stroke="#6D6E70" stroke-width="2.0251" stroke-miterlimit="10" x1="329.3" y1="436" x2="329.3" y2="94"/>
		<line fill="none" stroke="#6D6E70" stroke-width="2.0251" stroke-miterlimit="10" x1="331.1" y1="435.9" x2="331.1" y2="93.9"/>
		<line fill="none" stroke="#6D6E70" stroke-width="2.0251" stroke-miterlimit="10" x1="332.9" y1="435.8" x2="332.9" y2="93.8"/>
		<line fill="none" stroke="#6D6E70" stroke-width="2.0251" stroke-miterlimit="10" x1="334.7" y1="435.7" x2="334.7" y2="93.7"/>
		<line fill="none" stroke="#6D6E70" stroke-width="2.0251" stroke-miterlimit="10" x1="336.4" y1="435.6" x2="336.4" y2="93.7"/>
		<line fill="none" stroke="#6D6E70" stroke-width="2.0251" stroke-miterlimit="10" x1="338.2" y1="435.5" x2="338.2" y2="93.6"/>
		<line fill="none" stroke="#6D6E70" stroke-width="2.0251" stroke-miterlimit="10" x1="340" y1="435.4" x2="340" y2="93.5"/>
		<line fill="none" stroke="#6D6E70" stroke-width="2.0251" stroke-miterlimit="10" x1="341.8" y1="435.3" x2="341.8" y2="93.4"/>
		<line fill="none" stroke="#6D6E70" stroke-width="2.0251" stroke-miterlimit="10" x1="343.6" y1="435.3" x2="343.6" y2="93.3"/>
		<line fill="none" stroke="#6D6E70" stroke-width="2.0251" stroke-miterlimit="10" x1="345.4" y1="435.2" x2="345.4" y2="93.2"/>
		<line fill="none" stroke="#6D6E70" stroke-width="2.0251" stroke-miterlimit="10" x1="347.2" y1="435.1" x2="347.2" y2="93.1"/>
		<line fill="none" stroke="#6D6E70" stroke-width="2.0251" stroke-miterlimit="10" x1="349" y1="435" x2="349" y2="93"/>
	</g>
	<path clip-path="url(#SVGID_2_)" fill="none" d="M333.3,419.6V115.8c0-13.4-11.2-20.3-25-20.3H192.5c-13.8,0-25,6.8-25,20.3v303.8"
		/>
</g>
<path fill="none" stroke="#554E4F" stroke-width="2.8352" stroke-linecap="round" stroke-miterlimit="10" d="M358.6,429.7
	c0,13.4-10.9,20.3-24.3,20.3H166.2c-13.4,0-24.3-6.8-24.3-20.3V79.4c0-13.4,6.8-24.3,20.3-24.3h176.2c13.4,0,20.3,10.9,20.3,24.3
	V429.7z"/>
<line fill="none" stroke="#554E4F" stroke-width="2.8352" stroke-linecap="round" stroke-miterlimit="10" x1="141.9" y1="99.6" x2="358.6" y2="99.6"/>
<path fill="#FCF7FA" stroke="#554E4F" stroke-width="2.8352" stroke-linecap="round" stroke-miterlimit="10" d="M312,341.6
	c0,13.4-10.9,20.3-24.3,20.3h-74.4c-13.4,0-24.3-6.8-24.3-20.3V151.3c0-13.4,6.8-24.3,20.3-24.3h82.5c13.4,0,20.3,10.9,20.3,24.3
	V341.6z"/>
<path fill="none" stroke="#58595B" stroke-width="2.0251" stroke-linecap="round" stroke-miterlimit="10" d="M283.6,241
	c0,11-4.2,15-15.8,15h-31c-11.6,0-15.8-3.9-15.8-15V220c0-11,2.4-15,14-15h32.8c11.6,0,15.8,3.9,15.8,15V241z"/>
<path fill="none" stroke="#58595B" stroke-width="2.0251" stroke-linecap="round" stroke-miterlimit="10" d="M245.8,223.6
	c0,1.3-0.5,1.8-1.8,1.8h-3.5c-1.3,0-1.8-0.5-1.8-1.8V221c0-1.3,0.3-1.8,1.6-1.8h3.7c1.3,0,1.8,0.5,1.8,1.8V223.6z"/>
<path fill="none" stroke="#58595B" stroke-width="2.0251" stroke-linecap="round" stroke-miterlimit="10" d="M256.1,223.6
	c0,1.3-0.5,1.8-1.8,1.8h-3.6c-1.3,0-1.8-0.5-1.8-1.8V221c0-1.3,0.3-1.8,1.6-1.8h3.7c1.3,0,1.8,0.5,1.8,1.8V223.6z"/>
<path fill="none" stroke="#58595B" stroke-width="2.0251" stroke-linecap="round" stroke-miterlimit="10" d="M266.7,223.6
	c0,1.3-0.5,1.8-1.8,1.8h-3.6c-1.3,0-1.8-0.5-1.8-1.8V221c0-1.3,0.3-1.8,1.6-1.8h3.7c1.3,0,1.8,0.5,1.8,1.8V223.6z"/>
<path fill="none" stroke="#58595B" stroke-width="2.0251" stroke-linecap="round" stroke-miterlimit="10" d="M245.6,232.3
	c0,1.3-0.5,1.8-1.8,1.8h-3.6c-1.3,0-1.8-0.5-1.8-1.8v-2.5c0-1.3,0.3-1.8,1.6-1.8h3.7c1.3,0,1.8,0.5,1.8,1.8V232.3z"/>
<path fill="none" stroke="#58595B" stroke-width="2.0251" stroke-linecap="round" stroke-miterlimit="10" d="M255.9,232.3
	c0,1.3-0.5,1.8-1.8,1.8h-3.6c-1.3,0-1.8-0.5-1.8-1.8v-2.5c0-1.3,0.3-1.8,1.6-1.8h3.7c1.3,0,1.8,0.5,1.8,1.8V232.3z"/>
<path fill="none" stroke="#58595B" stroke-width="2.0251" stroke-linecap="round" stroke-miterlimit="10" d="M266.6,232.3
	c0,1.3-0.5,1.8-1.8,1.8h-3.6c-1.3,0-1.8-0.5-1.8-1.8v-2.5c0-1.3,0.3-1.8,1.6-1.8h3.7c1.3,0,1.8,0.5,1.8,1.8V232.3z"/>
<path fill="none" stroke="#58595B" stroke-width="2.0251" stroke-linecap="round" stroke-miterlimit="10" d="M245.8,241.2
	c0,1.3-0.5,1.8-1.8,1.8h-3.5c-1.3,0-1.8-0.5-1.8-1.8v-2.5c0-1.3,0.3-1.8,1.6-1.8h3.7c1.3,0,1.8,0.5,1.8,1.8V241.2z"/>
<path fill="none" stroke="#58595B" stroke-width="2.0251" stroke-linecap="round" stroke-miterlimit="10" d="M256.1,241.2
	c0,1.3-0.5,1.8-1.8,1.8h-3.6c-1.3,0-1.8-0.5-1.8-1.8v-2.5c0-1.3,0.3-1.8,1.6-1.8h3.7c1.3,0,1.8,0.5,1.8,1.8V241.2z"/>
<path fill="none" stroke="#58595B" stroke-width="2.0251" stroke-linecap="round" stroke-miterlimit="10" d="M266.7,241.2
	c0,1.3-0.5,1.8-1.8,1.8h-3.6c-1.3,0-1.8-0.5-1.8-1.8v-2.5c0-1.3,0.3-1.8,1.6-1.8h3.7c1.3,0,1.8,0.5,1.8,1.8V241.2z"/>
<path fill="#3D3839" d="M271,177.7c0,9.9-8,17.8-17.8,17.8h-1.9c-9.9,0-17.8-8-17.8-17.8l0,0c0-9.9,8-17.8,17.8-17.8h1.9
	C263,159.9,271,167.9,271,177.7L271,177.7z"/>
<path fill="#3D3839" d="M271,275.3c0,10.4-8.4,18.8-18.8,18.8l0,0c-10.4,0-18.8-8.4-18.8-18.8v-0.5c0-10.4,8.4-18.8,18.8-18.8l0,0
	c10.4,0,18.8,8.4,18.8,18.8V275.3z"/>
<path fill="#554E4F" d="M262.4,271.9c0,5.7-4.5,10.4-10,10.4l0,0c-5.5,0-10-4.6-10-10.4v-90.7c0-5.7,4.5-10.4,10-10.4l0,0
	c5.5,0,10,4.6,10,10.4V271.9z"/>
<path fill="none" stroke="#A6A8AB" stroke-width="2.0251" stroke-miterlimit="10" d="M293.8,344.2c0,4.8-3.9,4.6-8.6,4.6l0,0
	c-4.8,0-8.6,0.2-8.6-4.6v-15.7c0-4.8,3.9-4.6,8.6-4.6l0,0c4.8,0,8.6-0.2,8.6,4.6V344.2z"/>
<line fill="none" stroke="#929497" stroke-width="2.0251" stroke-linecap="round" stroke-miterlimit="10" x1="296.6" y1="136.6" x2="296.6" y2="151.6"/>
<g>
	<path fill="#00ADEE" stroke="#00ADEE" stroke-width="2.0251" stroke-miterlimit="10" d="M191.8,66.2c1.3-0.2,2.9-0.4,5.1-0.4
		c2.6,0,4.5,0.6,5.7,1.7c1.1,1,1.8,2.5,1.8,4.3c0,1.9-0.5,3.3-1.6,4.4c-1.4,1.5-3.7,2.2-6.3,2.2c-0.8,0-1.5,0-2.1-0.2v8.2h-2.6V66.2
		z M194.4,76.1c0.6,0.2,1.3,0.2,2.2,0.2c3.2,0,5.1-1.5,5.1-4.4c0-2.7-1.9-4-4.8-4c-1.2,0-2,0.1-2.5,0.2V76.1z"/>
	<path fill="#00ADEE" stroke="#00ADEE" stroke-width="2.0251" stroke-miterlimit="10" d="M218.2,66v8.6h9.9V66h2.7v20.5h-2.7v-9.6
		h-9.9v9.6h-2.6V66H218.2z"/>
	<path fill="#00ADEE" stroke="#00ADEE" stroke-width="2.0251" stroke-miterlimit="10" d="M260.4,76c0,7-4.3,10.8-9.5,10.8
		c-5.4,0-9.2-4.2-9.2-10.4c0-6.5,4-10.8,9.5-10.8C256.8,65.7,260.4,69.9,260.4,76z M244.5,76.4c0,4.4,2.4,8.3,6.5,8.3
		c4.2,0,6.6-3.9,6.6-8.5c0-4.1-2.1-8.3-6.5-8.3C246.7,67.8,244.5,71.9,244.5,76.4z"/>
	<path fill="#00ADEE" stroke="#00ADEE" stroke-width="2.0251" stroke-miterlimit="10" d="M271.5,86.5V66h2.9l6.6,10.4
		c1.5,2.4,2.7,4.6,3.7,6.7l0.1,0c-0.2-2.7-0.3-5.2-0.3-8.4V66h2.5v20.5h-2.7l-6.5-10.4c-1.4-2.3-2.8-4.6-3.8-6.8l-0.1,0
		c0.2,2.6,0.2,5,0.2,8.4v8.7H271.5z"/>
	<path fill="#00ADEE" stroke="#00ADEE" stroke-width="2.0251" stroke-miterlimit="10" d="M309.6,76.9h-8v7.4h8.9v2.2H299V66h11.1
		v2.2h-8.4v6.5h8V76.9z"/>
</g>
<g>
	<path fill="none" stroke="#00ADEE" stroke-width="1.5188" stroke-linecap="round" stroke-miterlimit="10" d="M235,284.1
		c-5.1,5.2,0.9,27.9-18.4,31.3c-14.9,2.6-14.1-20.3-3-19.4c21.5,1.9-3,33.4,8,43.3"/>
</g>
<text transform="matrix(1 0 0 1 265.481 146.8914)" fill="#404041" stroke="#404041" stroke-width="0.5063" stroke-miterlimit="10" font-family="'Corbel'" font-size="16.201">25¢</text>
</svg>
