<?xml version="1.0" encoding="utf-8"?>
<!-- Generator: Adobe Illustrator 17.1.0, SVG Export Plug-In . SVG Version: 6.00 Build 0)  -->
<!DOCTYPE svg PUBLIC "-//W3C//DTD SVG 1.1//EN" "http://www.w3.org/Graphics/SVG/1.1/DTD/svg11.dtd">
<svg version="1.1" id="Layer_1" xmlns="http://www.w3.org/2000/svg" xmlns:xlink="http://www.w3.org/1999/xlink" x="0px" y="0px"
	 viewBox="0 0 500 500" enable-background="new 0 0 500 500" xml:space="preserve">
<g>
</g>
<g>
</g>
<g>
</g>
<g>
</g>
<g>
	<path fill="#FCF3CA" d="M287.6,86.1c0,1-5,1.9-5.1,2.9c-0.1,1,4.7,2.8,4.5,3.8c-0.1,1-5.3,1-5.5,2c-0.3,1,4.1,3.5,3.6,4.5
		c-0.4,1-5.3,0-5.7,1s3.4,4.2,2.8,5.1s-5.3-1-5.8-0.1s2.5,4.8,1.8,5.5c-0.7,0.7-5-1.9-5.7-1.2c-0.7,0.7,1.5,5.1,0.7,5.8
		c-0.9,0.6-4.4-2.9-5.4-2.3c-0.9,0.6,0.4,5.4-0.6,5.8c-1,0.4-3.8-3.8-4.8-3.4c-1,0.3-0.7,5.4-1.8,5.5c-1,0.3-2.9-4.5-3.9-4.4
		c-1,0.1-1.9,5.1-2.9,5.1c-1,0-1.9-5-2.9-5.1c-1-0.1-2.9,4.5-3.9,4.4c-1-0.3-0.7-5.3-1.8-5.5c-1-0.3-3.8,3.8-4.8,3.4
		c-1-0.4,0.4-5.3-0.6-5.8c-0.9-0.6-4.5,2.9-5.4,2.3c-0.9-0.6,1.5-5.1,0.7-5.8c-0.7-0.7-5,2-5.7,1.2c-0.7-0.7,2.5-4.7,1.8-5.5
		c-0.6-0.9-5.3,1-5.8,0.1s3.2-4.2,2.8-5.1c-0.4-0.9-5.4,0-5.7-1c-0.4-1,3.9-3.5,3.6-4.5c-0.3-1-5.3-1-5.5-2c-0.1-1,4.5-2.8,4.5-3.8
		c-0.1-1-5.1-1.9-5.1-2.9c0-1,5-1.9,5.1-2.9c0.1-1-4.7-2.8-4.5-3.8c0.1-1,5.3-1,5.5-2c0.3-1-4.1-3.5-3.6-4.5c0.4-1,5.3,0,5.7-1
		c0.4-1-3.4-4.2-2.8-5.1s5.3,1,5.8,0.1c0.6-0.9-2.5-4.8-1.8-5.5s5,1.9,5.7,1.2s-1.5-5.1-0.7-5.8c0.9-0.6,4.4,2.9,5.4,2.3
		c0.9-0.6-0.4-5.4,0.6-5.8c1-0.4,3.8,3.8,4.8,3.4c1-0.3,0.7-5.4,1.8-5.5c1-0.3,2.9,4.5,3.9,4.4c1-0.1,1.9-5.1,2.9-5.1
		c1,0,1.9,5,2.9,5.1c1,0.1,2.9-4.5,3.9-4.4c1,0.3,0.7,5.3,1.8,5.5c1,0.3,3.8-3.8,4.8-3.4c1,0.4-0.4,5.3,0.6,5.8
		c0.9,0.6,4.5-2.9,5.4-2.3s-1.5,5.1-0.7,5.8s5-2,5.7-1.2c0.7,0.7-2.5,4.7-1.8,5.5c0.6,0.9,5.3-1,5.8-0.1s-3.2,4.2-2.8,5.1
		c0.4,0.9,5.4,0,5.7,1c0.4,1-3.9,3.5-3.6,4.5s5.3,1,5.5,2c0.1,1-4.5,2.8-4.5,3.8C282.6,84,287.6,84.9,287.6,86.1z"/>
</g>
<path fill="#C61825" d="M161.3,313.3c2.8-6,40.3-72,62.2-85.8c30.5-19.3-54.9,21-54.9,21L161.3,313.3z"/>
<path fill="#C61825" d="M351.4,312.9c-3.6,0.1-43.9-66.6-62.2-85.8c-17.1-18.1,54.9,21,54.9,21L351.4,312.9z"/>
<g>
	<path fill="#DF151A" d="M254,105.6c-13.4-0.9-19.6,7.7-26.6,8.8c-23.8,3.5-41.2,12.3-55.9,32.4c-16.6,22.9-21.5,64.9-21.2,98.2
		c0.6,57.2,10.4,66,10.4,66s21.3-50.5,32.1-70.9c12.4-23.5,104.6-21.9,120.4-0.4c16.3,22.3,38.2,70.1,38.2,70.1s3.1-7.2,5.4-64.7
		c1.3-33.3-4.7-75.3-21.2-98.2c-14.6-20.3-32.1-28.9-55.9-32.4c-7-1-13.1-9.8-26.6-8.8"/>
	<path fill="#DF151A" d="M161.2,313.5l-1.3-1.2c-0.4-0.4-10.2-9.8-10.8-67.1c-0.6-61.9,14.7-89.9,21.5-99.1
		c13.9-19.3,30.8-29,56.6-33c2.3-0.3,4.7-1.8,7.4-3.4c4.7-2.6,10.4-6,19-5.5c8.6-0.4,14.3,2.9,19,5.5c2.8,1.6,5.1,2.9,7.4,3.4
		c25.8,3.8,42.8,13.7,56.6,33c17.8,24.7,22.8,68.9,21.5,99.2c-2.3,57.1-5.4,64.8-5.5,65.1l-1.2,2.6l-1.2-2.6
		c-0.1-0.4-22-47.9-38.1-69.9c-9.3-12.6-46.6-17.8-75.9-15.5c-22.3,1.9-38.1,7.7-42.3,15.8c-10.7,20.3-31.8,70.3-32.1,70.8
		L161.2,313.5z M252,107c-7,0-11.8,2.8-16.2,5.3c-2.8,1.6-5.4,3.2-8.3,3.6c-25.1,3.8-41.6,13.3-55,32c-20,27.7-21,81.6-20.9,97.4
		c0.4,43.5,6.3,58.8,8.8,63.3c4.2-9.9,21.7-50.9,31.2-68.9c4.7-9,20.9-15.2,44.4-17.2c30.7-2.5,68.2,2.9,78.1,16.5
		c13.7,18.7,31.5,55.6,36.8,67c1-6,2.9-21.7,4.5-60.7c2-47.7-10.1-82.3-20.9-97.4c-13.4-18.5-29.9-28.2-55-32
		c-2.8-0.4-5.5-1.9-8.3-3.6c-4.5-2.6-9.8-5.7-17.5-5.3l0,0c-0.1,0-0.1,0-0.3,0c-0.1,0-0.1,0-0.3,0l0,0C252.8,107,252.4,107,252,107z
		"/>
</g>
<g>
	<g>
		<g>
			<path fill="#FCF3CA" d="M155.2,183.3c0,0,8.2,12.7,12.3,19c0.7,1.2,1.9,1.8,3.2,1.9c1.3,0,2.5-0.6,3.4-1.6
				c5.1-6.4,9.6-12.4,14-18c4.1,6.3,8.3,12.7,12.7,19.3c0.7,1.2,1.9,1.8,3.2,1.9c1.3,0,2.5-0.6,3.4-1.6c4.8-6.4,9.3-12.4,13.6-18.2
				c4.1,6.1,8.5,12.4,13,18.8c0.7,1.2,2,1.8,3.2,1.8l0,0c1.3,0,2.5-0.6,3.2-1.8c4.7-6.4,9-12.6,13.3-18.5c4.2,6,8.6,12.1,13.1,18.5
				c0.7,1.2,2,1.8,3.4,1.8s2.5-0.7,3.2-1.8c4.5-6.4,8.8-12.7,13-18.8c4.2,5.8,8.8,11.8,13.6,18.2c0.9,1,2,1.6,3.4,1.6
				s2.5-0.7,3.2-1.9c4.4-6.6,8.6-13,12.7-19.3c4.2,5.5,8.9,11.5,14,18c0.9,1,2,1.6,3.4,1.6c1.3,0,2.5-0.7,3.2-1.9
				c5.4-8.3,12.6-19,12.6-19c0-1.9-3.1-11.1-3.1-11.1c-4.1,6.4-8.8,13.6-13.1,20.1c-5.1-6.6-9.6-12.4-14-18c-0.9-1-2-1.6-3.4-1.6
				c-1.3,0-2.5,0.7-3.2,1.9c-4.1,6.3-8.2,12.7-12.6,19.3c-4.8-6.4-9.2-12.4-13.6-18.2c-0.7-1.2-2-1.8-3.4-1.8s-2.5,0.7-3.2,1.9
				c-4.1,6.1-8.3,12.4-12.8,18.8c-4.7-6.4-8.9-12.6-13.1-18.5c-0.7-1.2-2-1.8-3.4-1.8l0,0c-1.3,0-2.5,0.7-3.4,1.8
				c-4.2,6-8.5,12.1-13.1,18.5c-4.4-6.4-8.8-12.7-12.8-18.8c-0.7-1.2-2-1.8-3.2-1.9c-1.3,0-2.5,0.6-3.4,1.8
				c-4.2,5.8-8.8,11.8-13.4,18.2c-4.4-6.6-8.6-13-12.6-19.3c-0.7-1.2-1.9-1.9-3.2-1.9c-1.3,0-2.5,0.6-3.4,1.6
				c-4.2,5.5-8.9,11.5-14,18c-4.4-6.6-9.2-13.9-13.1-20.3C158,172.2,156.4,176.3,155.2,183.3z"/>
		</g>
		<defs>
			<filter id="Adobe_OpacityMaskFilter" filterUnits="userSpaceOnUse" x="155.2" y="172.1" width="197" height="34.4">
				<feColorMatrix  type="matrix" values="1 0 0 0 0  0 1 0 0 0  0 0 1 0 0  0 0 0 1 0"/>
			</filter>
		</defs>
		<mask maskUnits="userSpaceOnUse" x="155.2" y="172.1" width="197" height="34.4" id="SVGID_1_">
			<g filter="url(#Adobe_OpacityMaskFilter)">
			</g>
		</mask>
		<g opacity="0.32" mask="url(#SVGID_1_)">
			<path fill="#CACCCA" d="M155.2,183.3c0,0,8.2,12.7,12.3,19c0.7,1.2,1.9,1.8,3.2,1.9c1.3,0,2.5-0.6,3.4-1.6
				c5.1-6.4,9.6-12.4,14-18c4.1,6.3,8.3,12.7,12.7,19.3c0.7,1.2,1.9,1.8,3.2,1.9c1.3,0,2.5-0.6,3.4-1.6c4.8-6.4,9.3-12.4,13.6-18.2
				c4.1,6.1,8.5,12.4,13,18.8c0.7,1.2,2,1.8,3.2,1.8l0,0c1.3,0,2.5-0.6,3.2-1.8c4.7-6.4,9-12.6,13.3-18.5c4.2,6,8.6,12.1,13.1,18.5
				c0.7,1.2,2,1.8,3.4,1.8s2.5-0.7,3.2-1.8c4.5-6.4,8.8-12.7,13-18.8c4.2,5.8,8.8,11.8,13.6,18.2c0.9,1,2,1.6,3.4,1.6
				s2.5-0.7,3.2-1.9c4.4-6.6,8.6-13,12.7-19.3c4.2,5.5,8.9,11.5,14,18c0.9,1,2,1.6,3.4,1.6c1.3,0,2.5-0.7,3.2-1.9
				c5.4-8.3,12.6-19,12.6-19c0-1.9-3.1-11.1-3.1-11.1c-4.1,6.4-8.8,13.6-13.1,20.1c-5.1-6.6-9.6-12.4-14-18c-0.9-1-2-1.6-3.4-1.6
				c-1.3,0-2.5,0.7-3.2,1.9c-4.1,6.3-8.2,12.7-12.6,19.3c-4.8-6.4-9.2-12.4-13.6-18.2c-0.7-1.2-2-1.8-3.4-1.8s-2.5,0.7-3.2,1.9
				c-4.1,6.1-8.3,12.4-12.8,18.8c-4.7-6.4-8.9-12.6-13.1-18.5c-0.7-1.2-2-1.8-3.4-1.8l0,0c-1.3,0-2.5,0.7-3.4,1.8
				c-4.2,6-8.5,12.1-13.1,18.5c-4.4-6.4-8.8-12.7-12.8-18.8c-0.7-1.2-2-1.8-3.2-1.9c-1.3,0-2.5,0.6-3.4,1.8
				c-4.2,5.8-8.8,11.8-13.4,18.2c-4.4-6.6-8.6-13-12.6-19.3c-0.7-1.2-1.9-1.9-3.2-1.9c-1.3,0-2.5,0.6-3.4,1.6
				c-4.2,5.5-8.9,11.5-14,18c-4.4-6.6-9.2-13.9-13.1-20.3C158,172.2,156.4,176.3,155.2,183.3z"/>
		</g>
	</g>
	<defs>
		<filter id="Adobe_OpacityMaskFilter_1_" filterUnits="userSpaceOnUse" x="155.2" y="172.1" width="197" height="34.4">
			<feColorMatrix  type="matrix" values="1 0 0 0 0  0 1 0 0 0  0 0 1 0 0  0 0 0 1 0"/>
		</filter>
	</defs>
	<mask maskUnits="userSpaceOnUse" x="155.2" y="172.1" width="197" height="34.4" id="SVGID_2_">
		<g filter="url(#Adobe_OpacityMaskFilter_1_)">
		</g>
	</mask>
	<g opacity="0.32" mask="url(#SVGID_2_)">
		<g>
			<path fill="#CACCCA" d="M155.2,183.3c0,0,8.2,12.7,12.3,19c0.7,1.2,1.9,1.8,3.2,1.9c1.3,0,2.5-0.6,3.4-1.6
				c5.1-6.4,9.6-12.4,14-18c4.1,6.3,8.3,12.7,12.7,19.3c0.7,1.2,1.9,1.8,3.2,1.9c1.3,0,2.5-0.6,3.4-1.6c4.8-6.4,9.3-12.4,13.6-18.2
				c4.1,6.1,8.5,12.4,13,18.8c0.7,1.2,2,1.8,3.2,1.8l0,0c1.3,0,2.5-0.6,3.2-1.8c4.7-6.4,9-12.6,13.3-18.5c4.2,6,8.6,12.1,13.1,18.5
				c0.7,1.2,2,1.8,3.4,1.8s2.5-0.7,3.2-1.8c4.5-6.4,8.8-12.7,13-18.8c4.2,5.8,8.8,11.8,13.6,18.2c0.9,1,2,1.6,3.4,1.6
				s2.5-0.7,3.2-1.9c4.4-6.6,8.6-13,12.7-19.3c4.2,5.5,8.9,11.5,14,18c0.9,1,2,1.6,3.4,1.6c1.3,0,2.5-0.7,3.2-1.9
				c5.4-8.3,12.6-19,12.6-19c0-1.9-3.1-11.1-3.1-11.1c-4.1,6.4-8.8,13.6-13.1,20.1c-5.1-6.6-9.6-12.4-14-18c-0.9-1-2-1.6-3.4-1.6
				c-1.3,0-2.5,0.7-3.2,1.9c-4.1,6.3-8.2,12.7-12.6,19.3c-4.8-6.4-9.2-12.4-13.6-18.2c-0.7-1.2-2-1.8-3.4-1.8s-2.5,0.7-3.2,1.9
				c-4.1,6.1-8.3,12.4-12.8,18.8c-4.7-6.4-8.9-12.6-13.1-18.5c-0.7-1.2-2-1.8-3.4-1.8l0,0c-1.3,0-2.5,0.7-3.4,1.8
				c-4.2,6-8.5,12.1-13.1,18.5c-4.4-6.4-8.8-12.7-12.8-18.8c-0.7-1.2-2-1.8-3.2-1.9c-1.3,0-2.5,0.6-3.4,1.8
				c-4.2,5.8-8.8,11.8-13.4,18.2c-4.4-6.6-8.6-13-12.6-19.3c-0.7-1.2-1.9-1.9-3.2-1.9c-1.3,0-2.5,0.6-3.4,1.6
				c-4.2,5.5-8.9,11.5-14,18c-4.4-6.6-9.2-13.9-13.1-20.3C158,172.2,156.4,176.3,155.2,183.3z"/>
		</g>
		<g opacity="0.32">
			<path fill="#CACCCA" d="M155.2,183.3c0,0,8.2,12.7,12.3,19c0.7,1.2,1.9,1.8,3.2,1.9c1.3,0,2.5-0.6,3.4-1.6
				c5.1-6.4,9.6-12.4,14-18c4.1,6.3,8.3,12.7,12.7,19.3c0.7,1.2,1.9,1.8,3.2,1.9c1.3,0,2.5-0.6,3.4-1.6c4.8-6.4,9.3-12.4,13.6-18.2
				c4.1,6.1,8.5,12.4,13,18.8c0.7,1.2,2,1.8,3.2,1.8l0,0c1.3,0,2.5-0.6,3.2-1.8c4.7-6.4,9-12.6,13.3-18.5c4.2,6,8.6,12.1,13.1,18.5
				c0.7,1.2,2,1.8,3.4,1.8s2.5-0.7,3.2-1.8c4.5-6.4,8.8-12.7,13-18.8c4.2,5.8,8.8,11.8,13.6,18.2c0.9,1,2,1.6,3.4,1.6
				s2.5-0.7,3.2-1.9c4.4-6.6,8.6-13,12.7-19.3c4.2,5.5,8.9,11.5,14,18c0.9,1,2,1.6,3.4,1.6c1.3,0,2.5-0.7,3.2-1.9
				c5.4-8.3,12.6-19,12.6-19c0-1.9-3.1-11.1-3.1-11.1c-4.1,6.4-8.8,13.6-13.1,20.1c-5.1-6.6-9.6-12.4-14-18c-0.9-1-2-1.6-3.4-1.6
				c-1.3,0-2.5,0.7-3.2,1.9c-4.1,6.3-8.2,12.7-12.6,19.3c-4.8-6.4-9.2-12.4-13.6-18.2c-0.7-1.2-2-1.8-3.4-1.8s-2.5,0.7-3.2,1.9
				c-4.1,6.1-8.3,12.4-12.8,18.8c-4.7-6.4-8.9-12.6-13.1-18.5c-0.7-1.2-2-1.8-3.4-1.8l0,0c-1.3,0-2.5,0.7-3.4,1.8
				c-4.2,6-8.5,12.1-13.1,18.5c-4.4-6.4-8.8-12.7-12.8-18.8c-0.7-1.2-2-1.8-3.2-1.9c-1.3,0-2.5,0.6-3.4,1.8
				c-4.2,5.8-8.8,11.8-13.4,18.2c-4.4-6.6-8.6-13-12.6-19.3c-0.7-1.2-1.9-1.9-3.2-1.9c-1.3,0-2.5,0.6-3.4,1.6
				c-4.2,5.5-8.9,11.5-14,18c-4.4-6.6-9.2-13.9-13.1-20.3C158,172.2,156.4,176.3,155.2,183.3z"/>
		</g>
	</g>
</g>
<g>
	<g>
		<g>
			<path fill="#FCF3CA" d="M344.1,158.6c0,0-7,7.7-10.4,11.5c-0.9,1-2.2,1.6-3.5,1.3c-1.3-0.1-2.5-1-3.1-2.3
				c-3.4-6.6-6.7-13.1-10.2-19.7c-4.7,5.5-9.3,11.2-13.9,16.9c-0.9,1-2.2,1.6-3.5,1.6c-1.3-0.1-2.5-0.9-3.2-2
				c-3.6-6.4-7.3-12.7-11.2-19.1c-4.4,5.8-8.8,11.8-13,17.7c-0.7,1.2-2,1.8-3.4,1.8s-2.5-0.7-3.4-1.9c-3.9-6.1-7.9-12.4-12.1-18.4
				c-4.1,6.1-8.2,12.3-12.1,18.4c-0.7,1.2-1.9,1.9-3.4,1.9c-1.3,0-2.6-0.6-3.4-1.8c-4.2-6-8.6-11.8-13-17.7
				c-3.8,6.3-7.6,12.7-11.2,19.1c-0.7,1.2-1.9,2-3.2,2c-1.3,0.1-2.6-0.4-3.5-1.6c-4.5-5.7-9.2-11.4-13.9-16.9
				c-3.5,6.6-7,13.1-10.2,19.7c-0.6,1.3-1.8,2-3.1,2.3c-0.1,0-0.3,0-0.6,0c-1.2,0-2.2-0.4-3.1-1.3c-3.2-3.8-9.9-11.1-9.9-11.1
				c1-4.5,4.1-8,4.1-8c2.6,2.9,5.4,5.8,7.9,8.8c3.4-6.6,6.9-13.3,10.5-19.8c0.7-1.2,1.8-2,3.1-2.2c1.3-0.1,2.6,0.4,3.5,1.5
				c4.8,5.5,9.5,11.2,14.2,17.1c3.6-6.4,7.6-12.8,11.5-19.1c0.7-1.2,1.9-1.9,3.2-1.9c1.3,0,2.5,0.6,3.4,1.6
				c4.5,5.8,8.9,11.8,13.3,17.8c3.9-6.3,8.2-12.4,12.4-18.5c0.7-1.2,2-1.8,3.4-1.8l0,0c1.3,0,2.5,0.7,3.4,1.8
				c4.2,6.1,8.3,12.3,12.4,18.5c4.4-6,8.8-12,13.3-17.8c0.9-1,2-1.6,3.4-1.6s2.5,0.7,3.2,1.9c3.9,6.3,7.7,12.7,11.5,19.1
				c4.7-5.7,9.3-11.4,14.2-17.1c0.9-1,2.2-1.6,3.5-1.5c1.3,0.1,2.5,0.9,3.1,2.2c3.6,6.6,7.2,13.1,10.5,19.8c2.6-3.1,5.5-6,8.3-9
				C339.8,150.9,342.2,154.4,344.1,158.6z"/>
		</g>
		<defs>
			<filter id="Adobe_OpacityMaskFilter_2_" filterUnits="userSpaceOnUse" x="162.8" y="134.4" width="181.3" height="37.1">
				<feColorMatrix  type="matrix" values="1 0 0 0 0  0 1 0 0 0  0 0 1 0 0  0 0 0 1 0"/>
			</filter>
		</defs>
		<mask maskUnits="userSpaceOnUse" x="162.8" y="134.4" width="181.3" height="37.1" id="SVGID_4_">
			<g filter="url(#Adobe_OpacityMaskFilter_2_)">
			</g>
		</mask>
		<g opacity="0.32" mask="url(#SVGID_4_)">
			<path fill="#CACCCA" d="M344.1,158.6c0,0-7,7.7-10.4,11.5c-0.9,1-2.2,1.6-3.5,1.3c-1.3-0.1-2.5-1-3.1-2.3
				c-3.4-6.6-6.7-13.1-10.2-19.7c-4.7,5.5-9.3,11.2-13.9,16.9c-0.9,1-2.2,1.6-3.5,1.6c-1.3-0.1-2.5-0.9-3.2-2
				c-3.6-6.4-7.3-12.7-11.2-19.1c-4.4,5.8-8.8,11.8-13,17.7c-0.7,1.2-2,1.8-3.4,1.8s-2.5-0.7-3.4-1.9c-3.9-6.1-7.9-12.4-12.1-18.4
				c-4.1,6.1-8.2,12.3-12.1,18.4c-0.7,1.2-1.9,1.9-3.4,1.9c-1.3,0-2.6-0.6-3.4-1.8c-4.2-6-8.6-11.8-13-17.7
				c-3.8,6.3-7.6,12.7-11.2,19.1c-0.7,1.2-1.9,2-3.2,2c-1.3,0.1-2.6-0.4-3.5-1.6c-4.5-5.7-9.2-11.4-13.9-16.9
				c-3.5,6.6-7,13.1-10.2,19.7c-0.6,1.3-1.8,2-3.1,2.3c-0.1,0-0.3,0-0.6,0c-1.2,0-2.2-0.4-3.1-1.3c-3.2-3.8-9.9-11.1-9.9-11.1
				c1-4.5,4.1-8,4.1-8c2.6,2.9,5.4,5.8,7.9,8.8c3.4-6.6,6.9-13.3,10.5-19.8c0.7-1.2,1.8-2,3.1-2.2c1.3-0.1,2.6,0.4,3.5,1.5
				c4.8,5.5,9.5,11.2,14.2,17.1c3.6-6.4,7.6-12.8,11.5-19.1c0.7-1.2,1.9-1.9,3.2-1.9c1.3,0,2.5,0.6,3.4,1.6
				c4.5,5.8,8.9,11.8,13.3,17.8c3.9-6.3,8.2-12.4,12.4-18.5c0.7-1.2,2-1.8,3.4-1.8l0,0c1.3,0,2.5,0.7,3.4,1.8
				c4.2,6.1,8.3,12.3,12.4,18.5c4.4-6,8.8-12,13.3-17.8c0.9-1,2-1.6,3.4-1.6s2.5,0.7,3.2,1.9c3.9,6.3,7.7,12.7,11.5,19.1
				c4.7-5.7,9.3-11.4,14.2-17.1c0.9-1,2.2-1.6,3.5-1.5c1.3,0.1,2.5,0.9,3.1,2.2c3.6,6.6,7.2,13.1,10.5,19.8c2.6-3.1,5.5-6,8.3-9
				C339.8,150.9,342.2,154.4,344.1,158.6z"/>
		</g>
	</g>
	<defs>
		<filter id="Adobe_OpacityMaskFilter_3_" filterUnits="userSpaceOnUse" x="162.8" y="134.4" width="181.3" height="37.1">
			<feColorMatrix  type="matrix" values="1 0 0 0 0  0 1 0 0 0  0 0 1 0 0  0 0 0 1 0"/>
		</filter>
	</defs>
	<mask maskUnits="userSpaceOnUse" x="162.8" y="134.4" width="181.3" height="37.1" id="SVGID_5_">
		<g filter="url(#Adobe_OpacityMaskFilter_3_)">
		</g>
	</mask>
	<g opacity="0.32" mask="url(#SVGID_5_)">
		<g>
			<path fill="#CACCCA" d="M344.1,158.6c0,0-7,7.7-10.4,11.5c-0.9,1-2.2,1.6-3.5,1.3c-1.3-0.1-2.5-1-3.1-2.3
				c-3.4-6.6-6.7-13.1-10.2-19.7c-4.7,5.5-9.3,11.2-13.9,16.9c-0.9,1-2.2,1.6-3.5,1.6c-1.3-0.1-2.5-0.9-3.2-2
				c-3.6-6.4-7.3-12.7-11.2-19.1c-4.4,5.8-8.8,11.8-13,17.7c-0.7,1.2-2,1.8-3.4,1.8s-2.5-0.7-3.4-1.9c-3.9-6.1-7.9-12.4-12.1-18.4
				c-4.1,6.1-8.2,12.3-12.1,18.4c-0.7,1.2-1.9,1.9-3.4,1.9c-1.3,0-2.6-0.6-3.4-1.8c-4.2-6-8.6-11.8-13-17.7
				c-3.8,6.3-7.6,12.7-11.2,19.1c-0.7,1.2-1.9,2-3.2,2c-1.3,0.1-2.6-0.4-3.5-1.6c-4.5-5.7-9.2-11.4-13.9-16.9
				c-3.5,6.6-7,13.1-10.2,19.7c-0.6,1.3-1.8,2-3.1,2.3c-0.1,0-0.3,0-0.6,0c-1.2,0-2.2-0.4-3.1-1.3c-3.2-3.8-9.9-11.1-9.9-11.1
				c1-4.5,4.1-8,4.1-8c2.6,2.9,5.4,5.8,7.9,8.8c3.4-6.6,6.9-13.3,10.5-19.8c0.7-1.2,1.8-2,3.1-2.2c1.3-0.1,2.6,0.4,3.5,1.5
				c4.8,5.5,9.5,11.2,14.2,17.1c3.6-6.4,7.6-12.8,11.5-19.1c0.7-1.2,1.9-1.9,3.2-1.9c1.3,0,2.5,0.6,3.4,1.6
				c4.5,5.8,8.9,11.8,13.3,17.8c3.9-6.3,8.2-12.4,12.4-18.5c0.7-1.2,2-1.8,3.4-1.8l0,0c1.3,0,2.5,0.7,3.4,1.8
				c4.2,6.1,8.3,12.3,12.4,18.5c4.4-6,8.8-12,13.3-17.8c0.9-1,2-1.6,3.4-1.6s2.5,0.7,3.2,1.9c3.9,6.3,7.7,12.7,11.5,19.1
				c4.7-5.7,9.3-11.4,14.2-17.1c0.9-1,2.2-1.6,3.5-1.5c1.3,0.1,2.5,0.9,3.1,2.2c3.6,6.6,7.2,13.1,10.5,19.8c2.6-3.1,5.5-6,8.3-9
				C339.8,150.9,342.2,154.4,344.1,158.6z"/>
		</g>
		<g opacity="0.32">
			<path fill="#CACCCA" d="M344.1,158.6c0,0-7,7.7-10.4,11.5c-0.9,1-2.2,1.6-3.5,1.3c-1.3-0.1-2.5-1-3.1-2.3
				c-3.4-6.6-6.7-13.1-10.2-19.7c-4.7,5.5-9.3,11.2-13.9,16.9c-0.9,1-2.2,1.6-3.5,1.6c-1.3-0.1-2.5-0.9-3.2-2
				c-3.6-6.4-7.3-12.7-11.2-19.1c-4.4,5.8-8.8,11.8-13,17.7c-0.7,1.2-2,1.8-3.4,1.8s-2.5-0.7-3.4-1.9c-3.9-6.1-7.9-12.4-12.1-18.4
				c-4.1,6.1-8.2,12.3-12.1,18.4c-0.7,1.2-1.9,1.9-3.4,1.9c-1.3,0-2.6-0.6-3.4-1.8c-4.2-6-8.6-11.8-13-17.7
				c-3.8,6.3-7.6,12.7-11.2,19.1c-0.7,1.2-1.9,2-3.2,2c-1.3,0.1-2.6-0.4-3.5-1.6c-4.5-5.7-9.2-11.4-13.9-16.9
				c-3.5,6.6-7,13.1-10.2,19.7c-0.6,1.3-1.8,2-3.1,2.3c-0.1,0-0.3,0-0.6,0c-1.2,0-2.2-0.4-3.1-1.3c-3.2-3.8-9.9-11.1-9.9-11.1
				c1-4.5,4.1-8,4.1-8c2.6,2.9,5.4,5.8,7.9,8.8c3.4-6.6,6.9-13.3,10.5-19.8c0.7-1.2,1.8-2,3.1-2.2c1.3-0.1,2.6,0.4,3.5,1.5
				c4.8,5.5,9.5,11.2,14.2,17.1c3.6-6.4,7.6-12.8,11.5-19.1c0.7-1.2,1.9-1.9,3.2-1.9c1.3,0,2.5,0.6,3.4,1.6
				c4.5,5.8,8.9,11.8,13.3,17.8c3.9-6.3,8.2-12.4,12.4-18.5c0.7-1.2,2-1.8,3.4-1.8l0,0c1.3,0,2.5,0.7,3.4,1.8
				c4.2,6.1,8.3,12.3,12.4,18.5c4.4-6,8.8-12,13.3-17.8c0.9-1,2-1.6,3.4-1.6s2.5,0.7,3.2,1.9c3.9,6.3,7.7,12.7,11.5,19.1
				c4.7-5.7,9.3-11.4,14.2-17.1c0.9-1,2.2-1.6,3.5-1.5c1.3,0.1,2.5,0.9,3.1,2.2c3.6,6.6,7.2,13.1,10.5,19.8c2.6-3.1,5.5-6,8.3-9
				C339.8,150.9,342.2,154.4,344.1,158.6z"/>
		</g>
	</g>
</g>
<path fill="#FCF3CA" d="M159.9,314.1c-0.3,0-0.6,0-0.9-0.1c-1-0.4-1.5-1.8-1-2.9c0.1-0.4,21.5-50.8,32.3-71.1
	c2.9-5.4,12.6-14.9,45-17.5c30.8-2.5,68.6,3.1,78.8,16.8c16.3,22.2,37.7,68.6,38.5,70.5c0.4,1,0.1,2.3-0.9,2.9c-1,0.6-2.2,0.1-2.8-1
	c-0.1-0.4-21.9-47.9-38.1-69.8c-8.2-11.1-41.9-17.8-75.2-15.2c-22,1.8-35.8,7.4-39.8,15.3c-10.7,20.1-33.7,70.3-33.9,70.8
	C161.5,313.6,160.6,314.1,159.9,314.1z"/>
<g>
	<g>
		<path fill="#FCF3CA" d="M349.5,313.5c2.9,9.3,5.1,19.1,5.5,29c0.7,12.8-4.4,25.2-6.9,37.7c-2,10.2-0.4,20.1,0.6,30.5
			c0.6,5.8,0.7,11.7-0.1,17.4c-0.7,5-4.8,8.2-6.6,12.7c-1,2.6,2.9,3.8,3.9,1.2c1.6-3.9,4.7-6.7,6.1-10.8c1.8-4.7,1.3-10.8,1-15.8
			c-0.6-13.6-3.1-25.2,0-38.8c2.5-11.4,6.1-22.2,6-33.9c-0.1-10.2-2.8-20.6-5.7-30.2C352.5,309.7,348.6,310.7,349.5,313.5
			L349.5,313.5z"/>
	</g>
	<defs>
		<filter id="Adobe_OpacityMaskFilter_4_" filterUnits="userSpaceOnUse" x="341.8" y="310.8" width="17.2" height="132.6">
			<feColorMatrix  type="matrix" values="1 0 0 0 0  0 1 0 0 0  0 0 1 0 0  0 0 0 1 0"/>
		</filter>
	</defs>
	<mask maskUnits="userSpaceOnUse" x="341.8" y="310.8" width="17.2" height="132.6" id="SVGID_7_">
		<g filter="url(#Adobe_OpacityMaskFilter_4_)">
		</g>
	</mask>
	<g opacity="0.32" mask="url(#SVGID_7_)">
		<path fill="#CACCCA" d="M349.5,313.5c2.9,9.3,5.1,19.1,5.5,29c0.7,12.8-4.4,25.2-6.9,37.7c-2,10.2-0.4,20.1,0.6,30.5
			c0.6,5.8,0.7,11.7-0.1,17.4c-0.7,5-4.8,8.2-6.6,12.7c-1,2.6,2.9,3.8,3.9,1.2c1.6-3.9,4.7-6.7,6.1-10.8c1.8-4.7,1.3-10.8,1-15.8
			c-0.6-13.6-3.1-25.2,0-38.8c2.5-11.4,6.1-22.2,6-33.9c-0.1-10.2-2.8-20.6-5.7-30.2C352.5,309.7,348.6,310.7,349.5,313.5
			L349.5,313.5z"/>
	</g>
</g>
<path fill="#FCF3CA" d="M158,311.6c-4.5,17.7-2.5,33.1,0.3,46.1c2.6,12.3,4.8,24.5,5.4,37.1c0.6,11.7,1.8,23.8,1.2,35.3
	c-0.1,2.8,3.9,2.8,4.1,0c0.6-10.8-1-21.7-1.2-32.5c0-10.2-1.6-20.4-3.5-30.4c-1.8-9.6-4.8-19-5.4-28.6c-0.3-5,0.9-17.2,2.6-24.7
	C162.2,311.1,159.6,309.4,158,311.6L158,311.6z"/>
<g>
	<g>
		<g>
			<polygon fill="#DF151A" points="364.6,441.9 361.7,443.7 364,446.2 360.8,447 362.4,450.1 359.1,450.1 359.8,453.5 356.5,452.6 
				356.3,455.9 353.4,454 352.2,457.2 350,454.6 347.8,457.2 346.7,454 343.8,455.9 343.6,452.6 340.3,453.5 341,450.1 337.6,450.1 
				339.2,447 336,446.2 338.4,443.7 335.4,441.9 338.4,440.2 336,437.7 339.2,436.8 337.6,433.7 341,433.7 340.3,430.4 343.6,431.3 
				343.8,427.9 346.7,429.8 347.8,426.6 350,429.2 352.2,426.6 353.4,429.8 356.3,427.9 356.5,431.3 359.8,430.4 359.1,433.7 
				362.4,433.7 360.8,436.8 364,437.7 361.7,440.2 			"/>
			<polygon fill="none" stroke="#DF151A" stroke-width="4.2636" stroke-linecap="round" stroke-miterlimit="10" points="
				364.6,441.9 361.7,443.7 364,446.2 360.8,447 362.4,450.1 359.1,450.1 359.8,453.5 356.5,452.6 356.3,455.9 353.4,454 
				352.2,457.2 350,454.6 347.8,457.2 346.7,454 343.8,455.9 343.6,452.6 340.3,453.5 341,450.1 337.6,450.1 339.2,447 336,446.2 
				338.4,443.7 335.4,441.9 338.4,440.2 336,437.7 339.2,436.8 337.6,433.7 341,433.7 340.3,430.4 343.6,431.3 343.8,427.9 
				346.7,429.8 347.8,426.6 350,429.2 352.2,426.6 353.4,429.8 356.3,427.9 356.5,431.3 359.8,430.4 359.1,433.7 362.4,433.7 
				360.8,436.8 364,437.7 361.7,440.2 			"/>
		</g>
		<defs>
			<filter id="Adobe_OpacityMaskFilter_5_" filterUnits="userSpaceOnUse" x="331.3" y="422.4" width="37.5" height="39.1">
				<feColorMatrix  type="matrix" values="1 0 0 0 0  0 1 0 0 0  0 0 1 0 0  0 0 0 1 0"/>
			</filter>
		</defs>
		<mask maskUnits="userSpaceOnUse" x="331.3" y="422.4" width="37.5" height="39.1" id="SVGID_8_">
			<g filter="url(#Adobe_OpacityMaskFilter_5_)">
			</g>
		</mask>
		<g opacity="0.32" mask="url(#SVGID_8_)">
			<polygon fill="#CACCCA" points="364.6,441.9 361.7,443.7 364,446.2 360.8,447 362.4,450.1 359.1,450.1 359.8,453.5 356.5,452.6 
				356.3,455.9 353.4,454 352.2,457.2 350,454.6 347.8,457.2 346.7,454 343.8,455.9 343.6,452.6 340.3,453.5 341,450.1 337.6,450.1 
				339.2,447 336,446.2 338.4,443.7 335.4,441.9 338.4,440.2 336,437.7 339.2,436.8 337.6,433.7 341,433.7 340.3,430.4 343.6,431.3 
				343.8,427.9 346.7,429.8 347.8,426.6 350,429.2 352.2,426.6 353.4,429.8 356.3,427.9 356.5,431.3 359.8,430.4 359.1,433.7 
				362.4,433.7 360.8,436.8 364,437.7 361.7,440.2 			"/>
			<polygon fill="none" stroke="#CACCCA" stroke-width="4.2636" stroke-linecap="round" stroke-miterlimit="10" points="
				364.6,441.9 361.7,443.7 364,446.2 360.8,447 362.4,450.1 359.1,450.1 359.8,453.5 356.5,452.6 356.3,455.9 353.4,454 
				352.2,457.2 350,454.6 347.8,457.2 346.7,454 343.8,455.9 343.6,452.6 340.3,453.5 341,450.1 337.6,450.1 339.2,447 336,446.2 
				338.4,443.7 335.4,441.9 338.4,440.2 336,437.7 339.2,436.8 337.6,433.7 341,433.7 340.3,430.4 343.6,431.3 343.8,427.9 
				346.7,429.8 347.8,426.6 350,429.2 352.2,426.6 353.4,429.8 356.3,427.9 356.5,431.3 359.8,430.4 359.1,433.7 362.4,433.7 
				360.8,436.8 364,437.7 361.7,440.2 			"/>
		</g>
	</g>
	<defs>
		<filter id="Adobe_OpacityMaskFilter_6_" filterUnits="userSpaceOnUse" x="331.3" y="422.4" width="37.5" height="39.1">
			<feColorMatrix  type="matrix" values="1 0 0 0 0  0 1 0 0 0  0 0 1 0 0  0 0 0 1 0"/>
		</filter>
	</defs>
	<mask maskUnits="userSpaceOnUse" x="331.3" y="422.4" width="37.5" height="39.1" id="SVGID_9_">
		<g filter="url(#Adobe_OpacityMaskFilter_6_)">
		</g>
	</mask>
	<g opacity="0.32" mask="url(#SVGID_9_)">
		<g>
			<polygon fill="#A0A0A0" points="364.6,441.9 361.7,443.7 364,446.2 360.8,447 362.4,450.1 359.1,450.1 359.8,453.5 356.5,452.6 
				356.3,455.9 353.4,454 352.2,457.2 350,454.6 347.8,457.2 346.7,454 343.8,455.9 343.6,452.6 340.3,453.5 341,450.1 337.6,450.1 
				339.2,447 336,446.2 338.4,443.7 335.4,441.9 338.4,440.2 336,437.7 339.2,436.8 337.6,433.7 341,433.7 340.3,430.4 343.6,431.3 
				343.8,427.9 346.7,429.8 347.8,426.6 350,429.2 352.2,426.6 353.4,429.8 356.3,427.9 356.5,431.3 359.8,430.4 359.1,433.7 
				362.4,433.7 360.8,436.8 364,437.7 361.7,440.2 			"/>
			<polygon fill="none" stroke="#A0A0A0" stroke-width="4.2636" stroke-linecap="round" stroke-miterlimit="10" points="
				364.6,441.9 361.7,443.7 364,446.2 360.8,447 362.4,450.1 359.1,450.1 359.8,453.5 356.5,452.6 356.3,455.9 353.4,454 
				352.2,457.2 350,454.6 347.8,457.2 346.7,454 343.8,455.9 343.6,452.6 340.3,453.5 341,450.1 337.6,450.1 339.2,447 336,446.2 
				338.4,443.7 335.4,441.9 338.4,440.2 336,437.7 339.2,436.8 337.6,433.7 341,433.7 340.3,430.4 343.6,431.3 343.8,427.9 
				346.7,429.8 347.8,426.6 350,429.2 352.2,426.6 353.4,429.8 356.3,427.9 356.5,431.3 359.8,430.4 359.1,433.7 362.4,433.7 
				360.8,436.8 364,437.7 361.7,440.2 			"/>
		</g>
		<g opacity="0.32">
			<polygon fill="#A0A0A0" points="364.6,441.9 361.7,443.7 364,446.2 360.8,447 362.4,450.1 359.1,450.1 359.8,453.5 356.5,452.6 
				356.3,455.9 353.4,454 352.2,457.2 350,454.6 347.8,457.2 346.7,454 343.8,455.9 343.6,452.6 340.3,453.5 341,450.1 337.6,450.1 
				339.2,447 336,446.2 338.4,443.7 335.4,441.9 338.4,440.2 336,437.7 339.2,436.8 337.6,433.7 341,433.7 340.3,430.4 343.6,431.3 
				343.8,427.9 346.7,429.8 347.8,426.6 350,429.2 352.2,426.6 353.4,429.8 356.3,427.9 356.5,431.3 359.8,430.4 359.1,433.7 
				362.4,433.7 360.8,436.8 364,437.7 361.7,440.2 			"/>
			<polygon fill="none" stroke="#A0A0A0" stroke-width="4.2636" stroke-linecap="round" stroke-miterlimit="10" points="
				364.6,441.9 361.7,443.7 364,446.2 360.8,447 362.4,450.1 359.1,450.1 359.8,453.5 356.5,452.6 356.3,455.9 353.4,454 
				352.2,457.2 350,454.6 347.8,457.2 346.7,454 343.8,455.9 343.6,452.6 340.3,453.5 341,450.1 337.6,450.1 339.2,447 336,446.2 
				338.4,443.7 335.4,441.9 338.4,440.2 336,437.7 339.2,436.8 337.6,433.7 341,433.7 340.3,430.4 343.6,431.3 343.8,427.9 
				346.7,429.8 347.8,426.6 350,429.2 352.2,426.6 353.4,429.8 356.3,427.9 356.5,431.3 359.8,430.4 359.1,433.7 362.4,433.7 
				360.8,436.8 364,437.7 361.7,440.2 			"/>
		</g>
	</g>
</g>
<g>
	<g>
		<g>
			<polygon fill="#DF151A" points="183.7,432.3 180.7,434 183.1,436.5 179.9,437.4 181.5,440.5 178.1,440.5 178.8,443.8 
				175.5,442.9 175.3,446.3 172.4,444.4 171.2,447.6 169.1,445 166.9,447.6 165.7,444.4 162.8,446.3 162.6,442.9 159.3,443.8 
				160,440.5 156.7,440.5 158.3,437.4 155,436.5 157.4,434 154.5,432.3 157.4,430.5 155,428.1 158.3,427.2 156.7,424.1 160,424.1 
				159.3,420.8 162.6,421.6 162.8,418.3 165.7,420.2 166.9,417 169.1,419.6 171.2,417 172.4,420.2 175.3,418.3 175.5,421.6 
				178.8,420.8 178.1,424.1 181.5,424.1 179.9,427.2 183.1,428.1 180.7,430.5 			"/>
			<polygon fill="none" stroke="#DF151A" stroke-width="4.2636" stroke-linecap="round" stroke-miterlimit="10" points="
				183.7,432.3 180.7,434 183.1,436.5 179.9,437.4 181.5,440.5 178.1,440.5 178.8,443.8 175.5,442.9 175.3,446.3 172.4,444.4 
				171.2,447.6 169.1,445 166.9,447.6 165.7,444.4 162.8,446.3 162.6,442.9 159.3,443.8 160,440.5 156.7,440.5 158.3,437.4 
				155,436.5 157.4,434 154.5,432.3 157.4,430.5 155,428.1 158.3,427.2 156.7,424.1 160,424.1 159.3,420.8 162.6,421.6 162.8,418.3 
				165.7,420.2 166.9,417 169.1,419.6 171.2,417 172.4,420.2 175.3,418.3 175.5,421.6 178.8,420.8 178.1,424.1 181.5,424.1 
				179.9,427.2 183.1,428.1 180.7,430.5 			"/>
		</g>
		<defs>
			<filter id="Adobe_OpacityMaskFilter_7_" filterUnits="userSpaceOnUse" x="150.3" y="412.8" width="37.5" height="39.1">
				<feColorMatrix  type="matrix" values="1 0 0 0 0  0 1 0 0 0  0 0 1 0 0  0 0 0 1 0"/>
			</filter>
		</defs>
		<mask maskUnits="userSpaceOnUse" x="150.3" y="412.8" width="37.5" height="39.1" id="SVGID_11_">
			<g filter="url(#Adobe_OpacityMaskFilter_7_)">
			</g>
		</mask>
		<g opacity="0.32" mask="url(#SVGID_11_)">
			<polygon fill="#CACCCA" points="183.7,432.3 180.7,434 183.1,436.5 179.9,437.4 181.5,440.5 178.1,440.5 178.8,443.8 
				175.5,442.9 175.3,446.3 172.4,444.4 171.2,447.6 169.1,445 166.9,447.6 165.7,444.4 162.8,446.3 162.6,442.9 159.3,443.8 
				160,440.5 156.7,440.5 158.3,437.4 155,436.5 157.4,434 154.5,432.3 157.4,430.5 155,428.1 158.3,427.2 156.7,424.1 160,424.1 
				159.3,420.8 162.6,421.6 162.8,418.3 165.7,420.2 166.9,417 169.1,419.6 171.2,417 172.4,420.2 175.3,418.3 175.5,421.6 
				178.8,420.8 178.1,424.1 181.5,424.1 179.9,427.2 183.1,428.1 180.7,430.5 			"/>
			<polygon fill="none" stroke="#CACCCA" stroke-width="4.2636" stroke-linecap="round" stroke-miterlimit="10" points="
				183.7,432.3 180.7,434 183.1,436.5 179.9,437.4 181.5,440.5 178.1,440.5 178.8,443.8 175.5,442.9 175.3,446.3 172.4,444.4 
				171.2,447.6 169.1,445 166.9,447.6 165.7,444.4 162.8,446.3 162.6,442.9 159.3,443.8 160,440.5 156.7,440.5 158.3,437.4 
				155,436.5 157.4,434 154.5,432.3 157.4,430.5 155,428.1 158.3,427.2 156.7,424.1 160,424.1 159.3,420.8 162.6,421.6 162.8,418.3 
				165.7,420.2 166.9,417 169.1,419.6 171.2,417 172.4,420.2 175.3,418.3 175.5,421.6 178.8,420.8 178.1,424.1 181.5,424.1 
				179.9,427.2 183.1,428.1 180.7,430.5 			"/>
		</g>
	</g>
	<defs>
		<filter id="Adobe_OpacityMaskFilter_8_" filterUnits="userSpaceOnUse" x="150.3" y="412.8" width="37.5" height="39.1">
			<feColorMatrix  type="matrix" values="1 0 0 0 0  0 1 0 0 0  0 0 1 0 0  0 0 0 1 0"/>
		</filter>
	</defs>
	<mask maskUnits="userSpaceOnUse" x="150.3" y="412.8" width="37.5" height="39.1" id="SVGID_12_">
		<g filter="url(#Adobe_OpacityMaskFilter_8_)">
		</g>
	</mask>
	<g opacity="0.32" mask="url(#SVGID_12_)">
		<g>
			<polygon fill="#A0A0A0" points="183.7,432.3 180.7,434 183.1,436.5 179.9,437.4 181.5,440.5 178.1,440.5 178.8,443.8 
				175.5,442.9 175.3,446.3 172.4,444.4 171.2,447.6 169.1,445 166.9,447.6 165.7,444.4 162.8,446.3 162.6,442.9 159.3,443.8 
				160,440.5 156.7,440.5 158.3,437.4 155,436.5 157.4,434 154.5,432.3 157.4,430.5 155,428.1 158.3,427.2 156.7,424.1 160,424.1 
				159.3,420.8 162.6,421.6 162.8,418.3 165.7,420.2 166.9,417 169.1,419.6 171.2,417 172.4,420.2 175.3,418.3 175.5,421.6 
				178.8,420.8 178.1,424.1 181.5,424.1 179.9,427.2 183.1,428.1 180.7,430.5 			"/>
			<polygon fill="none" stroke="#A0A0A0" stroke-width="4.2636" stroke-linecap="round" stroke-miterlimit="10" points="
				183.7,432.3 180.7,434 183.1,436.5 179.9,437.4 181.5,440.5 178.1,440.5 178.8,443.8 175.5,442.9 175.3,446.3 172.4,444.4 
				171.2,447.6 169.1,445 166.9,447.6 165.7,444.4 162.8,446.3 162.6,442.9 159.3,443.8 160,440.5 156.7,440.5 158.3,437.4 
				155,436.5 157.4,434 154.5,432.3 157.4,430.5 155,428.1 158.3,427.2 156.7,424.1 160,424.1 159.3,420.8 162.6,421.6 162.8,418.3 
				165.7,420.2 166.9,417 169.1,419.6 171.2,417 172.4,420.2 175.3,418.3 175.5,421.6 178.8,420.8 178.1,424.1 181.5,424.1 
				179.9,427.2 183.1,428.1 180.7,430.5 			"/>
		</g>
		<g opacity="0.32">
			<polygon fill="#A0A0A0" points="183.7,432.3 180.7,434 183.1,436.5 179.9,437.4 181.5,440.5 178.1,440.5 178.8,443.8 
				175.5,442.9 175.3,446.3 172.4,444.4 171.2,447.6 169.1,445 166.9,447.6 165.7,444.4 162.8,446.3 162.6,442.9 159.3,443.8 
				160,440.5 156.7,440.5 158.3,437.4 155,436.5 157.4,434 154.5,432.3 157.4,430.5 155,428.1 158.3,427.2 156.7,424.1 160,424.1 
				159.3,420.8 162.6,421.6 162.8,418.3 165.7,420.2 166.9,417 169.1,419.6 171.2,417 172.4,420.2 175.3,418.3 175.5,421.6 
				178.8,420.8 178.1,424.1 181.5,424.1 179.9,427.2 183.1,428.1 180.7,430.5 			"/>
			<polygon fill="none" stroke="#A0A0A0" stroke-width="4.2636" stroke-linecap="round" stroke-miterlimit="10" points="
				183.7,432.3 180.7,434 183.1,436.5 179.9,437.4 181.5,440.5 178.1,440.5 178.8,443.8 175.5,442.9 175.3,446.3 172.4,444.4 
				171.2,447.6 169.1,445 166.9,447.6 165.7,444.4 162.8,446.3 162.6,442.9 159.3,443.8 160,440.5 156.7,440.5 158.3,437.4 
				155,436.5 157.4,434 154.5,432.3 157.4,430.5 155,428.1 158.3,427.2 156.7,424.1 160,424.1 159.3,420.8 162.6,421.6 162.8,418.3 
				165.7,420.2 166.9,417 169.1,419.6 171.2,417 172.4,420.2 175.3,418.3 175.5,421.6 178.8,420.8 178.1,424.1 181.5,424.1 
				179.9,427.2 183.1,428.1 180.7,430.5 			"/>
		</g>
	</g>
</g>
<g opacity="0.8">
	<g>
		<path fill="#CECAA1" d="M243.6,71.3c-2.8,2.8-4.7,6.4-5,10.4c0,0.7,1,0.7,1.2,0c0.4-3.6,2-7,4.7-9.6
			C245,71.6,244.2,70.8,243.6,71.3L243.6,71.3z"/>
	</g>
</g>
<g opacity="0.8">
	<g>
		<path fill="#CECAA1" d="M239.1,97.5c3.1,0.4,6,0.7,8.8,1.9c1.9,0.9,3.6,1.3,5.7,0.7c0.7-0.1,0.4-1.3-0.3-1c-2.8,0.7-5-0.9-7.4-1.6
			c-2-0.6-4.2-0.7-6.3-1C238.7,96.3,238.4,97.5,239.1,97.5L239.1,97.5z"/>
	</g>
</g>
<g opacity="0.8">
	<g>
		<path fill="#CECAA1" d="M258.1,79.5c0,1.5,0.3,2.9-0.6,4.1c-0.4,0.6,0.6,1.2,0.9,0.6c1-1.5,0.9-3.1,0.9-4.7
			C259.3,78.8,258.1,78.8,258.1,79.5L258.1,79.5z"/>
	</g>
</g>
<g opacity="0.8">
	<g>
		<path fill="#CECAA1" d="M266.4,68.7c0.1,2.6,1,5.1,1.5,7.7c0.1,0.7,1.2,0.4,1-0.3c-0.4-2.5-1.3-4.8-1.5-7.4
			C267.4,68.1,266.4,68,266.4,68.7L266.4,68.7z"/>
	</g>
</g>
<g opacity="0.8">
	<g>
		<path fill="#CECAA1" d="M272,90.3c-0.9,2.3-2.9,4.8-5.4,5.3c-0.7,0.1-0.4,1.2,0.3,1c2.9-0.6,5.3-3.2,6.3-6
			C273.3,89.9,272.2,89.6,272,90.3L272,90.3z"/>
	</g>
</g>
<g opacity="0.8">
	<g>
		<path fill="#CECAA1" d="M251.4,63.3c-1.5,0-2.9,0.3-4.2,0.7c-0.7,0.3-0.4,1.3,0.3,1c1.3-0.4,2.6-0.7,3.9-0.7
			C252.1,64.5,252.1,63.3,251.4,63.3L251.4,63.3z"/>
	</g>
</g>
<g opacity="0.56">
	<g>
		<path fill="#A8EFCD" d="M176.8,230.3c-0.3,2.2-0.1,4.4-1.3,6.3c-0.4,0.6,0.6,1.2,0.9,0.6c1.3-2,1.3-4.5,1.6-6.9
			C178,229.6,176.8,229.6,176.8,230.3L176.8,230.3z"/>
	</g>
</g>
<g opacity="0.56">
	<g>
		<path fill="#A8EFCD" d="M162.2,213.9c-0.9,1.8-0.9,3.8-1.8,5.5c-0.3,0.6,0.6,1.2,0.9,0.6c0.9-1.8,1-3.6,1.8-5.5
			C163.5,213.9,162.5,213.4,162.2,213.9L162.2,213.9z"/>
	</g>
</g>
<g opacity="0.56">
	<g>
		<path fill="#A8EFCD" d="M163.2,242c-0.1,1.6-0.6,3.1-1,4.7c-0.3,0.7,0.9,1,1,0.3c0.6-1.6,0.9-3.2,1.2-4.8
			C164.4,241.2,163.4,241.2,163.2,242L163.2,242z"/>
	</g>
</g>
<g opacity="0.56">
	<g>
		<path fill="#A8EFCD" d="M162.2,257c-0.1,1.5-0.3,2.9-0.7,4.2c-0.1,0.7,0.9,1,1,0.3c0.4-1.5,0.6-3.1,0.7-4.5
			C163.4,256.3,162.2,256.3,162.2,257L162.2,257z"/>
	</g>
</g>
<g opacity="0.56">
	<g>
		<path fill="#A8EFCD" d="M249.8,206.8c-0.3,0.7-0.4,1.5-0.7,2.2c-0.3,0.7,0.9,1,1,0.3c0.3-0.7,0.4-1.5,0.7-2.2
			C251.1,206.4,249.9,206.1,249.8,206.8L249.8,206.8z"/>
	</g>
</g>
<g opacity="0.56">
	<g>
		<path fill="#A8EFCD" d="M219.8,209.7c0.7,1.3,1.3,2.8,2.2,4.1c0.4,0.6,1.3,0,0.9-0.6c-0.9-1.3-1.5-2.6-2.2-4.1
			C220.6,208.5,219.6,209.1,219.8,209.7L219.8,209.7z"/>
	</g>
</g>
<g opacity="0.56">
	<g>
		<path fill="#A8EFCD" d="M203.5,216.7c-0.6,0.6-1,1.3-1.2,2c-0.1,0.7,0.9,1,1,0.3c0.1-0.6,0.4-1.2,1-1.6
			C204.8,217,204.1,216.3,203.5,216.7L203.5,216.7z"/>
	</g>
</g>
<g opacity="0.56">
	<g>
		<path fill="#A8EFCD" d="M184.8,203.9c-0.3,0.9-0.6,1.8-0.7,2.6c-0.1,0.7,0.9,1,1,0.3c0.1-0.9,0.4-1.8,0.7-2.6
			C186.1,203.4,185.1,203.3,184.8,203.9L184.8,203.9z"/>
	</g>
</g>
<g opacity="0.56">
	<g>
		<path fill="#A8EFCD" d="M343.5,222.4c0.6,1.5,1,2.9,1.9,4.1c0.4,0.6,1.3,0,0.9-0.6c-0.9-1.2-1.2-2.6-1.8-3.9
			C344.3,221.5,343.3,221.8,343.5,222.4L343.5,222.4z"/>
	</g>
</g>
<g opacity="0.56">
	<g>
		<path fill="#A8EFCD" d="M318.5,235.4c1,1.2,1.8,2.5,2.9,3.6c0.4,0.4,1.3-0.3,0.7-0.7c-1.2-1.2-1.9-2.5-2.9-3.6
			C318.8,234.1,318.1,234.8,318.5,235.4L318.5,235.4z"/>
	</g>
</g>
<g opacity="0.56">
	<g>
		<path fill="#A8EFCD" d="M329.3,247.7c0.6,1.3,1.2,2.6,1.8,4.1c0.3,0.6,1.3,0.1,0.9-0.6c-0.6-1.3-1.2-2.6-1.8-4.1
			C330,246.5,329,247.1,329.3,247.7L329.3,247.7z"/>
	</g>
</g>
<g opacity="0.56">
	<g>
		<path fill="#A8EFCD" d="M345.7,263.1c-0.1,2.2,0.1,4.2,0.7,6.3c0.1,0.7,1.2,0.4,1-0.3c-0.6-2-0.9-3.9-0.7-6.1
			C346.8,262.4,345.8,262.4,345.7,263.1L345.7,263.1z"/>
	</g>
</g>
<g opacity="0.56">
	<g>
		<path fill="#A8EFCD" d="M318.1,211.2c1.3,1.9,2.9,3.5,4.5,5.3c0.4,0.6,1.3-0.3,0.7-0.7c-1.5-1.6-3.1-3.2-4.2-5
			C318.7,210.1,317.6,210.6,318.1,211.2L318.1,211.2z"/>
	</g>
</g>
<g opacity="0.56">
	<g>
		<path fill="#A8EFCD" d="M349.7,198.2c0.3,2.5,1.3,4.7,1.9,7c0.1,0.7,1.2,0.4,1-0.3c-0.6-2.3-1.6-4.4-1.8-6.9
			C350.8,197.5,349.6,197.5,349.7,198.2L349.7,198.2z"/>
	</g>
</g>
<g opacity="0.56">
	<g>
		<path fill="#A8EFCD" d="M292.1,207.8c0.3,1.3,0.6,2.6,0.7,4.1c0.1,0.7,1.2,0.4,1-0.3c-0.1-1.3-0.4-2.6-0.7-4.1
			C293,206.8,291.9,207.1,292.1,207.8L292.1,207.8z"/>
	</g>
</g>
<g opacity="0.56">
	<g>
		<path fill="#A8EFCD" d="M220.1,160.7c0.1,1.3-0.4,2.2-1.6,2.8c-0.6,0.3-0.1,1.3,0.6,0.9c1.5-0.7,2.2-2.2,2-3.8
			C221.2,159.9,220.1,159.9,220.1,160.7L220.1,160.7z"/>
	</g>
</g>
<g opacity="0.56">
	<g>
		<path fill="#A8EFCD" d="M189.6,159.9c-0.4,0.7-0.6,1.5-0.4,2.2c0.1,0.7,1.2,0.4,1-0.3c-0.1-0.6,0-1,0.3-1.5
			C190.9,159.9,190.1,159.4,189.6,159.9L189.6,159.9z"/>
	</g>
</g>
<g opacity="0.56">
	<g>
		<path fill="#A8EFCD" d="M239.7,181.8c1-1.2,1.8-2.5,2.6-3.8c0.4-0.6-0.6-1.2-0.9-0.6c-0.7,1.2-1.5,2.5-2.5,3.5
			C238.5,181.5,239.3,182.3,239.7,181.8L239.7,181.8z"/>
	</g>
</g>
<g>
	<g>
		<path fill="#C91724" d="M251.1,166.7c0.7,0,0.7-1.2,0-1.2C250.4,165.5,250.4,166.7,251.1,166.7L251.1,166.7z"/>
	</g>
</g>
<g opacity="0.56">
	<g>
		<path fill="#A8EFCD" d="M222.9,117.3c-1.6,0-2.9,1-4.2,1.9c-0.6,0.4,0,1.3,0.6,0.9c1.2-0.9,2.3-1.8,3.8-1.8
			C223.6,118.5,223.6,117.3,222.9,117.3L222.9,117.3z"/>
	</g>
</g>
<g opacity="0.56">
	<g>
		<path fill="#A8EFCD" d="M210.2,126.5c-2.5,0.3-4.8,1.2-6.9,2.6c-0.6,0.4,0,1.3,0.6,0.9c1.9-1.3,3.9-2.3,6.3-2.5
			C210.8,127.5,210.8,126.4,210.2,126.5L210.2,126.5z"/>
	</g>
</g>
<g opacity="0.56">
	<g>
		<path fill="#A8EFCD" d="M185.3,133.4c-1.6,0.6-2.9,1.6-4.2,2.6c-0.6,0.4,0.3,1.2,0.7,0.7c1.2-1,2.3-1.9,3.8-2.5
			C186.1,134.3,185.8,133.2,185.3,133.4L185.3,133.4z"/>
	</g>
</g>
<g opacity="0.56">
	<g>
		<path fill="#A8EFCD" d="M268.6,116.6c2,1,4.2,1,6.3,1.9c0.7,0.3,0.9-0.7,0.3-1c-2-0.7-4.1-0.9-6.1-1.8
			C268.6,115.3,268,116.3,268.6,116.6L268.6,116.6z"/>
	</g>
</g>
<g opacity="0.56">
	<g>
		<path fill="#A8EFCD" d="M293.6,131.6c0.4,0.9,0.9,1.8,1.5,2.6c0.4,0.6,1.3,0,0.9-0.6c-0.6-0.9-1-1.6-1.5-2.6
			C294.3,130.5,293.3,131,293.6,131.6L293.6,131.6z"/>
	</g>
</g>
<g opacity="0.56">
	<g>
		<path fill="#A8EFCD" d="M304.5,123.2c1.5,0.6,2.8,1.3,3.8,2.5c0.4,0.6,1.3-0.3,0.7-0.7c-1.2-1.3-2.6-2-4.2-2.6
			C304.1,121.8,303.9,122.9,304.5,123.2L304.5,123.2z"/>
	</g>
</g>
<g opacity="0.56">
	<g>
		<path fill="#A8EFCD" d="M242.2,122.4c-0.4,1-1,1.9-1.8,2.8c-0.4,0.6,0.3,1.3,0.7,0.7c0.7-0.9,1.5-1.9,1.9-3.1
			C243.3,122.3,242.5,121.7,242.2,122.4L242.2,122.4z"/>
	</g>
</g>
<g opacity="0.56">
	<g>
		<path fill="#A8EFCD" d="M266.1,126.7c0,1.5,0,2.9,0,4.4c0,0.7,1.2,0.7,1.2,0c0-1.5,0-2.9,0-4.4
			C267.3,125.9,266.1,125.9,266.1,126.7L266.1,126.7z"/>
	</g>
</g>
<g opacity="0.56">
	<g>
		<path fill="#A8EFCD" d="M198,171.6c0.4,1,0.9,1.9,1.5,2.6c0.4,0.6,1.3,0,0.9-0.6c-0.6-0.7-1-1.6-1.5-2.5
			C198.7,170.7,197.7,171,198,171.6L198,171.6z"/>
	</g>
</g>
<g opacity="0.56">
	<g>
		<path fill="#A8EFCD" d="M343.2,168.6c-0.3,1.3-0.7,2.6-1.8,3.8c-0.4,0.6,0.3,1.3,0.7,0.7c1-1.3,1.6-2.6,1.9-4.2
			C344.3,168.1,343.3,167.8,343.2,168.6L343.2,168.6z"/>
	</g>
</g>
<g opacity="0.56">
	<g>
		<path fill="#A8EFCD" d="M330,230.7c0.4,1.2,1,2.2,1.9,3.2c0.4,0.6,1.3-0.3,0.7-0.7c-0.7-0.7-1.3-1.6-1.8-2.6
			C330.8,229.9,329.8,230.1,330,230.7L330,230.7z"/>
	</g>
</g>
<g opacity="0.56">
	<g>
		<path fill="#A8EFCD" d="M255.5,164.3c0.4,1.8,0.9,3.4,1.9,4.8c0.3,0.3,0.9,0,0.6-0.3c-1-1.5-1.5-3.1-1.8-4.7
			C256,163.7,255.3,163.9,255.5,164.3L255.5,164.3z"/>
	</g>
</g>
<g opacity="0.56">
	<g>
		<path fill="#A8EFCD" d="M276.2,169.3c-0.4,1.3-1.2,2.6-1.8,3.9c-0.1,0.4,0.4,0.7,0.6,0.3c0.7-1.3,1.3-2.6,1.9-4.1
			C277.1,169,276.3,168.8,276.2,169.3L276.2,169.3z"/>
	</g>
</g>
<g opacity="0.56">
	<g>
		<path fill="#A8EFCD" d="M295.2,176.7c0.6,1.6,1.6,2.9,3.1,3.8c0.3,0.3,0.7-0.3,0.3-0.6c-1.3-0.9-2.3-2-2.8-3.5
			C295.7,176.1,295,176.3,295.2,176.7L295.2,176.7z"/>
	</g>
</g>
<g opacity="0.56">
	<g>
		<path fill="#A8EFCD" d="M314.6,163c-0.3,1.2-0.9,2.2-1.8,3.1c-0.3,0.3,0.1,0.7,0.4,0.4c1-1,1.6-2,1.9-3.5
			C315.3,162.9,314.6,162.7,314.6,163L314.6,163z"/>
	</g>
</g>
<g opacity="0.56">
	<g>
		<path fill="#A8EFCD" d="M309.5,174c-0.3,0.9-0.7,1.6-1,2.5c-0.1,0.4,0.4,0.7,0.6,0.3c0.4-0.9,0.7-1.8,1.2-2.6
			C310.2,173.8,309.6,173.7,309.5,174L309.5,174z"/>
	</g>
</g>
<g opacity="0.56">
	<g>
		<path fill="#A8EFCD" d="M327.4,142.3c1.5,1.8,2.3,3.9,4.1,5.5c0.3,0.3,0.7-0.1,0.4-0.4c-1.6-1.6-2.6-3.8-4.1-5.5
			C327.6,141.4,327.1,141.8,327.4,142.3L327.4,142.3z"/>
	</g>
</g>
<g opacity="0.56">
	<g>
		<path fill="#A8EFCD" d="M238.7,138.6c-0.3,1.5-0.9,2.9-1.2,4.4c-0.1,0.4,0.6,0.6,0.6,0.1c0.3-1.5,0.7-2.9,1.2-4.4
			C239.4,138.3,238.7,138.2,238.7,138.6L238.7,138.6z"/>
	</g>
</g>
<g opacity="0.56">
	<g>
		<path fill="#A8EFCD" d="M253,108.9c-1,1-2,2.2-2.9,3.2c-0.3,0.3,0.1,0.7,0.4,0.4c0.9-1.2,1.9-2.3,2.9-3.2
			C253.7,109.1,253.3,108.6,253,108.9L253,108.9z"/>
	</g>
</g>
<g opacity="0.56">
	<g>
		<path fill="#A8EFCD" d="M283,119.4c1,0.3,1.9,0.6,2.9,0.7c0.4,0.1,0.6-0.6,0.1-0.6c-1-0.1-1.9-0.4-2.9-0.7
			C282.8,118.5,282.6,119.2,283,119.4L283,119.4z"/>
	</g>
</g>
<g opacity="0.56">
	<g>
		<path fill="#A8EFCD" d="M155.5,285.8c0,2-0.4,4.2,0.4,6.3c0.1,0.4,0.7,0.3,0.6-0.1c-0.7-1.9-0.4-4.1-0.3-6.1
			C156.1,285.3,155.5,285.3,155.5,285.8L155.5,285.8z"/>
	</g>
</g>
<g opacity="0.56">
	<g>
		<path fill="#A8EFCD" d="M353.5,238c0,2.8,0,5.5,0,8.5c0,0.4,0.7,0.4,0.7,0c0-2.8,0-5.5,0-8.5C354.3,237.6,353.5,237.6,353.5,238
			L353.5,238z"/>
	</g>
</g>
<g opacity="0.56">
	<g>
		<path fill="#A8EFCD" d="M161.6,171.5c0,1,0,1.9,0,2.9c0,0.4,0.7,0.4,0.7,0c0-1,0-1.9,0-2.9C162.3,171.2,161.6,171.2,161.6,171.5
			L161.6,171.5z"/>
	</g>
</g>
<g opacity="0.56">
	<g>
		<path fill="#A8EFCD" d="M223.8,131.6c1.5-0.9,3.4-1.8,4.2-3.2c0.3-0.3-0.3-0.7-0.6-0.3c-0.9,1.5-2.6,2.2-4.1,3.1
			C223.1,131.2,223.5,131.8,223.8,131.6L223.8,131.6z"/>
	</g>
</g>
</svg>
