<?xml version="1.0" encoding="utf-8"?>
<!-- Generator: Adobe Illustrator 19.2.1, SVG Export Plug-In . SVG Version: 6.00 Build 0)  -->
<svg version="1.1" id="Layer_1" xmlns="http://www.w3.org/2000/svg" xmlns:xlink="http://www.w3.org/1999/xlink" x="0px" y="0px"
	 viewBox="0 0 230 57.5" enable-background="new 0 0 230 57.5" xml:space="preserve">
<title>turtle-cap-logo</title>
<path fill="#1C1818" d="M62.5,41.6L59,40.9c4.5-23.8,25.3-41,49.5-40.9c1.8,0,44,0.5,49.7,40.7l-3.5,0.5
	c-5.3-37.2-44.6-37.7-46.2-37.7C86,3.4,66.6,19.4,62.5,41.6z"/>
<path fill="#1C1818" d="M165.8,42.8h-112v-3.5h112c4.6,0,8.3-3.7,8.3-8.3v-0.2c0-4.6-3.7-8.3-8.3-8.2h-18.2v-3.5h18.2
	c6.5,0,11.8,5.2,11.8,11.8V31C177.6,37.5,172.3,42.8,165.8,42.8z"/>
<path fill="#1C1818" d="M65.8,57.5h-0.1c-4.1,0-7.4-3.2-7.4-7.2l-0.1-5.3h3.5l0.1,5.3c0.1,2.1,1.8,3.8,3.9,3.8h0.1
	c2.1,0,3.8-1.7,3.8-3.8v-7.6h3.5v7.6C73.1,54.3,69.8,57.5,65.8,57.5z"/>
<path fill="#E50C0C" d="M166.8,19.1c-0.4-3.3-3.4-5.7-6.7-5.3c-2.8,0.3-4.9,2.5-5.3,5.3"/>
<path fill="#E50C0C" d="M168.7,19.1h-3.9c0-2.2-1.8-4-4-4s-4,1.8-4,4h-3.9c0.2-4.4,3.9-7.7,8.3-7.5
	C165.3,11.9,168.5,15.1,168.7,19.1z"/>
<rect x="162.3" y="33.2" fill="#1C1818" width="14" height="3"/>
<ellipse fill="#1C1818" cx="168.7" cy="27.8" rx="1.9" ry="1.9"/>
<path fill="#1C1818" d="M151.3,57.2h-0.1c-4,0-7.3-3.2-7.3-7.2V39.7h3.5v10.2c0,2.1,1.7,3.8,3.8,3.8h0.1c2.1,0,3.9-1.7,4-3.8v-5h3.5
	v5C158.7,53.9,155.4,57.2,151.3,57.2z"/>
<path fill="#1C1818" d="M81.3,51.4c-3.4,0-6.2-2.7-6.2-6.1c0,0,0,0,0,0v-5.6h3.5v5.6c0.1,1.5,1.4,2.6,2.8,2.5
	c1.3-0.1,2.4-1.2,2.5-2.5v-5.4h3.5v5.4C87.4,48.6,84.7,51.4,81.3,51.4z"/>
<path fill="#E50C0C" d="M168.6,19.1h3.6c0.9,0,1.5-0.7,1.5-1.5c0,0,0,0,0,0l0,0c0-0.9-0.7-1.5-1.5-1.5c0,0,0,0,0,0h-5.5"/>
<path fill="#E50C0C" d="M75.9,29.5h-1.8L73.3,35h-2.1l0.8-5.5h-1.8l0.3-1.8h5.7L75.9,29.5z"/>
<path fill="#E50C0C" d="M83.9,32.2c0,1-0.6,1.9-1.4,2.5c-0.6,0.4-1.4,0.6-2.1,0.5c-1.3,0-2.3-0.5-2.6-1.3c-0.1-0.3-0.1-0.5-0.1-0.8
	c0-0.3,0-0.6,0.1-0.9l0.6-4.5h2.1l-0.6,4.5c0,0.2,0,0.3-0.1,0.5c-0.1,0.4,0.2,0.7,0.6,0.8c0.1,0,0.2,0,0.3,0c0.7,0,1-0.3,1.2-1.3
	l0.7-4.5h2.1L83.9,32.2z"/>
<path fill="#E50C0C" d="M88.5,35h-2.1l1.1-7.3h3.9c0.8-0.1,1.5,0.2,1.9,0.9c0.1,0.3,0.2,0.7,0.2,1c0,0.2,0,0.3,0,0.5
	c-0.1,1-0.8,1.8-1.7,2.1l1.2,2.9h-2.3l-0.9-2.5h-0.7L88.5,35z M90.1,30.9c0.8,0,1.2-0.2,1.3-0.9c0-0.1,0-0.2,0-0.2
	c0-0.5-0.3-0.7-1-0.7h-1l-0.3,1.8H90.1z"/>
<path fill="#E50C0C" d="M101.1,29.5h-1.8L98.5,35h-2.1l0.8-5.5h-1.8l0.3-1.8h5.6L101.1,29.5z"/>
<path fill="#E50C0C" d="M107.3,35h-4.8l1.1-7.3h2.1l-0.8,5.5h2.7L107.3,35z"/>
<path fill="#E50C0C" d="M116,29.2h-3.2l-0.1,1h3.1l-0.2,1.6h-3.1l-0.2,1.4h3.6l-0.2,1.6h-5.7l1.1-7.3h5.3L116,29.2z"/>
<path fill="#E50C0C" d="M128.7,30.3c-0.4-0.9-0.6-1.2-1.3-1.2l0,0c-0.9,0-1.6,0.8-1.8,2.2c0,0.2,0,0.4,0,0.6c-0.1,0.7,0.3,1.4,1,1.5
	c0.1,0,0.2,0,0.2,0c0.7,0,1.3-0.5,1.6-1.2l1.6,1c-0.3,0.4-0.6,0.8-1,1.2c-0.7,0.6-1.6,0.9-2.5,0.9c-1.6,0.2-3-1-3.2-2.6
	c0-0.2,0-0.3,0-0.5c0-0.3,0-0.5,0.1-0.8c0.2-2.2,2-3.9,4.2-4c0.8-0.1,1.6,0.3,2.2,0.9c0.3,0.3,0.6,0.7,0.7,1.2L128.7,30.3z"/>
<path fill="#E50C0C" d="M134.3,33.9l-0.4,1h-2.3l3.7-7.3h2.4l1.5,7.3h-2.3l-0.1-1C136.8,33.9,134.3,33.9,134.3,33.9z M136.2,29.4
	l-1.2,3h1.6L136.2,29.4z"/>
<path fill="#E50C0C" d="M143.4,35h-2.1l1.1-7.3h3.9c1-0.2,1.9,0.5,2.1,1.5c0,0.1,0,0.3,0,0.4c0,0.2,0,0.3,0,0.5
	c-0.1,1.5-1.3,2.6-2.8,2.5h-1.8L143.4,35z M145,31.1c0.6,0.1,1.1-0.2,1.3-0.8c0-0.1,0-0.1,0-0.2c0-0.1,0-0.2,0-0.2
	c0-0.5-0.3-0.7-1-0.7h-1L144,31L145,31.1L145,31.1z"/>
<path fill="#1C1818" d="M136.2,52.7c-3.4,0-6.2-2.7-6.2-6.1c0,0,0,0,0,0V41h3.5v5.6c0.1,1.5,1.4,2.6,2.8,2.5
	c1.3-0.1,2.4-1.2,2.5-2.5v-5.4h3.5v5.4C142.3,50,139.6,52.8,136.2,52.7C136.2,52.7,136.2,52.7,136.2,52.7z"/>
<path fill="#FFFFFF" d="M98.5,12.8L98.5,12.8v0.4v0l0,0l0,0h-0.7h-0.1h-0.3h-0.1h-0.3h-0.4h-0.3h-0.1h-0.4h-0.2l0,0l0,0v-0.4v-0.3
	V12v-0.3v-0.8v-0.3v-0.1v-0.3V9.8V9.5V9.4l0,0l0,0h0.1H96h0.4h0.3h0.1h0.3H98h0.2h0.1h0.1l0,0v0.9l0,0l0,0H97h-0.2h-0.2l0,0v0.5l0,0
	h0.1h0.8H98h0.2l0,0l0,0v0.8l0,0l0,0h-0.2h-0.2h-0.1h-0.4h-0.4h-0.2h-0.2l0,0l0,0v0.1v0.1V12l0,0l0,0H97h0.3h0.4h0.1h0.4h0.2h0.2
	l0,0l0,0v0.4L98.5,12.8z"/>
<path fill="#FFFFFF" d="M102.5,12v0.2v0.1v0.1v0.1v0.1v0.1l-0.1,0.1l-0.1,0.1l-0.1,0.1l-0.1,0.1l-0.1,0.1h-0.1H102h-0.1h-0.1l-0.2,0
	h-0.1h-0.1h-0.4h-0.2h-0.4h-0.1h-0.1h-0.1h-0.1H100h-0.1h-0.1L99.7,13l-0.1,0l-0.3-0.1v-0.1l-0.1-0.1l0,0l0,0l0,0l0,0l0.1-0.1
	l0.2-0.1v-0.1l0.1-0.1v-0.1l0.1-0.1h0.1h0.1h0.1l0.2-0.1h0.1h0.1l0.1,0.1h0.1h0.1h0.1h0.2h0.3h0.1h0.1h0.1l0.1,0l0,0v-0.1V12v-0.1
	l0,0l-0.1,0l0,0h-0.1h-0.1H101h-0.5h-0.2h-0.1h-0.1h-0.1H100l-0.2-0.1h-0.1h-0.1h-0.1l-0.1-0.1v-0.1v-0.1v-0.1v-0.1v-0.1v-0.1v-0.9
	v-0.1v-0.1V10l0.1-0.1V9.8V9.8l0.1-0.1l0.1-0.1l0.1-0.1h0.1h0.1l0.1-0.1l0.2-0.1h0.1h0.1h0.1h0.2h0.1h0.2h0.2h0.2h0.2h0.1h0.1h0.1
	h0.1h0.1h0.1l0.1,0.1h0.1h0.1l0,0v0.2v0.1l-0.1,0.1V10l-0.2,0.3l-0.1,0.1l-0.1,0l0,0l0,0h-0.1h-0.1h-0.1l0,0h-0.1l0,0h-0.1h-0.1H101
	h-0.1h-0.1l0,0h-0.1l0,0v0.1v0.1v0.1v0.1l0.1,0h0.1l0,0h0.1h0.1h0.2h0.1h0.2l-0.2,0.1h0.1h0.1l0.2,0h0.1h0.1h0.1h0.1l0.2,0.1
	l0.1,0.1l0.1,0.3l0.1,0.1v0.1v0.1v0.1v0.1L102.5,12L102.5,12z"/>
<path fill="#FFFFFF" d="M106.1,9.8v0.4l0,0l0,0h-0.2h-0.2h-0.1h-0.2h-0.3H105l0,0v0.1v0.3v0.1V11v0.1v0.3v1.4v0.2v0.1v0.1l0,0h-0.2
	h-0.1h-0.1h-0.2h-0.1h-0.2H104l0,0v-0.1v-0.2v-1.3v-0.3v-0.9l0,0h-1l0,0l0,0V9.8V9.6V9.5V9.4l0,0l0,0h0.2h0.2h-0.1h0.3h0.1h0.3h0.1
	h0.4h1.5l0,0l0,0L106.1,9.8L106.1,9.8z"/>
<path fill="#FFFFFF" d="M111.3,13v0.1l0,0l0,0l0,0l0,0h-1.2h-0.5h-0.2h-0.1l0,0v-0.4v-0.2v-0.1v-0.1h0.1h0.2h0.3l0,0l0,0v-0.5v-0.3
	v-0.9l0,0l0,0l0,0l-0.2,0.1h-0.1h-0.2l0,0l0,0V9.9l0,0l0,0h0.1l0,0h0.1h0.1h0.1l0.3-0.1h0.1l0.3-0.1h0.1l0.1-0.1h0.1h0.1h0.1h0.1
	l0,0v0.1V11v0.3v-0.2v0.3v0.1v0.3V12v0.3v0l0,0l0,0h0.5l0,0v0.5V13z"/>
<path fill="#FFFFFF" d="M115.4,11.1v0.4v0.6v0.1v0.1v0.1v0.1v0.1l-0.1,0.1l-0.1,0.1l-0.1,0.1l-0.1,0.1l-0.1,0.1H115h-0.1h-0.1
	l-0.1,0h-0.1h-0.1h-0.1h-0.2h-0.1h-0.2h-0.1h-0.3h-0.2h-0.1h-0.1h-0.1h-0.1H113h-0.1h-0.1h-0.1h-0.1l-0.1-0.1l-0.3-0.1l0,0v-0.1
	l-0.1-0.1v-0.1v-0.1v-0.2v-0.2l0,0l0,0h0.2h0.2h0.4h0.1l0,0v0.1l0,0v0.1l0,0h0.1h0.1h0.1h0.4h0.1h0.1h0.1l0.1-0.1l0.1-0.1V12V12
	v-0.1v-0.1v-0.1l0,0l0,0l0,0h-0.1H114h-0.1h-0.1h-0.7H113h-0.1h-0.1l-0.1-0.1h-0.1l-0.1-0.1l-0.1,0l-0.1-0.1v-0.1l-0.1-0.1v-0.1
	l-0.1-0.2v-0.1v-0.1v-0.2v-0.2v-0.1v-0.1v-0.1v-0.1V10l0.1-0.1V9.9l0.1-0.1l0.1-0.1l0.1-0.1l0.1,0h0.1h0.1l0.1-0.1h0.1h0.1h0.2h0.2
	h0.6h0.1h0.1l0.2,0.1h0.1h0.1h0.1l0.1,0.1h0.1l0.1,0.1l0.1,0l0.1,0.1l0.1,0.1V10v0.1l0.3,0.1v0.1v0.1v0.1L115.4,11.1L115.4,11.1z
	 M114.3,10.7v-0.1v-0.1v-0.1v0l0,0h-0.1h-0.1l0,0h-0.1H114h-0.3h-0.1l0,0h-0.1l-0.1,0.1v0.1l0,0v0.1v0.1v0.1v0.1v0.1l-0.2,0.1h0.1
	l0.1,0.1h0.1h0.1h0.1h0.2h0.1h0.1h0.1l0.1-0.1v-0.1l0,0v-0.1l0,0L114.3,10.7z"/>
<path fill="#FFFFFF" d="M119.5,12.3v0.1v0.1l0,0h-0.1h-0.2l0,0h-0.1v0.1v0.1v0.2v0.3v0.1v0h-0.1H119h-0.3h-0.4l0,0v-0.1v-0.5v-0.1
	l0,0h-0.1h-0.3h-0.1h-0.8H117h-0.2h-0.5h-0.1l0,0v-0.1l-0.1-0.3v-0.1v-0.3v-0.1l0,0l0,0l0.2-0.2l0.1-0.1l0.2-0.2l0.1-0.1l0.2-0.2
	l0.1-0.1l0.2-0.2l0.1-0.1l0.2-0.3l0.1-0.1l0.2-0.2l0.1-0.1l0.1-0.1l0.1-0.1V9.7l0.1-0.1l0.2-0.2l0,0l0,0h0.4h0.3h0.2l0,0l0,0v0.1
	v0.3v1.3v0.3v0.1v0.1h0.1h0.3h0.1l0,0v0.1v0.5L119.5,12.3z M117.6,11.7h0.4l0,0v-0.1v-0.1v-0.3v-0.4l0,0l0,0l0,0l-0.2,0.2l-0.1,0.1
	l-0.2,0.2l-0.1,0.1l-0.2,0.2l0,0l0,0l0,0h0.1h0.2L117.6,11.7z"/>
<path fill="#FFFFFF" d="M123.7,12v0.3v0.1v0.1v0.1v0.1l-0.1,0.1v0.1l-0.1,0.1h-0.1l-0.1,0.1h-0.1h-0.1h-0.1H123h-0.1h-0.1h-0.1h-0.2
	h-0.7h-0.3h-0.1h-0.1h-0.1h-0.1l-0.1,0h-0.1l-0.1-0.1l-0.1,0l-0.1-0.1l-0.1-0.1l-0.1-0.1v-0.1l-0.3-0.1v-0.1v-0.1V12v-0.1v-0.1
	l0.1-0.1v-0.1v-0.1v-0.1l0.1-0.1h0.1l0.1-0.1l0,0l0,0v0l-0.1-0.1l-0.1-0.1v-0.1V11v-0.1v-0.1v-0.1v-0.4v-0.1v-0.1V10V9.9l0.1-0.1
	l0.1-0.1l0.1-0.1l0.1-0.1l0.1-0.1h0.1l0,0h0.1l0,0h0.1h0.1h0.1h0.1h0.1h0.7h0.2h0.1l0.2,0.1h0.1h0.1h0.1l0.1,0.1h0.1l0.3,0v0.1
	l0.1,0.1V10v0.1v0.1v0.1v0.4v0.1v0.1v0.1l-0.1,0.1l-0.1,0.1l0,0.1v0l0,0l0,0l0,0v0.2l0.1,0.1l0.1,0.1v0.1v0.1v0.1L123.7,12z
	 M122.3,12.4L122.3,12.4L122.3,12.4l0.2-0.1l0,0v-0.1V12v-0.1l0,0l-0.1-0.1l0,0h-0.1h-0.1h-0.1H122h-0.3h-0.1h-0.1l0,0l-0.1,0.1l0,0
	V12V12v0.1v0.1l0,0l0.1,0.1l0.1,0h0.1h0.1h0.1h0.3L122.3,12.4L122.3,12.4z M121.5,10.3L121.5,10.3L121.5,10.3v0.1v0.1v0.1l0,0
	l0.1,0.1l0,0h0.1l0,0h0.1h0.1h0.2h0.1h0.1l0,0v0l0,0v-0.1v-0.1v0v-0.1v-0.1l0.1-0.1h-0.1h-0.1h-0.1h-0.3h-0.1h-0.1L121.5,10.3
	L121.5,10.3z"/>
<path fill="#1C1818" d="M217.3,42.8h-204c-1,0-1.8-0.8-1.8-1.8c0-1,0.8-1.8,1.8-1.8l0,0h204c1,0,1.8,0.8,1.8,1.8
	C219.1,42,218.3,42.8,217.3,42.8z"/>
<path fill="#1C1818" d="M6,43H2c-1.1,0-2-0.9-2-2s0.9-2,2-2h4c1.1,0,2,0.9,2,2S7.1,43,6,43z"/>
<path fill="#1C1818" d="M228,43h-4c-1.1,0-2-0.9-2-2s0.9-2,2-2h4c1.1,0,2,0.9,2,2S229.1,43,228,43z"/>
<path fill="#1C1818" d="M150.7,22.6C139.9,4.2,115.8,0.8,108.3,0.8c-18.1,0-32.6,8.7-40.7,21.8"/>
<path fill="#FFFFFF" d="M94.2,11.6h-2.1l-0.1,0.7H94l-0.2,1h-1.9l-0.1,0.9H94l-0.2,1h-3.6l0.7-4.7h3.4L94.2,11.6z"/>
<path fill="#FFFFFF" d="M99.2,12c-0.2-0.3-0.6-0.5-1-0.5c-0.3-0.1-0.5,0.1-0.6,0.3v0.1c0,0.1,0.1,0.2,0.6,0.3c0.3,0,0.6,0.1,0.9,0.3
	c0.2,0.1,0.3,0.2,0.5,0.3c0.2,0.2,0.3,0.4,0.3,0.7c0,0.1,0,0.2,0,0.2c-0.2,1.1-1.2,1.8-2.3,1.7c-0.4,0-0.8-0.1-1.1-0.2
	c-0.2-0.1-0.4-0.2-0.5-0.3c-0.2-0.1-0.3-0.3-0.4-0.5l1.2-0.6c0.2,0.4,0.7,0.6,1.1,0.5c0.3,0.1,0.6-0.1,0.8-0.4v-0.1
	c0-0.2-0.1-0.2-0.6-0.3l-0.4-0.1c-0.4,0-0.8-0.2-1.1-0.5c-0.2-0.2-0.3-0.5-0.3-0.7c0-0.1,0-0.2,0-0.2c0.2-1,1.2-1.7,2.2-1.5
	c0.5,0,1,0.1,1.4,0.4c0.2,0.1,0.3,0.3,0.4,0.5L99.2,12z"/>
<path fill="#FFFFFF" d="M104.9,11.8h-1.1l-0.5,3.5h-1.3l0.5-3.5h-1.1l0.2-1.2h3.6L104.9,11.8z"/>
<path fill="#FFFFFF" d="M110.2,15.3l0.4-2.9c-0.2,0.1-0.5,0.1-0.8,0.1h-0.2l0.2-1c0.5,0.1,1-0.2,1.2-0.6h1.1l-0.7,4.5L110.2,15.3
	L110.2,15.3z"/>
<path fill="#FFFFFF" d="M115.3,14.1c0,0.2,0.1,0.4,0.4,0.5c0,0,0.1,0,0.1,0c0.4,0,0.7-0.3,0.9-0.7c0.1-0.2,0.1-0.4,0.2-0.6
	c-0.3,0.3-0.8,0.5-1.2,0.5c-0.7,0-1.3-0.5-1.3-1.2c0,0,0-0.1,0-0.1c0-1.1,0.9-1.9,1.9-1.9c0.1,0,0.1,0,0.2,0
	c0.8-0.1,1.6,0.5,1.6,1.4c0,0.1,0,0.2,0,0.4c0,2.2-1.3,3.1-2.5,3.1c-0.7,0.1-1.3-0.3-1.4-1c0,0,0-0.1,0-0.1L115.3,14.1z M116.1,12.9
	c0.4,0,0.8-0.4,0.7-0.8c0,0,0,0,0-0.1c0-0.3-0.2-0.5-0.4-0.5c0,0-0.1,0-0.1,0c-0.4,0-0.8,0.4-0.8,0.8c0,0,0,0,0,0
	C115.5,12.6,115.7,12.8,116.1,12.9C116.1,12.9,116.1,12.9,116.1,12.9L116.1,12.9z"/>
<path fill="#FFFFFF" d="M122.6,15.3h-1.2l0.1-0.9h-2.1l0.1-0.9l2.4-2.7h1.2l-0.4,2.7h0.6l-0.1,0.9h-0.6L122.6,15.3z M121.9,12
	l-1.3,1.4h1.1L121.9,12z"/>
<path fill="#FFFFFF" d="M128.7,13.8c0,0.6-0.4,1.6-2.1,1.6c-1.1,0-1.7-0.4-1.7-1.2c0-0.6,0.4-1.2,0.9-1.4c-0.3-0.2-0.4-0.4-0.4-0.7
	c0-0.9,0.8-1.6,1.6-1.6c0.1,0,0.1,0,0.2,0c0.9,0,1.5,0.4,1.5,1.1c0,0.5-0.3,1-0.7,1.2C128.5,13,128.7,13.4,128.7,13.8z M127.5,13.8
	c0-0.3-0.2-0.5-0.5-0.5c0,0-0.1,0-0.1,0c-0.4,0-0.7,0.2-0.7,0.6c0,0,0,0.1,0,0.1c0,0.3,0.2,0.5,0.5,0.5c0,0,0,0,0.1,0
	c0.4,0,0.7-0.2,0.7-0.6C127.5,13.9,127.5,13.9,127.5,13.8L127.5,13.8z M127.2,11.4c-0.3,0-0.6,0.2-0.6,0.6c0,0,0,0,0,0
	c0,0.2,0.2,0.4,0.4,0.4c0,0,0,0,0.1,0c0.3,0,0.6-0.2,0.6-0.5c0,0,0,0,0,0C127.6,11.6,127.4,11.4,127.2,11.4
	C127.2,11.5,127.2,11.5,127.2,11.4L127.2,11.4z"/>
</svg>
